<?xml version="1.0" encoding="utf-8"?>
<!-- Generator: Adobe Illustrator 25.2.1, SVG Export Plug-In . SVG Version: 6.00 Build 0)  -->
<svg version="1.1" id="Layer_1" xmlns="http://www.w3.org/2000/svg" xmlns:xlink="http://www.w3.org/1999/xlink" x="0px" y="0px"
	 viewBox="0 0 447.7 447.7" style="enable-background:new 0 0 447.7 447.7;" xml:space="preserve">
<style type="text/css">
	.st0{stroke:#E9B100;stroke-width:2;stroke-miterlimit:10;}
	.st1{stroke:#00C960;stroke-miterlimit:10;}
	.st2{fill:none;stroke:#E9B100;stroke-width:2;stroke-miterlimit:10;}
</style>
<g>
	<path class="st0" d="M164.4,82.8c3-3.6,6.1-6.8,8.6-10.2c2.2-3,3.8-6.4,5.7-9.6c0.2-0.3,0.2-0.6,0.4-0.9c0.2-0.3,0.4-0.5,0.8-1
		c1.6,0.7,3.2,1.5,4.8,2.2c2.3,1,4.8,1.7,7,2.8c1,0.5,2,1.7,2.2,2.9c0.6,3.6,1.1,7.3,1.1,11.1c-0.1,4.8-0.7,9.8-1.1,14.7
		c-0.1,1.1-0.2,2.3-0.2,3.4c0.1,1.2,0,2.4,1.8,2.8c1.9,0.4,3.4,1.8,4.7,3c2.6,2.5,5,5.2,7.4,7.9c3.1,3.5,4.6,8.1,6,12.6
		c1.3,4.3,1.7,9.2,1.8,13.9c0.1,4.2-0.5,8.5-1.3,12.9c-0.7,3.4-1.9,6.9-5.4,9.5c-0.3,0.2-0.2,1.4,0.1,1.8c1.8,2.4,4,4.5,5.4,7.2
		c1.7,3.5,3.1,7.3,4,11.2c1,4.1,1.5,8.5,2.1,12.8c0.1,0.7-0.1,1.5-0.3,2.3c-0.5,1.9-0.4,3.5,0.7,4.9c0.3,0.4,0.1,1.5-0.2,2.2
		c-1.2,2.8-2.6,5.6-3.9,8.3c-1.3,2.6-2.6,5.1-3.9,7.7c-1.2,2.5-2.2,5.1-3.4,7.6c-2,4.1-4.2,8.2-6.2,12.4c-0.4,0.9-0.7,1.8-0.9,2.6
		c-1.4,5.1-5.2,9.4-7.7,14.1c-0.9,1.6-1.5,3.3-2.3,5c-1,2.1-2,4.1-3,6.2c-0.9,1.7-1.8,3.3-2.7,4.9c-2.5,4.7-4.6,9.4-7.4,13.9
		c-1.2,1.8-2,3.7-2.9,5.5c-1.5,2.9-2.9,5.7-4.5,8.6c-2.1,3.8-4.4,7.6-6.2,11.5c-1.8,4.1-4.8,7.9-5.9,12.2c-0.4,1.7-1.9,3.5-3,5.2
		c-5.1,8-9,16.3-13.3,24.5c-0.8,1.5-1.3,3.1-1.9,4.7c-2.2-0.2-4.2-0.3-5.5-1.8c-0.4-0.4-1.4-0.2-2.1-0.3c-1.8-0.2-3.5-0.5-5.4-0.7
		c-0.6,1-1.1,2.1-1.7,3.2c-0.7,1.4-1.5,2.7-2.1,4.1c-0.5,1.1-0.9,2.3-1.3,3.4c-0.4,1-0.6,2.2-1.2,3.1c-1,1.5-1.8,0.5-2.7,0.3
		c-1.6-0.4-3.5-0.4-5.2-0.5c-3.2-0.2-5.3-1.8-7.3-3.7c-0.5-0.4-1.1-0.7-1.6-1.2c-0.4-0.4-0.9-0.7-1.1-1.2c-0.5-1.4-1.1-2.8-1.2-4.3
		c-0.3-2.5-0.1-5.1-0.4-7.6c-0.2-2.6-0.7-5.1-1-7.6c-0.2,0-0.4,0.1-0.6,0.1c-0.9,1.8-1.9,3.5-2.7,5.3c-1.1,2.7-2,5.5-2.9,8.2
		c-0.6,1.8-0.9,3.5-1.7,5.3c-0.8,1.9-2,3.8-3,5.6c-0.1,0.1-0.3,0.3-0.5,0.3c-0.9,0.3-4.1-1.3-4.1-2.1c0-1-0.5-1.2-1.5-1.2
		c-4.8-0.2-9.5-0.6-14.2-0.9c-2.4-0.2-3.4-3.1-1.8-4.9c-2.9-1.3-3.2-3.3-1.1-6.7c0.8-1.4,1.3-3.1,1.4-4.5c0.5-5.3,0.7-10.5,1.3-15.8
		c0.5-4.5,1.3-9.1,1.9-13.7c0.2-1.9,0.2-3.8,0.2-5.7c0-1.2-1-1.1-1.9-0.8c-4.1,1-8.1,2.1-12.2,3.2c-2.5,0.7-5.1,1.4-7.5,2.4
		c-2.1,0.9-4,2.4-6,3.6c-4.2,2.5-6.7,1.9-8.3-1.6c-1.9-4.3-1.8-9.3-1.4-14.5c0.2-2.7-0.1-5.3-0.1-8c0-3.7,0.1-7.4,0-11.1
		c0-0.7-0.5-1.4-0.6-2.1c-0.2-0.9-0.2-1.8-0.2-2.7c0-0.5,0.4-1.1,0.4-1.5c0-1.4,0.3-2.2,2-2.1c0.3,0,0.8-0.3,1-0.6
		c2.6-3.4,5.1-6.9,7.7-10.3c3.7-4.8,7.1-9.7,11.2-14.2c5-5.4,8.7-11.4,12.5-17.3c0.7-1.2,0.7-2.8,0.6-4.1c-0.1-2-0.1-3.9-1.7-5.3
		c-0.9-0.7-0.6-2.8-0.5-4.3c0.1-1.4,0.8-2.9,1.2-4.3c0.1-0.3,0.1-0.6,0.1-1.1c-1.6,0-3.2,0.1-4.8,0c-3.8-0.3-7.8-0.1-11.3-1
		c-3.5-1-7.2-2.4-8-6.3c-0.5-2.3,0-5,0.2-7.5c0.3-3.8,0.6-7.6,0.9-11.5c0.2-2.3,0.5-4.5,0.6-6.8c0.1-1.2-0.1-2.4-0.1-3.5
		c0-0.3-0.1-0.6-0.1-1c0.3-2.8,0.7-5.6,1.1-8.4c0.1-0.4,0.3-0.9,0.5-1.3c0.4,0.1,0.9,0,1.2,0.2c1.2,0.6,2,0.3,3-1.2
		c1.5-2.3,3.4-4.4,5.1-6.6c1.4-1.9,2.7-3.9,4.1-5.8c2.5-3.4,5.2-6.7,7.6-10.1c1.7-2.3,2.9-4.8,4.6-7.2c3.5-4.8,7.1-9.6,10.8-14.3
		c2.1-2.7,3.9-5.6,6.3-8.1c3.2-3.3,5.2-7.3,8.1-10.7c2.3-2.6,4.2-5.3,6-8.2c0.8-1.2,2-2.3,3.1-3.6c0.5,0.2,1.2,0.3,1.9,0.5
		c0.5-0.5,1-1.1,1.4-1.5c3.6,0.7,7.1,1.3,10.7,2c1.4-4.2,4.3-7.4,6.7-10.7c4.2-5.8,8.3-11.7,12.3-17.6c1.1-1.6,1.6-3.5,2.7-5.1
		c1.1-1.6,2.4-3.1,3.8-4.5c0.4-0.4,1.7-0.1,2.5,0c3.7,0.7,7.4,1.4,11,2.2c1.4,0.3,2.9,0.6,4.2,1c2.9,1.1,2.8,3.9,2.5,6.7
		c-0.5,4.1-1.1,8.2-1.7,12.3c-0.1,0.7-0.5,1.5-0.7,2.3C164.3,81.5,164.4,82.2,164.4,82.8z M181.5,238.8c0.1-0.8,0.2-1.1,0.2-1.3
		c0.9-6.5,1.8-13,2.7-19.5c0.1-1,0.4-1.7,1.6-1.5c0.9,0.1,1.6,0.3,2.5-0.8c0.2-0.2,0.9-0.1,1.3-0.1c2.2,0.1,4.3,0.6,6.6,0.4
		c4.8-0.4,9.3-1.8,13.4-5.8c3.3-3.2,4.9-6.7,5.6-10.4c1.2-6.9,0.3-13.2-1.6-19c-1.3-4-3.2-7.8-5.5-11.3c-1.4-2.1-3.6-3.8-6-4.7
		c-2.1-0.9-2.9-2.3-3.2-4.2c-0.2-1.3,0.4-2.3,2.3-2.9c2.1-0.8,4.7-1.3,6.1-3.6c1.1-1.8,2.1-3.8,2.5-5.7c0.6-2.8,0.7-5.6,0.9-8.4
		c0.6-8.2-1.3-15.3-4.8-21.7c-1.4-2.6-3-5.2-5.1-7.2c-2.1-2.1-5-3.6-7.5-5.4c-1.1,0.9-1.8,1.5-2.6,1.8c-0.4,0.2-1.1,0.1-1.2-0.1
		c-0.4-1-1-2-0.9-3.1c0.3-3.7,0.9-7.5,1.2-11.2c0.5-5.8,0.9-11.6,1-17.3c0.1-4.5-3.2-6.9-8.5-6.6c-0.1,2.2-0.1,4.2-0.3,6.4
		c-0.5,6.3-0.9,12.6-1.5,19c-0.3,3.5-1,7.1-1.6,10.7c-0.2,0.9-0.7,1.5-1.9,1.9c-1.7,0.6-2.5-0.2-3.8-0.5c-1.9-0.3-3.9-0.5-5.6-1
		c-2.1-0.7-4-1.8-6.1-2.6c-0.7-0.3-2,0.1-2.3-0.4c-0.9-1.3-1.9-2.8-1.8-4.4c0-2.9,0.8-5.9,1.3-8.9c1.2-7.4,2.4-14.8,3.5-22.2
		c0.1-0.7-0.5-1.6-1.1-1.8c-2.3-0.8-4.7-1.4-7.2-1.9c-1.4-0.3-2.9-0.3-4.4-0.5c-0.1,1.3-0.1,2.3-0.3,3.3c-0.5,3.6-1.1,7.1-1.5,10.7
		c-0.6,5.8-1.1,11.5-1.6,17.3c-0.1,1.5-0.2,2.9-0.6,4.4c-0.2,1-0.8,2.1-1.3,3.1c-0.7-0.2-1.4-0.4-2.1-0.5c-0.2,0-0.3,0-0.5,0
		c-3,0-6,0-9,0c0.1,0.1,0.2,0.2,0.3,0.4c0.8,0.7,1.7,1.3,2.4,2.2c0.3,0.4,0,1.3-0.1,1.9c-0.6,0.1-1.2,0.3-1.7,0.2
		c-3-0.6-3.4-1.8-2-5.1c-1.5-0.2-3-0.4-4.5-0.7c-3.5-0.6-6.9-1.2-10.4-1.7c-1-0.1-2.2,0.1-3.4,0.1c-0.3,3.9-0.5,7.5-0.7,11.1
		c0,0.5,0.6,1.2,1.1,1.2c4.1,0.2,8.2,0.3,12.3,0.2c2.9-0.1,5.9-0.5,8.8-0.7c1.5-0.1,3,0,4.4-0.1c2.4-0.2,3.9,1,5,2.6
		c0.8,1.1,0.2,2.3-0.7,3.6c-0.2,0.3-0.3,0.8-0.3,1.2c-0.3,2.5-0.6,5-0.8,7.5c-0.6,6.7-1.2,13.5-1.8,20.2c-0.5,5.7-1.2,11.4-1.8,17.1
		c-0.3,3-0.6,6.1-0.9,9.1c-0.3,3.7-0.4,7.3-0.7,10.9c-0.2,1.9-0.3,3.5,2.1,3.8c1.4,0.2,2.2,1.4,1.6,3c-0.5,1.6-1.8,2.2-3.3,2.3
		c-0.4,0-0.9,0.2-1.1,0.5c-1.3,1.3-2.5,1.6-3.3,0.6c-0.8-1-1.9-0.9-3.2-0.8c-4.1,0.4-8,0.1-11.6-0.8c-2.8-0.7-5.9-0.5-9.2,0
		c-0.4,1.8-0.8,3.4-1,4.9c-0.4,3-0.6,6.1-0.9,9.1c-0.1,1.8,0.9,2.9,2.5,2.9c1.6,0,3.2-0.2,4.8,0c5.4,0.5,11.7-1.5,16.5,1
		c0.1,0.1,0.3,0,0.5,0c2.4,0,2.5,2.3,3.9,3.4c0.2,0.1-0.1,0.8-0.1,1.2c-0.1,0.6-0.2,1.2-0.3,1.8c-0.3,3.3-0.4,6.5-0.8,9.8
		c-0.6,5.2-1.4,10.4-2.2,15.7c3.1-1.6,4.7,0.7,7.3,0.5c2.5-0.2,5-0.2,7.4-0.3c-0.4-2.2-1.2-3.9-1-5.7c0.5-4.7,1.3-9.5,2.1-14.2
		c0.6-3.4,1.3-6.9,2.1-10.7c1.1,0.2,2,0.1,2.3,0.5c1.4,2,4,1.9,6.3,1.8c3.6-0.1,6.4,0.8,8.3,3.3c0,0.1,0.2,0,0.3,0
		c0.7-0.4,1.9-0.9,2.1-0.6c0.8,1,1.7,2.2,1.7,3.5c0,2.3-0.8,4.7-1,7c-0.4,3.9-0.7,7.8-1,11.6c-0.1,1.1,0.4,1.2,1.4,1
		c1.6-0.2,3.2-0.1,4.8,0C177.3,238.3,179.3,238.6,181.5,238.8z M69.1,210.7c2.3,0.1,3.2-0.6,4.2-2.9c0.2-0.5,0.5-1,0.8-1.5
		c1.4-2,2.9-4,4.4-6c0.7-0.9,1.3-1.8,2-2.7c0.9-1.2,2-2.3,2.9-3.6c2.8-4.1,5.5-8.1,8.1-12.3c2.4-3.8,4.7-7.7,7-11.5
		c0.7-1.1,1.3-2.3,2-3.4c2.9-4.5,5.8-9,8.8-13.5c1.6-2.4,3.4-4.6,5.1-7c0.2-0.2,0.4-0.4,0.5-0.6c1.6-2.6,3.1-5.2,4.7-7.8
		c1.7-2.7,3.6-5.3,5-8c2.3-4.3,5.3-8.2,8.6-12c0.4-0.5,0.8-1.2,0.8-1.8c0-0.3-0.9-0.4-1.4-0.4c-3.4,0.2-6.8,0.5-10.2,0.5
		c-1.9,0-3.6-0.5-5.5-0.5c-1.3,0-3,0.2-4,1c-2.1,1.8-4.1,3.9-5.6,6.2c-2.2,3.2-3.8,6.7-5.8,10c-2.5,3.9-5.1,7.8-7.7,11.7
		c-1.1,1.6-2.3,3-3.6,4.5c-1.1,1.3-2.4,2.5-3.4,3.8c-1.4,1.8-2.5,3.9-3.9,5.7c-2.1,2.6-4.5,5.1-6.7,7.8c-1.3,1.6-2.6,3.3-3.8,5
		c-3.4,4.8-6.9,9.5-10.1,14.4c-2,3-3.7,6.1-5.6,9.2c-2,3.3-4.1,6.5-6.1,9.8c-0.9,1.6-0.3,4.4,1.2,4.7c2,0.5,4,1,6.1,1.1
		C61.7,210.9,65.4,210.7,69.1,210.7z M133,244.7c-1.1,1.9-2.1,3.7-3.2,5.6c-2.4,3.8-3,7.9-5.6,11.6c-2.1,3-3.6,6.2-5.4,9.4
		c-2.3,3.9-4.5,7.9-6.8,11.8c-3.2,5.5-6.4,11-9.6,16.5c-0.9,1.6-1.5,3.7-2.8,4.8c-2.1,1.7-2.4,3.9-3.6,5.8c-2.7,4.2-4.6,8.6-6.8,13
		c-2.3,4.5-4.7,9-7.2,13.6c1.9-0.7,2.8,0.2,3.1,1.2c0.2,1-0.4,2.3-0.8,3.5c-0.1,0.2-1.3,0.6-1.7,0.5c-0.9-0.3-1.7-1-2.8-1.7
		c-1.9,3.8-3.8,7.3-5.6,10.8c-0.7,1.3-1.3,2.6-2,3.9c-1.1,2.1-0.4,4.3,1.7,4.4c3.3,0.2,6.6,0.4,10,0.5c2.9,0.1,4.9-1.3,6.4-4.1
		c0.4-0.7,0.7-1.4,1-2.1c1.4-3.3,2.5-6.6,4.1-9.8c2.7-5.3,5.8-10.4,8.8-15.7c1.5-2.7,3-5.3,4.4-8c1.3-2.4,2.3-4.9,3.7-7.2
		c4.1-7.2,8.3-14.4,12.3-21.7c3.7-6.8,7.2-13.7,10.7-20.6c1-1.9,1.9-3.9,2.9-5.8c0.8-1.5,2.1-2.9,2.8-4.4c1.9-4.1,3.5-8.3,5.3-12.4
		c0.6-1.5,0.2-1.9-1.3-1.8c-1.6,0.1-3.1,0.1-4.6,0c-1.2-0.1-2.3-0.8-3.5-0.5C134.9,246.2,134.1,245.4,133,244.7z M39.3,313.2
		c0.2,0,0.5,0,0.7-0.1c2.9-3.9,5.9-7.7,8.6-11.6c2.1-2.9,3.8-6,5.8-9c1.6-2.4,3.5-4.7,5.1-7c3.4-4.8,6.8-9.7,10.3-14.6
		c2.9-4.1,6.1-8.1,8.9-12.3c2.6-3.8,4.8-7.8,7.3-11.7c2.7-4.1,5.5-8.2,8.2-12.3c1.3-1.9,2.5-3.9,3.7-5.8c1.3-2.2,2.6-4.5,3.9-6.7
		c1.2-2.1,2.3-4.3,3.3-6.1c-0.9-0.4-2-0.5-2.2-1.1c-0.5-1.4-0.9-3-0.7-4.7c0.3-3.1,1-6.2,1.4-9.3c0.2-1.7,0.2-3.4,0.3-5
		c-0.2,0-0.4,0-0.5,0c-0.4,0.5-0.8,1-1.2,1.5c-1.5,2.1-2.8,4.3-4.4,6.4c-2.5,3.4-5.2,6.8-7.8,10.3c-2.1,2.8-4,5.7-6,8.6
		c-2.6,3.5-5.2,7-7.9,10.5c-1.8,2.3-3.8,4.6-5.6,6.9c-1.7,2.2-3.2,4.5-4.8,6.7c-1.1,1.5-2.2,2.9-3.3,4.4c-1.7,2.2-3.1,4.6-5,6.5
		c-2.9,2.9-6.2,5.5-7.4,9.3c-0.1,0.3-0.3,0.7-0.5,0.8c-2,1.2-2.2,3.2-3.4,4.8c-0.3,0.4-0.5,0.8-0.8,1.1c-3.8,4.5-7,9.1-6.3,14.4
		c0.1,0.4-0.1,0.8-0.1,1.2c0,2.9-0.1,5.7-0.1,8.6c0,3.2,0.2,6.4,0.3,9.6C39.2,309.5,39.2,311.3,39.3,313.2z M44.8,314.3
		c0.7,0,1.1,0,1.5-0.1c2.5-0.9,5-1.7,7.5-2.6c5.6-2,11.2-3.8,16.8-4.5c0.6-0.1,1.6-0.7,2-1.3c1.4-2,2.6-4.1,3.8-6.3
		c3.3-6.4,6.1-13,10.7-19.1c2.3-3,3.9-6.5,5.8-9.7c2.4-4.1,4.6-8.3,7.1-12.3c2.1-3.5,4.5-6.9,6.8-10.3c2.2-3.2,4.6-6.2,6.7-9.4
		c2.3-3.5,4.5-7,6.5-10.6c2.1-3.8,4-7.6,6.1-11.4c1.9-3.3,1.8-3.6-1.7-3.4c-0.2,0-0.5,0.1-0.7,0.1c-3,0.1-6.1,0.4-9,0.1
		c-1.6-0.2-2.3,0.5-3,1.6c-1.3,2-2.5,4.2-3.8,6.2c-2.6,4-5.2,7.9-7.8,11.9c-1.5,2.3-2.8,4.6-4.3,7c-0.4,0.7-1.1,1.3-1.5,2.1
		c-2,3.4-4,6.8-6.1,10.2c-1.7,2.7-3.5,5.4-5.2,8.1c-0.9,1.3-1.6,2.7-2.5,4c-4,5.3-8,10.5-12,15.8c-1.9,2.5-3.6,5-5.8,7.4
		c-1.5,1.7-2.8,3.8-4.4,5.6c-0.3,0.4-0.5,0.9-0.8,1.3c-1.4,2.3-2.7,4.7-4.2,7c-2.4,3.6-4.9,7-7.4,10.5
		C45.5,312.8,45.2,313.5,44.8,314.3z M139.2,117.6c-0.2,0-0.5,0-0.7,0c-0.8,1.4-1.6,2.7-2.4,4.1c-2.2,3.3-4.6,6.6-6.8,9.9
		c-0.6,0.9-1,1.9-1.6,2.8c-1.5,2.2-3.7,4.2-4,6.9c0,0.2-0.2,0.5-0.3,0.7c-2.2,3.1-4.4,6.2-6.5,9.4c-1.9,3-3.7,6-5.5,9
		c-2.7,4.4-5.5,8.9-8.2,13.3c-1.6,2.7-3.1,5.4-4.8,8c-3.2,4.9-6.6,9.7-9.9,14.5c-2.4,3.5-4.9,7-7.3,10.6c-0.8,1.2-1.6,2.5-2.4,3.7
		c1.1,0.2,2.1,0.6,3.3,0.7c1.6,0.2,2.1,0.8,1.6,2.3c-0.8,2.2-1.1,2.4-3,2.1c-1.1-0.1-2.2-0.2-3.3-0.2c-0.5,0-1.2,0.3-1.5,0.6
		c-1.4,1.6-2.2,3.2-2,5.1c0.1,1.6-0.1,3.2-0.1,4.8c0,0.6,0.1,1.2,0.2,2c1.6-1.8,3.1-3.3,4.3-4.9c3.1-4,6.2-8.1,9.2-12.2
		c2.6-3.6,4.9-7.3,7.5-10.9c3.3-4.6,5.8-9.6,10.6-13.4c1.3-1.1,2.2-1.6,3.6-1.4c3.8,0.3,7.5,0.7,11.3,0.9c3.2,0.2,6.4,0.2,9.6,0.2
		c1,0,2.1-0.1,2.2-1.5c0-1.1,1.2-2.9-1-3c-1.8-0.1-3.2-1.9-2.7-3.5c0.1-0.5,0.6-1.1,1-1.3c0.3-0.2,0.9,0.1,1.2,0.3
		c0.6,0.5,1.2,1,2.1,1.8C134.9,158.3,137.1,137.9,139.2,117.6z M162.4,253.2c0.9-1.7,2.1-3.8,3-5.9c0.3-0.6-0.1-1.4-0.2-2.1
		c-0.2-0.7-0.7-1.2-0.6-1.9c0.2-4.3,0.4-8.5,0.7-12.8c0.2-2.2,0.5-4.4,0.7-6.6c-0.2,0-0.5,0-0.7,0c-4.9,10.4-7.7,21.1-13.8,31.5
		c-0.9-0.2-2-0.6-3.3-1c-1.1,2.3-2.2,4.5-3.3,6.7c-0.8,1.7-1.5,3.5-2.4,5.2c-1.8,3.3-3.8,6.6-5.6,9.9c-1.5,2.6-2.9,5.3-4.4,7.9
		c-0.6,1.1-1.4,2.2-1.9,3.4c-2.2,4.5-4.4,9.1-6.7,13.6c-0.1,0.2-0.3,0.5-0.5,0.6c-1.7,0.4-1.5,1.7-2,2.7c-1.1,2.4-1.9,5-3.6,7
		c-2,2.3-3.1,4.8-4.1,7.1c-2,5.1-4.8,9.9-7.7,14.7c-0.8,1.4-1.1,2.4-0.4,3.5c0.6,0.9,1.2,2.3,0.8,3.3c-0.8,2.1-0.5,3.7-0.3,5.4
		c0.2,1.4,0.3,2.9,0.4,4.3c0.1,1.3,0.3,2.5,0.4,3.8c0.2,0,0.5,0,0.7,0c0.8-1.2,1.6-2.4,2.4-3.7c0.7-1.2,1.3-2.5,2.1-3.7
		c1.6-2.6,3.4-5.2,5.1-7.9c3.9-6.4,7.7-12.7,11.5-19.1c2.2-3.7,4.3-7.4,6.3-11.2c1.1-2.1,1.6-4.4,2.8-6.4
		c3.3-6.1,6.8-12.1,10.1-18.2c2-3.6,3.6-7.3,5.4-11c1.1-2.3,2.3-4.6,3.4-6.9c1.6-3.3,3.2-6.7,4.7-10c0.1-0.2,0-0.4,0-0.4
		c-0.7,0.3-1.4,0.7-2,0.7c-2.1,0-2.6-3.1-0.6-5.7C160,251.2,161.1,252.2,162.4,253.2z M73.9,339.3c0.2,0,0.4,0,0.6,0
		c0.7-1.1,1.6-2.1,2.2-3.2c2.1-3.7,4.1-7.4,6.1-11.1c1.8-3.2,3.7-6.5,5.6-9.7c1.8-3.1,3.8-6.1,5.5-9.2c2.4-4.1,4.6-8.3,6.9-12.4
		c1.1-1.9,2.3-3.8,3.5-5.7c3-5,6-10,8.8-15c2.6-4.5,5.1-9.1,7.6-13.7c1.2-2.1,2.2-4.3,3.2-6.5c1.2-2.7,2.8-5.4,3.3-8
		c1.4-8.3,2.4-16.6,3.5-24.9c0.2-1.8,0.4-3.6,0.6-5.4c0-0.3-0.4-0.5-0.5-0.7c-0.5,2.1-0.7,4.1-1.3,6c-0.7,1.9-1.7,3.7-2.7,5.5
		c-1.9,3.4-3.7,6.8-5.8,10.1c-2.6,4.1-5.4,8.1-8,12.2c-2.9,4.4-5.8,8.8-8.6,13.2c-1.8,2.8-3.5,5.7-5.1,8.5c-1.6,2.9-3.2,5.8-4.7,8.7
		c-2.9,5.7-7.2,10.9-9.8,16.8c-1.8,4-3.9,8-5.8,11.9c-0.2,0.5-0.1,1.4,0.2,1.5c1.6,0.3,1.8,1.5,1.3,3c-0.5,1.5-1.4,2.4-3.2,2.3
		c-0.2,1-0.3,1.8-0.4,2.6c-0.6,4.6-1.3,9.1-1.8,13.7C74.3,332.7,74.1,336,73.9,339.3z M128.3,328.4c-1.5,2-2.9,3.8-4.1,5.7
		c-1.1,1.7-2.1,3.4-2.9,5.2c-1.1,2.6-3.7,5-3.4,7.9c0.1,0.5-0.8,1.6-1.4,2c-2,1.3-3,3.1-3.8,5.1c-0.6,1.5-1.4,2.9-2.2,4.3
		c-1.6,3.1-1.6,3.5,0.7,5.1c1.6,1.1,3.6,1.4,5.7,0.8c0.8-0.2,1.6-2.1,2.2-3.2c2.7-5,5.4-10,8.1-15c2.1-3.9,4.2-7.9,6.5-11.8
		c1.9-3.2,4.1-6.4,6.2-9.6c2.3-3.5,4.7-7.1,7.1-10.6c0.3-0.5,0.8-0.9,1.1-1.4c1-1.9,1.7-3.8,2.8-5.6c2.7-4.8,5.7-9.5,8.4-14.3
		c2.4-4.3,4.4-8.7,6.6-13.1c0.8-1.5,1.7-3,2.4-4.6c2.7-6.1,5.3-12.2,8-18.3c1.9-4.1,4-8.2,6.2-12.5c-3.6-0.6-7.5-1.4-12-0.2
		c-1.1,0.3-1,0.8-1,1.6c0,1.4-0.2,2.9-0.8,4.2c-0.9,2.1-2.2,4.1-3.1,6.2c-1.6,3.5-2.8,7-4.5,10.4c-1.6,3.3-3.7,6.5-5.5,9.7
		c-0.4,0.7-0.4,1.4-0.6,2.1c1.5-1.3,2.2-3.4,4.5-3.2c0.8,3,0.4,4.7-1.2,5.8c-1.5,1-2.7,0.5-4.1-1.5c-0.3,0.4-0.7,0.7-0.8,1
		c-1.2,2.5-2.3,5-3.6,7.4c-2,3.9-4.1,7.8-6.3,11.7c-0.7,1.3-1.1,2.4-0.8,3.7c0.4,1.6,0.4,3.4,0.3,5.2c0,0.6-0.8,1.3-1.2,1.9
		c-0.5-0.2-0.9-0.4-1.4-0.6c-0.5-0.3-1-0.6-1.5-0.9c-0.8,1.3-1.6,2.4-2.3,3.7c-1.2,2.3-2.3,4.7-3.5,7c-0.4,0.8-1.4,1.4-1.6,2.2
		c-0.4,1.3-0.4,2.5-0.5,3.8C130.7,327.9,130.1,328.4,128.3,328.4z M188.5,220.2c-0.2,0.9-0.3,1.6-0.4,2.3c-0.7,4.5-2.1,9-1.8,13.3
		c0.2,2.2-0.1,4.5-0.2,6.8c0,0.3,0.2,0.6,0.4,0.8c1.1,1,0.9,2.3,0,3.8c-0.8,1.3-1.7,2.5-2.3,3.8c-2,4.4-3.9,8.8-5.9,13.2
		c-1.8,4-5.3,7.6-5.8,11.8c0,0.1-0.1,0.1-0.1,0.2c-2.1,4.1-4.3,8.2-6.3,12.3c-1.8,3.7-3.3,7.5-5.3,11.2c-2.2,4-4.9,7.9-7.4,11.8
		c-2.8,4.4-5.7,8.8-8.5,13.2c-0.1,0.1-0.1,0.2-0.1,0.4c-2.6,5.5-5.7,10.8-10,15.6c-0.3,0.3-0.4,0.7-0.5,1c-1,2.4-1.8,4.9-2.9,7.3
		c-0.6,1.4-0.4,1.9,0.8,2.1c1.9,0.3,3.9,0.6,5.8,0.9c0.7-1,1.5-1.9,1.7-2.7c0.8-2.5,4-5.3,1-7.4c-0.5-0.3-0.7-1.8,0.7-2.8
		c1.4-1,2.4-1.2,3.1,0.1c0.1,0.2,0.3,0.3,0.7,0.7c0.8-1.4,1.5-2.5,2.1-3.7c1.1-2.1,2.3-4.3,3.4-6.5c1.1-2.1,2.3-4.2,3.5-6.5
		c-0.6-0.1-0.8-0.1-0.9-0.1c-1.6,0.4-2.6-0.3-3.1-1.5c-0.5-1.1,0.2-2.1,1.4-3c0.2-0.2,0.4-0.5,0.6-0.8c0.4-0.5,0.8-1,1.3-1.6
		c0.4,0.5,1,0.9,1.2,1.5c0.2,0.7,0,1.6-0.1,2.4c-0.1,0.7-0.2,1.5-0.3,2.2c0.2,0,0.4,0.1,0.6,0.1c0.5-1,1.3-1.9,1.5-2.9
		c1-3.7,2.9-7.1,5.1-10.5c1.4-2.2,3.1-4.4,3-7c0-0.7,0.8-2.1,1.3-2.2c2.4-0.6,2.5-2.6,3.3-4c2.9-5.2,5.5-10.5,8.5-15.7
		c2.2-3.8,4.7-7.6,5.7-11.7c0.1-0.3,0.3-0.7,0.5-1c1.6-2.7,3.2-5.4,4.7-8.2c1.8-3.4,3-7.1,5.2-10.4c3.7-5.5,5.8-11.3,8.9-16.9
		c2.1-3.8,3.6-7.7,5.4-11.6c0.2-0.5,0.3-1,0.5-1.7C200.9,222.3,192.4,221.8,188.5,220.2z M50.4,195.7c0.6-0.4,0.8-0.5,0.9-0.6
		c4.5-6.9,8.8-13.8,13.4-20.6c2.8-4.1,6-7.9,9-11.8c1.7-2.2,3.6-4.3,5.3-6.5c1.7-2.1,3.3-4.3,4.9-6.4c1.8-2.4,3.7-4.9,5.5-7.3
		c1.4-1.9,3-3.7,4.2-5.7c2.7-4.1,5.2-8.2,7.8-12.3c2-3.1,4-6.3,5.9-9.4c0.9-1.4,1.7-2.9,2.5-4.4c0.1-0.1,0-0.3,0-0.5
		c0-3.8,0-7.6,0-11.4c0-0.5-0.1-1-0.2-1.8c-0.7,0.5-1.1,0.7-1.4,1c-1.4,1.8-2.8,3.5-4.2,5.3c-1,1.2-2.2,2.3-3.1,3.6
		c-3.2,4.4-6.3,8.9-9.5,13.3c-2.2,3.1-4.6,6-6.8,9.1c-2.9,3.9-5.9,7.9-8.6,11.9c-2.3,3.4-4.1,7-7.3,9.9c-1.3,1.2-2,2.5-0.8,3.9
		c0.6,0.7,0.3,2,0.4,3.4c-1.5-0.5-2.5-0.9-3.6-1.2c-1,1-2.5,1.8-2.8,2.8c-0.8,2.4-2.4,4.4-3.9,6.5c-1.8,2.6-4.2,5.1-3.4,8.2
		c0.1,0.3-0.3,0.9-0.5,1.1c-0.4,0.2-0.9,0.2-1.3,0.1c-0.7-0.2-1.3-0.6-2-1c-0.2,0.2-0.4,0.3-0.6,0.5c1.6,2.9,1.1,6.4,0.8,9.8
		C50.7,188.7,50.6,192.1,50.4,195.7z M178.3,73.2c-0.6,0.6-0.9,0.8-0.9,1c-0.9,2.5-3,4.5-4.8,6.5c-2.5,2.8-5,5.5-6.4,8.9
		c-0.6,1.3-1.6,2.6-3.5,2.7c-0.1,2.2-0.5,4.6,1.3,5.6c2.3,1.3,5.1,2.1,7.8,2.7c3.7,0.8,4.4,0.2,4.8-3.7c0.7-7,1.2-14,1.7-21
		C178.3,75,178.3,74.3,178.3,73.2z M144.9,66.6c-6.3,9.4-12.4,18.6-18.7,28c5.5,0.4,10.5,0.8,15.8,1.1c0.5-5.1,0.9-9.8,1.3-14.6
		C143.8,76.3,144.4,71.6,144.9,66.6z M152.7,217c-0.6,3.8-1.3,7.5-1.7,11.2c-0.3,2.7-0.4,5.3-0.4,7.9c0,1.5,0.6,3-1.6,4.2
		c0.7,1.4,1.4,2.6,2,3.8c0.2,0,0.4,0,0.5-0.1c0.6-1.5,1.2-3.1,1.8-4.6c1.2-2.9,2.2-5.8,3.5-8.7c1.9-4.2,2.6-8.6,6.1-12.8
		C159.5,217.6,156.2,217.3,152.7,217z"/>
	<path class="st1" d="M397.5,332.4c-1.9-0.1-3.8-0.2-5.7-0.3c-1.3-0.1-2.3,0.4-2.9,1.8c-0.9,2.3-1.8,4.5-2.5,6.8
		c-1.4,4.6-5.6,9-10.1,10.2c-3.4,0.9-6.9,1.6-10.3,2.3c-4.1,0.8-7.1-0.9-10.6-1.5c-5.1-1-10.2-1.9-15.3-2.7
		c-5.4-0.8-10.9-1.1-16.2-1.9c-3.2-0.5-6.1-1.5-9.2-2.3c-3.2-0.8-6.5-1.4-9.6-2.2c-2.5-0.7-5.1-1.5-7.4-2.6
		c-5.4-2.7-10.7-5.6-16-8.5c-2.8-1.5-4.4-4-5-7.3c-0.6-3.3-1.3-6.5-2.5-9.6c-1.2-3.4-3.3-6-7.2-7.1c-5.8-1.6-10.4-4.7-14.6-8.4
		c-1.4-1.3-3.3-2.2-5.1-3.1c-3.2-1.7-4.4-4.8-4.4-8.4c0-5.4,0.3-10.9,0.9-16.4c0.5-4.3,1.9-8.7,2.6-13c0.8-4.3,1.3-8.6,1.8-12.8
		c0.6-5.1,1.2-10.3,1.5-15.3c0.3-5.2,0.1-10.4,0.1-15.6c0-4.2-0.2-8.4-0.1-12.6c0.1-2.7,0.8-5.6,1.1-8.4c0.4-3.2,0.5-6.4,1-9.6
		c0.8-5.1,1.9-10.2,2.9-15.4c0.3-1.8,0.6-3.6,0.9-5.5c1.2-7.7,2.4-15.4,3.7-23.1c0.6-3.6,1.5-7.3,2.5-10.9c0.5-1.7,1.4-3.4,2.1-5.1
		c0.8-2,2.4-3.3,4.1-4.7c3.6-3,7.6-3.7,11.5-5.3c1.3-0.5,2.6-0.7,4-1c2.7-0.7,5.4-1.4,8.1-2.1c0.1,0,0.3-0.1,0.3-0.2
		c2.2-2.6,4.6-2.4,7-2.3c6.1,0.1,12.3,0,18.3,0.4c6.8,0.5,13.6,0.8,20,2.2c7.2,1.6,13.9,4.3,20.9,6.6c2.8,0.9,5.5,1.9,8.3,2.9
		c6.5,2.4,11.9,5.8,14.6,12.3c1.7,4.2,2.1,9,3.1,13.6c0.8,4.1,2.3,7.7,5.7,10c1.3,0.9,2.7,1.9,3.5,3.3c2.3,4.2,6.5,6.6,9.5,10.2
		c3.3,4.1,7,7.8,10.3,11.8c2.3,2.8,3.6,6.3,4,10.1c0.6,5,1.1,10.1,1.1,15.3c0,4.5-0.9,9.3-1,13.9c0,2.1,0.5,4.2,1.4,5.9
		c1.7,3.3,4.1,6.2,5.9,9.5c1.8,3.2,3.4,6.5,3.9,10.5c0.5,5,1.2,9.9,2,14.8c0.9,5.7,2,11.3,2.7,17.1c0.9,7.1,0.6,14.5-3.3,22.2
		c-2,4.1-4.6,7.9-7.9,11.5c-2.6,2.8-4.7,6.2-6.5,9.6c-3.3,6.2-11.3,10.2-17.2,10.2C398,332.3,397.8,332.3,397.5,332.4
		C397.5,332.3,397.5,332.4,397.5,332.4z M429.4,294c1.6-6.1,1.4-11.4,0.6-16.7c-1.1-7.7-2.6-15.3-3.4-23.1
		c-0.9-9.5-4.1-17.6-9.6-24.5c-2.4-3-3.6-6.5-3.1-10.8c0.6-5.7,1.3-11.5,1.6-17.1c0.4-7.7-1-14.6-5.5-19.9c-2.8-3.3-5.8-6.5-8.7-9.7
		c-3.4-3.7-6.8-7.4-10.4-10.9c-2.8-2.7-6.1-4.9-7.7-8.7c-1.1-2.7-2.4-5.2-2.5-8.5c0-2.9-0.6-5.6-1.2-8.3c-1-4.4-3.8-7.5-7.6-9.7
		c-2.2-1.2-4.6-2.2-6.9-3.2c-1.5-0.6-3.3-1-4.9-1.6c-3.5-1.3-7-2.7-10.4-4.1c-6.5-2.6-13.8-3.5-21.3-3.9c-2.6-0.1-5.1-0.5-7.7-0.9
		c-6.2-1-12.6-1.9-19.4-0.9c-1.9,0.3-3.8,1.3-5.7,1.8c-1,0.3-2.2,1.5-3.2,0.4c-0.1-0.1-0.7,0.1-1,0.2c-1.6,0.7-3.2,1.6-4.8,2
		c-3.3,0.8-6.5,0.8-9.9,2.2c-7.6,3.2-10.7,7.8-12.6,14.5c-1.5,5.2-1.7,10.4-2.6,15.6c-0.7,4-1.5,8.1-2.2,12.1
		c-0.3,1.9-0.6,3.8-0.8,5.8c-0.5,3.9-1,7.7-1.6,11.6c-0.4,2.4-1,4.9-1.3,7.3c-0.4,3.3-0.6,6.6-1,9.9c-0.3,3.2-0.7,6.5-0.9,9.7
		c-0.1,2.2,0.3,4.2,0.3,6.4c0,3-0.3,6.1-0.4,9.1c-0.1,4.2-0.1,8.4-0.2,12.7c-0.1,3.2-0.3,6.4-0.7,9.7c-0.4,3.2-1,6.4-1.5,9.6
		c-1.2,6.9-2.4,13.7-3.7,20.6c-0.3,1.8-0.8,3.6-1,5.4c-0.2,2.2-0.2,4.5-0.1,6.6c0.2,3.4,0.3,6.7,3.5,8.5c3,1.8,5.6,4.1,8.3,6.3
		c2.5,2.1,5.4,3.6,8.9,4.3c4.3,0.9,7.4,3.5,9.1,7.2c1.8,4,2.6,8.6,4,12.8c0.4,1.3,0.9,2.8,1.9,3.5c2.9,2.1,5.9,3.9,9.1,5.6
		c3.2,1.7,6.5,3.2,10,4.5c3.4,1.3,7,2.3,10.7,3.2c2.2,0.6,4.7,0.6,6.8,1.3c4,1.3,8.2,2,12.6,2.2c2.8,0.1,5.5,0.5,8.2,1
		c2.3,0.4,4.6,1,6.9,1.5c4.6,0.9,9.3,1.7,13.9,2.6c0.9,0.2,1.8,0.4,2.7,0.2c3.4-0.5,6.9-0.9,10.3-1.7c5-1.1,9-4.9,10.5-9.7
		c0.6-1.9,1.2-3.9,1.9-5.8c1.1-3.4,3.3-4.8,6.6-4.3c4.1,0.6,8.1,1.1,12.8-1.2c3-1.5,5.4-3.3,7.2-6c2.4-3.6,4.5-7.5,7.3-10.8
		C424.1,305.1,427.5,299.8,429.4,294z"/>
	<path class="st2" d="M39.3,313.2c-0.1-1.8-0.2-3.7-0.2-5.5c-0.1-3.2-0.3-6.4-0.3-9.6c0-2.8,0-5.7,0.1-8.6c0-0.4,0.1-0.8,0.1-1.2
		c-0.8-5.3,2.5-9.9,6.3-14.4c0.3-0.4,0.5-0.8,0.8-1.1c1.2-1.6,1.4-3.6,3.4-4.8c0.2-0.1,0.4-0.5,0.5-0.8c1.2-3.9,4.5-6.4,7.4-9.3
		c1.9-2,3.4-4.3,5-6.5c1.1-1.5,2.2-2.9,3.3-4.4c1.6-2.2,3.1-4.5,4.8-6.7c1.8-2.4,3.8-4.6,5.6-6.9c2.7-3.5,5.4-7,7.9-10.5
		c2.1-2.8,4-5.7,6-8.6c2.5-3.5,5.2-6.8,7.8-10.3c1.5-2.1,2.9-4.2,4.4-6.4c0.4-0.5,0.8-1,1.2-1.5c0.2,0,0.4,0,0.5,0
		c-0.1,1.7-0.1,3.3-0.3,5c-0.4,3.1-1.1,6.3-1.4,9.3c-0.1,1.6,0.2,3.2,0.7,4.7c0.2,0.6,1.3,0.7,2.2,1.1c-1,1.8-2.1,4-3.3,6.1
		c-1.3,2.3-2.5,4.5-3.9,6.7c-1.2,2-2.4,3.9-3.7,5.8c-2.7,4.1-5.5,8.2-8.2,12.3c-2.5,3.9-4.7,7.9-7.3,11.7c-2.8,4.2-6,8.2-8.9,12.3
		c-3.5,4.8-6.8,9.7-10.3,14.6c-1.7,2.4-3.5,4.6-5.1,7c-2,3-3.7,6-5.8,9c-2.8,3.9-5.7,7.7-8.6,11.6C39.8,313.1,39.6,313.2,39.3,313.2
		z M46,289.9c0.7-2.4,0.2-3.6-0.9-3.6c-1.5,0-3.3,0.9-3.6,1.9c-0.5,1.5,0.8,3.2,2.6,3C44.8,291.2,45.6,290.2,46,289.9z M82,243.6
		c-0.4-0.8-1-2-1.7-3c-0.1-0.2-1.1-0.2-1.4,0.1c-1.9,1.5-1.8,4.8,0.1,5.3C80.3,246.4,81.5,245.6,82,243.6z M67,262.1
		c0.2-0.1,0.4-0.2,0.6-0.4c0.4-1,1.3-2.2,1.2-3c-0.1-0.9-1.1-1.6-1.8-2.2c-0.3-0.2-1.5,0.1-1.6,0.3c-0.4,0.9-1.1,2.2-0.8,2.8
		C65.1,260.6,66.2,261.3,67,262.1z M90,222.3c-1.2,0-2.3,0.9-2.6,2.2c-0.2,1.3,1.1,2.9,2.4,2.8c0.4,0,0.9-0.3,1.2-0.6
		C92.3,225.4,91.5,222.3,90,222.3z M56,275.2c0.7-2.5,0.1-3.5-1.7-3.4c-0.5,0-1.5,0.8-1.8,1.4c-0.5,1.2,0.8,3.2,2.1,3
		C55.1,276.1,55.7,275.4,56,275.2z"/>
	<path class="st0" d="M168,162c3.2,0.9,6.2,1.4,8.8,2.4c3.8,1.4,7.5,2.9,11,4.6c5.2,2.5,8.6,6.5,9.4,12.5c0.4,2.9,0.5,5.9,0.2,9
		c-0.4,4.2-3.7,7.4-7.5,9.1c-1.5,0.7-3.2,0.5-4.8,0.5c-2,0.1-4.1,0.2-6-0.1c-2.3-0.4-4.3-1.2-6.5-1.8c-1.5-0.4-3.2-0.6-4.7-1.1
		c-2.9-0.9-5.7-1.8-8.5-2.8c-0.4-0.1-0.8-0.4-0.9-0.8c-0.6-2.4-1.7-4.8-1.7-7.4c0.2-6.2,0.9-12.6,1.4-18.9c0.1-1.3,0.5-2.1,2.2-2.2
		c1.1-0.1,2.3-1,3.5-1.5C165.5,162.9,166.9,162.4,168,162z M163.1,189.4c0.4,0.3,0.8,0.8,1.3,1c3.9,1.2,7.8,2.7,11.9,3.5
		c3.1,0.6,6.5,0.5,9.8,0.6c0.2,0,0.7-0.2,0.8-0.4c0.1-0.3,0.1-0.6,0-0.9c-0.1-0.8-0.7-1.6-0.4-2.3c1.2-3,2.7-6,4-9
		c1.6,0.3,2.1,1.1,1.7,2.5c-0.7,2.6-1.4,5.2-2.1,7.9c0.1,0,0.3,0.1,0.4,0.1c0.6-0.7,1.3-1.4,1.6-2.2c2.9-6.7,1.2-12.4-3.7-15.9
		c-0.8-0.5-1.5-1.1-2.4-1.5c-2.5-1-5-1.9-7.5-2.8c-2.3-0.8-4.7-1.5-7.4-2.4c-0.4,4-3.3,7.7-3.2,11.3c0.3,0,0.5,0,0.8,0.1
		c1.3-3.3,2.7-6.6,4-9.9c0.2-0.1,0.4-0.1,0.6-0.2c0.5,0.9,1.4,1.8,1.3,2.8c-0.3,1.8-1.2,3.6-1.8,5.4c-0.8,2.4-1.5,4.9-2.2,7.3
		c-0.2,0.5-0.6,1.1-1,1.3c-0.5,0.2-1.3,0.3-1.6,0c-0.7-0.7-1.2-1.7-1.9-2.6C165.2,185.1,164.2,187.1,163.1,189.4z M168.6,167.5
		c-3.5,0.4-5.9,2.5-6.4,5.2c-0.4,2.4-0.7,4.8-1,7.2c-0.1,1.4,0.1,2.8,0.1,4.2c0.2,0,0.3-0.1,0.5-0.1
		C164.1,178.5,166.3,173.1,168.6,167.5z"/>
	<path class="st0" d="M188.6,142.5c-1.6,0.1-3.2,0.3-4.8,0.4c-0.6,0-1.3-0.1-1.8-0.2c-4.8-1.4-9.5-2.8-14.2-4.2
		c-0.3-0.1-0.8-0.1-0.9,0c-1.3,1.3-1.8,0.3-2.5-0.2c-2.8-2.4-3-6-2.6-9.9c0.4-3.7,0.6-7.3,0.9-11c0.2-2.5,2.8-4.1,5-3.6
		c3.3,0.8,6.7,1.2,10.1,1.8c2.8,0.5,5.7,0.9,8.5,1.4c0.8,0.1,1.5,0.5,2.3,0.6c4.1,0.3,6.8,2.4,8.2,5.7c1.3,2.9,2.3,6,1.8,9.6
		c-0.5,3-1.5,6.2-4.8,8.2c-1.5,1-3.4,1.3-5.1,2C188.7,142.9,188.7,142.7,188.6,142.5z M191.6,135.8c0.1,0.1,0.3,0.2,0.4,0.3
		c0.7-1,1.3-2,2-3.1c1.7-2.9,0.7-8.8-1.9-9.6c-3.7-1.1-7.5-2.1-11.5-2.7c-3.8-0.6-7.8-0.7-11.6-1.2c-1.5-0.2-2.1,0.4-2.3,1.7
		c-0.4,2.7-0.8,5.4-1,8c-0.1,1.1,0.3,2.1,0.5,3.2c0.2-0.1,0.3-0.1,0.5-0.2c0.1-0.3,0.2-0.6,0.3-0.9c0.9-2.8,1.7-5.5,2.8-8.3
		c0.2-0.6,1.2-1.1,1.8-1.7c0.4,0.5,1.1,1,1,1.6c-0.3,1.9-0.8,3.9-1.3,5.8c-0.4,1.5-0.9,3.1-1.1,4.6c-0.1,0.5,0.4,1.2,0.9,1.4
		c2.3,0.7,4.6,1.5,7,1.9c3,0.5,6.2,0.7,9.4,0.9c1.3,0.1,1.4-0.5,1.3-1.5c-0.1-0.9,0.1-1.9,0.4-2.9c0.6-1.8,1.3-3.6,2-5.4
		c0.2-0.5,0.6-1,0.9-1.5c0.2,0,0.4,0,0.6,0C194.1,129.2,192.3,132.6,191.6,135.8z"/>
	<path class="st0" d="M138.4,212.3c0.4-0.6,0.8-1.6,1.6-2.3c0.2-0.2,1.3,0.2,1.8,0.5c0.3,0.2,0.5,0.6,0.5,1c0,1.1-0.1,2.3-0.2,3.4
		c-0.1,0.5-0.3,1.2-0.7,1.4c-0.3,0.2-1,0.1-1.3-0.2C138.7,215.4,138,214.3,138.4,212.3z"/>
	<path class="st0" d="M179.7,147.4c-2.2-0.1-4-0.6-4.7-2.6c-0.4-1.3,0.5-2.3,2-2.3C179.3,142.7,180.4,144.5,179.7,147.4z"/>
	<path class="st0" d="M144.8,151.6c2.7-0.7,3.4-0.1,3.3,1.9c0,0.3,0,0.6-0.1,0.9c-0.2,0.5-0.4,1.1-0.6,1.6c-0.7-0.2-1.9-0.1-2.1-0.6
		C144.9,154.4,144.9,153,144.8,151.6z"/>
	<path class="st0" d="M142.9,232c-0.3,0.2-0.9,0.9-1.4,0.9c-1.1,0.2-2.9-1.6-2.6-2.5c0.4-1.3,1.5-1.8,2.7-1.8
		C142.6,228.6,143.4,230.1,142.9,232z"/>
	<path class="st0" d="M116,199.1c2.3,0,3.2,1,2.6,2.6c-0.2,0.6-1.1,1.4-1.7,1.5c-1.7,0.3-2.8-1.2-2.2-2.9
		C115,199.8,115.8,199.3,116,199.1z"/>
	<path class="st0" d="M155.6,112.4c-0.8-0.3-1.7-0.4-2-0.9c-0.5-0.9-0.6-2.1-0.9-3.1c0,0,0.9-0.6,1.3-0.6
		C156.1,107.8,156.6,109.2,155.6,112.4z"/>
	<path class="st0" d="M155.9,206.5c-0.9-0.8-1.9-1.4-2.4-2.4c-0.5-1,0.7-2.1,1.8-1.8c0.9,0.2,1.8,0.8,2.4,1.4
		c0.3,0.3,0.4,1.1,0.1,1.6C157.7,205.7,156.9,205.9,155.9,206.5z"/>
	<path class="st0" d="M146.5,134.1c0.8,0.8,1.7,1.5,2.3,2.4c0.3,0.4,0.1,1.2,0.1,1.8c-0.7,0.2-1.6,0.6-2.2,0.5
		C144.7,138.3,144.5,136.1,146.5,134.1z"/>
	<path class="st0" d="M198.9,144.4c2.8,0.2,3.1,0.4,3.1,2.7c0,0.5-0.5,1.5-0.7,1.5c-0.6,0.1-1.5,0.1-1.9-0.2
		C198.6,147.4,197.8,146.3,198.9,144.4z"/>
	<path class="st0" d="M176.6,205c0.6,1.1,1.5,1.8,1.4,2.6c-0.1,0.9-1,2.1-2.3,2.3c-0.9,0.1-2-1.8-1.5-2.8
		C174.5,206.5,175.5,206,176.6,205z"/>
	<path class="st0" d="M145.4,164.7c0.5,0.7,1.2,1.2,1.5,1.9c0.2,0.5,0.2,1.4-0.1,2c-0.2,0.4-1.1,1.2-1.4,1.1
		c-0.6-0.2-1.3-0.6-1.5-1.1C143.7,167.3,143.1,165.9,145.4,164.7z"/>
	<path class="st0" d="M149.8,69.4c1.8-1.7,3.1-1.3,3.5-0.4c0.4,0.8-0.1,2.3-0.2,3.4c-0.6,0-1.4,0.3-1.6,0
		C150.8,71.6,150.3,70.5,149.8,69.4z"/>
	<path class="st0" d="M203.5,121.9c1.1,1.2,2.2,2,2.8,3.1c0.2,0.5-0.6,1.7-0.9,2.5C203,127.1,202.5,125.6,203.5,121.9z"/>
	<path class="st0" d="M144.8,184.5c-0.5-0.7-1.3-1.4-1.6-2.2c-0.2-0.5,0.1-1.5,0.5-2.1c0.2-0.3,1.3-0.6,1.7-0.4
		c0.6,0.4,1.3,1,1.3,1.7c0,0.8-0.7,1.8-1,2.6C145.3,184.2,145.1,184.4,144.8,184.5z"/>
	<path class="st0" d="M163.8,146.6c-1.5-0.4-2.7-1.1-2.7-3c0-1,0.5-1.5,1.5-1.5C164.9,142.2,165.5,144.4,163.8,146.6z"/>
	<path class="st0" d="M152,91.5c-0.5-1.1-1.3-2.1-1.5-3.4c-0.3-1.1,0.8-2,1.8-1.4c0.8,0.4,1.6,1.3,1.8,2.2c0.1,0.6-0.8,1.6-1.2,2.5
		C152.6,91.3,152.3,91.4,152,91.5z"/>
	<path class="st0" d="M120.1,107c-0.7-0.1-1.6,0.1-1.7-0.2c-0.5-1.1-0.7-2.4-1.1-3.6c0.4-0.2,1-0.7,1.3-0.6c0.8,0.3,1.7,0.7,2,1.4
		C120.8,104.7,120.3,105.7,120.1,107z"/>
	<path class="st0" d="M155.9,71.3c1.5-0.7,2.3,0.1,2.7,1c0.3,0.9,0.1,2,0,3.1c0,0-1.1,0.5-1.4,0.3C156,75.1,155.5,73,155.9,71.3z"/>
	<path class="st0" d="M166.1,153c3.6-1.5,3.8-1.4,4.3,2.3c-0.9,0.3-2.3,1-2.6,0.7C167.1,155.3,166.7,154.1,166.1,153z"/>
	<path class="st0" d="M189.4,148.2c2.4,0,3.2,0.7,2.6,2.2c-0.2,0.5-0.9,1.4-1.3,1.5c-1.4,0.2-3.1-1.7-2.6-2.8
		C188.3,148.7,189.2,148.3,189.4,148.2z"/>
	<path class="st0" d="M201.2,115.9c0.2,1.3,2.5,1.5,1.1,3.6c-0.3,0.4-1.2,0.9-1.5,0.8c-1.2-0.4-1.9-1.3-1.7-2.7
		c0.1-0.6,1-1.2,1.5-1.9C200.8,115.8,201,115.8,201.2,115.9z"/>
	<path class="st0" d="M190,112.7c-0.2,0.1-0.8,0.8-1.4,0.9c-1.2,0.1-2.3-2-1.7-3.2c0.2-0.4,1.1-0.9,1.6-0.9
		C189.9,109.4,190.6,110.6,190,112.7z"/>
	<path class="st0" d="M147,106.2c-0.2,0.2-0.5,0.7-0.9,0.9c-0.4,0.1-0.8-0.2-1.2-0.4c-0.8-0.6-1.6-1.1-1.3-2.4
		c0.2-1,0.6-1.3,1.5-1.3C146.6,103,147.5,104.2,147,106.2z"/>
	<path class="st0" d="M188.8,204.5c0.4,1.7,2.9,2.7,0.1,5.2C186.5,207.4,185.3,205.9,188.8,204.5z"/>
	<path class="st0" d="M130.7,200.4c-0.2,0.3-0.5,1-1,1.2c-0.4,0.2-1.1-0.1-1.5-0.3c-0.5-0.3-1.1-0.8-1.2-1.4c-0.1-0.5,0.3-1.3,0.5-2
		c0.5,0,1.1-0.1,1.6,0.1C130.9,198.9,131,199.1,130.7,200.4z"/>
	<path class="st0" d="M166.7,206.5c-2,0-3.2-1.3-2.5-2.7c0.3-0.5,1.9-1.3,2-1.3c0.6,0.9,1.1,2,1.5,3
		C167.7,205.7,166.9,206.3,166.7,206.5z"/>
	<path class="st0" d="M142.2,202.7c-0.7,0.6-1.5,1.2-2.2,1.8c-0.5-0.9-1.2-1.7-1.3-2.6c0-1,1-1.5,2.1-1.4c1.3,0,1.8,0.6,1,2.1
		C141.9,202.6,142.1,202.6,142.2,202.7z"/>
	<path class="st0" d="M166,106.6c1.7-0.2,2.1,1,2.2,2.3c0,0.5-0.5,1.2-0.9,1.7c-0.2,0.2-1,0.1-1.3-0.1
		C164.4,109.4,164.5,108.2,166,106.6z"/>
	<path class="st0" d="M198,169.2c-0.4,0.3-1.6,1.2-1.7,1.1c-0.7-0.7-1.2-1.6-1.8-2.4c0.6-0.4,1.4-1.1,1.9-1.1
		C197.7,166.7,198.4,167.4,198,169.2z"/>
	<path class="st0" d="M183.7,98.3c2.7-0.7,3.9,0.2,3.1,2.3c-0.2,0.4-0.6,0.9-1,1.1c-0.2,0.1-0.8-0.1-1-0.3
		C184.2,100.5,182.5,100.2,183.7,98.3z"/>
	<path class="st0" d="M189.2,88.3c-0.8,1.4-1.4,2.4-2,3.5c-0.7-0.4-1.6-0.6-1.9-1.2c-0.3-0.6,0.2-1.6,0.4-2.5
		C186.7,88.2,187.7,88.3,189.2,88.3z"/>
	<path class="st0" d="M156,145.2c2.3,0,3.3,1,3.5,3C156.9,149.8,155.7,148.8,156,145.2z"/>
	<path class="st0" d="M203.5,138.1c1.2-0.1,2.7,2,2.2,3.2c-0.1,0.2-0.2,0.4-0.3,0.5c-0.4,0.2-1.2,0.5-1.3,0.4
		c-0.7-0.9-1.3-1.8-1.7-2.8c-0.1-0.2,0.5-0.8,0.8-1.2C203.2,138.2,203.3,138.2,203.5,138.1z"/>
	<path class="st0" d="M151.2,126.5c-0.9,0.9-1.5,1.7-2.1,1.9c-0.8,0.3-2.1-1.4-1.7-2.2c0.4-0.7,1.1-1.2,1.7-1.9
		C149.7,125,150.3,125.6,151.2,126.5z"/>
	<path class="st0" d="M188.9,76.9c-1.9,0-2.2-1.3-2.2-2.6c0-1,0.6-1.6,1.7-1.3C190.2,73.5,190.5,74.9,188.9,76.9z"/>
	<path class="st0" d="M199.9,205.4c-0.6-0.7-1.2-1.1-1.5-1.6c-0.3-0.7-0.4-1.6-0.5-2.5c0-0.1,1.1-0.7,1.2-0.6
		c0.7,0.6,1.5,1.3,1.8,2.2C201.1,203.4,200.4,204.4,199.9,205.4z"/>
	<path class="st0" d="M182.9,159.7c2.1-0.1,3.1,1.1,2.5,2.8c-0.1,0.3-0.9,0.9-1,0.8c-0.7-0.3-1.7-0.6-2-1.3
		C182.2,161.5,182.7,160.5,182.9,159.7z"/>
	<path class="st0" d="M144.8,188.4c2.5,2.6,2.4,3.2-0.3,4.6C142.9,190.5,142.9,190.5,144.8,188.4z"/>
	<path class="st0" d="M156.3,100.8c-0.2,0.2-0.6,0.7-1,0.7c-0.9,0.2-2.6-1.8-2.1-2.6c0.2-0.5,1-1.1,1.4-1.1
		C155.8,97.6,156.8,99.2,156.3,100.8z"/>
	<path class="st0" d="M206.8,180.1c-0.5,0.3-1.3,1.1-1.8,1.1c-1.4,0-1.5-1.2-1.3-2.3c0.1-0.4,1.2-1.2,1.8-1.2
		C207,177.4,206.8,178.7,206.8,180.1z"/>
	<path class="st0" d="M206.4,198.5c-0.6-1.8-2.1-2.7-0.1-5.1c0.8,1,1.6,1.7,2,2.7C208.3,196.4,207.2,197.4,206.4,198.5z"/>
	<path class="st0" d="M170.1,106.3c3,1.6,3,1.6,1.6,4.2c-0.7-0.4-1.8-0.5-2-1.1C169.5,108.7,169.9,107.6,170.1,106.3z"/>
	<path class="st0" d="M106.7,132.4c2.9-0.3,4,0.4,3.4,2.3c-0.3,0.9-0.7,2-2.1,1.9C106.3,136.5,105.8,134.8,106.7,132.4z"/>
	<path class="st0" d="M117.1,119c1.3,0,3.1,1.6,2.9,2.7c-0.1,0.4-0.6,1.2-1,1.3c-0.7,0.2-1.7,0.3-2.1,0c-0.6-0.6-0.9-1.5-1.1-2.4
		C115.6,119.6,116.1,119,117.1,119z"/>
	<path d="M73.2,177.3c2.4,0.5,3.1,1.5,2.5,3.5c-0.2,0.9-0.7,1.3-1.6,1C71.7,181,71.4,180,73.2,177.3z"/>
	<path class="st0" d="M86,168.2c-1.2-1.1-2.1-1.8-2.9-2.7c-0.3-0.3-0.2-1.3,0.1-1.5c0.5-0.4,1.3-0.6,1.8-0.5
		C86.7,163.6,87.2,165.2,86,168.2z"/>
	<path class="st0" d="M95.6,146.5c2.1-0.6,3.9,0.6,3.5,2.3c-0.3,1.2-1,1.6-2,1.3C95.8,149.7,95.1,148,95.6,146.5z"/>
	<path d="M67.1,187.3c1.8,0.3,2.2,1.6,2.2,3.1c0,0.9-0.5,1.2-1.3,1C65.7,191,65.4,189.7,67.1,187.3z"/>
	<path d="M58.4,198.7c0.7,1.2,1.2,2.1,1.6,3c0.1,0.1-0.1,0.5-0.2,0.5c-0.5,0.2-1.4,0.7-1.6,0.6c-0.8-0.7-1.4-1.6-2.1-2.4
		C56.7,199.9,57.3,199.5,58.4,198.7z"/>
	<path class="st0" d="M98,314.1c1.5,0.7,1.8,4.2,0.5,5.4c-0.3,0.3-0.9,0.5-1.3,0.4c-2.1-0.3-2.4-2.3-0.7-4.1
		C97,315.3,97.5,314.7,98,314.1z"/>
	<path class="st0" d="M106.5,302.8c0.4,1.2,1.1,2.4,1.2,3.7c0.1,0.6-0.9,1.6-1.3,2.3c-0.5-0.3-1.1-0.4-1.5-0.8
		c-0.5-0.4-0.9-0.9-1.1-1.5c-0.6-1.6,1.6-2.2,2.1-3.5C106.1,302.9,106.3,302.9,106.5,302.8z"/>
	<path class="st0" d="M118.1,286.9c0.3,1.4,0.7,2.6,0.7,3.9c0,0.5-0.5,1.2-1,1.7c-0.1,0.1-0.9-0.2-1.3-0.4c-0.5-0.2-0.9-0.6-1.3-0.9
		c-1.2-0.9-0.8-2.4,0.9-3.3C116.7,287.8,117.1,287.5,118.1,286.9z"/>
	<path class="st0" d="M132.6,266.2c-0.2,0.2-0.6,0.9-1.2,1.2c-0.4,0.2-1-0.2-1.4-0.5c-0.9-0.7-1.5-1.7-1-3.2
		c0.3-0.9,0.8-1.5,1.8-1.1C132,263.2,133.3,263.9,132.6,266.2z"/>
	<path d="M46,289.9c-0.4,0.3-1.2,1.2-1.9,1.3c-1.8,0.2-3.1-1.5-2.6-3c0.3-1,2.1-1.9,3.6-1.9C46.2,286.3,46.7,287.6,46,289.9z"/>
	<path class="st0" d="M82,243.6c-0.5,2-1.7,2.8-3,2.4c-1.9-0.6-2-3.9-0.1-5.3c0.3-0.3,1.2-0.3,1.4-0.1C81,241.6,81.6,242.8,82,243.6
		z"/>
	<path d="M67,262.1c-0.8-0.8-2-1.4-2.4-2.5c-0.3-0.6,0.4-1.9,0.8-2.8c0.1-0.2,1.3-0.5,1.6-0.3c0.8,0.6,1.7,1.3,1.8,2.2
		c0.1,0.8-0.7,2-1.2,3C67.4,261.8,67.2,261.9,67,262.1z"/>
	<path class="st0" d="M90,222.3c1.5,0.1,2.3,3.1,1,4.4c-0.3,0.3-0.8,0.5-1.2,0.6c-1.3,0.1-2.7-1.5-2.4-2.8
		C87.7,223.2,88.8,222.2,90,222.3z"/>
	<path d="M56,275.2c-0.3,0.2-0.9,0.9-1.4,1c-1.2,0.2-2.6-1.8-2.1-3c0.2-0.6,1.2-1.4,1.8-1.4C56.1,271.7,56.7,272.7,56,275.2z"/>
	<path class="st0" d="M89.4,266.2c-0.2,0.3-0.4,1-0.9,1.7c-0.7,0.9-1.5,1.1-2.1,0.4c-0.2-0.2-0.4-0.3-0.5-0.6
		c-0.4-0.8-1.2-1.7-0.9-2.3c0.7-1.2,1.9-2.2,3-3c0.2-0.1,1.3,0.9,1.7,1.5C90,264.4,89.6,265.2,89.4,266.2z"/>
	<path d="M73.8,285.7c-0.8,0.7-1.6,1.8-2.4,2c-1.3,0.3-2.7-1.7-2.1-2.9c0.4-0.7,1.5-1.6,2.2-1.8C72.7,282.6,73.8,284.2,73.8,285.7z"
		/>
	<path class="st0" d="M101,243.5c0.6-0.6,0.9-1.3,1.4-1.5c0.3-0.2,0.9,0.2,1.3,0.4c0.3,0.1,0.7,0.3,0.9,0.6c0.4,0.4,1.1,1,0.9,1.3
		c-0.4,0.8-1.2,1.7-2,2.2c-0.4,0.3-1.5-0.1-1.8-0.5C101.3,245.3,101.3,244.3,101,243.5z"/>
	<path d="M56,301.6c2.5,0,3.4,1.1,2.7,3c-0.2,0.5-1.2,1.2-1.8,1.3c-1.4,0.2-2.7-1.6-2.2-3C55,302.4,55.7,301.9,56,301.6z"/>
	<path class="st0" d="M114.4,227.8c-0.6,0.5-1.2,1.4-1.7,1.5c-1.5,0.2-2.6-1.4-2.4-2.8c0.2-2.1,1.9-1.9,2.8-1.9
		C114.6,224.7,114.4,226.1,114.4,227.8z"/>
	<path class="st0" d="M124,179c-0.4,0.3-0.9,1-1.6,1.2c-0.6,0.2-1.5,0.1-1.9-0.3c-0.5-0.5-0.8-1.3-1-2.1c-0.2-1,0.4-1.8,1.6-2.1
		C122.4,175.6,124.3,177.5,124,179z"/>
	<path class="st0" d="M128.6,166c3.3-0.9,3.5,0.6,3.6,2.8c0,1.2-1,1.9-2.2,1.6C128.5,170,127.8,167.9,128.6,166z"/>
	<path class="st0" d="M92,199.5c-1.8-0.2-2.6-1.3-3-2.7c-0.1-0.4,0.2-1.2,0.6-1.6c0.4-0.4,1.2-0.7,1.6-0.6
		C93.5,195.4,93.8,196.8,92,199.5z"/>
	<path class="st0" d="M103.6,185.3c-0.3,0.2-1.4,1.3-1.5,1.2c-0.9-0.5-2.7-0.1-2.6-1.9c0.1-1.1,0.5-2.1,1.6-2.6
		C102.2,181.4,104.2,183.5,103.6,185.3z"/>
	<path class="st0" d="M127.7,153.9c-1.9,0.6-2.5-0.5-2.9-1.8c-0.4-1.3,0.2-2.2,1.5-3.1C129.1,151,129.2,151.2,127.7,153.9z"/>
	<path class="st0" d="M119.7,160.1c1.1,0,2.5,2.5,1.9,3.5c-0.2,0.3-1.2,0.8-1.3,0.7c-0.9-0.8-2-1.6-2.4-2.7
		C117.5,160.5,118.6,160,119.7,160.1z"/>
	<path class="st0" d="M112.2,170.6c1.8,0,2.7,1.1,2.1,2.2c-0.3,0.7-1.2,1.6-1.8,1.7c-1,0.2-2.6-2-2.1-2.7
		C111,171.2,111.9,170.8,112.2,170.6z"/>
	<path class="st0" d="M130.5,141.5c0.9,0.6,1.7,0.8,2.1,1.4c0.3,0.6,0.2,1.5,0.1,2.3c0,0.2-0.9,0.7-1,0.6c-0.7-0.6-1.5-1.1-1.8-1.9
		C129.7,143.5,130.2,142.6,130.5,141.5z"/>
	<path class="st0" d="M128.2,306.1c1.5,0.7,2.8,3.8,2.2,5.1c-0.4,0.8-1.4,1.4-2.2,2c-0.7-0.9-2-1.7-1.9-2.7
		C126.4,309.2,127.5,307.7,128.2,306.1z"/>
	<path class="st0" d="M112.4,333.8c1.6,1.4,1.3,5-0.3,6.2c-0.4,0.3-1.4,0.4-1.6,0.2c-0.6-0.7-1.5-1.7-1.2-2.4
		C109.9,336.5,111.2,335.3,112.4,333.8z"/>
	<path class="st0" d="M147.9,280.9c-0.8,0.6-1.3,1.1-1.9,1.2c-1.7,0.4-2.4-0.4-2.9-1.6c-0.5-1.3,0.5-2.3,1.3-3.2
		c0.6-0.7,1.5-1,1.9,0C146.8,278.4,147.3,279.5,147.9,280.9z"/>
	<path class="st0" d="M140,295.4c-0.3,1.1-1.6,1.9-2.2,1.2c-0.8-0.9-1.2-2.1-1.6-3.3c-0.1-0.3,0.5-1,0.9-1.3c0.2-0.2,0.8,0,1,0.1
		C139.2,292.8,140.5,293.4,140,295.4z"/>
	<path class="st0" d="M108.9,265.6c0.7,0.6,1.8,1.1,1.7,1.6c-0.4,1.5,1,2.9-0.9,4.4c-0.5,0.4-1.6,0.7-1.9,0.5
		c-0.7-0.5-1.6-1.4-1.5-2.2c0.1-1.2,1.1-2.5,1.8-3.7C108.2,265.9,108.6,265.8,108.9,265.6z"/>
	<path class="st0" d="M120.9,243.6c0.2-0.2,0.9-0.9,1.1-0.9c1.1,0.4,2.3,0.7,3,1.5c0.8,0.9,0.1,2.1-0.8,3.2c-0.8,1-1.4,1-2.2,0.6
		C120.8,247.6,120.3,245.9,120.9,243.6z"/>
	<path class="st0" d="M100.5,281.4c-0.4,1.2-1.2,2.2-2.3,1.7c-0.8-0.3-1.6-1.1-1.8-2c-0.1-0.5,0.8-1.5,1.3-2.2
		c0.3-0.5,0.8-0.9,1.3-1.2c0.2-0.2,0.9-0.2,0.9-0.1C100.1,278.9,100.3,280.2,100.5,281.4z"/>
	<path class="st0" d="M92.6,291.9c-0.2,0.2-0.9,1.1-1.6,1.3c-1.4,0.3-3-1.5-2.4-2.7c0.4-0.8,1.5-1.8,2.3-2
		C92.3,288.1,93.2,289.7,92.6,291.9z"/>
	<path class="st0" d="M171.2,256.2c0.8-0.5,1.6-1.5,2.3-1.5c1.2,0,1.9,1,1.4,2.2c-0.3,0.7-1.6,1.8-2.2,1.9
		C171.5,258.8,170.8,258,171.2,256.2z"/>
	<path class="st0" d="M97.4,117.5c0.8-0.7,1.6-1.8,2.3-1.9c1.3-0.3,2,1.5,1.4,3c-0.3,0.8-0.3,2.1-1.8,2
		C98.2,120.5,97.3,118.8,97.4,117.5z"/>
	<path class="st0" d="M79.9,147.4c-1,0-1.9,0-3.1,0c-0.3-0.9-0.8-2.2,0.6-3.6c0.3-0.3,1.5-0.4,1.9-0.1
		C80.7,144.5,80.8,145.9,79.9,147.4z"/>
	<path class="st0" d="M87.3,131.2c1.3,1.2,2.6,2.3,0.5,4.7c-1.5-0.2-2.2-1.3-2.3-2.7C85.5,132.4,86,131.4,87.3,131.2z"/>
	<path class="st1" d="M382,313.2c-0.1,1.4-0.3,2.4-0.3,3.4c-0.1,4.1-2.3,8.2-3.8,12.3c-0.2,0.5-0.9,1.1-1.4,1.5
		c-4.7,3.2-9.4,5.1-14.6,4.9c-4.5-0.1-9.3,0.8-13.8,0.5c-6.1-0.3-12.5,0.2-18-1.7c-1.9-0.6-3.6-1.5-5.5-2
		c-5.3-1.3-10.8-2.4-16.1-3.7c-2.4-0.6-4.8-1.3-7.1-2.1c-1.9-0.6-3.7-1.4-5.7-2.1c-6.7-2.2-10.6-6.5-10.1-14.3c0.2-3.1-0.5-6-0.7-9
		c-0.2-3.6-2.9-5.3-5.5-6.8c-3.8-2.2-7.7-4.2-11.8-6c-2.8-1.2-5.7-2.3-8.8-3c-5.3-1.2-7.3-3.8-6.3-9.5c1.4-7.2,2.9-14.5,4.4-21.8
		c1.3-6.1,2.8-12.3,4.2-18.4c1.3-5.6,2.3-11.2,3.7-16.8c1-3.8,1.4-5.2,6.2-5.5c3.1-0.2,6.2-0.1,9.3-0.2c1.2-0.1,2.4-0.5,3.6-0.8
		c0.2-0.1,0.7-0.8,0.6-0.9c-0.4-0.7-0.8-1.6-1.5-1.7c-1.4-0.3-2.9-0.1-4.4,0c-2.5,0.1-5,0.3-7.5,0.4c-5.3,0.3-8.8-3.5-8-9.4
		c1.4-10.3,2.7-20.6,4.1-30.9c0.9-7,2-14.1,3-21.1c0-0.1,0-0.3,0-0.3c2.5-2.2,0.9-3.9,0.9-5.8c-0.1-2.7,0.1-5.2,1.7-8
		c0.6-1,0.8-2.2,1.1-3.3c0.5-2.3,2.2-3.2,4.2-4.2c5.6-2.6,10.7-2.9,15.8-2c3.8,0.6,7.6,1.2,11.6,1.3c3.9,0.1,7.9-0.3,12-0.7
		c8.9-0.9,17.5-0.9,25.1,1.9c6.1,2.2,12.2,4.4,17.6,7.6c5.9,3.5,10.5,8.5,12.4,15.6c1.1,4.3,2.2,8.6,3.9,12.6
		c1.8,4.1,5.2,6.9,9.4,8.8c4.9,2.2,9.7,4.7,12.9,9c0.8,1.1,1.6,2.3,2.2,3.6c2.3,5.6,4.6,11.2,6.6,17c1.5,4.5,1.8,9.3,0.7,14.7
		c-0.9,4.5-0.5,8.9-1.2,13.4c-0.7,3.9,1.3,5.8,3.4,7.9c3.4,3.3,6.7,7,8,11.7c1.7,6.2,3,12.6,1.7,19.9c-1.2,6.6-2.8,13.3-4.9,19.9
		c-2.1,6.5-4.7,13-7.2,19.5c-0.7,1.7-1.7,3.5-2.9,5.1c-1.7,2.2-4.1,2.5-6.3,2.8c-6,0.9-10.9-0.6-15.4-2.9
		C382.9,313.6,382.6,313.5,382,313.2z M273.2,150.3c-0.1,0.3-0.2,0.5-0.2,0.8c-0.7,4.4-1.4,8.8-2.2,13.2c-0.5,3.2-1.2,6.3-1.6,9.5
		c-0.5,4.1-0.9,8.2-1.3,12.3c-0.6,5.3-1.3,10.6-1.7,15.9c-0.1,1.6-0.1,3.6,1.7,4c2.3,0.5,4.8,0.6,7.2,0.5c2.8,0,5.6-0.5,8.4-0.7
		c0.3,0,0.7,0.1,0.9,0.3c2.4,1.1,2.9,3.5,3.7,5.9c0.6,2.1-0.7,3.6-3,4.4c-1.2,0.4-2.5,0.4-3.8,0.4c-2.4,0-4.8-0.4-7.2,0
		c-1.5,0.2-3.5-0.1-4.7,2c-0.6,1.1-1.3,2.3-1.6,3.4c-1.1,3.9-2.2,7.7-3.1,11.6c-0.9,3.7-1.5,7.4-2.3,11.2c-1,4.3-2.2,8.6-3.1,12.9
		c-1.2,6.1-2.1,12.1-3.2,18.1c-0.8,4.4,0.2,5,3.6,5.9c3.1,0.8,6.2,1.4,8.6,3.3c1.3,1,2.7,2,4.2,2.7c2.7,1.3,5.5,2.5,8.2,3.8
		c4.2,2,7.2,4.8,7.4,10c0.1,3.4,0.5,6.8,0.6,10.3c0.1,2.9,0.7,5.4,3.1,6.8c3.1,1.9,6,4,9.8,4.8c4.2,1,8.2,2.2,12.4,3.1
		c2.2,0.5,4.5,0.6,6.7,1.2c3.3,0.9,6.5,2.1,9.7,3.2c5.1,1.8,11.1,1.5,16.8,1.7c4.7,0.1,9.6-0.5,14.3-0.6c3.3-0.1,6.5-0.9,9.6-2.6
		c1.5-0.8,3.5-1.9,4.2-3.2c1.4-2.5,2.4-5.2,3-7.9c0.6-2.7,0.6-5.4,0.9-8.1c0.1-0.6,0.3-1.3,0.7-2.5c2.1,1.1,3.8,2,5.5,2.9
		c3.3,1.9,7.1,3,11.5,2.4c2.2-0.3,4.6-0.6,6.2-3c1.1-1.6,2-3.4,2.7-5.1c2.6-7.1,5.3-14.2,7.5-21.4c1.5-4.8,2.3-9.7,3.3-14.5
		c1.5-7.3,0.6-13.9-1.5-19.9c-1.7-4.8-5.3-8.3-9-11.6c-2.6-2.3-3.5-5.3-3.1-9.1c0.4-3.2,0.7-6.4,1.4-9.7c1.5-6.9,1.6-13.3-0.6-19.1
		c-1.7-4.3-3.1-8.7-4.9-12.9c-2.4-5.5-7.1-9-12.6-11.4c-4-1.7-7.4-4.1-10.3-7.1c-3.5-3.7-4.6-8.8-5.6-13.9
		c-1.8-8.7-6.6-14.8-14.4-18.5c-2.2-1-4.4-1.9-6.7-2.8c-5.9-2.4-12.1-4.6-19.2-4.6c-5.2,0-10.5,0.5-15.7,0.7
		c-3.4,0.1-6.9,0.2-10.2-0.1c-4.2-0.3-8.2-0.8-12.3-1.4c-4.2-0.6-8.5,1.7-12.7,2.9c-0.6,0.2-1.5,1-1.7,1.6
		c-1.3,3.8-2.6,7.7-3.4,11.5c-0.4,1.7,0.3,3.4,0.5,5c0,0.4,0,0.8,0,1.3C274.1,150.2,273.7,150.3,273.2,150.3z"/>
	<path class="st0" d="M178.1,172.1c1.5-0.2,2.2,0.5,1.8,2c-0.6,2.4-1.5,4.8-2.2,7.2c-0.6,2.2-1.2,4.4-1.9,6.5
		c-0.3,1,0.1,2.5-1.9,2.9c-1,0.2-2.3-1.9-2-3.2c0.3-1.3,0.8-2.6,1.3-3.9C174.9,179.9,176.5,176,178.1,172.1z"/>
	<path class="st0" d="M185.7,176.6c2,0.4,2.8,2.5,1.7,5.1c-1.1,2.8-2.1,5.5-3.3,8.3c-0.5,1.1-1.3,2.1-2,3.2
		c-2.7-1.1-2.7-1.9-1.2-4.8c1.3-2.4,2.1-5,3.1-7.5C184.7,179.5,185.2,178,185.7,176.6z"/>
	<path class="st0" d="M182.7,130.9c-0.4,0.6-0.8,1.2-1.1,1.8c-0.6-0.3-1.5-0.3-1.8-0.8c-0.3-0.7-0.4-1.7-0.1-2.5
		c0.5-1.6,1.4-3.1,2.1-4.7c0.2-0.4,0.8-1.1,1.1-1.1c0.4-0.1,1,0.3,1.1,0.7c0.1,0.8,0,1.7-0.3,2.6c-0.4,1.3-1,2.7-1.5,4
		C182.4,130.8,182.5,130.8,182.7,130.9z"/>
	<path class="st0" d="M188.9,124.4c0.1,0.6,0.4,1.2,0.3,1.9c-0.3,2-0.7,4-1.2,5.9c-0.1,0.3-0.8,0.9-1.2,0.9c-1.2,0-2.3-2.2-1.7-3.4
		c1-1.8,2.1-3.5,3.2-5.2C188.5,124.5,188.7,124.5,188.9,124.4z"/>
	<path class="st0" d="M176.5,125.3c0.8,1.5,0.2,3-1.1,4.9c-0.5-0.6-1.2-1.2-1.4-2C173.5,126.6,175.2,126.2,176.5,125.3z"/>
	<path class="st1" d="M372.3,297.6c0,6.3-0.1,12.6-0.1,19c-5.8,1.4-11.1,2.3-16.2,1.8c-2.8-0.3-5.9,0-8.8-0.2
		c-3.1-0.2-6.2-0.4-9.2-0.8c-6.5-0.9-13-1.8-19.4-2.9c-2.3-0.4-4.4-1.3-6.5-2.3c-3-1.4-5.9-3-8.7-4.6c-4.2-2.4-4.9-7-5.5-11.7
		c-0.4-2.8-0.4-5.8-2.2-7.8c-2.1-2.5-5.3-3.6-8.9-4.2c-2.1-0.4-4.2-0.9-6-1.7c-2.5-1-4.9-2.3-7.3-3.6c-1-0.5-1.8-1.4-2.6-2.2
		c-0.4-0.4-0.5-1.2-0.4-1.8c0.9-3.8,2.1-7.7,2.9-11.5c1.2-6.2,1.9-12.3,3-18.5c0.8-4.3,1.9-8.6,3-12.9c0.4-1.7,0.8-3.4,1.4-5.1
		c1-3.1,2.6-3.5,5.3-3.1c2.9,0.4,5.8,0.9,8.8,1.3c1.1,0.1,2.2,0,3.5,0c0.4-7.5,0.9-14.8,1.3-22.2c-5.4-0.1-10.8-0.3-16.1-0.4
		c-1.5,0-3.1,0.1-4.6,0c-3.3-0.2-5.7-2.8-5.9-6.1c-0.5-8,1.4-16.4,3.3-24.7c1.3-5.8,2.9-11.7,4.3-17.5c0.7-2.9,2.4-5.1,5.4-5.9
		c2.4-0.6,4.8-0.7,7.2-1.1c0.9-0.2,1.9-0.7,2.7-0.8c1.8-0.1,3.6-0.2,5.3,0c1.3,0.1,1.8-0.5,2.3-1.5c0.6-1.5,1.1-3,1.7-4.5
		c1.6,0,3.1,0.1,4.6,0c3.1-0.2,6.3-0.8,9.4-0.8c5.8,0.1,11.6,0.4,17.2,0.9c3.3,0.3,6.5,1.2,9.6,2.2c4.5,1.4,8.8,3.3,11,7.5
		c0.2,0.4,0.5,0.7,0.5,1.1c0.5,3.2,0.9,6.5,1.6,9.7c0.7,3.4,1.3,7,2.8,9.9c1.1,2.1,3.4,3.4,5.4,4.7c6.4,4.1,13.1,8,19,12.8
		c4.5,3.7,7.8,8.1,9.6,13.7c0.7,2.1,0.7,4.6,0.6,7c-0.1,4.2-0.1,8.4-0.8,12.6c-1,5.3-1,10.2-0.6,15.2c0.2,1.9,1.5,2.5,2.5,3.6
		c2.5,2.7,5.4,5.1,7.3,8.1c1.7,2.7,2.4,6.1,3.4,9.2c0.7,2.2,1.3,4.4,1.9,6.6c0.2,0.8,0,1.8,0,2.7c-0.1,4.7,0.1,9.5-0.3,14.3
		c-0.3,3.4-1.7,6.8-3.8,10.1c-1.1,1.8-2.2,3.7-3.5,5.5c-2,2.7-4.8,4-7.7,4.4c-2.6,0.4-5.2,0.5-7.7,0.4c-3.3-0.2-6.6-0.4-9.7-1.1
		C375.7,299.9,374.1,298.6,372.3,297.6z M369.2,293.4c1.9-1.3,2.5-0.2,3.4,0.3c2.2,1.3,4.3,2.9,6.8,3.7c2.1,0.7,4.7,0.6,7.2,0.6
		c2.3,0,4.7,0,7.1-0.4c1.4-0.2,3.2-0.7,4.4-1.6c5.2-4.3,7.9-9.8,9.2-15.5c0.7-2.9,0.5-5.8,0.6-8.7c0.1-5.7-0.5-11.1-2.4-16.1
		c-1-2.7-1.5-5.5-3.8-7.4c-2.8-2.3-5.3-4.8-7.7-7.4c-1-1.1-1.9-2.4-2-3.9c-0.2-4.2-0.1-8.5,0.2-12.8c0.4-5.8,1.1-11.6,1.7-17.5
		c0.4-4.4-1.3-7.7-3.4-10.7c-1.6-2.3-4-4-6.2-5.8c-2.8-2.2-5.7-4.3-8.7-6.2c-2.7-1.8-5.5-3.4-8.2-5c-1.8-1.1-3.5-2.3-5.4-3.2
		c-1.4-0.7-2.4-1.6-2.8-3.2c-1.5-6.7-3-13.4-4.5-20c-0.3-1.2-0.7-2.5-1.6-3.1c-1.8-1.4-3.7-2.8-6-3.5c-4.1-1.2-8.4-2.1-12.8-2.7
		c-3.5-0.5-7.2-0.8-10.9-0.7c-4.3,0.1-8.8,0.8-13.1,1.1c-1.6,0.1-2.3,0.7-2.8,2.3c-1.1,3.6-1.2,4.5-4.9,4c-0.5-0.1-1.1,0.1-1.6,0
		c-4-0.7-8.2,0.2-12.4,1.6c-1.2,0.4-2.9,1.6-3.4,2.6c-1.5,3.3-2.8,6.7-3.9,10.1c-0.7,2.1-1,4.2-1.3,6.3c-1,5.5-2.2,11-2.8,16.5
		c-0.4,3.5-0.1,7-0.1,10.4c0,0.4,0.3,0.8,0.7,0.9c1.3,0.2,2.7,0.5,4.1,0.5c3.3,0,6.7,0,10.1-0.1c2.5,0,4.9,0,7.5,0
		c0.6-2.1,1.6-1.7,2.3-1c0.9,1,1.3,2.4,2.2,3.4c0.7,0.8,0.4,1.7,0,2.7c-0.5,1.1-0.9,2.3-1.1,3.4c-0.2,1.9-0.1,3.8-0.2,5.7
		c-0.1,4.6-0.2,9.2-0.2,13.7c0,1.2-0.5,1.8-1.6,1.9c-1.4,0.1-2.9,0.1-4.2,0c-2.9-0.3-5.8-0.7-8.7-1.2c-1.8-0.3-3,0.4-3.8,2.8
		c-0.4,1.2-0.9,2.5-1.4,3.7c-0.5,1.3-1.2,2.5-1.4,3.8c-1.1,5.5-1.9,10.9-3,16.4c-1.2,6.6-2.6,13.2-3.8,19.8c-0.1,0.7,0,1.6,0.5,1.9
		c3,1.7,6.1,3.4,9.4,4.7c2.8,1.1,6.1,1.4,8.9,2.4c1.9,0.6,3.9,1.4,5,2.8c2.4,3.1,2.8,7.4,3.3,11.5c0.4,2.9,1.2,5.6,3.4,7.3
		c4.9,3.8,10.4,6.7,17.3,7.4c5.1,0.6,10,1.4,15.1,2c3.8,0.5,7.6,1,11.5,1.2c5.9,0.3,11.9,0.5,18.2-0.7c1.6-0.3,2.5-0.9,2.6-2.5
		c0.1-2.6,0.3-5.3,0.3-7.9C369.6,300.4,369.4,296.9,369.2,293.4z"/>
	<path class="st1" d="M306.2,239.2c0.2-3.4,0.5-6.5,0.6-9.6c0.2-6.7,0.2-13.4,0.5-20.1c0.2-3.7,1-7.5,1.4-11.2
		c0.2-1.7,0.5-3.5-1.9-3.9c-3.7-0.6-7.1-1.8-10.6-2.7c-1.8-0.4-3.6-0.6-5.5-0.9c-1.2-0.2-2.6-2.5-2.5-3.8c0.5-4.1,1-8.2,1.4-12.3
		c0.4-4.1,0.8-8.2,1.2-12.2c0.1-0.9,0-1.8,0-2.7c0.1-0.9,0.4-1.3,1.5-1.2c4.2,0.6,8.5,1.1,12.7,1.9c1.5,0.3,2.7,1,4.1,1.5
		c0.3,0.1,0.6,0.1,1.3,0.2c1-3.5,2-6.9,3.1-10.2c0.1-0.3,0.9-0.9,1.2-0.9c4.3,0.5,8.6,1,13,1.5c0.8-1.6,2-1.5,3.4-1.2
		c3.9,1,7.8,1.8,11.7,2.7c0.4,0.1,0.8,0.1,1.2,0.1c3-0.1,3.7,0.7,4.4,3.3c1.4,5.4,1.5,11.3,1.8,17.1c0.1,1.3,0,2.7,0.6,3.7
		c0.6,0.9,1.9,1.3,3.1,1.8c2.4,1,5,1.8,7.4,2.8c5.4,2.2,10.8,4.5,15.2,8.2c4.1,3.5,6.8,8,9.1,12.9c2.8,5.9,3.2,12.7,4,19.3
		c0.2,2-0.7,4.5-1.3,6.8c-0.6,2.3-1.6,4.7-2.2,7c-0.1,0.5,0.4,1.2,0.8,1.6c2.3,2.1,4.6,4.1,6.9,6.3c3.8,3.7,5.9,8.4,7.7,13.5
		c1.7,5.1,1.9,10.6,1,16.3c-0.9,5.6-5.6,10.5-11.4,11.7c-3.2,0.6-6.4,1.5-9.6,2.5c-4.4,1.3-8.9,1.6-12.8,0.4c-1.8-0.6-3,0.1-3.5,2.2
		c-0.8,3.2-1.2,6.3-0.5,9.2c0.6,2.8-1.4,5.1-4.5,5c-3.3,0-6.3-0.7-9.3-1.3c-1.4-0.3-3.1,0.1-4.6,0.2c-1.9,0.1-3.7,0.3-5.6,0.4
		c-0.5,0-1.1,0-1.3-0.2c-1.7-2.4-5.1-1.3-7.7-1.8c-2.8-0.5-5.7-1-8.5-1.6c-1.3-0.2-2.5-0.5-3.7-0.9c-3.5-0.9-6.1-2.7-6.7-6.4
		c-0.6-3.4-1.1-6.7-1.5-10.1c-0.2-1.1-0.6-1.8-1.8-2.1c-4.5-1.2-8.9-2.7-13.5-3.6c-4.5-0.9-6.2-4-7.2-7.9
		c-1.3-5.1-1.3-10.6-1.2-16.2c0.1-3.4-0.5-6.6-0.9-9.8c-0.2-1.9-0.1-2.2,2-3.1c4-1.7,7.8-1.7,11.7-1.9
		C302,239.4,303.9,239.4,306.2,239.2z M346.5,178c0.1-1.6,0.3-3.3,0.2-4.9c-0.2-4.2-0.6-8.4-1-12.6c-0.1-1.4-0.9-2.4-2.4-2.6
		c-2.7-0.4-5.4-0.9-8.1-1.3c-1.3-0.2-2.6-0.4-4.1-0.6c-0.2,0.6-0.4,1-0.4,1.4c0.1,2.7,0.3,5.4,0.3,8.1c0,0.8-0.1,1.6-0.5,2.3
		c-0.1,0.3-1.3,0.2-2.2,0.3c-0.1,1.5-0.5,3.2-0.3,4.7c0.1,0.7,1,1.1,1.5,1.6c0.4-0.7,1.1-1.4,1.2-2.1c0.3-1.3,0.3-2.5,0.4-3.8
		c3.4-0.9,6.2-0.3,8.8,0.7c2.1,0.8,4.4,1.5,5.2,3.8C345.7,174.6,346.1,176.3,346.5,178c-0.5,3.5-1,7.1-1.7,10.7
		c-0.3,1.4,0.1,1.9,1.5,1.9c2.4,0,4.5,0.7,6.3,1.7c0.6,0.3,1.3,0.6,2,0.8c5.5,1.4,10.1,4.1,13.4,8.1c3,3.6,5.7,7.5,8.1,11.6
		c1.8,3.1,3.1,6.7,2.5,10.9c-0.3,2.3-0.4,4.7-0.9,7c-1,4.4-2.3,8.9-8,10.8c1.8,1.6,3.7,2.9,5.1,4.6c2.3,3,4.5,6,6.4,9.3
		c2.1,3.7,2.7,8.1-0.1,13c-1.6,2.8-3.5,5.5-5.3,8.2c-0.4,0.6-1,1.2-1.6,1.5c-1.6,0.8-3.2,1.7-4.8,2c-3.8,0.6-7.7,1.9-11.3,1.1
		c-1.4-0.3-3,0-4.8,0c0,0.8,0.1,1.2,0.1,1.6c0,2.9,0,5.8,0,8.7c0,0.9-0.2,1.8-1.6,1.7c-2.9-0.3-5.7-0.6-8.6-0.8
		c-3.3-0.3-4.2-1.5-3.9-4.8c0.2-1.7,0.3-3.5,0.2-5.2c-0.3-4-1.1-4.7-5.2-4.5c-0.9,4.3,1,8.2-2.2,13c-1.3-0.4-2.5-0.9-3.9-1.1
		c-1.6-0.3-3.3-0.2-4.9-0.5c-2.4-0.4-3.3-2.3-3.2-4.8c0.2-3.1,0.1-6.2,0-9.2c0-0.5-0.6-1.1-1.2-1.2c-3.5-0.4-7-0.7-10.5-0.9
		c-2.6-0.1-5.3,0.1-7.9-0.1c-2.4-0.1-4.5-0.8-4.6-3.5c-0.1-1.1,0.2-2.3,0.3-3.5c0.3-3,0.6-5.9,1.1-8.9c0.3-2,1-2.5,3.1-2.6
		c1.1-0.1,2.2-0.3,3.3-0.5c1.6-0.2,3.2-0.4,4.8-0.6c2-0.2,4-0.4,5.9-0.6c0.1-1.3,0.2-2.2,0.2-3.1c0-3.5-0.1-7-0.2-10.5
		c-0.1-2.5-0.4-5-0.2-7.6c0.1-3.1,0.6-6.3,0.9-9.5c0.1-1.1-0.3-2.2-0.2-3.3c0.1-1.8,0.7-3.7,0.7-5.4c-0.1-4.1,1.1-8.2,1.8-12.4
		c0.5-2.5,0.7-5,0.6-7.4c0-0.9-0.8-2.1-1.7-2.3c-3.3-0.7-6.7-1.1-10.1-1.5c-0.4-0.1-0.9,0.2-1.4,0.2c-0.1,0.2-0.1,0.5-0.2,0.7
		c2.2,0.5,4.5,1,6.7,1.6c0.7,0.2,1.1,1.1,1.4,1.7c0.3,0.7,0.3,1.5,0.3,2.3c0.1,0.8,0.2,1.7,0.1,2.5c-0.7,3.9-1.8,7.9-2.1,11.7
		c-0.5,6.2-0.5,12.3-0.7,18.5c-0.1,1.7-0.2,3.3-0.3,5c-0.2,2.9-0.4,5.9-0.7,9c-1.5,0-2.7,0-3.8,0c-4.2,0-8.5,0.2-12.9,1.5
		c-1.5,0.5-2.1,1.3-2,2.6c0.2,2.2,0.5,4.3,0.6,6.5c0.1,5.2-0.5,10.6,0.7,15.5c0.7,2.9,1.8,5,5.1,5.6c3,0.6,5.9,1.6,8.8,2.4
		c2.3,0.6,4.5,1.4,6.9,1.8c1.4,0.2,2.1,0.8,2.2,2c0.1,1.1-0.1,2.4-0.2,3.6c-0.3,3.4,0.8,6.3,1.7,9.3c0.6,2,1.7,3.2,4,3.5
		c1.7,0.2,3.2,0.8,4.8,1.3c2.6,0.7,5.1,1.4,8.1,0.8c1.1-0.2,1.4-0.6,1.3-1.6c-0.2-1.7-0.2-3.4-0.3-5c-0.1-1.5,1-1.8,1.9-1.6
		c0.7,0.2,1.5,0.8,1.6,1.5c0.4,1.6,0.4,3.5,0.8,5.1c0.4,1.5,0.5,3.4,2.6,3.5c5.3,0.4,10.7,0.6,15.9,1.1c3.4,0.3,3.6-0.6,3.8-3.5
		c0.1-0.8-0.1-1.6,0-2.4c0.1-3.3,0.4-6.6,2.3-10c1.2-2.2,1.6-2.4,3.4-1.4c4.4,2.4,9.4,1.9,14.9-0.1c2.2-0.8,4.5-1.6,6.5-1.7
		c4.1-0.1,9.8-3.8,10.8-7.8c0.9-3.9,1.7-7.9,1.2-11.5c-1.1-8.9-5-16-12.3-20.7c-2.1-1.4-3.8-3.2-5.6-4.9c-0.8-0.7-1-1.7,0-2.9
		c3.1-3.5,4-7.6,4.2-11.2c0.2-5-0.5-9.9-1.5-14.6c-1-4.4-2.4-8.6-5.6-11.7c-1.9-1.9-3.4-4.4-5.8-5.7c-5.6-3-11.5-5.4-17.4-7.9
		c-3.7-1.5-8.2-2-9.2-6.5C346.6,178,346.5,178,346.5,178z M301.9,172.7c-0.1,0-0.3,0-0.4,0.1c-0.1,0.3-0.3,0.7-0.4,1
		c-0.4,3.2-0.8,6.3-1,9.4c0,0.7,0.6,1.6,1.3,1.7c1.6,0.4,3.4,0.8,5.2,0.6c3.8-0.3,7.3,0,10.5,1.2c1.8,0.6,3.6,1.2,4,3.2
		c0.2,1,0.2,2.1,0.3,3.1c0.7,4.2,0.8,8.7-0.5,13.1c-1.3,4.4-1.9,8.7-1.7,12.7c0.2,4.1-0.5,8.3-1,12.5c-0.3,2.7-0.3,5.3-0.3,7.9
		c0,3.2,0,6.4,0.2,9.5c0.1,2.1,0.4,4.1,0.4,6.2c0,0.7-0.1,1.7-0.5,2.3c-0.2,0.3-1.3,0.4-2,0.4c-4.5-0.1-9,0.1-13.6,1.3
		c-0.5,0.1-1.2,0.9-1.3,1.4c-0.4,1.6-0.6,3.3-0.8,4.9c-0.4,3.1-0.1,3.4,3,3.4c2.7,0,5.5-0.3,8.2-0.3c2,0,3.8,0.7,5.8,0.5
		c2.3-0.3,3.4,1.1,5.1,1.7c0.5,0.2,0.5,1.2,0.6,1.9c0.1,0.4-0.1,0.9,0,1.4c0.3,3.3,0.6,6.7,0.9,10c0,0.5,0.2,1.1,0.6,1.2
		c1.8,0.3,3.6,0.5,5.7,0.8c0.8-4.9-0.5-9,0.9-13.7c2.4,0.7,4.4,1.6,6.7,1.9c2.4,0.3,3.4,1.6,4.1,3.4c1.2,2.8,1.3,6,1.2,9.3
		c0,0.5,0.1,1.3,0.5,1.4c2,0.3,4,0.5,6,0.7c0.2-0.6,0.3-0.8,0.3-0.9c0.6-3.3,0.2-6.3-1.2-8.9c-0.6-1.1-0.2-3.2,0.6-3.9
		c1.6-1.2,2.3-0.2,3.2,0.4c0.5,0.3,1.1,0.7,1.7,0.8c4.1,0.2,8.1,0.8,12.4-0.3c2.5-0.6,5.1-1.4,6.9-3.8c1.7-2.3,3.2-4.7,4.5-7.1
		c1.2-2.2,1.7-4.5,0.6-6.4c-1.8-3-3.4-6.2-5.7-8.9c-3-3.6-7-6.3-11.9-7.6c-1.7-0.5-2.7-2.8-1.8-4.6c0.2-0.4,1.1-0.9,1.6-0.9
		c1,0,2,0.4,3,0.5c4.6,0.5,8.4-1.8,9.7-6.2c1.7-5.9,2.2-11.5-0.1-16.3c-3-6.5-7.3-12-13.9-15.3c-4.9-2.5-10.1-4.2-16.4-3.9
		c-0.9,0-1.7-1.5-2.1-2.6c-0.3-0.8,0-1.9,0.1-2.9c0.3-3.2,0.2-6.3,0.9-9.5c0.8-4.1-1.6-7.8-5.7-7.7c-1.2,0-1.7,0.5-1.8,1.5
		c-0.1,1-0.1,2.1-0.2,3.1c-0.2,2-1.3,2.8-3,2.3c-1.5-0.4-3.1-0.4-4.6-0.8c-0.8-0.2-1.8-0.6-1.9-1.3c-0.3-2.1-0.3-4.3-0.2-6.5
		c0-1.3,0-2.4-1.8-2.3c-1.7,2.1-1.8,4.2-1.7,6.4c0,0.6-0.2,1.7-0.6,1.9c-0.7,0.4-1.6,0.5-2.3,0.3c-1.3-0.3-2.5-0.8-3.7-1.2
		c-1.2-0.4-2.5-0.8-3.8-1.1c-1.9-0.4-3.7-1.4-5.9-0.2c-1.9,1-2.3,0.2-2.5-1C302.1,173.3,302,173,301.9,172.7z M298.9,188.8
		c0.1-0.1,0.2-0.2,0.3-0.4c-0.3-0.2-0.5-0.4-0.8-0.6c-1.3-0.8-2.2-1.8-1.9-3.6c0.4-2.3,1.1-4.6,1.5-6.9c0.3-2,1.3-4.2-0.3-5.7
		c-0.2-0.2,0.1-1.4,0.3-1.5c1.3-0.7,2.7-1.4,4.1-1.9c0.8-0.3,2.2-0.5,2.5-0.1c0.9,1.3,2.4,1.4,3.9,1.8c3,0.8,5.9,1.6,9,2.5
		c0.1-0.6,0.2-0.8,0.3-1.1c0.4-1.6,0.7-3.1,1.2-4.7c0.9-2.5,2.9-3.5,5-2.7c1,0.4,2.2,0.7,3.4,1.1c-0.1-1.7-0.1-3.4-0.2-5
		c-0.1-2.3-0.8-4-3.6-4.1c-1.8,0-3.6-0.3-5.3-0.4c-0.9-0.1-1.3,0.3-1.6,1.2c-1,3-2.1,5.9-3.2,8.9c-0.2,0.4-1,1.2-1.3,1.1
		c-1.4-0.3-2.8-0.7-4.1-1.1c-1.7-0.5-3.3-1.3-5.1-1.6c-2.2-0.4-4.6-0.4-6.8-0.8c-1.4-0.2-1.9,0.4-2,1.7c-0.3,3-0.6,6-0.9,9.1
		c-0.4,3.8-0.8,7.5-1,11.3c0,0.8,0.5,1.8,1.1,2C294.9,188,296.9,188.3,298.9,188.8z"/>
	<path class="st1" d="M335.2,201.9c0.3-0.3,0.9-1.2,1.4-1.2c4.7-0.6,9.6-1.3,13.5,0.5c3.7,1.6,7.2,3.5,9.4,7.1
		c1.6,2.6,3.5,4.9,5.1,7.4c0.6,1,1,2.2,1.1,3.5c0.1,2.3,0,4.6-0.2,7c-0.1,2.1-2,3.6-4.8,4.5c-1.1,0.4-2.1,1-3.2,1.3
		c-2.1,0.7-4,0.7-5.9,0.1c-2.7-0.8-5.9-0.3-9,0.3c-3.7,0.7-7.1,0.6-9.3-2c-0.6-0.7-1.6-1.2-2.5-1.7c-1.5-0.8-1.9-2.3-2-4
		c-0.2-3.3,1-6.7,1.8-10.1c0.8-3.6,2.4-7.3,1.7-10.8c-0.1-0.5,0.4-1.6,0.8-1.9C333.7,201.7,334.6,201.9,335.2,201.9z M336.7,204.2
		c-0.3,1.8-0.4,3.5-0.8,5.2c-0.9,4.2-2,8.4-3,12.6c-1,4.2,2,7.5,6.3,7c4-0.4,8-1.3,11.7-0.4c2.4,0.6,5-0.3,7.5-1.2
		c2.9-1,4-2.5,4.1-5.3c0.1-3.1-0.6-5.7-2.4-7.9c-1.6-1.9-3-3.9-4.7-5.7c-2.4-2.7-5.5-4.6-9.5-4.9C343,203.5,339.7,204,336.7,204.2z"
		/>
	<path class="st1" d="M329.5,265.3c-0.1-0.5-0.4-1.3-0.6-2.2c-0.1-0.3-0.3-0.8-0.2-0.9c1.4-1.6,0-2.5,0-3.7c0-1.9,0.1-3.8,0.3-5.7
		c0.4-4.1,1-8.1,1.4-12.2c0-0.1,0-0.2,0-0.3c0-0.8-0.4-1.9,0-2.3c0.7-0.7,1.9-1.1,2.9-1.5c3.2-1.2,6-1.2,8.4,0.4
		c1.4,1,3.3,1.3,4.8,2.1c4.6,2.5,9.3,4.9,13.5,7.8c2.4,1.6,4.4,3.9,5.4,6.9c0.8,2.5,0.7,5.1-0.3,7.8c-0.8,2.3-3,4.2-5.4,5.3
		c-2.9,1.2-5.9,2.2-8.8,3.2c-0.4,0.1-0.8,0.1-1.2,0c-3.4-0.2-7-0.1-10.2-0.7c-2.4-0.5-4.4-1.8-6.6-2.8
		C331.9,266.2,330.9,265.8,329.5,265.3z M333.1,241.4c-0.4,4.6-0.8,9.3-1.2,13.9c-0.2,2-0.2,4.1-0.1,6.1c0,0.4,0.4,0.9,0.8,1.1
		c4.3,2.7,9.4,4.1,15.2,3.9c0.6,0,1.2-0.2,1.8-0.4c2.2-0.6,4.3-1.4,6.5-2c2.5-0.7,5.7-3.5,6.1-5.3c0.9-3.7-0.2-6.4-2.8-8.3
		c-3.1-2.2-6.5-4.2-9.8-6.3c-0.7-0.4-1.4-0.7-2.1-1c-1.8-0.8-3.8-1.5-5.5-2.5C339.7,239.3,335.9,238.9,333.1,241.4z"/>
	<path class="st1" d="M341.5,207.5c3.9,1.8,7.8,3.4,11.6,5.3c1,0.5,1.7,1.3,2.4,2.2c1,1.4,0.1,3.5-1.9,4.7c-1.4,0.9-2.7,1.8-4.1,2.8
		c-2.4,1.7-4.6,1.7-6.8,1.4c-2.9-0.5-3.4-2.5-3.1-5.3c0.2-2.5,0-4.9,0.1-7.3C339.7,209.4,339.8,209.4,341.5,207.5z"/>
	<path class="st1" d="M343.4,261.7c-1.8-0.4-2.6-1.3-2.6-3.1c0-3.2-0.2-6.4-0.3-9.7c0-0.5,0.2-1.1,0.3-1.7c0.6,0.1,1.2,0.1,1.7,0.3
		c1,0.4,2,1,3,1.4c3.7,1.1,6.1,3.5,8.2,6.3c0.8,1.2,0,2.7-2.3,3.8c-1.6,0.8-3.3,1.1-5,1.6C345.3,261,344.3,261.4,343.4,261.7z"/>
</g>
</svg>
