<svg id="Layer_1" data-name="Layer 1" xmlns="http://www.w3.org/2000/svg" viewBox="0 0 594.77 422.31"><defs><style>.cls-1,.cls-29,.cls-30{fill:none;}.cls-1,.cls-29,.cls-30,.cls-31,.cls-33,.cls-34,.cls-35{stroke:#231f20;stroke-miterlimit:10;}.cls-1,.cls-29,.cls-33{stroke-width:0.38px;}.cls-11,.cls-12,.cls-13,.cls-19,.cls-2,.cls-23,.cls-26,.cls-27,.cls-28,.cls-3,.cls-4,.cls-6{isolation:isolate;}.cls-11,.cls-12,.cls-13,.cls-19,.cls-2,.cls-23,.cls-26,.cls-28,.cls-4{font-size:4.6px;}.cls-2,.cls-26,.cls-27{font-family:HelveticaNeue-Bold, Helvetica Neue;font-weight:700;}.cls-11,.cls-12,.cls-13,.cls-23,.cls-28,.cls-4{font-family:HelveticaNeue, Helvetica Neue;}.cls-5{letter-spacing:-0.04em;}.cls-36,.cls-6{font-size:8px;}.cls-6{font-family:Eurostile-Bol, Eurostile;}.cls-7{letter-spacing:0.02em;}.cls-8{letter-spacing:0em;}.cls-9{letter-spacing:-0.03em;}.cls-10{letter-spacing:0em;}.cls-11{letter-spacing:-0.03em;}.cls-12{letter-spacing:-0.02em;}.cls-13{letter-spacing:0.02em;}.cls-14{letter-spacing:-0.05em;}.cls-15{letter-spacing:0em;}.cls-16,.cls-23{letter-spacing:-0.02em;}.cls-17{letter-spacing:0em;}.cls-18{letter-spacing:0.02em;}.cls-19{font-family:HelveticaNeue-Italic, Helvetica Neue;font-style:italic;}.cls-20{letter-spacing:-0.09em;}.cls-21{letter-spacing:-0.11em;}.cls-22{letter-spacing:-0.07em;}.cls-24{letter-spacing:-0.02em;}.cls-25{letter-spacing:-0.03em;}.cls-26{letter-spacing:-0.11em;}.cls-27{font-size:6.9px;fill:#0062fd;}.cls-28{fill:#fff;}.cls-29{stroke-dasharray:4.62 4.62;}.cls-30,.cls-31,.cls-34,.cls-35{stroke-width:0.77px;}.cls-31{fill:#ffd20a;}.cls-32,.cls-33{fill:#231f20;}.cls-34{fill:#35c3ff;}.cls-35{fill:#f1f2f2;}.cls-36{font-family:Eurostile-Reg, Eurostile;}.cls-37{letter-spacing:0em;}.cls-38{letter-spacing:0em;}.cls-39{letter-spacing:0em;}.cls-40{letter-spacing:0.01em;}.cls-41{letter-spacing:0.02em;}.cls-42{letter-spacing:0em;}.cls-43{letter-spacing:0.03em;}.cls-44{letter-spacing:0.02em;}.cls-45{letter-spacing:0.03em;}.cls-46{letter-spacing:0.01em;}.cls-47{letter-spacing:0.02em;}.cls-48{letter-spacing:0em;}</style></defs><path d="M150,65.54v69.13H41.44V65.54H150m.38-.39H41.06v69.9H150.37Z"/><path d="M258.81,65.54v69.13H150.26V65.54H258.81m.38-.39H149.88v69.9H259.19Z"/><path d="M367.63,65.54v69.13H259.06V65.54H367.63m.38-.39H258.68v69.9H368Z"/><path d="M476.51,65.54v69.13H368V65.54H476.51m.38-.39H367.57v69.9H476.89Z"/><path d="M150,135.05v69.14H41.44V135.05H150m.38-.38H41.06v69.9H150.37Z"/><rect class="cls-1" x="41.06" y="12.42" width="109.31" height="25.72" rx="8.37"/><path d="M367.63,135.05v69.14H259.06V135.05H367.63m.38-.38H258.68v69.9H368Z"/><path d="M476.51,135.05v69.14H368V135.05H476.51m.38-.38H367.57v69.9H476.89Z"/><path d="M150,204.57v69.14H41.44V204.57H150m.38-.38H41.06v69.9H150.37Z"/><path d="M258.81,204.57v69.14H150.26V204.57H258.81m.38-.38H149.88v69.9H259.19Z"/><path d="M367.63,204.57v69.14H259.06V204.57H367.63m.38-.38H258.68v69.9H368Z"/><path d="M476.51,204.57v69.14H368V204.57H476.51m.38-.38H367.57v69.9H476.89Z"/><path d="M150,274.09v69.13H41.44V274.09H150m.38-.38H41.06v69.9H150.37Z"/><path d="M258.81,274.09v69.13H150.26V274.09H258.81m.38-.38H149.88v69.9H259.19Z"/><path d="M367.63,274.09v69.13H259.06V274.09H367.63m.38-.38H258.68v69.9H368Z"/><path d="M476.51,274.09v69.13H368V274.09H476.51m.38-.38H367.57v69.9H476.89Z"/><path d="M150,343.61v69.13H41.44V343.61H150m.38-.39H41.06v69.9H150.37Z"/><path d="M258.81,343.61v69.13H150.26V343.61H258.81m.38-.39H149.88v69.9H259.19Z"/><path d="M367.63,343.61v69.13H259.06V343.61H367.63m.38-.39H258.68v69.9H368Z"/><path d="M476.51,343.61v69.13H368V343.61H476.51m.38-.39H367.57v69.9H476.89Z"/><path d="M585.44,65.54v69.13H476.89V65.54H585.44m.38-.39H476.51v69.9H585.82Z"/><path d="M585.44,135.05v69.14H476.89V135.05H585.44m.38-.38H476.51v69.9H585.82Z"/><path d="M585.44,204.57v69.14H476.89V204.57H585.44m.38-.38H476.51v69.9H585.82Z"/><path d="M585.44,274.09v69.13H476.89V274.09H585.44m.38-.38H476.51v69.9H585.82Z"/><path d="M585.44,343.61v69.13H476.89V343.61H585.44m.38-.39H476.51v69.9H585.82Z"/><path d="M41,65.54v69.13H19.67a9.2,9.2,0,0,1-9.2-9.2V74.79a9.25,9.25,0,0,1,9.25-9.25H41m.39-.39H19.72a9.65,9.65,0,0,0-9.64,9.64v50.68a9.58,9.58,0,0,0,9.59,9.58H41.41V65.15Z"/><text class="cls-2" transform="translate(11.65 100.97)">User Actions</text><g class="cls-3"><text class="cls-4" transform="translate(63.93 88.1)">Goes to <tspan class="cls-5" x="17.55" y="0">W</tspan><tspan x="21.63" y="0">alleto using his </tspan><tspan x="0" y="5.52">laptop </tspan></text></g><text class="cls-6" transform="translate(55.51 27.77)">Pe<tspan class="cls-7" x="8.96" y="0">r</tspan><tspan x="12.45" y="0">sona: J</tspan><tspan class="cls-8" x="36.78" y="0">a</tspan><tspan class="cls-9" x="40.91" y="0">y</tspan><tspan x="44.18" y="0">, E</tspan><tspan class="cls-10" x="52.4" y="0">n</tspan><tspan x="56.61" y="0">gineer</tspan></text><rect class="cls-1" x="154.55" y="5.94" width="223.14" height="32.19" rx="11.31"/><g class="cls-3"><text class="cls-4" transform="translate(58.65 296.93)">Fo</text><text class="cls-11" transform="translate(63.93 296.93)">r</text><text class="cls-4" transform="translate(65.33 296.93)">getting passwo</text><text class="cls-12" transform="translate(96.76 296.93)">r</text><text class="cls-4" transform="translate(98.2 296.93)">d or use</text><text class="cls-13" transform="translate(114.99 296.93)">r</text><text class="cls-4" transform="translate(116.6 296.93)">name</text></g><g class="cls-3"><text class="cls-4" transform="translate(75.47 370.33)">Face ID</text><text class="cls-4" transform="translate(75.47 381.02)">Finger ID</text></g><g class="cls-3"><text class="cls-4" transform="translate(58.65 309.71)">Fo</text><text class="cls-11" transform="translate(63.93 309.71)">r</text><text class="cls-4" transform="translate(65.33 309.71)">getting </text><text class="cls-12" transform="translate(80.83 309.71)">r</text><text class="cls-4" transform="translate(82.28 309.71)">ecovery email</text></g><g class="cls-3"><text class="cls-4" transform="translate(58.65 323.07)">2<tspan class="cls-14" x="2.56" y="0">F</tspan><tspan class="cls-15" x="4.94" y="0">A</tspan></text></g><text class="cls-4" transform="translate(73.43 159.58)">Mouse/Keyboa<tspan class="cls-16" x="31.18" y="0">r</tspan><tspan class="cls-17" x="32.63" y="0">d</tspan></text><g class="cls-3"><text class="cls-4" transform="translate(73.43 178.13)">Inte<tspan class="cls-18" x="7.67" y="0">r</tspan><tspan x="9.28" y="0">net b</tspan><tspan class="cls-16" x="19.76" y="0">r</tspan><tspan x="21.21" y="0">owser</tspan></text><text class="cls-11" transform="translate(78.72 178.13)">r</text></g><g class="cls-3"><text class="cls-19" transform="translate(185.71 214.1)">“Which crypto<tspan x="0" y="5.52">should I use?”</tspan></text></g><g class="cls-3"><text class="cls-19" transform="translate(274.75 221.63)">“What was their contact info?”</text></g><g class="cls-3"><text class="cls-19" transform="translate(393.25 221.63)">“Ok I think everything is<tspan x="0" y="5.52">in o</tspan><tspan class="cls-16" x="7.5" y="5.52">r</tspan><tspan x="8.95" y="5.52">de</tspan><tspan class="cls-20" x="14.14" y="5.52">r</tspan><tspan x="15.25" y="5.52">.”</tspan></text></g><g class="cls-3"><text class="cls-19" transform="translate(512.83 211.58)">“<tspan class="cls-21" x="1.96" y="0">Y</tspan><tspan x="4.26" y="0">es, it</tspan><tspan class="cls-22" x="13.97" y="0">’</tspan><tspan x="14.91" y="0">s been sent!”</tspan></text></g><text class="cls-4" transform="translate(73.43 168.76)">Laptop</text><g class="cls-3"><text class="cls-23" transform="translate(161.8 83.55)">V<tspan class="cls-15" x="2.73" y="0">iews his at-a-glance portfolio</tspan></text><text class="cls-4" transform="translate(161.8 89.07)"><tspan class="cls-16">V</tspan><tspan class="cls-15" x="2.73" y="0">iews the at-a-glance by crypto b</tspan><tspan class="cls-16" x="69.34" y="0">r</tspan><tspan x="70.78" y="0">eakdown</tspan></text></g><g class="cls-3"><text class="cls-4" transform="translate(275.16 83.55)"><tspan class="cls-16">V</tspan><tspan class="cls-15" x="2.73" y="0">iews send money form sc</tspan><tspan class="cls-16" x="55.29" y="0">r</tspan><tspan x="56.73" y="0">een</tspan></text></g><g class="cls-3"><text class="cls-4" transform="translate(275.16 90.03)">Gives inputs for the form</text></g><g class="cls-3"><text class="cls-4" transform="translate(393.23 103)">Confirms or cancels<tspan x="0" y="5.52">transaction o</tspan><tspan class="cls-16" x="26.83" y="5.52">r</tspan><tspan x="28.28" y="5.52">der</tspan></text></g><g class="cls-3"><text class="cls-4" transform="translate(393.23 83.55)">Sees the transaction details<tspan x="0" y="5.52">and sees how it will a</tspan><tspan class="cls-24" x="43.86" y="5.52">f</tspan><tspan x="45.14" y="5.52">fect</tspan><tspan x="0" y="11.04">his balances</tspan></text></g><g class="cls-3"><text class="cls-4" transform="translate(502.79 83.55)">Sees the transaction has been sent<tspan x="0" y="11.04">Retu</tspan><tspan class="cls-18" x="9.63" y="11.04">r</tspan><tspan x="11.24" y="11.04">ns to home</tspan></text></g><g class="cls-3"><text class="cls-4" transform="translate(502.79 158.22)">Done button<tspan x="0" y="11.04">Send mo</tspan><tspan class="cls-16" x="18.58" y="11.04">r</tspan><tspan x="20.02" y="11.04">e button</tspan></text></g><g class="cls-3"><text class="cls-4" transform="translate(161.6 95.89)">Clicks on send</text></g><g class="cls-3"><text class="cls-4" transform="translate(187.32 161.5)"><tspan class="cls-5">W</tspan><tspan x="4.09" y="0">alleto site</tspan></text></g><g class="cls-3"><text class="cls-4" transform="translate(187.32 170.08)">Send button</text></g><g class="cls-3"><text class="cls-4" transform="translate(291.95 158.88)">Form numerical inputs</text></g><g class="cls-3"><text class="cls-4" transform="translate(291.95 167.46)">Date input</text></g><g class="cls-3"><text class="cls-4" transform="translate(291.95 174.57)">Contact selection</text></g><g class="cls-3"><text class="cls-4" transform="translate(291.95 181.73)">Send button</text></g><g class="cls-3"><text class="cls-4" transform="translate(402.24 158.88)">Confirm button</text></g><g class="cls-3"><text class="cls-4" transform="translate(402.24 167.46)">Cancel button</text></g><g class="cls-3"><text class="cls-4" transform="translate(291.33 299.47)">Fo<tspan class="cls-25" x="5.28" y="0">r</tspan><tspan x="6.68" y="0">getting contact details</tspan></text></g><g class="cls-3"><text class="cls-4" transform="translate(291.33 308)">Fo<tspan class="cls-25" x="5.28" y="0">r</tspan><tspan x="6.68" y="0">getting transfer amount</tspan></text></g><g class="cls-3"><text class="cls-4" transform="translate(291.33 316.15)">Needing to input a lot</text></g><g class="cls-3"><text class="cls-4" transform="translate(164.74 297.9)">Lack of crypto price info</text></g><g class="cls-3"><text class="cls-4" transform="translate(164.74 306.47)">Outdated/Slow price updates</text></g><g class="cls-3"><text class="cls-4" transform="translate(164.74 315.53)">Lack of explanation on crypto</text></g><g class="cls-3"><text class="cls-4" transform="translate(164.74 371.25)">Focus on a few popular cryptos<tspan x="0" y="5.52">for instant info</tspan></text></g><g class="cls-3"><text class="cls-4" transform="translate(164.74 387.55)">Flatten hiera<tspan class="cls-16" x="25.38" y="0">r</tspan><tspan x="26.83" y="0">chy so crypto info</tspan><tspan x="0" y="5.52">can still be seen on the dash</tspan></text></g><g class="cls-3"><text class="cls-4" transform="translate(280.29 371.25)">Focus on a few popular cryptos<tspan x="0" y="5.52">for instant info</tspan></text></g><g class="cls-3"><text class="cls-4" transform="translate(280.29 387.55)">Flatten hiera<tspan class="cls-16" x="25.38" y="0">r</tspan><tspan x="26.83" y="0">chy so crypto info</tspan><tspan x="0" y="5.52">can still be seen on the dash</tspan></text></g><g class="cls-3"><text class="cls-4" transform="translate(398.74 299.47)">Accidentally p<tspan class="cls-16" x="28.96" y="0">r</tspan><tspan x="30.41" y="0">essing cancel</tspan></text></g><g class="cls-3"><text class="cls-4" transform="translate(503.15 299.47)">Realizing an er<tspan class="cls-16" x="30.14" y="0">r</tspan><tspan x="31.59" y="0">or was made</tspan><tspan x="0" y="11.04" xml:space="preserve">The transaction  not going </tspan><tspan x="0" y="16.56">th</tspan><tspan class="cls-16" x="4.01" y="16.56">r</tspan><tspan x="5.45" y="16.56">ough</tspan></text></g><g class="cls-3"><text class="cls-4" transform="translate(503.15 367.93)">P<tspan class="cls-16" x="2.98" y="0">r</tspan><tspan x="4.43" y="0">ovide an email confirmation</tspan><tspan x="0" y="5.52">option as well</tspan><tspan x="0" y="16.56">Same idea as above but with</tspan><tspan x="0" y="22.08">text</tspan></text></g><g class="cls-3"><text class="cls-4" transform="translate(398.74 308)">Realizing an er<tspan class="cls-16" x="30.14" y="0">r</tspan><tspan x="31.59" y="0">or was made</tspan></text></g><g class="cls-3"><text class="cls-4" transform="translate(387.71 371.25)">Double confirmation</text></g><g class="cls-3"><text class="cls-4" transform="translate(387.71 387.55)">Final <tspan class="cls-16" x="10.99" y="0">r</tspan><tspan x="12.44" y="0">eview befo</tspan><tspan class="cls-16" x="34.66" y="0">r</tspan><tspan x="36.11" y="0">e letting confirm</tspan></text></g><path d="M41,135v69.13H19.67a9.2,9.2,0,0,1-9.2-9.2V144.2A9.25,9.25,0,0,1,19.72,135H41m.39-.39H19.72a9.65,9.65,0,0,0-9.64,9.64v50.68a9.58,9.58,0,0,0,9.59,9.58H41.41Z"/><g class="cls-3"><text class="cls-26" transform="translate(12.33 170.38)">T</text><text class="cls-2" transform="translate(14.63 170.38)">ouchpoints</text></g><path d="M41,204.82V274H19.67a9.19,9.19,0,0,1-9.2-9.19V214.07a9.25,9.25,0,0,1,9.25-9.25H41m.39-.39H19.72a9.65,9.65,0,0,0-9.64,9.64h0v50.69a9.58,9.58,0,0,0,9.59,9.58H41.41V204.43Z"/><text class="cls-2" transform="translate(15.36 241.45)">Emotions</text><text class="cls-27" transform="translate(23.68 224.79)">+</text><text class="cls-27" transform="translate(24.34 258.24)">-</text><path d="M41,274.23v69.13H19.67a9.2,9.2,0,0,1-9.2-9.2V283.49a9.26,9.26,0,0,1,9.25-9.26H41m.39-.38H19.72a9.64,9.64,0,0,0-9.64,9.64h0v50.67a9.59,9.59,0,0,0,9.59,9.59H41.41Z"/><text class="cls-2" transform="translate(13.36 309.66)">Pain Points</text><path d="M41,343.61v69.13H19.67a9.2,9.2,0,0,1-9.2-9.2V352.86a9.25,9.25,0,0,1,9.25-9.25H41m.39-.39H19.72a9.65,9.65,0,0,0-9.64,9.64h0v50.68a9.58,9.58,0,0,0,9.59,9.58H41.41v-69.9Z"/><text class="cls-2" transform="translate(10.76 379.04)">Opportunities</text><path d="M52.13,46.44H139.3a11.07,11.07,0,0,1,11.07,11.08v7.8H41.06v-7.8A11.08,11.08,0,0,1,52.13,46.44Z"/><text class="cls-28" transform="translate(75.72 57.51)">Opens web app</text><path d="M160.94,46.44h87.18a11.08,11.08,0,0,1,11.07,11.08h0v7.8H149.88v-7.8A11.07,11.07,0,0,1,160.94,46.44Z"/><g class="cls-3"><text class="cls-28" transform="translate(187.12 57.51)">Clicks on ‘Send’</text></g><path d="M269.77,46.44h87.17A11.08,11.08,0,0,1,368,57.52h0v7.8H258.68v-7.8a11.07,11.07,0,0,1,11.07-11.08Z"/><g class="cls-3"><text class="cls-28" transform="translate(299.3 54.27)">Fills out money<tspan x="0" y="5.52">sending form</tspan></text></g><path d="M378.64,46.44h87.17a11.08,11.08,0,0,1,11.07,11.08h0v7.8H367.57v-7.8A11.08,11.08,0,0,1,378.64,46.44Z"/><g class="cls-3"><text class="cls-28" transform="translate(400.62 55.88)">Confirms the transaction</text></g><path d="M487.58,46.44h87.17a11.08,11.08,0,0,1,11.07,11.08h0v7.8H476.51v-7.8a11.07,11.07,0,0,1,11.07-11.08Z"/><g class="cls-3"><text class="cls-28" transform="translate(515.32 57.37)">Gets Confirmation</text></g><line class="cls-1" x1="41.06" y1="240.3" x2="43.36" y2="240.3"/><line class="cls-29" x1="47.97" y1="240.3" x2="581.21" y2="240.3"/><line class="cls-1" x1="583.52" y1="240.3" x2="585.82" y2="240.3"/><path class="cls-30" d="M41.06,240.3s22-15.52,51.52-15.52c57.35,0,88.59,13.3,109.49,13.31,36.58,0,60.46,21.3,102.86,17.59,35.75,1.41,75.23-15.75,115-15.38,15.29.14,68.49-15.34,89.9-16.18,34.18-1.35,33.06,0,50.32-.07,28.78-.09,25.69.74,25.69.74"/><circle class="cls-31" cx="92.16" cy="224.12" r="7.04"/><circle class="cls-32" cx="88.87" cy="221.29" r="1.15"/><circle class="cls-32" cx="95.44" cy="221.29" r="1.15"/><path class="cls-33" d="M92.09,227.93c-1.8,0-3.27-2-3.27-4.39h-.16c0,2.51,1.54,4.55,3.45,4.55s3.43-2,3.43-4.55h-.16C95.36,226,93.89,227.93,92.09,227.93Z"/><circle class="cls-31" cx="538.2" cy="224.12" r="7.04"/><circle class="cls-32" cx="534.91" cy="221.29" r="1.15"/><circle class="cls-32" cx="541.48" cy="221.29" r="1.15"/><path class="cls-33" d="M538.13,227.93c-1.8,0-3.27-2-3.27-4.39h-.16c0,2.51,1.54,4.55,3.45,4.55s3.43-2,3.43-4.55h-.16C541.4,226,539.94,227.93,538.13,227.93Z"/><circle class="cls-34" cx="305" cy="256.09" r="7.04"/><circle class="cls-32" cx="301.71" cy="253.26" r="1.15"/><circle class="cls-32" cx="308.28" cy="253.26" r="1.15"/><path class="cls-33" d="M304.93,255.68c1.81,0,3.27,2,3.27,4.38h.16c0-2.51-1.53-4.55-3.43-4.55s-3.43,2-3.43,4.55h.16C301.66,257.63,303.13,255.68,304.93,255.68Z"/><circle class="cls-35" cx="423.37" cy="240.3" r="7.04"/><circle class="cls-32" cx="420.09" cy="238.49" r="1.15"/><circle class="cls-32" cx="426.66" cy="238.49" r="1.15"/><line class="cls-30" x1="420.09" y1="243.25" x2="426.66" y2="243.25"/><circle class="cls-35" cx="201.04" cy="238.09" r="7.04"/><circle class="cls-32" cx="197.76" cy="236.28" r="1.15"/><circle class="cls-32" cx="204.33" cy="236.28" r="1.15"/><line class="cls-30" x1="197.76" y1="241.04" x2="204.33" y2="241.04"/><text class="cls-36" transform="translate(167.77 19.26)"><tspan class="cls-37">S</tspan><tspan class="cls-38" x="4.64" y="0">c</tspan><tspan class="cls-39" x="8.54" y="0">ena</tspan><tspan class="cls-40" x="20.66" y="0">r</tspan><tspan x="23.88" y="0">i</tspan><tspan class="cls-41" x="25.38" y="0">o</tspan><tspan x="29.62" y="0">: Jay </tspan><tspan class="cls-42" x="46.31" y="0">w</tspan><tspan x="51.68" y="0">an</tspan><tspan class="cls-43" x="59.77" y="0">t</tspan><tspan x="62.58" y="0">s </tspan><tspan class="cls-44" x="68.37" y="0">t</tspan><tspan x="71.13" y="0">o send c</tspan><tspan class="cls-45" x="99.05" y="0">r</tspan><tspan x="102.4" y="0">y</tspan><tspan class="cls-46" x="105.51" y="0">p</tspan><tspan class="cls-47" x="109.65" y="0">t</tspan><tspan class="cls-48" x="112.42" y="0">o </tspan><tspan class="cls-47" x="118.47" y="0">t</tspan><tspan x="121.24" y="0">o </tspan><tspan x="0" y="9.6">one of his f</tspan><tspan class="cls-40" x="35.92" y="9.6">r</tspan><tspan x="39.14" y="9.6">iends. </tspan></text></svg>