<svg id="Layer_1" data-name="Layer 1" xmlns="http://www.w3.org/2000/svg" viewBox="0 0 1533.87 1090.34"><defs><style>.cls-1,.cls-30{fill:#231f20;}.cls-2,.cls-24{fill:#0062fd;}.cls-26,.cls-27,.cls-28,.cls-3{fill:none;}.cls-3{stroke:#0062fd;}.cls-26,.cls-27,.cls-28,.cls-29,.cls-3,.cls-30,.cls-31,.cls-32{stroke-miterlimit:10;}.cls-16,.cls-25,.cls-4,.cls-5{font-size:12px;}.cls-24,.cls-4{font-family:HelveticaNeue-Bold, Helvetica Neue;font-weight:700;}.cls-25,.cls-5,.cls-8{font-family:HelveticaNeue, Helvetica Neue;}.cls-6{letter-spacing:-0.02em;}.cls-7{font-size:16px;font-family:HelveticaNeue-Medium, Helvetica Neue;font-weight:500;}.cls-8{font-size:14px;}.cls-9{letter-spacing:-0.02em;}.cls-10{letter-spacing:-0.07em;}.cls-11{letter-spacing:0em;}.cls-12{letter-spacing:-0.02em;}.cls-13{letter-spacing:0em;}.cls-14{letter-spacing:-0.03em;}.cls-15{letter-spacing:0.02em;}.cls-16{font-family:HelveticaNeue-Italic, Helvetica Neue;font-style:italic;}.cls-17{letter-spacing:-0.04em;}.cls-18{letter-spacing:-0.11em;}.cls-19{letter-spacing:-0.07em;}.cls-20{letter-spacing:-0.05em;}.cls-21{letter-spacing:0.02em;}.cls-22{letter-spacing:-0.09em;}.cls-23{letter-spacing:0em;}.cls-24{font-size:18px;}.cls-25{fill:#fff;}.cls-26,.cls-27,.cls-28,.cls-29,.cls-30,.cls-31,.cls-32{stroke:#231f20;}.cls-27{stroke-dasharray:12.05 12.05;}.cls-28,.cls-29,.cls-31,.cls-32{stroke-width:2px;}.cls-29{fill:#ffd20a;}.cls-31{fill:#35c3ff;}.cls-32{fill:#f1f2f2;}</style></defs><path class="cls-1" d="M383.42,170.68V351.06H100.2V170.68H383.42m1-1H99.2V352.06H384.42V169.68Z"/><path class="cls-2" d="M667.34,170.68V351.06H384.12V170.68H667.34m1-1H383.12V352.06H668.34V169.68Z"/><path class="cls-2" d="M951.27,170.68V351.06H668V170.68H951.27m1-1H667V352.06H952.27V169.68Z"/><path class="cls-2" d="M1235.35,170.68V351.06H952.13V170.68h283.22m1-1H951.13V352.06h285.22V169.68Z"/><path class="cls-2" d="M383.42,352.06V532.44H100.2V352.06H383.42m1-1H99.2V533.44H384.42V351.06Z"/><rect class="cls-3" x="99.2" y="32.08" width="285.22" height="67.11" rx="21.84"/><path class="cls-2" d="M951.27,352.06V532.44H668V352.06H951.27m1-1H667V533.44H952.27V351.06Z"/><path class="cls-2" d="M1235.35,352.06V532.44H952.13V352.06h283.22m1-1H951.13V533.44h285.22V351.06Z"/><path class="cls-2" d="M383.42,533.44V713.83H100.2V533.44H383.42m1-1H99.2V714.83H384.42V532.44Z"/><path class="cls-2" d="M667.34,533.44V713.83H384.12V533.44H667.34m1-1H383.12V714.83H668.34V532.44Z"/><path class="cls-2" d="M951.27,533.44V713.83H668V533.44H951.27m1-1H667V714.83H952.27V532.44Z"/><path class="cls-2" d="M1235.35,533.44V713.83H952.13V533.44h283.22m1-1H951.13V714.83h285.22V532.44Z"/><path class="cls-2" d="M383.42,714.83V895.21H100.2V714.83H383.42m1-1H99.2V896.21H384.42V713.83Z"/><path class="cls-2" d="M667.34,714.83V895.21H384.12V714.83H667.34m1-1H383.12V896.21H668.34V713.83Z"/><path class="cls-2" d="M951.27,714.83V895.21H668V714.83H951.27m1-1H667V896.21H952.27V713.83Z"/><path class="cls-2" d="M1235.35,714.83V895.21H952.13V714.83h283.22m1-1H951.13V896.21h285.22V713.83Z"/><path class="cls-2" d="M383.42,896.21v180.38H100.2V896.21H383.42m1-1H99.2v182.38H384.42V895.21Z"/><path class="cls-2" d="M667.34,896.21v180.38H384.12V896.21H667.34m1-1H383.12v182.38H668.34V895.21Z"/><path class="cls-2" d="M951.27,896.21v180.38H668V896.21H951.27m1-1H667v182.38H952.27V895.21Z"/><path class="cls-2" d="M1235.35,896.21v180.38H952.13V896.21h283.22m1-1H951.13v182.38h285.22V895.21Z"/><path class="cls-2" d="M1519.57,170.68V351.06H1236.35V170.68h283.22m1-1H1235.35V352.06h285.22V169.68Z"/><path class="cls-2" d="M1519.57,352.06V532.44H1236.35V352.06h283.22m1-1H1235.35V533.44h285.22V351.06Z"/><path class="cls-2" d="M1519.57,533.44V713.83H1236.35V533.44h283.22m1-1H1235.35V714.83h285.22V532.44Z"/><path class="cls-2" d="M1519.57,714.83V895.21H1236.35V714.83h283.22m1-1H1235.35V896.21h285.22V713.83Z"/><path class="cls-2" d="M1519.57,896.21v180.38H1236.35V896.21h283.22m1-1H1235.35v182.38h285.22V895.21Z"/><path class="cls-2" d="M99.11,170.68V351.06H43.38a24,24,0,0,1-24-24V194.83a24.18,24.18,0,0,1,24.15-24.15H99.11m1-1H43.53a25.15,25.15,0,0,0-25.15,25.15V327.06a25,25,0,0,0,25,25h56.73V169.68Z"/><text class="cls-4" transform="translate(22.47 263.13)">User Actions</text><text class="cls-5" transform="translate(158.87 215.16)">Goes to the Que<tspan class="cls-6" x="88.25" y="0">r</tspan><tspan x="92.03" y="0">cus homepage</tspan><tspan x="0" y="14.4">via bookmarked link</tspan></text><text class="cls-7" transform="translate(122.37 69.52)">Persona: Allie, University Student</text><rect class="cls-3" x="395.31" y="15.19" width="582.2" height="84" rx="29.51"/><text class="cls-8" transform="translate(432.08 43.88)">Scenario: Allie is getting <tspan class="cls-9" x="154" y="0">r</tspan><tspan x="158.41" y="0">eady for another day of universit</tspan><tspan class="cls-10" x="360.13" y="0">y</tspan><tspan class="cls-11" x="366.09" y="0">. She needs to figu</tspan><tspan class="cls-9" x="483.57" y="0">r</tspan><tspan x="487.98" y="0">e out </tspan><tspan x="0" y="16.8">what her upcoming class is about, attend the class, talk to her g</tspan><tspan class="cls-9" x="400.13" y="16.8">r</tspan><tspan x="404.54" y="16.8">oupmates about </tspan><tspan x="0" y="33.6">the assignment, and then figu</tspan><tspan class="cls-9" x="185.44" y="33.6">r</tspan><tspan x="189.85" y="33.6">e out when and how she’ll do it.</tspan></text><text class="cls-5" transform="translate(158.87 271.35)">Sea<tspan class="cls-6" x="20.66" y="0">r</tspan><tspan x="24.44" y="0">ches for Que</tspan><tspan class="cls-6" x="93.35" y="0">r</tspan><tspan x="97.13" y="0">cus on a </tspan><tspan x="0" y="14.4">sea</tspan><tspan class="cls-12" x="18.89" y="14.4">r</tspan><tspan class="cls-13" x="22.67" y="14.4">ch engine</tspan></text><text class="cls-5" transform="translate(145.09 774.43)">Fo<tspan class="cls-14" x="13.78" y="0">r</tspan><tspan class="cls-13" x="17.44" y="0">getting passwo</tspan><tspan class="cls-6" x="99.43" y="0">r</tspan><tspan x="103.21" y="0">d or use</tspan><tspan class="cls-15" x="147" y="0">r</tspan><tspan x="151.21" y="0">name</tspan></text><text class="cls-5" transform="translate(145.09 954.56)">Set up clear guides on <tspan class="cls-12" x="123.8" y="0">r</tspan><tspan x="127.58" y="0">ecovery</tspan><tspan x="0" y="14.4">systems</tspan></text><text class="cls-5" transform="translate(145.09 1015.82)">P<tspan class="cls-6" x="7.78" y="0">r</tspan><tspan x="11.56" y="0">ovide way to contact</tspan><tspan x="0" y="14.4">human support</tspan></text><text class="cls-5" transform="translate(145.09 807.77)">Fo<tspan class="cls-14" x="13.78" y="0">r</tspan><tspan class="cls-13" x="17.44" y="0">getting </tspan><tspan class="cls-6" x="57.89" y="0">r</tspan><tspan x="61.67" y="0">ecovery email</tspan></text><text class="cls-5" transform="translate(145.09 842.62)">Losing track of the Que<tspan class="cls-12" x="125.59" y="0">r</tspan><tspan x="129.37" y="0">cus site</tspan></text><text class="cls-5" transform="translate(183.67 416.04)">Login Button</text><text class="cls-5" transform="translate(183.67 464.46)">Fo<tspan class="cls-14" x="13.78" y="0">r</tspan><tspan class="cls-13" x="17.44" y="0">got passwo</tspan><tspan class="cls-6" x="79.87" y="0">r</tspan><tspan x="83.65" y="0">d</tspan></text><text class="cls-5" transform="translate(183.67 484.07)">Fo<tspan class="cls-14" x="13.78" y="0">r</tspan><tspan class="cls-13" x="17.44" y="0">got use</tspan><tspan class="cls-15" x="57.44" y="0">r</tspan><tspan x="61.65" y="0">name</tspan></text><text class="cls-16" transform="translate(176.59 564.58)">“What was my login <tspan x="0" y="14.4">info again?”</tspan></text><text class="cls-16" transform="translate(395.36 596.58)">“Whe<tspan class="cls-12" x="29.34" y="0">r</tspan><tspan x="33.12" y="0">e is </tspan><tspan x="0" y="14.4">everything?!”</tspan></text><text class="cls-16" transform="translate(560.71 581.49)">“<tspan class="cls-17" x="5.11" y="0">W</tspan><tspan x="15.78" y="0">ait, I understand</tspan><tspan x="0" y="14.4">this assignment!”</tspan></text><text class="cls-16" transform="translate(694.31 549.15)">“<tspan class="cls-18" x="5.11" y="0">Y</tspan><tspan x="11.11" y="0">es, I can lea</tspan><tspan class="cls-15" x="74.46" y="0">r</tspan><tspan x="78.67" y="0">n mo</tspan><tspan class="cls-12" x="105.79" y="0">r</tspan><tspan x="109.57" y="0">e about</tspan><tspan x="0" y="14.4">this assignment in class”</tspan></text><text class="cls-16" transform="translate(777.24 666.78)">“Hang on the<tspan class="cls-6" x="70.69" y="0">r</tspan><tspan x="74.47" y="0">e</tspan><tspan class="cls-19" x="80.92" y="0">’</tspan><tspan x="83.36" y="0">s a lot</tspan><tspan x="0" y="14.4">of new things I missed”</tspan></text><text class="cls-16" transform="translate(954.24 603.21)">“Which g<tspan class="cls-12" x="48.9" y="0">r</tspan><tspan class="cls-13" x="52.68" y="0">oup chat </tspan><tspan x="0" y="14.4">do I check again?”</tspan></text><text class="cls-16" transform="translate(1127.97 644.6)">“As a team, we<tspan x="0" y="14.4">can do this!”</tspan></text><text class="cls-16" transform="translate(1328.31 581.49)">“No<tspan class="cls-20" x="20.66" y="0">w</tspan><tspan x="29.11" y="0">, how and when can I do</tspan><tspan x="0" y="14.4">my part of the assignment?”</tspan></text><text class="cls-5" transform="translate(183.67 439.99)">Sign up</text><text class="cls-5" transform="translate(413.72 215.16)">Performs multiple actions on the<tspan x="0" y="14.4">same tab</tspan></text><text class="cls-5" transform="translate(413.72 249.87)">Sees what<tspan class="cls-19" x="55.99" y="0">’</tspan><tspan x="58.44" y="0">s most important to work</tspan><tspan x="0" y="14.4">on first</tspan></text><text class="cls-5" transform="translate(413.72 285.75)">Checks g<tspan class="cls-6" x="50.68" y="0">r</tspan><tspan x="54.46" y="0">oup and course announcements</tspan></text><text class="cls-5" transform="translate(413.72 315.93)">Engages in p<tspan class="cls-12" x="69.79" y="0">r</tspan><tspan class="cls-13" x="73.57" y="0">e-class discussions online</tspan></text><text class="cls-5" transform="translate(422.02 954.56)">P<tspan class="cls-6" x="7.78" y="0">r</tspan><tspan x="11.56" y="0">ovide things on one page, load less</tspan></text><text class="cls-5" transform="translate(422.02 1015.82)">Route things to a p<tspan class="cls-6" x="102.25" y="0">r</tspan><tspan x="106.03" y="0">oper place</tspan><tspan x="0" y="14.4">as duplicates</tspan></text><text class="cls-5" transform="translate(422.02 768.22)">Slow connection speed</text><text class="cls-5" transform="translate(422.02 803.08)">Confusing course layouts</text><text class="cls-5" transform="translate(422.02 836.42)">Confusing course layouts</text><text class="cls-5" transform="translate(460.6 416.04)">Course page</text><text class="cls-5" transform="translate(460.6 464.46)">Discussions page</text><text class="cls-5" transform="translate(460.6 484.07)">Anouncements page</text><text class="cls-5" transform="translate(460.6 439.99)">G<tspan class="cls-12" x="9.11" y="0">r</tspan><tspan class="cls-13" x="12.89" y="0">oups page</tspan></text><text class="cls-5" transform="translate(728.67 215.16)">Finds the course livest<tspan class="cls-6" x="120.24" y="0">r</tspan><tspan x="124.02" y="0">eam</tspan><tspan x="0" y="14.4">on blackboa</tspan><tspan class="cls-6" x="66.24" y="14.4">r</tspan><tspan x="70.02" y="14.4">d or zoom</tspan></text><text class="cls-5" transform="translate(728.67 271.35)">Enter course code</text><text class="cls-5" transform="translate(714.9 954.56)">Have course page<tspan x="0" y="14.4">display course livest</tspan><tspan class="cls-6" x="108.67" y="14.4">r</tspan><tspan x="112.45" y="14.4">eam links</tspan><tspan x="0" y="28.8">consistently</tspan></text><text class="cls-5" transform="translate(714.9 769.62)">Not being able to find link<tspan x="0" y="14.4">to the course livest</tspan><tspan class="cls-12" x="101.57" y="14.4">r</tspan><tspan x="105.35" y="14.4">eam</tspan></text><text class="cls-5" transform="translate(714.9 819.01)">Not <tspan class="cls-6" x="22.67" y="0">r</tspan><tspan x="26.45" y="0">emembering the course</tspan><tspan x="0" y="14.4">code</tspan></text><text class="cls-5" transform="translate(729.61 416.04)">Link to course livest<tspan class="cls-6" x="106.91" y="0">r</tspan><tspan x="110.69" y="0">eam</tspan></text><text class="cls-5" transform="translate(729.61 439.99)">Course code input</text><text class="cls-5" transform="translate(1005.57 215.16)">Checks in on exte<tspan class="cls-21" x="96.24" y="0">r</tspan><tspan class="cls-13" x="100.45" y="0">nal platforms</tspan><tspan x="0" y="14.4">to talk to g</tspan><tspan class="cls-6" x="57.35" y="14.4">r</tspan><tspan x="61.13" y="14.4">oup members</tspan></text><text class="cls-5" transform="translate(1005.57 271.35)">Communicates to p<tspan class="cls-6" x="105.6" y="0">r</tspan><tspan x="109.38" y="0">ofessors</tspan><tspan x="0" y="14.4">and </tspan><tspan class="cls-22" x="23.57" y="14.4">T</tspan><tspan x="29.35" y="14.4">As via emails</tspan></text><text class="cls-5" transform="translate(991.8 954.56)">P<tspan class="cls-6" x="7.78" y="0">r</tspan><tspan x="11.56" y="0">ovide a way to show contact info</tspan><tspan x="0" y="14.4">for classmates</tspan></text><text class="cls-5" transform="translate(991.8 1015.82)">Have an instant chat extension<tspan x="0" y="14.4">available</tspan></text><text class="cls-5" transform="translate(991.8 772.12)">Needing to lea<tspan class="cls-15" x="77.78" y="0">r</tspan><tspan x="81.99" y="0">n, load, and</tspan><tspan x="0" y="14.4">use di</tspan><tspan class="cls-6" x="32.23" y="14.4">f</tspan><tspan class="cls-13" x="35.57" y="14.4">fe</tspan><tspan class="cls-6" x="45.56" y="14.4">r</tspan><tspan x="49.34" y="14.4">ent apps</tspan></text><text class="cls-5" transform="translate(991.8 811.98)">Fo<tspan class="cls-14" x="13.78" y="0">r</tspan><tspan class="cls-13" x="17.44" y="0">getting to check in on an app</tspan><tspan x="0" y="14.4">for g</tspan><tspan class="cls-12" x="24.66" y="14.4">r</tspan><tspan class="cls-13" x="28.44" y="14.4">oup meetings</tspan></text><text class="cls-5" transform="translate(991.8 854.65)">Finding contact info</text><text class="cls-5" transform="translate(1030.38 416.04)">Slack/Disco<tspan class="cls-6" x="63.99" y="0">r</tspan><tspan x="67.77" y="0">d/WhatsApp</tspan></text><text class="cls-5" transform="translate(1030.38 439.99)">Emails</text><text class="cls-5" transform="translate(1303.58 215.16)">Checks the deadlines and <tspan x="0" y="14.4">the document </tspan><tspan class="cls-6" x="77.82" y="14.4">r</tspan><tspan x="81.6" y="14.4">equi</tspan><tspan class="cls-12" x="104.49" y="14.4">r</tspan><tspan x="108.27" y="14.4">ements</tspan></text><text class="cls-5" transform="translate(1303.58 260.87)">Plans time dedicated to do <tspan x="0" y="14.4">doing course work</tspan></text><text class="cls-5" transform="translate(1289.8 954.56)">Show lectu<tspan class="cls-6" x="59.77" y="0">r</tspan><tspan x="63.55" y="0">es or </tspan><tspan class="cls-12" x="93.55" y="0">r</tspan><tspan class="cls-13" x="97.33" y="0">eadings </tspan><tspan class="cls-6" x="142.89" y="0">r</tspan><tspan class="cls-23" x="146.67" y="0">elevant</tspan><tspan x="0" y="14.4">to assignments</tspan></text><text class="cls-5" transform="translate(1289.8 1015.82)">P<tspan class="cls-6" x="7.78" y="0">r</tspan><tspan x="11.56" y="0">ovide ways to connect assignments</tspan><tspan x="0" y="14.4">and lectu</tspan><tspan class="cls-6" x="49.57" y="14.4">r</tspan><tspan x="53.35" y="14.4">es</tspan></text><text class="cls-5" transform="translate(1289.8 771.46)">Struggling to find assignment file</text><text class="cls-5" transform="translate(1289.8 806.32)">Struggling to determine<tspan x="0" y="14.4">assignment </tspan><tspan class="cls-12" x="65.14" y="14.4">r</tspan><tspan x="68.92" y="14.4">equi</tspan><tspan class="cls-6" x="91.81" y="14.4">r</tspan><tspan x="95.59" y="14.4">ements</tspan></text><text class="cls-5" transform="translate(1289.8 854.65)">Struggling to understand<tspan x="0" y="14.4">assignment</tspan></text><text class="cls-5" transform="translate(1328.38 416.04)">Course page</text><text class="cls-5" transform="translate(1328.38 439.99)">Assignment file</text><path class="cls-2" d="M99.11,351.78V532.16H43.38a24,24,0,0,1-24-24V375.93a24.18,24.18,0,0,1,24.15-24.15H99.11m1-1H43.53a25.15,25.15,0,0,0-25.15,25.15V508.16a25,25,0,0,0,25,25h56.73V350.78Z"/><text class="cls-4" transform="translate(24.25 444.23)"><tspan class="cls-18">T</tspan><tspan x="6" y="0">ouchpoints</tspan></text><path class="cls-2" d="M99.11,534.08V714.47H43.38a24,24,0,0,1-24-24V558.23a24.19,24.19,0,0,1,24.15-24.15H99.11m1-1H43.53a25.15,25.15,0,0,0-25.15,25.15V690.47a25,25,0,0,0,25,25h56.73V533.08Z"/><text class="cls-4" transform="translate(32.15 629.67)">Emotions</text><text class="cls-24" transform="translate(53.85 586.2)">+</text><text class="cls-24" transform="translate(55.58 673.47)">-</text><path class="cls-2" d="M99.11,715.19V895.57H43.38a24,24,0,0,1-24-24V739.34a24.18,24.18,0,0,1,24.15-24.15H99.11m1-1H43.53a25.15,25.15,0,0,0-25.15,25.15V871.57a25,25,0,0,0,25,25h56.73V714.19Z"/><text class="cls-4" transform="translate(26.92 807.63)">Pain Points</text><path class="cls-2" d="M99.11,896.21v180.38H43.38a24,24,0,0,1-24-24V920.36a24.18,24.18,0,0,1,24.15-24.15H99.11m1-1H43.53a25.15,25.15,0,0,0-25.15,25.15v132.23a25,25,0,0,0,25,25h56.73V895.21Z"/><text class="cls-4" transform="translate(20.15 988.66)">Opportunities</text><path class="cls-2" d="M128.09,120.86H355.53a28.89,28.89,0,0,1,28.89,28.89v20.37a0,0,0,0,1,0,0H99.2a0,0,0,0,1,0,0V149.75A28.89,28.89,0,0,1,128.09,120.86Z"/><text class="cls-25" transform="translate(222.03 149.74)">Logs In</text><path class="cls-2" d="M412,120.86H639.45a28.89,28.89,0,0,1,28.89,28.89v20.37a0,0,0,0,1,0,0H383.12a0,0,0,0,1,0,0V149.75A28.89,28.89,0,0,1,412,120.86Z"/><text class="cls-25" transform="translate(498.91 142.74)">O<tspan class="cls-14" x="9.12" y="0">r</tspan><tspan class="cls-13" x="12.78" y="0">ganizes</tspan><tspan x="-18.62" y="14.4">Course Materials</tspan></text><path class="cls-2" d="M695.94,120.86H923.38a28.89,28.89,0,0,1,28.89,28.89v20.37a0,0,0,0,1,0,0H667a0,0,0,0,1,0,0V149.75A28.89,28.89,0,0,1,695.94,120.86Z"/><text class="cls-25" transform="translate(795.14 142.74)">Attends<tspan x="5.9" y="14.4">Class</tspan></text><path class="cls-2" d="M980,120.86h227.44a28.89,28.89,0,0,1,28.89,28.89v20.37a0,0,0,0,1,0,0H951.13a0,0,0,0,1,0,0V149.75A28.89,28.89,0,0,1,980,120.86Z"/><text class="cls-25" transform="translate(1055.19 141.74)">Connects with<tspan x="20.55" y="14.4">Others</tspan></text><path class="cls-2" d="M1264.24,120.86h227.44a28.89,28.89,0,0,1,28.89,28.89v20.37a0,0,0,0,1,0,0H1235.35a0,0,0,0,1,0,0V149.75A28.89,28.89,0,0,1,1264.24,120.86Z"/><text class="cls-25" transform="translate(1348.4 143.74)">Determines<tspan x="-1.87" y="14.4">Coursework</tspan></text><line class="cls-26" x1="99.2" y1="626.66" x2="105.2" y2="626.66"/><line class="cls-27" x1="117.24" y1="626.66" x2="1508.55" y2="626.66"/><line class="cls-26" x1="1514.57" y1="626.66" x2="1520.57" y2="626.66"/><path class="cls-28" d="M99.2,626.66s57.15-16.3,134.29-16.3c149.63,0,223.39,62.37,277.92,62.38,95.45,0,119.45-76.83,230.1-86.53,93.26,3.68,160.88,90,264.58,90.95,39.9.37,74.38-88.62,130.26-90.82,89.17-3.51,215.6,50.14,260.64,50,75.09-.26,123.58-9.66,123.58-9.66"/><circle class="cls-29" cx="1149.89" cy="581.83" r="18.36"/><circle class="cls-1" cx="1141.32" cy="574.45" r="3"/><circle class="cls-1" cx="1158.46" cy="574.45" r="3"/><path class="cls-30" d="M1149.72,591.78c-4.7,0-8.53-5.14-8.53-11.45h-.42c0,6.55,4,11.87,9,11.87s9-5.32,9-11.87h-.42C1158.25,586.64,1154.42,591.78,1149.72,591.78Z"/><circle class="cls-29" cx="741.51" cy="586.2" r="18.36"/><circle class="cls-1" cx="732.94" cy="578.83" r="3"/><circle class="cls-1" cx="750.08" cy="578.83" r="3"/><path class="cls-30" d="M741.34,596.16c-4.7,0-8.53-5.14-8.53-11.46h-.42c0,6.55,4,11.88,9,11.88s8.95-5.33,8.95-11.88h-.42C749.87,591,746,596.16,741.34,596.16Z"/><circle class="cls-29" cx="623.03" cy="623.63" r="18.36"/><circle class="cls-1" cx="614.46" cy="616.26" r="3"/><circle class="cls-1" cx="631.6" cy="616.26" r="3"/><path class="cls-30" d="M622.86,633.59c-4.7,0-8.53-5.14-8.53-11.45h-.42c0,6.54,4,11.87,9,11.87s8.95-5.33,8.95-11.87h-.42C631.39,628.45,627.56,633.59,622.86,633.59Z"/><circle class="cls-31" cx="1005.68" cy="677.16" r="18.36"/><circle class="cls-1" cx="997.11" cy="669.78" r="3"/><circle class="cls-1" cx="1014.25" cy="669.78" r="3"/><path class="cls-30" d="M1005.51,676.08c4.7,0,8.53,5.14,8.53,11.45h.42c0-6.54-4-11.87-9-11.87s-9,5.33-9,11.87H997C997,681.22,1000.81,676.08,1005.51,676.08Z"/><circle class="cls-31" cx="413.72" cy="646.98" r="18.36"/><circle class="cls-1" cx="405.15" cy="639.6" r="3"/><circle class="cls-1" cx="422.29" cy="639.6" r="3"/><path class="cls-30" d="M413.55,645.9c4.7,0,8.53,5.14,8.53,11.45h.42c0-6.55-4-11.87-8.95-11.87s-8.95,5.32-8.95,11.87H405C405,651,408.85,645.9,413.55,645.9Z"/><circle class="cls-32" cx="1388.42" cy="638.03" r="18.36"/><circle class="cls-1" cx="1379.85" cy="633.32" r="3"/><circle class="cls-1" cx="1396.99" cy="633.32" r="3"/><line class="cls-28" x1="1379.85" y1="645.74" x2="1396.99" y2="645.74"/><circle class="cls-32" cx="868.21" cy="628.61" r="18.36"/><circle class="cls-1" cx="859.65" cy="623.91" r="3"/><circle class="cls-1" cx="876.78" cy="623.91" r="3"/><line class="cls-28" x1="859.65" y1="636.32" x2="876.78" y2="636.32"/><circle class="cls-32" cx="217.15" cy="610.25" r="18.36"/><circle class="cls-1" cx="208.58" cy="605.54" r="3"/><circle class="cls-1" cx="225.72" cy="605.54" r="3"/><line class="cls-28" x1="208.58" y1="617.96" x2="225.72" y2="617.96"/></svg>