<?xml version="1.0" encoding="utf-8"?>
<!-- Generator: Adobe Illustrator 25.2.1, SVG Export Plug-In . SVG Version: 6.00 Build 0)  -->
<svg version="1.1" id="Layer_1" xmlns="http://www.w3.org/2000/svg" xmlns:xlink="http://www.w3.org/1999/xlink" x="0px" y="0px"
	 viewBox="0 0 523.1 316.4" style="enable-background:new 0 0 523.1 316.4;" xml:space="preserve">
<style type="text/css">
	.st0{fill:#15FFCD;}
	.st1{fill:#6F00E9;}
	.st2{fill:#004BF4;}
	.st3{fill:#FF15AC;}
	.st4{fill:#FF2AE4;}
	.st5{fill:#FFFFFF;}
	.st6{fill:#9B9B9B;}
</style>
<path d="M382.8,243.3c-0.1-0.6-0.3-1.2-0.5-1.7c-1.2-2.7-2.6-5.2-3.6-8c-1.5-4.2-3.1-8.6-0.7-13c1.1-2.2,2.6-4.1,4.5-5.7
	c2.1-1.6,4-3.5,6-5.4c2-1.7,4.4-2.8,6.9-3.2c1.1-0.1,2.3,0,3.4,0.3c-0.7-1.7-1.4-3.2-1.9-4.7c-1.1-3.4-2.1-6.8-3-10.2
	c-0.6-2.1-1.2-4.2-1.7-6.3c-0.6-2.6-1.2-5.3-1.8-7.9c-0.4-1.9-0.8-3.7-1.1-5.6c-0.2-1.2-0.4-2.3-0.5-3.5c-0.2-2.3-0.3-4.6-0.2-6.9
	c0.2-2.4,0.5-4.9,1.1-7.2c1-4.5,2.7-8.7,5-12.7c1.6-2.7,2.9-5.5,4.6-8.1c1.5-2.1,3.1-4.1,4.8-6c1.4-1.7,2.8-3.5,4.4-5.1
	c1.8-2.1,3.8-4.2,5.9-6.1c3.7-3.5,7.7-6.8,11.8-9.8c3.5-2.4,7.6-4,11.5-5.8c2.2-1,4.4-1.9,6.7-2.7c1.6-0.5,3.4-0.6,4.9-1.2
	c3.2-1.2,6.5-0.9,9.8-1.2c2.2-0.4,4.5-0.1,6.6,0.8c0.2,0.1,0.4,0.2,0.6,0.2c3.8,0.2,7.5,0.8,11.1,1.8c2,0.5,4.1,0.7,6.2,1.2
	c1.7,0.4,3.3,0.9,4.9,1.5c3,1.1,6,2.3,8.9,3.7c1.6,0.8,3.2,1.8,4.6,2.9c2,1.5,3.8,3.2,5.7,4.8c2.6,2.1,4.9,4.7,6.8,7.4
	c0.8,0.9,1.6,1.7,2.5,2.4c2.7,2.7,3.9,6.1,4.6,9.7c0.8,3.2,1.3,6.4,1.6,9.7c0.2,5.9,0.5,11.7-1,17.5c-0.7,2.9-1.1,5.9-2,8.8
	c-0.7,2.3-1.6,4.6-2.7,6.8c-2.1,4.3-4.2,8.7-6.7,12.8c-2.6,4.4-5.6,8.5-8.5,12.7c-2.4,3.4-4.9,6.7-7.5,10c-1.7,2.3-3.5,4.5-5.4,6.7
	c-0.8,0.7-1.6,1.4-2.6,1.9c2.2,2.9,3.9,5.2,5.6,7.5c2.8,3.6,5,7.6,6.6,11.9c1.5,3.9,2.7,7.9,3.7,12c1.2,4.2,2.1,8.5,3,12.8
	c0.8,3.6,1.4,7.3,1.8,11c0.5,5.7,0.8,11.4,1,17.1c-0.1,1.7-0.3,3.4-0.7,5.1c0,0.2-0.3,0.3-0.7,0.8c-0.3-0.8-0.5-1.7-0.6-2.6
	c-0.1-2.9,0-5.8,0-8.7s0-6-0.3-8.9c-0.4-3.9-1.1-7.7-1.8-11.5c-0.6-3.6-1.4-7.1-2.2-10.6c-0.7-2.9-1.8-5.6-2.6-8.5
	c-1.1-4.2-2.6-8.3-4.7-12.1c-2.1-3.6-4.4-7-6.9-10.3c-0.5-0.8-1.2-1.4-1.7-2.1c-2.8,0.3-4.3,2.4-6,4c-1.7,1.7-3.8,3.1-6,4.1
	c-2,0.9-4.2,1.5-6.2,2.2c-0.5,0.2-1,0.4-1.4,0.5c-3.3,1-6.7,1.9-9.9,3c-1,0.3-1.1-0.2-1.4-0.8l1-0.7l-0.1-0.3
	c-2.7,0.3-5.4,0.7-8.1,0.8c-2.3,0.1-4.7-0.1-7-0.2c-1.2,0-2.4-0.1-3.6-0.2c-3.3-0.3-6.6-0.6-9.8-1.1c-2.8-0.3-5.6-1.1-8.3-2.2
	c-3.6-1.8-7.7-3.1-10.5-6.3c-0.6-0.6-1-1.3-1.3-2.1c-0.5-2.4-2.3-4.1-3.4-6.1c-0.8-1.3-1.6-2.6-2.6-3.9c-1.1,3.6-3.2,6.8-3.3,10.8
	s1,7.3,2.4,11c0.5-1,0.9-1.9,1.4-2.9c0.1-0.3,0.1-0.7,0.2-1c0.4-1,1-1,1.6-0.1c1.1,1.7,2.7,3,4.6,3.8c1.1,0.4,1.3,0.1,1.4-0.9
	c0.1-1.8,1.3-2.9,2.4-4.1c0.2-0.2,0.6-0.1,0.9-0.2c0,0.2,0.1,0.5,0.1,0.6c-1.5,1.7-1.2,4.1-2.5,5.9c-2.1,2.9-4.2,5.7-5.4,9.1
	c-0.6,1.6-0.9,3.3-1,4.9c0,0.5-0.1,1-0.1,1.7c0.2,0,0.4,0,0.6-0.1c1.4-0.5,2.8-1,4.2-1.5c3.7-1.3,7.4-2.6,11.1-3.7
	c4.4-1.3,8.8-2.6,13.3-3.7c5.1-1.3,10.4-1.2,15.4,0.2c1.6,0.4,3.3,0.6,4.8,1.1c2.2,0.7,3.2,2,1.7,4c-2.4-2.6-5.8-2.3-8.8-3.2
	c-5.5-1.6-10.8-0.8-16.1,0.9c-2.1,0.7-4.4,1.1-6.5,1.7c-2.9,0.9-5.7,1.8-8.6,2.7c-1.8,0.6-3.7,1.1-5.4,1.8c-5,2.1-9.9,4.3-14.9,6.4
	c-3,1.3-6,2.4-8.9,3.7c-2.1,1-4.1,2.3-6.2,3.4c-0.3,0.2-0.7,0.2-1,0.2c-0.8-0.1-1.7-0.4-2.5-0.5c-2-0.2-3.9-0.4-5.9-0.5
	c-1.8-0.1-3.6,0-5.4,0c-4.8,0.1-9.5,0.1-14.3,0.3c-4.6,0.1-9.1,0.7-13.5,1.9c-2.9,0.9-5.8,1.6-8.7,2.4c-1.8,0.5-2.1,0.9-1.7,2.7
	c0.8,3.9,2,7.6,3.7,11.2c0.8,1.8,1.5,3.6,2,5.5c1,0.2,2.3,0.5,3.6,0.6c1.5,0.1,3,0.1,4.5,0c2.2-0.1,4.5-0.3,6.8-0.5
	c4-0.3,8-0.5,11.9-1.1c3.8-0.5,7.5-1.4,11.2-2c1.1-0.1,2.3,0,3.4,0.2c0.4,0.1,0.6,0.6,0.9,0.9c-0.4,0.4-0.8,0.7-1.3,0.9
	c-1.5,0.3-3,0.4-4.5,0.7c-2.4,0.5-4.7,1.1-7,1.4c-3,0.4-6,0.7-9,1c-2,0.2-4.1,0.4-6.1,0.4c-3.3,0.1-6.6,0-10,0
	c0.1,0.5,0.1,0.7,0.2,0.8c2.2,2,2.2,5.1,0.3,7.5c-2.5,3.1-6,3.9-9.4,5c-2.4,0.7-4.9,1.1-7.4,1.4c-2.3,0.3-4.5,0.6-6.8,0.8
	c-3.3,0.2-6.6,0.1-9.9,0.4c-3.6,0.3-7.2,1-10.9,1.2c-2.4,0.1-4.7,0-7.1-0.2c-0.5,0-1,0-1.5,0c-2.2,0-4.1-1.3-4.7-3.4
	c0-0.1-0.1-0.2-0.2-0.4c-1.5-0.1-3-0.1-4.5,0c-4.4,0.7-8.8,1.3-13.2,2.3c-4.7,1.1-9.3,2.6-13.9,4c-5.1,1.4-10.1,2.8-15.2,4.1
	c-2.6,0.7-5.3,1.3-8,1.8c-1.2,0.1-2.5,0.2-3.7,0.1c-0.7-0.1-1.3,0-2,0c-2.7,0.6-5.2-0.3-7.6-1.2c-1.9-0.8-3.6-1.7-5.4-2.7
	c-0.4-0.2-0.6-0.9-1-1.2c-2.5-2-5.1-3.7-8.6-3.3c-2.2,0.2-4.4-0.1-6.6,0c-1.8,0-3.7,0.3-5.5,0.5s-3.9,0.5-5.9,0.7
	c-4.1,0.5-8.1,0.9-12.2,1.3c-1.9,0.2-3.8,0-5.6,0.1c-1.4,0-2.9,0.3-4.4,0.2c-4-0.1-8-0.2-11.9-0.6c-4.4-0.4-8.7-1.2-13.1-1.5
	c-3.4-0.2-6.7-0.8-9.9-1.7c-2.9-1-5.7-2.5-8.2-4.4c-2-1.6-3.6-3.5-4.9-5.6c-1.3-1.9-1.9-4.2-1.8-6.5c0-4.6,1.8-8.8,2.3-13.3
	c0.1-1,0.4-2,0.8-2.9c0.3-0.4,0.7-0.7,1.2-0.7c0.5,0,1,0.3,0.7,1.2c-0.5,2-0.8,4.1-1.2,6.2s-1,4.3-1.4,6.5c-0.6,3.1-0.4,6.1,1.5,8.9
	c2.8,4,6.9,7.1,11.5,8.8c3.6,1.4,7.5,1.7,11.3,2.1c2.9,0.3,5.7,0.7,8.6,1c1.6,0.2,3.3,0.2,4.9,0.3c4.5,0.2,9,0.5,13.5,0.5
	c4.2,0,8.4-0.5,12.6-0.8c3.6-0.3,7.3-0.7,10.9-1s7.1-0.9,10.6-1s7.2,0,10.4,2.3c1.1,0.8,2,1.7,2.9,2.7c1.4,1.3,3.1,2.1,5,2.5
	c1.5,0.5,3.1,0.8,4.7,1.1c2,0.3,4.1,0.2,6.2-0.1c4.8-0.9,9.6-2.1,14.3-3.4c5.5-1.5,10.9-3.3,16.3-4.8c3-0.9,6.1-1.4,9.1-2.2
	c1.5-0.4,2.9-0.9,4.4-1.2c2.4-0.4,4.8-0.6,7.1-1c1.1-0.1,2.1-0.5,3.2-0.5c0.6,0.1,1.2,0.3,1.8,0.6c0.8-2.9,2.4-5.6,4.5-7.9
	c0.9-0.8,1.9-1.6,3-2.3c1.2-0.8,2.4-1.6,3.4-2.6c0.5-0.7,0.9-1.6,1.1-2.5c0.9-2.7,2.1-5.4,4.3-7.2c2.5-2,5.2-3.9,7.9-5.6
	c2-1.3,4-2.3,6.2-3.1c3.8-1.3,7.7-2.6,11.9-2.2c1.3,0.2,2.6-0.1,3.6-0.8c3.5-2.1,7.5-2.2,11.3-3.5c3-1,6.1-1.6,9.2-1.7
	c3.6-0.1,7.2-0.1,10.7-0.5c4-0.4,8.1-0.2,12.1-0.2c3,0,5.9,0.3,8.9,0.5c0.6,0,1.2,0.2,1.9,0.3l11.5-5.7c-3.4-2.8-5.4-6.6-7.3-10.4
	l-0.3,0.4c-0.6-0.3-1.1-0.6-1.7-0.9c-0.5-0.2-1-0.3-1.5-0.3c-3.8,0.5-7.7,0.6-11.5,0.3c-2.6,0.1-5.1,0.3-7.7,0.7
	c-1.6,0.1-3.3,0.2-4.9,0.3c-2.6,0.1-5.2,0.2-7.9,0.3c-0.1,0-0.3,0-0.4,0.1c-1.3,1.3-3,0.5-4.5,0.6c-4.4,0.6-8.8,0.9-13.3,1.4
	c-2.6,0.2-5.1,0.4-7.7,0.6c-3.6,0.3-7.2,0.7-10.8,1.1l-8,0.8c-4,0.4-8,0.9-12,1.2c-1.6,0.1-3.2,0-4.8,0.1c-4,0.4-7.9,0.9-11.9,1.3
	c-1.8,0.2-3.5,0.4-5.2,0.6c-3.4,0.4-6.9,0.9-10.3,1.3c-2,0.2-4.1,0.4-6.2,0.6c-1.8,0.2-3.6,0.5-5.5,0.7s-3.8,0.4-5.6,0.6
	c-1.2,0.1-2.5,0.2-3.6,0.3c0.3,1.9,0.7,3.9,1,5.8c0.4,2.5,0.7,5,1.1,7.5c0.2,0.8-0.3,1.6-1,1.8c-0.1,0-0.2,0-0.2,0
	c-0.7,0.1-1.3-0.3-1.4-1c0-0.1,0-0.2,0-0.3c-0.1-2.4-0.3-4.8-0.5-7.2c-0.2-2.1-0.6-4.3-1-6.6l-10.8,1.2c0.4,4,0.9,8,1.2,11.9
	c0.2,2.2,0.1,2.5-1.9,3.5c-0.3-0.7-0.5-1.5-0.7-2.2c-0.1-1,0-2,0-3.1c-0.2-3.3-0.5-6.7-0.7-10.1c-2.4,0.2-4.7,0.3-6.9,0.5
	c-1.9,0.1-3.7,0.3-5.6,0.5c-3.9,0.4-7.8,0.9-11.6,1.3c-1.4,0.1-2.7,0.2-4.1,0.3c-4.1,0.4-8.3,0.9-12.4,1.3c-1.8,0.2-3.7,0.4-5.5,0.6
	c-2,0.2-4,0.5-6,0.8c-2.5,0.4-5.1,0.9-7.6,1.3s-4.8,0.8-7.2,1.1c-2.1,0.3-4.2,0.5-6.3,0.8c-3.8,0.5-7.6,0.9-11.4,1.3
	c-2.3,0.2-4.7,0.4-7,0.6c-2.5,0.2-5.1,0.5-7.6,0.8l-11.3,1.2c-3.1,0.3-6.2,0.6-9.3,0.9c-4.8,0.6-9.7,1.2-14.5,1.8
	c-3.6,0.5-7.2,0.9-10.8,1.4c-3.2,0.4-6.3,0.9-9.5,1.3c-2.9,0.3-5.8,0.6-8.7,0.8c-3.5,0.3-6.9,0.5-10.4,0.8c-3.2,0.3-6.5,0.4-9.8,0.9
	c-4.5,0.6-8.9,1.6-13.4,2.3c-2.1,0.4-4.3,0.5-6.4,0.9c-2.4,0.5-4.7,1.2-7.1,1.7c-0.7,0.1-1.4,0.2-2.1,0.1L12,283
	c-1.6-0.7-2.6-2.4-2.5-4.1c-0.1-3.8-0.3-7.7-0.4-11.5c0-1.2,0.4-2.4,0.4-3.6c0.1-4.8,0.3-9.6,0.3-14.3c0-3.9-0.2-7.8-0.2-11.6
	c0-1.9,0-3.9,0-5.8c-0.1-2.4-0.2-4.9-0.2-7.3c0-3.3,0-6.5,0-9.8c-0.1-4.7-0.1-9.4-0.3-14c-0.2-4.2-0.5-8.4-0.8-12.6
	c-0.2-3.4-0.3-6.8-0.6-10.1c-0.1-1.5-0.4-3-0.6-4.6c-0.1-1.1,0-2.2,0-3.3c0-0.6-0.2-1.3-0.2-1.9c-0.4-3.5-0.8-7-1-10.5
	c-0.2-2.4,0-4.8,0-7.1c0-3.4,0-6.7,0-10c0-2.5,0.2-4.9,0.2-7.4c0-6.1,0-12.2,0-18.2c0-3.9,0.1-7.9,0-11.8C6.1,99.7,5.8,96,5.7,92.2
	c-0.1-2.5,0-4.9-0.1-7.4c-0.2-4.7-0.5-9.4-0.8-14.2c-0.2-2.5-0.4-5-0.5-7.5c-0.2-3.7-0.3-7.3-0.6-11c-0.2-2.3-0.5-4.6-0.7-6.9
	s-0.2-4.5-0.4-6.7c-0.5-5-1-10-1.6-14.9c-0.3-1.3-0.3-2.5-0.4-3.8c-0.2-2.1-0.5-4.2-0.7-6.3c0-0.6,0-1.2,0.1-1.8
	c0.1-1.5,0.2-3,0.3-4.5C0.5,5.2,0.5,3,0.6,0.9c0-1,0.8-0.9,1.5-0.8c1.6,0.1,3.2,0.2,4.8,0.2c4.2,0.1,8.3,0.2,12.4,0.3
	c2.4,0.1,4.9,0.2,7.3,0.3c3.6,0.1,7.2,0.4,10.7,0.5S44.5,1.1,48,1.1c2.9,0,5.8,0.2,8.8,0.2c5,0,10,0,15,0c2.8,0,5.7,0.3,8.5,0.2
	s5.9-0.4,8.9-0.5s6,0,9,0c4-0.1,8-0.2,12-0.2c1.9,0,3.9,0.2,5.8,0.2c0.9,0,1.8-0.2,2.8-0.2c2.1,0,4.3,0.2,6.4,0.2
	c1.4,0,2.9-0.2,4.3-0.2c4.7,0,9.5,0,14.2-0.1c2,0,3.9,0,5.9,0c3.7,0.1,7.4,0.2,11.1,0.3s7.3,0.2,10.9,0.3c2,0.1,4,0.2,6,0.2
	c8.2,0,16.4,0,24.6,0c3,0,6,0.1,9.1,0.3c3.4,0.1,6.8,0.4,10.2,0.5c2.2,0.1,4.3,0.1,6.5,0.3s4.5,0.4,6.7,0.5c1.6,0,3.3-0.2,4.9-0.2
	c2.7,0.1,5.4,0.2,8.1,0.4c0.4,0,0.8,0.1,1.2,0.1c12.1,0,24.2,0,36.3,0c2.3,0,4.5-0.2,6.8-0.2c1.6,0,3.2,0.2,4.8,0.3
	c0.6,0,1.2,0,1.8,0c3.4,0.1,6.7,0.1,10.1,0.3c6.4,0.3,12.7,0.7,19.1,1.1c3.8,0.2,7.6,0.3,11.4,0.6c5.2,0.3,10.5,0.7,15.8,1.1
	c3.7,0.3,7.4,0.7,11.2,1.1c4.7,0.4,9.4,0.9,14.1,1.3c2.2,0.2,4.5,0.4,6.7,0.5c4.1,0.2,8.2,0.1,12.3,0.4c3.1,0.2,6.3,0.6,9.4,0.9
	c0.9,0.1,1.8,0.2,2.8,0.1c1.1-0.2,2.2,0.5,2.5,1.7c1,3.4,1.2,6.9,0.7,10.3c-0.2,1.9,0,3.9-0.1,5.8c0,1.5-0.2,3-0.2,4.5
	c-0.1,2.6-0.3,5.3-0.2,7.9c0.1,3.9,0.3,7.7,0.5,11.6c0.1,2.5,0,4.9,0.1,7.4c0.1,3.4,0.4,6.8,0.5,10.2c0.1,3.7,0.1,7.4,0.3,11.1
	c0.1,2.9,0.6,5.8,0.7,8.7c0.1,4,0.2,8,0,12c-0.1,2-0.4,4-0.8,6c-0.1,0.5-0.3,1-0.5,1.4l-0.5,0.1c-0.3-0.5-0.5-1-0.6-1.6
	c0-3.5,0-6.9,0-10.4c-0.1-5.2-0.3-10.4-0.5-15.6c-0.2-4.9-0.4-9.7-0.5-14.6c-0.1-4.4-0.1-8.8-0.3-13.2c-0.1-4.7-0.5-9.5-0.5-14.2
	c0-4.2,0.3-8.4,0.5-12.6c0.2-3.8,0.6-7.6,0.8-11.4c0.1-1.2-0.1-2.4-1.5-2.9c-0.5-0.2-1.1-0.3-1.7-0.3c-4.9-0.5-9.7-1.1-14.7-1.1
	c-5.4,0-10.8-0.4-16.1-0.8c-4.6-0.4-9.1-1.1-13.7-1.6c-2.5-0.3-5-0.4-7.5-0.6c-3-0.2-6-0.5-9.1-0.8c-0.4,0-0.7,0-1.1,0L329,7
	c-2.2-0.1-4.4-0.1-6.6-0.3c-2.8-0.2-5.6-0.5-8.4-0.8c-1.7-0.1-3.5-0.2-5.2-0.3c-4.4-0.1-8.8-0.2-13.1-0.3c-3.3-0.1-6.6-0.2-10-0.2
	c-4.3,0-8.6,0.2-12.9,0.2c-1.7,0-3.4-0.2-5-0.2c-3.6,0-7.2,0-10.9,0c-1.9,0-3.8,0-5.6,0c-4.5-0.1-9-0.2-13.5-0.3
	c-2.8-0.1-5.6-0.2-8.4-0.3c-3-0.1-6-0.1-9.1-0.3c-3.5-0.2-7.1-0.5-10.6-0.8c-0.7,0-1.4,0-2,0c-5-0.1-10-0.2-15-0.2
	c-1.7,0-3.4,0.2-5,0.2c-5.3,0-10.6-0.2-16-0.3c-7.6-0.2-15.3-0.3-22.9-0.5c-3.6-0.1-7.3-0.3-11-0.2c-7,0-13.9,0.2-20.9,0.2
	c-2,0-4-0.2-6-0.2c-3.4,0-6.7,0.2-10.1,0.2C96.5,2.9,92.2,2.9,87.9,3c-2.4,0.1-4.9,0.2-7.3,0.2c-3,0-6,0-9,0C61.1,3.2,50.5,3.1,40,3
	c-3.4,0-6.8-0.2-10.1-0.3l-8.4-0.3c-3.2-0.1-6.5-0.1-9.8-0.3C8.9,2,6.1,1.8,3.3,1.6c-0.2,0-0.4,0-0.6,0.1c0.6,3.8,0.2,7.5,0,11.2
	c0,0.6,0.1,1.2,0.2,1.8c0.2,3.3,0.3,6.6,0.6,10c0.4,4.1,0.9,8.2,1.3,12.3c0.2,2.7,0.2,5.3,0.3,8c0,0.4,0.2,0.8,0.2,1.3
	c0.3,2.4,0.6,4.8,0.8,7.2c0.2,2.6,0.4,5.3,0.6,7.9c0.1,1.8,0.1,3.7,0.2,5.5C7,69,7.3,71.1,7.4,73.2c0.1,1,0,2.1,0,3.1
	C7.6,82.3,8,88.4,8.2,94.4C8.2,96.6,8,98.8,8,101c0,1.1,0.1,2.1,0.2,3.2c0.1,1.6,0.2,3.3,0.2,4.9c0,7.2,0,14.4,0,21.6
	c0,1.5-0.2,2.9-0.2,4.4c0,1.6,0.3,3.3,0.2,4.9c-0.1,3.7-0.3,7.4-0.4,11.2c0,1.6,0.1,3.2,0.2,4.8c0.2,2.8,0.5,5.5,0.8,8.3
	c0.3,4,0.8,8.1,1,12.1c0.1,3,0.8,6,0.2,9c0,1.2,0.1,2.4,0.4,3.6c0.1,1.4,0.2,2.7,0.3,4.1c0.2,4.3,0.4,8.5,0.5,12.8
	c0.1,2.6,0,5.2,0,7.9c0.1,2.1,0.3,4.1,0.4,6.1c0,1-0.1,2.1-0.1,3.1c0,4.8-0.1,9.6,0,14.3c0,1.8,0.3,3.7,0.5,5.5
	c0,0.6-0.2,1.2-0.2,1.8c0.1,3,0.5,6.1,0.5,9.1c0,2.7-0.4,5.4-0.6,8.1c-0.1,1.2-0.2,2.3-0.1,3.5c0,1.7,0.2,3.4,0.2,5
	c0.1,3,0,6,0.2,8.9c0.2,1.1,0.5,2.2,1,3.3c1.2-0.5,2.4-1,3.6-1.3c1.6-0.4,3.3-0.6,4.9-0.8c2.2-0.4,4.4-0.8,6.6-1.1
	c1.6-0.3,3.2-0.5,4.8-0.7c2.7-0.4,5.4-1,8.1-1.3c2.9-0.3,5.9-0.5,8.8-0.7c4-0.3,8-0.6,11.9-0.9c1.8-0.1,3.6-0.1,5.4-0.3
	c2.7-0.3,5.5-0.9,8.2-1.2c1.4-0.2,2.9-0.2,4.3-0.4c2.3-0.3,4.5-0.6,6.8-0.9c2.6-0.3,5.1-0.7,7.7-1c3.2-0.4,6.5-0.7,9.7-1l9.8-1.1
	c3.1-0.4,6.2-0.7,9.3-1c2.2-0.2,4.4-0.3,6.6-0.6c3.3-0.3,6.6-0.7,10-1c2-0.2,4.1-0.4,6.1-0.6c3.2-0.3,6.5-0.7,9.7-1
	c3-0.4,6-0.7,9-1.1c1.6-0.2,3.2-0.6,4.9-0.9c3.6-0.5,7.3-1,10.9-1.5c2.7-0.3,5.3-0.6,8-0.9c4.5-0.5,8.9-1.1,13.4-1.5
	c2.5-0.3,5-0.3,7.5-0.6c3.4-0.3,6.9-0.8,10.3-1c3.2-0.3,6.5-0.4,9.7-0.6c1.5-0.1,3-0.4,4.4-0.5s3.1-0.3,4.7-0.5
	c2.4-0.3,4.8-0.7,7.1-1c1.7-0.2,3.5-0.4,5.2-0.6l8.8-1c1.8-0.2,3.5-0.4,5.2-0.6c3.4-0.4,6.7-0.7,10.1-1c3.9-0.4,7.8-0.7,11.7-1.1
	c3.3-0.3,6.6-0.5,9.9-0.8s6.5-0.7,9.8-1.1s6.6-0.9,9.9-1.3c2.3-0.3,4.6-0.4,6.9-0.6s4.7-0.1,7.1-0.3c3.1-0.3,6.1-0.9,9.2-1.2
	c2-0.2,4-0.3,5.9-0.6c3.3-0.6,6.7,0,10-0.4c2.4-0.3,5-0.2,7.3-0.7c3.1-0.7,6.1-0.3,9.1-0.5c2.4-0.1,4.8-0.2,7.2-0.3
	C380.1,243.1,381.6,243.2,382.8,243.3z M513.1,122.6c-0.2-0.8-0.4-1.5-0.8-2.2c-0.8-1.2-1.7-2.3-2.7-3.3c-2.5-2.4-5.1-4.7-7.7-6.9
	c-1.4-1.2-2.8-2.2-4.4-3.1c-1.5-0.8-3-1.4-4.5-2c-2.6-1-5.2-2.2-7.9-3s-5.3-1.1-7.9-1.7l-8.2-1.7c-0.2,0-0.5-0.2-0.6-0.1
	c-1.1,1-2,0-3-0.3c-1.1-0.4-2.2-0.6-3.3-0.8c-2.3-0.1-4.5,0.1-6.8,0.2c-1.8,0.1-3.7,0.3-5.5,0.7c-2.5,0.6-5,1.3-7.5,2.2
	c-3.8,1.5-7.6,3.2-11.4,4.9c-1.5,0.7-2.9,1.5-4.2,2.4c-1.2,0.8-2.3,1.7-3.4,2.7c-2.4,2-4.8,4-7,6.2c-3.7,3.6-7.1,7.5-10.5,11.4
	c-4.2,4.8-7.2,10.3-10.3,15.7c-1.4,2.9-2.6,5.9-3.3,9c-1.4,4.9-1.8,10-1.5,15.1c0.2,4.6,1.7,8.8,2.4,13.3c0.4,2.6,1.7,5,2.1,7.5
	c0.7,3.7,1.7,7.3,3,10.8c1.7,4.7,3.8,9.1,6.4,13.4c1.7,2.7,3.2,5.6,4.9,8.4c0.4,0.8,0.9,1.6,1.6,2.1c1.6,1.1,3.4,1.9,5.1,2.9
	c4.9,3.2,10.4,3.9,16,4.6c1.7,0.2,3.3,0.3,5,0.3c4.3,0.2,8.5,0.3,12.8,0.4c0.7,0,1.4-0.1,2.1-0.1c2.2-0.1,4.6-0.7,6.7-0.2
	c1.4,0.2,2.8,0.1,4.1-0.3c3.4-1,6.7-2.3,10-3.6c1.5-0.6,2.9-1.4,4.2-2.3c2-1.7,3.9-3.5,5.8-5.4c2.3-2.2,4.6-4.4,6.7-6.8
	c3.1-3.8,6-7.8,8.9-11.8c3.1-4.3,6.2-8.5,9.1-13c2-3.2,3.6-6.7,5.4-10c2.2-3.9,3.9-7.9,5.2-12.1c1.4-4.5,2.3-9.1,2.7-13.8
	c0.5-5.2,0.3-10.5-0.6-15.7c-0.7-4-1.5-8.1-3.8-11.6C515.9,123.8,515.5,121.5,513.1,122.6C513,122.6,513,122.6,513.1,122.6z
	 M282.4,302.3c-0.2,0.7,0.2,1.4,0.9,1.6c0.1,0,0.1,0,0.2,0c1.6,0.4,3.2,0.7,4.9,0.8c3.6-0.1,7.2-0.4,10.8-0.8c2.8-0.3,5.6-0.7,8.5-1
	c1.3-0.1,2.5-0.2,3.8-0.2c0.9,0.1,1.8,0.2,2.8,0.2c3.5-0.4,6.9-1,10.4-1.4c3.3-0.4,6.4-1.4,9.3-3c3.2-1.6,3.7-4.4,1.3-6.3
	c-1.5-1.2-3-2.5-5.2-2s-4.6,0.8-7,1.1c-1.2,0.2-2.5,0.2-3.7,0.3c-3.8,0.2-7.5,0.5-11.3,0.6c-3.1,0-6.1-0.1-9.2-0.4
	c-2.3-0.2-4.5-0.5-6.8-0.7c-0.6-0.1-1.2,0.1-1.7,0.4c-1.9,1.6-4.3,2.6-5.7,4.8C283.6,298.1,282.5,299.8,282.4,302.3z M330.7,288.1
	c-0.1-0.5-0.2-0.9-0.3-1.2c-0.8-2.5-1.7-5-2.5-7.5c-0.9-2.9-1.7-5.8-2.6-8.6c-0.1-0.4-0.5-0.7-0.9-0.9c-1.3-0.2-2.5-0.3-3.8-0.3
	c-3.7,0.2-7.4,1.2-10.8,2.8c-4.1,1.8-7.9,4.2-11.3,7.1c-2.5,2.3-4.3,5.4-5,8.8c0,0.2,0.4,0.6,0.6,0.7c1,0.1,2,0.1,3,0.2
	c1.9,0.1,3.8,0.3,5.7,0.4c1,0,2-0.1,3.1,0c1.2,0.1,2.4,0.4,3.7,0.4c2.3,0,4.7-0.1,7-0.2c1.1-0.1,2.3-0.1,3.4-0.3
	C323.5,289,327,288.6,330.7,288.1z M398.3,213.3c1-1.8,1.1-1.9,0.1-3.8c-0.3-0.4-0.7-0.8-1.2-0.8c-2.7-0.1-5.3,0.9-7.3,2.7
	c-2.8,2.4-5.6,4.9-8.1,7.5c-1.8,1.9-3.3,4.3-3.1,7.1c0.2,3.3,1,6.6,2.3,9.7c1,2.4,2.1,4.8,3.2,7.5c0.5-0.3,1.5-0.6,1.5-0.9
	c0-1.3,0.9-1.6,1.8-1.9c2.9-0.8,5.7-2.1,8.2-3.9c2.1-1.4,2.6-2.8,1.7-5.2c-0.7-1.8-1.1-3.8-1.4-5.7c-0.3-3.1,0.2-6.2,1.6-9
	c0.1-0.3,0.2-0.9,0.1-0.9c-1.2-0.7-0.4-1.6-0.4-2.4c0.1-0.8,0.3-1.7,0.5-2.5l0.6,0.1L398.3,213.3z M385.6,244.6
	c0.6,0.9,1.2,1.9,1.6,2.9c1.1,3.1,3.2,5.7,6.1,7.4c0.5,0.4,1.1,0.5,1.6,0.1c1.7-0.9,3.4-1.7,5.1-2.6c0.9-0.4,1.9-0.9,2.8-1.3
	c-0.4-0.4-0.8-0.8-0.8-1c0.1-1.8,0.4-3.6,0.9-5.4c0.8-2.9,2.2-5.5,4-7.9c0.2-0.4,0.2-0.8,0-1.2c-1.3-0.9-2.6-1.7-3.9-2.6
	c-0.1,0.2-0.3,0.4-0.4,0.7c-1.9,3.8-5,6.2-8.6,8c-1.5,0.7-3,1.5-4.4,2.4c-1,0.7-1.7,1-2.7,0.3C386.7,244.4,386.3,244.6,385.6,244.6z
	"/>
<path d="M223.8,268.7c-0.7,1.8-2.2,2-3.4,2.3c-2.6,0.6-5.2,0.9-7.8,1.4c-3.6,0.7-7.2,1.5-10.9,2.1c-3.3,0.6-6.6,1-9.9,1.7
	c-2.2,0.4-4.2,1.2-6.4,1.8c-4.8,1.4-9.6,2.6-14.3,4c-2.4,0.8-4.7,1.7-6.9,2.7c-0.7,0.3-1.3,0.9-1.5,1.7c-0.1,1.1,0.7,2.2,1.8,2.5
	c2,0.8,4.2,1,6.3,0.5c2.5-0.4,4.9-0.7,7.4-1.1c3.2-0.5,6.5-0.9,9.8-1.3c4.7-0.5,9.5-0.9,14.2-1.4c2.5-0.2,5-0.4,7.4-0.8
	c4.5-0.7,9-1.6,13.5-2.4c5.3-0.9,10.6-1.7,15.9-2.7c2.5-0.5,5-1.3,7.4-1.9c1.9-0.4,3.8-0.8,5.7-1.1c2.6-0.4,5.3-0.6,7.9-1.1
	c3.9-0.7,7.8-1.5,11.6-2.4s7.8-1.9,11.6-2.9c0.6-0.2,1.2-0.4,1.8-0.7v-0.5c-1.9-0.2-3.8-0.4-5.7-0.5s-4.1-0.1-6.1-0.2
	c-4-0.1-8-0.3-11.9-0.5c-3-0.1-6-0.2-9-0.2c-2.8,0-5.6,0.1-8.4,0.3c-0.8,0.2-1.6,0.6-2.2,1l-0.8-1.1c0.5-0.4,1.1-0.8,1.7-1.1
	c1.2-0.5,2.6-0.8,3.9-1c3-0.2,6.1-0.2,9.1-0.2c5.4,0,10.8,0.1,16.2,0.3c2.4,0.1,4.7,0.4,7,0.6c0.2,0,0.4,0,0.6,0
	c3.3-0.7,6.2,0.4,9,2.1c0.6,0.3,0.8,1,0.5,1.6c-0.2,0.3-0.5,0.6-0.8,0.6c-2.9,1.1-5.9,2.2-8.9,3c-4.2,1.2-8.4,2.2-12.7,3.1
	c-3.1,0.7-6.3,1-9.5,1.5c-2.4,0.4-4.8,0.7-7.1,1.2c-5.1,1-10.2,2.1-15.4,3.1c-4.8,0.9-9.5,1.6-14.3,2.5c-3,0.5-6,1.1-9,1.6
	c-2.8,0.5-5.6,0.9-8.4,1.3c-0.8,0.1-1.6,0-2.4,0c-5,0.4-10.1,0.8-15.1,1.4c-3,0.3-6,0.9-9,1.3c-2.1,0.3-4.2,0.4-6.3,0.6
	c-0.7,0.1-1.3,0.2-2,0.2c-3.1,0.5-6.2-1-7.7-3.6c-0.6-1.6,0-3.3,1.4-4.2c1.2-0.3,2.3-0.8,3.4-1.2c2.3-1.5,5-2,7.6-2.9
	c4.9-1.5,9.8-2.7,14.7-4c2.7-0.7,5.4-1.5,8.1-2.1s5.6-1.1,8.5-1.6c2.4-0.4,4.9-0.7,7.3-1.1c3.1-0.5,6.2-0.9,9.2-1.4
	c0.7-0.1,1.4-0.4,2.1-0.6C222.9,268.7,223.3,268.7,223.8,268.7z"/>
<path class="st0" d="M368.7,218.2c-0.8,0-1.5,0-2.2,0c-3.1-0.2-6.1-0.7-9.2-0.7c-2.8,0-5.6,0.6-8.4,0.9c-1.8,0.2-3.5,0.2-5.3,0.4
	c-3.3,0.3-6.6,0.8-10,1c-3.6,0.3-7.1,0.4-10.7,0.6c-4.9,0.1-9.7,0.7-14.4,1.8c-3,0.7-6,1-9,1.5c-1.5,0.3-2.9,0.5-4.4,0.5
	c-1.9,0-3.9-0.2-5.8-0.6c-1.6-0.4-2.2-2-2.4-3.6c-0.1-1.7-0.2-3.3-0.1-5c0.1-2.9,0.4-5.8,0.6-8.8c0.1-1.9,0.1-3.9,0.3-5.8
	c0.5-4.2,1.1-8.3,1.6-12.5c0.4-3.3,0.7-6.6,1.2-10c0.2-1.2,0.6-2.4,1.1-3.6c0.3-0.4,0.7-0.6,1.2-0.6c3.7,0.5,7.3-0.9,10.9-1.1
	c2.8-0.2,5.5-0.5,8.3-0.8c2-0.3,3.9-0.8,5.9-1.1c1.3-0.2,2.7-0.4,4-0.5c3.6-0.1,7.3-0.5,10.9-1.2c2.1-0.4,4.2-0.4,6.4-0.7
	c3.9-0.5,7.8-1,11.7-1.6c2.6-0.4,5.2-0.7,7.9-1.1l3.8-0.5c0.1,0,0.3,0,0.4,0c0.3,0.1,0.8,0.2,0.9,0.4c0.4,1.2,2.3,1.1,2.2,2.8
	c0.1,2.1,0.4,4.3,0.7,6.4c0.1,0.9,0,1.9,0,2.8c0.1,2.3,0.1,4.6,0.3,6.9s0.7,4.7,1.1,7c0.2,1.4,0.4,2.7,0.5,4.1
	c0.2,3.1,0.4,6.2,0.5,9.3c0,0.9-0.1,1.8,0,2.7c0.3,2.3,0.6,4.5,0.9,6.8c0.2,1.2,0.3,2.3,0.4,3.5c0,0.4-0.4,0.9-0.6,1.3L368.7,218.2z
	 M368.6,217.1c0-0.1,0-0.2,0-0.2c0-0.2-0.1-0.4-0.2-0.6c-1-3.3-1.4-6.8-1.2-10.3c0.1-1.1,0.1-2.2,0.1-3.3c-0.1-2.5-0.3-4.9-0.5-7.4
	c-0.1-1.8-0.3-3.7-0.6-5.5c-0.8-4-1.2-8.1-1.3-12.2c-0.1-2.3-0.5-4.5-0.8-6.8c-0.2-1.4-0.3-2.8-0.5-4c-1.8,0.2-3.7,0.3-5.5,0.5
	c-3.4,0.4-6.7,0.9-10.1,1.4c-2.8,0.4-5.6,0.7-8.5,1c-1.4,0.2-2.8,0.2-4.2,0.4c-2.8,0.4-5.6,1.1-8.4,1.5c-3.8,0.5-7.7,0.9-11.5,1.4
	c-3,0.4-6,0.7-9.1,1.1c-3.6,0.4-7.1,0.8-10.7,1.4c-0.7,0.1-1.9-0.2-2.1,1.2c-0.4,2.2-1.1,4.3-1.5,6.4c-0.5,2.4-0.7,4.8-1.1,7.1
	s-0.8,4.9-1.1,7.4c-0.3,3-0.4,6-0.5,8.9c-0.1,4.1-0.2,8.2-0.3,12.3c-0.1,1.5,0.9,2.8,2.3,3.1c0.9,0.2,1.9,0.3,2.9,0.3
	c1.9,0,3.8-0.1,5.7-0.4c2.6-0.4,5.2-1,7.8-1.5c2.2-0.5,4.4-1,6.7-1.3c3.8-0.4,7.5-0.4,11.3-0.6c1.9-0.1,3.9-0.1,5.8-0.3
	c1.3-0.1,2.5-0.2,3.8-0.4c2.2-0.3,4.5-0.7,6.8-0.9s4.3-0.1,6.5-0.3c1.7-0.1,3.4-0.6,5.1-0.7c2.4-0.2,4.7-0.3,7-0.3
	c0.8,0,1.6,0.1,2.4,0.3C364.8,216.2,366.7,216.7,368.6,217.1z"/>
<path class="st1" d="M88.9,173.9c1.9-0.2,2.5,0.4,2.2,2.3c-0.3,2.2-0.7,4.4-1,6.6c-0.2,1.8-0.4,3.7-0.6,5.5c-0.2,2,1.3,3.5,3.8,3.8
	c4.6,0.4,9.2,0.3,13.7-0.3c3.1-0.2,6.1-0.5,9.2-0.8c1.8-0.2,3.6-0.6,5.4-0.8l7.4-1l10-1.4c2.4-0.3,4.7-0.6,7.1-1
	c3.3-0.5,6.6-1.1,9.8-1.6c2.8-0.4,5.6-0.7,8.3-1.1c5-0.6,9.9-1.3,14.9-1.9c3.2-0.4,6.4-0.7,9.6-1.1c3.5-0.4,7.1-0.8,10.6-1.2
	c2-0.2,4.1-0.2,6.1-0.4c2.9-0.2,5.7-0.5,8.5-0.8c1,0,1.8-0.8,1.8-1.8c0-0.2,0-0.4-0.1-0.6c-0.9-4-2-8-2.8-12.1
	c-0.5-2.6-0.8-5.3-1.2-7.9s-0.7-5-1-7.6c-0.2-1.5-0.2-3.1-0.3-4.6c-0.3-4.3-1.2-8.6-2.7-12.6c-0.8-2.5-1.5-5.1-2-7.7
	c0-0.5,0.4-1,0.8-1.2c3.1-0.7,6.3-0.8,9.5-0.3c1.3,0.2,2.6,0.2,3.8,0.3c2.5,0.3,5.1,0.6,7.6,0.9c0.5,0,1,0.1,1.4,0.2
	c0.6,0.3,1.3,0.6,1.9,1c-0.3,0.4-0.6,0.8-1,1.2c-0.1,0.2-0.3,0.3-0.2,0.2c-2.1-0.6-4.3-1.2-6.5-1.5c-3.3-0.4-6.6-0.5-9.9-0.6
	c-1.5,0.1-3.1,0.2-4.6,0.5c-0.7,0.1-0.8,0.3-0.6,1c0.8,2.8,1.6,5.7,2.3,8.6s1.4,5.8,1.7,8.7c0.6,4.4,0.9,8.8,1.4,13.2
	c0.4,3.5,0.9,6.9,1.6,10.4c0.6,2.9,1.5,5.6,2.2,8.4c0.2,0.7,0.3,1.4,0.4,2.1c0.1,2.3-0.3,3.2-3,3.5c-3.5,0.3-7,0.6-10.5,0.8
	s-6.8,0.4-10.1,0.8c-4.8,0.5-9.6,1.2-14.3,1.8c-3.6,0.5-7.2,0.9-10.8,1.4s-7.2,1.1-10.8,1.6c-2.9,0.4-5.8,0.7-8.7,1.1
	c-3.3,0.5-6.6,1.1-10,1.6c-2.8,0.4-5.6,0.7-8.3,1.1s-5.4,0.8-8,1.2c-2.4,0.3-4.8,0.6-7.2,0.9c-2.7,0.4-5.5,0.7-8.2,1
	c-1.9,0.2-3.8,0.2-5.7,0.3c-1.5,0.2-3.1,0.2-4.6,0.2c-2.2-0.1-4.5-0.3-6.7-0.7c-3-0.6-3.4-2.9-3.1-5.5s0.7-4.9,1-7.4
	C88.7,178.3,88.7,176.2,88.9,173.9z"/>
<path class="st2" d="M198.1,59.1l-9.5,0.5c-2.7,0.1-5.4,0.3-8,0.5c-2.4,0.2-4.9,0.4-7.3,0.5c-1.6,0.1-3.1,0-4.7,0L153,60.8
	c-0.5,0-0.9,0.2-1.4,0.2c-1.5,0.2-2.9,0.4-4.4,0.5c-1.9,0.1-3.8,0.1-5.7,0.1c-1.1,0-2.3,0.2-3.4,0.2c-1.6,0.1-3.3,0.2-4.9,0.3
	c-4.6,0.3-9.1,0.5-13.7,0.8c-1.8,0.1-3.7,0.5-5.5,0.5c-1.8-0.1-3.7-0.2-5.5-0.5c-0.4-0.2-0.6-0.5-0.7-0.9c0.1-0.4,0.3-0.7,0.7-0.9
	c0.2-0.2,0.6,0,0.9,0c2.3,0,4.7,0.1,7,0c3.6-0.1,7.2-0.4,10.7-0.5c4.7-0.2,9.5-0.3,14.2-0.5c3.6-0.2,7.1-0.3,10.7-0.5
	c2.1-0.1,4.2-0.4,6.4-0.5c2.3-0.1,4.6,0,7,0s4.6-0.2,6.9-0.2c1.1,0,2.3,0,3.4,0c1.9-0.1,3.7-0.2,5.6-0.3l22.4-0.9
	c1.4,0,2.8-0.2,4.2-0.2c0.5,0.1,1,0.4,1.2,0.9c0.6,1.8,1.2,3.7,1.6,5.6c0.4,1.8,0.8,3.7,1,5.5c0.2,1.8-1.8,3.2-3.6,3.4
	c-3.9,0.5-7.6,0-11.4-0.5c-1.7-0.2-3.4-0.2-5.2-0.3c-3.5-0.3-7-0.7-10.5-1c-1.2-0.1-2.5-0.2-3.7-0.3c-3.4-0.1-6.8-0.2-10.2-0.3
	c-2-0.1-4-0.3-5.9-0.4c-1.1,0-2.3,0-3.4,0.2c-2.6,0.2-5.1,0.4-7.7,0.5c-1.9,0.1-3.7,0.2-5.6,0.3c-5.9,0.2-11.7,0.6-17.6,0.4
	c-3.4-0.1-6.9,0.3-10.2-1c-2.2-0.9-3.8-3-4-5.4c0-1,0.7-1.3,1.4-1.3s1.2,0.5,1.3,1.3c0.1,2.3,1.9,4.1,4.2,4.3
	c4.6,0.2,9.3,0.4,13.9,0.5c2.3,0,4.6-0.3,6.9-0.4c2.8-0.1,5.5-0.3,8.3-0.3c3.5-0.1,7-0.2,10.5-0.3c2.2-0.1,4.4-0.3,6.6-0.2
	c4.8,0.2,9.6,0.7,14.4,1c2.4,0.2,4.8,0.4,7.2,0.5c4.6,0.3,9.2,0.6,13.8,0.8c2.1,0.1,4.2,0.1,6.3,0c0.9,0.1,1.7-0.6,1.7-1.5
	c0-0.2,0-0.5-0.1-0.7c-0.7-2.9-1.4-5.8-2.2-8.7c-0.1-0.3-0.6-0.5-0.9-0.6C203.6,59.3,200.9,59.2,198.1,59.1z"/>
<path d="M142.7,50.1c-3.8-0.2-7.5-0.5-11.3-0.5c-4.1,0-8.2,0.1-12.2,0.2c-0.3,0-0.5,0-0.8,0.1c-1.3,0.3-2.2-0.3-2.2-1.7
	c0-1.1,0.2-2.3,0.2-3.4c0-1.9-0.9-2.8-2.7-2.8c-1.6,0-3.2,0.3-4.8,0.2c-0.6-0.1-1.2-0.5-1.6-1c-0.2-0.2-0.1-0.8-0.1-1.2
	c0.4,0,0.8,0,1.2,0s0.9,0.1,1.3,0.1c3.6,0,7.1-0.1,10.7,0c5.9,0.1,11.8,0.4,17.7,0.5c4.1,0.1,8.1,0,12.1,0c3.7,0,7.5,0.2,11.2,0.2
	c1.3,0,2.5,0,3.8,0l11.1,0.3l8.8,0.3c3.3,0.1,6.6,0.2,9.9,0.3c2.1,0,4.3,0,6.4,0c1.1,0,1.6,0.5,1.6,1.7c0,2.5-0.4,5-1.3,7.4
	c-0.2,0.9-1,1.6-2,1.7c-2.9,0.1-5.9,0.1-8.9,0.1c-1.3,0-2.6-0.2-4-0.3c-2.9-0.1-5.9-0.2-8.8-0.3c-4.1-0.1-8.2,0-12.3-0.3
	c-4.8-0.3-9.6-0.9-14.4-1.3c-0.6,0-1.2,0-1.7,0h-7.2V50.1z M118.7,42v2.4c-0.1,0.9-0.1,1.9,0,2.8c0,0.3,0.6,0.6,0.9,0.8s0.6,0,0.8,0
	c1.5,0.1,3.1,0.3,4.6,0.3c1.9,0,3.7-0.2,5.6-0.1c4.4,0.2,8.7,0.5,13.1,0.7c3.8,0.2,7.5,0.4,11.3,0.5c1.7,0.1,3.4,0.2,5,0.3
	c3.4,0.2,6.8,0.6,10.1,0.8c2.7,0.1,5.4,0,8.1,0c0.6,0,1.3,0.2,1.9,0.2c2.2-0.2,4.3-0.2,6.5-0.1c4,0.5,8,0.6,12,0.2
	c0.5-0.1,1-0.4,1.3-0.8c0.5-1.5,0.8-3.1,1-4.7c0-0.3-0.8-1-1.3-1.1c-3.8-0.4-7.6-0.6-11.3-0.8c-4.1-0.2-8.3-0.4-12.5-0.5
	c-4.7-0.1-9.4-0.1-14.1-0.1c-5,0-10-0.1-15-0.2c-6.4-0.1-12.8-0.4-19.2-0.5c-0.5,0-0.9,0.1-1.4,0.2c-0.8,0.2-1.6,0.2-2.5,0.3
	C122.1,42.2,120.3,42.1,118.7,42L118.7,42z"/>
<path class="st3" d="M196.5,196.7c0.9,1.3,1.2,2.9,0.7,4.4c-0.5,2-1.1,4-1.7,6l4.8-0.9c-0.6,2.2-0.6,2.2-3.4,2.4
	c-2,0.1-2,0.1-2.6,2.2c-0.3,0.6-0.7,1.1-1.1,1.6l-0.5-0.2c0-0.9,0.1-1.8,0.1-2.9c-0.6,0.1-1.3,0.2-1.9,0.3
	c-4.2,0.6-8.5,1.2-12.7,1.9c-4,0.6-8,1.5-12,2.1c-3.2,0.5-6.5,0.8-9.8,1.1c-3.9,0.4-7.8,0.9-11.6,1.3c-3.5,0.4-7,1-10.6,1.3
	c-1.4,0.1-2.9,0.1-4.3,0c-1-0.1-1.1-0.7-1-1.7c0.3-3.4,0.5-6.8,0.6-10.2c0-0.2-0.2-0.5-0.4-0.7c-0.4-0.5-1.1-1.4-1-1.5
	c0.5-0.7,1.2-1.3,2-1.6c2.1-0.4,4.3-0.6,6.5-0.9c1.8-0.3,3.6-0.6,5.4-0.9c2.4-0.4,4.8-0.6,7.2-1c2.9-0.4,5.7-0.8,8.6-1.2
	c2.6-0.3,5.1-0.7,7.7-1c2.8-0.4,5.6-0.7,8.4-1c1.9-0.2,3.8-0.4,5.8-0.6c2.5-0.3,5-0.7,7.6-1c1.1-0.1,2.2-0.3,3.3-0.3
	c2.2-0.1,4.3-0.2,6.5-0.3c1.1-0.1,2,0,2.3,1.4l-1.1,1.1c-2.3-1.3-4.6-0.9-6.9-0.7c-1.4,0.1-2.7,0.2-4.1,0.4c-2.5,0.3-4.9,0.7-7.4,1
	c-2.2,0.2-4.4,0.4-6.6,0.6c-2.8,0.3-5.6,0.7-8.3,1c-2.4,0.3-4.8,0.5-7.2,0.8c-3.1,0.4-6.2,0.9-9.3,1.4s-6.2,1.1-9.4,1.6l0.5,1
	c-2.4,2-5.2,0.9-8.1,1.3v4.5c0,1.4,0,2.7,0,4c-0.1,2.6-0.1,2.7,2.4,2.5c4.1-0.4,8.1-1,12.1-1.4c2.3-0.2,4.6-0.3,6.9-0.6
	c3.9-0.4,7.9-0.9,11.8-1.3c2.9-0.3,5.8-0.7,8.7-1.1c2.2-0.3,4.3-0.8,6.4-1.1c3.5-0.6,7-1.2,10.5-1.8c0.7-0.1,1.4-0.2,2.1-0.3
	c1.6-0.3,1.6-1.7,2-2.8c0.5-1.8,0.8-3.7,1.2-5.6c0.1-0.4,0.1-0.9,0-1.4C195.4,197.4,195.5,197.1,196.5,196.7z"/>
<path d="M80.5,107c0.8-0.2,1.6-0.4,2.4-0.5c0.5,0,1.4,0.1,1.5,0.4c0.2,0.7,0.2,1.5,0,2.2c0,0.2-1,0.2-1.6,0.2c-1,0-1.9-0.2-2.9-0.2
	c-1.5,0-3,0.2-4.5,0.2c-3.7,0.1-7.4,0.5-11.1,1.3c-2.4,0.5-4.9,0.8-7.5,0.8c-3,0.1-4.8-1.5-4.7-4.6c0-4,0.2-8,0.5-12
	c0.2-2.7,0.5-5.3,0.8-8c0.2-0.9,0.6-1.7,1.1-2.4c0.2-0.2,0.6-0.3,0.9-0.2c1.4,1.2,3,0.1,4.5,0.3c0.7,0,1.4-0.1,2.1-0.2
	c3.6,0,7.3,0,11,0c1.9,0,3.8-0.3,5.6-0.5c1-0.1,2.4,1.2,2.8,2.7c0.5,1.8,0.6,3.6,0.3,5.4c-0.2,1.5-0.3,3-0.3,4.5c-0.2,2-0.3,4-0.5,6
	C80.8,103.9,80.7,105.3,80.5,107z M64.8,108.5c-0.2-1-0.2-1.5-0.4-2c-0.2-0.5-0.4-1.1-0.5-1.7c-0.1-0.9-0.5-1.3-1.4-1.2
	c-1,0.1-1.9,0.2-2.9,0.2c-0.4,0-0.8-0.5-1.3-0.8c0.3-0.4,0.6-1.1,0.9-1.2c1.6-0.2,3.2-0.3,4.9-0.2c0.5,0,1.2,0.8,1.4,1.4
	c0.5,1.6,0.9,3.2,1.3,4.9c0.2,0,0.4,0,0.7,0c2.5-0.2,4.9-0.5,7.4-0.7s2.9-0.4,3.5-2.7c1.3-5.1,1.9-10.5,1.5-15.8
	c0.1-1.3-1-2.5-2.3-2.6c-0.1,0-0.3,0-0.4,0c-4.9,0-9.7,0-14.6,0c-0.5,0-1,0.1-1.6,0.2l-5.3,0.5c-0.4,0.4-0.6,0.9-0.7,1.5
	c-0.3,2.5-0.7,5-0.8,7.5c-0.2,3.2-0.3,6.5-0.3,9.7c0,2.7,0.6,3.2,2.3,3.5c-0.2-1.6-0.5-3.1-0.7-4.6c0-0.4,0.2-0.8,0.6-1.1
	c0.4-0.1,0.8,0,1,0.2c0.3,0.7,0.5,1.5,0.7,2.2c0.2,0.9,0.5,1.8,0.6,2.3c0.8-0.2,1.5-0.4,2.3-0.4C62.1,107.8,63.2,108.2,64.8,108.5
	L64.8,108.5z"/>
<path d="M80.5,127.4c2.3,0.4,4.6,0.6,6.8,1.4c1.9,0.8,3.8,1.8,4.1,4.5c0.1,1.4,1.3,2.9,2.4,3.9c1.6,1.6,1.9,3.6,2.6,5.5
	c0.7,2,0.9,4.1,0.5,6.2c-0.5,2.5-1.6,4.8-3.4,6.7c-2.5,2.8-5.7,4.9-9.3,6c-1.9,0.7-3.8,1.3-5.7,1.7c-1.7,0.1-3.4,0.1-5.1-0.2
	c-2.4-0.4-4.8-1.2-6.8-2.5c-3.9-2-6.6-5.9-6.9-10.4c-0.5-2.5-0.3-5,0.6-7.4c0.6-1.8,1.5-3.5,2.6-5c2.1-2.6,4.5-5,7.1-7.1
	C72.9,128.4,76.6,127.6,80.5,127.4z M85.4,130c-1.4-0.3-2.8-0.6-4.2-0.6c-4.3,0-8.5,1.4-11.9,4.1c-3.4,2.9-6.2,6.1-7.7,10.4
	c-1,3-0.8,6.2,0.5,9.1c0.6,1.5,1.2,3.3,2.3,4.3c3.4,2.7,7.3,4.6,11.8,4.4c2.3-0.2,4.5-0.6,6.7-1.3c3.5-1.1,6.6-3,9-5.7
	c2.1-2.1,3.2-5,3.1-8c-0.2-2.1-0.6-4.1-1.3-6.1c-0.9-2.6-2.4-5-4.5-6.9c-2.4-2.1-5-1.3-5.9,1.6c-0.2,0.5-0.5,1-0.8,1.5
	c-0.4-0.5-0.8-0.9-0.8-1.1C82.2,133.4,83.5,131.3,85.4,130L85.4,130z"/>
<path class="st3" d="M116.2,152.4c-1.3-0.3-2.3-1.3-2.5-2.6c-0.4-2.1-1.1-4.2-1.8-6.3c-0.4-1.3-1.4-1.5-3.4-1.2
	c-1.1,0.1-2.2,0-3.2-0.2c-0.3-0.1-0.6-0.6-0.8-1c0.5-0.3,1-0.9,1.6-1c1.2,0,2.3,0.1,3.5,0.3c0.6-1.6,1.4-1.9,2.6-0.9s2.3,0.2,3.3,0
	c4.2-0.8,8.4-1.7,12.6-2.5c2.8-0.6,5.6-1.2,8.5-1.7c3.2-0.6,6.5-1,9.7-1.5c2.4-0.4,4.8-0.7,7.2-1.1c3.8-0.7,7.6-1.3,11.4-2.1
	c1.8-0.4,3.7-1,5.4-1.6c0.8-0.4,1.8,0,2.2,0.9c0.1,0.2,0.1,0.4,0.1,0.6c0,1.2-0.1,2.3,0,3.5c0.1,1.8,0.3,3.5,0.5,5.2
	c0.1,0.5,0.2,0.9,0.4,1.4c0.4,1.1,0.1,1.5-1.1,1.6c-3.4,0.3-6.7,0.6-10.1,1c-4.9,0.6-9.8,1.4-14.7,2.2c-3.4,0.5-6.7,1.2-10.1,1.8
	c-2.2,0.4-4.5,0.5-6.8,0.9c-2.4,0.4-4.8,1-7.2,1.4c-1.2,0.2-2.4,0.4-3.6,0.7C118.7,150.6,117.1,150.9,116.2,152.4z M170.2,131
	c-0.8,0.2-1.2,0.3-1.7,0.4c-2.2,0.5-4.4,1-6.6,1.4c-3.4,0.5-6.9,0.9-10.3,1.4c-4.6,0.7-9.2,1.4-13.7,2.1c-4.2,0.7-8.3,1.4-12.5,2.2
	c-3.2,0.6-6.2,1.6-9.4,2.3c-1.1,0.2-2.2,0.4-3.3,0.6c1.2,2.3,2.2,4.6,3.1,7c0.5,1.7,1.2,1.2,2.3,0.9c1.8-0.5,3.7-0.9,5.6-1.2
	c5.7-0.9,11.4-1.8,17.1-2.7s11.3-1.8,16.9-2.7c4.1-0.6,8.3-1.3,12.4-1.8c1.2-0.2,1.4-0.7,1.2-1.7c-0.1-0.2-0.2-0.5-0.2-0.7
	C170.9,136.1,170.6,133.7,170.2,131L170.2,131z"/>
<path class="st3" d="M271.7,103.5l-1.6-0.4c0.1-0.5,0.1-1.2,0.4-1.4s1.5-0.6,1.6-0.4c0.8,0.9,1.4,2,1.8,3.1
	c1.1,3.7,2.1,7.4,2.9,11.1c0.6,2.9,0.5,5.8-0.3,8.6c-1,3.2-3.4,5.7-6.6,6.8c-3.1,1.2-6.2,2.2-9.5,2.8c-3.1,0.4-6.2,0.4-9.3,0.1
	c-2.9-0.3-5.7-1.2-8.1-2.8c-2.3-1.5-3.8-4-4.2-6.7c-0.8-4.7,1.6-8.6,3.5-12.6c1.6-3.4,3.9-6.5,6.6-9.1c2-1.7,4.1-3.2,6.4-4.6
	c2.1-1.4,4.3-2.5,7-1.8c0.9,0.2,1.8,0.7,2.5,1.2c2.5,2.1,3.6,5.3,2.8,8.4c-1.3-0.3-1.5-1.2-1.5-2.2c0.1-2.1-1-4.1-2.9-5.2
	c-1.4-0.9-3.2-0.9-4.8-0.2c-2.7,1.1-5.2,2.7-7.3,4.7c-3.1,2.6-5.5,5.8-7.1,9.5c-1,2.5-2.2,4.8-3.1,7.3c-1.4,4.6,1.1,9.5,5.8,11
	c0,0,0.1,0,0.1,0c2.7,0.8,5.6,1.3,8.4,1.5c5.8,0.2,11.6-1.3,16.5-4.5c2-1.3,3.3-3.5,3.5-5.9c0.8-6-0.9-11.6-2.8-17.1
	C272.3,104.4,272,103.9,271.7,103.5z"/>
<path d="M404.5,280.6c-0.6,4.1-1.2,8-1.6,11.9s-0.5,7.9-0.8,11.9s0.7,7.8,0.2,12.1c-1.3-1.2-2.1-2.9-2-4.8c0-4.7,0.1-9.3,0.3-14
	c0.1-2.6,0.6-5.2,0.9-7.8s0.8-5.4,1.3-8.5c-1.3,0.5-2.3,0.9-3.4,1.2c-2.6,0.8-5.2,1.5-7.8,2.3c-1.4,0.4-2.8,1-4.2,1.4
	c-3.6,0.9-7.2,1.7-10.8,2.6c-0.8,0.2-1.6,0-1.5-1c0-0.4,0.7-1,1.1-1.1c3.2-0.8,6.5-1.5,9.8-2.3c0.5-0.1,1-0.2,1.4-0.3
	c4.6-1.5,9.1-2.9,13.7-4.4c3.2-1.1,6.4-2.3,9.6-3.4c3.6-1.2,7.3-2.1,11-3.3c2.2-0.7,4.2-1.8,6.3-2.7c1.4-0.6,2.7-1.2,4.1-1.6
	c0.6-0.2,1.1-0.2,1.7-0.1c0.4,0.1,0.8,0.6,1.2,0.9c-0.4,0.4-0.7,1.1-1.1,1.1c-3.3,0.5-5.9,2.5-9,3.5c-3.8,1.3-7.6,2.6-11.4,3.8
	C410.5,278.9,407.5,279.7,404.5,280.6z"/>
<path class="st4" d="M129.2,25.6c-3.9,0.3-7.8,0.5-11.7,1c-1.8,0.2-3.6,1.1-5.4,1.5c-0.7,0-1.5-0.1-2.2-0.3c0.1-0.6,0.4-1.1,0.7-1.7
	c1-1.1,1.5-2.6,1.3-4.1c0-0.3-0.1-0.7,0.1-0.8c1-0.9,1.8-2.2,3.5-2.3c4.1-0.2,8.3-0.7,12.4-1c3.4-0.3,6.7-0.5,10.1-0.8
	c1.8-0.1,3.7-0.4,5.5-0.5s3.6-0.1,5.3-0.3c3.6-0.3,7.2-0.7,10.8-1c0.6,0,1.1,0.3,1.5,0.7c1.2,1.7,2.2,3.5,3.4,5.3
	c0.6,0.9,1.4,1.8,2.1,2.7c0.9,1.1,0.7,2.2-0.6,2.6c-1.6,0.4-3.2,0.6-4.8,0.6c-1.9,0-3.7-0.1-5.6-0.2c-1.3-0.1-2.7-0.4-4-0.5
	c-2.1-0.2-4.2-0.4-6.4-0.5c-3.6-0.1-7.1-0.2-10.6-0.3c-1.8,0-3.6,0-5.4,0L129.2,25.6z M113.6,26c0.6-0.2,1.1-0.4,1.7-0.5
	c3.8-0.4,7.7-1,11.6-1c5.4-0.2,10.8-0.2,16.2,0.2c4.4,0.4,8.9,0.4,13.3,0.6c1,0,2.1,0.2,3.2,0.2c1.6,0,3.2-0.2,5-0.3
	c-0.4-0.6-0.6-0.9-0.8-1.2c-1.1-1.5-2.5-2.9-3.3-4.6c-0.9-2-2.2-2-3.9-1.9c-5.3,0.3-10.6,0.5-15.9,0.8c-2.1,0.1-4.2,0.3-6.3,0.6
	c-2.8,0.3-5.6,0.7-8.4,1c-1.7,0.2-3.5,0.5-5.2,0.7c-2.1,0.2-4.1,0.5-6,0.7C115.2,22.8,113.7,24.1,113.6,26z"/>
<path class="st3" d="M103.8,89.6c1.3,0.2,1.6,1.2,1.8,2.2c0.3,1.8,0.6,3.7,0.8,5.5c0.2,1.5,0.4,3,0.6,4.6c0.1,1,0.2,1.9,0.2,2.9
	c0.2,3.5,0.3,7,0.6,10.5c0.2,2.6,0.3,5.2,0.6,7.8c0.1,0.6,0.5,1,1.1,1.2c1.5,0.1,2.9,0.1,4.4,0c2.3-0.2,4.5-0.6,6.8-1
	c1.2-0.2,2.5-0.4,3.8-0.6c1-0.2,1-1.1,0.8-1.7c-0.4-1.6-0.5-3.2-0.2-4.8c0.1-1.8,0-3.7,0-5.5c0.1-4.1,0.3-8.2,0.4-12.2
	c0.1-2.1,0-4.1,0.1-6.2c0-1-0.3-1.3-1.2-1.2c-2.9,0.3-5.8,0.5-8.7,0.8c-1.6,0.2-3.2,0.6-4.7,0.8c-0.4,0-0.9-0.2-1.3-0.4
	c0.1-1.7,1-2,2.3-2c2.1,0,4.1-0.4,6.2-0.5c2.5-0.2,4.9-0.4,7.4-0.5c1.2,0,1.7,1,1.6,2.8c-0.2,2.8-0.4,5.6-0.5,8.5
	c0,2,0.2,3.9,0.2,5.9c0,2.6-0.3,5.2-0.2,7.7s0.5,5.2,0.8,7.9c0.2,1.5,0,2.1-1.6,2.3c-4,0.6-8,1.4-12,1.8c-2.1,0.1-4.2,0-6.2-0.2
	c-1.2-0.1-1.7-1.2-1.7-2.9c0.1-2.4,0-4.8,0-7.2c0-1.8-0.1-3.5-0.2-5.3c-0.2-3.1-0.4-6.2-0.7-9.2s-0.8-6-1.3-9
	C103.4,91.3,102.6,90.4,103.8,89.6z"/>
<path class="st0" d="M217.2,105.5c0,0.9,0.1,1.8,0.3,2.6c0.2,0.8-0.1,1.5-0.9,1.6s-1-0.4-0.8-1.3c0-0.7-0.2-1.4-0.6-2
	c-0.1-0.2-0.6-0.3-1-0.2c-1.9,0.3-3.9,0.9-5.8,0.8c-3.2-0.1-6.4-0.4-9.3-2.3s-4.6-7.1-2.8-10.3c2.4-4.3,6.1-7.7,10.7-9.5
	c3-1.2,6.2-1.4,9.1,0.7c0.3,0.2,0.8,0.2,1.1,0.1c2.7-0.8,4.8,0.4,6.7,2c2.1,1.7,3.5,4.1,4.2,6.7c0.3,1.2,0.1,2.5-0.6,3.6
	c-1.6,2.3-3.7,4.2-6.2,5.5C220,104.1,218.6,104.8,217.2,105.5z M216.4,103.9c3.2-1,6.2-2.7,8.5-5.2c1.1-1.1,2-2.5,1.6-4.1
	c-0.5-2.3-1.8-4.3-3.7-5.7c-1.5-1.1-3.2-2.3-5.2-1.4l-0.6,1.7l-1.5-1.3l-4.2,2.4c-0.6-1.2,0.6-1.3,1.1-1.8s1.2-1.1,2.1-1.8
	c-2.4-1-5.1-1-7.5,0c-3.3,1.4-6.1,3.8-8,6.9c-2.2,3.5-2.4,6.4,0.5,9.3c2.8,2.8,6.6,2.6,10.1,2.6c1.4-0.1,2.9-0.3,4.3-0.6
	c-0.1-0.4-0.3-0.8-0.6-1.2c-1-1.1-2-2.3-3.1-3.3c-0.6-0.6-0.8-1.3-0.2-2s1.2-0.1,1.7,0.4C213.4,100.4,214.9,102.2,216.4,103.9z"/>
<path class="st2" d="M49,104.4c-0.2-2.1-0.5-4.3-0.7-6.5c-0.1-1.6,0.2-3.3,0.2-4.9c0-1.4-0.1-2.7-0.3-4.1c-0.2-0.4-0.6-0.7-1-0.8
	c-2.6,0.1-5.1,0.3-7.7,0.6c-1.2,0.1-2.4,0.3-3.7,0.4c-2.4,0.3-4.9,0.5-7.3,0.8c-1.2,0.2-2.3,0.4-3.6,0.6c0.1,0.8,0.2,1.6,0.3,2.3
	c0.5,4.4,0.5,8.9-0.2,13.3c-0.2,1.5-0.9,1.7-2.4,1.4c0.3-2,0.6-3.9,0.8-5.9s0.2-3.9,0.2-5.8c0-0.6,0-1.2-0.1-1.8
	c-0.3-1-0.6-2.1-1-3.1c-0.3-0.7-0.2-1,0.6-1.5c2.7-1.7,5.8-1.5,8.8-1.8c3.9-0.4,7.9-0.8,11.8-1.3c1.6-0.2,3.2-0.5,4.8-0.7
	c0.9-0.1,2,1.3,2,2.6c-0.1,3-0.5,6-0.4,9c0.2,2.6,0.6,5.1,1.3,7.6c0.3,1-0.3,2-1.3,2.3c-0.3,0.1-0.6,0.1-0.8,0
	c-3.8-0.4-7.7-0.7-11.5-1.1c-1.4-0.1-2.8-0.3-4.2-0.3c-1.6,0-3.2,0.1-4.8,0.3c-0.5,0.1-0.9,0.6-1.5,1.1c-0.4-0.3-0.7-0.7-0.9-1.2
	c-0.3-0.7,0-1.5,0.6-1.9c0.2-0.1,0.5-0.2,0.8-0.1c2.8,0,5.7,0.2,8.5,0.4c0.1,0,0.2,0.1,0.4,0.1L49,104.4z"/>
<path d="M33.2,19c1.6-1.2,5.2-0.3,6.4,0.9c1.9,1.7,3.5,3.9,4.5,6.3c0.6,1.6,1.6,3.1,2.3,4.7c1,2.4,1.2,5,0.5,7.5
	c-0.6,2.3-2.3,4-4.5,4.7c-1.9,0.6-3.9,1.2-5.9,1.6c-1.2,0.1-2.5,0-3.7-0.2c-2.6-0.3-5.2-0.7-7.8-1.3c-3.9-1.1-7.5-2.7-9.5-6.6
	c-1.8-3.6-1.2-7.1,0.4-10.4c1-2.2,2.3-4.2,3.9-6.1c1.5-1.5,3.6-2.4,5.4-3.6c0.5-0.3,1.1-0.5,1.7-0.7C29.6,14.6,32.1,15.9,33.2,19z
	 M35.1,43c1.8-0.2,3.5-0.6,5.3-1c1.4-0.4,2.7-1.1,3.6-2.1c2.8-3.4,1.9-7.1,0.2-10.6c-0.9-1.8-2.1-3.4-3.1-5.2
	c-1-2.2-3.3-3.6-5.7-3.4c-0.9,0.2-1.8,0.4-2.6,0.6c-0.4,0-0.9-0.1-1.3-0.3c0.2-0.3,0.2-0.7,0.5-0.9c0.6-0.4,0.7-0.8,0.2-1.3
	c-0.5-0.5-1-1-1.6-1.4c-2.2-1.4-4.1,0-5.8,0.9c-1.9,1-3.5,2.5-4.7,4.3c-2.2,3.2-4,6.5-3.8,10.5c0.1,2.2,1.2,4.3,3.1,5.5
	C23.8,41.8,29,42.5,35.1,43z"/>
<path class="st2" d="M142.1,89.2c-0.4-0.4-1.5-1-1.4-1.2c0.2-0.8,0.8-1.5,1.5-2c2.9-1.7,6-1.7,9.2-1.1c1.3,0.2,2.3,1.4,2.1,2.7
	c0,0,0,0.1,0,0.1c-0.2,2.6-0.4,5.2-0.5,7.8c-0.1,3.2-0.5,6.6-0.1,9.8s-0.1,6.5,1.5,9.6c0.3,0.5,0,1.3-0.1,2
	c-2.2,0.1-4.2,0.2-6.2,0.4c-2.9,0.3-5.8,0.7-8.6,0.9c-1.6,0.1-3.2,0-4.7-0.3c-0.4-0.1-0.9-1.1-1-1.8c-0.1-2.4,0.2-4.7,1.1-6.9
	c0.3-1.3,0.5-2.5,0.5-3.8c0.2-2.7,0.3-5.5,0.6-8.2c0.2-2.1,0-4.3-0.6-6.3c-0.1-0.5,0.3-1.1,0.5-1.7c0.4,0.3,1,0.5,1.2,0.9
	c0.4,0.6,0.6,1.4,0.6,2.1c0,3.2-0.1,6.5-0.3,9.7c-0.1,1.6-0.2,3.2-0.5,4.8c-0.3,2.2-0.8,4.3-1.1,6.4c-0.1,0.2-0.1,0.5-0.2,0.8
	c-0.2,2.3,0,2.6,2.3,2.5c2.5-0.1,5-0.4,7.6-0.5c1.3-0.1,2.6,0,3.9,0c0.7,0,1.5-0.1,2.2-0.3c0.4-0.3,0.6-0.8,0.5-1.3
	c-0.5-4.1-0.7-8.2-0.5-12.4c0-2.7,0.3-5.4,0.4-8.1c0.1-1.3,0.1-2.7,0.1-4c0-2.8-0.3-2.9-3-3.4c-1.7-0.2-3.5,0-5.1,0.7
	C143.3,87.4,142.9,88.4,142.1,89.2z"/>
<path class="st1" d="M78.1,201.8c-0.2,0.7-0.3,1-0.4,1.4c-0.3,0.8-0.8,1-1.7,0.6c-0.8-0.3-1.7-0.5-2.6-0.6c-1.6-0.1-3.3-0.2-4.9-0.3
	c-0.7,0.1-1.4-0.5-1.5-1.2c0-0.1,0-0.3,0-0.4c0.1-1.9,0-3.9-0.1-5.8s-0.3-3.6-0.4-5.4c-0.1-1.4,0-2.9-0.1-4.3c0-0.9-0.2-1.8-0.2-2.8
	c-0.1-1.5-0.2-3.1-0.3-4.6c0-2.1,0.5-2.5,2.6-2.6c1.2,0,2.4-0.3,3.7-0.4c1.7-0.2,3.5-0.3,5.3-0.2c1.9,0.2,2.5,1.2,2.7,3.7
	c0.2,4.1,0.3,8.2,0.3,12.3c0,2-0.4,3.9-0.5,5.9c0,1,0.1,2,0.2,3c0.2,1.2,0.4,2.3,0.5,3.5c0,0.4-0.4,0.7-0.7,1.1
	c-0.3-0.2-0.8-0.4-0.9-0.7c-0.4-1.2-0.7-2.4-0.7-3.7c0-2.7,0.4-5.5,0.4-8.2c0-2.9-0.2-5.8-0.3-8.8c-0.1-1.5-0.2-2.9-0.4-4.3
	c-0.1-1.3-1.3-2.3-2.7-2.2c-0.1,0-0.3,0-0.4,0.1c-1.8,0.3-3.6,0.5-5.3,0.8c-0.4,0.1-0.9,0.6-0.9,0.9c-0.1,3,0,6-0.1,9
	c-0.1,0.6-0.2,1.3-0.2,1.9c0.3,3.2,0.7,6.4,1,9.6c0,0.3-0.1,0.7,0,0.9s0.6,0.9,0.9,0.9c1.9,0.2,3.9,0.2,5.8,0.3
	C76.8,201.5,77.4,201.6,78.1,201.8z"/>
<path d="M176.8,114.2c-0.1-1.8-0.3-3.4-0.3-5c0-4.7,0.4-9.3,1.3-13.9c0.3-1.8,0.4-3.6,0.2-5.4c-0.2-0.6-0.6-1.2-1.2-1.4
	c-3.5-0.9-7.2,0-9.9,2.4c-0.5,0.4-1,1.2-1.6,0.3c-0.1-0.5,0.1-1.1,0.4-1.5c3.3-2.8,7-4.1,11.3-3.2c2.2,0.5,3,2,2.7,4.3
	c-0.5,4.3-1,8.6-1.3,13c-0.1,2.8-0.1,5.6,0,8.3c0,0.6,0.6,1.3,0.8,1.9c0.4,1.1,0.1,1.7-1,1.6c-3.1-0.2-6.1-0.4-9.2-0.8
	c-1.6-0.2-3.1-0.4-4.6-0.8c-2.7-0.7-3.9-2.7-3.4-5.5s0.9-5.5,1.3-8.3c0.4-2.2,0.6-4.4,0.8-6.7c-0.1-1.4-0.3-2.8-0.8-4.1
	c-0.2-0.7-0.4-1.4,0.4-1.6c0.7-0.2,1.4,0.1,1.7,0.8c0,0.1,0.1,0.2,0.1,0.4c0.3,2.1,0.3,4.1,0.2,6.2c-0.3,3.7-0.9,7.4-1.3,11.1
	c-0.1,1.4-0.1,2.9,0,4.3c0,1.3,1,1.7,2.1,2c1.6,0.4,3.1,0.8,4.7,1C172.3,114,174.5,114,176.8,114.2z"/>
<path class="st2" d="M334.7,27.5c1-0.2,1.9,0.7,2.1,1.9c0.5,3.2-0.5,6.2-1.1,9.3c-0.3,1.5-0.4,3-0.5,4.6c-0.1,0.8,0.4,1.6,1.2,1.7
	c0.1,0,0.1,0,0.2,0c1.9,0.1,3.8,0,5.6,0c0.9,0,1.8-0.2,2.6-0.2c2.3-0.1,4.6-0.2,6.9-0.3c6.2,0,12.4,0.1,18.6,0
	c4.6,0,9.3-0.1,13.9-0.4c3.1-0.3,6.1-0.7,9.2-1.3c0.8-0.2,1.6-0.6,2.2-1.1c1.4-1,1.7-1,2.5,0.7c-2.1,1.7-4.7,2.6-7.4,2.6
	c-3.7,0.1-7.3,0.6-11,0.7c-3.9,0.1-7.8,0-11.8,0c-5.8,0-11.5-0.1-17.3,0c-4.6,0.2-9.1,0.7-13.7,1c-1.8,0.3-3.4-1-3.6-2.7
	c0-0.3,0-0.6,0-0.9c0.2-2.3,0.6-4.6,1.1-6.9C335.3,32,335.6,31.7,334.7,27.5z"/>
<path d="M72.1,42.6c-4,0.1-7.9-1.3-10.8-4.1c-3.1-2.5-4-6.7-2.3-10.2c0.8-1.9,1.9-3.6,3.2-5.2c1.3-1.1,2.8-2.1,4.4-2.7
	c0.9-0.4,1.8-0.6,2.7-0.9c2.2-0.7,4.2,0.1,6.1,0.9c1.3,0.5,2.5,1.4,3.8,2c0.2,0.1,0.5,0.1,0.8,0.1c2-0.4,3.5,0.7,4.7,2
	c1.9,2,3.1,4.6,3.3,7.4c0.1,3-1.4,5.9-4,7.5C80.4,41.6,76.3,42.7,72.1,42.6z M77.2,25.9L77,25.5c0.1-0.2,0.2-0.5,0.3-0.7
	c1-1.5,0.9-1.7-0.8-2.4c-4.1-1.9-8.8-1.3-12.4,1.4c-2,1.8-3.4,4.2-3.9,6.8c-0.5,2.5-0.2,5.1,1.9,6.8c3.4,2.9,7.9,4.2,12.4,3.6
	c4.3-0.6,8.3-1.8,10.8-5.7c0.7-1.3,1.1-2.8,1-4.2c-0.1-2.3-1.5-4-3-5.7c-1.3-1.1-3.2-1.2-4.7-0.3C78.3,25.4,77.7,25.7,77.2,25.9z"/>
<path d="M30.4,226.2c-3.4,0.5-6.4-1.1-8.5-3.8c-1.8-2.2-2.4-5.2-1.5-8c0.4-1.9,1.3-3.7,2.5-5.2c2-2.2,4.1-4.2,6.2-6.2
	c0.4-0.4,0.9-0.9,1.4-1.2c2.8-2,7.7-1.1,9.4,1.7c2,3.2,4.4,6.2,6.4,9.4c3.1,4.9,0.3,8.5-3.7,10.7C38.8,225.4,34.6,226.4,30.4,226.2z
	 M30.7,225.2l0.1-0.2c0.5-0.1,0.9-0.2,1.4-0.3c3.6,0,7.1-1,10.1-2.9c2.8-1.9,4.3-3.7,2.9-7.3c-0.7-1.8-1.6-3.5-2.7-5
	c-1.5-2-2.6-4.5-5.2-5.6c-0.2-0.1-0.2-0.4-0.3-0.5c-0.5-0.4-1-0.7-1.6-0.9c-2.4-0.5-4.1,0.9-5.8,2.2c-1.5,1.3-3,2.7-4.4,4.2
	c-2.5,2.5-3.7,6-3.2,9.5c0.1,2,1.2,3.7,2.9,4.8C26.8,224,28.8,224.7,30.7,225.2z"/>
<path class="st2" d="M388.8,66l1.7,0.5c-0.3,0.9-0.6,1.7-1,2.7l-1.2-0.5l-1.4,4.2l-0.5-0.1c-1-1.5,0.3-3.1,0.1-4.8
	c-2,0.2-3.9,0.3-5.8,0.6c-3.2,0.5-6.4,1.1-9.6,1.6c-4.7,0.7-9.4,1.3-14.1,1.9c-4.2,0.5-8.5,0.8-12.7,1.4c-2.8,0.3-5.5,0.9-8.3,1.3
	s-5.6,0.8-8.5,1.1c-2.3,0.3-4.5,0.7-6.8,0.8c-3.2,0.1-4.2-2.2-3.7-4.8c0.2-1.5,0.5-3,0.7-4.5c0-0.3,0.1-0.7,0.2-1
	c0.2-0.2,0.4-0.5,0.6-0.7c0.2,0.2,0.7,0.5,0.7,0.8c0,1.6-0.1,3.1-0.3,4.7c-0.2,1.2-0.8,2.3,0.3,3.2s2.4,0.8,3.6,0.6
	c2.5-0.3,5-0.7,7.5-1c2.2-0.3,4.4-0.6,6.6-0.9c1.6-0.2,3.3-0.3,5-0.5c3-0.4,6-0.9,9-1.3c1.5-0.2,3.1-0.2,4.6-0.3
	c2.6-0.3,5.2-0.6,7.8-1s5.3-0.7,7.9-1.2s5-1,7.5-1.4c1.9-0.3,3.8-0.5,5.7-0.8c1-0.1,2.2,0,2.3-1.6c0-0.1,0.6-0.4,0.8-0.3
	C388.1,65.1,388.5,65.5,388.8,66z"/>
<path d="M108.2,204.5l-1.7,1.6c-0.2-0.2-0.3-0.3-0.4-0.4c-0.3-1.1-0.8-2.4,0.3-3c0.7-0.4,2,0,3,0.3c2.1,1,3.8,2.7,4.8,4.8
	c1.2,2.1,2.2,4.2,2.9,6.5c1.2,3.7-0.6,6.9-3.7,8.7c-2.2,1.3-4.5,2.3-6.9,3c-4.6,1.3-9.2,1.1-13.3-1.7c-4.7-3.2-5.2-8.3-2.3-13.2
	c1.7-2.9,7.7-4.6,10.6-3.6c1.3,0.5,2.7,0.8,3.4,2.1c0.2,0.3,0,0.9,0,1.3c-0.4,0-0.9,0.1-1.1-0.1c-2.2-2.3-4.8-2.1-7.5-1.4
	c-3.5,1-6,5.5-5.3,8.9c0.4,2.3,1.9,4.2,4.1,5.2c4.1,1.9,8.8,2,13,0.2c1.7-0.7,3.3-1.4,4.8-2.3c1.7-0.9,2.9-2.5,3.1-4.4
	c0.1-1.7-0.2-3.4-0.8-5c-0.5-1.6-1.2-3-2.3-4.3C111.4,206.4,110.1,204.6,108.2,204.5z"/>
<path d="M264.2,23.1c-0.4-0.6-0.7-1.1-0.9-1.7c-0.1-0.3,0-0.6,0.3-0.9c0.3-0.1,0.6-0.1,0.9,0c0.4,0.3,0.8,0.6,1.1,1.1
	c1.5,3.4,3.9,6,6.3,8.7c1.7,1.8,3.2,3.7,4.8,5.6c0,0.1,0.1,0.2,0.1,0.2c0.6,0.6,2,1.2,1.2,2s-2.2,0.8-3.4,1c-1.6,0.2-3.2,0-4.9,0.1
	c-2,0.1-3.9,0.2-5.8,0.6c-2.8,0.4-5.6,1.1-8.2,2.2c-1.6,0.6-2.6,2.3-2.2,4c0.1,0.4-0.1,0.8-0.4,1.1c-0.4,0.3-0.9,0.3-1.4,0.2
	c-0.3-0.2-0.4-0.9-0.4-1.4c0.1-0.9,0.2-1.8,0.4-2.7c0.1-0.4,0.2-0.8,0.4-1.1c1.7-2.5,3.5-4.9,5.1-7.4c1.9-3.1,3.7-6.2,5.5-9.4
	C263.2,24.5,263.7,23.8,264.2,23.1z M255.7,39.9c6.5-2.1,12.8-2.5,19.4-3.3L265,24.5L255.7,39.9z"/>
<path class="st1" d="M394.7,41.5c-0.3-0.7-0.5-1.5-0.6-2.2c-0.2-3.7,0.2-7.5,1.3-11.1c0-0.3,0-0.6,0-0.9c-1.4-0.1-2.7-0.1-4-0.2
	c-0.9,0-1.7,0-2.5,0c-4.3-0.1-8.5-0.1-12.8-0.3s-8.7-0.5-13-0.6c-2.8-0.1-5.5,0.1-8.3,0.1c-1.8,0-3.6,0-5.4,0
	c-2.8,0-5.7,0.1-8.5,0.5c-1.2,0.1-2.5-0.1-3.6-0.5c-0.5-0.2-0.9-0.7-0.9-1.3c0-0.6,0.6-0.8,1.4-0.6c2.2,0.3,4.5,0.3,6.8,0.4
	c1.5,0.1,3.1,0.2,4.6,0.2c0.7,0,1.3,0,2,0c2-0.1,4-0.2,6-0.2c1.5,0,3.1,0.2,4.6,0.2c3.6,0.1,7.1,0.2,10.7,0.3
	c2.3,0.1,4.6,0.2,6.9,0.3c2.1,0.1,4.2,0.2,6.3,0.2c3,0,5.9,0,8.9,0c0.6-0.1,1.2-0.2,1.7-0.4c0.1,0,0.2-0.1,0.2-0.1
	c1.3,1,2.7,0.1,4.1,0.3c0.4,0.2,0.6,0.5,0.7,0.9c-0.2,0.4-0.5,0.7-0.9,0.8c-0.5,0.1-1.1,0.1-1.6,0c-1.2-0.2-1.7,0.4-1.9,1.4
	c-0.4,2.8-0.8,5.6-1.2,8.5c-0.2,1.4-0.3,2.8-0.4,4.2L394.7,41.5z"/>
<path d="M42.9,151c-1.2-1.6-4.5-2.2-6.5-1.3c-2.2,0.9-4.1,2.4-5.5,4.2c-1.7,1.9-2.7,4.3-3.1,6.8c-0.4,3.5,1.2,6.2,5.5,7
	c4.1,0.9,8.4-0.6,11-3.9c1.2-1.2,1.6-2.9,1-4.4c-0.5-1.9-1.6-3.7-3.1-5c-1.5-1.2-2.1-1.3-3.6-0.1c-0.3,0.2-0.5,0.6-0.8,0.7
	c-0.3,0.1-0.6,0.1-0.9-0.1c-0.2-0.3-0.2-0.6-0.1-0.9c1.6-2.9,3.7-4,6.6-1c1.8,1.7,3,3.9,3.7,6.2c0.6,2,0,4.1-1.5,5.6
	c-2.8,2.9-6,4.7-10.1,4.6c-3.2,0-6.2-1.3-8.2-3.8c-1.4-1.7-1.9-3.9-1.3-6c0.8-3.2,2.1-6.2,4.9-8.3c1-0.8,1.8-1.7,2.9-2.4
	c2.1-1.5,4.8-1.9,7.3-1.1c0.9,0.4,1.7,0.9,2.4,1.6C44.2,150.2,43.8,150.7,42.9,151z"/>
<path d="M24,188.9c-0.1-3.2,1.5-5.8,3.3-8.3c1-1.3,2.2-2.5,3.5-3.6c1.1-1.1,2.8-1.3,4.2-0.5c1.2,0.7,2.7,1.1,4.1,1.2
	c2.2-0.1,3.5,1.9,4.7,3.6c2.3,3.4,1.8,6.9,0,10.3c-1,1.6-2.5,2.9-4.2,3.7c-3.3,1.9-6.8,2.7-10.5,1.4S24.1,192.7,24,188.9z
	 M40.5,182.5c-1.2,0.4-1.5-0.2-1.9-0.9s-0.8-1.5-1.9-0.9c-0.7,0.4-1.2-0.2-1-0.9c0.3-1.1-0.3-1.3-1.2-1.4c-2.4-0.3-4,1.2-5.2,2.8
	c-2,2.3-3.2,5.2-3.3,8.3c0,3.6,1.9,6.2,5.4,6.3c3.7,0.2,7.3-1.2,9.9-3.9c0.9-0.9,1.5-2,1.9-3.2c0.9-2.8,0.2-5.8-1.8-7.9
	c-0.6-0.5-1.2-0.9-1.8-1.2L40.5,182.5z"/>
<path d="M111.6,157.4c1.4,0.8,1.9,0.4,2.5-0.5c0.6-0.5,1.4-0.8,2.2-0.8c2.4,0.1,4.7,0.4,7.1,0.6c0.6,0.1,1.1,0.2,1.7,0.2
	c1.4,0,2,0.8,1.7,2.2c-0.4,1.4-0.1,2.9,0.7,4.1c0.4,0.4,0.4,1,0,1.4c-0.2,0.2-0.4,0.3-0.6,0.3c-0.9,0.3-1.9,0.4-2.8,0.5
	c-2.7,0.1-5.3,0.2-8,0.3c-0.2,0-0.4,0-0.6,0.1c-0.7,0.7-1.9,0.8-2.7,0.2c-0.3-0.2-0.9,0.1-1.3,0.1c-0.6-0.1-1.4-0.1-1.7-0.4
	c-0.6-0.7,0.2-0.9,0.7-1.2c0.9-0.6,1.4-2.6,1.2-3.6C111.5,159.7,111.5,158.6,111.6,157.4z M124,163c-0.3-2.4-0.3-2.4-2.4-2.9
	c-0.5-0.1-1-0.3-1.5-0.5c-2.3-0.7-5,0.7-5.2,3.1c0,0.3,0,0.5,0.2,0.7c1,0,2.3,0.2,3-0.3c1-0.9,2.3-1.1,3.5-0.7
	C122.4,162.7,123.2,162.9,124,163z"/>
<path class="st0" d="M39,70.2l-3.1-2.7c-0.9-0.7-1.7-1.5-2.6-2.1c-1.7-1.3-3.3-2.6-5-3.8c-0.9-0.6-1.5-0.5-2,0.5
	c-1,2.4-2.1,4.7-3.2,7c-0.5,1-1.1,2-1.6,3c-0.3,0.8-0.4,1.5-0.6,2.3L19.2,73c1.3-2.8,2.6-5.4,3.9-8c0.8-1.7,1.4-3.5,2.3-5.2
	c1-1.9,1.8-2,3.4-0.6c3.2,2.7,6.3,5.4,9.4,8.1c1.3,1.1,2.6,2.1,3.9,3.2c0.3,0.3,0.9,0.7,0.8,1c-0.2,0.5-0.5,0.8-1,1
	C41,72.8,40,72.9,39,72.8c-3.5-0.4-7.1-0.2-10.6,0.5c-1.3,0.2-2.7,0.3-4.1,0.4c-0.8,0.1-1.6-0.5-1.6-1.3c0,0,0,0,0,0
	c0-0.9,0.8-1,1.6-1.1c3.9-0.1,7.7-0.4,11.5-0.6c0.9,0,1.8,0,2.7,0L39,70.2z"/>
<path class="st1" d="M319,63.7c1.4,0,2.8,0,4.2,0c2.4-0.1,4.9-0.2,7.3-0.3c1.7-0.1,3.4-0.2,5-0.2c1.2,0,2.4,0.2,3.6,0.2
	c7.4,0,14.7,0,22.1,0c4.1,0,8.2-0.2,12.3-0.2c2,0,4,0,5.9,0c2.9-0.1,5.7-0.3,8.6-0.5c0.3,0,0.6-0.1,0.8,0c0.4,0.3,0.7,0.6,1,1
	c-0.4,0.2-0.7,0.5-1,0.6c-2.4,0.1-4.7,0.3-7,0.3s-4.4-0.3-6.7-0.2c-3.2,0.1-6.3,0.3-9.5,0.5c-1.3,0.1-2.6,0-3.9,0
	c-9.6,0-19.3,0-28.9,0c-4.1,0-8.2,0.3-12.3,0.5C319.3,65.4,318.6,65.1,319,63.7z"/>
<path d="M264.8,62.2c-1.2-0.4-2-1.6-1.9-2.8c-0.1-0.8-0.6-1.5-1.2-2.1c-2.6-2.1-5.3-4.1-7.9-6.2c-0.4-0.4-0.7-1-0.9-1.5l0.4-0.5
	c0.8,0.2,1.6,0.5,2.3,0.9c2.8,2.2,5.6,4.5,8.6,7l7.1-9.5c-0.9-0.1-1.8-0.2-2.7-0.2c-3.5,0.2-7.1,0.5-10.6,0.8
	c-0.8,0.2-1.6,0.2-2.5,0.2c-0.6-0.2-1.2-0.6-1.5-1.2c-0.1-0.1,0.5-1,0.8-1c4.9-0.2,9.8-0.3,14.6-0.3c1.9,0,3.7,0.1,5.6,0.3
	c0.5,0.1,0.9,0.8,1.4,1.2c-0.5,0.3-1.1,1-1.4,0.9c-2-0.6-2.5,0.8-3.4,2c-1.9,2.8-3.9,5.5-5.8,8.3c-0.5,0.7-1.4,1.5-0.4,2.5
	C265.4,61.1,264.9,61.8,264.8,62.2z"/>
<path class="st0" d="M264,108.6c-0.6-0.2-1.1-0.5-1.6-0.9c-1-1.1-2.6-1.5-4.1-1c-4.4,1.3-6.7,4.4-8,8.6c-0.5,1.7-0.7,3.5-0.5,5.3
	c0.2,1.5,1.2,2.7,2.5,3.3c2.6,1.7,6,1.9,8.8,0.6c1.7-0.7,3.3-1.5,5-2.1c2.3-0.8,3.1-3.6,2.6-5.5c-0.7-2.6-1.9-5-4.5-6.3
	c-0.9-0.4-2-0.5-3-0.3c-0.3,0-0.7-0.1-1-0.2c0.2-0.3,0.4-0.8,0.7-0.9c1.5-0.6,3.2-0.4,4.5,0.6c2.8,2.1,4.5,5.2,4.7,8.7
	c0.1,1.6-0.6,3.2-1.9,4.1c-2.9,2.3-6.4,3.7-10.1,3.9c-1.8,0.2-3.6,0-5.3-0.7c-2.8-1.1-4.5-3.8-4.5-6.8c-0.1-3,0.8-5.9,2.4-8.4
	c1.9-2.7,4.5-4.8,7.6-5.9c1.3-0.5,3.8,0.4,4.8,1.8c0.4,0.5,0.7,1.1,1,1.7L264,108.6z"/>
<path class="st0" d="M338.8,106c0.4,0,0.9-0.1,1.1,0.1c1.4,1.5,3.1,1.2,4.8,1.2c2.1,0,4.3,0.2,6.4,0.2c3.2,0,6.4-0.1,9.6-0.3
	c2.6-0.1,5.3-0.4,7.9-0.5c3.5-0.1,7,0,10.5,0c2.3,0,4.6-0.2,6.9-0.2c0.9,0,1.8,0.2,2.8,0.2c1.4,0.1,2.9,0,4.3,0.1
	c0.6,0.1,1.1,0.5,1.4,1c0.3,0.9-0.6,1-1.2,1.3c-1.6,0.7-2.8-0.5-4.2-0.6c-0.4,0-0.9-0.2-1.3-0.2c-7.7,0-15.3-0.1-23,0
	c-7.1,0.1-14.1,0.4-21.2,0.5c-1.3,0-2.5-0.2-3.7-0.6c-0.8-0.1-1.4-0.8-1.3-1.6C338.6,106.4,338.6,106.2,338.8,106z"/>
<path d="M298.2,90.6c0.2,0.4,0.3,0.7,0.3,1.1c0,0.4-0.1,0.8-0.2,1.2c-0.4-0.2-1.1-0.3-1.3-0.7c-0.6-1.2-1.3-2.4-2-3.5
	c-2-2.3-3.6-5-6.4-6.6c-0.8-0.4-1.2-1.4-2.3-1.6c-0.2,0-0.5-1-0.3-1.3c0.4-0.3,0.9-0.5,1.4-0.4c1.6,0.2,3.3,0.6,5,0.8v-2.1
	c0.5,0.1,1.1,0.3,1.6,0.6c2.5,2.4,5.6,1.2,8.4,1.1c0.5,0,1.1,0.1,1.6,0.2c-0.2,0.5-0.3,1.1-0.3,1.7c0.1,1.7-2,1.5-2.3,2.9
	s-1,2.5-1.4,3.8c-0.2,0.8-0.3,1.7-0.4,2.6L298.2,90.6c-1.6-3,1.1-5.2,1.6-7.7c-2.8-1.2-5.9-1.6-9-1.2c0.5,0.4,1,0.8,1.5,1.3
	C294.3,85.5,296.2,88,298.2,90.6z"/>
<path d="M239.6,59.5l-3.9-0.3c0.3,1,0.5,1.8,0.9,2.6c0.3,0.5,0.1,1.2-0.4,1.5c-0.1,0-0.2,0.1-0.3,0.1c-0.9,0.5-1-0.4-1.3-0.9
	c-0.1-0.3-0.2-0.7-0.3-1c-0.8-2.5-1.1-2.4-3.8-2.4c-1.9,0-4.1,0.4-5.9-0.9c-1,1.5-1.4,3.5-3.9,4.2c0.1-0.7,0.3-1.4,0.6-2.1
	c1.4-2.7,3-5.4,4.4-8.1c1-2,1.8-4.2,2.8-6.3c0.2-0.5,0.8-0.7,1.3-0.5c0.2,0.1,0.3,0.2,0.4,0.4c1,1.1,1.7,2.4,2.4,3.7
	c0.8,2.1,1.5,4.3,2,6.5c0.3,1.1,1.2,1.9,2.4,2c0.9,0.3,1.8,0.6,2.7,1L239.6,59.5z M229.4,48.4c-0.1,0.4-0.2,0.7-0.4,1.1
	c-1,2-2.1,4-3.1,6c-0.3,0.5-0.4,1.1,0.3,1.2c2.3,0.3,4.6,0.5,7,0.7C232.1,54.3,231.7,51.1,229.4,48.4z"/>
<path d="M358.6,145c-4.8,0.1-6.3-4.1-4.6-7.6c1-2.2,2.6-4.1,4.7-5.4c1.3-0.8,2.7-1.6,4.4-0.7c0.2,0.1,0.7-0.1,1-0.3
	c1.8-0.8,3.6-1.7,5.6-0.9c0.7,0.2,1.3,0.7,1.7,1.2c2.2,3.5,1,7.1-1.7,9.5c-2.5,2.2-5.8,3.1-9.1,3.7C360,144.7,359.3,144.8,358.6,145
	z M361.1,133.1c-2.9,0.8-5.1,3.1-5.8,5.9c-0.2,0.8-0.1,1.6,0.2,2.3c0.8,1.9,2.6,2,4.2,1.8c1.7-0.2,3.4-0.7,5-1.3
	c2.1-0.8,4.3-1.6,5.4-3.7c0.9-1.7,1.4-3.5,0.4-5.4c-0.8-1.5-2.1-1.5-3.4-1.3c-1,0.2-1.9,0.6-2.7,1.1c-0.3,0.2,0,1.2,0,1.8
	c-0.1,0.5-0.1,0.9-0.3,1.3h-0.4c0-0.2-0.1-0.4-0.2-0.6c-0.7-2-0.9-2.1-2.5-0.5c-0.4,0.4-0.8,0.7-1.3,1l-0.3-0.4L361.1,133.1z"/>
<path d="M32.4,130.5c0.7-0.8,1.9-1,2.9-0.6c1.8,0.7,3.9,0.8,5.8,1.3c1.8,0.4,3.6,0.1,5.2-0.8c0.3-0.2,0.6-0.6,0.6-1
	c-0.2-2.1-0.5-4.1-0.8-6.1c-0.1-0.8-0.3-1.5-0.6-2.3c-0.3-0.4-0.8-0.7-1.3-0.8c-1.8-0.1-3.7,0-5.5,0s-3.5,0-5.2,0
	c-0.9,0-1.5-0.2-1.5-1.2s0.7-0.9,1.4-0.9h8.7c1.1,0,2.2,0,3.4,0s2,0.6,2.3,2.6c0.5,3.1,0.8,6.2,1.2,9.3c0.2,1.1-0.5,2.2-1.6,2.4
	c-3.2,1-6.6,1.1-9.9,0.1c-0.8-0.2-1.7-0.4-2.5-0.7C34,131.4,33.2,131,32.4,130.5z"/>
<path class="st3" d="M313.2,144.9c-1,0.2-2,0.4-3,0.5c-2.3,0.2-6.2,3.3-6.3,5.7c0,0.7,0.2,1.3,0.7,1.8c1.8,1.7,4.2,1.7,6.4,1.8
	c2,0,4-0.2,6-0.4c0.4,0,0.9,0.1,1.3,0.2c0.4-0.4,0.8-0.9,1.4-1.6c-1.3-0.3-2.4-0.5-3.6-0.8c-0.6-0.1-1.3-0.3-1.9-0.6
	c-0.4-0.3-0.7-0.7-1-1.1c0.5-0.2,1.2-0.8,1.6-0.6c2,0.8,4.1,1.4,6.3,1.6c0.5,0.1,1,0.5,0.9,1.1c0,0.2-0.1,0.3-0.2,0.5
	c-0.5,0.7-1.1,1.3-1.7,2c-0.3,0.3-0.6,0.7-0.8,1.2c-0.6,1.6-0.1,2.4,1.5,3c0.7,0.3,1.4,0.7,2,1.2c-2.9,0.6-6.5-0.7-5.8-4.7
	c-1.3,0.2-2.6,0.5-4,0.6c-3.5,0.3-6.9,0.1-9.9-1.9c-2.1-1.4-2.1-3-0.6-5.4c1.2-2,3-3.5,5.2-4.3C309.6,144,311.4,143.7,313.2,144.9z"
	/>
<path d="M286.7,75.4c2.4-7.4,6.3-15.9,7.4-16.4c0.4,0.6,0.8,1.1,1.3,1.6c2.6,2.6,4,6,5.7,9.2c0.9,1.7,1.6,3.5,2,5.4
	c0.1,0.6-0.6,1.4-0.9,2c-0.4-0.1-0.5-0.1-0.5-0.2c-0.7-2-2.4-2-4.1-2c-2-0.1-4.1-0.2-6.1-0.2c-0.9,0-1.7,0.1-2.5,0.2
	C288.6,76.3,288.2,76.4,286.7,75.4z M294.1,61.5l-5,12c1.9-0.7,4-0.8,6.1-0.5c1.9,0.4,3.9,0.7,6.1,1
	C299.6,69.5,297.2,65.2,294.1,61.5L294.1,61.5z"/>
<path class="st1" d="M174.4,234H189l0.1,0.5c-4.7,0.6-9.4,1.5-14.4,1.4c0.3,1.6,0.8,3.1,0.9,4.7c0,0.7-0.2,1.5-0.4,2.2
	c-0.5-0.1-1.2-0.1-1.5-0.4c-0.3-0.5-0.5-1-0.6-1.6c-0.6-3.5-1.1-7.1-1.7-10.6c-0.1-0.4-0.7-0.6-1.2-1c-0.1-1.5,1.4-1.6,2.4-1.8
	c2.3-0.5,4.6-0.7,7-0.8c1.4,0.1,2.8,0.3,4.2,0.8c0.9,0.2,1.7,0.5,2.8,0.9l-1,1.6c-2.5-1.8-5.1-1.6-7.8-1.3c-1.1,0.1-2.1,0.5-3.2,0.7
	c-0.9,0.1-1.1,0.3-0.8,1.3C174.1,231.6,174.3,232.8,174.4,234z"/>
<path class="st1" d="M292.7,130.7c1.9,1.1,3.3,0.1,4.7-0.2c2.8-0.6,5.5-1.4,8.3-2.1c0.3-0.1,0.7,0.2,1,0.3c-0.2,0.3-0.3,0.8-0.6,0.9
	c-1.3,0.4-2.7,0.6-4,1c-2.3,0.6-4.5,1.4-6.8,2c-1,0.2-2,0.2-3-0.1c-0.9-0.1-1.5-0.9-1.4-1.7c0-0.4,0.2-0.7,0.4-0.9
	c1.5-2,3.3-3.9,4.8-5.9c1.4-1.8,2.6-3.7,3.5-5.8c1.2-2.8,0.6-3.4-2.5-4.4c-2.2-0.5-4.5-0.4-6.7,0.3c-0.8,0.2-1.4,1.2-2.1,1.9
	c-0.7-0.4-0.9-1.2-0.5-1.9c0.2-0.3,0.4-0.5,0.7-0.6c2.1-1.2,4.6-1.8,7-1.7c1.4-0.1,2.8,0.2,4.1,0.8c2.4,1.4,3.1,3.3,1.7,5.8
	c-1.5,2.8-3.4,5.3-5.2,8C295.1,127.9,293.9,129.2,292.7,130.7z"/>
<path class="st1" d="M62,250.6c0.8-1.6,2.3-2.8,4-3.2c1.8-0.4,3.5,0.7,3.9,2.5c0.1,0.3,0.1,0.6,0.1,1c0,2.2-1.3,4.1-3.3,5
	c-1.9,0.8-3.8,1-5.5-0.5c-1.5-1.1-2.3-3-2-4.8c0.2-1.1,0.3-2.2,0.5-3.4c0.5-2.5,2.2-4.4,3.4-6.6c0.2-0.3,0.4-0.6,0.6-0.9
	c0.3-0.6,1-1,1.7-0.7c0.1,0,0.2,0.1,0.2,0.1c0.6,0.4,0.8,1.1,0.4,1.7c-0.1,0.1-0.2,0.2-0.3,0.3c-1.8,2-3.5,4.1-3.9,6.9
	c-0.3,2-0.6,4,1,5.7c1.1,1.1,4,0.6,4.6-0.8c0.3-0.6,0.5-1.2,0.6-1.8c0.1-0.8-0.5-1.5-1.3-1.6c-0.3,0-0.6,0-0.9,0.2
	c-0.6,0.3-1.1,0.7-1.6,1.1C63.3,251.7,62.9,251.7,62,250.6z"/>
<path d="M385.9,99.2c-0.5,0.6-0.8,1.2-1,1.1c-0.5-0.1-1.1-0.3-1.5-0.6c-0.4-0.2-0.7-0.6-1.1-0.7c-4.2-0.4-8.5-0.8-12.8-1
	c-2.1-0.1-4.2-0.1-6.3-0.1c-3.8,0-7.5-0.1-11.2,0c-4.3,0.2-8.6,0.7-12.9,1c-1.9,0.1-3.8,0.2-5.7,0.3c-1,0.1-2,0.1-3,0
	c-0.3,0-0.5-0.6-0.8-0.9c0.4-0.3,0.8-0.5,1.2-0.6c1.7-0.1,3.3,0,5-0.1c1.2-0.1,2.4-0.2,3.6-0.3c3-0.3,6-0.6,9.1-0.8
	c2.9-0.1,5.7,0,8.6,0c2.4,0,4.7-0.1,7.1,0c2.6,0.1,5.2,0.4,7.8,0.5c1.8,0.1,3.5,0,5.3,0.1c2.3,0.2,4.6,0.4,6.9,0.8
	C384.7,98.2,385.1,98.7,385.9,99.2z"/>
<path class="st1" d="M382.7,123.5l-1.3-0.2c-3.2-0.5-6.4-1.1-9.6-1.4c-3-0.3-6-0.3-9-0.3s-6.1-0.1-9.1,0c-1.8,0-3.6,0.4-5.4,0.5
	c-1.2,0.1-2.3,0-3.5,0c-2.3,0.1-4.7,0.2-7,0.2c-0.6,0-1.1-0.1-1.7-0.3c-0.3-0.2-0.4-0.7-0.6-1.1c0.3-0.2,0.6-0.5,0.9-0.5
	c3.8,0,7.6,0.1,11.4,0c3.2-0.1,6.5-0.4,9.7-0.5c4.9-0.1,9.7-0.3,14.5,0.1c3.3,0.2,6.7,0.4,9.8,2c0.4,0.3,0.8,0.6,1.2,0.9
	L382.7,123.5z"/>
<path class="st0" d="M262,70.7c3.8-0.2,7.3,2.2,8.5,5.7c1.2,3.1,0.7,5-2.8,6.8c-3.7,2-9.5,0.3-10.6-4.5c-0.7-2.2-0.2-4.6,1.3-6.3
	C259.5,71.2,260.6,70.5,262,70.7z M266,73.7c-0.1,0.7-0.2,1.5-0.4,2.2c-0.1,0.3-0.6,0.5-1,0.7c-0.1-0.4-0.1-0.7-0.2-1.1
	c-0.2-0.7-0.3-1.7-0.8-2c-0.7-0.5-2-0.9-2.6-0.5c-2.2,1.2-2.5,5.1-1.3,6.9c1.3,2.1,3.3,2.7,5.7,2.4c3.6-0.5,5-3.1,3.2-6.1
	C267.9,75.1,267,74.2,266,73.7z"/>
<path d="M55.8,68.3c-0.1,0.4-0.3,0.8-0.5,1.3c-0.1,0.5-0.4,0.9-0.7,1.3c-0.2,0.1-0.9-0.1-1.1-0.4c-0.3-0.4-0.4-1-0.4-1.5
	c0.3-0.7,0.6-1.5,1-2.1c1.2-2.4,2.5-4.9,3.7-7.4c0.5-1,1-1.2,1.9-0.4c0.1,0.1,0.2,0.3,0.4,0.4c2.1,0.5,2.6,2.6,3.9,3.9
	c1.3,1.3,2.5,2.3,3.7,3.5s1,2.1-0.6,2.8c-2,1-3.9,0-5.9-0.2c-1-0.1-2.1,0-3-0.2C57.3,69.1,56.5,68.7,55.8,68.3z M56.7,66.6l9,1.7
	l0.2-0.4l-6.4-6.6L56.7,66.6z"/>
<path d="M372.5,82c-0.4,0.2-0.8,0.5-1.2,0.5c-4-0.2-7.9-0.5-11.9-0.8c-0.3,0-0.5,0-0.8,0c-7.1,0-14.3-0.2-21.3,1
	c-4.3,0.8-8.7,1.4-13,2.1c-0.4,0-0.8-0.3-1.1-0.4c0.3-0.3,0.5-0.8,0.9-0.8c4-0.8,8-1.4,12-2.2c4.3-0.8,8.7-1.1,13-1.1
	c3.3,0,6.6,0,9.9,0c2.8,0,5.5,0.1,8.2,0.3c1.7,0.1,3.5,0.4,5.2,0.7L372.5,82z"/>
<path d="M83.8,251.8c0.6-2.4,1.1-5.1,1.8-7.7c0.5-1.8,1.2-3.5,1.7-5.3c0.2-0.7,0.2-1.4-0.9-1c-2.9,0.9-5.8,1.7-8.7,2.4
	c-0.8,0.1-1.7,0.1-2.5-0.1c-0.3-0.1-0.7-1-0.6-1.1c0.3-0.4,0.8-0.7,1.3-0.9c1.7-0.3,3.5-0.4,5.2-0.8c2.2-0.5,4.3-1.2,6.4-1.6
	c0.8,0,1.5,0.3,2,0.8c0.3,0.6,0.4,1.2,0.2,1.9c-1.1,4-2.4,7.9-3.4,11.9c-0.3,1.3,0,2.8-0.1,4.1c-0.1,0.5-0.3,0.9-0.5,1.3
	c-0.4-0.3-1.1-0.5-1.3-0.9C84.2,253.8,84,252.8,83.8,251.8z"/>
<path d="M144.4,159.6c-1.1-2.6-4-3.9-6.7-3.1c-2,0.4-1.9,0.5-2.2,2.6c-0.2,0.9-0.6,1.8-1.1,2.6c-0.4,0.2-0.9,0.2-1.3,0
	c-0.3-0.4-0.4-0.9-0.2-1.3c1.3-1.6,1.2-3.1,0.1-5.2c1.2-0.3,2.4-0.7,3.5-0.9c1.6-0.3,3.1-0.4,4.7-0.5c0.7,0,1.4,0.2,1.9,0.7
	c1.4,1.3,2.7,2.8,4,4.2c0.8,0.9,0.7,1.8-0.5,2.3c-0.6,0.3-1.3,0.6-1.9,0.8c-2.4,0.3-4.9,0.6-7.3,0.8c-0.7,0.1-2-1.7-1.7-2.2
	c0.3-0.3,0.6-0.4,1-0.4c1.5,0,3,0.2,4.5,0.2C142.2,160,143.3,159.8,144.4,159.6z"/>
<path class="st2" d="M235.4,161c-2.4,0.1-4.4,0.2-6.3,0.2c-1.7,0-2.9-1.7-3-4c0-0.8,0-1.5,0-2.3c-0.1-2.5-0.2-5-0.3-7.6
	c0.1-0.4,0.2-0.8,0.4-1.1c0.4,0.2,0.9,0.2,1.1,0.5c0.3,0.5,0.4,1,0.4,1.5c0,2.5,0,5.1,0,7.6c0,0.6,0.1,1.1,0.3,1.7
	c0.6,2,1.1,2.2,3.2,2c0.7-0.1,1.4-0.1,2.1-0.1s1.3-0.1,2.2-0.2c0.1-1.3,0.1-2.6,0-3.9c-0.1-1.4-0.5-2.8-0.7-4.2
	c0-0.4,0.4-1.1,0.6-1.1c0.4,0,1.1,0.3,1.2,0.6c0.3,1.5,0.6,3.1,0.8,4.6c0.1,1.1,0.1,2.1,0.2,3.2c0,0.6,0.1,1.2,0.1,1.8
	c0,1.6-0.2,3.1-0.2,4.6c0,0.3,0.2,0.5,0.4,0.6c0.6,0.3,0.9,0.7,0.2,1.2s-1.2,1.1-1.8,0.2c-0.4-0.7-0.7-1.6-0.8-2.4
	C235.3,163.3,235.3,162.2,235.4,161z"/>
<path d="M151.5,233.4c-0.4,0.1-0.8,0.2-1.2,0.2c-3.4,0.4-6.6,1.8-9.2,4.1c-1.4,1.1-2.7,2.3-3.9,3.6c-1.2,1.3-2,3-1.3,4.8
	s2.6,2.1,4.3,2.3c4.2,0.4,8.3,0.2,12.4-0.8c1-0.2,2.1-0.3,3.1-0.2c-0.4,0.3-0.7,0.5-1.1,0.8c-3.2,1.1-6.6,1.8-10,1.9
	c-1.9,0.1-3.8,0.1-5.6,0c-2.7,0-4.9-1.9-5.4-4.6c-0.1-1,0.1-1.9,0.6-2.8c1.8-3.1,4.4-5.6,7.6-7.2c2.2-1.1,4.5-2.1,6.8-3
	C149.5,232.1,150.8,232.4,151.5,233.4z"/>
<path d="M61.8,215.5c1-1.5,2.8-2.1,4.5-1.5c2.6,0.8,5,2,6.4,4.5c0.5,0.8,0.5,1.8-0.1,2.5c-1.1,1.9-3,2.8-4.8,3.8
	c-1.3,0.6-2.6,1.1-3.9,1.5c-2.9,0.7-6-0.3-8-2.6c-0.7-1-0.3-4.6,0.6-5.8c0.8-1,3.6-1.4,4.9-0.8c0.2,0.1,0.3,0.3,0.5,0.5
	c-0.3,0.2-0.5,0.5-0.8,0.5c-1.2,0.1-2.3,0.3-3,1.4c-0.9,1.2-0.7,2.9,0.4,3.9c1.2,1.4,3.2,1.9,4.9,1.2c2.5-0.8,5.1-1.4,7-3.4
	c1.2-1.4,1.3-2.2-0.2-3.3c-1.2-0.9-2.4-2.1-4.1-2.2c-0.7,0-1.4,0-2,0S62.7,215.6,61.8,215.5z"/>
<path d="M119,115.6l-2.9-5l-0.7,0.2c-0.3,2-0.7,4-1,6c-0.1,0.6,0.1,1.3-0.9,1.3s-1.1-0.6-1-1.3c0.2-2,0.6-4,1.2-5.9
	c0.6-1.5,0.3-3.2-0.7-4.4c-1.5-2.4-2-5.1-2.7-7.7c-0.1-0.4,0.4-1,0.6-1.5c0.5,0.4,1.2,0.7,1.4,1.2c0.3,0.8,0.2,1.8,0.4,2.6
	c0.6,1.8,1.2,3.6,1.9,5.3l0.5-0.1c0.3-1.6,0.5-3.1,0.8-4.7c0.1-0.5,0.3-0.9,0.6-1.3c0.3-0.2,0.6-0.4,1-0.3c0.2,0,0.4,0.5,0.5,0.8
	c0.1,0.3,0.1,0.7,0,1c-0.5,2-1,4-1.5,6c0,0.5,0.1,1.1,0.4,1.5c1,1.4,2,2.7,3,4.1S120.6,115.5,119,115.6z"/>
<path d="M367.5,151c2.1-0.5,2.8-0.2,3.3,1.1c0.6,1.5,0.3,4.1-1.4,4.8c-3.8,1.7-7.6,1.9-11.2-0.4c-1.5-0.9-2.2-3.6-2-5.4
	c0.3-2.3,1.3-4.1,3.4-4.8c1.2-0.3,2.6-0.3,3.8,0c0.9,0.2,1.7,0.7,2.4,1.3C367,148.4,367.7,149.7,367.5,151z M367.5,151
	c-1.3-1-2.4-1.9-3.6-2.7c-1.6-1.1-3.7-0.7-4.8,0.9c0,0,0,0.1-0.1,0.1c-1.4,2.1-1.2,5,0.7,5.9c2.7,1.5,6,1.5,8.8,0.2
	c1.1-0.5,1-1.6,1.1-2.5c0-0.2-0.7-0.8-1.1-0.8s-1,0.3-1.5,0.4s-0.8,0.2-1.3,0.2c0.3-0.4,0.5-0.9,0.8-1.3
	C366.9,151.3,367.2,151.1,367.5,151L367.5,151z"/>
<path class="st0" d="M143.7,107.9c-2.1,0-3.9-1.9-3.8-3.4c0.1-2.5,0.8-4.9,2-7.1c1.1-1.9,1.9-2,3.9-2.2c2.6-0.4,3.1,1.7,3.9,3
	c0.6,1.3,0.9,2.7,0.9,4.2c0.1,2.2-1.8,3.2-3.2,4.1C146.1,107.1,144.9,107.6,143.7,107.9z M142,103.1c0,2.5,0.6,3.2,2.1,2.9
	c1.7-0.3,3.3-1.3,4.4-2.7c1.4-1.7-0.1-5.3-1.7-5.9c-0.7-0.4-1.6-0.3-2.2,0.3C143.1,99.1,142.2,101.1,142,103.1z"/>
<path d="M163.6,153.6c-0.4,1.7-0.4,3.3-1.2,4.5c-0.4,0.7-1.9,1-3,1.1c-1.2,0.1-2.5,0-3.7-0.1c-0.7-0.2-1.4,0.2-1.7,0.9
	c-0.4,0.9-1.1,0.4-1.5,0.1s-0.8-0.7-0.2-1.4c1.7-2,1.9-4.4,1.4-6.8c-0.2-1.1,0.1-1.8,1.3-1.8c2.8-0.1,5.5,0.6,7.9,1.9
	C163.2,152.2,163.3,153.1,163.6,153.6z M155.6,157.5c1.2-0.2,2.4-0.2,3.6-0.3c0.8,0.1,1.6-0.5,1.7-1.3c0-0.1,0-0.1,0-0.2
	c0.3-1.7-0.1-2.7-1.2-3c-0.9-0.2-1.8-0.3-2.7-0.4c-1-0.1-1.4,0.4-1.4,1.4S155.6,156.1,155.6,157.5L155.6,157.5z"/>
<path class="st0" d="M333.4,88.5c2.7,0.1,5.5,0.3,8.2,0.3c1.6,0,3.2-0.1,4.8-0.2c2.2-0.2,4.4-0.5,6.7-0.6c2.8-0.1,5.6-0.1,8.4-0.2
	c4.2-0.2,8.5-0.6,12.7-0.8c1.6-0.1,3.2,0,4.8,0c0,0.3,0,0.6,0.1,0.9c0.4,0.9-0.2,1-0.8,1c-2.2,0-4.5,0-6.7,0c-1.9,0-3.7,0.2-5.6,0.2
	c-3.1,0-6.2,0-9.2,0c-3.6,0-7.1,0.1-10.7,0.3c-3.1,0.1-6.2,0.4-9.3,0.5c-1,0-2.1-0.2-3.1-0.5c-0.2,0-0.4-0.3-0.6-0.4L333.4,88.5z"/>
<path d="M283.5,12.3c3.3,0,6.6,0,9.9,0c2.5,0,5.1-0.2,7.6-0.2c4.2,0,8.5,0,12.7,0c0.7,0,1.4-0.2,2.1-0.2c0.5,0.1,0.9,0.3,1.3,0.6
	c0.1,0.2-0.2,1-0.5,1.1c-1,0.8-2.4,0.9-3.5,0.2c-1.1-0.6-2.7-0.4-4-0.4c-2.1-0.1-4.3,0-6.5,0c-1.4,0-2.8-0.1-4.1,0
	c-2.1,0.1-4.2,0.4-6.3,0.5c-3,0.1-6,0.2-9,0.3c-0.2,0-0.4,0.1-0.5,0c-0.4-0.4-0.8-0.8-1.3-1.2c0.4-0.2,0.8-0.5,1.3-0.7
	C283,12.4,283.3,12.3,283.5,12.3z"/>
<path class="st2" d="M246.2,156.2c1.1-0.2,2.1-0.2,3-0.4c1.7-0.4,3,0.8,2.5,2.5c-0.9,2.9-2.7,5.3-5.1,7.1c-0.4,0.2-0.9,0.2-1.3,0
	c-0.2-0.1-0.3-0.6-0.5-0.9c0.3-0.1,0.6-0.3,0.9-0.5c0.2-0.1,0.4-0.3,0.5-0.4c1-1.6,2.1-3.2,3.1-4.8c0.2-0.3,0.2-0.7,0.1-1
	c-0.4-0.1-0.9-0.2-1.3-0.2c-1.3,0-2.6-0.1-3.8-0.3c-2.2-0.7-2.9-2.7-3.4-4.8c-0.3-1.1-0.3-2.3-0.2-3.5c0-0.4,0.7-0.8,1.1-1.1
	c0.3,0.5,0.9,1.1,0.9,1.6c-0.2,2.5,0.2,4.7,2.3,6.3C245.3,156,245.7,156.1,246.2,156.2z"/>
<path class="st1" d="M289.4,22.1c1.7-0.2,3.5-0.5,5.2-0.6c2,0,4,0.1,6,0.2c2.9,0.1,5.8,0.2,8.6,0.5c1.9,0.3,3.9,0.6,5.7,1.2
	c0.4,0.1,0.6,0.7,0.9,1.1c-0.4,0.1-0.8,0.1-1.2,0.1c-1.9-0.2-3.7-0.6-5.6-0.8c-3.3-0.3-6.6-0.5-10-0.5c-2.9,0-5.8,0.3-8.8,0.5
	c-0.9,0.1-1.9,0.1-2.8,0c-0.4-0.1-0.6-0.5-0.7-0.8c0.1-0.4,0.4-0.8,0.7-1C288.1,21.9,288.8,21.9,289.4,22.1L289.4,22.1z"/>
<path d="M312.8,42.5c-0.9-0.6-1.8-1.1-2.8-1.5c-1.5-0.4-3-0.7-4.5-0.8c-3.7-0.3-7.3-0.4-11-0.6c-1-0.1-2.1-0.3-3.1-0.6
	c-0.6-0.3-1.2-0.7-1.6-1.2l0.1-0.6c0.6-0.1,1.2-0.1,1.9,0c1.8,0.5,3.6,0.7,5.4,0.6c4,0,8,0.3,11.9,0.8c1.6,0.3,3,1.1,3.9,2.4
	C313.7,41.6,313.5,42,312.8,42.5z"/>
<path class="st0" d="M237.9,193.3h2l-0.3,1.4c-1.1,0-2.3,0-3.5,0c-0.7,0-0.9-0.5-0.6-1.1c0.7-1.3,1.4-2.5,2.3-3.7
	c2.1-2.5,4.2-4.9,6.4-7.3c2.3-2.6,4.6-5.3,7-7.8c1.3-1.4,1.6-1.3,2.6,0.1c-6.1,5.4-11.2,11.7-16.2,18.1L237.9,193.3z"/>
<path class="st3" d="M237.2,13.8c0-2.1,1.4-3.6,2.8-3.6c0.6,0.1,1.2-0.2,1.5-0.7c0.4-0.4,0.9-0.6,1.4-0.5c1.4,0.5,2.6,1.5,3.3,2.8
	c0.7,1,0.5,2.3-0.5,3c0,0,0,0-0.1,0c-1.8,1.6-5.2,2.1-7,0.8C238.1,15.2,237.6,14.5,237.2,13.8z M245,13.2c-0.1-0.2-0.1-0.3-0.2-0.4
	c-0.4-0.2-0.4-2.2-1.4-0.3c0,0.1-0.6-0.1-0.9-0.1c-0.8-0.1-1.6-0.1-2.3,0c-0.4,0.1-0.7,0.8-0.8,1.3c0,0.2,0.6,0.6,1,0.8
	C242.2,15,243.6,14.3,245,13.2L245,13.2z"/>
<path class="st0" d="M213.6,19.2c-3.4,0-5.3-3.9-3.7-6c0.1-0.2,0.2-0.5,0.3-0.7c1.1-2.1,2.2-2.3,4.3-0.7c0.2,0.2,0.5,0.3,0.8,0.3
	c1.8-0.2,3.1,1.1,3.6,2.8c0.3,1-0.6,2.5-2.1,3.1C215.8,18.4,214.7,18.8,213.6,19.2z M213.7,17.1l0.2,0.3c0.9-0.6,1.8-1.2,2.7-1.9
	c0.2-0.2,0-1.1-0.2-1.3c-0.7-0.5-1.5-1-2.4-1.3c-0.4-0.1-0.7-0.1-1.1,0c-0.8,0.3-1.9,2.3-1.6,2.9C211.7,16.8,212.7,17.3,213.7,17.1z
	"/>
<path d="M310.2,112.5c-1.2-1.2-1.1-1.3,0.6-2c2.6-1.2,4.6,0.1,6.7,1.3c1.2,0.7,1.1,1.5-0.1,2.4c-0.6,0.5-1.2,1-1.8,1.5
	c-1,0.9-0.8,1.7,0.5,2.2c0.5,0.3,1,0.7,1.5,1.1c-0.4,0.4-0.9,0.9-1.4,1.2c-0.6,0.5-1.2,0.9-1.9,1.3c-0.5,0.2-1,0.3-1.6,0.4
	c0-0.6-0.3-1.3-0.1-1.8s1-0.8,1.6-1.3c-0.1-0.2-0.2-0.3-0.3-0.4c-1.6-1.7-1.1-3.6,1-4.5c0.5-0.3,1-0.6,1.5-1
	C314.2,111.8,312.2,111.3,310.2,112.5z"/>
<path class="st2" d="M225.6,15.2c1.2,1.4,2.4,1.5,4,0.4c1.3-1,1.3-2,0-2.9c-0.2-0.1-0.4-0.3-0.6-0.5c-0.8-1.1-0.8-1.5,0.4-2.6
	c1.5,1,3,2,3,4.2s-0.5,2.8-2.6,3.6c-1.9,1-4.2,0.6-5.6-1c-1.1-1.2-1.1-3.1,0.1-4.2c0.1-0.1,0.2-0.1,0.2-0.2c1.3-1,2.9-0.5,4.1,1.4
	C227.7,14,225.3,12.4,225.6,15.2z"/>
<path class="st1" d="M254.2,10.6l0.2-1c2.5,0.1,4.3,1.6,4.2,3.5c0,0.7-0.5,1.4-1.2,1.6c-1.5,0.8-3.2,1.3-4.9,1.3
	c-1.3-0.1-2.6-0.2-3.3-1.4c-1.2-1.9-0.8-4,2.7-4.3C252.7,10.4,253.5,10.5,254.2,10.6z M256.4,11.9c-0.4,0.3-0.8,0.5-1.2,0.7
	c-0.4,0.1-0.8-0.1-1.2-0.1c-0.9,0-1.8,0.1-2.6,0.4c-0.7,0.3-0.8,0.8,0.1,1.3c1.5,0.9,2.9,0.1,4.3-0.3
	C257.5,13.3,257.5,12.8,256.4,11.9z"/>
<path class="st0" d="M174.6,97.6l-1,0.8c0.5,0.5,0.9,1,1.4,1.5c0.5,0.6,0.8,1.3,0.9,2c0.2,2.2-0.6,2.7-2.6,3.3
	c-2.1,0.6-3.6,0.4-4.7-2.1s1.4-6.5,4.1-6.3C173.4,96.9,174.1,97.2,174.6,97.6z M174.2,101.8c-0.5-0.8-1-1.6-1.6-2.4
	c-0.5-0.5-1-0.4-1.3,0.3c-0.3,0.7-0.5,1.5-0.6,2.4c0,0.8,0.1,1.8,1.4,1.6C172.9,103.5,173.9,103.3,174.2,101.8z"/>
<path class="st2" d="M36.5,164.2c0-0.6,0.1-1.3,0.2-1.9c0.4-0.8,1-1.5,1.6-2.1c0.6-0.7,1.3-1.2,2.2-2c-1.7-0.2-3.1-0.3-4.4-0.5
	c-0.8-0.1-1.5-0.6-1.1-1.5s1-1,1.8-0.6c0.6,0.2,1.3,0.3,1.9,0.3c0.8,0,1.6,0.1,2.3,0.3c1,0.2,1.6,1.2,1.4,2.2
	c-0.1,0.3-0.2,0.6-0.4,0.8c-0.5,0.7-1.2,1.3-1.7,2c-0.6,0.6-1,1.4-1.3,2.2c-0.3,1.3-0.7,1.8-2,1C36.9,164.3,36.7,164.2,36.5,164.2z"
	/>
<path class="st1" d="M258.2,112.6c2,1.2,1.9,3.1,2.7,4.7c2.3-0.4,3.5-3.3,6-3.3l0.3,0.5l-5.3,4.4c0.5,0.7,1,1.4,1.4,2.1
	c0.2,0.4,0.3,0.9,0.3,1.3c0,0.3-0.2,0.5-0.5,0.7c-0.3,0-0.6-0.1-0.8-0.3c-0.4-0.6-0.6-1.3-0.9-1.9s-1-0.8-1.5-0.1l-2.1,2.4
	c-1-0.8-1.2-1.6-0.2-2.4c1.7-1.4,2.5-2.7,1-4.8C258.2,115,258.4,113.9,258.2,112.6z"/>
<path d="M30.7,120.1c0.2,3.6,0.4,6.8,0.5,10c0,0.2,0.2,0.4,0.2,0.6c0.1,0.5,0.1,0.9,0,1.4c-0.1,0.2-0.8,0.2-1.2,0.2
	c-0.8,0-0.9-0.5-0.9-1.2c-0.1-2.6-0.1-5.1-0.3-7.7c0-1.2-0.1-2.3-0.3-3.4c-0.1-0.9-0.2-1.9,0.9-1.8
	C30.6,118.1,30.8,119.1,30.7,120.1C30.6,120.2,30.7,120.3,30.7,120.1z"/>
<path d="M74,196.5c0.1,1,0.1,2,0,3.1c-0.1,0.4-0.7,0.8-1.1,1.2c-0.2-0.4-0.7-0.9-0.7-1.3c-0.1-2.1,0.1-4.3-0.1-6.5s-0.7-4-0.9-5.9
	c0-0.5,0.2-1,0.4-1.5c0.5,0.3,1.2,0.5,1.3,0.9c0.4,1.3,0.7,2.6,0.8,3.9c0.2,2,0.2,4.1,0.4,6.1L74,196.5z"/>
<path class="st2" d="M243.6,148.3c1.8-3.7,5.1-4,8.4-4.2c0.6-0.1,1.3-0.2,1.9-0.2c0.7,0.1,1.3,0.3,1.8,0.8
	C251.5,145.3,247.3,146.1,243.6,148.3z"/>
<path class="st0" d="M239.6,183.9c-0.4-1.8-0.8-3.2-1-4.7c-0.1-0.4,0.5-1.1,0.7-1.1c0.5,0.1,1,0.3,1.3,0.8
	C241.1,180.1,240.6,182.4,239.6,183.9z"/>
<path class="st0" d="M253.6,189.2c-0.1,0.3-0.3,0.5-0.4,0.8c-0.5,0.6-1.1,1.1-1.6,1.6c-0.3,0.2-0.9,0.4-1,0.3s-0.5-0.8-0.4-1.1
	c0.5-0.9,1.1-1.7,1.8-2.4c0.2-0.2,0.7-0.1,1.1,0c0.4,0,0.7,0.1,1.1,0.2L253.6,189.2z"/>
<path class="st5" d="M513.1,122.6C513,122.6,513,122.6,513.1,122.6c2.4-1.1,2.8,1.2,3.5,2.4c2.3,3.5,3,7.5,3.8,11.6
	c0.9,5.2,1.1,10.5,0.6,15.7c-0.3,4.7-1.2,9.3-2.6,13.8c-1.3,4.2-3,8.3-5.2,12.1c-1.9,3.3-3.4,6.8-5.4,10c-2.9,4.4-6,8.7-9.1,13
	c-2.9,4-5.8,8-8.9,11.8c-2.1,2.4-4.3,4.7-6.7,6.8c-1.9,1.9-3.8,3.7-5.8,5.4c-1.3,1-2.7,1.8-4.2,2.3c-3.3,1.3-6.6,2.6-10,3.6
	c-1.3,0.4-2.7,0.5-4.1,0.3c-2.1-0.4-4.5,0.1-6.7,0.2c-0.7,0-1.4,0.1-2.1,0.1c-4.2-0.1-8.5-0.3-12.8-0.4c-1.7-0.1-3.4-0.1-5-0.3
	c-5.5-0.7-11.1-1.4-16-4.6c-1.6-1.1-3.5-1.8-5.1-2.9c-0.7-0.6-1.3-1.3-1.6-2.1c-1.6-2.8-3.1-5.6-4.9-8.4c-2.6-4.2-4.8-8.7-6.5-13.4
	c-1.3-3.5-2.3-7.1-3-10.8c-0.4-2.6-1.7-5-2.1-7.5c-0.7-4.4-2.2-8.7-2.4-13.3c-0.4-5.1,0.1-10.2,1.5-15.1c0.8-3.1,1.9-6.1,3.3-9
	c3.1-5.4,6.1-10.9,10.3-15.7c3.4-3.9,6.8-7.8,10.5-11.4c2.2-2.2,4.7-4.2,7-6.2c1.1-1,2.2-1.8,3.4-2.7c1.3-0.9,2.7-1.7,4.2-2.4
	c3.8-1.7,7.5-3.4,11.4-4.9c2.4-0.9,4.9-1.7,7.5-2.2c1.8-0.4,3.6-0.6,5.5-0.7c2.2-0.2,4.5-0.3,6.8-0.2c1.1,0.1,2.2,0.4,3.3,0.8
	c1,0.3,1.9,1.3,3,0.3c0.1-0.1,0.4,0.1,0.6,0.1l8.2,1.7c2.6,0.6,5.3,0.9,7.9,1.7s5.3,1.9,7.9,3c1.5,0.6,3,1.2,4.5,2
	c1.5,0.9,3,1.9,4.4,3.1c2.6,2.2,5.2,4.5,7.7,6.9c1,1,1.9,2.1,2.7,3.3C512.7,121.2,512.9,121.9,513.1,122.6z M445.4,118.9l0.1-0.4
	c-0.5-0.4-0.9-0.8-1.4-1.1c-2.1-1.2-4.3-0.8-6.4-0.2c-3.2,0.9-6.2,2.5-8.8,4.5c-2.8,2-5.3,4.5-7.3,7.3c-2.3,3.6-2.8,7.6-2.8,11.7
	c0,2.6,1.2,5.1,3.4,6.5c3.8,2.9,8.1,3.5,12.6,3.2c4.1-0.4,8-2.1,11-5c1.1-0.9,2-2,2.6-3.3c0.8-2.3,1.5-4.7,1.9-7.1
	c0.3-1.7,0.5-3.6-0.6-5.1c-2.1-2.7-5.3-4.4-8.8-4.5c-3.6-0.3-6.7,1.4-9.1,4c-2.5,2.6-3.8,5.5-3.1,9.2c0.5,2.9,3.2,4.8,6.1,4.3
	c0.1,0,0.2,0,0.2,0c1.2-0.2,2.5-0.5,3.6-0.9c1.7-0.6,3.4-1.6,3.6-3.5c0.2-1.6,0.1-3.3-0.3-4.9c-0.4-1-1.2-1.8-2.1-2.2
	c-1.3-0.4-2.8,0-3.6,1.1c-1.2,1.4-0.7,3.8,1,4.1c0.2-0.5,0.2-1,0.2-1.5c-0.3-1,0.6-1.4,1.1-1.6c0.6-0.1,1.2,0.1,1.5,0.6
	c0.8,1.3,0.9,3,0.4,4.4c-0.1,0.2-0.3,0.4-0.5,0.5c-1.7,0.8-3.5,1.5-5.3,2.1c-1.7,0.3-3.4-0.7-3.8-2.4c-1.3-4.1,1.7-8.5,5.6-10.4
	c2.2-1.1,4.7-1.2,6.9-0.3c2.4,0.9,4.9,1.8,5.2,4.9c0.1,1.3-0.1,2.6-0.4,3.9c-0.7,3.7-2.2,6.9-5.6,9c-5.1,3.3-11.5,3.8-17.1,1.4
	c-2-0.8-4-2.3-4.5-4.7c-0.4-2.5-0.2-5.1,0.4-7.6c0.6-3,2.1-5.7,4.2-7.8c1.1-1.2,2.3-2.2,3.6-3.1c2.2-1.6,4.5-3.1,7-4.3
	c2.5-1.1,5.3-2.2,8.1-0.5C444.5,119.2,445,119,445.4,118.9z M482.5,155.6c-0.4,1.2-2.8,2.4-3.9,1.8c-0.4-0.2-0.6-0.5-0.8-0.9
	c-0.4-1.5-0.2-3.1,0.5-4.5c1.4-2.5,3.7-3.8,6-5c0.8-0.3,1.7-0.2,2.5,0.2c2.3,1.3,3.6,5,2.8,7.6c-0.8,2.5-2.3,4.6-4.4,6.1
	c-1.1,0.9-2.4,1.5-3.8,1.9c-2.9,0.9-6,0.3-8.3-1.6c-1.8-1.2-2.9-3.3-3-5.4c-0.1-4.6,2-8.4,4.8-11.8c1.9-2.3,4.4-4,7.2-4.9
	c1.9-0.6,4-1,6-1.1c2.3-0.1,4,1,5.5,2.8c1.8,2.1,2.5,6.8,1.1,9.3c-0.2,0.4-0.2,0.8,0,1.2c0.5,0.5,0.9,0.1,1.2-0.4
	c2-2.9,1.9-8.5-0.6-11.2c-0.4-0.5-0.8-1-1.3-1.5c-1.4-1.5-3.4-2.4-5.5-2.4c-2.6,0.1-5.1,0.7-7.5,1.5c-2.6,1-5,2.5-7,4.5
	c-2.2,2.3-4,5.1-5,8.2c-1.7,4.4-1.5,9,2.5,12.4c3,2.5,7.1,3.3,10.9,2.1c2-0.7,3.8-1.9,5.2-3.5c3.1-3,4.6-6.4,3.5-10.8
	c-0.5-1.9-1.6-3.7-3.2-4.9c-1.3-1-3.1-1.1-4.5-0.4c-1.7,0.9-3.3,1.9-4.8,3.1c-2.1,1.5-3.4,6.4-2.4,9c0.4,0.8,1,1.6,1.8,2.1
	c1.5,1.1,2.8,0.1,4.3-0.4c1.2-0.3,2.1-1.3,2.3-2.6c0.3-1.5-0.4-3-1.6-3.7c-0.9,0.8-1.8,1.5-1.5,2.8
	C481.4,155.3,482,155.4,482.5,155.6L482.5,155.6z M461.5,193.3c0.7,1.5,1.3,3,1.8,4.6c0.8,2.7,1.8,3.5,4.5,2.7
	c1.9-0.6,3.7-1.6,5.5-2.3c0.8-0.3,1.6-0.4,2.4-0.7c0.6-0.3,1.1-0.7,1.4-1.1c0.1-0.2-0.3-1-0.6-1.1c-0.5-0.2-1-0.2-1.5,0
	c-0.6,0.2-1.2,0.6-1.8,0.9c-2,0.9-4,1.7-6,2.6c-0.9,0.4-1.4,0-1.7-0.8c-0.5-1.4-1-2.8-1.5-4.1c-1.2-2.8-1.5-2.9-4.2-1.8
	c-0.1,0-0.2,0-0.3,0c-2.3,0.7-4.5,1.6-6.7,2.6c-1.2,0.6-1.6,0.2-1.7-0.7c-0.4-2.2-1.2-4.3-2.6-6.1l-9.8,2.8
	c-0.3-1.9-0.5-3.6-0.8-5.3c-0.2-1.3-0.6-2.6-1.1-3.9c-0.3-1-1.3-1.5-2.2-1.2c-0.1,0-0.1,0-0.2,0.1c-2.5,0.9-5,1.5-7.5,2.2
	c-1,0.3-2,0.5-2.8,0.7c-0.1-3.3-0.2-6.4-0.3-9.5c-0.1-1.5-1-2.2-2-1.5c-2.1,1.4-4.1,2.8-6.2,4.2c-0.5,0.2-1,0.3-1.5,0.4
	c1.4-5,2.7-9.7,4-14.5c-1.5-0.2-2.1,0-2.1,1.3c0,0.3-0.1,0.5-0.1,0.8c-1.2,4.1-2.4,8.2-3.5,12.3c-0.2,0.7-0.1,1.5,0.2,2.2
	c0.6,0.8,1.5,0.4,2.2-0.1c1.9-1.2,3.9-2.5,5.8-3.8c0.5-0.3,1-0.5,1.5-0.7c0,2,0,3.7,0,5.4c0,1.5-0.2,3-0.2,4.5
	c0,0.9,0.5,1.4,1.3,1.2c2.4-0.6,4.7-1.4,7-2c1.2-0.3,2.5-0.6,3.8-0.9c0.9-0.2,1.4,0.1,1.5,1.1c0.4,2.6,0.9,5.3,1.3,7.9
	c0.2,1,0.7,1.5,1.7,1.2c2.2-0.7,4.4-1.4,6.5-2.2c1.6-0.6,2.7-0.4,3.2,1.2c0.5,1.5,0.9,3,1.2,4.5c0.2,1.3,0.8,1.4,1.9,1
	C454.7,195.9,457.9,194.7,461.5,193.3L461.5,193.3z"/>
<path class="st6" d="M282.4,302.3c0.1-2.5,1.2-4.2,2.3-5.9c1.4-2.2,3.8-3.3,5.7-4.8c0.5-0.3,1.1-0.5,1.7-0.4
	c2.3,0.2,4.5,0.6,6.8,0.7c3,0.2,6.1,0.4,9.2,0.4c3.8-0.1,7.5-0.4,11.3-0.6c1.2-0.1,2.5-0.1,3.7-0.3c2.3-0.3,4.7-0.6,7-1.1
	s3.7,0.8,5.2,2c2.4,1.9,1.9,4.7-1.3,6.3c-2.9,1.6-6,2.6-9.3,3c-3.5,0.3-6.9,1-10.4,1.4c-0.9,0-1.9-0.1-2.8-0.2c-1.3,0-2.5,0-3.8,0.2
	c-2.8,0.3-5.6,0.8-8.5,1c-3.6,0.3-7.2,0.7-10.8,0.8c-1.7-0.1-3.3-0.3-4.9-0.8c-0.7,0-1.2-0.7-1.2-1.4
	C282.4,302.4,282.4,302.4,282.4,302.3z"/>
<path class="st5" d="M330.7,288.1c-3.7,0.5-7.2,0.9-10.7,1.3c-1.1,0.1-2.3,0.2-3.4,0.3c-2.3,0.1-4.7,0.2-7,0.2
	c-1.2,0-2.4-0.3-3.7-0.4c-1-0.1-2,0-3.1,0c-1.9-0.1-3.8-0.2-5.7-0.4c-1-0.1-2-0.1-3-0.2c-0.2,0-0.6-0.5-0.6-0.7
	c0.7-3.4,2.5-6.4,5-8.8c3.4-2.9,7.2-5.3,11.3-7.1c3.4-1.6,7.1-2.6,10.8-2.8c1.3,0,2.6,0.1,3.8,0.3c0.4,0.2,0.7,0.5,0.9,0.9
	c0.9,2.9,1.7,5.8,2.6,8.6c0.8,2.5,1.7,5,2.5,7.5C330.5,287.3,330.6,287.6,330.7,288.1z"/>
<path class="st5" d="M385.6,244.6c0.7,0,1.1-0.1,1.4,0c1,0.7,1.8,0.3,2.7-0.3c1.4-0.9,2.9-1.7,4.4-2.4c3.6-1.9,6.7-4.3,8.6-8
	c0.1-0.3,0.3-0.5,0.4-0.7c1.3,0.9,2.7,1.7,3.9,2.6c0.2,0.4,0.2,0.8,0,1.2c-1.8,2.3-3.2,5-4,7.9c-0.5,1.8-0.8,3.6-0.9,5.4
	c0,0.2,0.4,0.6,0.8,1c-1,0.4-1.9,0.9-2.8,1.3c-1.7,0.8-3.5,1.6-5.1,2.6c-0.5,0.3-1.2,0.2-1.6-0.1c-2.8-1.7-5-4.3-6.1-7.4
	C386.8,246.5,386.2,245.5,385.6,244.6z"/>
<path class="st2" d="M368.6,217.1c-1.9-0.4-3.8-0.9-5.7-1.3c-0.8-0.2-1.6-0.3-2.4-0.3c-2.4,0.1-4.7,0.1-7,0.3
	c-1.7,0.1-3.4,0.6-5.1,0.7c-2.2,0.2-4.3,0.1-6.5,0.3s-4.5,0.6-6.8,0.9c-1.3,0.2-2.5,0.3-3.8,0.4c-1.9,0.1-3.9,0.2-5.8,0.3
	c-3.8,0.2-7.6,0.2-11.3,0.6c-2.2,0.3-4.5,0.8-6.7,1.3c-2.6,0.5-5.2,1.1-7.8,1.5c-1.9,0.2-3.8,0.4-5.7,0.4c-1,0-1.9-0.1-2.9-0.3
	c-1.4-0.3-2.4-1.6-2.3-3.1c0-4.1,0.1-8.2,0.3-12.3c0.1-3,0.3-6,0.5-8.9c0.2-2.5,0.7-4.9,1.1-7.4s0.6-4.8,1.1-7.1
	c0.4-2.2,1.1-4.3,1.5-6.4c0.3-1.4,1.4-1.1,2.1-1.2c3.5-0.6,7.1-0.9,10.7-1.4c3-0.4,6-0.7,9.1-1.1c3.9-0.4,7.7-0.8,11.5-1.4
	c2.8-0.4,5.6-1,8.4-1.5c1.4-0.2,2.8-0.2,4.2-0.4c2.8-0.3,5.7-0.7,8.5-1c3.4-0.4,6.7-0.9,10.1-1.4c1.9-0.2,3.7-0.3,5.5-0.5
	c0.1,1.2,0.3,2.6,0.5,4c0.3,2.3,0.7,4.5,0.8,6.8c0.1,4.1,0.5,8.2,1.3,12.2c0.3,1.8,0.5,3.7,0.6,5.5c0.2,2.5,0.4,4.9,0.5,7.4
	c0,1.1,0,2.2-0.1,3.3c-0.2,3.5,0.3,6.9,1.3,10.2c0.1,0.2,0.1,0.4,0.2,0.6C368.6,217,368.6,217.1,368.6,217.1z M322,197.3L322,197.3
	c-0.8,0.2-1.6,0.4-2.5,0.5c-3.9,0.3-7.8,0.5-11.7,1c-1.6,0.3-3.2,0.9-4.8,1.6c-0.3,0.1-0.3,0.8-0.4,1.2c0.3,0.1,0.7,0.3,0.9,0.2
	c3.3-1.4,6.9-1.6,10.4-1.8c2.1-0.1,4.3-0.3,6.5-0.6c4.7-0.5,9.3-1,14-1.6c3-0.4,5.9-1.1,8.9-1.6s6-0.9,9-1.3c0.6,0,1.1,0.2,1.5,0.5
	c0.7,0.5,1.1,0.1,1.1-0.4c0-0.5-0.2-0.9-0.6-1.2c-1.8-1.2-3.8-0.4-5.6-0.4c-1.9,0.2-3.8,0.6-5.6,1.1c-1.6,0.4-3.2,0.8-4.8,1.1
	c-2,0.4-4,0.6-6,0.8C328.8,196.8,325.4,197,322,197.3z M359.8,205.6l0.2-0.4c-0.2-0.2-0.4-0.6-0.6-0.6c-2-0.6-4.1-1-6.2-1.2
	c-3,0-5.9,0.1-8.9,0.4c-2,0.1-4,0.3-5.9,0.5s-4.1,0.7-6.2,1.1c-3,0.5-6.1,0.9-9.1,1.6c-3.5,0.8-7,2-10.5,2.9
	c-0.8,0.1-1.6,0.1-2.4-0.1h-2c1.1,1.5,2.3,2,3.6,1.8c3.8-0.9,7.6-1.9,11.4-2.8c3.2-0.7,6.4-1.4,9.6-1.9s6.8-0.9,10.2-1.3
	c2.2-0.2,4.5-0.3,6.7-0.6c2.9-0.4,5.8-0.3,8.6,0.4C358.7,205.6,359.3,205.6,359.8,205.6L359.8,205.6z M349,185
	c2-0.2,3.9-0.3,5.8-0.6c0.4-0.1,0.8-0.4,1.2-0.7c-0.5-0.3-0.9-0.9-1.4-0.9c-5.2,0.1-10.4,0.3-15.5,0.5c-0.4,0-0.9,0-1.3,0.1
	c-2.9,0.4-5.8,1-8.7,1.1c-3.6,0.2-7,1.4-10.4,2.4c-0.6,0.2-1.1,0.6-1.4,1.1c-0.2,0.3-0.1,0.8-0.1,1.3c0.3,0,0.7-0.1,1-0.1
	c0.7-0.3,1.4-0.7,2.1-1c3.1-1.2,6.3-1.9,9.6-2.2c3.5-0.2,7-0.8,10.5-1C343.4,184.9,346.3,185,349,185z M355.3,176.8v-0.4
	c-0.3-0.2-0.6-0.6-0.9-0.6c-1.9-0.3-3.8-0.4-5.8-0.4c-2.1,0.2-4.2,0.5-6.3,0.9c-1.1,0.2-2.2,0.4-3.2,0.5c-1.5,0.3-3,0.4-4.5,0.4
	c-0.9-0.1-1.4,0.1-1.4,0.8c0,0.4,0.7,1,1.2,1.2c0.7,0,1.3,0,1.9-0.2c2.4-0.4,4.8-0.7,7.1-1c3.4-0.4,6.8-1.3,10.2-0.6
	C354.1,177.3,354.7,176.9,355.3,176.8L355.3,176.8z M302.1,185l0.4,0.4c0.5-0.3,0.9-0.6,1.3-1c1.2-1.3,2.3-2.7,3.6-4
	c1-1,1.6-2.4,0.9-3.4c-1.8-2.1-4.9-2.4-7-0.7c-0.3,0.2-0.3,0.8-0.4,1.1c0.4,0,0.7-0.1,1.1-0.2c1.3-0.2,2.7-0.2,4-0.1
	c0.8,0.1,1.2,0.9,0.3,1.7c-0.3,0.3-0.6,0.7-1,0.9C303,180.9,302.6,183,302.1,185z M320.6,179.4c-2.1,0-4.1-0.1-6.1,0
	c-0.6,0.1-1,0.5-1.2,1c-0.2,1,0.6,0.9,1.2,0.8c2-0.2,4-0.6,6.1-0.9V179.4z M324.3,180.7l0.2-0.4c1.1,0,2.2,0,3.3-0.2
	c0.3,0,0.6-0.4,1-0.7c-0.3-0.3-0.6-0.5-1-0.6c-1-0.2-2.1-0.1-3.1-0.3c-0.8-0.1-1.7-0.3-1.7,0.8C322.9,179.9,323.8,180.3,324.3,180.7
	L324.3,180.7z M304.1,190c0.7-0.3,1.8,0.1,1.5-1.2c-0.2-0.4-0.6-0.6-1-0.6C303.6,188.4,303.7,189.2,304.1,190z"/>
<path class="st0" d="M118.7,42c1.6,0.1,3.4,0.3,5.2,0.3c0.8,0,1.7-0.1,2.5-0.3c0.5-0.1,0.9-0.2,1.4-0.2c6.4,0.2,12.8,0.4,19.1,0.5
	c5,0.1,10,0.1,15,0.2c4.7,0,9.4,0,14.1,0.1c4.1,0.1,8.3,0.3,12.5,0.5c3.8,0.2,7.6,0.5,11.3,0.8c0.5,0,1.3,0.8,1.3,1.1
	c-0.2,1.6-0.5,3.2-1,4.7c-0.3,0.5-0.8,0.8-1.3,0.8c-4,0.4-8,0.4-12-0.2c-2.2-0.1-4.4-0.1-6.5,0.1c-0.6,0-1.3-0.2-1.9-0.2
	c-2.7,0-5.4,0.1-8.1,0c-3.4-0.2-6.8-0.5-10.1-0.8c-1.7-0.1-3.4-0.2-5-0.3c-3.8-0.2-7.5-0.3-11.3-0.5c-4.4-0.2-8.7-0.5-13.1-0.7
	c-1.9-0.1-3.7,0.2-5.6,0.1c-1.5,0-3.1-0.2-4.6-0.3c-0.3,0-0.6,0.1-0.8,0s-0.9-0.5-0.9-0.8c-0.1-0.9-0.1-1.9,0-2.8L118.7,42z"/>
<path class="st5" d="M64.8,108.5c-1.6-0.3-2.7-0.7-3.9-0.8c-0.8,0-1.6,0.2-2.3,0.4c-0.1-0.5-0.4-1.4-0.6-2.3
	c-0.2-0.8-0.4-1.5-0.7-2.2c-0.3-0.3-0.7-0.3-1-0.2c-0.4,0.3-0.6,0.7-0.6,1.1c0.2,1.6,0.4,3.1,0.7,4.6c-1.7-0.3-2.3-0.9-2.3-3.5
	c0-3.2,0.1-6.5,0.3-9.7c0.2-2.5,0.5-5,0.8-7.5c0.1-0.6,0.3-1.1,0.7-1.5l5.3-0.5c0.5-0.1,1-0.2,1.6-0.2c4.9,0,9.7,0,14.6,0
	c1.3-0.2,2.6,0.8,2.7,2.1c0,0.1,0,0.3,0,0.4c0.3,5.3-0.2,10.6-1.5,15.8c-0.6,2.3-1.1,2.6-3.5,2.7s-4.9,0.4-7.4,0.7
	c-0.2,0-0.4,0-0.7,0c-0.4-1.7-0.8-3.3-1.3-4.9c-0.2-0.6-0.9-1.3-1.4-1.4c-1.6-0.1-3.2,0-4.8,0.2c-0.3,0-0.6,0.8-0.9,1.2
	c0.4,0.3,0.8,0.8,1.3,0.8c1,0,1.9-0.1,2.9-0.2c0.9-0.1,1.3,0.3,1.4,1.2c0.1,0.6,0.3,1.1,0.6,1.7C64.6,107,64.6,107.5,64.8,108.5z"/>
<path class="st1" d="M85.4,130c-1.9,1.3-3.2,3.4-3.6,5.6c-0.1,0.2,0.4,0.6,0.8,1.1c0.3-0.5,0.5-1,0.8-1.5c0.9-2.9,3.6-3.7,5.9-1.6
	c2,1.9,3.6,4.3,4.5,6.9c0.7,2,1.2,4,1.3,6.1c0.2,3-1,5.9-3.1,8c-2.4,2.7-5.5,4.6-9,5.7c-2.2,0.7-4.4,1.1-6.7,1.3
	c-4.5,0.2-8.4-1.6-11.8-4.4c-1.2-0.9-1.7-2.8-2.3-4.3c-1.3-2.9-1.5-6.1-0.5-9.1c1.5-4.2,4.3-7.5,7.6-10.4c3.4-2.7,7.5-4.2,11.9-4.1
	C82.7,129.5,84.1,129.7,85.4,130z M82.7,157.2c0-0.6,0-1.2,0-1.9c-0.2-1.2-0.6-2.4-0.7-3.6c-0.2-3.8-0.3-7.5-0.6-11.3
	c-0.2-1.7-0.4-3.4-0.8-5c-0.1-0.5-0.3-1.3-1.3-0.9c-0.7,0.3-0.8,0.8-0.5,1.6c0.4,0.9,0.7,1.8,0.8,2.7c0.3,3.6,0.6,7.2,0.8,10.8
	c0.1,1.7,0.1,3.4,0.3,5.1C80.8,155.8,81.1,156.9,82.7,157.2z M71.8,135.8c0.1,0.9,0.3,1.8,0.3,2.6c0.1,4,0.2,8,0.3,12
	c0,1,0.1,2,0.3,3c0.2,0.8,0.6,1.5,1.2,2.1c0.6,0.6,1.2,0.4,1.7-0.3s0.3-1-0.5-1.3c-0.4-0.3-0.7-0.8-0.8-1.4c-0.3-2-0.5-4.1-0.6-6.2
	c-0.2-3.1-0.2-6.2-0.3-9.4C73.4,136,72.9,135.6,71.8,135.8z M89.3,137.8c2.1,5.7,1.5,11.4,1.1,17.3c0.5-0.1,0.8-0.4,0.9-0.7
	c0.7-2.7,1-5.6,0.9-8.4c-0.1-2.5-0.4-5-1.1-7.4C90.8,137.5,90.4,137.6,89.3,137.8L89.3,137.8z"/>
<path class="st5" d="M170.2,131c0.3,2.6,0.6,5,0.9,7.4c0,0.2,0.2,0.5,0.2,0.7c0.2,1,0,1.5-1.2,1.7c-4.2,0.5-8.3,1.2-12.4,1.8
	c-5.6,0.9-11.3,1.8-16.9,2.7s-11.4,1.8-17.1,2.7c-1.9,0.3-3.8,0.8-5.6,1.2c-1,0.3-1.8,0.8-2.3-0.9c-0.9-2.4-1.9-4.7-3.1-7
	c1.2-0.2,2.3-0.3,3.3-0.6c3.1-0.7,6.2-1.6,9.4-2.3c4.1-0.9,8.3-1.6,12.5-2.2c4.6-0.8,9.1-1.5,13.7-2.1c3.4-0.5,6.9-0.9,10.3-1.4
	c2.2-0.3,4.4-0.9,6.6-1.4C169,131.4,169.4,131.2,170.2,131z"/>
<path class="st5" d="M113.6,26c0.1-1.8,1.6-3.2,1.1-4.7c1.9-0.2,4-0.5,6-0.7c1.7-0.2,3.5-0.5,5.2-0.7c2.8-0.4,5.6-0.7,8.4-1
	c2.1-0.2,4.2-0.4,6.3-0.6c5.3-0.3,10.6-0.5,15.9-0.8c1.7-0.1,3-0.1,3.9,1.9c0.7,1.7,2.2,3,3.3,4.6c0.2,0.3,0.4,0.6,0.8,1.2
	c-1.9,0.1-3.4,0.3-5,0.3c-1.1,0-2.1-0.2-3.2-0.2c-4.4-0.2-8.9-0.2-13.3-0.6c-5.4-0.3-10.8-0.4-16.2-0.2c-3.8,0-7.7,0.6-11.6,1
	C114.8,25.6,114.2,25.8,113.6,26z"/>
<path class="st5" d="M216.4,103.9c-1.5-1.7-3-3.4-4.5-5.2c-0.4-0.5-1-1.1-1.7-0.4s-0.4,1.3,0.2,2c1.1,1.1,2.1,2.2,3.1,3.3
	c0.2,0.4,0.4,0.8,0.6,1.2c-1.4,0.3-2.8,0.5-4.3,0.6c-3.6,0-7.3,0.2-10.1-2.6c-3-2.9-2.8-5.8-0.5-9.3c1.9-3.1,4.7-5.4,8-6.9
	c2.4-1,5.1-1,7.5,0c-0.9,0.7-1.5,1.2-2.1,1.8s-1.7,0.6-1.1,1.8l4.2-2.4l1.4,1.3l0.6-1.7c2-0.8,3.6,0.3,5.2,1.4
	c1.9,1.4,3.2,3.4,3.7,5.7c0.4,1.6-0.5,3-1.6,4.1C222.5,101.1,219.6,102.9,216.4,103.9z"/>
<path class="st3" d="M35.1,43c-6-0.5-11.3-1.2-15.8-4.5c-1.8-1.3-3-3.3-3.1-5.5c-0.2-4,1.6-7.3,3.8-10.5c1.2-1.8,2.9-3.2,4.7-4.2
	c1.7-0.9,3.7-2.2,5.8-0.9c0.6,0.4,1.1,0.9,1.6,1.4c0.5,0.5,0.4,0.9-0.2,1.3c-0.3,0.2-0.3,0.6-0.5,0.9c0.4,0.2,0.8,0.2,1.3,0.2
	c0.9-0.3,1.7-0.5,2.6-0.6c2.4-0.2,4.7,1.2,5.7,3.4c1,1.8,2.2,3.4,3.1,5.2c1.7,3.5,2.5,7.2-0.2,10.6c-1,1-2.2,1.8-3.6,2.1
	C38.6,42.4,36.9,42.8,35.1,43z M34.9,31.6c0-2.6-2-5.2-4-5.1c-4.5,0.2-4.9,1.5-5.3,5.4c-0.2,2.1,2,4,4.3,4
	C32,35.9,34.9,33.4,34.9,31.6L34.9,31.6z"/>
<path class="st3" d="M77.2,25.9c0.5-0.2,1-0.4,1.5-0.8c1.4-0.9,3.3-0.8,4.7,0.3c1.5,1.6,3,3.4,3,5.7c0.1,1.5-0.3,3-1,4.2
	c-2.5,3.9-6.5,5.1-10.8,5.7c-4.5,0.7-9-0.7-12.4-3.6c-2.1-1.7-2.4-4.2-1.9-6.8c0.5-2.6,1.9-5,3.9-6.8c3.5-2.7,8.3-3.3,12.4-1.4
	c1.7,0.7,1.7,0.8,0.8,2.4c-0.1,0.2-0.2,0.5-0.3,0.7L77.2,25.9z M70.5,37.6c2.8-0.7,5.6-1.3,7.9-3.3c1.3-1.1,1.6-3.1,0.7-4.5
	c-1-1.8-2.7-3.2-4.5-2.7c-0.4,0.1-0.8-0.1-1.1-0.4c-0.9-1.4-2.8-1.8-4.2-0.9c-1.5,0.9-2.8,2.1-3.9,3.4c-1.2,1.4-1.4,3.4-0.6,5.1
	C66,36.6,68.1,37.2,70.5,37.6z"/>
<path class="st5" d="M30.7,225.2c-2-0.5-3.9-1.2-5.8-2c-1.7-1.1-2.7-2.8-2.9-4.8c-0.5-3.5,0.6-7,3.2-9.5c1.4-1.5,2.8-2.9,4.4-4.2
	c1.7-1.3,3.4-2.8,5.8-2.2c0.6,0.2,1.1,0.5,1.6,0.9c0.2,0.1,0.2,0.5,0.3,0.5c2.6,1,3.7,3.5,5.2,5.6c1.1,1.5,2.1,3.2,2.7,5
	c1.4,3.6-0.1,5.5-2.9,7.3c-3,1.9-6.6,2.9-10.1,2.9c-0.5,0.1-1,0.1-1.4,0.3L30.7,225.2z M38.5,209.4c-0.3-0.2-0.7-0.4-1.1-0.5
	c-1.3-0.2-2.2,0.5-3,1.2s-1.4,0.8-2.3-0.2c-0.4-0.7-1-1.2-1.6-1.7c-0.5-0.2-1-0.1-1.4,0.1c-0.6,0.5-0.3,1.1,0.3,1.6s1.2,1,1.8,1.5
	s0.8,0.9,0.1,1.5c-1,1.1-2,2.2-2.8,3.4c-0.3,0.5-0.5,1.2-0.4,1.8c0,0.3,0.7,0.8,1.1,0.8s1.1-0.5,1.1-0.7c-0.2-1.8,1.3-2.7,2.2-3.9
	c0.5-0.6,1-0.7,1.5,0c0.7,0.8,1.4,1.6,2.2,2.4c0.5,0.7,1.5,0.8,2.1,0.3c0.3-0.2,0.7-0.4,0.7-0.7s-0.3-0.6-0.6-0.8
	c-1.2-1.1-2.5-2.1-3.9-3.3L38.5,209.4z"/>
<path class="st3" d="M255.7,39.9l9.3-15.4l10.1,12.1C268.5,37.4,262.2,37.8,255.7,39.9z"/>
<path class="st3" d="M40.4,182.5l-0.9-3c0.6,0.3,1.2,0.8,1.8,1.2c2,2.1,2.7,5.1,1.8,7.9c-0.4,1.2-1,2.3-1.9,3.2
	c-2.6,2.6-6.2,4-9.9,3.9c-3.5-0.1-5.4-2.7-5.4-6.3c0.1-3.1,1.2-6,3.2-8.3c1.2-1.6,2.8-3.1,5.2-2.8c0.9,0.1,1.4,0.3,1.2,1.4
	c-0.2,0.8,0.3,1.3,1,0.9c1.2-0.6,1.5,0.2,1.9,0.9S39.3,182.8,40.4,182.5z M33.1,182.1c-0.7,0.5-1.1,0.9-0.8,1.8
	c0.5,1.6,0.7,3.2,1.2,4.8c0.1,0.3,1,0.6,1.4,0.6c0.4-0.3,0.7-0.8,0.7-1.3c-0.2-1.1-1.2-2.3-1-3.3C34.8,183.1,34,182.6,33.1,182.1z
	 M35.1,192.7c0.5-0.6,1.1-1.2,1.1-1.3c-0.4-0.6-1-1.1-1.6-1.5c-0.2-0.1-0.8,0.7-1.2,1.1L35.1,192.7z"/>
<path class="st5" d="M124,163c-0.8-0.1-1.6-0.3-2.4-0.5c-1.2-0.4-2.6-0.2-3.5,0.7c-0.7,0.5-2,0.3-3,0.3c-0.1-0.2-0.2-0.5-0.2-0.7
	c0.2-2.4,2.9-3.8,5.2-3.1c0.5,0.1,1,0.4,1.5,0.5C123.6,160.6,123.6,160.6,124,163z"/>
<path class="st5" d="M298.2,90.6c-2-2.6-3.9-5.1-5.9-7.6c-0.5-0.5-1-0.9-1.5-1.3c3-0.4,6.1,0,9,1.2
	C299.2,85.4,296.6,87.6,298.2,90.6L298.2,90.6z"/>
<path class="st0" d="M229.4,48.4c2.3,2.8,2.7,5.9,3.8,9.1c-2.5-0.2-4.7-0.4-7-0.7c-0.8-0.1-0.6-0.7-0.3-1.2c1.1-2,2.1-4,3.1-6
	C229.3,49.1,229.4,48.8,229.4,48.4z"/>
<path class="st0" d="M361.1,133.1l-1.7,2.1l0.3,0.4c0.4-0.3,0.9-0.6,1.3-1c1.6-1.5,1.8-1.5,2.5,0.5c0.1,0.2,0.1,0.4,0.2,0.6h0.4
	c0.1-0.4,0.2-0.9,0.3-1.3c0-0.6-0.3-1.6,0-1.8c0.8-0.6,1.8-1,2.7-1.1c1.3-0.2,2.7-0.2,3.4,1.3c1,1.9,0.5,3.7-0.4,5.4
	c-1.1,2.1-3.3,2.9-5.4,3.7c-1.6,0.6-3.3,1.1-5,1.3c-1.6,0.2-3.5,0.1-4.2-1.8c-0.3-0.8-0.3-1.6-0.2-2.3
	C356,136.1,358.2,133.9,361.1,133.1z"/>
<path class="st2" d="M294,61.5c3.1,3.7,5.6,8,7.2,12.6c-2.2-0.4-4.2-0.6-6.1-1c-2-0.3-4.1-0.2-6.1,0.5L294,61.5z"/>
<path class="st5" d="M266,73.7c1.1,0.6,1.9,1.4,2.5,2.4c1.8,3,0.4,5.7-3.2,6.1c-2.4,0.3-4.4-0.3-5.7-2.4c-1.1-1.8-0.9-5.7,1.3-6.9
	c0.6-0.3,1.9,0.1,2.6,0.5c0.5,0.3,0.6,1.3,0.8,2c0.1,0.4,0.2,0.7,0.2,1.1c0.3-0.2,0.9-0.4,1-0.7C265.9,75.1,266,74.4,266,73.7z"/>
<path class="st0" d="M56.7,66.6l2.7-5.3l6.4,6.6l-0.2,0.4L56.7,66.6z"/>
<path class="st5" d="M367.5,151c-0.3,0.1-0.7,0.3-0.9,0.6c-0.3,0.4-0.5,0.9-0.8,1.3c0.4-0.1,0.9-0.1,1.3-0.2s1-0.5,1.5-0.4
	s1.1,0.6,1.1,0.8c-0.2,0.9-0.1,2-1.1,2.5c-2.8,1.3-6.1,1.2-8.8-0.2c-1.8-0.9-2.1-3.9-0.7-5.9c1-1.6,3.2-2.1,4.8-1.1
	c0,0,0.1,0,0.1,0.1C365.1,149.1,366.2,150,367.5,151z"/>
<path class="st2" d="M142,103.1c0.2-2,1.1-4,2.6-5.4c0.6-0.6,1.5-0.7,2.2-0.3c1.6,0.6,3.1,4.2,1.7,5.9c-1.1,1.4-2.7,2.3-4.4,2.7
	C142.5,106.3,142,105.6,142,103.1z"/>
<path class="st5" d="M155.6,157.5c0-1.4,0-2.6,0-3.7s0.4-1.5,1.4-1.4c0.9,0,1.8,0.2,2.7,0.4c1.1,0.3,1.5,1.2,1.2,3
	c0,0.9-0.7,1.5-1.5,1.5c-0.1,0-0.1,0-0.2,0C158,157.3,156.8,157.3,155.6,157.5z"/>
<path class="st2" d="M245,13.2c-1.4,1-2.8,1.8-4.5,1.2c-0.4-0.1-1.1-0.6-1-0.8c0.1-0.5,0.4-1.2,0.8-1.3c0.8-0.1,1.6-0.1,2.3,0
	c0.3,0,0.8,0.2,0.9,0.1c1-1.9,1,0.1,1.4,0.3C244.9,12.9,244.9,13.1,245,13.2z"/>
<path class="st2" d="M213.7,17.1c-1,0.2-2-0.3-2.4-1.3c-0.3-0.7,0.8-2.7,1.6-2.9c0.4-0.1,0.7-0.1,1.1,0c0.8,0.4,1.6,0.8,2.4,1.4
	c0.3,0.2,0.4,1.2,0.2,1.3c-0.9,0.7-1.8,1.3-2.7,1.9L213.7,17.1z"/>
<path class="st5" d="M256.4,11.9c1.1,0.9,1.1,1.5-0.6,2c-1.4,0.4-2.8,1.2-4.3,0.3c-0.8-0.5-0.8-1.1-0.1-1.3c0.9-0.3,1.7-0.4,2.6-0.4
	c0.4,0,0.8,0.2,1.2,0.1C255.6,12.4,256,12.2,256.4,11.9z"/>
<path class="st5" d="M174.2,101.8c-0.3,1.6-1.2,1.7-2.2,1.9c-1.2,0.2-1.4-0.8-1.4-1.6c0.1-0.8,0.3-1.6,0.6-2.4
	c0.2-0.7,0.8-0.8,1.3-0.3C173.1,100.1,173.7,100.9,174.2,101.8z"/>
<path d="M445.4,118.9c-0.4,0.1-0.9,0.3-1.2,0.2c-2.8-1.7-5.6-0.6-8.1,0.5c-2.5,1.2-4.8,2.6-7,4.3c-1.3,0.9-2.5,1.9-3.6,3.1
	c-2.1,2.2-3.5,4.9-4.2,7.9c-0.6,2.5-0.7,5-0.4,7.6c0.4,2.4,2.4,3.9,4.5,4.7c5.5,2.5,12,2,17.1-1.4c3.4-2.1,5-5.2,5.6-9
	c0.3-1.3,0.4-2.6,0.4-3.9c-0.3-3-2.8-3.9-5.2-4.8c-2.2-0.9-4.8-0.8-6.9,0.3c-3.9,1.9-6.9,6.3-5.6,10.4c0.5,1.7,2.1,2.7,3.8,2.4
	c1.8-0.6,3.6-1.3,5.3-2.1c0.2-0.1,0.4-0.3,0.5-0.5c0.6-1.4,0.4-3.1-0.4-4.4c-0.4-0.4-1-0.6-1.5-0.6c-0.5,0.2-1.4,0.6-1.1,1.6
	c0,0.5-0.1,1-0.2,1.5c-1.7-0.4-2.2-2.8-1-4.1c0.8-1.1,2.3-1.6,3.6-1.1c1,0.4,1.8,1.2,2.1,2.2c0.4,1.6,0.6,3.3,0.3,4.9
	c-0.3,1.9-2,2.8-3.6,3.5c-1.2,0.4-2.4,0.7-3.6,0.9c-2.8,0.6-5.6-1.2-6.3-4c0-0.1,0-0.2,0-0.2c-0.7-3.7,0.7-6.6,3.1-9.2
	s5.5-4.3,9.1-4c3.5,0.1,6.7,1.8,8.8,4.5c1.1,1.5,0.9,3.4,0.6,5.1c-0.4,2.4-1,4.8-1.9,7.1c-0.6,1.3-1.5,2.4-2.6,3.3
	c-3,2.9-6.9,4.6-11,5c-4.5,0.3-8.9-0.3-12.6-3.2c-2.1-1.5-3.4-3.9-3.4-6.5c0.1-4.1,0.5-8.2,2.8-11.7c2-2.9,4.4-5.3,7.3-7.3
	c2.6-2,5.6-3.6,8.8-4.5c2.1-0.6,4.3-1.1,6.4,0.2c0.5,0.3,1,0.7,1.4,1.1L445.4,118.9z"/>
<path d="M482.5,155.6c-0.5-0.2-1.1-0.3-1.2-0.5c-0.3-1.3,0.6-2,1.5-2.8c1.3,0.8,2,2.3,1.6,3.7c-0.1,1.2-1,2.3-2.3,2.6
	c-1.4,0.5-2.8,1.5-4.3,0.4c-0.8-0.5-1.4-1.2-1.8-2.1c-1-2.6,0.4-7.5,2.4-9c1.5-1.2,3.1-2.2,4.8-3.1c1.5-0.7,3.2-0.6,4.5,0.4
	c1.6,1.2,2.7,2.9,3.2,4.9c1.1,4.3-0.4,7.7-3.5,10.8c-1.5,1.6-3.3,2.8-5.2,3.5c-3.7,1.2-7.8,0.4-10.9-2.1c-4-3.4-4.1-7.9-2.5-12.4
	c1-3.1,2.8-5.9,5-8.2c2-2,4.4-3.6,7-4.5c2.4-0.9,4.9-1.4,7.5-1.5c2.1,0,4.1,0.8,5.5,2.4c0.5,0.4,0.9,1,1.3,1.5
	c2.5,2.8,2.6,8.3,0.6,11.2c-0.3,0.5-0.7,0.9-1.2,0.4c-0.2-0.4-0.2-0.8,0-1.2c1.4-2.4,0.7-7.2-1.1-9.3c-1.5-1.7-3.3-2.9-5.5-2.8
	c-2,0.1-4.1,0.5-6,1.1c-2.8,0.9-5.3,2.6-7.2,4.9c-2.9,3.4-4.9,7.2-4.8,11.8c0.1,2.2,1.2,4.2,3,5.4c2.3,1.9,5.4,2.5,8.3,1.6
	c1.4-0.4,2.7-1.1,3.8-1.9c2.1-1.5,3.7-3.6,4.4-6.1c0.8-2.6-0.4-6.3-2.8-7.6c-0.8-0.4-1.7-0.5-2.5-0.2c-2.3,1.2-4.6,2.6-6,5
	c-0.7,1.4-0.8,3-0.5,4.5c0.1,0.4,0.4,0.7,0.8,0.9C479.7,158,482.2,156.8,482.5,155.6z"/>
<path d="M461.5,193.3c-3.7,1.4-6.9,2.6-10.1,3.8c-1.1,0.4-1.7,0.3-1.9-1c-0.3-1.5-0.7-3.1-1.2-4.5c-0.6-1.6-1.6-1.8-3.2-1.2
	c-2.1,0.8-4.4,1.5-6.5,2.2c-1,0.3-1.5-0.2-1.7-1.2c-0.5-2.6-0.9-5.2-1.3-7.9c-0.1-1-0.6-1.3-1.5-1.1c-1.3,0.3-2.5,0.6-3.8,0.9
	c-2.4,0.6-4.7,1.4-7,2c-0.9,0.2-1.4-0.3-1.3-1.2c0.1-1.5,0.2-3,0.2-4.5c0-1.7,0-3.4,0-5.4c-0.5,0.2-1,0.4-1.5,0.7
	c-2,1.2-3.9,2.5-5.8,3.8c-0.7,0.5-1.7,0.9-2.2,0.1c-0.4-0.7-0.4-1.5-0.2-2.2c1.1-4.1,2.3-8.2,3.5-12.3c0.1-0.3,0.1-0.5,0.1-0.8
	c0-1.2,0.7-1.5,2.1-1.3c-1.3,4.8-2.6,9.4-4,14.5c0.5-0.1,1-0.2,1.5-0.4c2.1-1.4,4.1-2.8,6.2-4.2c1-0.7,2,0,2,1.5
	c0.1,3.1,0.2,6.2,0.3,9.5c0.9-0.2,1.8-0.4,2.8-0.7c2.5-0.7,5-1.4,7.5-2.2c0.9-0.4,2,0,2.4,1c0,0.1,0.1,0.1,0.1,0.2
	c0.5,1.2,0.9,2.5,1.1,3.9c0.3,1.7,0.5,3.4,0.8,5.3l9.8-2.8c1.3,1.8,2.2,3.9,2.6,6.1c0.1,1,0.5,1.3,1.7,0.7c2.2-1,4.4-1.8,6.7-2.6
	c0.1,0,0.2,0,0.3,0c2.7-1.1,3.1-0.9,4.2,1.8c0.6,1.4,1,2.8,1.5,4.1c0.3,0.9,0.8,1.2,1.7,0.8c2-0.8,4-1.7,6-2.6
	c0.6-0.3,1.2-0.7,1.8-0.9c0.5-0.2,1-0.2,1.5,0c0.3,0.1,0.7,0.9,0.6,1.1c-0.4,0.5-0.9,0.9-1.4,1.1c-0.8,0.3-1.6,0.4-2.4,0.7
	c-1.9,0.8-3.6,1.7-5.5,2.3c-2.7,0.8-3.8,0-4.5-2.7C462.8,196.4,462.2,194.8,461.5,193.3z"/>
<path class="st0" d="M322,197.3c3.4-0.3,6.9-0.5,10.3-0.8c2-0.2,4-0.4,6-0.8c1.6-0.3,3.2-0.7,4.8-1.1c1.8-0.6,3.7-1,5.6-1.1
	c1.9,0,3.8-0.8,5.6,0.4c0.4,0.3,0.6,0.7,0.6,1.2c-0.1,0.5-0.4,0.9-1.1,0.4c-0.4-0.3-1-0.5-1.5-0.5c-3,0.4-6,0.8-9,1.3
	s-5.9,1.2-8.9,1.6c-4.6,0.6-9.3,1.1-14,1.6c-2.1,0.2-4.3,0.4-6.5,0.6c-3.5,0.2-7.1,0.4-10.4,1.8c-0.2,0.1-0.6-0.1-0.9-0.2
	c0.1-0.4,0.1-1.1,0.4-1.2c1.5-0.7,3.1-1.3,4.8-1.6c3.9-0.5,7.8-0.6,11.7-1c0.8-0.1,1.7-0.3,2.5-0.6L322,197.3z"/>
<path class="st5" d="M359.8,205.6c-0.5,0-1.1,0-1.6-0.1c-2.8-0.7-5.8-0.9-8.6-0.4c-2.2,0.3-4.5,0.4-6.7,0.6
	c-3.4,0.4-6.8,0.7-10.2,1.3s-6.4,1.1-9.6,1.9c-3.8,0.9-7.6,1.9-11.4,2.8c-1.3,0.3-2.4-0.3-3.6-1.8h2c0.8,0.1,1.6,0.1,2.4,0.1
	c3.5-0.9,7-2.1,10.5-2.9c3-0.7,6.1-1.1,9.1-1.6c2.1-0.4,4.1-0.8,6.2-1.1s4-0.4,5.9-0.5c3-0.3,5.9-0.4,8.9-0.4
	c2.1,0.2,4.2,0.6,6.2,1.2c0.2,0.1,0.4,0.4,0.6,0.6L359.8,205.6z"/>
<path class="st5" d="M349,185c-2.8,0-5.7-0.1-8.6,0c-3.5,0.2-7,0.8-10.5,1c-3.3,0.3-6.6,1-9.6,2.2c-0.7,0.3-1.4,0.7-2.1,1
	c-0.3,0.1-0.7,0.1-1,0.1c0-0.4-0.1-1,0.1-1.3c0.4-0.5,0.8-0.9,1.4-1.1c3.4-1,6.7-2.2,10.4-2.4c2.9-0.1,5.8-0.8,8.7-1.1
	c0.4,0,0.9-0.1,1.3-0.1c5.2-0.2,10.4-0.4,15.5-0.5c0.5,0,0.9,0.6,1.4,0.9c-0.4,0.3-0.8,0.5-1.2,0.7C352.9,184.7,351,184.8,349,185z"
	/>
<path class="st5" d="M355.3,176.8c-0.6,0.2-1.2,0.6-1.7,0.4c-3.5-0.7-6.8,0.2-10.2,0.6c-2.4,0.3-4.8,0.7-7.1,1
	c-0.6,0.2-1.3,0.3-1.9,0.2c-0.5-0.1-1.2-0.7-1.2-1.2c0-0.7,0.5-0.9,1.4-0.8c1.5,0,3-0.2,4.5-0.4c1.1-0.1,2.2-0.3,3.2-0.5
	c2.1-0.4,4.2-0.7,6.3-0.9c1.9,0,3.9,0.1,5.8,0.4c0.3,0,0.6,0.4,0.9,0.6L355.3,176.8z"/>
<path class="st5" d="M302.1,185c0.4-2.1,0.9-4.1,3.1-5.2c0.4-0.2,0.6-0.6,1-0.9c0.9-0.8,0.5-1.5-0.3-1.7c-1.3-0.1-2.7-0.1-4,0.1
	c-0.3,0.1-0.7,0.2-1.1,0.2c0.1-0.4,0.2-0.9,0.4-1.1c2.1-1.7,5.2-1.4,7,0.7c0.7,0.9,0.1,2.4-0.9,3.4c-1.3,1.2-2.4,2.7-3.6,4
	c-0.4,0.4-0.8,0.7-1.3,1L302.1,185z"/>
<path class="st5" d="M320.6,179.4v1c-2.1,0.3-4.1,0.6-6.1,0.9c-0.6,0.1-1.5,0.1-1.2-0.8c0.2-0.5,0.7-0.9,1.2-1
	C316.5,179.3,318.5,179.4,320.6,179.4z"/>
<path class="st5" d="M324.3,180.7c-0.5-0.4-1.3-0.9-1.3-1.3c0-1.1,0.9-1,1.7-0.8c1,0.2,2.1,0.2,3.1,0.3c0.4,0.1,0.7,0.3,1,0.6
	c-0.3,0.2-0.6,0.6-1,0.7c-1.1,0.1-2.2,0.1-3.3,0.2L324.3,180.7z"/>
<path class="st5" d="M304.1,190c-0.5-0.9-0.5-1.6,0.5-1.9c0.4,0,0.8,0.3,1,0.6C306,190.1,304.8,189.7,304.1,190z"/>
<path class="st5" d="M82.7,157.2c-1.7-0.3-1.9-1.4-2-2.4c-0.2-1.7-0.2-3.4-0.3-5.1c-0.2-3.6-0.5-7.2-0.8-10.8
	c-0.1-0.9-0.4-1.9-0.8-2.7c-0.3-0.8-0.2-1.2,0.5-1.6c0.9-0.4,1.2,0.4,1.3,0.9c0.4,1.6,0.7,3.3,0.8,5c0.3,3.8,0.3,7.6,0.6,11.3
	c0.1,1.2,0.5,2.4,0.7,3.6C82.8,156,82.8,156.6,82.7,157.2z"/>
<path class="st5" d="M71.8,135.8c1.2-0.2,1.7,0.2,1.7,1.2c0.1,3.1,0.1,6.2,0.3,9.4c0.1,2.1,0.3,4.1,0.6,6.2c0.1,0.5,0.3,1,0.8,1.4
	c0.8,0.3,1,0.6,0.5,1.3s-1.1,0.9-1.7,0.3c-0.5-0.6-0.9-1.3-1.2-2.1c-0.2-1-0.3-2-0.3-3c-0.1-4-0.2-8-0.3-12
	C72.1,137.6,71.9,136.8,71.8,135.8z"/>
<path class="st5" d="M89.3,137.8c1.1-0.2,1.5-0.2,1.9,0.9c0.6,2.4,1,4.9,1.1,7.4c0.1,2.8-0.2,5.7-0.9,8.4c-0.1,0.3-0.4,0.5-0.9,0.7
	C90.8,149.2,91.4,143.5,89.3,137.8z"/>
<path d="M34.9,31.6c0,1.8-2.9,4.3-5,4.3c-2.3,0-4.5-1.9-4.3-4c0.4-3.9,0.8-5.2,5.3-5.4C33,26.5,34.9,29,34.9,31.6z M31.6,28.7
	c-0.9,0.6-2.3,0.3-2.6,1.7c0,0.1-0.2,0.1-0.4,0.1c-1.1,0.2-1,1.2-0.9,1.8c0.2,0.7,0.7,1.3,1.3,1.7c0.8,0.4,3-0.8,3.5-1.6
	C33.4,31.2,33.2,30.5,31.6,28.7z"/>
<path d="M70.5,37.6c-2.4-0.4-4.5-1-5.7-3.3c-0.8-1.7-0.6-3.7,0.6-5.1c1.1-1.3,2.4-2.5,3.9-3.4c1.4-0.9,3.3-0.5,4.2,0.9
	c0.3,0.3,0.7,0.4,1.1,0.4c1.8-0.6,3.4,0.9,4.5,2.7c1,1.5,0.7,3.4-0.7,4.5C76.1,36.3,73.3,37,70.5,37.6z M70.7,35.9
	c-1.9-1.2-2.2-1.7-2-3.6c0.1-1.2,0.9-1.8,1.9-1.3c1.7,0.9,3.9,1.1,4.6,3.4c0.4-0.2,0.6-0.2,0.9-0.3c2.2-1.1,2.4-3,0.7-4.7
	c-0.5-0.6-1.3-0.8-2-0.4c-0.7,0.3-1.4,0.5-2.1,0.6c-0.3-2.1-0.7-2.5-2.3-1.6c-1.1,0.5-2,1.2-2.8,2.1c-1.6,1.7-1.4,3.9,0.3,5.1
	C68.6,35.4,69.6,35.7,70.7,35.9z"/>
<path class="st2" d="M38.5,209.4l-4.1,2.9c1.4,1.2,2.7,2.3,3.9,3.3c0.2,0.2,0.6,0.5,0.6,0.8s-0.4,0.5-0.7,0.7
	c-0.7,0.5-1.6,0.4-2.1-0.3c-0.7-0.8-1.5-1.6-2.2-2.4c-0.5-0.6-1-0.6-1.5,0c-0.9,1.2-2.4,2-2.2,3.9c0,0.2-0.7,0.7-1.1,0.7
	s-1.1-0.5-1.1-0.8c-0.1-0.6,0.1-1.3,0.4-1.8c0.9-1.2,1.8-2.3,2.8-3.4c0.6-0.6,0.4-1.1-0.1-1.5s-1.2-1.1-1.8-1.5s-0.8-1.1-0.3-1.6
	c0.4-0.3,0.9-0.3,1.4-0.1c0.6,0.5,1.1,1.1,1.6,1.7c0.8,1,1.3,1.1,2.3,0.2s1.8-1.5,3-1.2C37.7,209,38.1,209.2,38.5,209.4z"/>
<path d="M33.1,182.1c1,0.6,1.8,1,1.5,2.6c-0.2,1,0.8,2.2,1,3.3c0,0.5-0.3,1-0.7,1.3c-0.4,0.1-1.3-0.2-1.4-0.6
	c-0.5-1.6-0.7-3.2-1.2-4.8C31.9,182.9,32.3,182.5,33.1,182.1z"/>
<path d="M35.1,192.7l-1.8-1.6c0.4-0.4,1-1.2,1.2-1.1c0.6,0.4,1.2,0.9,1.6,1.5C36.2,191.5,35.6,192.1,35.1,192.7z"/>
<path class="st5" d="M31.6,28.7c1.6,1.7,1.8,2.5,1,3.7c-0.5,0.8-2.7,2-3.5,1.6c-0.6-0.4-1.1-1-1.3-1.7c-0.1-0.6-0.3-1.6,0.9-1.8
	c0.1,0,0.4,0,0.4-0.1C29.3,29,30.7,29.3,31.6,28.7z"/>
<path class="st5" d="M70.7,35.8c-1-0.1-2.1-0.4-3-0.9c-1.8-1.2-1.9-3.4-0.3-5.1c0.8-0.9,1.8-1.6,2.8-2.1c1.6-0.8,2.1-0.5,2.3,1.6
	c0.7-0.1,1.4-0.3,2.1-0.6c0.7-0.4,1.5-0.2,2,0.4c1.8,1.7,1.5,3.7-0.6,4.7c-0.2,0.1-0.5,0.2-0.9,0.3c-0.7-2.3-2.9-2.5-4.6-3.4
	c-0.9-0.5-1.7,0.1-1.9,1.3C68.4,34.1,68.8,34.7,70.7,35.8z"/>
</svg>
