<svg id="Layer_1" data-name="Layer 1" xmlns="http://www.w3.org/2000/svg" viewBox="0 0 523.06 316.44"><defs><style>.cls-1{fill:#fff;}</style></defs><path d="M382.83,243.27a9.28,9.28,0,0,0-.46-1.74c-1.18-2.66-2.61-5.23-3.59-8-1.52-4.24-3.12-8.6-.74-13a17.33,17.33,0,0,1,4.46-5.71c2.1-1.63,4-3.54,6-5.36a14.26,14.26,0,0,1,6.9-3.21,11.9,11.9,0,0,1,3.35.27c-.71-1.74-1.42-3.19-1.91-4.71-1.08-3.4-2.06-6.82-3.05-10.24-.6-2.09-1.21-4.17-1.72-6.28-.64-2.62-1.19-5.26-1.75-7.9-.4-1.87-.79-3.74-1.13-5.63a27.81,27.81,0,0,1-.47-3.52,59.26,59.26,0,0,1-.22-6.92,40.4,40.4,0,0,1,1.13-7.24,47.57,47.57,0,0,1,5-12.72c1.57-2.66,2.92-5.47,4.61-8.05a69.56,69.56,0,0,1,4.76-6c1.42-1.73,2.84-3.48,4.35-5.14a80.25,80.25,0,0,1,5.85-6.1,122.22,122.22,0,0,1,11.79-9.82c3.52-2.4,7.6-4,11.49-5.83a62.12,62.12,0,0,1,6.74-2.67c1.59-.53,3.36-.57,4.93-1.15,3.19-1.18,6.54-.87,9.81-1.24a11.78,11.78,0,0,1,6.62.75,1.89,1.89,0,0,0,.6.24,48.05,48.05,0,0,1,11.1,1.84c2,.53,4.14.69,6.17,1.15a35.87,35.87,0,0,1,4.86,1.49c3,1.14,6,2.3,8.9,3.66a24.65,24.65,0,0,1,4.63,2.94c2,1.53,3.79,3.24,5.7,4.84a35.22,35.22,0,0,1,6.76,7.45,17.16,17.16,0,0,0,2.5,2.38c2.69,2.67,3.89,6.1,4.63,9.68a56.64,56.64,0,0,1,1.56,9.7c.16,5.85.49,11.74-.95,17.53-.72,2.92-1.14,5.92-2,8.8a42.39,42.39,0,0,1-2.66,6.78c-2.13,4.31-4.23,8.66-6.7,12.78-2.62,4.36-5.61,8.51-8.54,12.67-2.4,3.4-4.92,6.71-7.45,10-1.74,2.27-3.53,4.52-5.42,6.66a13.81,13.81,0,0,1-2.58,1.9c2.16,2.88,3.87,5.24,5.65,7.54a46.31,46.31,0,0,1,6.56,11.88A118,118,0,0,1,502.62,250c1.16,4.24,2.15,8.54,3,12.84a102.82,102.82,0,0,1,1.78,11c.51,5.67.78,11.37,1,17.07a26,26,0,0,1-.73,5.06c0,.17-.26.31-.67.76a13.81,13.81,0,0,1-.58-2.61c-.06-2.9,0-5.8,0-8.7s0-6-.3-8.91c-.42-3.87-1.08-7.71-1.78-11.54-.64-3.56-1.36-7.11-2.24-10.62-.72-2.86-1.83-5.63-2.57-8.48a53.42,53.42,0,0,0-4.7-12.13,121.7,121.7,0,0,0-6.92-10.34c-.52-.76-1.18-1.43-1.73-2.09-2.77.28-4.34,2.38-6,4a20.45,20.45,0,0,1-6,4.09c-2,.89-4.16,1.5-6.25,2.23-.48.17-.95.37-1.44.52-3.32,1-6.66,1.93-9.94,3-1,.34-1.13-.16-1.4-.84l1-.67-.07-.33c-2.69.28-5.37.68-8.06.81-2.32.1-4.66-.09-7-.18-1.2,0-2.4-.1-3.59-.22-3.27-.34-6.56-.56-9.8-1.12a30.41,30.41,0,0,1-8.26-2.19c-3.65-1.79-7.68-3.1-10.48-6.32a5.3,5.3,0,0,1-1.28-2.08c-.53-2.41-2.26-4.08-3.44-6.09a34.71,34.71,0,0,0-2.59-3.86c-1.07,3.63-3.23,6.81-3.33,10.75s1,7.33,2.39,11c.46-1,.94-1.92,1.38-2.91.14-.3.09-.69.23-1,.41-1,.95-1,1.57-.15a9.34,9.34,0,0,0,4.62,3.75c1.07.35,1.34.12,1.37-.93.06-1.78,1.3-2.91,2.44-4.06.17-.17.58-.1.93-.16,0,.24.15.49.08.57-1.48,1.67-1.21,4.07-2.49,5.85-2.07,2.87-4.18,5.68-5.36,9.13a15.69,15.69,0,0,0-1,4.94c0,.53-.07,1-.12,1.7a2.12,2.12,0,0,0,.63-.08c1.4-.47,2.78-1,4.18-1.47,3.71-1.26,7.39-2.58,11.13-3.72,4.41-1.34,8.84-2.63,13.31-3.73a29.8,29.8,0,0,1,15.4.24c1.59.45,3.27.6,4.84,1.08,2.22.69,3.25,2,1.74,4-2.37-2.58-5.8-2.32-8.79-3.21-5.45-1.6-10.83-.81-16.15.91-2.14.7-4.39,1.1-6.55,1.74-2.87.86-5.71,1.82-8.56,2.74-1.82.59-3.68,1.08-5.44,1.81-5,2.07-9.91,4.26-14.88,6.37-3,1.26-6,2.35-8.93,3.7-2.13,1-4.1,2.29-6.16,3.42a1.61,1.61,0,0,1-1,.16c-.84-.13-1.66-.43-2.5-.52-2-.23-3.93-.44-5.9-.54-1.8-.08-3.62,0-5.43,0-4.75.08-9.51.09-14.26.29a55.27,55.27,0,0,0-13.52,1.85c-2.87.86-5.78,1.58-8.67,2.37-1.76.48-2.1.94-1.68,2.69a50.35,50.35,0,0,0,3.66,11.23,44.89,44.89,0,0,1,2,5.52c1.05.18,2.3.5,3.57.6a35.25,35.25,0,0,0,4.48,0c2.25-.11,4.5-.31,6.75-.5,4-.34,8-.55,11.91-1.09,3.75-.51,7.45-1.44,11.19-2a10.54,10.54,0,0,1,3.39.24c.36.06.63.6.94.92a4.32,4.32,0,0,1-1.34.85c-1.49.31-3,.44-4.53.73-2.35.45-4.66,1.09-7,1.43-3,.44-6,.68-9,1-2,.18-4.06.35-6.09.39-3.28.07-6.56,0-10,0,.12.5.1.72.2.81,2.23,1.95,2.17,5.15.31,7.5-2.46,3.09-6,3.92-9.42,5a46,46,0,0,1-7.42,1.39c-2.27.34-4.55.62-6.84.76-3.3.19-6.62.1-9.91.36-3.63.3-7.24,1-10.88,1.25a69.68,69.68,0,0,1-7.07-.18c-.49,0-1,0-1.48,0a4.88,4.88,0,0,1-4.73-3.4,1.47,1.47,0,0,0-.19-.35,32.23,32.23,0,0,0-4.52,0c-4.4.66-8.83,1.27-13.16,2.28-4.69,1.1-9.27,2.65-13.92,3.95q-7.6,2.13-15.23,4.14c-2.63.68-5.29,1.31-8,1.81a23.24,23.24,0,0,1-3.74.12,9.78,9.78,0,0,0-2,.05c-2.72.65-5.21-.26-7.64-1.18a41.76,41.76,0,0,1-5.37-2.74c-.42-.24-.61-.87-1-1.2-2.49-2-5.09-3.68-8.58-3.34-2.17.21-4.38-.11-6.56,0-1.83,0-3.66.29-5.48.49s-3.91.51-5.87.73c-4.06.45-8.11.94-12.18,1.29-1.86.17-3.75,0-5.63.07-1.45,0-2.91.27-4.35.23-4-.13-8-.21-11.94-.56-4.39-.38-8.73-1.24-13.12-1.49a45.38,45.38,0,0,1-9.93-1.72,28.07,28.07,0,0,1-8.16-4.44,21.66,21.66,0,0,1-4.93-5.63,11.13,11.13,0,0,1-1.78-6.55c0-4.61,1.8-8.84,2.34-13.32a10.25,10.25,0,0,1,.82-2.87,1.56,1.56,0,0,1,1.24-.72c.52,0,1,.34.73,1.2-.52,2-.81,4.11-1.23,6.16s-1,4.32-1.36,6.49c-.55,3.12-.39,6.06,1.52,8.86a23.83,23.83,0,0,0,11.53,8.75c3.6,1.4,7.46,1.71,11.29,2.12,2.87.3,5.74.72,8.62,1,1.63.17,3.27.22,4.9.29,4.52.19,9,.53,13.54.49,4.19,0,8.37-.45,12.55-.78,3.65-.29,7.29-.69,10.94-1s7.06-.86,10.6-1,7.25.05,10.36,2.27a22.58,22.58,0,0,1,2.94,2.68,10.29,10.29,0,0,0,5,2.48,26.57,26.57,0,0,0,4.68,1.06,22.67,22.67,0,0,0,6.16-.07c4.79-.94,9.55-2.08,14.27-3.36,5.47-1.49,10.85-3.28,16.31-4.82,3-.85,6.1-1.44,9.14-2.18,1.48-.36,2.91-.92,4.4-1.18,2.36-.41,4.75-.62,7.12-1,1.07-.15,2.12-.49,3.19-.54a5,5,0,0,1,1.76.62,19.37,19.37,0,0,1,4.45-7.86,25.27,25.27,0,0,1,3-2.26,29.35,29.35,0,0,0,3.43-2.59,6.49,6.49,0,0,0,1.09-2.46c.92-2.73,2.06-5.4,4.33-7.22a81.1,81.1,0,0,1,7.93-5.56,31.19,31.19,0,0,1,6.24-3.14c3.83-1.34,7.74-2.6,11.92-2.19a5.76,5.76,0,0,0,3.65-.76c3.47-2.07,7.55-2.22,11.28-3.5a32.56,32.56,0,0,1,9.22-1.74c3.57-.15,7.16-.12,10.71-.46,4.05-.39,8.09-.18,12.14-.19,3,0,5.9.31,8.85.51.6,0,1.18.17,1.91.29l11.45-5.67c-3.41-2.76-5.38-6.55-7.3-10.39l-.29.38a16.64,16.64,0,0,0-1.72-.91,3,3,0,0,0-1.49-.28,52.56,52.56,0,0,1-11.49.33,58.53,58.53,0,0,0-7.66.66c-1.63.14-3.27.24-4.9.32-2.62.13-5.24.22-7.86.33-.13,0-.31,0-.38.05-1.33,1.34-3,.46-4.49.65-4.41.56-8.83.95-13.26,1.35-2.56.24-5.13.35-7.7.57-3.61.32-7.21.69-10.82,1.05l-8,.82c-4,.41-8,.87-12.05,1.23-1.6.14-3.23,0-4.83.13-4,.38-7.94.85-11.91,1.29-1.75.19-3.5.35-5.24.57-3.43.42-6.86.9-10.3,1.3-2.05.24-4.12.35-6.18.58-1.82.2-3.64.49-5.46.71s-3.75.42-5.63.61c-1.22.12-2.46.2-3.57.29.33,1.94.7,3.87,1,5.81.38,2.51.68,5,1.07,7.53a1.46,1.46,0,0,1-1.28,1.83,1.21,1.21,0,0,1-1.41-1.3c-.12-2.39-.27-4.78-.53-7.16-.24-2.15-.64-4.29-1-6.64L226,259.19c.42,4,.85,7.95,1.25,11.89.23,2.22.07,2.53-1.88,3.52a11.78,11.78,0,0,1-.71-2.21c-.11-1,0-2.05,0-3.07-.22-3.33-.49-6.67-.74-10.08-2.42.18-4.68.32-6.94.51q-2.79.22-5.56.52c-3.88.42-7.76.89-11.64,1.31-1.36.14-2.73.16-4.09.3-4.15.41-8.29.86-12.44,1.3-1.83.19-3.67.35-5.5.57-2,.24-4,.5-6,.82-2.54.4-5.07.89-7.62,1.31s-4.83.77-7.25,1.11c-2.08.29-4.18.52-6.26.77-3.81.45-7.61.91-11.42,1.31-2.32.25-4.66.35-7,.57-2.54.24-5.07.53-7.6.8l-11.3,1.22c-3.11.32-6.23.56-9.33.93-4.83.58-9.65,1.23-14.47,1.84-3.61.46-7.22.89-10.82,1.37-3.17.41-6.33.92-9.5,1.3-2.88.34-5.77.59-8.67.82-3.47.28-6.94.48-10.41.75-3.25.26-6.53.44-9.75.91-4.49.65-8.93,1.58-13.41,2.33-2.11.36-4.27.46-6.37.87-2.38.46-4.71,1.17-7.08,1.72a13.63,13.63,0,0,1-2.14.15L12,283a4.21,4.21,0,0,1-2.47-4.1c-.08-3.84-.33-7.67-.42-11.5,0-1.21.36-2.42.4-3.64.14-4.77.28-9.55.29-14.32,0-3.88-.17-7.76-.24-11.64,0-1.94,0-3.87,0-5.8-.05-2.43-.21-4.86-.24-7.29,0-3.26,0-6.53,0-9.8-.06-4.67-.1-9.35-.28-14-.17-4.19-.53-8.38-.78-12.56-.2-3.37-.32-6.75-.55-10.11-.11-1.53-.44-3-.57-4.57-.09-1.08,0-2.18,0-3.26,0-.65-.16-1.3-.22-1.95-.36-3.5-.79-7-1-10.5-.16-2.37,0-4.75,0-7.12,0-3.35,0-6.7,0-10,0-2.46.23-4.92.24-7.38,0-6.07,0-12.15,0-18.23,0-3.93.07-7.87,0-11.8-.08-3.73-.35-7.45-.47-11.18-.08-2.46,0-4.93-.07-7.39-.21-4.72-.51-9.44-.79-14.16-.15-2.51-.38-5-.52-7.53-.21-3.67-.32-7.35-.56-11-.15-2.3-.51-4.59-.69-6.88s-.17-4.45-.38-6.67c-.48-5-1-10-1.56-14.94C.85,22.37.8,21.14.68,19.91.47,17.81.2,15.72,0,13.63a12.1,12.1,0,0,1,.14-1.79c.09-1.5.2-3,.26-4.5C.49,5.18.52,3,.6.86c0-1,.82-.86,1.45-.84C3.64.09,5.23.23,6.81.27,11,.38,15.09.45,19.23.55c2.43.07,4.87.16,7.3.27,3.58.15,7.15.42,10.72.47s7.2-.15,10.8-.15c2.93,0,5.85.18,8.77.2,5,0,10,0,15,0,2.84,0,5.69.27,8.53.23s5.94-.38,8.92-.47,6,0,9,0c4-.06,8-.22,12-.25,1.95,0,3.9.2,5.85.23.91,0,1.83-.24,2.75-.23,2.13,0,4.26.21,6.39.23,1.43,0,2.85-.18,4.28-.19,4.73,0,9.47,0,14.2-.05,2,0,3.94,0,5.91,0,3.72.07,7.43.17,11.15.26s7.29.17,10.93.28c2,.06,4,.24,6,.25,8.18,0,16.36,0,24.55,0,3,0,6,.14,9.05.27,3.4.14,6.79.36,10.18.53,2.16.11,4.33.14,6.49.27s4.47.4,6.71.47c1.64.05,3.28-.21,4.91-.17,2.7.06,5.38.25,8.07.39.4,0,.79.1,1.19.1,12.08,0,24.17,0,36.26,0,2.26,0,4.52-.22,6.78-.23,1.58,0,3.17.2,4.75.28.59,0,1.18,0,1.77,0,3.35.08,6.71.11,10.06.28,6.36.31,12.72.71,19.08,1.05,3.8.2,7.6.32,11.4.55,5.25.32,10.51.66,15.76,1.07,3.73.29,7.44.72,11.17,1.08q7,.67,14.08,1.32c2.24.2,4.48.42,6.72.51,4.1.16,8.21.14,12.3.35,3.15.16,6.28.59,9.42.87a17.18,17.18,0,0,0,2.77.12,2.19,2.19,0,0,1,2.49,1.67,24.19,24.19,0,0,1,.71,10.33c-.19,1.91,0,3.85-.1,5.77,0,1.5-.18,3-.24,4.5-.1,2.63-.29,5.26-.24,7.89.06,3.86.34,7.72.46,11.58.07,2.47,0,4.93.06,7.39.12,3.42.38,6.83.51,10.25.14,3.69.12,7.39.3,11.08.14,2.9.6,5.78.7,8.68q.21,6,.05,12a51.22,51.22,0,0,1-.76,6,6.79,6.79,0,0,1-.55,1.43l-.47.08a5.19,5.19,0,0,1-.57-1.58c-.05-3.46,0-6.91,0-10.36-.12-5.19-.34-10.38-.52-15.57-.18-4.86-.39-9.73-.53-14.59-.13-4.41-.15-8.82-.28-13.22-.14-4.74-.48-9.48-.49-14.22,0-4.22.28-8.44.51-12.65.21-3.79.57-7.57.76-11.36.06-1.18-.07-2.44-1.52-2.87a8.6,8.6,0,0,0-1.67-.3c-4.88-.48-9.73-1.14-14.67-1.14-5.38,0-10.77-.36-16.13-.78-4.59-.36-9.15-1.07-13.73-1.55-2.5-.26-5-.36-7.52-.56-3-.25-6.05-.53-9.08-.79-.35,0-.71,0-1.07,0L329,7c-2.22-.09-4.44-.12-6.65-.28-2.81-.21-5.6-.53-8.4-.76-1.73-.14-3.46-.24-5.19-.29-4.37-.11-8.75-.18-13.12-.28-3.32-.08-6.64-.25-10-.24-4.31,0-8.62.19-12.93.23-1.67,0-3.35-.22-5-.24-3.62,0-7.24,0-10.86,0-1.88,0-3.76,0-5.64,0q-6.74-.11-13.46-.26c-2.79-.07-5.59-.18-8.38-.27-3-.09-6-.11-9.06-.28-3.53-.2-7.06-.52-10.59-.77-.67,0-1.35,0-2,0-5-.08-10-.2-15-.25-1.68,0-3.35.25-5,.24-5.33,0-10.65-.15-16-.26-7.63-.16-15.27-.35-22.91-.53-3.65-.09-7.31-.26-11-.25-7,0-13.92.19-20.88.23-2,0-4-.24-6-.23-3.37,0-6.74.17-10.12.25-4.3.1-8.61.16-12.92.27-2.44.06-4.87.22-7.31.25-3,0-6,0-9,0Q55.8,3.1,40,3c-3.37,0-6.75-.17-10.12-.26l-8.38-.27c-3.25-.09-6.5-.14-9.76-.28C8.89,2,6.08,1.8,3.26,1.63a2.7,2.7,0,0,0-.63.07c.6,3.78.23,7.49,0,11.2a14.37,14.37,0,0,0,.23,1.82c.19,3.31.28,6.64.56,10,.36,4.1.94,8.19,1.3,12.3.23,2.66.21,5.33.33,8,0,.43.18.85.23,1.28.27,2.41.57,4.83.78,7.24.24,2.64.42,5.29.58,7.94.11,1.83.13,3.67.25,5.5.13,2.06.36,4.12.49,6.18.07,1,0,2.06,0,3.09.26,6.06.59,12.12.8,18.18C8.25,96.59,8,98.82,8,101c0,1.06.13,2.12.19,3.18.09,1.63.24,3.26.25,4.9q0,10.78,0,21.57c0,1.46-.24,2.91-.23,4.37,0,1.64.26,3.28.22,4.92-.09,3.72-.34,7.44-.43,11.16a44.43,44.43,0,0,0,.23,4.75c.22,2.76.52,5.52.76,8.29.34,4,.78,8.07,1,12.12.14,3,.76,6,.25,9a15,15,0,0,0,.37,3.6c.12,1.37.2,2.74.27,4.11.19,4.26.4,8.53.52,12.79.08,2.62,0,5.24,0,7.85.06,2.05.3,4.09.38,6.14,0,1-.12,2.08-.12,3.12,0,4.78-.05,9.55,0,14.33,0,1.84.34,3.67.46,5.51,0,.6-.23,1.21-.2,1.81.14,3,.47,6.05.47,9.08,0,2.69-.36,5.38-.55,8.07-.08,1.16-.16,2.32-.14,3.48,0,1.69.16,3.37.19,5,.07,3,0,6,.17,8.94a14.71,14.71,0,0,0,1,3.29,30,30,0,0,1,3.61-1.33c1.6-.39,3.26-.56,4.89-.84,2.18-.37,4.37-.77,6.56-1.14,1.59-.26,3.2-.48,4.79-.73,2.71-.43,5.41-1,8.14-1.29,2.92-.34,5.86-.48,8.79-.71,4-.31,8-.64,11.94-.93,1.8-.13,3.63-.09,5.43-.31,2.74-.33,5.46-.85,8.2-1.22,1.44-.19,2.9-.2,4.34-.37,2.26-.27,4.51-.62,6.77-.91,2.57-.33,5.13-.66,7.7-1,3.23-.37,6.46-.7,9.69-1l9.81-1.1c3.1-.35,6.19-.73,9.29-1.05,2.19-.22,4.39-.34,6.57-.56,3.33-.33,6.64-.7,10-1,2-.21,4.07-.35,6.09-.56,3.23-.34,6.46-.68,9.69-1.05,3-.35,6-.69,9-1.11,1.64-.22,3.25-.65,4.88-.89q5.46-.8,10.93-1.49c2.66-.34,5.33-.56,8-.87,4.46-.5,8.92-1.06,13.38-1.53,2.5-.26,5-.34,7.52-.57,3.43-.31,6.85-.75,10.28-1,3.23-.26,6.47-.35,9.71-.58,1.48-.1,3-.36,4.43-.53s3.15-.33,4.72-.53c2.39-.31,4.77-.66,7.15-1,1.74-.22,3.49-.41,5.23-.62l8.75-1c1.75-.2,3.49-.4,5.24-.58,3.37-.36,6.73-.72,10.1-1q5.85-.57,11.71-1.1c3.29-.29,6.6-.5,9.89-.81s6.55-.67,9.81-1.07,6.58-.92,9.88-1.3c2.28-.27,4.56-.42,6.85-.56s4.73-.07,7.08-.31c3.08-.31,6.14-.86,9.22-1.25,2-.25,4-.27,5.9-.62,3.32-.59,6.67,0,10-.39,2.44-.3,5-.17,7.34-.72,3.06-.7,6.09-.31,9.13-.46,2.4-.12,4.79-.22,7.19-.26C380.1,243.12,381.56,243.22,382.83,243.27ZM513.08,122.63a8.94,8.94,0,0,0-.76-2.18,22.25,22.25,0,0,0-2.74-3.29c-2.51-2.36-5.07-4.67-7.7-6.9a31.09,31.09,0,0,0-4.36-3.11,35.8,35.8,0,0,0-4.5-2c-2.62-1-5.22-2.19-7.92-3s-5.27-1.14-7.91-1.69L469,98.72c-.21,0-.51-.22-.6-.14-1.13,1-2,0-3-.31a14.09,14.09,0,0,0-3.27-.76c-2.26-.05-4.53.08-6.78.25a35.76,35.76,0,0,0-5.47.72,57.05,57.05,0,0,0-7.49,2.23c-3.83,1.49-7.6,3.17-11.35,4.87a29.18,29.18,0,0,0-4.18,2.37,35.44,35.44,0,0,0-3.44,2.66c-2.38,2-4.81,4-7.05,6.18-3.72,3.6-7.14,7.48-10.55,11.39-4.2,4.8-7.21,10.28-10.29,15.72a43.1,43.1,0,0,0-3.33,9,44.57,44.57,0,0,0-1.46,15.14c.23,4.56,1.72,8.82,2.43,13.26.41,2.55,1.69,5,2.11,7.52a59.44,59.44,0,0,0,3,10.81A71,71,0,0,0,404.7,213c1.72,2.72,3.21,5.59,4.85,8.36a6.21,6.21,0,0,0,1.64,2.14c1.61,1.09,3.43,1.86,5.06,2.93,4.86,3.16,10.4,3.9,15.95,4.61,1.66.22,3.34.27,5,.34q6.38.25,12.76.44c.71,0,1.42-.07,2.12-.11,2.25-.13,4.58-.66,6.73-.24a8.63,8.63,0,0,0,4.13-.31c3.41-1,6.72-2.29,10-3.61a16.15,16.15,0,0,0,4.2-2.34c2.05-1.66,3.94-3.53,5.83-5.38a87.82,87.82,0,0,0,6.68-6.83c3.13-3.81,6-7.81,8.93-11.81,3.1-4.27,6.22-8.54,9.07-13,2-3.18,3.58-6.69,5.44-10a63.16,63.16,0,0,0,5.2-12.13A60.68,60.68,0,0,0,521,152.29a62.31,62.31,0,0,0-.61-15.72c-.74-4-1.45-8.09-3.76-11.58-.77-1.17-1.12-3.47-3.55-2.39C513,122.61,513,122.56,513.08,122.63ZM282.41,302.28a1.29,1.29,0,0,0,1.12,1.62,24.46,24.46,0,0,0,4.9.76c3.62-.1,7.23-.43,10.83-.77,2.83-.27,5.65-.72,8.48-1a34.41,34.41,0,0,1,3.8-.18,24.05,24.05,0,0,0,2.77.23c3.47-.41,6.92-1.05,10.4-1.38a26,26,0,0,0,9.27-3c3.16-1.58,3.69-4.42,1.31-6.32-1.5-1.19-3-2.46-5.21-2s-4.63.76-7,1.07c-1.23.16-2.46.22-3.69.29-3.78.22-7.55.53-11.32.59-3.06.05-6.12-.15-9.17-.35-2.27-.16-4.53-.54-6.8-.73a2.6,2.6,0,0,0-1.71.44c-1.93,1.56-4.27,2.65-5.68,4.83C283.64,298.1,282.47,299.8,282.41,302.28Zm48.3-14.15c-.14-.54-.2-.87-.31-1.2-.83-2.5-1.7-5-2.49-7.49-.9-2.86-1.72-5.75-2.63-8.61a1.47,1.47,0,0,0-.87-.89,19.6,19.6,0,0,0-3.82-.28,29.77,29.77,0,0,0-10.81,2.81,43.86,43.86,0,0,0-11.29,7.11,16.74,16.74,0,0,0-5,8.76c0,.17.36.63.6.66,1,.12,2,.13,3,.19,1.91.13,3.82.28,5.74.37,1,.05,2-.07,3.07,0,1.22.08,2.44.4,3.66.4,2.34,0,4.69-.14,7-.25,1.15-.06,2.29-.15,3.43-.28C323.51,289,327,288.59,330.71,288.13Zm67.62-74.86c1-1.75,1.06-1.86.09-3.82a1.76,1.76,0,0,0-1.25-.83,10.13,10.13,0,0,0-7.29,2.69,106.8,106.8,0,0,0-8.13,7.5c-1.84,1.91-3.31,4.28-3.14,7.08a29,29,0,0,0,2.29,9.71c1,2.38,2.07,4.77,3.23,7.47.53-.29,1.51-.59,1.51-.88,0-1.28.93-1.65,1.75-1.87a28.55,28.55,0,0,0,8.23-3.86c2.14-1.41,2.56-2.81,1.71-5.22a26.83,26.83,0,0,1-1.39-5.72,16.61,16.61,0,0,1,1.56-9c.13-.28.22-.88.12-.93-1.24-.66-.43-1.63-.37-2.44a23.72,23.72,0,0,1,.47-2.49l.61.07Zm-12.75,31.29a22.12,22.12,0,0,1,1.63,2.91,14,14,0,0,0,6.07,7.4,1.4,1.4,0,0,0,1.62.15c1.69-.91,3.43-1.73,5.15-2.56.93-.45,1.87-.87,2.82-1.3-.35-.43-.8-.75-.77-1a29.44,29.44,0,0,1,.92-5.4,23.27,23.27,0,0,1,4-7.88,1.22,1.22,0,0,0-.05-1.16c-1.26-.9-2.59-1.7-3.93-2.56-.09.16-.26.41-.4.68-1.87,3.75-5,6.17-8.59,8a37.25,37.25,0,0,0-4.36,2.36c-.95.67-1.68,1-2.72.34C386.73,244.42,386.27,244.56,385.58,244.56Z"/><path d="M223.78,268.66c-.72,1.79-2.16,2-3.42,2.26-2.59.58-5.23.91-7.84,1.4-3.64.68-7.25,1.45-10.89,2.1-3.3.6-6.64,1-9.93,1.68-2.16.44-4.24,1.23-6.36,1.83-4.77,1.35-9.56,2.6-14.29,4.05a57.26,57.26,0,0,0-6.89,2.71,2.74,2.74,0,0,0-1.51,1.71,2.48,2.48,0,0,0,1.76,2.5,11.54,11.54,0,0,0,6.32.55c2.46-.41,4.93-.73,7.4-1.07,3.25-.45,6.49-.93,9.75-1.29,4.73-.51,9.47-.92,14.2-1.39,2.48-.25,5-.43,7.44-.83,4.52-.72,9-1.58,13.53-2.36,5.29-.92,10.6-1.74,15.88-2.73,2.51-.47,5-1.28,7.45-1.85,1.88-.43,3.78-.76,5.69-1.06,2.63-.4,5.29-.62,7.91-1.11,3.89-.72,7.76-1.55,11.62-2.44s7.76-1.91,11.64-2.89a15.06,15.06,0,0,0,1.78-.72l0-.48c-1.9-.19-3.78-.42-5.68-.53s-4.09-.1-6.14-.18c-4-.15-7.95-.34-11.92-.49-3-.11-6-.25-9-.25q-4.2,0-8.39.29a7.84,7.84,0,0,0-2.24,1l-.84-1.15a8.5,8.5,0,0,1,1.72-1.14,15.38,15.38,0,0,1,3.89-1c3-.18,6.1-.19,9.15-.17,5.39,0,10.78.11,16.16.28,2.35.07,4.68.41,7,.62a1.94,1.94,0,0,0,.59,0c3.33-.69,6.25.37,9,2.15a1.18,1.18,0,0,1-.3,2.22c-2.93,1.07-5.87,2.16-8.87,3q-6.29,1.74-12.67,3.08c-3.12.66-6.3,1-9.45,1.51-2.37.38-4.75.73-7.1,1.19-5.13,1-10.24,2.12-15.38,3.07-4.75.89-9.53,1.63-14.3,2.45-3,.51-6,1.07-9,1.57-2.8.47-5.61.92-8.42,1.31-.8.12-1.64,0-2.45,0-5,.43-10.07.84-15.1,1.37-3,.32-6,.9-9,1.28-2.1.27-4.21.38-6.31.57-.66.06-1.31.16-2,.25a7.57,7.57,0,0,1-7.74-3.65,3.56,3.56,0,0,1,1.38-4.25,27,27,0,0,0,3.38-1.24c2.34-1.48,5-2,7.56-2.85,4.85-1.53,9.79-2.73,14.7-4.05,2.69-.73,5.36-1.53,8.08-2.15s5.64-1.11,8.47-1.59c2.42-.41,4.85-.72,7.27-1.08,3.08-.45,6.16-.88,9.24-1.36.72-.11,1.41-.41,2.13-.57A9,9,0,0,1,223.78,268.66Z"/><path d="M368.74,218.21c-.76,0-1.5,0-2.24,0-3.07-.24-6.14-.74-9.2-.71-2.79,0-5.57.63-8.36.92-1.76.18-3.53.19-5.28.36-3.32.32-6.63.78-10,1-3.57.28-7.15.45-10.72.55a70,70,0,0,0-14.42,1.76c-2.95.72-6,1-9,1.46a28,28,0,0,1-4.44.5,23.55,23.55,0,0,1-5.75-.59c-1.6-.43-2.23-2-2.35-3.62a40.4,40.4,0,0,1-.13-5c.13-2.93.44-5.84.63-8.77.13-1.94.09-3.9.3-5.83.47-4.18,1.06-8.34,1.56-12.52.41-3.32.69-6.65,1.16-10a15,15,0,0,1,1.15-3.59,1.4,1.4,0,0,1,1.17-.6c3.73.5,7.26-.85,10.9-1.11,2.76-.21,5.52-.46,8.26-.82,2-.27,3.93-.78,5.91-1.11a29.2,29.2,0,0,1,4.05-.46,59.13,59.13,0,0,0,10.85-1.23c2.08-.42,4.23-.41,6.35-.67,3.89-.49,7.77-1,11.66-1.55,2.62-.36,5.24-.74,7.86-1.12l3.76-.54a1.07,1.07,0,0,1,.4,0c.32.11.82.19.9.41.44,1.18,2.26,1.09,2.24,2.84a60.87,60.87,0,0,0,.7,6.39c.1.93,0,1.88,0,2.82.08,2.31.07,4.62.3,6.91s.74,4.66,1.09,7c.2,1.36.37,2.72.47,4.09.21,3.1.38,6.2.54,9.3.05.89-.08,1.8,0,2.68.26,2.27.61,4.53.9,6.79a35.27,35.27,0,0,1,.39,3.53c0,.43-.38.88-.58,1.32Zm-.18-1.08a.49.49,0,0,0,0-.25,4.77,4.77,0,0,0-.17-.62A29.73,29.73,0,0,1,367.14,206a30.5,30.5,0,0,0,.1-3.31c-.12-2.46-.31-4.93-.52-7.39a40.21,40.21,0,0,0-.58-5.5,67.44,67.44,0,0,1-1.31-12.18c-.1-2.27-.49-4.53-.76-6.8-.16-1.39-.34-2.78-.49-4-1.82.16-3.69.27-5.55.5-3.37.42-6.73.92-10.1,1.36-2.82.37-5.65.71-8.48,1-1.4.16-2.83.16-4.22.38-2.81.44-5.6,1.08-8.43,1.47-3.83.54-7.69.92-11.54,1.37-3,.35-6,.7-9.06,1.07-3.56.44-7.13.84-10.68,1.39-.74.11-1.87-.18-2.14,1.2-.43,2.16-1.13,4.26-1.55,6.42-.46,2.36-.73,4.76-1.08,7.13s-.82,4.93-1.06,7.41c-.28,3-.44,6-.54,8.92-.15,4.1-.23,8.19-.27,12.28a2.91,2.91,0,0,0,2.3,3.11,13.28,13.28,0,0,0,2.87.31,45.2,45.2,0,0,0,5.7-.36c2.62-.38,5.22-1,7.82-1.48a67.65,67.65,0,0,1,6.67-1.3c3.76-.35,7.55-.41,11.32-.59,1.94-.09,3.89-.15,5.83-.28,1.27-.08,2.54-.24,3.8-.41,2.25-.29,4.49-.68,6.75-.89s4.34-.14,6.5-.31c1.69-.14,3.37-.56,5.06-.7,2.35-.2,4.7-.28,7.05-.34a10.4,10.4,0,0,1,2.35.27C364.79,216.23,366.67,216.69,368.56,217.13Z"/><path d="M88.89,173.87c1.93-.2,2.46.35,2.16,2.26-.34,2.19-.69,4.37-1,6.57-.24,1.83-.37,3.68-.56,5.52-.2,2,1.28,3.48,3.84,3.77a70.68,70.68,0,0,0,13.72-.27c3.07-.25,6.14-.49,9.21-.82,1.82-.2,3.63-.56,5.45-.83l7.4-1,10-1.4c2.35-.33,4.71-.65,7.06-1,3.28-.51,6.55-1.1,9.83-1.59,2.77-.41,5.55-.73,8.33-1.08,5-.63,9.93-1.26,14.9-1.86,3.21-.39,6.42-.73,9.63-1.09,3.53-.4,7.06-.84,10.59-1.19,2-.21,4.06-.25,6.09-.42,2.85-.24,5.69-.47,8.52-.82a1.8,1.8,0,0,0,1.68-2.44c-.93-4-2-8-2.8-12.08-.54-2.61-.81-5.28-1.19-7.92s-.74-5-1-7.55c-.17-1.53-.19-3.08-.3-4.63a49,49,0,0,0-2.68-12.65,69.1,69.1,0,0,1-2-7.67,1.51,1.51,0,0,1,.82-1.22,25.94,25.94,0,0,1,9.46-.35c1.26.18,2.55.17,3.82.31,2.53.27,5.06.57,7.58.86a6.48,6.48,0,0,1,1.42.22,19.47,19.47,0,0,1,1.88,1c-.32.41-.63.83-1,1.23-.14.17-.32.31-.21.2a55.45,55.45,0,0,0-6.49-1.54c-3.29-.37-6.62-.49-9.93-.55a37.15,37.15,0,0,0-4.56.49c-.72.08-.83.31-.61,1,.83,2.84,1.62,5.7,2.29,8.58s1.35,5.78,1.74,8.71c.59,4.4.86,8.84,1.4,13.24.43,3.48.93,6.95,1.63,10.37.58,2.85,1.51,5.63,2.25,8.45a10.63,10.63,0,0,1,.36,2.09c.15,2.33-.27,3.21-3,3.47-3.51.33-7,.55-10.54.82s-6.77.45-10.14.83c-4.79.53-9.56,1.22-14.34,1.83-3.61.46-7.22.87-10.82,1.36s-7.19,1.08-10.78,1.57c-2.91.4-5.84.7-8.74,1.12-3.33.47-6.65,1.07-10,1.56-2.77.4-5.56.72-8.34,1.11s-5.36.82-8,1.2c-2.39.33-4.78.63-7.17.93-2.74.35-5.48.72-8.22,1-1.89.19-3.8.23-5.69.34a45.16,45.16,0,0,1-4.63.24,49.58,49.58,0,0,1-6.68-.69c-3-.57-3.36-2.89-3.14-5.48s.73-4.94,1-7.42C88.66,178.34,88.74,176.16,88.89,173.87Z"/><path d="M198.07,59.06l-9.51.48c-2.67.14-5.35.28-8,.45-2.43.16-4.85.39-7.27.52-1.57.07-3.14,0-4.71,0L153,60.8c-.47,0-.93.19-1.41.24-1.47.17-2.94.37-4.42.45-1.89.09-3.79.06-5.68.13-1.15,0-2.3.16-3.44.24-1.64.09-3.27.17-4.9.27-4.56.27-9.12.52-13.67.82-1.84.12-3.68.48-5.52.48a41,41,0,0,1-5.5-.54,1.14,1.14,0,0,1-.65-.89,1.41,1.41,0,0,1,.66-.9c.22-.15.61,0,.92,0,2.33,0,4.66.06,7,0,3.58-.12,7.16-.36,10.74-.51,4.75-.2,9.5-.35,14.25-.55,3.56-.15,7.11-.33,10.67-.54,2.12-.12,4.24-.42,6.37-.5,2.32-.09,4.64,0,7,0s4.63-.19,6.94-.25c1.14,0,2.28,0,3.42,0,1.85-.06,3.71-.18,5.56-.26l22.45-.87c1.39,0,2.78-.21,4.17-.15a1.67,1.67,0,0,1,1.24.89,58.11,58.11,0,0,1,1.59,5.63q.63,2.74,1,5.54c.23,1.81-1.8,3.18-3.59,3.43-3.85.54-7.63,0-11.43-.52-1.7-.21-3.44-.15-5.16-.3-3.5-.32-7-.7-10.49-1-1.23-.12-2.46-.24-3.69-.28-3.42-.12-6.84-.16-10.25-.29-2-.08-4-.34-5.93-.42a30.07,30.07,0,0,0-3.41.17c-2.55.17-5.11.37-7.67.52-1.86.12-3.72.21-5.59.27-5.85.19-11.71.61-17.55.45-3.39-.1-6.88.28-10.2-1a6.45,6.45,0,0,1-4-5.37c0-1,.66-1.27,1.44-1.33s1.23.46,1.26,1.32a4.45,4.45,0,0,0,4.18,4.28c4.64.21,9.29.44,13.94.51,2.29,0,4.6-.31,6.9-.43q4.13-.21,8.27-.35c3.5-.11,7-.16,10.51-.26,2.22-.07,4.44-.34,6.65-.23,4.82.24,9.63.67,14.44,1,2.42.18,4.83.39,7.25.54,4.6.28,9.2.58,13.81.79,2.09.1,4.2.08,6.3,0a1.62,1.62,0,0,0,1.65-2.17c-.67-2.93-1.4-5.84-2.17-8.74-.06-.26-.56-.54-.87-.56C203.64,59.31,200.94,59.2,198.07,59.06Z"/><path d="M142.73,50.08c-3.75-.18-7.5-.47-11.26-.5-4.08,0-8.16.14-12.24.24a3,3,0,0,0-.78.11c-1.3.3-2.15-.29-2.15-1.66,0-1.14.21-2.28.23-3.42,0-1.89-.86-2.83-2.67-2.79-1.59,0-3.18.26-4.76.21a2.93,2.93,0,0,1-1.62-1c-.22-.21-.08-.78-.1-1.18.41,0,.81,0,1.22,0s.88.07,1.32.07c3.57,0,7.14-.06,10.7,0,5.9.13,11.8.38,17.7.51,4.05.08,8.1,0,12.15,0,3.74,0,7.48.16,11.22.22,1.26,0,2.53,0,3.79,0l11.05.27,8.84.26c3.28.1,6.56.2,9.85.26,2.15,0,4.3,0,6.45,0,1.15,0,1.59.49,1.59,1.65A21.86,21.86,0,0,1,202,50.76a2.21,2.21,0,0,1-2,1.67c-2.95.14-5.9.09-8.86.06-1.32,0-2.63-.21-4-.26-2.93-.11-5.85-.2-8.78-.27-4.09-.1-8.19-.05-12.27-.31-4.82-.3-9.63-.86-14.45-1.29-.57,0-1.16,0-1.74,0h-7.17Zm-24-8.13v2.36a21.75,21.75,0,0,0,0,2.8c0,.29.55.57.9.75s.55,0,.83,0c1.54.09,3.07.26,4.61.27,1.86,0,3.72-.2,5.57-.13,4.36.17,8.73.47,13.09.7,3.75.19,7.51.36,11.26.54,1.68.08,3.36.16,5,.28,3.39.25,6.76.6,10.15.76,2.68.13,5.36,0,8.05,0,.64,0,1.28.17,1.93.16a54.66,54.66,0,0,1,6.52-.1,50.45,50.45,0,0,0,12,.17,1.76,1.76,0,0,0,1.29-.85,27.75,27.75,0,0,0,1-4.68c0-.32-.8-1-1.29-1.09q-5.66-.53-11.33-.84c-4.15-.23-8.31-.43-12.46-.52-4.69-.11-9.39-.07-14.09-.12-5,0-10-.08-15-.18-6.38-.14-12.77-.36-19.15-.52a9.83,9.83,0,0,0-1.41.22,14.93,14.93,0,0,1-2.47.27C122.09,42.23,120.33,42.06,118.69,42Z"/><path d="M196.54,196.68a4.88,4.88,0,0,1,.66,4.4c-.46,2-1.1,4-1.66,6l4.8-.91c-.62,2.2-.62,2.2-3.43,2.39-2,.13-2,.14-2.56,2.19a6.28,6.28,0,0,1-1.12,1.62l-.46-.19c0-.9.09-1.79.15-2.85-.61.09-1.27.2-1.94.29-4.24.63-8.48,1.22-12.71,1.9-4,.65-8,1.48-12,2.08-3.24.49-6.51.75-9.77,1.12-3.88.43-7.76.86-11.63,1.32-3.53.43-7,1-10.56,1.33a25.72,25.72,0,0,1-4.3,0c-1-.05-1.1-.72-1-1.68.3-3.4.46-6.82.63-10.23,0-.23-.22-.49-.37-.72-.35-.52-1.11-1.36-1-1.48a4.35,4.35,0,0,1,2-1.63c2.14-.45,4.34-.57,6.51-.88,1.81-.26,3.61-.64,5.42-.9,2.38-.35,4.78-.64,7.16-1,2.86-.39,5.72-.79,8.58-1.16,2.56-.34,5.13-.66,7.69-1,2.78-.35,5.56-.7,8.35-1,1.92-.22,3.84-.37,5.76-.6,2.52-.3,5-.66,7.55-1,1.09-.14,2.18-.28,3.28-.34,2.16-.12,4.33-.16,6.5-.29,1.05-.06,2,0,2.31,1.37l-1.08,1.1c-2.29-1.31-4.62-.88-6.94-.67-1.36.13-2.72.2-4.08.36-2.47.3-4.93.69-7.41,1-2.19.25-4.39.38-6.58.63-2.78.32-5.56.71-8.34,1-2.4.29-4.8.5-7.19.84-3.12.43-6.23.93-9.33,1.44s-6.19,1.07-9.38,1.63l.52,1c-2.37,2-5.23.95-8.06,1.32v4.5c0,1.35,0,2.69,0,4-.08,2.63-.08,2.72,2.43,2.46,4.06-.4,8.1-1,12.15-1.41,2.28-.25,4.57-.34,6.85-.57,3.92-.41,7.85-.86,11.77-1.32,2.91-.34,5.83-.68,8.74-1.1,2.16-.31,4.29-.77,6.44-1.14q5.22-.92,10.46-1.79c.69-.12,1.38-.21,2.07-.33,1.57-.27,1.65-1.7,2-2.78.53-1.83.82-3.73,1.17-5.61a3.67,3.67,0,0,0,0-1.36C195.35,197.35,195.5,197.08,196.54,196.68Z"/><path d="M80.49,107a14.55,14.55,0,0,1,2.38-.53c.51,0,1.38.12,1.47.39a4.22,4.22,0,0,1,0,2.23c0,.17-1,.18-1.6.15-1,0-1.93-.25-2.9-.23-1.5,0-3,.22-4.49.25a55.22,55.22,0,0,0-11.09,1.28,35.81,35.81,0,0,1-7.45.83c-3,.06-4.75-1.54-4.74-4.55,0-4,.24-8,.49-12,.17-2.67.46-5.34.85-8a7.23,7.23,0,0,1,1.14-2.42.92.92,0,0,1,.89-.2c1.44,1.23,3.05.13,4.55.35a13.83,13.83,0,0,0,2.09-.21c3.65,0,7.31,0,11,0,1.88,0,3.76-.29,5.64-.49,1-.11,2.38,1.16,2.76,2.71A12.1,12.1,0,0,1,81.81,92a35.15,35.15,0,0,0-.32,4.49c-.16,2-.35,4-.54,6C80.82,103.93,80.67,105.28,80.49,107Zm-15.71,1.49c-.18-1-.23-1.47-.37-2a11.52,11.52,0,0,1-.55-1.66c-.1-.9-.54-1.27-1.4-1.21a23.39,23.39,0,0,1-2.88.21c-.44,0-.85-.53-1.28-.83.3-.41.57-1.13.91-1.17a25.41,25.41,0,0,1,4.85-.19c.52,0,1.22.81,1.43,1.39.54,1.55.86,3.17,1.3,4.86a4.92,4.92,0,0,0,.67,0c2.47-.22,4.93-.52,7.4-.67s2.89-.45,3.5-2.71a49.54,49.54,0,0,0,1.52-15.76,2.44,2.44,0,0,0-2.72-2.54c-4.86,0-9.72,0-14.58,0-.52,0-1,.14-1.56.19l-5.31.5A2.6,2.6,0,0,0,55,88.4c-.32,2.48-.65,5-.8,7.46-.19,3.24-.3,6.5-.26,9.74,0,2.65.56,3.24,2.3,3.51-.24-1.55-.53-3.08-.68-4.63a1.43,1.43,0,0,1,.61-1.1,1.08,1.08,0,0,1,1.05.22,14.21,14.21,0,0,1,.7,2.24c.24.89.47,1.78.6,2.3a9.18,9.18,0,0,1,2.33-.44C62.06,107.82,63.22,108.15,64.78,108.47Z"/><path d="M80.53,127.45c2.26.45,4.64.61,6.75,1.45,1.91.75,3.83,1.77,4.06,4.54.11,1.38,1.33,2.86,2.42,3.92,1.62,1.56,1.93,3.64,2.55,5.52a12.14,12.14,0,0,1,.49,6.22,13.29,13.29,0,0,1-3.36,6.68,20.81,20.81,0,0,1-9.29,6,40.85,40.85,0,0,1-5.73,1.71,22.09,22.09,0,0,1-5.12-.21,18,18,0,0,1-6.84-2.49,12.9,12.9,0,0,1-6.94-10.36A14.23,14.23,0,0,1,60.1,143a19,19,0,0,1,2.61-5,51,51,0,0,1,7.13-7.11C72.87,128.42,76.6,127.64,80.53,127.45Zm4.9,2.58a23,23,0,0,0-4.21-.65,18.52,18.52,0,0,0-11.86,4.13c-3.39,2.87-6.2,6.15-7.65,10.4a12.48,12.48,0,0,0,.5,9.11c.64,1.5,1.15,3.33,2.31,4.27,3.38,2.73,7.3,4.56,11.77,4.38a28.81,28.81,0,0,0,6.65-1.26,20.2,20.2,0,0,0,9-5.69,10.53,10.53,0,0,0,3.09-8,22.89,22.89,0,0,0-1.34-6.1,17,17,0,0,0-4.47-6.9c-2.38-2.15-5-1.32-5.94,1.57a11,11,0,0,1-.75,1.52c-.38-.54-.83-.9-.77-1.15A8.86,8.86,0,0,1,85.43,130Z"/><path d="M116.22,152.37a3.13,3.13,0,0,1-2.51-2.64c-.44-2.13-1.14-4.2-1.75-6.28-.37-1.27-1.44-1.52-3.38-1.21a10,10,0,0,1-3.21-.19c-.33-.06-.57-.64-.84-1,.51-.33,1-.93,1.55-1a23.7,23.7,0,0,1,3.49.31c.6-1.64,1.43-1.85,2.62-.86s2.26.21,3.33,0c4.2-.76,8.37-1.66,12.56-2.5,2.83-.57,5.65-1.19,8.5-1.69,3.22-.56,6.47-1,9.71-1.5,2.42-.37,4.84-.7,7.25-1.12,3.83-.66,7.65-1.33,11.45-2.12a47.36,47.36,0,0,0,5.45-1.63,1.65,1.65,0,0,1,2.29,1.47c0,1.16-.06,2.33,0,3.49.12,1.76.32,3.5.52,5.25a7.4,7.4,0,0,0,.4,1.37c.39,1.13.07,1.5-1.11,1.61-3.36.3-6.73.61-10.07,1-4.9.65-9.79,1.38-14.67,2.16-3.36.53-6.7,1.24-10.05,1.79-2.25.36-4.54.51-6.78.89-2.41.4-4.79,1-7.19,1.43-1.19.23-2.4.43-3.59.7C118.68,150.58,117.09,150.86,116.22,152.37Zm54-21.34c-.84.21-1.25.32-1.67.41-2.22.46-4.42,1-6.65,1.35-3.41.53-6.85.89-10.27,1.39-4.58.67-9.16,1.37-13.73,2.13-4.17.69-8.34,1.4-12.48,2.25-3.15.65-6.24,1.55-9.37,2.29-1.06.25-2.17.37-3.32.56a58.1,58.1,0,0,1,3.08,7c.5,1.72,1.23,1.2,2.28.93,1.85-.48,3.72-.92,5.6-1.23,5.69-.94,11.39-1.8,17.08-2.7s11.29-1.81,16.94-2.69c4.14-.64,8.28-1.29,12.44-1.83,1.18-.16,1.37-.72,1.21-1.68-.05-.25-.19-.49-.22-.74C170.85,136.07,170.56,133.67,170.23,131Z"/><path d="M271.67,103.5l-1.64-.39c.13-.49.09-1.18.41-1.44s1.47-.61,1.61-.42a10.07,10.07,0,0,1,1.79,3.12c1.08,3.67,2.14,7.36,2.92,11.1a17.93,17.93,0,0,1-.31,8.64,10.22,10.22,0,0,1-6.62,6.78,50.71,50.71,0,0,1-9.47,2.83,38.32,38.32,0,0,1-9.27.07A17.91,17.91,0,0,1,243,131a9.3,9.3,0,0,1-4.18-6.69c-.75-4.73,1.59-8.62,3.46-12.64a30.31,30.31,0,0,1,6.64-9.07A49.82,49.82,0,0,1,255.29,98c2.1-1.45,4.35-2.54,7-1.81a6.52,6.52,0,0,1,2.51,1.25,8.52,8.52,0,0,1,2.84,8.43c-1.29-.32-1.52-1.17-1.52-2.21a5.81,5.81,0,0,0-2.89-5.2,4.93,4.93,0,0,0-4.75-.17,23.71,23.71,0,0,0-7.33,4.69,25.85,25.85,0,0,0-7.12,9.53c-1,2.46-2.22,4.83-3.06,7.33a8.76,8.76,0,0,0,5.85,11,37.51,37.51,0,0,0,8.45,1.53,28.2,28.2,0,0,0,16.47-4.52,7.76,7.76,0,0,0,3.48-5.88c.83-6-.93-11.57-2.77-17.13A5.87,5.87,0,0,0,271.67,103.5Z"/><path d="M404.52,280.62c-.58,4.07-1.23,7.95-1.64,11.85s-.54,7.93-.84,11.89.71,7.83.2,12.08a6.19,6.19,0,0,1-2.05-4.75c0-4.66.07-9.34.29-14,.12-2.59.58-5.17.94-7.75s.81-5.37,1.29-8.48c-1.31.46-2.33.85-3.37,1.16-2.58.78-5.17,1.5-7.75,2.29-1.41.43-2.77,1-4.2,1.41-3.58.91-7.18,1.74-10.78,2.56-.76.18-1.56-.05-1.52-1,0-.39.66-1,1.12-1.1,3.25-.83,6.52-1.55,9.78-2.31.47-.11,1-.19,1.42-.34,4.56-1.46,9.14-2.9,13.68-4.42,3.22-1.07,6.36-2.34,9.59-3.38,3.63-1.18,7.34-2.1,11-3.32,2.17-.72,4.22-1.81,6.33-2.71,1.36-.58,2.72-1.17,4.11-1.65a3.11,3.11,0,0,1,1.71-.07c.43.11.78.58,1.16.88-.36.4-.68,1.1-1.09,1.15-3.27.47-5.92,2.47-8.95,3.51-3.78,1.29-7.57,2.56-11.38,3.77C410.55,278.87,407.54,279.72,404.52,280.62Z"/><path d="M129.23,25.57c-3.91.32-7.83.52-11.72,1-1.82.23-3.56,1.11-5.37,1.53a6.64,6.64,0,0,1-2.16-.27,6.69,6.69,0,0,1,.66-1.67,4.91,4.91,0,0,0,1.3-4.12c0-.26-.08-.68.06-.8,1-.92,1.82-2.16,3.52-2.26,4.14-.25,8.27-.68,12.41-1,3.35-.28,6.71-.53,10.06-.82,1.84-.15,3.67-.38,5.51-.51s3.55-.14,5.31-.3c3.58-.31,7.16-.71,10.75-1a1.94,1.94,0,0,1,1.47.72c1.2,1.72,2.24,3.55,3.41,5.28.64.94,1.45,1.77,2.15,2.66.87,1.11.72,2.25-.59,2.62a19.59,19.59,0,0,1-4.77.65,55,55,0,0,1-5.59-.25c-1.34-.1-2.68-.36-4-.49-2.12-.21-4.24-.44-6.36-.53-3.55-.15-7.1-.21-10.65-.28-1.79,0-3.58,0-5.37,0ZM113.64,26a10.92,10.92,0,0,1,1.71-.5c3.85-.38,7.7-1,11.55-1a153.44,153.44,0,0,1,16.19.16c4.41.4,8.85.39,13.27.59,1,0,2.11.25,3.16.23,1.6,0,3.2-.2,5-.32-.37-.59-.56-.93-.78-1.23-1.11-1.52-2.54-2.89-3.28-4.57-.86-2-2.23-2-3.9-1.9-5.29.29-10.59.53-15.89.83-2.1.12-4.21.33-6.3.56-2.82.32-5.63.68-8.44,1-1.73.22-3.46.47-5.2.69-2.06.25-4.12.48-6,.7C115.2,22.75,113.7,24.15,113.64,26Z"/><path d="M103.77,89.56c1.31.21,1.61,1.19,1.79,2.19.31,1.83.56,3.66.81,5.5q.31,2.28.57,4.56c.11,1,.18,1.94.23,2.9.19,3.5.35,7,.55,10.48.15,2.6.3,5.2.57,7.78a1.68,1.68,0,0,0,1.06,1.2,23.21,23.21,0,0,0,4.41,0c2.27-.24,4.52-.63,6.78-1,1.25-.19,2.51-.36,3.76-.56,1-.17,1-1.06.77-1.65a11.45,11.45,0,0,1-.25-4.8c.1-1.83,0-3.67,0-5.5.12-4.08.32-8.15.45-12.23.07-2.06,0-4.12.09-6.18,0-1-.32-1.31-1.25-1.22-2.89.27-5.78.48-8.66.81-1.59.17-3.15.57-4.73.77a3.5,3.5,0,0,1-1.28-.38c.07-1.69,1-2,2.35-2,2.06,0,4.11-.38,6.17-.54,2.47-.19,4.94-.37,7.41-.47,1.16,0,1.68,1,1.58,2.81-.17,2.82-.42,5.64-.5,8.47,0,2,.22,3.9.21,5.86,0,2.57-.3,5.15-.21,7.71s.46,5.25.82,7.86c.22,1.54,0,2.1-1.55,2.34-4,.63-8,1.38-12,1.82a31.64,31.64,0,0,1-6.22-.25c-1.21-.11-1.68-1.21-1.65-2.89.06-2.41,0-4.82,0-7.24,0-1.76-.13-3.52-.25-5.28-.21-3.07-.38-6.15-.72-9.21s-.85-6-1.31-9C103.4,91.32,102.57,90.36,103.77,89.56Z"/><path d="M217.17,105.49a25.63,25.63,0,0,0,.28,2.63c.17.85-.14,1.51-.88,1.6s-1-.4-.84-1.3a3.57,3.57,0,0,0-.56-2c-.09-.2-.65-.29-1-.25-1.94.28-3.89.91-5.81.84-3.21-.11-6.44-.39-9.3-2.26s-4.58-7.13-2.75-10.34A21.27,21.27,0,0,1,207,84.87c3-1.2,6.21-1.39,9.14.66a1.5,1.5,0,0,0,1.14.14c2.69-.83,4.8.43,6.74,2a12.48,12.48,0,0,1,4.17,6.7,4.37,4.37,0,0,1-.61,3.59,15.81,15.81,0,0,1-6.24,5.46C220,104.11,218.61,104.76,217.17,105.49Zm-.78-1.6a19,19,0,0,0,8.49-5.21c1.05-1.13,2-2.49,1.59-4.13a9.59,9.59,0,0,0-3.72-5.74c-1.52-1.09-3.16-2.27-5.16-1.42l-.56,1.7-1.48-1.33-4.17,2.42c-.57-1.15.62-1.28,1.09-1.78s1.22-1.06,2.07-1.79a9.86,9.86,0,0,0-7.46,0,17.54,17.54,0,0,0-8,6.86c-2.25,3.49-2.41,6.41.54,9.32,2.81,2.76,6.57,2.58,10.15,2.61a29.59,29.59,0,0,0,4.26-.58,5.22,5.22,0,0,0-.57-1.21c-1-1.14-2-2.26-3.05-3.33-.61-.63-.81-1.35-.25-2s1.22-.07,1.66.41C213.38,100.44,214.87,102.16,216.39,103.89Z"/><path d="M49,104.43c-.22-2.1-.54-4.31-.65-6.54-.08-1.63.18-3.27.18-4.91a31,31,0,0,0-.29-4.09,1.23,1.23,0,0,0-1-.75c-2.56.13-5.12.33-7.68.56-1.22.1-2.43.31-3.65.45-2.44.28-4.88.53-7.32.83-1.17.15-2.32.37-3.64.59.09.8.17,1.56.27,2.32A47.88,47.88,0,0,1,25,106.15c-.21,1.48-.86,1.71-2.37,1.38.28-2,.64-3.92.81-5.9s.16-3.89.19-5.83A7.12,7.12,0,0,0,23.51,94a28.17,28.17,0,0,0-1-3.08c-.28-.74-.17-1,.6-1.5,2.74-1.72,5.79-1.5,8.77-1.81q5.9-.61,11.78-1.31c1.59-.18,3.17-.52,4.77-.72.91-.11,2,1.29,2,2.58-.11,3-.54,6-.42,9a47.14,47.14,0,0,0,1.26,7.59,1.88,1.88,0,0,1-2.14,2.36c-3.84-.4-7.7-.73-11.55-1.06-1.41-.13-2.82-.26-4.23-.26a40,40,0,0,0-4.77.29c-.5.07-.93.64-1.51,1.07a4.44,4.44,0,0,1-.93-1.16,1.4,1.4,0,0,1,1.44-2c2.83,0,5.65.25,8.48.39.13,0,.25.09.38.09Z"/><path d="M33.22,19c1.58-1.18,5.18-.33,6.44.87a17.46,17.46,0,0,1,4.48,6.26c.63,1.61,1.61,3.09,2.29,4.7a11,11,0,0,1,.45,7.48A6.61,6.61,0,0,1,42.33,43a56.06,56.06,0,0,1-5.9,1.62,11.78,11.78,0,0,1-3.68-.22A64.25,64.25,0,0,1,25,43.07c-3.88-1.08-7.47-2.7-9.49-6.6-1.84-3.58-1.25-7.06.42-10.41A25.33,25.33,0,0,1,19.86,20c1.45-1.53,3.56-2.43,5.41-3.58a11.84,11.84,0,0,1,1.67-.72C29.6,14.55,32.12,15.87,33.22,19Zm1.86,24a41.41,41.41,0,0,0,5.28-1A7.62,7.62,0,0,0,44,39.86c2.75-3.38,1.92-7.06.22-10.6-.87-1.8-2.12-3.41-3.07-5.17a5.81,5.81,0,0,0-5.69-3.43,25.13,25.13,0,0,0-2.64.61A3.71,3.71,0,0,1,31.51,21c.16-.31.24-.74.5-.91.59-.4.71-.78.19-1.28a9.94,9.94,0,0,0-1.63-1.42c-2.16-1.35-4.1-.05-5.84.89A13.9,13.9,0,0,0,20,22.55C17.76,25.72,16,29,16.19,33a7.08,7.08,0,0,0,3.07,5.53C23.77,41.81,29.05,42.53,35.08,43Z"/><path d="M142.11,89.23c-.43-.37-1.46-1-1.38-1.25a3.71,3.71,0,0,1,1.48-2c2.88-1.71,6-1.65,9.2-1.07a2.43,2.43,0,0,1,2.07,2.87c-.2,2.6-.43,5.19-.53,7.79-.12,3.25-.51,6.56-.09,9.75s-.07,6.54,1.52,9.57c.27.52,0,1.33-.06,2-2.19.13-4.22.19-6.24.38-2.88.27-5.75.73-8.63.94a18.2,18.2,0,0,1-4.72-.26c-.45-.08-.95-1.13-1-1.78a16.66,16.66,0,0,1,1.08-6.93,15.71,15.71,0,0,0,.47-3.84c.21-2.74.26-5.51.59-8.23a17.08,17.08,0,0,0-.6-6.33c-.12-.48.34-1.11.53-1.67.43.28,1,.47,1.24.87a4.45,4.45,0,0,1,.62,2.1c0,3.24-.15,6.49-.3,9.72-.08,1.62-.24,3.25-.48,4.85-.32,2.16-.75,4.3-1.14,6.45a6.43,6.43,0,0,0-.17.76c-.17,2.31,0,2.6,2.33,2.51,2.52-.09,5-.36,7.56-.5,1.3-.07,2.62,0,3.92,0a6.41,6.41,0,0,0,2.2-.32,1.51,1.51,0,0,0,.54-1.28,75.22,75.22,0,0,1-.48-12.37c0-2.69.31-5.38.44-8.07.07-1.34.06-2.69.07-4,0-2.77-.32-2.94-3-3.42a9.6,9.6,0,0,0-5.07.69C143.34,87.39,142.86,88.39,142.11,89.23Z"/><path d="M78.07,201.79c-.2.66-.3,1-.44,1.4-.3.83-.77,1-1.65.65a8.85,8.85,0,0,0-2.61-.59c-1.62-.15-3.26-.17-4.89-.3A1.36,1.36,0,0,1,67,201.36c.06-1.92,0-3.85-.08-5.77s-.28-3.59-.37-5.39c-.08-1.43,0-2.87-.1-4.3,0-.92-.18-1.84-.24-2.77-.11-1.54-.25-3.08-.26-4.63,0-2.09.51-2.52,2.56-2.6,1.22,0,2.43-.32,3.65-.41a33.14,33.14,0,0,1,5.26-.19c1.93.18,2.54,1.2,2.66,3.71.2,4.08.28,8.17.27,12.26,0,2-.38,3.94-.47,5.91a18.1,18.1,0,0,0,.25,3c.15,1.18.4,2.34.48,3.51,0,.35-.42.73-.65,1.09-.32-.22-.85-.38-.93-.67a13.67,13.67,0,0,1-.74-3.69c0-2.73.41-5.46.43-8.19,0-2.92-.16-5.84-.31-8.76a34.71,34.71,0,0,0-.44-4.33A2.45,2.45,0,0,0,74.92,177c-1.77.27-3.55.49-5.31.83-.37.07-.91.59-.92.91-.08,3,0,6-.07,9a18.28,18.28,0,0,0-.22,1.94c.31,3.19.68,6.37,1,9.55,0,.31-.09.69,0,.92s.59.9.93.93c1.94.17,3.88.19,5.83.32A12.7,12.7,0,0,1,78.07,201.79Z"/><path d="M176.79,114.17c-.11-1.81-.27-3.38-.3-5a71.58,71.58,0,0,1,1.28-13.93,25.24,25.24,0,0,0,.25-5.43,2,2,0,0,0-1.24-1.41,10.91,10.91,0,0,0-9.9,2.42c-.46.4-1,1.16-1.58.28a1.64,1.64,0,0,1,.44-1.48c3.26-2.78,7-4.09,11.28-3.15,2.23.49,3,2,2.71,4.28-.54,4.31-1,8.64-1.34,13a77.54,77.54,0,0,0,0,8.35c0,.64.55,1.26.82,1.91.44,1.07.13,1.69-1,1.62-3.07-.18-6.13-.44-9.19-.76a34.37,34.37,0,0,1-4.62-.82c-2.73-.68-3.91-2.71-3.43-5.49s.91-5.54,1.3-8.31a60.31,60.31,0,0,0,.75-6.69,15,15,0,0,0-.78-4.09c-.18-.7-.4-1.38.42-1.61a1.31,1.31,0,0,1,1.72,1.2,37,37,0,0,1,.25,6.22c-.29,3.72-.88,7.41-1.26,11.13a32.46,32.46,0,0,0,0,4.3c0,1.3,1,1.74,2.1,2a43.17,43.17,0,0,0,4.73,1C172.31,114,174.46,114,176.79,114.17Z"/><path d="M334.66,27.51c1-.19,1.93.74,2.12,1.93.52,3.22-.45,6.22-1.12,9.28a31.62,31.62,0,0,0-.49,4.57A1.47,1.47,0,0,0,336.55,45c1.87.1,3.75,0,5.63,0,.87,0,1.75-.17,2.63-.21,2.3-.1,4.6-.25,6.9-.26,6.2,0,12.39.09,18.59,0,4.62,0,9.26-.07,13.88-.37a86.55,86.55,0,0,0,9.17-1.33,5.75,5.75,0,0,0,2.2-1.12c1.42-1,1.7-1,2.46.7A11.73,11.73,0,0,1,390.65,45c-3.66.14-7.3.61-10.95.74-3.92.13-7.84,0-11.77,0-5.75,0-11.51-.14-17.26,0-4.58.15-9.14.73-13.71,1a3.22,3.22,0,0,1-3.64-3.65,57.24,57.24,0,0,1,1.09-6.86C335.32,32,335.65,31.7,334.66,27.51Z"/><path d="M72.11,42.59a15.35,15.35,0,0,1-10.83-4.06A8.38,8.38,0,0,1,59,28.3a20.59,20.59,0,0,1,3.19-5.2,15.4,15.4,0,0,1,4.4-2.7,17.22,17.22,0,0,1,2.72-.85c2.17-.7,4.15.08,6.08.85,1.32.53,2.51,1.35,3.78,2a1.2,1.2,0,0,0,.77.09c2-.4,3.5.68,4.65,2a11.66,11.66,0,0,1,3.32,7.36,8.31,8.31,0,0,1-4,7.51A20.4,20.4,0,0,1,72.11,42.59Zm5.07-16.71L77,25.52a5,5,0,0,1,.3-.71c1-1.53.93-1.68-.75-2.36a12,12,0,0,0-12.38,1.4,12.06,12.06,0,0,0-3.93,6.8c-.49,2.53-.17,5.06,1.94,6.77A15.66,15.66,0,0,0,74.56,41c4.31-.61,8.34-1.82,10.84-5.68a7.69,7.69,0,0,0,1-4.24c-.08-2.28-1.53-4-3-5.67a3.89,3.89,0,0,0-4.65-.28A7.17,7.17,0,0,1,77.18,25.88Z"/><path d="M30.37,226.24c-3.35.51-6.37-1.11-8.54-3.82a8.64,8.64,0,0,1-1.52-8,12.47,12.47,0,0,1,2.48-5.24c2-2.17,4.11-4.18,6.19-6.25a11.63,11.63,0,0,1,1.39-1.24c2.79-2,7.7-1.09,9.44,1.73,2,3.22,4.38,6.2,6.4,9.42,3.06,4.89.26,8.47-3.7,10.7A25.08,25.08,0,0,1,30.37,226.24Zm.36-1.07.08-.25a9.84,9.84,0,0,1,1.42-.26,19.08,19.08,0,0,0,10.15-2.95c2.84-1.85,4.28-3.73,2.91-7.31a21.45,21.45,0,0,0-2.74-5c-1.5-2-2.59-4.51-5.19-5.55-.16-.06-.18-.42-.34-.53a5.1,5.1,0,0,0-1.57-.9c-2.39-.51-4.14.93-5.81,2.24a43,43,0,0,0-4.36,4.18,11.1,11.1,0,0,0-3.16,9.53,6.25,6.25,0,0,0,2.86,4.8A32.18,32.18,0,0,0,30.73,225.17Z"/><path d="M388.81,66l1.68.53c-.32.86-.65,1.72-1,2.7l-1.18-.54-1.44,4.19-.49-.1c-1-1.53.27-3.12.11-4.85-2,.21-3.89.35-5.79.63-3.19.47-6.36,1.1-9.56,1.56q-7,1-14.06,1.88c-4.23.51-8.48.85-12.7,1.36-2.78.34-5.53.87-8.3,1.26s-5.64.77-8.47,1.13c-2.26.29-4.52.7-6.79.77-3.18.1-4.16-2.17-3.73-4.76.25-1.5.46-3,.7-4.53a3.34,3.34,0,0,1,.25-1,3,3,0,0,1,.6-.65c.25.25.71.5.71.75A27.91,27.91,0,0,1,319,71c-.23,1.18-.75,2.28.33,3.25s2.38.77,3.64.62c2.52-.3,5-.66,7.55-1,2.22-.29,4.43-.61,6.65-.87,1.65-.2,3.33-.26,5-.48,3-.39,6-.89,9-1.27,1.53-.2,3.09-.17,4.62-.34,2.61-.28,5.22-.61,7.83-1s5.28-.73,7.91-1.18,5-1,7.45-1.39c1.9-.32,3.82-.47,5.73-.75,1-.14,2.2,0,2.26-1.56,0-.12.65-.4.77-.31A7.82,7.82,0,0,1,388.81,66Z"/><path d="M108.19,204.47l-1.67,1.58c-.25-.24-.34-.28-.36-.35-.34-1.06-.8-2.41.26-3,.72-.4,2,0,3,.34a10.56,10.56,0,0,1,4.8,4.75,32.67,32.67,0,0,1,2.88,6.52c1.17,3.72-.56,6.85-3.72,8.69a30.36,30.36,0,0,1-6.91,3c-4.62,1.29-9.21,1.06-13.34-1.73-4.73-3.2-5.15-8.27-2.28-13.16,1.71-2.93,7.72-4.65,10.55-3.59,1.27.48,2.66.78,3.41,2.05.19.31,0,.85,0,1.28-.37,0-.9.1-1.09-.1-2.18-2.27-4.76-2.12-7.48-1.36-3.49,1-6,5.52-5.3,8.91a7.09,7.09,0,0,0,4.05,5.21,15.78,15.78,0,0,0,13,.21,36.4,36.4,0,0,0,4.79-2.31,6,6,0,0,0,3.14-4.4,12.81,12.81,0,0,0-.85-5,11.9,11.9,0,0,0-2.29-4.27C111.37,206.38,110.09,204.6,108.19,204.47Z"/><path d="M264.23,23.08a12.86,12.86,0,0,1-.94-1.74,1,1,0,0,1,.27-.88.9.9,0,0,1,.87,0,3,3,0,0,1,1.06,1.08c1.47,3.37,3.88,6,6.33,8.72,1.67,1.82,3.22,3.73,4.83,5.61.05.06.09.15.15.21.58.6,1.95,1.24,1.19,2s-2.21.85-3.39,1c-1.6.16-3.24,0-4.85.08a43.73,43.73,0,0,0-5.84.56,32.91,32.91,0,0,0-8.17,2.18,3.57,3.57,0,0,0-2.23,4,1.39,1.39,0,0,1-.39,1.14,1.66,1.66,0,0,1-1.42.16c-.32-.2-.45-.9-.42-1.36a18.05,18.05,0,0,1,.41-2.72,2.76,2.76,0,0,1,.43-1.08c1.7-2.48,3.53-4.89,5.13-7.44,1.93-3.06,3.67-6.25,5.51-9.37C263.2,24.47,263.74,23.78,264.23,23.08Zm-8.52,16.83c6.49-2.11,12.83-2.5,19.4-3.28L265,24.54Z"/><path d="M394.69,41.51a10.32,10.32,0,0,1-.64-2.24,31.32,31.32,0,0,1,1.28-11.09,4.55,4.55,0,0,0,0-.93c-1.35-.06-2.7-.14-4-.19-.85,0-1.7,0-2.54,0-4.27-.08-8.53-.12-12.79-.28s-8.66-.48-13-.61c-2.76-.09-5.52.06-8.27.09-1.79,0-3.58-.05-5.37,0a60.54,60.54,0,0,0-8.5.45,8.57,8.57,0,0,1-3.6-.52,1.64,1.64,0,0,1-.92-1.29c.05-.61.58-.76,1.39-.65,2.23.29,4.51.28,6.77.39,1.55.08,3.09.18,4.64.24.67,0,1.34,0,2,0,2-.08,4-.23,6-.23,1.55,0,3.1.19,4.64.24,3.56.11,7.12.17,10.67.28,2.3.06,4.6.17,6.91.26,2.09.08,4.17.22,6.26.25,3,.05,5.91,0,8.87,0a8.29,8.29,0,0,0,1.73-.39c.08,0,.2-.12.23-.1,1.29,1,2.72.1,4.06.31a1.2,1.2,0,0,1,.69.94,1.39,1.39,0,0,1-.9.83,3.7,3.7,0,0,1-1.59,0c-1.18-.22-1.73.37-1.88,1.42q-.62,4.22-1.16,8.45c-.18,1.38-.27,2.77-.4,4.16Z"/><path d="M42.88,151c-1.25-1.62-4.46-2.19-6.45-1.32a14.54,14.54,0,0,0-5.54,4.19,13.39,13.39,0,0,0-3.12,6.77c-.42,3.46,1.23,6.16,5.49,7a11,11,0,0,0,11-3.9,4.23,4.23,0,0,0,1-4.45,10.35,10.35,0,0,0-3.13-5c-1.5-1.24-2.13-1.31-3.6-.07-.27.23-.48.57-.78.72a1,1,0,0,1-.86-.05.88.88,0,0,1-.08-.85c1.61-2.85,3.72-4,6.56-1a13.84,13.84,0,0,1,3.69,6.23,5.65,5.65,0,0,1-1.46,5.59c-2.75,2.94-6,4.74-10.09,4.59a10.61,10.61,0,0,1-8.22-3.76,6.71,6.71,0,0,1-1.32-6c.8-3.2,2.1-6.17,4.91-8.27,1-.75,1.82-1.7,2.9-2.45a8.38,8.38,0,0,1,7.27-1.09,6.31,6.31,0,0,1,2.36,1.64C44.17,150.19,43.79,150.71,42.88,151Z"/><path d="M24,188.88c-.08-3.22,1.49-5.82,3.27-8.26A22.8,22.8,0,0,1,30.79,177a3.62,3.62,0,0,1,4.22-.54,8.34,8.34,0,0,0,4.1,1.16c2.23-.08,3.49,1.9,4.66,3.63,2.31,3.43,1.82,6.88,0,10.28a9.85,9.85,0,0,1-4.2,3.69c-3.33,1.86-6.79,2.71-10.51,1.43S24.06,192.69,24,188.88Zm16.45-6.42c-1.15.36-1.47-.24-1.87-.87s-.75-1.53-1.93-.92c-.68.35-1.2-.17-1-.95.27-1.08-.3-1.29-1.17-1.39-2.4-.29-4,1.21-5.23,2.79A12.88,12.88,0,0,0,26,189.41c0,3.57,1.91,6.19,5.41,6.31a13,13,0,0,0,9.88-3.85,7.86,7.86,0,0,0,1.9-3.24,8,8,0,0,0-1.84-7.93,10,10,0,0,0-1.8-1.24Z"/><path d="M111.58,157.44c1.42.84,1.92.41,2.54-.52a2.9,2.9,0,0,1,2.18-.77c2.37.09,4.74.37,7.1.58.57.05,1.13.16,1.7.17,1.41,0,2,.8,1.72,2.21a5.27,5.27,0,0,0,.71,4.15,1,1,0,0,1-.6,1.69,14.27,14.27,0,0,1-2.82.51c-2.66.15-5.32.2-8,.29a1.15,1.15,0,0,0-.63.13,2.09,2.09,0,0,1-2.72.16c-.31-.18-.87.12-1.29.07-.6-.06-1.4-.05-1.72-.42-.6-.68.24-.91.7-1.2.93-.61,1.38-2.58,1.15-3.61A17.55,17.55,0,0,1,111.58,157.44ZM124,163c-.35-2.4-.35-2.39-2.41-2.88-.5-.13-1-.34-1.48-.48-2.33-.67-5,.7-5.21,3.14a1.61,1.61,0,0,0,.16.74c1,0,2.31.21,3-.3a3.55,3.55,0,0,1,3.52-.7A19,19,0,0,0,124,163Z"/><path d="M39,70.16l-3.13-2.71C35,66.73,34.16,66,33.3,65.34q-2.5-1.95-5-3.85c-.85-.64-1.5-.53-2,.53-1,2.36-2.08,4.71-3.16,7-.48,1-1.12,2-1.57,3A14.49,14.49,0,0,0,21,74.35l-1.83-1.3c1.34-2.76,2.63-5.37,3.86-8,.8-1.71,1.37-3.53,2.27-5.18,1-1.86,1.76-2,3.4-.58,3.17,2.65,6.28,5.39,9.43,8.07,1.28,1.08,2.64,2.08,3.93,3.15.34.28.88.73.82,1a1.57,1.57,0,0,1-1,1,8.16,8.16,0,0,1-2.86.29,33.94,33.94,0,0,0-10.64.47,36.84,36.84,0,0,1-4.07.36,1.49,1.49,0,0,1-1.64-1.36c0-.88.76-1,1.61-1.06,3.85-.14,7.69-.37,11.53-.56.9,0,1.81,0,2.71,0Z"/><path d="M319,63.74c1.39,0,2.78,0,4.17,0,2.43-.06,4.87-.16,7.3-.26,1.69-.08,3.37-.23,5.05-.25,1.18,0,2.37.23,3.56.24,7.35,0,14.71,0,22.07,0,4.1,0,8.19-.18,12.29-.25,2,0,4,0,5.92,0,2.87-.12,5.73-.34,8.6-.51.27,0,.61-.11.79,0a8.76,8.76,0,0,1,1,1c-.35.19-.68.53-1,.55-2.35.13-4.7.27-7.05.27s-4.44-.27-6.66-.22c-3.17.07-6.34.33-9.51.47-1.31.06-2.61,0-3.92,0-9.63,0-19.26,0-28.89,0-4.11,0-8.22.34-12.33.51C319.29,65.38,318.56,65.11,319,63.74Z"/><path d="M264.77,62.2a2.75,2.75,0,0,1-1.93-2.83,3.29,3.29,0,0,0-1.2-2.06c-2.59-2.12-5.28-4.11-7.89-6.2a5.41,5.41,0,0,1-.95-1.5l.38-.48a9.05,9.05,0,0,1,2.28.91c2.83,2.21,5.58,4.51,8.64,7l7.07-9.47a23.5,23.5,0,0,0-2.68-.15c-3.53.23-7.06.51-10.58.78a9.51,9.51,0,0,1-2.47.18,3.3,3.3,0,0,1-1.54-1.17c-.07-.08.49-1,.78-1.05q7.32-.25,14.64-.34a43.07,43.07,0,0,1,5.56.3c.5.06.93.75,1.4,1.15-.47.31-1.06,1-1.39.88-2-.64-2.55.78-3.39,2-1.9,2.8-3.91,5.51-5.83,8.29-.5.74-1.39,1.46-.43,2.54C265.37,61.13,264.94,61.77,264.77,62.2Z"/><path d="M264,108.64a6.86,6.86,0,0,1-1.58-.86,3.8,3.8,0,0,0-4.09-1c-4.35,1.32-6.71,4.39-8,8.57a13.09,13.09,0,0,0-.46,5.26,4.32,4.32,0,0,0,2.51,3.33,9.21,9.21,0,0,0,8.8.62c1.67-.72,3.33-1.49,5-2.1,2.27-.81,3.06-3.62,2.56-5.5-.69-2.61-1.9-5-4.48-6.35a5.18,5.18,0,0,0-3-.31,4.82,4.82,0,0,1-1-.17c.24-.3.42-.75.72-.87a4.48,4.48,0,0,1,4.48.62,11.68,11.68,0,0,1,4.67,8.65,4.69,4.69,0,0,1-1.92,4.13,18,18,0,0,1-10.07,3.94,10.24,10.24,0,0,1-5.29-.74,7.32,7.32,0,0,1-4.52-6.82,14.51,14.51,0,0,1,2.45-8.38,15.62,15.62,0,0,1,7.63-5.91c1.33-.5,3.84.43,4.84,1.77.39.51.67,1.1,1,1.65Z"/><path d="M338.8,106c.41,0,.91-.05,1.09.14,1.36,1.47,3.12,1.19,4.83,1.24,2.14,0,4.28.25,6.42.24,3.19,0,6.39-.12,9.58-.27,2.64-.11,5.28-.43,7.92-.49,3.48-.09,7,0,10.46,0,2.3,0,4.61-.2,6.92-.23.91,0,1.83.2,2.75.23,1.44.06,2.89,0,4.31.1a2,2,0,0,1,1.42,1c.32.92-.58,1-1.23,1.33-1.57.71-2.81-.53-4.24-.64-.43,0-.86-.17-1.3-.17-7.67,0-15.34-.08-23,0-7.06.08-14.12.37-21.19.48a12.88,12.88,0,0,1-3.73-.61A1.48,1.48,0,0,1,338.8,106Z"/><path d="M298.17,90.58a4.44,4.44,0,0,1,.33,1.12,5.06,5.06,0,0,1-.22,1.2c-.44-.22-1.07-.31-1.3-.67a31.87,31.87,0,0,0-2-3.49c-2-2.3-3.61-5-6.37-6.57-.78-.45-1.24-1.39-2.27-1.61-.22,0-.5-1-.32-1.35a1.7,1.7,0,0,1,1.38-.38c1.64.22,3.26.55,5,.85V77.63a5.6,5.6,0,0,1,1.56.59c2.55,2.36,5.56,1.16,8.42,1.12a11.48,11.48,0,0,1,1.62.23,6.14,6.14,0,0,0-.34,1.65c.13,1.69-2,1.54-2.27,2.94s-1,2.49-1.44,3.77a14.94,14.94,0,0,0-.37,2.55l-1.43.14c-1.56-3,1.07-5.19,1.62-7.78a16.66,16.66,0,0,0-8.95-1.2,10.21,10.21,0,0,1,1.5,1.31C294.29,85.47,296.22,88,298.17,90.58Z"/><path d="M239.57,59.51l-3.94-.35c.31,1,.52,1.8.87,2.59a1.07,1.07,0,0,1-.62,1.58c-.91.47-1-.37-1.29-.87a6.1,6.1,0,0,1-.26-1c-.79-2.5-1.12-2.39-3.81-2.39-1.94,0-4.11.44-5.9-.92-1,1.52-1.42,3.47-3.88,4.22a11.17,11.17,0,0,1,.59-2.1c1.43-2.73,3-5.39,4.36-8.14,1-2.05,1.83-4.21,2.82-6.28a1,1,0,0,1,1.75-.13,16.17,16.17,0,0,1,2.36,3.71,60,60,0,0,1,2,6.48,2.64,2.64,0,0,0,2.39,2,16.4,16.4,0,0,1,2.7,1ZM229.45,48.37a7.32,7.32,0,0,1-.35,1.09c-1,2-2.07,4-3.14,6-.29.55-.43,1.14.32,1.23,2.27.3,4.55.47,7,.7C232.11,54.3,231.73,51.14,229.45,48.37Z"/><path d="M358.61,145c-4.83.09-6.27-4.06-4.64-7.55a12.67,12.67,0,0,1,4.69-5.41c1.28-.84,2.73-1.56,4.39-.66.23.13.7-.15,1-.29,1.81-.75,3.61-1.74,5.64-.89a3.71,3.71,0,0,1,1.74,1.24c2.16,3.5,1,7.08-1.73,9.48-2.54,2.23-5.81,3.06-9.07,3.72C360,144.73,359.3,144.83,358.61,145Zm2.46-11.86a8.35,8.35,0,0,0-5.82,5.94,4.31,4.31,0,0,0,.16,2.34c.8,1.87,2.61,2,4.25,1.82a22.07,22.07,0,0,0,5-1.33c2.07-.79,4.26-1.56,5.39-3.71.89-1.69,1.37-3.49.41-5.36-.76-1.5-2.12-1.5-3.43-1.27a6.82,6.82,0,0,0-2.74,1.13c-.28.19,0,1.17,0,1.79a7.76,7.76,0,0,1-.27,1.34l-.37,0c-.05-.19-.1-.39-.16-.58-.72-2-.91-2.06-2.47-.54a13.78,13.78,0,0,1-1.29,1l-.33-.37Z"/><path d="M32.44,130.54a2.49,2.49,0,0,1,2.88-.57c1.85.67,3.92.76,5.85,1.27a6.74,6.74,0,0,0,5.16-.83,1.32,1.32,0,0,0,.61-1c-.21-2.05-.48-4.09-.79-6.12a7.17,7.17,0,0,0-.58-2.26,1.82,1.82,0,0,0-1.32-.78c-1.84-.09-3.69,0-5.53,0s-3.49,0-5.23,0c-.89,0-1.48-.23-1.5-1.24s.73-.91,1.39-.91h8.69c1.12,0,2.25,0,3.37,0s2,.64,2.26,2.59c.49,3.08.76,6.2,1.15,9.3a2.14,2.14,0,0,1-1.63,2.41,17,17,0,0,1-9.87.15,17.78,17.78,0,0,1-2.49-.73A26.53,26.53,0,0,1,32.44,130.54Z"/><path d="M313.16,144.93c-1,.16-2,.38-3,.46-2.3.18-6.17,3.29-6.32,5.71a2.56,2.56,0,0,0,.66,1.79c1.8,1.66,4.17,1.74,6.41,1.83a56.15,56.15,0,0,0,6.05-.45,6.34,6.34,0,0,1,1.33.22c.4-.45.81-.94,1.39-1.6-1.28-.28-2.43-.52-3.57-.79a7.07,7.07,0,0,1-1.86-.57,4.47,4.47,0,0,1-1-1.13c.54-.23,1.23-.81,1.58-.64a21.57,21.57,0,0,0,6.31,1.57,1,1,0,0,1,.72,1.58c-.48.73-1.14,1.33-1.69,2a4.55,4.55,0,0,0-.79,1.17c-.63,1.61-.14,2.43,1.53,3a6.21,6.21,0,0,1,2,1.22c-2.92.59-6.55-.66-5.75-4.67-1.33.22-2.64.5-4,.62-3.47.33-6.91.09-9.86-1.95-2.1-1.45-2.11-3-.64-5.39a10,10,0,0,1,5.2-4.29C309.59,144,311.39,143.66,313.16,144.93Z"/><path d="M286.73,75.37C289.09,68,293,59.46,294.17,59a16.86,16.86,0,0,0,1.29,1.59c2.64,2.62,4,6,5.68,9.23a28.26,28.26,0,0,1,2.05,5.38c.15.57-.58,1.38-.88,2-.38-.12-.52-.12-.53-.17-.74-2-2.44-2-4.15-2-2-.07-4.06-.21-6.09-.25A23.73,23.73,0,0,0,289,75C288.63,76.33,288.25,76.43,286.73,75.37Zm7.32-13.85-5,12a12.25,12.25,0,0,1,6.06-.5c1.94.42,3.92.68,6.1,1A40.76,40.76,0,0,0,294.05,61.52Z"/><path d="M174.44,234H189l.05.48c-4.72.65-9.42,1.49-14.38,1.4.33,1.57.75,3.11.94,4.67a7,7,0,0,1-.45,2.18c-.52-.12-1.19-.08-1.51-.4a2.94,2.94,0,0,1-.57-1.57c-.57-3.54-1.07-7.09-1.69-10.62-.06-.36-.73-.6-1.24-1-.06-1.54,1.43-1.58,2.43-1.77a45.25,45.25,0,0,1,7-.81,17.85,17.85,0,0,1,4.22.76c.87.2,1.72.52,2.79.85l-1,1.61c-2.48-1.76-5.13-1.55-7.75-1.33-1.07.09-2.11.54-3.18.7-.87.12-1.13.33-.83,1.28A30,30,0,0,1,174.44,234Z"/><path d="M292.71,130.7c1.86,1.07,3.3.08,4.73-.21,2.8-.58,5.55-1.42,8.33-2.1.29-.07.66.21,1,.32-.19.3-.32.79-.58.87-1.32.4-2.69.65-4,1-2.28.65-4.53,1.45-6.84,2a6.74,6.74,0,0,1-3-.09,1.55,1.55,0,0,1-.93-2.64c1.55-2,3.3-3.88,4.79-5.94a33.29,33.29,0,0,0,3.53-5.77c1.25-2.81.59-3.45-2.48-4.36a11.71,11.71,0,0,0-6.66.32c-.8.24-1.39,1.2-2.11,1.87a1.38,1.38,0,0,1,.14-2.48,12.67,12.67,0,0,1,7-1.67,7.62,7.62,0,0,1,4.06.85c2.38,1.41,3.09,3.26,1.69,5.75-1.55,2.76-3.42,5.35-5.25,8C295.14,127.87,293.93,129.2,292.71,130.7Z"/><path d="M62,250.63A6,6,0,0,1,66,247.45a3.29,3.29,0,0,1,4,3.45,5.39,5.39,0,0,1-3.28,5c-1.87.83-3.85,1-5.55-.51a4.94,4.94,0,0,1-2-4.8c.2-1.11.31-2.25.53-3.36.49-2.51,2.15-4.44,3.4-6.57.17-.3.4-.57.57-.88a1.27,1.27,0,0,1,1.89-.56,1.24,1.24,0,0,1,.17,2c-1.84,2-3.48,4.11-3.94,6.87-.34,2-.62,4,1.05,5.67,1.08,1.06,4,.58,4.62-.78a5.23,5.23,0,0,0,.55-1.83,1.49,1.49,0,0,0-2.21-1.45,6.77,6.77,0,0,0-1.62,1.09C63.32,251.71,62.91,251.69,62,250.63Z"/><path d="M385.86,99.22c-.5.59-.77,1.15-1,1.13a4.32,4.32,0,0,1-1.53-.57c-.38-.18-.69-.64-1.06-.67-4.25-.39-8.5-.76-12.76-1-2.1-.14-4.21-.07-6.31-.07-3.75,0-7.5-.14-11.24,0-4.31.2-8.6.69-12.9,1-1.9.14-3.8.21-5.7.28a18.15,18.15,0,0,1-2.95,0c-.31,0-.55-.58-.82-.89a3.52,3.52,0,0,1,1.22-.56c1.66-.07,3.32,0,5-.06,1.19-.05,2.38-.21,3.57-.32,3-.26,6-.63,9.07-.77,2.86-.13,5.72,0,8.59,0,2.37,0,4.74-.07,7.1,0,2.61.09,5.21.37,7.81.5,1.76.08,3.54,0,5.3.11q3.47.26,6.9.77C384.68,98.15,385.15,98.73,385.86,99.22Z"/><path d="M382.67,123.46l-1.27-.17c-3.19-.49-6.37-1.11-9.59-1.41-3-.29-6-.26-9-.3s-6.09-.07-9.13,0c-1.8,0-3.58.36-5.38.48-1.16.08-2.33,0-3.5,0-2.34.07-4.69.19-7,.25a3.69,3.69,0,0,1-1.66-.3c-.32-.17-.44-.71-.65-1.08.3-.18.61-.5.92-.5,3.8,0,7.59.08,11.39,0,3.23-.07,6.45-.44,9.68-.49,4.85-.09,9.71-.26,14.53.07,3.3.23,6.73.39,9.78,2a11.39,11.39,0,0,1,1.21.89Z"/><path d="M262,70.71a8.73,8.73,0,0,1,8.55,5.74c1.24,3.13.72,5-2.77,6.85-3.73,2-9.49.33-10.59-4.51a6.84,6.84,0,0,1,1.26-6.32C259.55,71.2,260.56,70.48,262,70.71ZM266,73.65a11.91,11.91,0,0,1-.36,2.19c-.11.31-.63.48-1,.71a10.48,10.48,0,0,0-.25-1.11c-.23-.7-.32-1.69-.81-2-.74-.46-2-.87-2.65-.52-2.21,1.2-2.48,5.1-1.34,6.91,1.33,2.11,3.32,2.7,5.72,2.39,3.59-.46,5-3.09,3.17-6.13A6.15,6.15,0,0,0,266,73.65Z"/><path d="M55.76,68.33c-.14.37-.3.83-.5,1.28a3.1,3.1,0,0,1-.73,1.27c-.19.14-.93-.11-1.13-.39A2.26,2.26,0,0,1,53,69a10.26,10.26,0,0,1,1-2.12c1.23-2.45,2.5-4.89,3.7-7.36.48-1,1-1.15,1.89-.4.14.12.24.33.39.37,2.1.49,2.59,2.61,3.91,3.89s2.47,2.27,3.66,3.46,1,2.09-.57,2.85c-2,1-3.91,0-5.86-.17-1-.09-2.06,0-3.05-.18A11.82,11.82,0,0,1,55.76,68.33Zm.9-1.69,9,1.72.19-.38-6.43-6.6Z"/><path d="M372.46,82c-.38.17-.78.51-1.16.49-4-.22-7.92-.5-11.88-.76-.26,0-.53,0-.8,0-7.13,0-14.26-.19-21.33,1-4.33.76-8.67,1.44-13,2.11-.35,0-.75-.27-1.13-.42.29-.29.54-.78.87-.84,4-.76,8-1.45,11.95-2.18A67.47,67.47,0,0,1,349,80.33c3.28,0,6.57,0,9.86,0,2.75,0,5.51.1,8.25.28,1.74.11,3.47.43,5.21.66Z"/><path d="M83.8,251.76c.55-2.37,1.1-5.06,1.79-7.71.47-1.8,1.18-3.54,1.71-5.33.2-.69.24-1.36-.94-1-2.87.88-5.75,1.71-8.65,2.45a5.71,5.71,0,0,1-2.53-.12c-.28-.06-.7-1-.58-1.13a2.31,2.31,0,0,1,1.32-.85c1.72-.33,3.47-.45,5.18-.82,2.16-.47,4.28-1.2,6.45-1.63a2.56,2.56,0,0,1,2,.8,2.32,2.32,0,0,1,.24,1.87c-1.1,4-2.38,7.92-3.39,11.93-.33,1.3,0,2.77-.09,4.15a4.2,4.2,0,0,1-.53,1.32c-.44-.3-1.09-.51-1.26-.92A17.61,17.61,0,0,1,83.8,251.76Z"/><path d="M144.41,159.62a5.62,5.62,0,0,0-6.69-3.13c-2,.45-1.9.49-2.22,2.59a6.75,6.75,0,0,1-1.15,2.55,1.32,1.32,0,0,1-1.31,0,1.38,1.38,0,0,1-.19-1.32c1.26-1.57,1.2-3.15.1-5.18,1.24-.33,2.35-.72,3.5-.91a35.19,35.19,0,0,1,4.69-.5,2.93,2.93,0,0,1,1.91.69c1.41,1.33,2.71,2.79,4,4.23.82.92.73,1.75-.46,2.28a7.28,7.28,0,0,1-1.93.75c-2.44.32-4.89.57-7.34.8-.69.07-2-1.69-1.71-2.24a1.32,1.32,0,0,1,1-.39c1.51,0,3,.24,4.53.22A25.37,25.37,0,0,0,144.41,159.62Z"/><path d="M235.35,161c-2.37.08-4.35.22-6.33.18-1.7,0-2.94-1.74-3-4,0-.76,0-1.52,0-2.27-.09-2.52-.22-5-.29-7.56a3.37,3.37,0,0,1,.41-1.1c.37.17.89.24,1.08.53a3,3,0,0,1,.39,1.48c0,2.54,0,5.08,0,7.62a6.33,6.33,0,0,0,.27,1.67c.61,2,1.06,2.25,3.19,2,.7-.08,1.41-.07,2.11-.13s1.31-.15,2.16-.25a38.74,38.74,0,0,0,0-3.88c-.13-1.43-.53-2.83-.69-4.25,0-.35.38-1.06.61-1.06.41,0,1.12.31,1.19.61a42.6,42.6,0,0,1,.78,4.63c.13,1.06.12,2.15.17,3.22,0,.6.14,1.21.12,1.81,0,1.55-.16,3.09-.2,4.63a.87.87,0,0,0,.44.62c.57.32.86.68.24,1.18s-1.2,1.1-1.76.21a5.85,5.85,0,0,1-.82-2.43A32.11,32.11,0,0,1,235.35,161Z"/><path d="M151.48,233.39a12.19,12.19,0,0,1-1.23.25,16.19,16.19,0,0,0-9.17,4.1,39.41,39.41,0,0,0-3.88,3.65c-1.19,1.32-2,3-1.3,4.76s2.59,2.08,4.27,2.31a38.71,38.71,0,0,0,12.42-.75,11.74,11.74,0,0,1,3.09-.25,7.38,7.38,0,0,1-1.13.75,31.93,31.93,0,0,1-10,1.85c-1.87.14-3.76.05-5.64,0a5.58,5.58,0,0,1-5.44-4.55,4.53,4.53,0,0,1,.55-2.77,18.09,18.09,0,0,1,7.62-7.21c2.22-1.07,4.49-2.08,6.78-3A2.58,2.58,0,0,1,151.48,233.39Z"/><path d="M61.75,215.51A3.82,3.82,0,0,1,66.24,214c2.57.78,5,2,6.41,4.53a2.3,2.3,0,0,1-.05,2.53c-1.07,1.91-3,2.78-4.77,3.77a22.6,22.6,0,0,1-3.91,1.46,8.21,8.21,0,0,1-8-2.57c-.71-1-.35-4.61.58-5.78.76-1,3.58-1.45,4.93-.8.21.1.35.34.52.52-.27.17-.52.47-.8.5-1.18.14-2.33.32-3,1.39a2.91,2.91,0,0,0,.43,3.89,4.32,4.32,0,0,0,4.89,1.19c2.49-.8,5.07-1.35,7-3.42,1.22-1.35,1.28-2.19-.2-3.29-1.23-.92-2.36-2.13-4.06-2.2-.69,0-1.37,0-2,0S62.68,215.6,61.75,215.51Z"/><path d="M119,115.63l-2.88-5-.66.15c-.35,2-.72,4-1,6-.1.61.08,1.27-.9,1.3s-1.1-.62-1-1.32a30.92,30.92,0,0,1,1.24-5.87,4.5,4.5,0,0,0-.7-4.45c-1.49-2.36-2-5.07-2.65-7.73-.11-.43.37-1,.58-1.52.48.38,1.19.67,1.38,1.17.31.79.17,1.75.42,2.58.56,1.79,1.25,3.55,1.88,5.32l.51-.09c.27-1.55.51-3.11.82-4.65a2.76,2.76,0,0,1,.59-1.27,1.26,1.26,0,0,1,1-.31c.21,0,.4.51.47.82a2.48,2.48,0,0,1,0,1c-.49,2-1,4-1.47,6a2.34,2.34,0,0,0,.42,1.53c1,1.41,2,2.73,3,4.13S120.64,115.53,119,115.63Z"/><path d="M367.53,151c2.14-.46,2.8-.25,3.3,1.08.57,1.5.33,4.07-1.39,4.84-3.77,1.71-7.57,1.93-11.22-.35-1.47-.91-2.25-3.6-2-5.36.29-2.31,1.3-4.09,3.44-4.83a7.88,7.88,0,0,1,3.8,0,5.86,5.86,0,0,1,2.39,1.3A3.45,3.45,0,0,1,367.53,151Zm0,0c-1.31-1-2.43-1.88-3.63-2.67a3.47,3.47,0,0,0-4.87,1c-1.43,2.08-1.17,5,.66,5.94a9.86,9.86,0,0,0,8.81.23c1.07-.49,1-1.6,1.14-2.5,0-.22-.7-.75-1.12-.8s-1,.28-1.45.41-.84.16-1.26.24c.26-.44.48-.9.78-1.31A4,4,0,0,1,367.49,151Z"/><path d="M143.68,107.92c-2.11,0-3.94-1.86-3.83-3.44a15.45,15.45,0,0,1,2-7.11c1.15-1.91,1.92-2,3.89-2.22,2.64-.36,3.06,1.68,3.88,3a9.22,9.22,0,0,1,.92,4.18c.12,2.21-1.75,3.18-3.25,4.14A17.15,17.15,0,0,1,143.68,107.92ZM142,103.1c0,2.46.57,3.17,2.06,2.91a7.18,7.18,0,0,0,4.35-2.66c1.41-1.74-.12-5.28-1.7-5.92a1.78,1.78,0,0,0-2.16.29A8.46,8.46,0,0,0,142,103.1Z"/><path d="M163.57,153.56c-.39,1.69-.44,3.31-1.18,4.5-.44.72-1.93,1-3,1.1a21.89,21.89,0,0,1-3.7-.11,1.51,1.51,0,0,0-1.73.87c-.4.89-1.06.37-1.54.06s-.81-.74-.25-1.41c1.71-2,1.87-4.37,1.36-6.83-.22-1.12.13-1.79,1.28-1.76a15.61,15.61,0,0,1,7.93,1.88C163.23,152.16,163.34,153.05,163.57,153.56Zm-8,3.92a36.13,36.13,0,0,1,3.61-.27,1.54,1.54,0,0,0,1.73-1.52c.28-1.74-.07-2.7-1.19-3a17.57,17.57,0,0,0-2.73-.35c-1-.09-1.45.41-1.43,1.42S155.61,156.07,155.61,157.48Z"/><path d="M333.41,88.52c2.74.13,5.47.3,8.21.35,1.6,0,3.21-.12,4.81-.24,2.23-.18,4.44-.5,6.67-.61,2.78-.14,5.57-.07,8.35-.2,4.25-.21,8.5-.55,12.74-.77,1.59-.09,3.19,0,4.78,0a4,4,0,0,0,.11.91c.44.93-.16,1-.79,1-2.24,0-4.47,0-6.71,0-1.85,0-3.71.22-5.56.25-3.08,0-6.16,0-9.23,0q-5.34.07-10.67.27c-3.09.12-6.17.38-9.26.46a14.48,14.48,0,0,1-3.09-.48c-.21,0-.38-.29-.56-.45Z"/><path d="M283.55,12.33c3.3,0,6.61,0,9.91,0,2.53,0,5.06-.22,7.58-.25,4.24,0,8.48,0,12.72,0,.69,0,1.39-.25,2.07-.2a2,2,0,0,1,1.28.65c.13.17-.19,1-.5,1.14a3,3,0,0,1-3.49.25c-1.06-.62-2.66-.39-4-.42-2.15-.05-4.3,0-6.46,0-1.37,0-2.76-.11-4.13,0-2.11.11-4.2.4-6.31.5-3,.15-6,.19-8.95.28-.18,0-.42.08-.52,0-.44-.37-.84-.78-1.26-1.18a14.39,14.39,0,0,1,1.29-.67A2.38,2.38,0,0,1,283.55,12.33Z"/><path d="M246.18,156.19c1.15-.16,2.07-.24,3-.44,1.73-.37,3,.84,2.47,2.54a14.17,14.17,0,0,1-5.12,7.11,1.53,1.53,0,0,1-1.26,0c-.25-.11-.34-.61-.51-.93.32-.15.64-.29.94-.46a1.52,1.52,0,0,0,.51-.43c1-1.59,2.07-3.19,3.06-4.82a1.49,1.49,0,0,0,.11-1,4.18,4.18,0,0,0-1.34-.21,17.86,17.86,0,0,1-3.83-.3c-2.23-.69-2.95-2.73-3.43-4.76a11.66,11.66,0,0,1-.24-3.49c0-.39.74-.75,1.14-1.12.31.54.91,1.11.86,1.62-.25,2.5.16,4.71,2.3,6.27A4,4,0,0,0,246.18,156.19Z"/><path d="M289.4,22.07c1.74-.2,3.48-.52,5.23-.57,2-.05,4,.11,6,.22,2.88.15,5.77.24,8.63.55A43.84,43.84,0,0,1,315,23.43c.35.08.57.7.85,1.08a5.3,5.3,0,0,1-1.24.14c-1.86-.24-3.71-.64-5.57-.79-3.32-.26-6.65-.52-10-.53-2.92,0-5.84.31-8.77.47a20.13,20.13,0,0,1-2.8,0,1.11,1.11,0,0,1-.69-.84,1.32,1.32,0,0,1,.74-.95,7.76,7.76,0,0,1,1.87,0Z"/><path d="M312.8,42.52A15.4,15.4,0,0,0,310,41a20.68,20.68,0,0,0-4.48-.82c-3.66-.27-7.32-.36-11-.59a12.25,12.25,0,0,1-3.07-.58,6.12,6.12,0,0,1-1.62-1.21l.13-.56a7.67,7.67,0,0,1,1.85,0,20.51,20.51,0,0,0,5.39.64,95.7,95.7,0,0,1,11.94.75A6.28,6.28,0,0,1,313.09,41C313.69,41.62,313.5,42,312.8,42.52Z"/><path d="M237.86,193.26h2l-.33,1.41c-1.15,0-2.31,0-3.46,0-.7,0-.93-.49-.56-1.11a29.5,29.5,0,0,1,2.3-3.68c2.05-2.5,4.23-4.88,6.37-7.31,2.31-2.61,4.57-5.26,7-7.81,1.29-1.37,1.56-1.28,2.6.06-6.14,5.4-11.22,11.7-16.2,18.09Z"/><path d="M237.23,13.8c0-2.05,1.38-3.6,2.83-3.6a1.42,1.42,0,0,0,1.49-.74A1.62,1.62,0,0,1,243,9a5.48,5.48,0,0,1,3.29,2.83,2.18,2.18,0,0,1-.57,3.08c-1.81,1.59-5.22,2.08-7,.82A7,7,0,0,1,237.23,13.8Zm7.76-.55c-.07-.16-.09-.34-.17-.38-.43-.2-.44-2.25-1.4-.33,0,.09-.56-.07-.85-.09a7.88,7.88,0,0,0-2.32,0c-.37.09-.72.81-.8,1.29,0,.19.62.63,1,.76C242.21,15,243.63,14.26,245,13.25Z"/><path d="M213.64,19.25c-3.35,0-5.26-3.92-3.74-6a5.83,5.83,0,0,0,.32-.72c1.13-2.13,2.22-2.34,4.26-.74a1.22,1.22,0,0,0,.79.3c1.84-.21,3.1,1.1,3.65,2.76.33,1-.64,2.46-2.06,3.13C215.81,18.43,214.71,18.82,213.64,19.25Zm.08-2.11.19.31a24.22,24.22,0,0,0,2.69-1.86c.19-.16,0-1.11-.25-1.34A11.09,11.09,0,0,0,214,12.9a1.63,1.63,0,0,0-1.09,0c-.76.27-1.85,2.27-1.59,2.94A2.13,2.13,0,0,0,213.72,17.14Z"/><path d="M310.22,112.47c-1.19-1.15-1.07-1.26.57-2,2.57-1.21,4.65.07,6.68,1.26,1.22.72,1.07,1.54-.11,2.43-.63.47-1.24,1-1.82,1.51-1,.94-.8,1.71.49,2.21a6.34,6.34,0,0,1,1.45,1.12,18,18,0,0,1-1.38,1.24,12.54,12.54,0,0,1-1.93,1.3,7.06,7.06,0,0,1-1.57.37c0-.6-.31-1.32-.07-1.76s1-.84,1.64-1.31a2.1,2.1,0,0,0-.27-.43c-1.58-1.68-1.14-3.57,1-4.52a11,11,0,0,0,1.52-1C314.16,111.85,312.22,111.33,310.22,112.47Z"/><path d="M225.61,15.24c1.22,1.37,2.45,1.52,4,.36,1.29-1,1.3-2,0-2.95a3.33,3.33,0,0,1-.62-.46c-.83-1.13-.77-1.47.45-2.56,1.51,1,3,2,3,4.18s-.47,2.75-2.57,3.64a4.58,4.58,0,0,1-5.56-1,3,3,0,0,1,.33-4.45c1.33-1,2.91-.51,4.1,1.35C227.71,14,225.3,12.44,225.61,15.24Z"/><path d="M254.24,10.65l.22-1c2.54.13,4.26,1.6,4.17,3.49a1.71,1.71,0,0,1-1.17,1.65,10.07,10.07,0,0,1-4.87,1.29c-1.28-.07-2.55-.18-3.31-1.37-1.19-1.87-.77-4,2.71-4.29A14.8,14.8,0,0,1,254.24,10.65Zm2.13,1.23a5.28,5.28,0,0,1-1.18.69c-.36.08-.78-.15-1.16-.12a9.16,9.16,0,0,0-2.64.37c-.68.27-.75.82.08,1.33,1.54.94,2.95.1,4.31-.3C257.5,13.34,257.5,12.82,256.37,11.88Z"/><path d="M174.64,97.56l-1,.77A13.46,13.46,0,0,1,175,99.86a5,5,0,0,1,.95,2c.23,2.23-.56,2.74-2.56,3.32-2.15.62-3.62.41-4.66-2.13s1.35-6.5,4.05-6.31A6.85,6.85,0,0,1,174.64,97.56Zm-.46,4.2a23.61,23.61,0,0,0-1.64-2.42c-.46-.53-1-.39-1.29.32a7.76,7.76,0,0,0-.61,2.36c0,.77.11,1.8,1.36,1.6C172.93,103.47,173.92,103.35,174.18,101.76Z"/><path d="M36.49,164.21a6,6,0,0,1,.23-1.92,10,10,0,0,1,1.61-2.13c.6-.66,1.31-1.21,2.19-2-1.74-.18-3.07-.28-4.4-.47-.84-.11-1.46-.62-1.14-1.54s1-1,1.82-.61a7.55,7.55,0,0,0,1.92.3,11.79,11.79,0,0,1,2.33.31,1.87,1.87,0,0,1,1,3.06c-.48.73-1.16,1.32-1.68,2a7,7,0,0,0-1.32,2.21c-.3,1.31-.72,1.83-2,1A1.89,1.89,0,0,0,36.49,164.21Z"/><path d="M258.23,112.63c2,1.17,1.93,3.12,2.73,4.65,2.32-.45,3.51-3.31,6.05-3.35l.29.46L262,118.76c.49.73,1,1.37,1.37,2.08a3,3,0,0,1,.32,1.35.84.84,0,0,1-.49.65.89.89,0,0,1-.75-.34c-.37-.6-.59-1.27-.94-1.88s-1-.79-1.53-.12l-2.07,2.43c-1-.83-1.19-1.56-.22-2.37,1.68-1.4,2.54-2.72,1-4.84C258.24,115,258.41,113.88,258.23,112.63Z"/><path d="M30.66,120.09c.19,3.59.36,6.81.54,10,0,.2.16.4.18.61a2.81,2.81,0,0,1,0,1.38c-.11.21-.79.18-1.21.19-.81,0-.87-.52-.89-1.17q-.09-3.85-.26-7.71c-.05-1.15-.15-2.29-.28-3.42-.11-.87-.18-1.87.92-1.84.95,0,1.14,1,1,1.91C30.64,120.19,30.66,120.33,30.66,120.09Z"/><path d="M74,196.51a19.63,19.63,0,0,1,0,3.07c-.07.45-.69.82-1.06,1.24-.25-.45-.7-.89-.72-1.34-.08-2.15.09-4.32-.07-6.46s-.66-4-.91-5.93a4.22,4.22,0,0,1,.41-1.51c.46.29,1.19.49,1.31.88a19.77,19.77,0,0,1,.8,3.95c.21,2,.25,4.06.36,6.09Z"/><path d="M243.57,148.28c1.82-3.67,5.12-4,8.44-4.22a13,13,0,0,1,1.94-.23,3.19,3.19,0,0,1,1.78.78C251.47,145.27,247.34,146.15,243.57,148.28Z"/><path d="M239.57,183.93c-.38-1.77-.75-3.21-1-4.68-.05-.36.51-1.14.7-1.11a1.88,1.88,0,0,1,1.34.77C241.15,180.1,240.64,182.38,239.57,183.93Z"/><path d="M253.64,189.23a3.79,3.79,0,0,1-.42.77,15.87,15.87,0,0,1-1.64,1.64c-.27.22-.86.41-1,.27s-.52-.84-.39-1.07a14,14,0,0,1,1.8-2.41c.17-.18.71-.06,1.08,0a10,10,0,0,1,1.09.2Z"/><path class="cls-1" d="M513.08,122.63c-.1-.07-.06,0,0,0,2.43-1.08,2.78,1.22,3.55,2.39,2.31,3.49,3,7.54,3.76,11.58a62.31,62.31,0,0,1,.61,15.72,60.68,60.68,0,0,1-2.63,13.82,63.16,63.16,0,0,1-5.2,12.13c-1.86,3.3-3.4,6.81-5.44,10-2.85,4.44-6,8.71-9.07,13-2.9,4-5.8,8-8.93,11.81a87.82,87.82,0,0,1-6.68,6.83c-1.89,1.85-3.78,3.72-5.83,5.38a16.15,16.15,0,0,1-4.2,2.34c-3.3,1.32-6.61,2.62-10,3.61a8.63,8.63,0,0,1-4.13.31c-2.15-.42-4.48.11-6.73.24-.7,0-1.41.13-2.12.11q-6.37-.19-12.76-.44c-1.68-.07-3.36-.12-5-.34-5.55-.71-11.09-1.45-15.95-4.61-1.63-1.07-3.45-1.84-5.06-2.93a6.21,6.21,0,0,1-1.64-2.14c-1.64-2.77-3.13-5.64-4.85-8.36a71,71,0,0,1-6.46-13.37,59.44,59.44,0,0,1-3-10.81c-.42-2.56-1.7-5-2.11-7.52-.71-4.44-2.2-8.7-2.43-13.26a44.57,44.57,0,0,1,1.46-15.14,43.1,43.1,0,0,1,3.33-9c3.08-5.44,6.09-10.92,10.29-15.72,3.41-3.91,6.83-7.79,10.55-11.39,2.24-2.17,4.67-4.15,7.05-6.18a35.44,35.44,0,0,1,3.44-2.66,29.18,29.18,0,0,1,4.18-2.37c3.75-1.7,7.52-3.38,11.35-4.87a57.05,57.05,0,0,1,7.49-2.23,35.76,35.76,0,0,1,5.47-.72c2.25-.17,4.52-.3,6.78-.25a14.09,14.09,0,0,1,3.27.76c1,.28,1.87,1.3,3,.31.09-.08.39.09.6.14l8.19,1.71c2.64.55,5.33.93,7.91,1.69s5.3,1.95,7.92,3a35.8,35.8,0,0,1,4.5,2,31.09,31.09,0,0,1,4.36,3.11c2.63,2.23,5.19,4.54,7.7,6.9a22.25,22.25,0,0,1,2.74,3.29A8.94,8.94,0,0,1,513.08,122.63Zm-67.69-3.72.06-.43c-.48-.36-.93-.78-1.44-1.09-2.1-1.25-4.29-.78-6.43-.18a27,27,0,0,0-8.82,4.5,29.52,29.52,0,0,0-7.28,7.34c-2.33,3.55-2.76,7.62-2.83,11.74a7.78,7.78,0,0,0,3.36,6.53c3.75,2.87,8.13,3.49,12.65,3.16a18.12,18.12,0,0,0,11-5,9.25,9.25,0,0,0,2.58-3.29,38.74,38.74,0,0,0,1.86-7.13c.29-1.71.54-3.63-.59-5.15a11.63,11.63,0,0,0-8.8-4.53c-3.65-.28-6.66,1.4-9.13,4s-3.8,5.48-3.08,9.18a5.24,5.24,0,0,0,6.3,4.23,26.34,26.34,0,0,0,3.65-.92c1.66-.65,3.36-1.58,3.64-3.49a12.06,12.06,0,0,0-.34-4.89,3.8,3.8,0,0,0-2.15-2.19,3.23,3.23,0,0,0-3.58,1.13c-1.17,1.39-.67,3.75,1,4.14a3.93,3.93,0,0,0,.22-1.47c-.29-1,.56-1.39,1.1-1.64a1.69,1.69,0,0,1,1.55.55,5.12,5.12,0,0,1,.35,4.41,1,1,0,0,1-.5.54,44.22,44.22,0,0,1-5.3,2.1,3.32,3.32,0,0,1-3.81-2.38c-1.3-4.14,1.73-8.51,5.63-10.42a8.36,8.36,0,0,1,6.92-.26c2.41.92,4.91,1.81,5.23,4.85a13.84,13.84,0,0,1-.39,3.87c-.68,3.74-2.22,6.85-5.63,9a17.85,17.85,0,0,1-17.06,1.37c-2-.82-4-2.3-4.46-4.71a19.66,19.66,0,0,1,.38-7.55,16,16,0,0,1,4.17-7.85,21.42,21.42,0,0,1,3.63-3.09,42.86,42.86,0,0,1,7-4.26c2.53-1.08,5.29-2.19,8.13-.53C444.49,119.24,445,119,445.39,118.91Zm37.14,36.67c-.35,1.2-2.81,2.38-3.9,1.75a1.56,1.56,0,0,1-.78-.87,6.87,6.87,0,0,1,.46-4.54c1.36-2.47,3.66-3.81,6-5a3.1,3.1,0,0,1,2.49.24c2.34,1.32,3.6,5,2.78,7.6a12,12,0,0,1-4.44,6.11,12.23,12.23,0,0,1-3.81,1.93,9,9,0,0,1-8.31-1.64,6.93,6.93,0,0,1-2.95-5.43c-.06-4.56,1.95-8.39,4.82-11.79a15.44,15.44,0,0,1,7.17-4.86,25.28,25.28,0,0,1,6-1.08c2.28-.14,4,1,5.55,2.77,1.83,2.09,2.49,6.84,1.09,9.28a1.3,1.3,0,0,0,0,1.19c.48.48.87.1,1.21-.39,2-2.91,1.86-8.48-.6-11.23-.44-.49-.83-1-1.31-1.49a7.23,7.23,0,0,0-5.48-2.38,26.75,26.75,0,0,0-7.5,1.52,18.47,18.47,0,0,0-7,4.53,22,22,0,0,0-5,8.18c-1.67,4.45-1.55,9,2.45,12.37a11.38,11.38,0,0,0,10.86,2.09,13.5,13.5,0,0,0,5.25-3.48c3.07-3,4.64-6.44,3.49-10.76a8.61,8.61,0,0,0-3.2-4.86,4.33,4.33,0,0,0-4.52-.39,31.34,31.34,0,0,0-4.83,3.08c-2.07,1.53-3.4,6.39-2.42,9a5,5,0,0,0,1.76,2.07c1.5,1.12,2.84.09,4.28-.42a3,3,0,0,0,2.26-2.56,3.51,3.51,0,0,0-1.65-3.74c-.86.77-1.82,1.46-1.48,2.76C481.39,155.31,482,155.39,482.53,155.58Zm-21,37.71a49,49,0,0,1,1.76,4.59c.75,2.7,1.83,3.5,4.52,2.66,1.89-.6,3.66-1.56,5.51-2.31.77-.31,1.64-.4,2.39-.73a3.67,3.67,0,0,0,1.43-1.15c.12-.17-.29-1-.62-1.11a2.36,2.36,0,0,0-1.55,0c-.63.21-1.19.65-1.81.92q-3,1.31-6,2.56c-.86.36-1.39,0-1.7-.83-.49-1.39-1-2.8-1.54-4.15-1.17-2.76-1.52-2.89-4.24-1.83-.08,0-.18,0-.26,0a64,64,0,0,0-6.68,2.57c-1.2.6-1.56.25-1.67-.72a14.24,14.24,0,0,0-2.57-6.15l-9.81,2.77c-.27-1.89-.46-3.63-.8-5.34a17.59,17.59,0,0,0-1.1-3.86,1.81,1.81,0,0,0-2.44-1.17c-2.46.85-5,1.53-7.48,2.25-1,.28-2,.48-2.81.68-.11-3.27-.21-6.4-.34-9.52-.06-1.52-1-2.21-2-1.52-2.07,1.4-4.1,2.83-6.17,4.22a6.2,6.2,0,0,1-1.46.4c1.39-5,2.69-9.74,4-14.49-1.45-.23-2.14,0-2.11,1.28a3.05,3.05,0,0,1-.14.78c-1.16,4.1-2.36,8.19-3.45,12.31a3,3,0,0,0,.22,2.23c.57.79,1.49.39,2.23-.1,1.94-1.25,3.88-2.52,5.84-3.75a10.88,10.88,0,0,1,1.46-.66c0,2,0,3.66,0,5.36,0,1.5-.19,3-.25,4.5,0,.9.49,1.41,1.34,1.19,2.35-.61,4.67-1.35,7-2,1.25-.34,2.53-.63,3.8-.89.87-.17,1.36.14,1.5,1.13.38,2.64.87,5.26,1.32,7.89.16,1,.74,1.49,1.71,1.19,2.2-.68,4.4-1.38,6.55-2.21,1.61-.61,2.69-.35,3.25,1.22a28.31,28.31,0,0,1,1.22,4.53c.23,1.32.78,1.45,1.9,1C454.66,195.86,457.87,194.68,461.53,193.29Z"/><path class="cls-1" d="M282.41,302.28c.06-2.48,1.23-4.18,2.34-5.9,1.41-2.18,3.75-3.27,5.68-4.83a2.6,2.6,0,0,1,1.71-.44c2.27.19,4.53.57,6.8.73,3.05.2,6.11.4,9.17.35,3.77-.06,7.54-.37,11.32-.59,1.23-.07,2.46-.13,3.69-.29,2.33-.31,4.67-.58,7-1.07s3.71.78,5.21,2c2.38,1.9,1.85,4.74-1.31,6.32a26,26,0,0,1-9.27,3c-3.48.33-6.93,1-10.4,1.38a24.05,24.05,0,0,1-2.77-.23,34.41,34.41,0,0,0-3.8.18c-2.83.31-5.65.76-8.48,1-3.6.34-7.21.67-10.83.77a24.46,24.46,0,0,1-4.9-.76A1.29,1.29,0,0,1,282.41,302.28Z"/><path class="cls-1" d="M330.71,288.13c-3.72.46-7.2.89-10.67,1.3-1.14.13-2.28.22-3.43.28-2.34.11-4.69.25-7,.25-1.22,0-2.44-.32-3.66-.4-1-.07-2.05.05-3.07,0-1.92-.09-3.83-.24-5.74-.37-1-.06-2-.07-3-.19-.24,0-.64-.49-.6-.66a16.74,16.74,0,0,1,5-8.76,43.86,43.86,0,0,1,11.29-7.11,29.77,29.77,0,0,1,10.81-2.81,19.6,19.6,0,0,1,3.82.28,1.47,1.47,0,0,1,.87.89c.91,2.86,1.73,5.75,2.63,8.61.79,2.51,1.66,5,2.49,7.49C330.51,287.26,330.57,287.59,330.71,288.13Z"/><path class="cls-1" d="M398.33,213.27v-2.51l-.61-.07a23.72,23.72,0,0,0-.47,2.49c-.06.81-.87,1.78.37,2.44.1,0,0,.65-.12.93a16.61,16.61,0,0,0-1.56,9,26.83,26.83,0,0,0,1.39,5.72c.85,2.41.43,3.81-1.71,5.22a28.55,28.55,0,0,1-8.23,3.86c-.82.22-1.75.59-1.75,1.87,0,.29-1,.59-1.51.88-1.16-2.7-2.19-5.09-3.23-7.47a29,29,0,0,1-2.29-9.71c-.17-2.8,1.3-5.17,3.14-7.08a106.8,106.8,0,0,1,8.13-7.5,10.13,10.13,0,0,1,7.29-2.69,1.76,1.76,0,0,1,1.25.83C399.39,211.41,399.35,211.52,398.33,213.27Zm-2.75-3.75-.49.24c0,1.07,0,2.14,0,3.2-.06,1.36-.24,2.72-.27,4.08,0,.38.34.77.52,1.16.28-.23.77-.45.79-.69.15-2.21.26-4.42.26-6.63C396.38,210.43,395.86,210,395.58,209.52Z"/><path class="cls-1" d="M385.58,244.56c.69,0,1.15-.14,1.41,0,1,.66,1.77.33,2.72-.34a37.25,37.25,0,0,1,4.36-2.36c3.62-1.88,6.72-4.3,8.59-8,.14-.27.31-.52.4-.68,1.34.86,2.67,1.66,3.93,2.56a1.22,1.22,0,0,1,.05,1.16,23.27,23.27,0,0,0-4,7.88,29.44,29.44,0,0,0-.92,5.4c0,.25.42.57.77,1-.95.43-1.89.85-2.82,1.3-1.72.83-3.46,1.65-5.15,2.56a1.4,1.4,0,0,1-1.62-.15,14,14,0,0,1-6.07-7.4A22.12,22.12,0,0,0,385.58,244.56Z"/><path class="cls-1" d="M368.56,217.13c-1.89-.44-3.77-.9-5.66-1.3a10.4,10.4,0,0,0-2.35-.27c-2.35.06-4.7.14-7.05.34-1.69.14-3.37.56-5.06.7-2.16.17-4.34.11-6.5.31s-4.5.6-6.75.89c-1.26.17-2.53.33-3.8.41-1.94.13-3.89.19-5.83.28-3.77.18-7.56.24-11.32.59a67.65,67.65,0,0,0-6.67,1.3c-2.6.52-5.2,1.1-7.82,1.48a45.2,45.2,0,0,1-5.7.36,13.28,13.28,0,0,1-2.87-.31,2.91,2.91,0,0,1-2.3-3.11c0-4.09.12-8.18.27-12.28.1-3,.26-6,.54-8.92.24-2.48.7-4.94,1.06-7.41s.62-4.77,1.08-7.13c.42-2.16,1.12-4.26,1.55-6.42.27-1.38,1.4-1.09,2.14-1.2,3.55-.55,7.12-.95,10.68-1.39,3-.37,6-.72,9.06-1.07,3.85-.45,7.71-.83,11.54-1.37,2.83-.39,5.62-1,8.43-1.47,1.39-.22,2.82-.22,4.22-.38,2.83-.33,5.66-.67,8.48-1,3.37-.44,6.73-.94,10.1-1.36,1.86-.23,3.73-.34,5.55-.5.15,1.21.33,2.6.49,4,.27,2.27.66,4.53.76,6.8a67.44,67.44,0,0,0,1.31,12.18,40.21,40.21,0,0,1,.58,5.5c.21,2.46.4,4.93.52,7.39a30.5,30.5,0,0,1-.1,3.31,29.73,29.73,0,0,0,1.28,10.23,4.77,4.77,0,0,1,.17.62A.49.49,0,0,1,368.56,217.13ZM322,197.3l0-.09a16.89,16.89,0,0,1-2.49.57c-3.9.34-7.81.49-11.68,1a19.92,19.92,0,0,0-4.76,1.6c-.26.11-.28.79-.41,1.2.31.09.68.33.91.23,3.34-1.39,6.88-1.57,10.43-1.76,2.15-.12,4.3-.32,6.45-.55,4.66-.5,9.33-1,14-1.61,3-.4,5.92-1.07,8.89-1.56s6-.94,8.95-1.33a2.37,2.37,0,0,1,1.52.53c.71.52,1.06.1,1.12-.43a1.57,1.57,0,0,0-.58-1.21c-1.76-1.22-3.75-.39-5.6-.38a27,27,0,0,0-5.61,1.13c-1.61.37-3.21.83-4.83,1.11-2,.35-4,.61-6,.79C328.82,196.81,325.39,197,322,197.3Zm37.84,8.32.2-.37c-.21-.23-.38-.6-.62-.65a35.73,35.73,0,0,0-6.23-1.22,88.47,88.47,0,0,0-8.9.4c-2,.12-3.95.28-5.92.54s-4.13.7-6.19,1.05c-3,.52-6.14.89-9.15,1.59-3.54.84-7,2-10.52,2.94a8.75,8.75,0,0,1-2.39-.05h-2c1.14,1.47,2.27,2,3.56,1.75,3.81-.87,7.58-1.94,11.39-2.81,3.18-.72,6.39-1.36,9.62-1.87s6.77-.89,10.17-1.27c2.23-.24,4.49-.27,6.71-.59a22.39,22.39,0,0,1,8.63.44A8.93,8.93,0,0,0,359.81,205.62ZM349.05,185c2-.18,3.88-.32,5.76-.55a4,4,0,0,0,1.2-.66c-.46-.31-.93-.89-1.38-.88-5.18.11-10.37.31-15.55.49a11.83,11.83,0,0,0-1.33.05c-2.9.38-5.78,1-8.68,1.13-3.63.16-6.95,1.4-10.35,2.38a3.07,3.07,0,0,0-1.43,1.13c-.21.29-.08.84-.11,1.27a4.27,4.27,0,0,0,1-.14c.72-.3,1.39-.73,2.12-1a34.89,34.89,0,0,1,9.65-2.2c3.5-.21,7-.78,10.49-1C343.36,184.89,346.27,185,349.05,185Zm6.24-8.25,0-.43c-.31-.22-.59-.61-.91-.65a37.3,37.3,0,0,0-5.76-.42,62.47,62.47,0,0,0-6.34.92c-1.08.17-2.16.35-3.25.49a24,24,0,0,1-4.52.44c-.87-.06-1.41.11-1.4.8,0,.42.73,1,1.22,1.16a5.51,5.51,0,0,0,1.94-.21c2.38-.35,4.75-.73,7.13-1,3.39-.44,6.75-1.29,10.22-.61C354.11,177.32,354.72,176.93,355.29,176.77ZM302.15,185l.41.44a10.74,10.74,0,0,0,1.28-1c1.22-1.32,2.32-2.74,3.6-4,1-1,1.57-2.43.88-3.37a5,5,0,0,0-7-.67c-.26.25-.28.76-.42,1.15a4.35,4.35,0,0,0,1.06-.2,20.3,20.3,0,0,1,4-.07c.84.13,1.19.91.31,1.66-.34.29-.6.71-1,.89C303,180.92,302.58,183,302.15,185Zm18.5-5.63c-2.12,0-4.14-.06-6.15,0a1.64,1.64,0,0,0-1.22,1c-.2,1,.65.89,1.25.81,2-.25,4.05-.56,6.12-.85Zm3.62,1.33.24-.38c1.09,0,2.18,0,3.26-.18.34,0,.63-.44,1-.68a3.24,3.24,0,0,0-1-.6c-1-.16-2.09-.14-3.12-.32-.83-.14-1.72-.28-1.68.82C322.94,179.85,323.79,180.29,324.27,180.73ZM304.12,190c.67-.29,1.83.08,1.54-1.22a1.2,1.2,0,0,0-1-.65C303.6,188.43,303.67,189.17,304.12,190Z"/><path class="cls-1" d="M118.69,42c1.64.11,3.4.28,5.16.33a14.93,14.93,0,0,0,2.47-.27,9.83,9.83,0,0,1,1.41-.22c6.38.16,12.77.38,19.15.52,5,.1,10,.14,15,.18,4.7,0,9.4,0,14.09.12,4.15.09,8.31.29,12.46.52q5.67.32,11.33.84c.49.05,1.33.77,1.29,1.09a27.75,27.75,0,0,1-1,4.68,1.76,1.76,0,0,1-1.29.85,50.45,50.45,0,0,1-12-.17,54.66,54.66,0,0,0-6.52.1c-.65,0-1.29-.16-1.93-.16-2.69,0-5.37.09-8.05,0-3.39-.16-6.76-.51-10.15-.76-1.67-.12-3.35-.2-5-.28-3.75-.18-7.51-.35-11.26-.54-4.36-.23-8.73-.53-13.09-.7-1.85-.07-3.71.15-5.57.13-1.54,0-3.07-.18-4.61-.27-.28,0-.6.07-.83,0s-.86-.46-.9-.75a21.75,21.75,0,0,1,0-2.8Z"/><path class="cls-1" d="M64.78,108.47c-1.56-.32-2.72-.65-3.91-.77a9.18,9.18,0,0,0-2.33.44c-.13-.52-.36-1.41-.6-2.3a14.21,14.21,0,0,0-.7-2.24,1.08,1.08,0,0,0-1.05-.22,1.43,1.43,0,0,0-.61,1.1c.15,1.55.44,3.08.68,4.63-1.74-.27-2.26-.86-2.3-3.51,0-3.24.07-6.5.26-9.74.15-2.49.48-5,.8-7.46a2.6,2.6,0,0,1,.69-1.47l5.31-.5c.52-.05,1-.19,1.56-.19,4.86,0,9.72,0,14.58,0a2.44,2.44,0,0,1,2.72,2.54,49.54,49.54,0,0,1-1.52,15.76c-.61,2.26-1.1,2.56-3.5,2.71s-4.93.45-7.4.67a4.92,4.92,0,0,1-.67,0c-.44-1.69-.76-3.31-1.3-4.86-.21-.58-.91-1.35-1.43-1.39a25.41,25.41,0,0,0-4.85.19c-.34,0-.61.76-.91,1.17.43.3.84.81,1.28.83a23.39,23.39,0,0,0,2.88-.21c.86-.06,1.3.31,1.4,1.21a11.52,11.52,0,0,0,.55,1.66C64.55,107,64.6,107.51,64.78,108.47Z"/><path class="cls-1" d="M85.43,130a8.86,8.86,0,0,0-3.62,5.65c-.06.25.39.61.77,1.15a11,11,0,0,0,.75-1.52c.9-2.89,3.56-3.72,5.94-1.57a17,17,0,0,1,4.47,6.9,22.89,22.89,0,0,1,1.34,6.1,10.53,10.53,0,0,1-3.09,8,20.2,20.2,0,0,1-9,5.69,28.81,28.81,0,0,1-6.65,1.26c-4.47.18-8.39-1.65-11.77-4.38-1.16-.94-1.67-2.77-2.31-4.27a12.48,12.48,0,0,1-.5-9.11c1.45-4.25,4.26-7.53,7.65-10.4a18.52,18.52,0,0,1,11.86-4.13A23,23,0,0,1,85.43,130ZM82.72,157.2a12.45,12.45,0,0,0,0-1.85c-.18-1.21-.57-2.39-.65-3.6-.24-3.76-.32-7.54-.59-11.31a36,36,0,0,0-.84-5c-.11-.51-.34-1.31-1.27-.87-.72.34-.84.82-.54,1.57a10,10,0,0,1,.78,2.74c.33,3.59.58,7.19.83,10.79.12,1.71.1,3.44.3,5.15C80.85,155.79,81.05,156.93,82.72,157.2ZM71.78,135.84c.12.93.31,1.75.33,2.57.12,4,.18,8,.29,12a13.64,13.64,0,0,0,.31,3,5.35,5.35,0,0,0,1.17,2.14c.56.62,1.2.45,1.7-.3s.29-1-.49-1.33a1.92,1.92,0,0,1-.78-1.37c-.26-2-.46-4.1-.56-6.16-.15-3.12-.2-6.25-.29-9.37C73.44,136,72.93,135.65,71.78,135.84Zm17.55,1.93c2.06,5.72,1.47,11.45,1.13,17.28.47-.15.85-.38.91-.68a29.91,29.91,0,0,0,.89-8.4,31.13,31.13,0,0,0-1.06-7.35C90.84,137.54,90.39,137.58,89.33,137.77Z"/><path class="cls-1" d="M170.23,131c.33,2.64.62,5,.92,7.43,0,.25.17.49.22.74.16,1,0,1.52-1.21,1.68-4.16.54-8.3,1.19-12.44,1.83-5.65.88-11.29,1.8-16.94,2.69s-11.39,1.76-17.08,2.7c-1.88.31-3.75.75-5.6,1.23-1,.27-1.78.79-2.28-.93a58.1,58.1,0,0,0-3.08-7c1.15-.19,2.26-.31,3.32-.56,3.13-.74,6.22-1.64,9.37-2.29,4.14-.85,8.31-1.56,12.48-2.25,4.57-.76,9.15-1.46,13.73-2.13,3.42-.5,6.86-.86,10.27-1.39,2.23-.34,4.43-.89,6.65-1.35C169,131.35,169.39,131.24,170.23,131Z"/><path class="cls-1" d="M113.64,26c.06-1.81,1.56-3.21,1.11-4.74,1.91-.22,4-.45,6-.7,1.74-.22,3.47-.47,5.2-.69,2.81-.36,5.62-.72,8.44-1,2.09-.23,4.2-.44,6.3-.56,5.3-.3,10.6-.54,15.89-.83,1.67-.09,3-.08,3.9,1.9.74,1.68,2.17,3.05,3.28,4.57.22.3.41.64.78,1.23-1.85.12-3.45.29-5,.32-1.05,0-2.11-.19-3.16-.23-4.42-.2-8.86-.19-13.27-.59a153.44,153.44,0,0,0-16.19-.16c-3.85,0-7.7.64-11.55,1A10.92,10.92,0,0,0,113.64,26Z"/><path class="cls-1" d="M216.39,103.89c-1.52-1.73-3-3.45-4.54-5.15-.44-.48-1-1.06-1.66-.41s-.36,1.32.25,2c1.06,1.07,2.07,2.19,3.05,3.33a5.22,5.22,0,0,1,.57,1.21,29.59,29.59,0,0,1-4.26.58c-3.58,0-7.34.15-10.15-2.61-3-2.91-2.79-5.83-.54-9.32a17.54,17.54,0,0,1,8-6.86,9.86,9.86,0,0,1,7.46,0c-.85.73-1.52,1.2-2.07,1.79s-1.66.63-1.09,1.78l4.17-2.42L217,89.09l.56-1.7c2-.85,3.64.33,5.16,1.42a9.59,9.59,0,0,1,3.72,5.74c.39,1.64-.54,3-1.59,4.13A19,19,0,0,1,216.39,103.89Z"/><path class="cls-1" d="M35.08,43c-6-.48-11.31-1.2-15.82-4.45A7.08,7.08,0,0,1,16.19,33C16,29,17.76,25.72,20,22.55a13.9,13.9,0,0,1,4.74-4.24c1.74-.94,3.68-2.24,5.84-.89a9.94,9.94,0,0,1,1.63,1.42c.52.5.4.88-.19,1.28-.26.17-.34.6-.5.91a3.71,3.71,0,0,0,1.28.24,25.13,25.13,0,0,1,2.64-.61,5.81,5.81,0,0,1,5.69,3.43c1,1.76,2.2,3.37,3.07,5.17,1.7,3.54,2.53,7.22-.22,10.6A7.62,7.62,0,0,1,40.36,42,41.41,41.41,0,0,1,35.08,43Zm-.15-11.4c0-2.59-2-5.16-4-5.08-4.49.19-4.89,1.45-5.32,5.35-.24,2.14,2,4,4.27,4C32,35.88,34.93,33.42,34.93,31.61Z"/><path class="cls-1" d="M77.18,25.88a7.17,7.17,0,0,0,1.52-.75,3.89,3.89,0,0,1,4.65.28c1.5,1.63,3,3.39,3,5.67a7.69,7.69,0,0,1-1,4.24c-2.5,3.86-6.53,5.07-10.84,5.68a15.66,15.66,0,0,1-12.43-3.58c-2.11-1.71-2.43-4.24-1.94-6.77a12.06,12.06,0,0,1,3.93-6.8,12,12,0,0,1,12.38-1.4c1.68.68,1.71.83.75,2.36a5,5,0,0,0-.3.71ZM70.51,37.61c2.78-.65,5.59-1.32,7.91-3.31a3.41,3.41,0,0,0,.66-4.51c-1-1.75-2.66-3.25-4.48-2.69a1.24,1.24,0,0,1-1.11-.35,3.09,3.09,0,0,0-4.2-.92,16.44,16.44,0,0,0-3.91,3.41,4.63,4.63,0,0,0-.6,5.08C66,36.62,68.09,37.23,70.51,37.61Z"/><path class="cls-1" d="M30.73,225.17a32.18,32.18,0,0,1-5.75-2,6.25,6.25,0,0,1-2.86-4.8,11.1,11.1,0,0,1,3.16-9.53,43,43,0,0,1,4.36-4.18c1.67-1.31,3.42-2.75,5.81-2.24a5.1,5.1,0,0,1,1.57.9c.16.11.18.47.34.53,2.6,1,3.69,3.51,5.19,5.55a21.45,21.45,0,0,1,2.74,5c1.37,3.58-.07,5.46-2.91,7.31a19.08,19.08,0,0,1-10.15,2.95,9.84,9.84,0,0,0-1.42.26Zm7.75-15.8a6.42,6.42,0,0,0-1.09-.5c-1.27-.23-2.18.5-3,1.25s-1.44.8-2.26-.24a8,8,0,0,0-1.59-1.73,1.48,1.48,0,0,0-1.39.14c-.56.5-.34,1.09.27,1.55s1.19,1,1.8,1.54.75.89.15,1.54a33.77,33.77,0,0,0-2.83,3.38,2.89,2.89,0,0,0-.44,1.84c0,.33.68.78,1.1.83s1.1-.46,1.08-.66c-.18-1.84,1.26-2.7,2.2-3.87.5-.62,1-.66,1.52,0,.7.82,1.42,1.63,2.16,2.41a1.52,1.52,0,0,0,2.13.28c.27-.17.66-.45.65-.67s-.34-.59-.59-.81c-1.24-1.08-2.5-2.14-3.9-3.34Z"/><path class="cls-1" d="M255.71,39.91,265,24.54l10.07,12.09C268.54,37.41,262.2,37.8,255.71,39.91Z"/><path class="cls-1" d="M40.41,182.46l-.88-3a10,10,0,0,1,1.8,1.24,8,8,0,0,1,1.84,7.93,7.86,7.86,0,0,1-1.9,3.24,13,13,0,0,1-9.88,3.85C27.89,195.6,26,193,26,189.41a12.88,12.88,0,0,1,3.22-8.29c1.24-1.58,2.83-3.08,5.23-2.79.87.1,1.44.31,1.17,1.39-.19.78.33,1.3,1,.95,1.18-.61,1.52.25,1.93.92S39.26,182.82,40.41,182.46Zm-7.35-.39c-.71.46-1.13.87-.84,1.82.48,1.56.68,3.22,1.18,4.78.1.33,1,.65,1.44.55a1.46,1.46,0,0,0,.69-1.27c-.24-1.13-1.17-2.29-1-3.29C34.82,183.09,34.05,182.63,33.06,182.07Zm2,10.63c.51-.62,1.12-1.22,1.06-1.3a5,5,0,0,0-1.59-1.48c-.18-.08-.8.74-1.22,1.15Z"/><path class="cls-1" d="M124,163a19,19,0,0,1-2.39-.48,3.55,3.55,0,0,0-3.52.7c-.72.51-2,.26-3,.3a1.61,1.61,0,0,1-.16-.74c.24-2.44,2.88-3.81,5.21-3.14.5.14,1,.35,1.48.48C123.6,160.58,123.6,160.57,124,163Z"/><path class="cls-1" d="M298.17,90.58c-1.95-2.55-3.88-5.11-5.86-7.63a10.21,10.21,0,0,0-1.5-1.31,16.66,16.66,0,0,1,8.95,1.2c-.55,2.59-3.18,4.74-1.62,7.78Z"/><path class="cls-1" d="M229.45,48.37c2.28,2.77,2.66,5.93,3.84,9.06-2.46-.23-4.74-.4-7-.7-.75-.09-.61-.68-.32-1.23,1.07-2,2.11-4,3.14-6A7.32,7.32,0,0,0,229.45,48.37Z"/><path class="cls-1" d="M361.07,133.09l-1.66,2.15.33.37a13.78,13.78,0,0,0,1.29-1c1.56-1.52,1.75-1.49,2.47.54.06.19.11.39.16.58l.37,0a7.76,7.76,0,0,0,.27-1.34c0-.62-.28-1.6,0-1.79a6.82,6.82,0,0,1,2.74-1.13c1.31-.23,2.67-.23,3.43,1.27,1,1.87.48,3.67-.41,5.36-1.13,2.15-3.32,2.92-5.39,3.71a22.07,22.07,0,0,1-5,1.33c-1.64.19-3.45.05-4.25-1.82a4.31,4.31,0,0,1-.16-2.34A8.35,8.35,0,0,1,361.07,133.09Z"/><path class="cls-1" d="M294.05,61.52a40.76,40.76,0,0,1,7.19,12.56c-2.18-.37-4.16-.63-6.1-1a12.25,12.25,0,0,0-6.06.5Z"/><path class="cls-1" d="M266,73.65a6.15,6.15,0,0,1,2.52,2.44c1.84,3,.42,5.67-3.17,6.13-2.4.31-4.39-.28-5.72-2.39-1.14-1.81-.87-5.71,1.34-6.91.63-.35,1.91.06,2.65.52.49.31.58,1.3.81,2a10.48,10.48,0,0,1,.25,1.11c.33-.23.85-.4,1-.71A11.91,11.91,0,0,0,266,73.65Z"/><path class="cls-1" d="M56.66,66.64l2.72-5.26L65.81,68l-.19.38Z"/><path class="cls-1" d="M367.49,151a4,4,0,0,0-.94.57c-.3.41-.52.87-.78,1.31.42-.08.85-.14,1.26-.24s1-.48,1.45-.41,1.15.58,1.12.8c-.16.9-.07,2-1.14,2.5a9.86,9.86,0,0,1-8.81-.23c-1.83-.9-2.09-3.86-.66-5.94a3.47,3.47,0,0,1,4.87-1C365.06,149.1,366.18,150,367.49,151Z"/><path class="cls-1" d="M142,103.1a8.46,8.46,0,0,1,2.55-5.38,1.78,1.78,0,0,1,2.16-.29c1.58.64,3.11,4.18,1.7,5.92A7.18,7.18,0,0,1,144,106C142.53,106.27,142,105.56,142,103.1Z"/><path class="cls-1" d="M155.61,157.48c0-1.41,0-2.55,0-3.69s.42-1.51,1.43-1.42a17.57,17.57,0,0,1,2.73.35c1.12.27,1.47,1.23,1.19,3a1.54,1.54,0,0,1-1.73,1.52A36.13,36.13,0,0,0,155.61,157.48Z"/><path class="cls-1" d="M245,13.25c-1.36,1-2.78,1.75-4.51,1.2-.41-.13-1.07-.57-1-.76.08-.48.43-1.2.8-1.29a7.88,7.88,0,0,1,2.32,0c.29,0,.81.18.85.09,1-1.92,1,.13,1.4.33C244.9,12.91,244.92,13.09,245,13.25Z"/><path class="cls-1" d="M213.72,17.14a2.13,2.13,0,0,1-2.42-1.32c-.26-.67.83-2.67,1.59-2.94a1.63,1.63,0,0,1,1.09,0,11.09,11.09,0,0,1,2.37,1.35c.28.23.44,1.18.25,1.34a24.22,24.22,0,0,1-2.69,1.86Z"/><path class="cls-1" d="M256.37,11.88c1.13.94,1.13,1.46-.59,2-1.36.4-2.77,1.24-4.31.3-.83-.51-.76-1.06-.08-1.33a9.16,9.16,0,0,1,2.64-.37c.38,0,.8.2,1.16.12A5.28,5.28,0,0,0,256.37,11.88Z"/><path class="cls-1" d="M174.18,101.76c-.26,1.59-1.25,1.71-2.18,1.86-1.25.2-1.37-.83-1.36-1.6a7.76,7.76,0,0,1,.61-2.36c.24-.71.83-.85,1.29-.32A23.61,23.61,0,0,1,174.18,101.76Z"/><path d="M445.39,118.91c-.39.07-.9.33-1.16.18-2.84-1.66-5.6-.55-8.13.53a42.86,42.86,0,0,0-7,4.26,21.42,21.42,0,0,0-3.63,3.09,16,16,0,0,0-4.17,7.85,19.66,19.66,0,0,0-.38,7.55c.44,2.41,2.42,3.89,4.46,4.71a17.85,17.85,0,0,0,17.06-1.37c3.41-2.14,4.95-5.25,5.63-9a13.84,13.84,0,0,0,.39-3.87c-.32-3-2.82-3.93-5.23-4.85a8.36,8.36,0,0,0-6.92.26c-3.9,1.91-6.93,6.28-5.63,10.42a3.32,3.32,0,0,0,3.81,2.38,44.22,44.22,0,0,0,5.3-2.1,1,1,0,0,0,.5-.54,5.12,5.12,0,0,0-.35-4.41,1.69,1.69,0,0,0-1.55-.55c-.54.25-1.39.59-1.1,1.64a3.93,3.93,0,0,1-.22,1.47c-1.7-.39-2.2-2.75-1-4.14a3.23,3.23,0,0,1,3.58-1.13,3.8,3.8,0,0,1,2.15,2.19,12.06,12.06,0,0,1,.34,4.89c-.28,1.91-2,2.84-3.64,3.49a26.34,26.34,0,0,1-3.65.92,5.24,5.24,0,0,1-6.3-4.23c-.72-3.7.66-6.62,3.08-9.18s5.48-4.29,9.13-4a11.63,11.63,0,0,1,8.8,4.53c1.13,1.52.88,3.44.59,5.15a38.74,38.74,0,0,1-1.86,7.13,9.25,9.25,0,0,1-2.58,3.29,18.12,18.12,0,0,1-11,5c-4.52.33-8.9-.29-12.65-3.16a7.78,7.78,0,0,1-3.36-6.53c.07-4.12.5-8.19,2.83-11.74a29.52,29.52,0,0,1,7.28-7.34,27,27,0,0,1,8.82-4.5c2.14-.6,4.33-1.07,6.43.18.51.31,1,.73,1.44,1.09Z"/><path d="M482.53,155.58c-.5-.19-1.14-.27-1.2-.49-.34-1.3.62-2,1.48-2.76a3.51,3.51,0,0,1,1.65,3.74,3,3,0,0,1-2.26,2.56c-1.44.51-2.78,1.54-4.28.42a5,5,0,0,1-1.76-2.07c-1-2.6.35-7.46,2.42-9a31.34,31.34,0,0,1,4.83-3.08,4.33,4.33,0,0,1,4.52.39,8.61,8.61,0,0,1,3.2,4.86c1.15,4.32-.42,7.71-3.49,10.76a13.5,13.5,0,0,1-5.25,3.48,11.38,11.38,0,0,1-10.86-2.09c-4-3.41-4.12-7.92-2.45-12.37a22,22,0,0,1,5-8.18,18.47,18.47,0,0,1,7-4.53,26.75,26.75,0,0,1,7.5-1.52,7.23,7.23,0,0,1,5.48,2.38c.48.45.87,1,1.31,1.49,2.46,2.75,2.59,8.32.6,11.23-.34.49-.73.87-1.21.39a1.3,1.3,0,0,1,0-1.19c1.4-2.44.74-7.19-1.09-9.28-1.52-1.72-3.27-2.91-5.55-2.77a25.28,25.28,0,0,0-6,1.08,15.44,15.44,0,0,0-7.17,4.86c-2.87,3.4-4.88,7.23-4.82,11.79a6.93,6.93,0,0,0,2.95,5.43,9,9,0,0,0,8.31,1.64,12.23,12.23,0,0,0,3.81-1.93,12,12,0,0,0,4.44-6.11c.82-2.59-.44-6.28-2.78-7.6a3.1,3.1,0,0,0-2.49-.24c-2.33,1.23-4.63,2.57-6,5a6.87,6.87,0,0,0-.46,4.54,1.56,1.56,0,0,0,.78.87C479.72,158,482.18,156.78,482.53,155.58Z"/><path d="M461.53,193.29c-3.66,1.39-6.87,2.57-10.06,3.82-1.12.45-1.67.32-1.9-1a28.31,28.31,0,0,0-1.22-4.53c-.56-1.57-1.64-1.83-3.25-1.22-2.15.83-4.35,1.53-6.55,2.21-1,.3-1.55-.22-1.71-1.19-.45-2.63-.94-5.25-1.32-7.89-.14-1-.63-1.3-1.5-1.13-1.27.26-2.55.55-3.8.89-2.35.65-4.67,1.39-7,2-.85.22-1.38-.29-1.34-1.19.06-1.5.21-3,.25-4.5,0-1.7,0-3.4,0-5.36a10.88,10.88,0,0,0-1.46.66c-2,1.23-3.9,2.5-5.84,3.75-.74.49-1.66.89-2.23.1a3,3,0,0,1-.22-2.23c1.09-4.12,2.29-8.21,3.45-12.31a3.05,3.05,0,0,0,.14-.78c0-1.24.66-1.51,2.11-1.28-1.32,4.75-2.62,9.44-4,14.49a6.2,6.2,0,0,0,1.46-.4c2.07-1.39,4.1-2.82,6.17-4.22,1-.69,2,0,2,1.52.13,3.12.23,6.25.34,9.52.85-.2,1.84-.4,2.81-.68,2.51-.72,5-1.4,7.48-2.25a1.81,1.81,0,0,1,2.44,1.17,17.59,17.59,0,0,1,1.1,3.86c.34,1.71.53,3.45.8,5.34l9.81-2.77a14.24,14.24,0,0,1,2.57,6.15c.11,1,.47,1.32,1.67.72a64,64,0,0,1,6.68-2.57c.08,0,.18,0,.26,0,2.72-1.06,3.07-.93,4.24,1.83.58,1.35,1,2.76,1.54,4.15.31.86.84,1.19,1.7.83q3-1.26,6-2.56c.62-.27,1.18-.71,1.81-.92a2.36,2.36,0,0,1,1.55,0c.33.13.74.94.62,1.11a3.67,3.67,0,0,1-1.43,1.15c-.75.33-1.62.42-2.39.73-1.85.75-3.62,1.71-5.51,2.31-2.69.84-3.77,0-4.52-2.66A49,49,0,0,0,461.53,193.29Z"/><path d="M395.58,209.52c.28.45.8.91.8,1.36,0,2.21-.11,4.42-.26,6.63,0,.24-.51.46-.79.69-.18-.39-.53-.78-.52-1.16,0-1.36.21-2.72.27-4.08.05-1.06,0-2.13,0-3.2Z"/><path d="M322,197.3c3.42-.26,6.85-.49,10.27-.8,2-.18,4-.44,6-.79,1.62-.28,3.22-.74,4.83-1.11a27,27,0,0,1,5.61-1.13c1.85,0,3.84-.84,5.6.38a1.57,1.57,0,0,1,.58,1.21c-.06.53-.41.95-1.12.43a2.37,2.37,0,0,0-1.52-.53c-3,.39-6,.84-8.95,1.33s-5.91,1.16-8.89,1.56c-4.65.63-9.32,1.11-14,1.61-2.15.23-4.3.43-6.45.55-3.55.19-7.09.37-10.43,1.76-.23.1-.6-.14-.91-.23.13-.41.15-1.09.41-1.2a19.92,19.92,0,0,1,4.76-1.6c3.87-.47,7.78-.62,11.68-1a16.89,16.89,0,0,0,2.49-.57Z"/><path d="M359.81,205.62a8.93,8.93,0,0,1-1.64-.12,22.39,22.39,0,0,0-8.63-.44c-2.22.32-4.48.35-6.71.59-3.4.38-6.8.74-10.17,1.27s-6.44,1.15-9.62,1.87c-3.81.87-7.58,1.94-11.39,2.81-1.29.29-2.42-.28-3.56-1.75h2a8.75,8.75,0,0,0,2.39.05c3.52-.93,7-2.1,10.52-2.94,3-.7,6.1-1.07,9.15-1.59,2.06-.35,4.12-.77,6.19-1.05s4-.42,5.92-.54a88.47,88.47,0,0,1,8.9-.4,35.73,35.73,0,0,1,6.23,1.22c.24.05.41.42.62.65Z"/><path d="M349.05,185c-2.78,0-5.69-.13-8.58,0-3.5.21-7,.78-10.49,1a34.89,34.89,0,0,0-9.65,2.2c-.73.26-1.4.69-2.12,1a4.27,4.27,0,0,1-1,.14c0-.43-.1-1,.11-1.27a3.07,3.07,0,0,1,1.43-1.13c3.4-1,6.72-2.22,10.35-2.38,2.9-.13,5.78-.75,8.68-1.13a11.83,11.83,0,0,1,1.33-.05c5.18-.18,10.37-.38,15.55-.49.45,0,.92.57,1.38.88a4,4,0,0,1-1.2.66C352.93,184.7,351.05,184.84,349.05,185Z"/><path d="M355.29,176.77c-.57.16-1.18.55-1.69.45-3.47-.68-6.83.17-10.22.61-2.38.31-4.75.69-7.13,1a5.51,5.51,0,0,1-1.94.21c-.49-.13-1.2-.74-1.22-1.16,0-.69.53-.86,1.4-.8a24,24,0,0,0,4.52-.44c1.09-.14,2.17-.32,3.25-.49a62.47,62.47,0,0,1,6.34-.92,37.3,37.3,0,0,1,5.76.42c.32,0,.6.43.91.65Z"/><path d="M302.15,185c.43-2.07.89-4.11,3.14-5.16.39-.18.65-.6,1-.89.88-.75.53-1.53-.31-1.66a20.3,20.3,0,0,0-4,.07,4.35,4.35,0,0,1-1.06.2c.14-.39.16-.9.42-1.15a5,5,0,0,1,7,.67c.69.94.15,2.37-.88,3.37-1.28,1.24-2.38,2.66-3.6,4a10.74,10.74,0,0,1-1.28,1Z"/><path d="M320.65,179.4v1c-2.07.29-4.09.6-6.12.85-.6.08-1.45.14-1.25-.81a1.64,1.64,0,0,1,1.22-1C316.51,179.34,318.53,179.4,320.65,179.4Z"/><path d="M324.27,180.73c-.48-.44-1.33-.88-1.34-1.34,0-1.1.85-1,1.68-.82,1,.18,2.09.16,3.12.32a3.24,3.24,0,0,1,1,.6c-.32.24-.61.64-1,.68-1.08.13-2.17.13-3.26.18Z"/><path d="M304.12,190c-.45-.85-.52-1.59.55-1.87a1.2,1.2,0,0,1,1,.65C306,190.1,304.79,189.73,304.12,190Z"/><path d="M82.72,157.2c-1.67-.27-1.87-1.41-2-2.4-.2-1.71-.18-3.44-.3-5.15-.25-3.6-.5-7.2-.83-10.79a10,10,0,0,0-.78-2.74c-.3-.75-.18-1.23.54-1.57.93-.44,1.16.36,1.27.87a36,36,0,0,1,.84,5c.27,3.77.35,7.55.59,11.31.08,1.21.47,2.39.65,3.6A12.45,12.45,0,0,1,82.72,157.2Z"/><path d="M71.78,135.84c1.15-.19,1.66.19,1.68,1.16.09,3.12.14,6.25.29,9.37.1,2.06.3,4.12.56,6.16a1.92,1.92,0,0,0,.78,1.37c.78.33,1,.58.49,1.33s-1.14.92-1.7.3a5.35,5.35,0,0,1-1.17-2.14,13.64,13.64,0,0,1-.31-3c-.11-4-.17-8-.29-12C72.09,137.59,71.9,136.77,71.78,135.84Z"/><path d="M89.33,137.77c1.06-.19,1.51-.23,1.87.85A31.13,31.13,0,0,1,92.26,146a29.91,29.91,0,0,1-.89,8.4c-.06.3-.44.53-.91.68C90.8,149.22,91.39,143.49,89.33,137.77Z"/><path d="M34.93,31.61c0,1.81-2.9,4.27-5,4.28-2.31,0-4.51-1.87-4.27-4,.43-3.9.83-5.16,5.32-5.35C33,26.45,34.93,29,34.93,31.61Zm-3.34-2.89c-.86.62-2.3.28-2.59,1.7,0,.06-.23.09-.36.11-1.15.19-1,1.2-.87,1.82a2.92,2.92,0,0,0,1.32,1.73c.8.39,3-.79,3.54-1.63C33.4,31.17,33.21,30.45,31.59,28.72Z"/><path d="M70.51,37.61c-2.42-.38-4.54-1-5.73-3.29a4.63,4.63,0,0,1,.6-5.08,16.44,16.44,0,0,1,3.91-3.41,3.09,3.09,0,0,1,4.2.92,1.24,1.24,0,0,0,1.11.35c1.82-.56,3.45.94,4.48,2.69a3.41,3.41,0,0,1-.66,4.51C76.1,36.29,73.29,37,70.51,37.61Zm.15-1.76c-1.87-1.18-2.21-1.73-2-3.64.12-1.16.92-1.75,1.86-1.26,1.72.9,3.94,1.09,4.61,3.39.38-.16.63-.24.86-.35,2.16-1.06,2.41-3,.66-4.72a1.53,1.53,0,0,0-2-.39,10.84,10.84,0,0,1-2.11.57c-.26-2.11-.74-2.45-2.34-1.65a9.58,9.58,0,0,0-2.81,2.06c-1.56,1.73-1.44,3.94.31,5.13A10,10,0,0,0,70.66,35.85Z"/><path d="M38.48,209.37l-4.08,2.92c1.4,1.2,2.66,2.26,3.9,3.34.25.22.57.53.59.81s-.38.5-.65.67a1.52,1.52,0,0,1-2.13-.28c-.74-.78-1.46-1.59-2.16-2.41-.55-.64-1-.6-1.52,0-.94,1.17-2.38,2-2.2,3.87,0,.2-.73.7-1.08.66s-1.07-.5-1.1-.83a2.89,2.89,0,0,1,.44-1.84,33.77,33.77,0,0,1,2.83-3.38c.6-.65.41-1.07-.15-1.54s-1.18-1.06-1.8-1.54-.83-1.05-.27-1.55a1.48,1.48,0,0,1,1.39-.14,8,8,0,0,1,1.59,1.73c.82,1,1.27,1.1,2.26.24s1.78-1.48,3-1.25A6.42,6.42,0,0,1,38.48,209.37Z"/><path d="M33.06,182.07c1,.56,1.76,1,1.48,2.59-.18,1,.75,2.16,1,3.29a1.46,1.46,0,0,1-.69,1.27c-.44.1-1.34-.22-1.44-.55-.5-1.56-.7-3.22-1.18-4.78C31.93,182.94,32.35,182.53,33.06,182.07Z"/><path d="M35.08,192.7l-1.75-1.63c.42-.41,1-1.23,1.22-1.15a5,5,0,0,1,1.59,1.48C36.2,191.48,35.59,192.08,35.08,192.7Z"/><path class="cls-1" d="M31.59,28.72c1.62,1.73,1.81,2.45,1,3.73-.51.84-2.74,2-3.54,1.63a2.92,2.92,0,0,1-1.32-1.73c-.15-.62-.28-1.63.87-1.82.13,0,.35-.05.36-.11C29.29,29,30.73,29.34,31.59,28.72Z"/><path class="cls-1" d="M70.66,35.85a10,10,0,0,1-3-.86c-1.75-1.19-1.87-3.4-.31-5.13a9.58,9.58,0,0,1,2.81-2.06c1.6-.8,2.08-.46,2.34,1.65a10.84,10.84,0,0,0,2.11-.57,1.53,1.53,0,0,1,2,.39C78.39,31,78.14,32.93,76,34c-.23.11-.48.19-.86.35-.67-2.3-2.89-2.49-4.61-3.39-.94-.49-1.74.1-1.86,1.26C68.45,34.12,68.79,34.67,70.66,35.85Z"/></svg>