<svg id="Layer_1" data-name="Layer 1" xmlns="http://www.w3.org/2000/svg" viewBox="0 0 438.41 86.59"><defs><style>.cls-1,.cls-9{fill:none;stroke-miterlimit:10;stroke-width:0.5px;}.cls-1{stroke:#0062fd;}.cls-2{font-size:7.07px;}.cls-10,.cls-2,.cls-3{fill:#231f20;font-family:Helvetica-Light, Helvetica;font-weight:300;}.cls-3{font-size:5.3px;}.cls-4{fill:#ff517d;}.cls-5{fill:#ff907c;}.cls-6{fill:#00edcf;}.cls-7{fill:#d0d2d3;}.cls-8{fill:#008bff;}.cls-9{stroke:#06f;}.cls-10{font-size:7.95px;}</style></defs><rect class="cls-1" x="180.81" y="-180.81" width="76.28" height="437.91" rx="11.42" transform="translate(181.06 257.34) rotate(-90)"/><text class="cls-2" transform="translate(32.23 11.72)">Online discussion participation for courses:</text><text class="cls-3" transform="translate(340.6 46.84)">Lo</text><text class="cls-3" transform="translate(404.62 46.84)">Hi</text><circle class="cls-4" cx="344.17" cy="35.03" r="5.2"/><circle class="cls-5" cx="359.24" cy="35.03" r="5.2"/><circle class="cls-6" cx="391.82" cy="35.03" r="5.2"/><circle class="cls-7" cx="375.6" cy="35.03" r="5.2"/><circle class="cls-8" cx="407.31" cy="35.03" r="5.2"/><rect class="cls-9" x="362.59" y="-4.29" width="24.74" height="84.87" rx="6.46" transform="translate(337.07 413.35) rotate(-90)"/><rect class="cls-4" x="25.07" y="26.17" width="36.63" height="23.95" transform="translate(81.78 -5) rotate(90)"/><rect class="cls-5" x="116.81" y="-36.32" width="36.63" height="148.92" transform="translate(173.52 -96.74) rotate(90)"/><rect class="cls-7" x="214.22" y="19.82" width="47.43" height="36.63" transform="translate(476.12 76.53) rotate(180)"/><rect class="cls-6" x="267.01" y="19.82" width="22.18" height="36.63" transform="translate(556.45 76.53) rotate(180)"/><text class="cls-10" transform="translate(31.9 70.27)">9.1%</text><text class="cls-10" transform="translate(60.92 70.27)">63.6%</text><text class="cls-10" transform="translate(215.82 70.27)">18.2%</text><text class="cls-10" transform="translate(267.59 70.27)">9.1%</text></svg>