<svg id="Layer_1" data-name="Layer 1" xmlns="http://www.w3.org/2000/svg" viewBox="0 0 437.85 85.59"><defs><style>.cls-1,.cls-10{fill:none;stroke-miterlimit:10;stroke-width:0.5px;}.cls-1{stroke:#0062fd;}.cls-2{font-size:7.06px;}.cls-2,.cls-7,.cls-8{fill:#231f20;font-family:Helvetica-Light, Helvetica;font-weight:300;}.cls-3{fill:#ff517d;}.cls-4{fill:#ff907c;}.cls-5{fill:#00edcf;}.cls-6{fill:#008bff;}.cls-7{font-size:7.94px;}.cls-8{font-size:5.29px;}.cls-9{fill:#d0d2d3;}.cls-10{stroke:#06f;}</style></defs><rect class="cls-1" x="179.57" y="-179.57" width="78.21" height="437.35" rx="11.56" transform="translate(179.82 258.03) rotate(-90)"/><text class="cls-2" transform="translate(32.19 13.13)">Opinion on course consistency:</text><rect class="cls-3" x="57.47" y="-3.46" width="36.59" height="89.3" transform="translate(117.2 -34.32) rotate(90)"/><rect class="cls-4" x="139.27" y="8.2" width="36.59" height="65.99" transform="translate(199.01 -116.12) rotate(90)"/><rect class="cls-5" x="210.03" y="8.2" width="36.59" height="65.99" transform="translate(269.77 -186.88) rotate(90)"/><rect class="cls-6" x="259.46" y="30.12" width="36.59" height="22.15" transform="translate(319.19 -236.31) rotate(90)"/><text class="cls-7" transform="translate(31.36 69.28)">36.4%</text><text class="cls-7" transform="translate(124.82 69.28)">27.3%</text><text class="cls-7" transform="translate(195.57 69.28)">27.3%</text><text class="cls-7" transform="translate(266.92 69.28)">9.1%</text><text class="cls-8" transform="translate(340.17 49.88)">Lo</text><text class="cls-8" transform="translate(404.11 49.88)">Hi</text><circle class="cls-3" cx="343.73" cy="38.09" r="5.2"/><circle class="cls-4" cx="358.79" cy="38.09" r="5.2"/><circle class="cls-5" cx="391.33" cy="38.09" r="5.2"/><circle class="cls-9" cx="375.12" cy="38.09" r="5.2"/><circle class="cls-6" cx="406.79" cy="38.09" r="5.2"/><rect class="cls-10" x="362.13" y="-1.19" width="24.71" height="84.76" rx="6.45" transform="translate(333.54 415.93) rotate(-90)"/></svg>