<svg id="Layer_1" data-name="Layer 1" xmlns="http://www.w3.org/2000/svg" viewBox="0 0 444.88 305.86"><defs><style>.cls-1{fill:#0067fa;}.cls-2{font-size:20px;fill:#fff;}.cls-13,.cls-2,.cls-6{font-family:HelveticaNeue, Helvetica Neue;}.cls-3{letter-spacing:-0.11em;}.cls-4{fill:#fcc200;}.cls-5{fill:#2ede7f;}.cls-6,.cls-9{font-size:10px;}.cls-7{letter-spacing:-0.11em;}.cls-8{letter-spacing:-0.02em;}.cls-9{font-family:HelveticaNeue-Medium, Helvetica Neue;font-weight:500;}.cls-10{font-family:HelveticaNeue-Italic, Helvetica Neue;font-weight:400;font-style:italic;}.cls-11{letter-spacing:0em;}.cls-12{letter-spacing:-0.02em;}.cls-13{font-style:normal;}.cls-14{letter-spacing:-0.02em;}.cls-15{letter-spacing:-0.07em;}</style></defs><path class="cls-1" d="M25.33,1.29H153.68a0,0,0,0,1,0,0v68a0,0,0,0,1,0,0H.33a0,0,0,0,1,0,0v-43A25,25,0,0,1,25.33,1.29Z"/><text class="cls-2" transform="translate(55.32 39.04)"><tspan class="cls-3">T</tspan><tspan x="9.26" y="0">ask</tspan></text><rect class="cls-4" y="68.68" width="153.35" height="169.19"/><text class="cls-2" transform="translate(30.69 159.04)">Response</text><path class="cls-5" d="M0,237.88H153.35a0,0,0,0,1,0,0v68a0,0,0,0,1,0,0H25a25,25,0,0,1-25-25v-43A0,0,0,0,1,0,237.88Z"/><text class="cls-2" transform="translate(47.36 277.72)">Result</text><path class="cls-1" d="M419.88,2.29a24,24,0,0,1,24,24v42H154.32v-66H419.88m0-1H153.32v68H444.88v-43a25,25,0,0,0-25-25Z"/><path class="cls-4" d="M443.88,69.68V236.87H154.32V69.68H443.88m1-1H153.32V237.87H444.88V68.68Z"/><path class="cls-5" d="M443.88,238.88v42a24,24,0,0,1-24,24H154.32v-66H443.88m1-1H153.32v68H419.88a25,25,0,0,0,25-25v-43Z"/><text class="cls-6" transform="translate(170.01 18.68)"><tspan class="cls-7">Y</tspan><tspan x="5.37" y="0">ou a</tspan><tspan class="cls-8" x="24.82" y="0">r</tspan><tspan x="27.97" y="0">e looking for g</tspan><tspan class="cls-8" x="91.86" y="0">r</tspan><tspan x="95.01" y="0">oup members for your</tspan><tspan x="0" y="12">Bio 3E3 course. A</tspan><tspan class="cls-8" x="80.01" y="12">r</tspan><tspan x="83.16" y="12">e you able to find a student </tspan><tspan x="0" y="24">who is also looking for g</tspan><tspan class="cls-8" x="108.51" y="24">r</tspan><tspan x="111.66" y="24">oup members and </tspan><tspan x="0" y="36">has worked with you befo</tspan><tspan class="cls-8" x="115" y="36">r</tspan><tspan x="118.15" y="36">e in BIO2FE2?</tspan></text><text class="cls-9" transform="translate(173.42 93.06)">How easy did you find the task (on a scale of 1-10)?<tspan class="cls-10"><tspan x="0" y="12" xml:space="preserve">“5 /10 -  had a tough time finding out who had worked </tspan><tspan x="0" y="24">with the participant befo</tspan><tspan class="cls-8" x="108.18" y="24">r</tspan><tspan class="cls-11" x="111.33" y="24">e and had to navigate back </tspan><tspan x="0" y="36">and forth between Connections and G</tspan><tspan class="cls-12" x="170.23" y="36">r</tspan><tspan x="173.38" y="36">oup Sea</tspan><tspan class="cls-8" x="210.43" y="36">r</tspan><tspan x="213.58" y="36">ch </tspan><tspan x="0" y="48">under People”</tspan><tspan class="cls-13" x="63.9" y="48"> </tspan></tspan><tspan x="0" y="72">Could you explain your thought p</tspan><tspan class="cls-8" x="153.56" y="72">r</tspan><tspan x="156.9" y="72">ocess behind the </tspan><tspan x="0" y="84">choices you have made in o</tspan><tspan class="cls-14" x="128.77" y="84">r</tspan><tspan class="cls-11" x="132.11" y="84">der to complete the task?</tspan><tspan class="cls-10"><tspan x="0" y="96">“ After clicking the BIO2FE2 ca</tspan><tspan class="cls-12" x="137.79" y="96">r</tspan><tspan x="140.94" y="96">d in the Dashboa</tspan><tspan class="cls-8" x="216.53" y="96">r</tspan><tspan x="219.68" y="96">d, </tspan><tspan x="0" y="108">I assumed that it would be under the People tab since </tspan><tspan x="0" y="120">I am trying to look for people for my g</tspan><tspan class="cls-8" x="167.22" y="120">r</tspan><tspan class="cls-11" x="170.37" y="120">oup p</tspan><tspan class="cls-12" x="196.31" y="120">r</tspan><tspan x="199.46" y="120">oject. ”</tspan></tspan></text><text class="cls-6" transform="translate(173.42 265.72)"><tspan class="cls-15">P</tspan><tspan x="5.74" y="0">ASSED - But confused about the di</tspan><tspan class="cls-8" x="163.93" y="0">f</tspan><tspan x="166.71" y="0">fe</tspan><tspan class="cls-12" x="175.04" y="0">r</tspan><tspan x="178.19" y="0">ences</tspan><tspan x="0" y="12" xml:space="preserve"> between Connections and G</tspan><tspan class="cls-8" x="130.39" y="12">r</tspan><tspan x="133.54" y="12">oup Sea</tspan><tspan class="cls-8" x="170.77" y="12">r</tspan><tspan class="cls-11" x="173.92" y="12">ch functions </tspan></text></svg>