<?xml version="1.0" encoding="utf-8"?>
<!-- Generator: Adobe Illustrator 25.2.1, SVG Export Plug-In . SVG Version: 6.00 Build 0)  -->
<svg version="1.1" id="Layer_1" xmlns="http://www.w3.org/2000/svg" xmlns:xlink="http://www.w3.org/1999/xlink" x="0px" y="0px"
	 viewBox="0 0 548 378" style="enable-background:new 0 0 548 378;" xml:space="preserve">
<style type="text/css">
	.st0{fill:none;}
</style>
<g>
	<path d="M218.4,296.4c-4,0-8.1,0-12.2,0c-3.7,0-7.3,0.2-11,0.3c-2,0.1-4,0.3-6,0.1c-7.1-0.5-10.4-5.5-13-11.3
		c-0.5-1.1-1.1-2.1-1.5-3.2c-1.5-4.4-2.9-8.9-4.4-13.3c-1.2-3.6-0.8-5.9,1-6.5c1.9-0.7,5,1.5,6,4.4c0.5,1.4,0.8,2.9,0.9,4.3
		c0.3,5.1,3.1,9.3,4.9,13.8c1.3,3.2,4.9,3.2,7.7,3.3c5.1,0.3,10.3-0.5,15.4-0.5c5.2,0,10.4,0.5,15.6,0.7c2.6,0.1,5.2,0.1,7.8,0.1
		c1,0,2.1-0.2,3.1,0c3.5,0.5,4.2,0.5,9.4-0.6c7.5,0.2,6.5,0.3,10.4,0.2c11.4-0.5,22.8-0.7,34.2-1.2c4-0.2,8-1.1,12-1.6
		c1.5-0.2,3.1-0.4,4.7-0.5c4.4-0.2,8.9-0.5,13.3-0.5c3.5,0.1,7.1,0.9,10.6,0.9c6,0.1,12-0.1,18-0.2c4.7-0.1,9.4-0.1,14.1-0.2
		c1.5,0,2.9-0.6,4.4-0.6c2.4,0,4.7,0.5,7.1,0.4c2.7-0.1,5.3-0.8,8-0.8c5.2-0.1,10.4,0.1,15.6,0.2c2.9,0.1,5.7,0.3,8.6,0.4
		c4.2,0.1,8.3,0.3,12.5,0.3c2.2,0,4.3-0.2,6.5-0.4c0.8,0,1.6-0.3,2.3-0.1c1.7,0.6,3.1,0.5,4.9-0.1c2.4-0.8,5.2-0.6,7.8-0.7
		c2.1-0.1,4.3-0.2,6.4-0.3c0.2-0.3,0.4-0.5,0.7-0.8c-1.5-2.4-2.7-5.1-4.6-7.3c-2.7-3.2-2.5-9.1,0.9-11.5c0.9-0.6,2.4-0.7,3.5-0.4
		c3.1,0.8,5.6,4.6,5.9,7.9c0.2,2.3,0.8,4.6,1.4,6.9c0.4,1.6,1,3.1,1.7,4.6c0.8,1.9,2,3.8-0.5,5.4c-0.2,0.1-0.1,0.8-0.1,1.2
		c0,2.5-2.4,5-4.9,4.8c-5.4-0.3-10.8-1-16.1-1c-3.3,0-6.6,1.1-10,1.2c-4,0.2-8.1-0.2-12.2-0.4c-3.6-0.1-7.1-0.6-10.7-0.4
		c-3.3,0.2-6.4,0.6-9.4-1c-0.9-0.5-2.3,0.2-3.5,0.2c-2.3,0-4.7-0.6-7-0.2c-6.9,1.1-13.8,0.8-20.7,0.6c-2.2-0.1-4.5-0.1-6.7-0.1
		c-0.6,0-1.1,0.4-1.7,0.6c-1.2,0.3-2.4,0.5-3.6,0.7c-0.7,0.1-1.5-0.3-2,0c-3,1.6-6,0.6-8.9,0.1c-3.8-0.6-7.7-1.6-11.5,0
		c-0.4,0.2-1.1,0.1-1.5-0.1c-3.2-2-6.3-0.3-9.4,0.3c-1.9,0.3-4-0.3-6-0.2c-3.2,0.1-6.4,0.6-9.6,0.7c-3.7,0.1-7.5,0-11.2,0
		c-2.7,0-5.5-0.3-8.2-0.1c-1.7,0.1-3.4,1.1-5.2,1.2c-3.1,0.1-6.1-0.5-9.2-0.4c-2.3,0.1-4.5,0.9-6.8,1.1c-1.9,0.2-3.8-0.2-5.7,0
		c-0.7,0.1-1.7,0.8-1.8,1.4c-0.7,4.5-1.1,9-1.6,13.5c-0.6,4.5-2.2,7.8-6.7,10.2c-3.2,1.7-5.8,2.3-9.2,2.1c-3.5-0.2-6.5-1.6-8.8-4.1
		c-1.1-1.2-2-3-2.3-4.7c-0.8-3.6-1.2-7.4-1.6-11.1C218.5,301.7,218.5,299.2,218.4,296.4z M230.7,297.2c-3.5-0.3-3.8,0.6-2.6,3.7
		c0.7,1.7,0.4,4.2-0.2,6c-0.6,1.8-0.4,8,1.1,9.3c0.2,0.2,0.7,0.4,0.9,0.3c3.6-0.8,7.3-1.4,9.6-5c2.4-3.8,2.9-7.9,2.7-12.1
		c0-1-1.5-2.7-2.3-2.8C236.8,296.5,233.7,297,230.7,297.2z"/>
	<path d="M81.2,105.2c-3.8,0.3-7.6,0.6-11.4,0.8c-6.5,0.2-13,0.4-19.5,0.5c-0.6,0-1.3-0.2-1.8,0c-5.5,2.6-11.3,0.6-16.9,0.7
		c-2.8,0-5.6,0.3-8.3,0.2c-2.9-0.1-5.8-0.1-8.5-0.8c-1.3-0.3-2.7-2.1-3-3.5c-0.3-1.5,0.3-3.5,1.1-4.9c0.3-0.6,2.4-0.7,3.4-0.3
		c4,1.4,8,1,12.1,0.9c3.3-0.1,6.6,0.2,9.8,0.2c2.9,0,5.7-0.2,8.6-0.3c4.5-0.1,8.9-0.1,13.4-0.2c2.8-0.1,5.6-0.4,8.3-0.6
		c6.8-0.4,13.5-0.8,20.2-1.3c2.8-0.2,5.5-1,8.2-1.3c6.5-0.9,12.9-1.8,19.4-2.6c4.6-0.6,9.3-0.9,13.9-1.6c4.4-0.6,8.7-1.6,13.1-2.3
		c8.7-1.3,17.5-2.4,26.2-3.7c6.7-1,13.4-2.5,20.1-3.4c6.5-0.9,13.1-1.1,19.7-1.9c6.8-0.8,13.6-1.8,20.3-2.7c3.2-0.4,6,1.1,7,4
		c0.7,1.8-3.6,7.5-5.4,6.8c-4.5-1.9-8.9-0.6-13.3-0.4c-5.7,0.3-11.4,1.4-17.2,2.1c-4.9,0.6-9.9,0.9-14.8,1.4
		c-2.2,0.2-4.3,0.4-6.5,0.7c-6,0.8-11.9,1.6-17.9,2.4c-0.3,0-0.5,0-0.8,0c-4.1,0.6-8.2,1.3-12.3,1.9c-6.3,0.9-12.7,1.7-19.1,2.7
		c-3.9,0.6-7.7,1.3-11.5,1.8c-4.2,0.6-8.5,0.9-12.7,1.5c-6.6,0.9-13.2,1.9-19.8,2.8c-1.4,0.2-2.8,0.3-4.1,0.4
		C81.2,105.4,81.2,105.3,81.2,105.2z"/>
	<path d="M391.5,119.3c4.8,1.8,8.6-1.2,12.8-2.8c1-0.4,2.1-0.2,3.2-0.1c6.4,0.6,10.1,5.1,13.5,9.7c3.4,4.6,6.9,9.1,9.3,14.2
		c1.9,4.1,3.4,9.2,3,13.6c-0.4,4.1-2.7,8.5-6.8,11.1c-6.2,3.9-12.8,6.7-20.2,7.2c-1.5,0.1-2.9,0.3-4.4,0.6c-5.5,1.3-11,0.3-16.3-0.4
		c-5.5-0.7-10-4-13.7-8.2c-3.1-3.5-3.7-7.8-4.2-12.1c-0.2-1.8,0.7-3.8,1.2-5.7c1.4-5.4,2.6-10.8,5.7-15.6c2.8-4.3,6.2-7.7,11.1-9.4
		C387.6,120.7,389.5,120,391.5,119.3z M387.5,130.2c-1.4,1.3-2.7,2.4-4,3.6c-0.6,0.6-1.1,1.7-1.8,1.8c-1.9,0.3-2.5,1.7-3.1,3.1
		c-2.1,5.1-4,10.1-3.5,15.8c0.3,3.3,1.6,6.4,4.4,7.8c4.7,2.5,9.9,3.9,15.4,3.4c1.7-0.1,3.4-0.6,5.1-0.6c9.5-0.2,17.7-3.6,24.4-10.2
		c1.2-1.1,1.9-3.6,1.6-5.2c-0.8-4.9-3.2-9.3-5.9-13.5c-1.6-2.4-3.6-4.6-5.2-7c-1.7-2.5-4.5-3.4-7.3-2.1c0.5,0.8,1.1,1.5,1.5,2.3
		c1.1,1.9,0.5,4.9-1.1,5.6c-2.6,1.1-2.6-1.3-3.3-2.6c-1.8-3.2-4-3.4-6.5-0.6c-1.6,1.8-3.5,3.3-5.3,4.8c-1.1,0.9-1.9,0.6-2.5-0.6
		C389.6,134.4,388.7,132.6,387.5,130.2z"/>
	<path d="M316.5,68.2c0-2.5,0.7-3.1,3.1-2.6c1.3,0.3,2.8,0.8,3.9,1.5c5.5,3.7,12.1,4.1,18.3,5.8c3.6,1,7.6,0.6,11.4,0.6
		c8.8,0.1,17.5,0.1,26.3,0c7.5-0.1,15-0.4,22.4-0.8c9.6-0.5,19.2-1.1,28.8-1.8c3.8-0.3,7.5-1.2,11.2-1.7c4.1-0.5,8.2-0.7,12.2-1.3
		c3.5-0.5,6.9-1.5,10.4-2.1c3.7-0.7,7.5-1.5,11.3-1.6c3.9-0.1,7.4,5.6,6.2,9.4c-0.6,1.9-1.8,2.7-3.7,2.5c-1.4-0.2-2.8-0.3-4.1-0.9
		c-2.7-1.3-5.2-1.4-8.1-0.8c-5,0.9-10.1,1.2-15.2,1.8c-1,0.1-2,0.5-3,0.8c-1.8,0.5-3.5,1.1-5.3,1.4c-3.3,0.5-6.7,0.9-10,1.1
		c-4.9,0.3-9.7,0.4-14.6,0.6c-4.7,0.2-9.4,0.5-14,0.7c-5.6,0.3-11.2,0.5-16.9,0.8c-8.4,0.4-16.9,0-25.4,0.6
		c-6.7,0.5-13.8,0.9-20.7-1.7c-6.6-2.5-13.6-4.2-20.4-6.1C317.6,73.1,316.5,71.6,316.5,68.2z"/>
	<path d="M136.7,197.4c-6.4-1.2-12.9-1.7-19-3.6c-9.1-2.9-17.5-7.2-22.9-15.8c-4.4-6.9-5.4-14.4-3.3-22.2
		c2.7-9.7,10.8-13.2,19.9-13.8c4.6-0.3,8.8,1.3,12.7,3.4c1.7,0.9,2.7,3.4,3.9,5.3c0.2,0.3-0.4,1.4-0.7,1.5c-1.2,0.2-2.9,0.5-3.4-0.1
		c-3.7-3.9-8.4-3.5-12.7-2.8c-3.2,0.5-6.3,2.5-9,4.3c-2.9,1.9-3.6,5.2-4.7,8.3c-1.4,3.8-0.3,7.3,0.4,10.9c0.2,1.1,0.7,2.2,1.4,3
		c5.5,6,11.9,10.5,20,12.1c4.3,0.9,8.7,1.9,13.1,2.3c3.1,0.2,6.3-0.3,9.3-0.9c5.1-1,10.2-2.5,14.5-5.5c3.4-2.4,6.9-5.2,9.5-8.4
		c2.3-2.9,1.9-6.8,0.4-10.1c-2.1-4.7-4.4-9.4-8.3-12.9c-4.1-3.8-9.3-4.1-14.5-4c-2,0-3.9,1.2-5.9,1.6c-1,0.1-2.4-0.2-3-0.9
		c-1-1.2-1.9-2.7-2.3-4.3c-0.9-3.1,0.4-5.2,3.7-5.3c8.8-0.3,17.8,0.1,24.5,6.6c3.7,3.6,6.5,8.2,9.1,12.7c2.3,4.1,3.1,8.7,3.6,13.5
		c0.5,4.3-1.5,7.6-3.7,10.2c-5.7,6.9-13.6,10.5-22.3,12.2C143.5,195.3,140.2,196.4,136.7,197.4z"/>
	<rect x="0" y="0" class="st0" width="548" height="378"/>
</g>
<g>
</g>
<g>
</g>
<g>
</g>
<g>
</g>
<g>
</g>
<g>
</g>
</svg>
