<?xml version="1.0" encoding="utf-8"?>
<!-- Generator: Adobe Illustrator 25.2.1, SVG Export Plug-In . SVG Version: 6.00 Build 0)  -->
<svg version="1.1" id="Layer_1" xmlns="http://www.w3.org/2000/svg" xmlns:xlink="http://www.w3.org/1999/xlink" x="0px" y="0px"
	 viewBox="0 0 280.8 151" style="enable-background:new 0 0 280.8 151;" xml:space="preserve">
<style type="text/css">
	.st0{fill:#E4D67E;stroke:#000000;stroke-width:0.17;stroke-miterlimit:10;}
	.st1{fill:#D0B37B;stroke:#000000;stroke-width:0.17;stroke-miterlimit:10;}
	.st2{fill:#E4DCCF;stroke:#000000;stroke-width:0.17;stroke-miterlimit:10;}
	.st3{fill:#F2EEE3;stroke:#000000;stroke-width:0.17;stroke-miterlimit:10;}
	.st4{fill:#E7E0D7;stroke:#000000;stroke-width:0.17;stroke-miterlimit:10;}
	.st5{fill:#E9E3D6;stroke:#000000;stroke-width:0.17;stroke-miterlimit:10;}
	.st6{fill:#76451F;stroke:#000000;stroke-width:0.17;stroke-miterlimit:10;}
	.st7{fill:#643360;stroke:#000000;stroke-width:0.17;stroke-miterlimit:10;}
	.st8{fill:#925C1F;stroke:#000000;stroke-width:0.17;stroke-miterlimit:10;}
	.st9{fill:#442644;stroke:#000000;stroke-width:0.17;stroke-miterlimit:10;}
	.st10{fill:#6C648C;stroke:#000000;stroke-width:0.17;stroke-miterlimit:10;}
	.st11{fill:#662E68;stroke:#000000;stroke-width:0.17;stroke-miterlimit:10;}
	.st12{fill:#6A4673;stroke:#000000;stroke-width:0.17;stroke-miterlimit:10;}
	.st13{fill:#4C2A49;stroke:#000000;stroke-width:0.17;stroke-miterlimit:10;}
	.st14{fill:#A47ECD;stroke:#000000;stroke-width:0.17;stroke-miterlimit:10;}
	.st15{fill:#B67334;stroke:#000000;stroke-width:0.17;stroke-miterlimit:10;}
	.st16{fill:#5B2E60;stroke:#000000;stroke-width:0.17;stroke-miterlimit:10;}
	.st17{fill:#6F4C80;stroke:#000000;stroke-width:0.17;stroke-miterlimit:10;}
	.st18{fill:#885B23;stroke:#000000;stroke-width:0.17;stroke-miterlimit:10;}
	.st19{fill:#696284;stroke:#000000;stroke-width:0.17;stroke-miterlimit:10;}
	.st20{fill:#735988;stroke:#000000;stroke-width:0.17;stroke-miterlimit:10;}
	.st21{fill:#8166A0;stroke:#000000;stroke-width:0.17;stroke-miterlimit:10;}
	.st22{fill:#703578;stroke:#000000;stroke-width:0.17;stroke-miterlimit:10;}
	.st23{fill:#4C3253;stroke:#000000;stroke-width:0.17;stroke-miterlimit:10;}
	.st24{fill:#847BAC;stroke:#000000;stroke-width:0.17;stroke-miterlimit:10;}
	.st25{fill:#4F1B4C;stroke:#000000;stroke-width:0.17;stroke-miterlimit:10;}
	.st26{fill:#4D3554;stroke:#000000;stroke-width:0.17;stroke-miterlimit:10;}
	.st27{fill:#563358;stroke:#000000;stroke-width:0.17;stroke-miterlimit:10;}
	.st28{fill:#9584BF;stroke:#000000;stroke-width:0.17;stroke-miterlimit:10;}
	.st29{fill:#4A3260;stroke:#000000;stroke-width:0.17;stroke-miterlimit:10;}
	.st30{fill:#D4A843;stroke:#000000;stroke-width:0.17;stroke-miterlimit:10;}
	.st31{fill:#8984B8;stroke:#000000;stroke-width:0.17;stroke-miterlimit:10;}
	.st32{fill:#C6A93A;stroke:#000000;stroke-width:0.17;stroke-miterlimit:10;}
	.st33{fill:#C662D8;stroke:#000000;stroke-width:0.17;stroke-miterlimit:10;}
	.st34{fill:#ECDC68;stroke:#000000;stroke-width:0.17;stroke-miterlimit:10;}
	.st35{fill:#522755;stroke:#000000;stroke-width:0.17;stroke-miterlimit:10;}
	.st36{fill:#E8D76B;stroke:#000000;stroke-width:0.17;stroke-miterlimit:10;}
	.st37{fill:#72337C;stroke:#000000;stroke-width:0.17;stroke-miterlimit:10;}
	.st38{fill:#E3CF57;stroke:#000000;stroke-width:0.17;stroke-miterlimit:10;}
	.st39{fill:#763384;stroke:#000000;stroke-width:0.17;stroke-miterlimit:10;}
	.st40{fill:#D7BC44;stroke:#000000;stroke-width:0.17;stroke-miterlimit:10;}
	.st41{fill:#50284F;stroke:#000000;stroke-width:0.17;stroke-miterlimit:10;}
	.st42{fill:#813782;stroke:#000000;stroke-width:0.17;stroke-miterlimit:10;}
	.st43{fill:#60375E;stroke:#000000;stroke-width:0.17;stroke-miterlimit:10;}
	.st44{fill:#4D1653;stroke:#000000;stroke-width:0.17;stroke-miterlimit:10;}
	.st45{fill:#B858CB;stroke:#000000;stroke-width:0.17;stroke-miterlimit:10;}
	.st46{fill:#E1D8C1;stroke:#000000;stroke-width:0.17;stroke-miterlimit:10;}
	.st47{fill:#4D1D4B;stroke:#000000;stroke-width:0.17;stroke-miterlimit:10;}
	.st48{fill:#411C44;stroke:#000000;stroke-width:0.17;stroke-miterlimit:10;}
	.st49{fill:#EAD36B;stroke:#000000;stroke-width:0.17;stroke-miterlimit:10;}
	.st50{fill:#E4B73C;stroke:#000000;stroke-width:0.17;stroke-miterlimit:10;}
	.st51{fill:#F1ED8B;stroke:#000000;stroke-width:0.17;stroke-miterlimit:10;}
	.st52{fill:#CC933A;stroke:#000000;stroke-width:0.17;stroke-miterlimit:10;}
	.st53{fill:#B28A46;stroke:#000000;stroke-width:0.17;stroke-miterlimit:10;}
	.st54{fill:#925031;stroke:#000000;stroke-width:0.17;stroke-miterlimit:10;}
	.st55{fill:#894728;stroke:#000000;stroke-width:0.17;stroke-miterlimit:10;}
	.st56{fill:#7E457B;stroke:#000000;stroke-width:0.17;stroke-miterlimit:10;}
	.st57{fill:#915593;stroke:#000000;stroke-width:0.17;stroke-miterlimit:10;}
	.st58{fill:#B269B3;stroke:#000000;stroke-width:0.17;stroke-miterlimit:10;}
	.st59{fill:#652F62;stroke:#000000;stroke-width:0.17;stroke-miterlimit:10;}
	.st60{fill:#804482;stroke:#000000;stroke-width:0.17;stroke-miterlimit:10;}
	.st61{fill:#60305B;stroke:#000000;stroke-width:0.17;stroke-miterlimit:10;}
	.st62{fill:#8E3F86;stroke:#000000;stroke-width:0.17;stroke-miterlimit:10;}
	.st63{fill:#A0539F;stroke:#000000;stroke-width:0.17;stroke-miterlimit:10;}
	.st64{fill:#9A523E;stroke:#000000;stroke-width:0.17;stroke-miterlimit:10;}
	.st65{fill:#492244;stroke:#000000;stroke-width:0.17;stroke-miterlimit:10;}
	.st66{fill:#542A4E;stroke:#000000;stroke-width:0.17;stroke-miterlimit:10;}
	.st67{fill:#50274B;stroke:#000000;stroke-width:0.17;stroke-miterlimit:10;}
	.st68{fill:#5C4A70;stroke:#000000;stroke-width:0.17;stroke-miterlimit:10;}
	.st69{fill:#5C3962;stroke:#000000;stroke-width:0.17;stroke-miterlimit:10;}
	.st70{fill:#67426B;stroke:#000000;stroke-width:0.17;stroke-miterlimit:10;}
	.st71{fill:#722F78;stroke:#000000;stroke-width:0.17;stroke-miterlimit:10;}
	.st72{fill:#68306E;stroke:#000000;stroke-width:0.17;stroke-miterlimit:10;}
	.st73{fill:#6C2B70;stroke:#000000;stroke-width:0.17;stroke-miterlimit:10;}
	.st74{fill:#76367D;stroke:#000000;stroke-width:0.17;stroke-miterlimit:10;}
	.st75{fill:#5C3159;stroke:#000000;stroke-width:0.17;stroke-miterlimit:10;}
	.st76{fill:#9D7CC6;stroke:#000000;stroke-width:0.17;stroke-miterlimit:10;}
	.st77{fill:#5A2C55;stroke:#000000;stroke-width:0.17;stroke-miterlimit:10;}
	.st78{fill:#BF7D45;stroke:#000000;stroke-width:0.17;stroke-miterlimit:10;}
	.st79{fill:#C1812E;stroke:#000000;stroke-width:0.17;stroke-miterlimit:10;}
	.st80{fill:#BB7845;stroke:#000000;stroke-width:0.17;stroke-miterlimit:10;}
	.st81{fill:#7B367D;stroke:#000000;stroke-width:0.17;stroke-miterlimit:10;}
	.st82{fill:#6D3A74;stroke:#000000;stroke-width:0.17;stroke-miterlimit:10;}
	.st83{fill:#813287;stroke:#000000;stroke-width:0.17;stroke-miterlimit:10;}
	.st84{fill:#552B4F;stroke:#000000;stroke-width:0.17;stroke-miterlimit:10;}
	.st85{fill:#C39731;stroke:#000000;stroke-width:0.17;stroke-miterlimit:10;}
	.st86{fill:#D7B636;stroke:#000000;stroke-width:0.17;stroke-miterlimit:10;}
	.st87{fill:#DDC13C;stroke:#000000;stroke-width:0.17;stroke-miterlimit:10;}
	.st88{fill:#CEB641;stroke:#000000;stroke-width:0.17;stroke-miterlimit:10;}
	.st89{fill:#C472D3;stroke:#000000;stroke-width:0.17;stroke-miterlimit:10;}
	.st90{fill:#D772E3;stroke:#000000;stroke-width:0.17;stroke-miterlimit:10;}
	.st91{fill:#CF7CDE;stroke:#000000;stroke-width:0.17;stroke-miterlimit:10;}
	.st92{fill:#E2CD45;stroke:#000000;stroke-width:0.17;stroke-miterlimit:10;}
	.st93{fill:#863D90;stroke:#000000;stroke-width:0.17;stroke-miterlimit:10;}
	.st94{fill:#A24CB3;stroke:#000000;stroke-width:0.17;stroke-miterlimit:10;}
	.st95{fill:#9547A4;stroke:#000000;stroke-width:0.17;stroke-miterlimit:10;}
	.st96{fill:#BD9735;stroke:#000000;stroke-width:0.17;stroke-miterlimit:10;}
	.st97{fill:#D2A136;stroke:#000000;stroke-width:0.17;stroke-miterlimit:10;}
	.st98{fill:#E0C840;stroke:#000000;stroke-width:0.17;stroke-miterlimit:10;}
	.st99{fill:#9A5419;stroke:#000000;stroke-width:0.17;stroke-miterlimit:10;}
	.st100{fill:#D268DA;stroke:#000000;stroke-width:0.17;stroke-miterlimit:10;}
	.st101{fill:#9E8341;stroke:#000000;stroke-width:0.17;stroke-miterlimit:10;}
	.st102{fill:#9F752F;stroke:#000000;stroke-width:0.17;stroke-miterlimit:10;}
	.st103{fill:#AD653C;stroke:#000000;stroke-width:0.17;stroke-miterlimit:10;}
	.st104{fill:#80462F;stroke:#000000;stroke-width:0.17;stroke-miterlimit:10;}
	.st105{fill:#93542E;stroke:#000000;stroke-width:0.17;stroke-miterlimit:10;}
	.st106{fill:#8A4A87;stroke:#000000;stroke-width:0.17;stroke-miterlimit:10;}
	.st107{fill:#692C64;stroke:#000000;stroke-width:0.17;stroke-miterlimit:10;}
	.st108{fill:#81417E;stroke:#000000;stroke-width:0.17;stroke-miterlimit:10;}
	.st109{fill:#995298;stroke:#000000;stroke-width:0.17;stroke-miterlimit:10;}
	.st110{fill:#A05EA5;stroke:#000000;stroke-width:0.17;stroke-miterlimit:10;}
	.st111{fill:#9E58A2;stroke:#000000;stroke-width:0.17;stroke-miterlimit:10;}
	.st112{fill:#9A589C;stroke:#000000;stroke-width:0.17;stroke-miterlimit:10;}
	.st113{fill:#B771BD;stroke:#000000;stroke-width:0.17;stroke-miterlimit:10;}
	.st114{fill:#D178D5;stroke:#000000;stroke-width:0.17;stroke-miterlimit:10;}
	.st115{fill:#C37ECA;stroke:#000000;stroke-width:0.17;stroke-miterlimit:10;}
	.st116{fill:#C87FC9;stroke:#000000;stroke-width:0.17;stroke-miterlimit:10;}
	.st117{fill:#A967AF;stroke:#000000;stroke-width:0.17;stroke-miterlimit:10;}
	.st118{fill:#5F2A5C;stroke:#000000;stroke-width:0.17;stroke-miterlimit:10;}
	.st119{fill:#592B51;stroke:#000000;stroke-width:0.17;stroke-miterlimit:10;}
	.st120{fill:#582853;stroke:#000000;stroke-width:0.17;stroke-miterlimit:10;}
	.st121{fill:#5D285C;stroke:#000000;stroke-width:0.17;stroke-miterlimit:10;}
	.st122{fill:#69326A;stroke:#000000;stroke-width:0.17;stroke-miterlimit:10;}
	.st123{fill:#52214A;stroke:#000000;stroke-width:0.17;stroke-miterlimit:10;}
	.st124{fill:#532A51;stroke:#000000;stroke-width:0.17;stroke-miterlimit:10;}
	.st125{fill:#7B3680;stroke:#000000;stroke-width:0.17;stroke-miterlimit:10;}
	.st126{fill:#5D2559;stroke:#000000;stroke-width:0.17;stroke-miterlimit:10;}
	.st127{fill:#542250;stroke:#000000;stroke-width:0.17;stroke-miterlimit:10;}
	.st128{fill:#8B378E;stroke:#000000;stroke-width:0.17;stroke-miterlimit:10;}
	.st129{fill:#89327A;stroke:#000000;stroke-width:0.17;stroke-miterlimit:10;}
	.st130{fill:#802F73;stroke:#000000;stroke-width:0.17;stroke-miterlimit:10;}
	.st131{fill:#953C8E;stroke:#000000;stroke-width:0.17;stroke-miterlimit:10;}
	.st132{fill:#772C6D;stroke:#000000;stroke-width:0.17;stroke-miterlimit:10;}
	.st133{fill:#87368F;stroke:#000000;stroke-width:0.17;stroke-miterlimit:10;}
	.st134{fill:#86348C;stroke:#000000;stroke-width:0.17;stroke-miterlimit:10;}
	.st135{fill:#592454;stroke:#000000;stroke-width:0.17;stroke-miterlimit:10;}
	.st136{fill:#C2792D;stroke:#000000;stroke-width:0.17;stroke-miterlimit:10;}
	.st137{fill:#CD9432;stroke:#000000;stroke-width:0.17;stroke-miterlimit:10;}
	.st138{fill:#D05BD9;stroke:#000000;stroke-width:0.17;stroke-miterlimit:10;}
	.st139{fill:#BD62CC;stroke:#000000;stroke-width:0.17;stroke-miterlimit:10;}
	.st140{fill:#B063C0;stroke:#000000;stroke-width:0.17;stroke-miterlimit:10;}
	.st141{fill:#D46DDF;stroke:#000000;stroke-width:0.17;stroke-miterlimit:10;}
	.st142{fill:#B257C3;stroke:#000000;stroke-width:0.17;stroke-miterlimit:10;}
	.st143{fill:#E292EE;stroke:#000000;stroke-width:0.17;stroke-miterlimit:10;}
	.st144{fill:#DD8BEA;stroke:#000000;stroke-width:0.17;stroke-miterlimit:10;}
	.st145{fill:#D683E4;stroke:#000000;stroke-width:0.17;stroke-miterlimit:10;}
	.st146{fill:#D779E3;stroke:#000000;stroke-width:0.17;stroke-miterlimit:10;}
	.st147{fill:#8C3D95;stroke:#000000;stroke-width:0.17;stroke-miterlimit:10;}
	.st148{fill:#8D4299;stroke:#000000;stroke-width:0.17;stroke-miterlimit:10;}
	.st149{fill:#A18431;stroke:#000000;stroke-width:0.17;stroke-miterlimit:10;}
	.st150{fill:#C38A38;stroke:#000000;stroke-width:0.17;stroke-miterlimit:10;}
	.st151{fill:#CB9038;stroke:#000000;stroke-width:0.17;stroke-miterlimit:10;}
	.st152{fill:#AB5C2E;stroke:#000000;stroke-width:0.17;stroke-miterlimit:10;}
	.st153{fill:#974B25;stroke:#000000;stroke-width:0.17;stroke-miterlimit:10;}
	.st154{fill:#C462A9;stroke:#000000;stroke-width:0.17;stroke-miterlimit:10;}
	.st155{fill:#966921;stroke:#000000;stroke-width:0.17;stroke-miterlimit:10;}
	.st156{fill:#8D5E21;stroke:#000000;stroke-width:0.17;stroke-miterlimit:10;}
	.st157{fill:#E28CEA;stroke:#000000;stroke-width:0.17;stroke-miterlimit:10;}
	.st158{fill:#63361B;stroke:#000000;stroke-width:0.17;stroke-miterlimit:10;}
	.st159{fill:#72431C;stroke:#000000;stroke-width:0.17;stroke-miterlimit:10;}
	.st160{fill:#885521;stroke:#000000;stroke-width:0.17;stroke-miterlimit:10;}
	.st161{fill:#9B4993;stroke:#000000;stroke-width:0.17;stroke-miterlimit:10;}
	.st162{fill:#84457E;stroke:#000000;stroke-width:0.17;stroke-miterlimit:10;}
	.st163{fill:#933F87;stroke:#000000;stroke-width:0.17;stroke-miterlimit:10;}
	.st164{fill:#8C3B7D;stroke:#000000;stroke-width:0.17;stroke-miterlimit:10;}
	.st165{fill:#884378;stroke:#000000;stroke-width:0.17;stroke-miterlimit:10;}
	.st166{fill:#63275E;stroke:#000000;stroke-width:0.17;stroke-miterlimit:10;}
	.st167{fill:#62295D;stroke:#000000;stroke-width:0.17;stroke-miterlimit:10;}
	.st168{fill:#A555A4;stroke:#000000;stroke-width:0.17;stroke-miterlimit:10;}
	.st169{fill:#AC5EB0;stroke:#000000;stroke-width:0.17;stroke-miterlimit:10;}
	.st170{fill:#9D4A9A;stroke:#000000;stroke-width:0.17;stroke-miterlimit:10;}
	.st171{fill:#AA61AD;stroke:#000000;stroke-width:0.17;stroke-miterlimit:10;}
	.st172{fill:#A461AA;stroke:#000000;stroke-width:0.17;stroke-miterlimit:10;}
	.st173{fill:#B760BD;stroke:#000000;stroke-width:0.17;stroke-miterlimit:10;}
	.st174{fill:#C16DC7;stroke:#000000;stroke-width:0.17;stroke-miterlimit:10;}
	.st175{fill:#AD66B1;stroke:#000000;stroke-width:0.17;stroke-miterlimit:10;}
	.st176{fill:#CD8AD1;stroke:#000000;stroke-width:0.17;stroke-miterlimit:10;}
	.st177{fill:#CB82D1;stroke:#000000;stroke-width:0.17;stroke-miterlimit:10;}
	.st178{fill:#D28DD8;stroke:#000000;stroke-width:0.17;stroke-miterlimit:10;}
	.st179{fill:#CF87D6;stroke:#000000;stroke-width:0.17;stroke-miterlimit:10;}
	.st180{fill:#632354;stroke:#000000;stroke-width:0.17;stroke-miterlimit:10;}
	.st181{fill:#64265C;stroke:#000000;stroke-width:0.17;stroke-miterlimit:10;}
	.st182{fill:#6D2862;stroke:#000000;stroke-width:0.17;stroke-miterlimit:10;}
	.st183{fill:#481E43;stroke:#000000;stroke-width:0.17;stroke-miterlimit:10;}
	.st184{fill:#611D4C;stroke:#000000;stroke-width:0.17;stroke-miterlimit:10;}
	.st185{fill:#52224C;stroke:#000000;stroke-width:0.17;stroke-miterlimit:10;}
	.st186{fill:#6B3667;stroke:#000000;stroke-width:0.17;stroke-miterlimit:10;}
	.st187{fill:#9B3D9D;stroke:#000000;stroke-width:0.17;stroke-miterlimit:10;}
	.st188{fill:#9A388D;stroke:#000000;stroke-width:0.17;stroke-miterlimit:10;}
	.st189{fill:#7E2F6C;stroke:#000000;stroke-width:0.17;stroke-miterlimit:10;}
	.st190{fill:#8A3973;stroke:#000000;stroke-width:0.17;stroke-miterlimit:10;}
	.st191{fill:#B453A0;stroke:#000000;stroke-width:0.17;stroke-miterlimit:10;}
	.st192{fill:#752B67;stroke:#000000;stroke-width:0.17;stroke-miterlimit:10;}
	.st193{fill:#BD55BD;stroke:#000000;stroke-width:0.17;stroke-miterlimit:10;}
	.st194{fill:#A8419F;stroke:#000000;stroke-width:0.17;stroke-miterlimit:10;}
	.st195{fill:#CB50D3;stroke:#000000;stroke-width:0.17;stroke-miterlimit:10;}
	.st196{fill:#D559E1;stroke:#000000;stroke-width:0.17;stroke-miterlimit:10;}
	.st197{fill:#CA56D2;stroke:#000000;stroke-width:0.17;stroke-miterlimit:10;}
	.st198{fill:#D460DE;stroke:#000000;stroke-width:0.17;stroke-miterlimit:10;}
	.st199{fill:#C258CD;stroke:#000000;stroke-width:0.17;stroke-miterlimit:10;}
	.st200{fill:#B85AC7;stroke:#000000;stroke-width:0.17;stroke-miterlimit:10;}
	.st201{fill:#A755AF;stroke:#000000;stroke-width:0.17;stroke-miterlimit:10;}
	.st202{fill:#B05FBE;stroke:#000000;stroke-width:0.17;stroke-miterlimit:10;}
	.st203{fill:#DD72E8;stroke:#000000;stroke-width:0.17;stroke-miterlimit:10;}
	.st204{fill:#DC69E7;stroke:#000000;stroke-width:0.17;stroke-miterlimit:10;}
	.st205{fill:#EFA5F7;stroke:#000000;stroke-width:0.17;stroke-miterlimit:10;}
	.st206{fill:#E999F2;stroke:#000000;stroke-width:0.17;stroke-miterlimit:10;}
	.st207{fill:#E087E7;stroke:#000000;stroke-width:0.17;stroke-miterlimit:10;}
	.st208{fill:#EF9BF7;stroke:#000000;stroke-width:0.17;stroke-miterlimit:10;}
	.st209{fill:#E391E9;stroke:#000000;stroke-width:0.17;stroke-miterlimit:10;}
	.st210{fill:#DD85E9;stroke:#000000;stroke-width:0.17;stroke-miterlimit:10;}
	.st211{fill:#DB80E7;stroke:#000000;stroke-width:0.17;stroke-miterlimit:10;}
	.st212{fill:#DF7DE9;stroke:#000000;stroke-width:0.17;stroke-miterlimit:10;}
	.st213{fill:#926220;stroke:#000000;stroke-width:0.17;stroke-miterlimit:10;}
	.st214{fill:#F4B0FA;stroke:#000000;stroke-width:0.17;stroke-miterlimit:10;}
	.st215{fill:#F4B5F9;stroke:#000000;stroke-width:0.17;stroke-miterlimit:10;}
	.st216{fill:#E8A7EB;stroke:#000000;stroke-width:0.17;stroke-miterlimit:10;}
	.st217{fill:#DE9CE0;stroke:#000000;stroke-width:0.17;stroke-miterlimit:10;}
	.st218{fill:#E39BE9;stroke:#000000;stroke-width:0.17;stroke-miterlimit:10;}
	.st219{fill:#542E10;stroke:#000000;stroke-width:0.17;stroke-miterlimit:10;}
	.st220{fill:#96438D;stroke:#000000;stroke-width:0.17;stroke-miterlimit:10;}
	.st221{fill:#984391;stroke:#000000;stroke-width:0.17;stroke-miterlimit:10;}
	.st222{fill:#813771;stroke:#000000;stroke-width:0.17;stroke-miterlimit:10;}
	.st223{fill:#773A6A;stroke:#000000;stroke-width:0.17;stroke-miterlimit:10;}
	.st224{fill:#923881;stroke:#000000;stroke-width:0.17;stroke-miterlimit:10;}
	.st225{fill:#973E8A;stroke:#000000;stroke-width:0.17;stroke-miterlimit:10;}
	.st226{fill:#853172;stroke:#000000;stroke-width:0.17;stroke-miterlimit:10;}
	.st227{fill:#A75AA8;stroke:#000000;stroke-width:0.17;stroke-miterlimit:10;}
	.st228{fill:#A0509D;stroke:#000000;stroke-width:0.17;stroke-miterlimit:10;}
	.st229{fill:#A650A8;stroke:#000000;stroke-width:0.17;stroke-miterlimit:10;}
	.st230{fill:#C964D0;stroke:#000000;stroke-width:0.17;stroke-miterlimit:10;}
	.st231{fill:#AB48AF;stroke:#000000;stroke-width:0.17;stroke-miterlimit:10;}
	.st232{fill:#B650BB;stroke:#000000;stroke-width:0.17;stroke-miterlimit:10;}
	.st233{fill:#D996DD;stroke:#000000;stroke-width:0.17;stroke-miterlimit:10;}
	.st234{fill:#D890DD;stroke:#000000;stroke-width:0.17;stroke-miterlimit:10;}
	.st235{fill:#6A2857;stroke:#000000;stroke-width:0.17;stroke-miterlimit:10;}
	.st236{fill:#62204E;stroke:#000000;stroke-width:0.17;stroke-miterlimit:10;}
	.st237{fill:#6D2A59;stroke:#000000;stroke-width:0.17;stroke-miterlimit:10;}
	.st238{fill:#65224F;stroke:#000000;stroke-width:0.17;stroke-miterlimit:10;}
	.st239{fill:#983A78;stroke:#000000;stroke-width:0.17;stroke-miterlimit:10;}
	.st240{fill:#7B2A62;stroke:#000000;stroke-width:0.17;stroke-miterlimit:10;}
	.st241{fill:#722858;stroke:#000000;stroke-width:0.17;stroke-miterlimit:10;}
	.st242{fill:#822F68;stroke:#000000;stroke-width:0.17;stroke-miterlimit:10;}
	.st243{fill:#9F3789;stroke:#000000;stroke-width:0.17;stroke-miterlimit:10;}
	.st244{fill:#B6489C;stroke:#000000;stroke-width:0.17;stroke-miterlimit:10;}
	.st245{fill:#C657BD;stroke:#000000;stroke-width:0.17;stroke-miterlimit:10;}
	.st246{fill:#CC7BBA;stroke:#000000;stroke-width:0.17;stroke-miterlimit:10;}
	.st247{fill:#C34DC7;stroke:#000000;stroke-width:0.17;stroke-miterlimit:10;}
	.st248{fill:#BA49BE;stroke:#000000;stroke-width:0.17;stroke-miterlimit:10;}
	.st249{fill:#D663D2;stroke:#000000;stroke-width:0.17;stroke-miterlimit:10;}
	.st250{fill:#B356B7;stroke:#000000;stroke-width:0.17;stroke-miterlimit:10;}
	.st251{fill:#D27DCC;stroke:#000000;stroke-width:0.17;stroke-miterlimit:10;}
	.st252{fill:#C654B8;stroke:#000000;stroke-width:0.17;stroke-miterlimit:10;}
	.st253{fill:#C84DCE;stroke:#000000;stroke-width:0.17;stroke-miterlimit:10;}
	.st254{fill:#BD4DBE;stroke:#000000;stroke-width:0.17;stroke-miterlimit:10;}
	.st255{fill:#CF59D5;stroke:#000000;stroke-width:0.17;stroke-miterlimit:10;}
	.st256{fill:#C852CF;stroke:#000000;stroke-width:0.17;stroke-miterlimit:10;}
	.st257{fill:#CB4ED0;stroke:#000000;stroke-width:0.17;stroke-miterlimit:10;}
	.st258{fill:#D661DF;stroke:#000000;stroke-width:0.17;stroke-miterlimit:10;}
	.st259{fill:#DA62E6;stroke:#000000;stroke-width:0.17;stroke-miterlimit:10;}
	.st260{fill:#D961E4;stroke:#000000;stroke-width:0.17;stroke-miterlimit:10;}
	.st261{fill:#D65DE0;stroke:#000000;stroke-width:0.17;stroke-miterlimit:10;}
	.st262{fill:#B455C2;stroke:#000000;stroke-width:0.17;stroke-miterlimit:10;}
	.st263{fill:#AE4CB5;stroke:#000000;stroke-width:0.17;stroke-miterlimit:10;}
	.st264{fill:#AE5CBA;stroke:#000000;stroke-width:0.17;stroke-miterlimit:10;}
	.st265{fill:#D96EE3;stroke:#000000;stroke-width:0.17;stroke-miterlimit:10;}
	.st266{fill:#DC65E7;stroke:#000000;stroke-width:0.17;stroke-miterlimit:10;}
	.st267{fill:#E399E8;stroke:#000000;stroke-width:0.17;stroke-miterlimit:10;}
	.st268{fill:#F8BCFC;stroke:#000000;stroke-width:0.17;stroke-miterlimit:10;}
	.st269{fill:#F8C1FA;stroke:#000000;stroke-width:0.17;stroke-miterlimit:10;}
	.st270{fill:#F6BBFA;stroke:#000000;stroke-width:0.17;stroke-miterlimit:10;}
	.st271{fill:#9B3E95;stroke:#000000;stroke-width:0.17;stroke-miterlimit:10;}
	.st272{fill:#9C3F9C;stroke:#000000;stroke-width:0.17;stroke-miterlimit:10;}
	.st273{fill:#773869;stroke:#000000;stroke-width:0.17;stroke-miterlimit:10;}
	.st274{fill:#8A3D73;stroke:#000000;stroke-width:0.17;stroke-miterlimit:10;}
	.st275{fill:#B141A8;stroke:#000000;stroke-width:0.17;stroke-miterlimit:10;}
	.st276{fill:#983885;stroke:#000000;stroke-width:0.17;stroke-miterlimit:10;}
	.st277{fill:#A644A6;stroke:#000000;stroke-width:0.17;stroke-miterlimit:10;}
	.st278{fill:#C14FBD;stroke:#000000;stroke-width:0.17;stroke-miterlimit:10;}
	.st279{fill:#B14BB0;stroke:#000000;stroke-width:0.17;stroke-miterlimit:10;}
	.st280{fill:#71295C;stroke:#000000;stroke-width:0.17;stroke-miterlimit:10;}
	.st281{fill:#CD90BB;stroke:#000000;stroke-width:0.17;stroke-miterlimit:10;}
	.st282{fill:#B13FA3;stroke:#000000;stroke-width:0.17;stroke-miterlimit:10;}
	.st283{fill:#B946A8;stroke:#000000;stroke-width:0.17;stroke-miterlimit:10;}
	.st284{fill:#AC3D99;stroke:#000000;stroke-width:0.17;stroke-miterlimit:10;}
	.st285{fill:#A73E90;stroke:#000000;stroke-width:0.17;stroke-miterlimit:10;}
	.st286{fill:#E78DD7;stroke:#000000;stroke-width:0.17;stroke-miterlimit:10;}
	.st287{fill:#D464C0;stroke:#000000;stroke-width:0.17;stroke-miterlimit:10;}
	.st288{fill:#CB4FCE;stroke:#000000;stroke-width:0.17;stroke-miterlimit:10;}
	.st289{fill:#B050BB;stroke:#000000;stroke-width:0.17;stroke-miterlimit:10;}
	.st290{fill:#E86EE4;stroke:#000000;stroke-width:0.17;stroke-miterlimit:10;}
	.st291{fill:#F68DF1;stroke:#000000;stroke-width:0.17;stroke-miterlimit:10;}
	.st292{fill:#F8A4F5;stroke:#000000;stroke-width:0.17;stroke-miterlimit:10;}
	.st293{fill:#FCA7F6;stroke:#000000;stroke-width:0.17;stroke-miterlimit:10;}
	.st294{fill:#C249C2;stroke:#000000;stroke-width:0.17;stroke-miterlimit:10;}
	.st295{fill:#C14ABC;stroke:#000000;stroke-width:0.17;stroke-miterlimit:10;}
	.st296{fill:#D766D3;stroke:#000000;stroke-width:0.17;stroke-miterlimit:10;}
	.st297{fill:#FAC7FC;stroke:#000000;stroke-width:0.17;stroke-miterlimit:10;}
	.st298{fill:#F9BFFC;stroke:#000000;stroke-width:0.17;stroke-miterlimit:10;}
	.st299{fill:#FBCAFD;stroke:#000000;stroke-width:0.17;stroke-miterlimit:10;}
	.st300{fill:#E0BFE3;stroke:#000000;stroke-width:0.17;stroke-miterlimit:10;}
	.st301{fill:#DDB0DF;stroke:#000000;stroke-width:0.17;stroke-miterlimit:10;}
	.st302{fill:#C149B4;stroke:#000000;stroke-width:0.17;stroke-miterlimit:10;}
	.st303{fill:#E7BFDB;stroke:#000000;stroke-width:0.17;stroke-miterlimit:10;}
	.st304{fill:#FAC0F3;stroke:#000000;stroke-width:0.17;stroke-miterlimit:10;}
	.st305{fill:#F08BDD;stroke:#000000;stroke-width:0.17;stroke-miterlimit:10;}
	.st306{fill:#F699F1;stroke:#000000;stroke-width:0.17;stroke-miterlimit:10;}
	.st307{fill:#FA8CF6;stroke:#000000;stroke-width:0.17;stroke-miterlimit:10;}
	.st308{fill:#E774DB;stroke:#000000;stroke-width:0.17;stroke-miterlimit:10;}
	.st309{fill:#FEB4FE;stroke:#000000;stroke-width:0.17;stroke-miterlimit:10;}
	.st310{fill:#FDDCFB;stroke:#000000;stroke-width:0.17;stroke-miterlimit:10;}
	.st311{fill:#FCD2FD;stroke:#000000;stroke-width:0.17;stroke-miterlimit:10;}
	.st312{fill:#FEFBFE;stroke:#000000;stroke-width:0.17;stroke-miterlimit:10;}
	.st313{fill:#FEDFFD;stroke:#000000;stroke-width:0.17;stroke-miterlimit:10;}
	.st314{fill:#FEE1FE;stroke:#000000;stroke-width:0.17;stroke-miterlimit:10;}
</style>
<path class="st0" d="M129.9,119.4c-0.5-1.4-1.8-0.9-2.8-1.1c-1.7-0.2-3.4,0.3-5.1-0.5c0.2-0.2,0.4-0.4,0.7-0.5
	c0.4-0.1,0.9-0.2,1.3-0.2c0.6,0,1.2,0,1.8,0c1.5-0.1,3,0,4.5,0.2c0.9,0.1,1.8,0.5,2.5,1c0.3,0.4,0.2,0.9-0.1,1.3L129.9,119.4z"/>
<path class="st1" d="M132.6,119.4v-1.1c0.2-0.2,0.4-0.4,0.7-0.5c0.7-0.2,1.3-0.2,2,0c0.4,0.1,0.7,0.4,0.8,0.8
	c-0.2,0.7-0.9,0.3-1.2,0.8H132.6z"/>
<path class="st2" d="M142.7,119.4h-4.5c-0.2-0.3-0.1-0.6,0.1-0.8c0,0,0,0,0,0c1.3-0.6,2.8-0.6,4.1,0
	C142.8,118.7,142.9,119.1,142.7,119.4C142.7,119.4,142.7,119.4,142.7,119.4z"/>
<path class="st3" d="M150,118.9c0,0.2,0,0.3-0.1,0.5H146c-0.2-0.3-0.1-0.6,0.1-0.8c0,0,0,0,0,0c0.8-0.4,1.8-0.6,2.7-0.4
	C149.3,118.2,149.7,118.5,150,118.9z"/>
<path class="st4" d="M138.2,118.9c0,0.2,0,0.3,0,0.5h-3.4c0.2-0.5,0.7-0.5,1.1-0.6c0.6-0.6,1.5-0.6,2.1,0
	C138.1,118.8,138.2,118.8,138.2,118.9z"/>
<path class="st5" d="M146,118.9c0,0.2,0,0.3,0,0.5h-3.3c0-0.2,0-0.3,0-0.5c0.8-0.9,2.2-1,3.1-0.3C145.9,118.7,145.9,118.8,146,118.9
	z"/>
<path class="st6" d="M115.4,112.3c1.9-3.1,4.1-6,6.6-8.6c1.6-0.9,3.1,0,4.6,0.2c0.5,0.2,0.6,0.8,0.4,1.3c0,0.1-0.1,0.1-0.1,0.2
	c-0.2,0.2-0.4,0.4-0.6,0.6c-1.4,1.1-2.8,2.2-4.1,3.4c-1.3,1.3-2.8,2.4-4.4,3.2C117,113,116.1,113.7,115.4,112.3z"/>
<path class="st7" d="M127,104.5l-5-0.8c-2.6-2.3-5.6-4.3-7.8-7.1c-1.1-2-2.9-3.6-3.4-5.9c-0.2-1.7-1.4-3.5,0.4-5
	c2.1,0.3,2.2,2.1,2.6,3.7c0.1,2.2,0.9,4.3,2.3,6.1c0.4,0.5,0.8,0.9,1.3,1.4c0.9,0.9,1.8,1.8,2.7,2.6c0.5,0.4,0.8,0.9,1.3,1.3
	c1.5,1,3.1,1.9,4.8,2.5c0.4,0.1,0.7,0.3,0.9,0.7C127.2,104.1,127.1,104.3,127,104.5z"/>
<path class="st8" d="M122.1,108.8l3.9-3.3c0.3,0.2,0.7,0.4,0.9,0.8c0.1,0.3,0.1,0.5,0,0.8c-2.2,3.2-4.1,6.6-7.4,8.9
	c-0.7,0.5-1.4,1.2-2.5,0.7c-0.9,0-1.8-0.4-2.4-1.1c1.1-1.8,3-2.7,4.6-3.9C120.3,110.9,121.3,109.9,122.1,108.8z"/>
<path class="st9" d="M106.4,85.3c-1.2-3.4-3-6.7-2.8-10.4c-0.3-3.3-0.3-6.5,0-9.8l0.1-0.9c1.6,0.6,0.4,1.8,0.8,2.5
	c0.1-0.9-0.1-1.9,0-3s0-2.3,1.6-2.4c1.1,3.1,0,6.1-0.6,9.1c-0.6,1.3-0.6,2.7-0.1,4c0.9,1.9,0.7,4.1,1.5,6c0.2,0.5,0.4,1,0.6,1.6
	c0.2,0.6,0.2,1.2,0.2,1.7C107.5,84.5,107.6,85.4,106.4,85.3z"/>
<path class="st10" d="M124.3,35.7c6.9-3.4,14.2-5.1,21.9-3.4c-2.1,1.7-4.6,0.3-6.8,1c-0.3,0.1-0.6,0.2-0.9,0.2
	c-1.1,0-2.2,0.2-3.4,0.4c-0.3,0.1-0.5,0.1-0.8,0.2c-0.9,0-1.8,0.2-2.7,0.5c-1.4,0.5-2.9,1-4.2,1.7c-1.7,0.9-2.7,2.8-4.7,3.2
	c-0.3,0-0.5-0.1-0.7-0.3C121.8,37.3,123.2,36.6,124.3,35.7z"/>
<path class="st11" d="M176.1,57.4c0.6,1,1,2.2,1.1,3.4c-0.4,0.9-0.4,1.9,0.2,2.8l-0.1-0.1c0.5,3,0.1,6.1,0.2,9.1c0,0.8,0,1.6,0,2.3
	c-0.3,1.8-0.6,3.6-0.7,5.5v-0.1c-0.5,0.5-1,1.2-1.9,0.6c-0.2-0.2-0.3-0.5-0.4-0.8c0.1-1.2,0.3-2.4,0.6-3.5c1-5,0.9-10.1-0.3-15
	c0.2-1.4-0.7-2.7,0-4.1C175.1,57.2,175.7,57.1,176.1,57.4C176.1,57.4,176.1,57.4,176.1,57.4z"/>
<path class="st12" d="M105.2,57.9c0.1-1.4,0.6-2.7,1.3-3.8c2-0.4,2.5-2.1,3.3-3.6c2.3-3.1,4.7-6.1,7.4-8.9c0.4-0.4,0.9-0.6,1.4-0.7
	c0.4-0.1,0.8,0,1.2,0.2c0.2,0.2,0.3,0.5,0.2,0.7c-0.6,1.3-1.8,2.1-2.7,3.2c-1.4,1.2-2.7,2.6-3.8,4.2c-0.2,0.3-0.4,0.6-0.7,0.9
	c-1.5,2.2-2.9,4.5-4.6,6.7C107.4,57.5,106.8,58.9,105.2,57.9z"/>
<path class="st13" d="M106.4,85.3c0.7-0.4,0.6-1.1,0.6-1.7c1.6,0,1.4,1.6,2.1,2.4c0.6,1,1,2,1.5,3c0.5,0.5,0.5,1.3,0.9,1.9
	c0.4,2.1,2.9,3.3,2.8,5.7c-1.6,0-2-1.5-2.7-2.5C109.7,91.3,107.3,88.7,106.4,85.3z"/>
<path class="st14" d="M117.7,41.9l-7.3,8.8c-0.2,0.3-0.4,0.7-0.8,0.6s-0.7-0.6-0.4-1.1c0.3-0.8,0.9-1.4,0.9-2.3
	c0.9-2.2,3.2-3.2,4.4-5.1c0.7-0.6,1.4-1.2,2.2-1.7c0-0.2,0-0.3,0.1-0.5c0.6-0.2,0.9,0.1,1.2,0.5C117.8,41.5,117.8,41.7,117.7,41.9z"
	/>
<path class="st15" d="M116.9,116.7c4.6-2,6.7-6.4,9.6-10.1c0.3-0.3,0.7-0.4,1.1-0.2c0.2,0.2,0.3,0.4,0.3,0.7
	c-0.1,0.9-0.4,1.8-1.1,2.4c-0.9,1.1-2.2,1.9-2.7,3.4c-0.5,1.2-1.2,2.2-2.1,3.1c-0.2,0.2-0.4,0.4-0.5,0.5c-0.7,0.5-1.4,1.1-2.4,0.7
	C118.4,117.1,117.6,117.3,116.9,116.7z"/>
<path class="st16" d="M176.1,57.4H175l-0.3-0.2c-0.7-1.5-1.7-2.8-2.9-4c-1.4-1.6-2.4-3.4-3.6-5c-0.5-0.8-1.1-1.5-1.5-2.3
	c-0.5-1-0.8-1.9,0.5-2.5l1.1,1.1c0.4,0.9,1.1,1.6,1.8,2.2v0c0.4,1.2,1.1,2.2,2.2,2.9C174.4,51.8,175.1,54.7,176.1,57.4z"/>
<path class="st17" d="M158.9,36.8c3.3,1.3,6.1,3.4,8.3,6.2c-1.2,1.5-2.3,0-3.5-0.2c-1.6-1.2-3.3-2.3-5-3.3c-0.5-1.3-3.1-0.6-2.7-2.8
	C157,36,157.9,36.5,158.9,36.8z"/>
<path class="st18" d="M122.1,108.8c-1.5,3.3-4.7,4.9-7.5,6.8c-1.2-1.5,0-2.4,0.9-3.3c1.9,0.9,2.7-1,4-1.6
	C120.4,110.1,121.2,109.5,122.1,108.8z"/>
<path class="st19" d="M138.8,32.9c2.4-1.3,4.9-0.2,7.4-0.6c2.6,0.2,5.2,0.8,7.6,1.9c-1.1,1.9-2.8,0.1-4.2,0.6
	C146,33.9,142.3,34.2,138.8,32.9z"/>
<path class="st20" d="M149.9,34c1.3-0.5,2.5,1.1,3.9,0.1c1.8,0.6,3.8,1,5.1,2.7c-0.9,0.6-1.9-0.2-2.8,0c-2.2,0.9-3.5-1.2-5.3-1.5
	C150.3,35,149.7,34.7,149.9,34z"/>
<path class="st21" d="M109.9,48c0.8,0.9-0.2,1.5-0.4,2.2c-0.3,1.2,0.4,0.6,0.8,0.5c-0.2,1.5-1.3,2.4-2.1,3.5
	c-0.7,0.9-1.2,0.5-1.7-0.1C107.3,51.9,108.5,49.9,109.9,48z"/>
<path class="st22" d="M163.9,42.4c1.1-0.1,2,1.3,3.3,0.6c0.1,0.1,0.1,0.3,0.1,0.4c-1.2,2.1,1.1,3,1.6,4.6c-0.4,0.6-1.1,0.9-1.8,0.7
	c-0.4-0.3-0.8-0.7-1-1.2c-0.4-0.9-1-1.7-1.7-2.5C163.9,44.2,163.1,43.5,163.9,42.4z"/>
<path class="st23" d="M105.9,61.3c-1.2,1.8-1,4-1.3,6.3c-0.8-1.2,0.1-2.6-0.9-3.5c0-1.7,0.4-3.4,1.1-5c0.8-0.3,1.6-0.7,2.3,0.1
	C107.3,60.2,106.8,61,105.9,61.3z"/>
<path class="st24" d="M119.8,41.2l-1.1,0.1c-0.3-0.4-0.1-0.8,0.1-1.1s-0.5-0.7-0.1-1.1c1.6-1.5,3.5-2.6,5.6-3.4l-2.2,3.4
	C121.8,40.1,120.9,40.9,119.8,41.2z"/>
<path class="st25" d="M177.3,73.1c0-3.2,0-6.4,0-9.6c0.6,0.2,0.6,0.6,0.6,1.1c0,0.9,0,1.9,0,2.8c0,1.9-0.1,3.7-0.1,5.6
	C177.6,73.3,177.4,73.3,177.3,73.1z"/>
<path class="st26" d="M103.6,65.1c0,3.3,0,6.5,0,9.8C102.8,71.7,102.8,68.3,103.6,65.1z"/>
<path class="st27" d="M107,59.1c-0.7,0-1.4,0.6-2.2,0c-0.1-0.4,0-0.9,0.4-1.2c1.4,0.2,1.9-1.2,2.9-1.6l0.2,0.3
	c0.1,0.6,0,1.2-0.4,1.6C107.7,58.5,107.4,58.9,107,59.1z"/>
<path class="st28" d="M118.7,39c0.3,0.7,1.1-0.3,1.3,0.4c0,0.2-0.5,0.5-0.7,0.7c-0.6,0.3-1.1,0.8-1.7,1.1l-1-0.5
	C117,39.7,117.9,39.4,118.7,39z"/>
<path class="st29" d="M172.3,49.6c-1.3,0-2.3-1.1-2.3-2.3c0-0.2,0-0.4,0.1-0.6C171.2,47.3,172,48.4,172.3,49.6z"/>
<path class="st30" d="M119.2,117.2l2.3-1.2c0.6,0.3,1.2,0.7,1.1,1.5l-0.6,0.2C121.1,117.8,120.1,117.6,119.2,117.2z"/>
<path class="st29" d="M170.1,46.8c-1.1-0.2-1.8-1.2-1.8-2.2C169.2,45.1,170.2,45.5,170.1,46.8z"/>
<path class="st31" d="M116.5,41.2c-0.3,0.9-1.2,1.6-2.2,1.7C114.6,42,115.5,41.3,116.5,41.2z"/>
<path class="st25" d="M177.3,63.6c-0.8-0.6-1-1.8-0.3-2.6c0.1-0.1,0.1-0.1,0.2-0.2L177.3,63.6z"/>
<path class="st32" d="M167.2,114.9c-0.5,1.3-1.7,1.5-2.8,1.7c-0.7,0.3-1.6,0.2-2.3-0.2c-0.7-0.6-1.4-1.2-1.9-2
	c-0.6-1.5-2.7-2.1-2.4-4.1c1-0.6,1.6,0.3,2.5,0.7c-0.1-1-1.1-1.8-0.5-2.8c1.3-0.5,1.8,0.6,2.5,1.2c1.5,1.2,2.3,3.1,3.9,4.3
	C166.7,114,167,114.4,167.2,114.9z"/>
<path class="st33" d="M160.6,101.5l-0.2,0.1h-0.2c-0.5,0.4-1.1,0.5-1.7,0.2c-0.4-0.3-0.4-0.8-0.2-1.1c0,0,0.1-0.1,0.1-0.1
	c2.9-2.5,3.2-6,3.4-9.4c0.2-0.4,0.6-0.8,1-0.9c0.3-0.1,0.6,0,0.9,0.2c1.9,2,0.2,4.2,0.2,6.3c-0.7,1.3-1.4,2.6-2.2,3.8l-0.5,0.6V101
	C160.9,101.1,160.7,101.3,160.6,101.5z"/>
<path class="st34" d="M159.4,103.7c1.6,1.9,3.6,3.5,4.9,5.7c-0.1,0.6-0.7,0.9-1.3,0.8c-1.7-1.8-4.6-2.7-4.5-5.9
	C158.6,103.9,159,103.6,159.4,103.7z"/>
<path class="st35" d="M175,85.3c-1.3,2.4-1.6,5.4-4.5,6.7c-0.9-1.1-0.3-2.1,0.1-3.2c0.1-0.2,0.3-0.5,0.5-0.7c1.6-1,1.1-3.6,3.3-4.2
	C174.9,84.3,175.3,84.7,175,85.3z"/>
<path class="st36" d="M162.2,116l2.2,0.6c-1.9,0.8-4.1,1.1-6.1,1c-0.3-0.2-0.8-0.4-0.9-0.9c0.5-2.4,2-1.9,3.6-1.3
	C161.5,115.5,161.9,115.7,162.2,116z"/>
<path class="st37" d="M171.1,88.7c-0.2,1.1-0.4,2.2-0.6,3.4l-0.5,0.3c0.5,1.2-1,1.3-1.1,2.1c0.1,0.8-0.6,0.7-1.1,0.9
	s-0.8-0.1-0.9-0.5c0.6-2.4,1.7-4.6,3.4-6.4C170.6,88.5,170.9,88.5,171.1,88.7z"/>
<path class="st38" d="M163.3,109.9l1-0.5c1,1.9,3.2,3,2.9,5.6l-1.1-0.6C165.2,112.8,163.5,111.8,163.3,109.9z"/>
<path class="st39" d="M167.2,94.8l0.7,0.6c-1,1-1.3,2.7-2.8,3.3c-0.3,0.3-0.8,0.3-1.1,0.2c-1-1.5,0.4-2.1,1.1-3
	c0.4-0.5,1-0.9,1.5-1.2C166.7,94.6,167,94.7,167.2,94.8z"/>
<path class="st40" d="M157.7,117.1l0.6,0.6l-4.5,0.7c0-0.1-0.1-0.2-0.2-0.3c0-0.2,0.1-0.4,0.2-0.6c0.8,0,0.2-0.6,0.3-0.9
	c0.2-0.6,0.6-1,1.1-1.3c0.5-0.1,1,0,1.4,0.3C157.2,116,157.3,116.7,157.7,117.1z"/>
<path class="st41" d="M175,85.3l-0.6-1.1c-0.6-1.2,0.5-2.2,0.6-3.3l1.8-0.6C176.1,82,176.2,83.9,175,85.3z"/>
<path class="st42" d="M159.4,103.7l-0.6,0.5c-0.1,0.3-0.4,0.5-0.6,0.6c-0.7,0.3-1.5,0.2-2.1-0.3c-0.4-0.6-0.1-1.1,0.3-1.5
	c1-0.9,2.3-1.2,3.6-1C160.2,102.7,159.6,103.1,159.4,103.7z"/>
<path class="st43" d="M176.8,80.4c-0.6-1.7-0.4-3.5,0.4-5.1c0.4,0.2,0.2,0.8,0.5,1.1C177.8,77.8,177.4,79.2,176.8,80.4z"/>
<path class="st44" d="M163.8,98.7l1.2,0.1c-0.6,1.1-1.4,2.1-2.9,2.1c-0.2-0.1-0.3-0.4-0.3-0.6c0.1-0.5,0.3-0.9,0.6-1.2
	C162.9,98.7,163.3,98.4,163.8,98.7z"/>
<path class="st45" d="M160,102l-3.3,1.2c-0.2-0.2-0.3-0.5-0.3-0.7c0.1-0.8,0.9-1.2,1.6-1.1c0.1,0,0.2,0.1,0.3,0.1l1.9,0.1
	C160.2,101.7,160.1,101.9,160,102z"/>
<path class="st46" d="M150,118.9l-1.3-0.2c-0.1-0.3,0.1-0.6,0.3-0.7c1-0.4,2.1-0.5,3.1-0.4c0.6,0,1.2,0.2,1.7,0.6v0.3
	C152.6,119.2,151.2,118.6,150,118.9z"/>
<path class="st47" d="M177.8,76.4c-0.2-0.4-0.4-0.7-0.5-1.1c0-0.8,0-1.5,0.1-2.2h0.5l0.1,1.8L177.8,76.4z"/>
<path class="st48" d="M168.9,94.5c-0.2-1,0.8-1.4,1.1-2.1C171.2,93.9,170,94.2,168.9,94.5z"/>
<path class="st42" d="M162.2,100.4c0.1,0.2,0.1,0.3,0.1,0.5l-1.1,0.2c0-0.2,0-0.3,0-0.5C161.4,100.1,161.8,100.1,162.2,100.4z"/>
<path class="st42" d="M160.6,101.5l0.6-0.5L160.6,101.5z"/>
<path class="st49" d="M133.3,118.2h-0.7c-0.8-0.1-1.6,0.2-2.2-0.6c-0.7-1.4-1.5-2.3-3-0.8c-0.5,0.5-1.4,0.3-2,0.8h-1.8
	c0.5-3.8,5.3-8.4,8.5-8.1C134.7,111.9,135.1,114.7,133.3,118.2z"/>
<path class="st50" d="M132,109.8c-1.8-0.1-3.5,0.8-4.3,2.3c-1.2,1.9-2.7,3.6-4.1,5.4l-1.1-0.1c-0.4-0.5-1.2-0.7-1.1-1.5l0,0
	c1.9-0.6,2.8-2.3,3.9-3.7c1.1-1.6,2.6-2.9,4.4-3.6C130.9,108.3,132,108.1,132,109.8z"/>
<path class="st51" d="M125.4,117.7l4.1-3.1c0.6,0.9,0.9,2,0.9,3.1L125.4,117.7z"/>
<path class="st52" d="M132,109.8c-0.5-1.2-1.3-0.9-2.2-0.5c-2.5,1-3.8,3.2-5.2,5.1c-0.6,1.1-1.8,1.8-3.1,1.6l2.2-3.3
	c0.9-1.1,1.9-2.2,2.9-3.2c3.1-3.6,5.3-3.5,8.1,0.5c0.8,0.9,1.4,2,1.8,3.1c0.1,0.6,0.1,1.2,0,1.8c-0.4,1.1-0.1,2.4-1.1,3.3h-2.1
	C133.1,115.4,134.7,112.3,132,109.8z"/>
<path class="st53" d="M135.4,118.3c0.2-1.1-0.4-2.4,0.6-3.3c1.7,2.8,4.4,2.7,7.2,2.6c1.4-0.1,2.8-0.1,4.1,0c0.6,0,1.2,0.3,1.6,0.8
	c-0.1,0.1-0.2,0.3-0.2,0.4l-2.7,0.1h-3.3h-4.5l-2.2-0.2L135.4,118.3z"/>
<path class="st54" d="M126.5,106l-0.6-0.5h0.6c1-0.7,2.2-0.7,3.4-1c1.6,0.1,3.2,0.2,4.8,0.5c1.1,0.6,2.1,1.2,2.1,2.6
	c-0.2,0.2-0.4,0.4-0.7,0.5c-1.1,0.2-1.9-0.7-2.8-1.1C131,106.4,128.6,107.1,126.5,106z"/>
<path class="st55" d="M129.9,104.9c-1,0.9-2.2,0.3-3.3,0.5c0.2-0.3,0.3-0.6,0.5-0.9c0.1-0.1,0.1-0.1,0.2-0.2
	c0.2-0.1,0.4-0.2,0.7-0.2C128.6,104.3,129.4,104.2,129.9,104.9z"/>
<path class="st56" d="M115.9,96c-1.9-1.6-2.4-3.8-2.8-6.2c0.6-1.7,0.6-3.6,1.7-5.2c0.6-1,0.2-2.2-0.2-3.2c-0.8-1.8-1.1-3.7-1.7-5.6
	c-0.4-2.2-0.7-4.4-0.9-6.6c-0.2-1-0.3-2.3,1-2.9c1.2,0.6,0.8,1.9,1.4,2.8c1.7,5.1,2.1,10.5,3.4,15.7c0.1,0.5,0.1,1.1,0,1.6
	C116.6,89.5,116.1,92.7,115.9,96z"/>
<path class="st57" d="M119.8,99.8c-1.2-0.6-2.1-1.6-2.8-2.7c-1.3-2-1.4-4.5-0.2-6.6c0.8-1.8,1-3.8,0.5-5.7
	c-0.9-4.9-1.8-9.9-2.9-14.8c-0.3-1.6-1.4-3.6,1-4.7c1.2,1.5,0.3,3.4,1.1,5c1,3.7,1.7,7.4,2.2,11.2c0.4,2.5,1.3,4.8,1.8,7.3
	c0.1,1.6-0.1,3.2-0.7,4.6c-0.6,1.3-1.6,2.6-0.2,4.1c0.2,0.3,0.4,0.6,0.6,1C120.4,98.9,120.2,99.4,119.8,99.8z"/>
<path class="st58" d="M127.7,104.4c-0.2-0.1-0.3-0.1-0.5-0.1l-0.7-0.5c-1.5-0.7-2.9-1.6-4.2-2.5c-0.9-0.6-1.5-1.5-1.8-2.6
	c0-0.6,0.2-1.1,0.5-1.5c1.8-2,0.2-4.4,0.8-6.6c0.1-0.2,0.4-0.4,0.7-0.4c0.4,0.1,0.8,0.4,1.1,0.7c1.3,2,2,4.3,2.3,6.7
	c-0.6,2.4-0.1,4.3,2.4,5.3c0.6,0.2,1.4,0.7,1.1,1.6C128.8,104.6,128.2,104.6,127.7,104.4z"/>
<path class="st59" d="M113.7,75.8c0.5,2,1.1,4,1.8,6c1.2,3.2-1.4,5.3-2.4,7.9c0-1.5-0.6-2.9-1.7-3.9c-0.8-1.5,0-2.8,0.6-4.1
	c1.6-1.6,0.5-3.6,0.7-5.4C112.9,76,113.2,75.7,113.7,75.8z"/>
<path class="st60" d="M117.6,84.8c0.7,2.5,1.1,4.9-0.7,7.3c-1.2,1.6,0.2,3.3,0.1,5l-1.1-1c-0.7-2.5-1.1-5,0.5-7.4
	c0.6-1.2,0.8-2.5,0.6-3.8C117.2,84.5,117.4,84.5,117.6,84.8z"/>
<path class="st61" d="M112.6,82c-0.4,1.3-0.8,2.6-1.1,3.9c-1.4,1.7,0.1,3.3,0,5l-1.1-1.7c-1.5-2.7-1.7-5.2,0.9-7.3
	C111.7,81.6,112.2,81.7,112.6,82z"/>
<path class="st62" d="M122.6,101l3.9,2.8c-2.2-0.3-3.8-1.7-5.6-2.8C121.4,100.6,122.2,100.6,122.6,101z"/>
<path class="st63" d="M122.6,101H121c-0.4-0.4-0.8-0.8-1.1-1.2c0-0.5,0-1.1,0-1.6c0.6-0.3,0.8,0.2,1.1,0.6L122.6,101z"/>
<path class="st64" d="M126.5,106c2.4,0.3,4.9-0.7,7.2,0.6c-1,1-2.2,0.4-3.3,0.6c-1-0.1-2,0.2-2.8-0.6h-1.1
	C126.5,106.3,126.5,106.2,126.5,106z"/>
<path class="st65" d="M107,59.1c0-0.5,0.2-0.9,0.6-1.1c1-0.2,1.1-2.2,2.2-1.5s0.5,2,0.2,3c-0.7,3-1.3,6-1.6,9c0,0.3,0,0.6,0,0.9
	c0.4,3.9-0.3,7.9-1.9,11.4c-1.4-1.8-0.7-4.2-1.7-6.1c-0.4-1.3-0.4-2.6,0-3.9c0.4-3.2,0.8-6.3,1.1-9.5L107,59.1z"/>
<path class="st66" d="M108.7,86.4c-0.9-0.7-0.6-2.2-1.7-2.8c0-0.6,0-1.1,0-1.7c-0.4-0.7-0.5-1.9,0-2c3.6-1.1,1.2-3.7,1.2-5.5
	c0-1.5-0.4-3.1-0.3-4.6c2-0.2,1.7,1.8,2.5,2.7c0.5,2.6,0.7,5.3,0.6,7.9C111.1,82.8,109.1,84.3,108.7,86.4z"/>
<path class="st67" d="M108.1,69.7c-0.4,3,1.1,5.6,1.4,8.4c0.1,1.2,1.3,3.1-1.7,2.1c-1.3-0.4-0.5,1.2-0.8,1.8
	c-0.4-0.2-0.6-0.7-0.6-1.1c-0.1-4,2.1-7.7,1.1-11.7C108.1,69,108.3,69.2,108.1,69.7z"/>
<path class="st26" d="M104.8,70.8v3.9C103.9,73.6,103.9,72,104.8,70.8z"/>
<path class="st68" d="M149.9,34c0.2,0.4,0.7,0.6,1.1,0.6c0.1,0.6-0.4,0.8-0.8,1c-4.5-0.1-9-1.5-13.6-0.5c-2.5,0.3-4.9,0.7-7.4,1.2
	c-0.8,0.2-1.7-0.1-2.2-0.6c1.4-0.8,2.9-1.4,4.5-1.7c0.8-0.7,2,0.1,2.8-0.6h0.6c1-0.7,2.3,0.2,3.4-0.5h0.6
	C142.6,32.5,146.2,33.7,149.9,34z"/>
<path class="st69" d="M127.1,35.7h2.2c0.1,0.1,0.2,0.3,0.2,0.5c0,0.2,0,0.2-0.1,0.2c-0.3,0.5-0.7,0.8-1.2,1c-2.9,1-4.8,3.2-7,5.3
	c-0.9,1.1-1.9,2-3.1,2.8c-0.4,0.1-0.8,0.1-1.1-0.1c-0.1-0.1-0.2-0.3-0.1-0.5c0.1-0.2,0.1-0.2,0.2-0.2c0.7-1.1,1.7-2.1,2.8-2.8
	c0.7-1.1,1.7-2.1,2.8-2.8L127.1,35.7z"/>
<path class="st70" d="M122.6,39c-0.7,1.1-1.7,2.1-2.8,2.8c0-0.2,0-0.4,0-0.6c0.6-0.9,1.3-1.6,2.2-2.2H122.6z"/>
<path class="st19" d="M138.2,32.9c-1,1-2.2,0.4-3.4,0.5C135.9,32.4,137.1,33,138.2,32.9z"/>
<path class="st19" d="M134.3,33.4c-0.8,0.9-1.9,0.4-2.8,0.6C132.3,33.1,133.4,33.6,134.3,33.4z"/>
<path class="st71" d="M167.2,48.5l1.7-0.5l3.4,5c0.7,1.3,1.7,2.4,2.2,3.8c0,1.6,0.8,3,1.2,4.5c0.9,4.7,1.5,9.4,0.6,14.2
	c-0.1,0.5-0.1,1.1-0.6,1.5c-0.2-0.2-0.4-0.4-0.5-0.7c-0.4-3.2,0.2-6.4-0.2-9.7c0-0.9-0.1-1.8-0.3-2.7c-1.5-5.2-4.3-9.8-7.1-14.3
	C167.2,49.2,167.1,48.9,167.2,48.5z"/>
<path class="st72" d="M175,80.9c0.7,1.3-0.4,2.2-0.6,3.3c-1.5,1.1-1.1,3.5-2.8,4.5c-0.9-1.4,0.3-2.7,0.4-4c0.5-1.6,0.7-3.3,2.2-4.5
	c0.3-0.1,0.6-0.1,0.8,0.1L175,80.9z"/>
<path class="st73" d="M175.6,61.3c-0.8-1.4-1.7-2.8-1.7-4.5c0.6-0.3,0.8,0.2,1.1,0.5l0,0C175.2,58.7,175.4,60,175.6,61.3z"/>
<path class="st74" d="M175,80.3h-0.6c-0.7-1.6-0.7-3,1.1-3.9c0,0.2,0,0.4,0,0.6C175.8,78.2,175.2,79.2,175,80.3z"/>
<path class="st75" d="M117.1,45.2h1.1c0.5,0.5,0.7,1.3,0.6,2c-0.1,0.5-0.3,1.1-0.7,1.5c-0.6,0.7-1.1,1.5-2,1.9
	c-0.4,0.1-0.8,0.1-1.2,0.1c-0.7-0.4-2.1,0.6-2.3-1l0.6-0.6C114.2,47.6,115.5,46.2,117.1,45.2z"/>
<path class="st27" d="M112.6,49.6c0.5,1.1,1.7-0.6,2.2,0.5c-2.2,2.1-3.6,5-6.7,6.1l0,0C109.3,53.9,110.8,51.7,112.6,49.6z"/>
<path class="st70" d="M117.1,45.2c-1.1,1.5-2.4,2.8-3.9,3.9c0.6-2.1,2.4-3.2,3.9-4.5V45.2z"/>
<path class="st76" d="M117.6,41.2c0.3-0.7,0.9-1.2,1.7-1.1l-0.6,1.1l-1.1,0.7L117.6,41.2z"/>
<path class="st77" d="M108.7,86.4c-0.8-2.4,2.2-3.8,1.7-6.1c0.5-0.6,0.7-1.5,1.8-1.3c1.4,1.4,0,2.1-0.7,3c-1.6,2.1-2,4.8-1.1,7.2
	C109.5,88.5,109.2,87.4,108.7,86.4z"/>
<path class="st78" d="M136,113.2l-1.4-2.1c-3-4.5-3.9-4.6-8.1-1.3c-0.2-0.1-0.2-0.2-0.2-0.4s0.1-0.2,0.2-0.2l1.1-2.2
	c0.8-0.5,1.7-0.2,2.6-0.3c3.4-0.3,5.4,1.2,6.4,4.4C136.7,112,137.6,113,136,113.2z"/>
<path class="st79" d="M126.5,109.3v0.6c-0.7,1.1-1.4,2.3-2.8,2.8C124,111,125.3,110.2,126.5,109.3z"/>
<path class="st80" d="M130.4,107.1h-2.8c0-0.2,0-0.4,0-0.6h2.8c0.2,0.1,0.2,0.2,0.2,0.3S130.5,107.1,130.4,107.1z"/>
<path class="st11" d="M175,57.4l-1.1-0.5c-0.5-1.3-1.5-2.4-1.7-3.9C173.6,54.2,175.1,55.3,175,57.4z"/>
<path class="st81" d="M163.9,42.4c0.1,2.2,2.6,2.9,2.8,5c-0.9,0.4-1.4-0.3-2.1-0.6c-2.4-1.4-3.5-4.3-6.4-5c-0.9-0.3-1.6-0.9-2.4-1.2
	s-1.9-0.2-2.6-1c0-0.9,0.7-1.2,1.4-1.5c1.5-0.2,3,0.1,4.3,1C160.7,39.8,162.4,40.9,163.9,42.4z"/>
<path class="st82" d="M158.9,39c-1.4-0.5-2.9-0.7-4.4-0.6c-0.4,0.4-1,0.4-1.4,0c-0.4-0.3-0.8-0.6-1.1-1c-0.4-0.8-1.6-1.2-1.4-2.3
	l0.6-0.5c1.7,0.7,3.2,1.9,5,2.2C156.5,38.2,158.5,37.5,158.9,39z"/>
<path class="st83" d="M165,46.3l1.7,1.1l0.6,1.1c3.6,4.4,6.3,9.6,7.8,15.1c0.4,3.7,0.5,7.3,0.2,11c0,0.5-0.3,0.9-0.8,0.9
	c-0.6,0-0.8-0.4-1-0.8c-0.5-3.7,0.7-7.5-0.5-11.2c-0.2-1-0.6-1.9-1.1-2.8c-0.4-2.5-2.2-4.2-3.1-6.5c-0.1-0.2-0.2-0.4-0.3-0.7
	c-0.2-0.9-0.7-1.8-1.3-2.5C166.3,49.4,164.3,48.5,165,46.3z"/>
<path class="st84" d="M108.1,56.3c2.5-1.8,3.7-4.9,6.7-6.1h1.1c0.4,0.7,0,1.3-0.2,2c-1.5,1.5-1.3,4.2-3.6,5.2
	c-2.4,2.3-2.1,5.5-2.7,8.4c-0.3,1.2,0.2,2.8-1.8,2.8c0.7-3.8,0.9-7.8,2.7-12c-1.3,0.6-1.8,1.6-2.7,1.4L108.1,56.3z"/>
<path class="st85" d="M160,108.2c0.2,1.1,0.7,2.1,1.4,2.9c0.3,0.3,0.3,0.9,0,1.2c-0.4,0.4-0.8,0-1.2-0.3c-0.8-0.6-1.3-1.6-2.4-1.6
	l-0.4-0.2c-0.3-0.3-0.6-0.6-0.7-1c-0.2-1-0.3-2.1-0.3-3.2c0.2-0.7,0.7-1.2,1.3-1.4c0.2-0.1,0.5,0,0.7,0.1
	C158.7,106.1,160,106.8,160,108.2z"/>
<path class="st86" d="M155.5,115.5c-0.2,0.5-0.6,0.9-1.1,1.1c-1-0.5-1.3-1.5-1.8-2.3c-0.8-1.2-1.4-2.5-0.2-3.8
	c1-1.2,2.8-1.6,4.2-0.7c0.4,0.2,0.8,0.4,1.2,0.7l0,0c0.6,1.5,2.6,2,2.8,3.9c-1.4,0.3-1.9-0.9-2.8-1.5s-1.8-1.6-2.7-0.9
	s0.6,1.5,0.7,2.3C155.9,114.7,155.8,115.2,155.5,115.5z"/>
<path class="st87" d="M155.5,114.3c-1.1-0.7-2.3-1.6-1.4-2.8s2.4-0.4,3.5,0.3c1,0.8,2,1.6,2.9,2.5c0.7,0.3,1.3,0.9,1.7,1.7h-1.1
	c-1.2-0.9-2.7-1.2-3.7-2.4C156.3,112.7,156.1,114,155.5,114.3z"/>
<path class="st88" d="M160,108.2c-0.7-1.1-1.6-2-1.7-3.4c-0.1-0.1-0.2-0.3-0.1-0.4s0.1-0.2,0.2-0.2c0.2,0,0.4-0.1,0.5-0.1
	c0.4,2.8,2.6,4.1,4.5,5.7c0.8,1.6,2.4,2.6,2.8,4.4C163.6,112.7,162.6,109.7,160,108.2z"/>
<path class="st89" d="M163.3,90.4h-0.6c-0.4-3.5-3.2-6.7-1.7-10.5c0.2-0.8,0.5-1.7,1.5-2c0.4,0.1,0.8,0.4,1,0.8
	c-0.5,2.7,1.5,4.7,2.1,7.1c0.1,0.7,0.1,1.3-0.1,2c-0.2,0.5-0.4,1-0.7,1.4C164.5,89.8,164,90.2,163.3,90.4z"/>
<path class="st90" d="M158.3,101.5l-1.7,1.1c-0.2,0.2-0.5,0.2-0.7,0c-0.5-1.4,0.6-2.1,1.4-3c1.5-1.8,2.7-3.7,2.3-6.2
	c0.1-0.5,0.3-1,0.6-1.4c0.3-0.5,0.8-1,1.4-1.3c0.2-0.1,0.5,0,0.7,0.2C162.8,95.1,161.6,98.7,158.3,101.5z"/>
<path class="st91" d="M162.2,90.9h-0.6c-0.2-3.1-2.6-5.6-2.5-8.7c0.1-1.1,0.8-2.1,1.8-2.7c0.3-0.1,0.6,0,0.8,0.3
	c-0.2,2.5-0.7,5,1.3,7.2c0.8,0.9-0.5,2.2-0.1,3.4L162.2,90.9z"/>
<path class="st45" d="M163.3,90.4c0.2-0.5,0.6-0.9,1.1-1.1c0.7,0.9,1.1,2,1.2,3.1c-0.4,0.8-0.5,1.6-0.3,2.5c-0.2,1-0.8,1.9-1.7,2.4
	l-0.4-0.2C162.8,94.8,164.7,92.6,163.3,90.4z"/>
<path class="st45" d="M162.2,100.4l-1,0.1c0.2-1.4,1-2.7,2.1-3.5l0,0c0.7,1-0.3,1.5-0.5,2.3L162.2,100.4z"/>
<path class="st74" d="M172.8,84.8c-0.4,1.3-0.8,2.6-1.1,3.9h-0.5h-0.6c-0.4-1.5,0.1-3.2,1.4-4.1C172.3,84.5,172.6,84.6,172.8,84.8z"
	/>
<path class="st92" d="M157.7,113.2c1.1,1,2.5,1.6,3.3,2.8c-1.3-0.1-3-1.5-3.3,1.1c-0.5-0.2-0.9-0.6-1.1-1.1
	C156.3,114.8,155.1,113.2,157.7,113.2z"/>
<path class="st93" d="M172.2,84.8c-1,1.1-0.9,2.7-1.7,3.9l-3.4,6.1h-0.5c-0.3-0.3-0.5-0.7-0.5-1.1c0-0.5,0.2-1.1,0.6-1.5
	c0.7-0.9,1.3-1.9,1.8-3c0.8-1.9,1.2-3.8,1.3-5.9c0.2-1.7,0.6-3.4,1.3-5c0.8-1.3,0.6-2.7,0.9-4.1c0.6-0.8,1.3-1.1,2,0v1.1
	c1.1,1.7,0.4,3.5-0.2,5.1S172.8,83.3,172.2,84.8z"/>
<path class="st94" d="M162.8,99.3l0.5-2.3l1.7-2.2c0.2-0.1,0.5-0.1,0.7,0.1c0.2,0.3,0.2,0.8-0.1,1c0,0,0,0,0,0
	c-0.4,1-1.6,1.5-1.7,2.8L162.8,99.3z"/>
<path class="st95" d="M165.5,95.9v-1.1v-0.4c0.2-0.5,0.4-1,1.1-0.7v1.1C166.4,95.3,166,95.7,165.5,95.9z"/>
<path class="st96" d="M153.9,118.1l-1.7,0.1c-0.6-0.2-1.2-0.7-1.6-1.2c-0.7-2.1-1.7-4.1-1.5-6.3c0.2-0.5,0.7-0.9,1.3-1
	c0.6,0,1.1,0.3,1.4,0.8c-0.1,1.5,0.3,3.1,1.2,4.3c0.7,0.9,1,1.9,0.9,3C153.8,117.8,153.8,117.9,153.9,118.1z"/>
<path class="st97" d="M153.9,117.7c-1.1-2.3-3-4.4-2.2-7.2c0.4-1,1.3-1.3,2.2-1.8c1.3-0.5,2.5-0.8,3.4,0.7l0.6,1.1
	c-0.6-0.1-1.2-0.2-1.9-0.4c-1.2-0.4-2.4,0-3.2,0.9c-1,1.1,0,2,0.5,2.9c0.6,0.8,1.1,1.7,1.2,2.7l1.4,1.1L153.9,117.7z"/>
<path class="st98" d="M157.7,113.2c-1.8,0.4-0.9,1.8-1.1,2.8l-1.1-0.6c0-0.4,0-0.8,0-1.1c0.1-0.7-0.3-1.6,0.5-2
	S157.4,112.6,157.7,113.2z"/>
<path class="st99" d="M158.3,104.3l-0.1,0.5l-0.5,0.1c-0.9,0.5-1.8,1.3-3,1.1c-0.3-0.1-0.5-0.1-0.8-0.3c-0.2-0.2-0.3-0.4-0.3-0.7
	c0.2-0.5,0.7-0.9,1.2-1c0.4-0.1,0.8,0,1.1,0.2L158.3,104.3z"/>
<path class="st100" d="M155.9,104.3l-0.9,0.1c-0.2,0.2-0.6,0.2-0.8-0.1c-0.3-1.5,0.5-1.9,1.8-1.7h0.6c0,0.2,0,0.4,0,0.6L155.9,104.3
	z"/>
<path class="st101" d="M151.1,117.1l1.1,1l-3.2,0.2l-1.9-0.1c-0.1,0-0.2-0.1-0.2-0.1c-3.9-0.4-3.9-0.4-2.4-4.1
	c0.3-0.7,1.1-1.1,1.9-0.8c0.2,0.1,0.3,0.2,0.4,0.3C148.2,114.7,150,115.4,151.1,117.1z"/>
<path class="st102" d="M144.9,113.8c0,0.1,0,0.2,0,0.3c-1,2.3-0.9,4,2.2,4.2c-2.2,0-4.4-0.1-6.6,0.1c-2.7,0.3-4-1-4.5-3.4
	c0-0.6,0-1.1,0-1.7c0.9-0.6,0.1-1.1,0-1.7c0.2-0.5,0.7-0.9,1.2-0.8c0.3,0,0.5,0.2,0.7,0.4c0.1,0.2,0.3,0.5,0.3,0.7
	c0.1,0.9,0.4,1.8,0.6,2.7c0.2,0.8,0.5,1.7,1.5,1.7c0.9-0.1,1.6-0.7,1.9-1.5c0.7-1.6,0.7-3.4,1.2-5.2c1.1-1.7,2.8-1.9,4.6-1.6
	c0.9,1.2-0.4,1.8-0.8,2.5C146.6,111.7,145.6,112.6,144.9,113.8z"/>
<path class="st103" d="M137.1,111l-1.1,0.6c-0.9-2.7-2.4-4.6-5.6-4.5c0-0.2,0-0.4,0-0.5h3.4c0.8,0.3,1.2,1.2,2.2,1.1
	C137.3,108.5,137.8,109.5,137.1,111z"/>
<path class="st104" d="M136.6,107.7l-1.7-2.2c-0.2-0.3-0.1-0.6,0.1-0.8c0.9-0.5,2-0.6,3-0.1c0.3,0.1,0.4,0.4,0.4,0.7
	c-1,0.2-1.1,0.6-0.3,1.3c0.4,0.4,0.5,1,0.3,1.6c-0.1,0.2-0.3,0.4-0.6,0.5C137.2,108.5,136.7,108.2,136.6,107.7z"/>
<path class="st64" d="M134.9,104.9c0,0.2,0,0.4,0,0.5c-1.7,0.1-3.4-0.1-5-0.5c-0.7-0.2-1.6,0.2-2.1-0.5l1.6-0.1
	c0.4-0.4,1.1-0.6,1.7-0.6C132.3,104.2,133.8,103.8,134.9,104.9z"/>
<path class="st105" d="M136.6,107.7l1.1,0.6c0.4,0.4,0.6,1,0.6,1.6c0,0.5-0.2,0.9-0.6,1.2h-0.6c-0.4-1.1-0.8-2.2-1.1-3.3
	L136.6,107.7z"/>
<path class="st106" d="M117.6,84.8H117c-1.1-5.2-2.2-10.4-3.3-15.6c-1-2.6,0.3-5.2,0.1-7.7c0-0.3,0.1-0.5,0.2-0.8
	c1.4-1.9,1.7-4.5,3.8-6c0.7-0.5,1.3-1,1.8-1.6c1.2-1.5,2.8-2.6,4.8-2s2.5,2.3,2.8,4c0.1,0.9,0.3,1.8,0.6,2.6
	c0.1,0.7-0.2,1.3-0.8,1.7c-0.7,0.1-1.3-0.1-1.8-0.6c-1.1-1.1,0.4-3.3-1.8-3.9c-3.6,1.3-6.3,4.4-7.1,8.1c-0.2,0.9-0.1,1.9-1,2.4
	c-1.1,1.8-0.6,3.7-0.3,5.6C115.9,75.5,117.2,80,117.6,84.8z"/>
<path class="st107" d="M113.7,75.8l-0.6,0.6c-0.3,0.3-0.8,0.4-1.2,0.3c-0.9-0.4-0.8-1-0.6-1.8c0.9-2.4-0.1-4.6-0.8-6.9
	c-0.1-0.3-0.1-0.6,0-0.8c1.3-2.5,1.1-5.4,2.3-7.9c0.5-1.1,0.7-2.6,2.4-2.5c0.6,1.6-0.7,2.7-1.2,4l0,0c-0.1,1.9-0.5,3.8-1.1,5.6
	C111.8,69.6,113.3,72.7,113.7,75.8z"/>
<path class="st108" d="M113.1,66.3c-0.2-1.9,0.2-3.9,1.1-5.6c1.2,2.9-1.3,5.5-0.6,8.4C112.8,68.4,113.3,67.3,113.1,66.3z"/>
<path class="st109" d="M115.4,65.2c-0.2-4.3,2.3-7.2,5.2-10c0.8-0.9,2-1.3,3.2-1.2c1.6,0.5,0.7,1.5,0.5,2.3
	c-0.3,0.6-0.9,1.1-1.5,1.4c-2.2,0.2-3.9,1.9-4.1,4.1c-0.3,0.7-0.7,1.4-1.2,2c-0.3,0.5-0.5,0.9-0.7,1.4c-0.5,1.6,0.4,3.5-0.9,5
	C114.8,68.7,115.6,66.9,115.4,65.2z"/>
<path class="st110" d="M116.5,64.7c-0.1-0.4,0.2-0.9,0.6-1.1c1.3,0.9,0.6,2.4,1,3.5c0,1.6,0.2,3.2,0.7,4.8c1,3.3,0.4,6.8,0.9,10.2
	c0.5,1.6,0.8,3.3,1.1,5c0,0.3,0,0.6,0,0.8c0,0.3-0.1,0.5-0.3,0.8c-0.2,0.2-0.5,0.2-0.7,0c0,0,0,0,0,0c-0.6-2.4-1.7-4.7-1.7-7.2
	c0-5-2.1-9.8-1.9-14.9C116.2,65.9,116.1,65.3,116.5,64.7z"/>
<path class="st111" d="M119.8,88.7h0.6c1.7,2.6,2.2,5.9,1.1,8.9c-0.4,0.2-0.6,0.7-0.6,1.1l-1.1-0.6c-0.2-0.2-0.4-0.4-0.6-0.6
	c-0.7-1.2-0.7-2.7,0-3.9L119.8,88.7z"/>
<path class="st112" d="M116.5,64.7c-0.5,3.3,0.4,6.4,1.2,9.6c0.6,2.4,0.4,4.8,0.5,7.2c-0.7-3.7-1.5-7.4-2.2-11.2
	C116.2,68.4,115.3,66.4,116.5,64.7z"/>
<path class="st63" d="M119.3,93.7c0.5,1.3-0.1,2.6,0,3.9C117.6,96.3,117.6,95,119.3,93.7z"/>
<path class="st113" d="M120.4,88.1c0-0.2,0-0.4,0-0.6c0.4-2.2-0.5-4.2-1-6.3c0-0.6,0.3-1,0.4-1.6c0.4-3,1.9-3.6,4.6-1.9
	c0.5,0.6,1.3,0.8,1.7,1.5c-0.3,1.5-2.2,1.4-2.7,2.7c-0.8,1.3-0.5,2.7-0.3,4.1s0.6,2.9-0.5,4.2H122C121,90,121.1,88.8,120.4,88.1z"/>
<path class="st114" d="M131,104.4h-1.7c-0.6-0.4-1.2-0.8-1.8-1.2c-2.9-1.6-3.2-2.3-2.1-5.5c0.3-0.6,0.6-1.2,1.3-1.3
	c0.8,0.1,1.5,0.7,1.7,1.4c-0.4,1.9,0.3,3.9,1.8,5.1C130.7,103.2,131.3,103.6,131,104.4z"/>
<path class="st115" d="M122.6,90.4c0.1-1.8-0.1-3.5-0.4-5.2c-0.3-1.2-0.7-2.8,1-3.7c0.8-1.1,1.6-0.7,2.4-0.1
	c0.7,1.3-0.3,2.2-0.5,3.4c0,0.2-0.1,0.5-0.1,0.8c-0.1,0.4-0.1,0.8-0.2,1.1c-0.4,1.2-0.6,2.5-1,3.7c-0.1,0.2-0.3,0.4-0.5,0.6
	L122.6,90.4z"/>
<path class="st116" d="M123.2,90.9v-0.6c3,0.9,4.4,3.4,3.3,6.1c-0.2,0.5-0.6,0.9-1.1,1.1L123.2,90.9z"/>
<path class="st117" d="M120.4,88.1c1,0.4,1.2,1.4,1.7,2.2c0.2,2.4,1.6,5-0.6,7.2c0.1-3-0.2-6-1.1-8.9L120.4,88.1z"/>
<path class="st118" d="M112,76.4h1.1c0.2,1.9,1.6,3.9-0.6,5.6h-1.1c-0.2-1,1.2-1.7,0.6-2.8C111.5,78.3,111.5,77.3,112,76.4z"/>
<path class="st119" d="M110.9,67.5V68c0,1.4,0.9,2.9-0.2,4.3l-0.3,0.2c-1.6-0.2-1.5-1.9-2.2-2.8l-0.6-0.6v-0.6
	c2.2-1.6,0.7-4.2,1.6-6.2c0.6-1.6,1-3.4,1.2-5.1c0.3-1.3,1-0.7,1.7-0.4c0.4,0.4,0.6,1,0.4,1.5C112,61.4,111.3,64.4,110.9,67.5z"/>
<path class="st120" d="M112,76.4c0.8,0.9,0.1,1.9,0,2.8l-1.7,1.1c-0.3-2.1,0.6-4.3-0.8-6.3c-0.5-0.7,0.6-1,0.8-1.5l0,0
	c2.4-0.2,1.7,1.5,1.7,2.8C111.4,75.7,111.5,76,112,76.4z"/>
<path class="st65" d="M108.2,75.9c0.2,0.3,0.4,0.5,0.4,0.7s-0.2,0.3-0.4,0.5c-0.2-0.2-0.4-0.3-0.5-0.5S108,76.2,108.2,75.9z"/>
<path class="st121" d="M129.3,36.2v-0.5c2.4-0.7,4.8-1.1,7.3-1.1c3.5-0.6,7.1-0.4,10.6,0.6c0.6,1.8-0.7,2.2-2,2.5
	c-0.9-0.2-1.8-0.4-2.6-0.7c-3.4-0.9-6.9-1.1-10.3-0.5C131.3,36.6,130.2,37,129.3,36.2z"/>
<path class="st122" d="M147.1,35.7c-3.4-1.7-7-1-10.6-1.1c2.1-1.1,4.3-0.5,6.4-0.5c2.5,0.2,5,0.5,7.5,1c0.6,0.7,1.8,1,1.7,2.2
	c-0.6,0.7-1.6,1.1-2.6,0.8c-0.3-0.2-0.6-0.4-0.8-0.8C148.4,36.7,147.6,36.3,147.1,35.7z"/>
<path class="st123" d="M129.3,36.2c4.6-1,9.3-1.4,13.9,0c0.4,0.4,0.5,1,0.3,1.6c-1.4,2.3-3.8,2.7-6.2,2.8c-0.8,0-1.5-0.1-1.6-1.1
	c0.1-1,1.3-1.2,1.7-2.2c-1.6-0.7-2.9-0.2-4.4,0c-1.8,0.3-3.5,1.2-5.4,0.7c-0.5-0.7,0.1-1,0.5-1.3L129.3,36.2z"/>
<path class="st124" d="M128.2,36.8l-0.6,1.1c-1.5,1.8-3.7,3-5.2,4.8c-1.1,1-1.4,2.6-2.4,3.7c-0.5,0.5-1,1.3-2,0.9v-2.2
	C121.2,42,123.7,38.2,128.2,36.8z"/>
<path class="st125" d="M172.2,84.8c-0.1-1.3,0.1-2.6,0.7-3.7c1.1-1.8,0.9-3.8,1-5.8c1.4-0.2,1.1-1.2,1.1-2.1c0-3.2,0-6.4,0-9.6
	c1.1,2.7,0.6,5.5,0.8,8.2c0,1.5,0,3.1-0.2,4.6c-0.7,1.2-1.1,2.5-1.1,3.9c-0.8,1.4-1.3,2.9-1.7,4.5L172.2,84.8z"/>
<path class="st126" d="M115.4,51.8l0.6-1.7l1.7-1.7c0.8,1,1.9-0.6,2.7,0.4c0.5,2-1.8,2.7-2.2,4.3c-0.2,0.3-0.5,0.6-0.8,0.8
	c-0.5,0.4-1.2,0.5-1.9,0.2C114.8,53.5,115.8,52.6,115.4,51.8z"/>
<path class="st127" d="M120.4,49.1c-0.6,0.1-1.4-0.1-1.8,0.2c-1.6,1.2-0.8-0.4-1-0.8l0.6-1.1l1.7-1.1c1.2-0.4,1.8,0.2,2.4,1.1
	C122.1,48.5,121.7,49.3,120.4,49.1z"/>
<path class="st128" d="M165,46.3c0.6,1.7,1.6,3.2,2.8,4.5c0.5,0.9,0.6,1.9,1.1,2.8l0,0c0.3,0.3,0.4,0.8,0.1,1.1
	c-0.2,0.2-0.5,0.2-0.8,0.2c-1.9-1.8-2.8-4.3-4.7-6.2c-1.1-2.1-3.4-3.2-4.6-5.4c-0.4-0.6-1.1-1.1-0.7-2c2-0.2,2.8,1.6,4,2.6
	C163.2,44.6,164.1,45.5,165,46.3z"/>
<path class="st129" d="M153.3,39.6c0.9,0.1,2-0.4,2.8,0.6c-0.5,2-2.4,0.9-3.5,1.5c-2.8,0-4.3,2.3-6.4,3.6c-0.3,0.1-0.6,0-0.8-0.1
	c-0.2-0.3-0.4-0.8-0.3-1.2c0.2-0.9,0.6-1.6,1.3-2.2C148.4,40.3,150.3,38.3,153.3,39.6z"/>
<path class="st130" d="M153.3,39.6c-2.6,0-4.7,1.3-6.7,2.8c-0.3-0.3-0.5-0.8-0.4-1.2c0.1-0.6,0.5-1.1,1-1.4c2-0.6,3.9-2,6.1-1.9
	c0.2,0.4,0.7,0.6,1.1,0.6L153.3,39.6z"/>
<path class="st131" d="M152.2,41.2c1.1-1.3,2.9,0.2,3.9-1.1c1-0.1,1.5,0.8,2.2,1.1l1.1,1.7c-0.1,0.4-0.4,0.7-0.8,0.8
	c-0.3,0-0.5-0.1-0.7-0.3c-0.8-1.1-2.2-1.7-3.5-1.4C153.6,42.1,152.8,41.8,152.2,41.2z"/>
<path class="st132" d="M153.3,37.9c-1.9,1-3.9,2.1-6.1,2.2c-0.2-0.2-0.3-0.5-0.3-0.7c0.4-1.3,1.3-1.6,2.5-1.5l2.8-0.5
	C152.6,37.3,153,37.5,153.3,37.9z"/>
<path class="st133" d="M173.9,74.2c-0.5-0.3-1.2-0.3-1.7,0c-0.6-0.5-0.8-1.3-0.6-2c0.8-3.6,0.1-7.1-0.8-10.6c-0.1-0.5,0-0.9,0.2-1.3
	c0.4-0.3,0.9-0.3,1.2,0c2.1,1.5,1.7,4,2,6C174.6,68.8,174,71.5,173.9,74.2z"/>
<path class="st134" d="M172.2,60.2h-1.1c-1.6-1.5-2.7-3.2-2.2-5.6v-1.1C170.2,55.7,172.2,57.4,172.2,60.2z"/>
<path class="st134" d="M168.9,53.5c-0.8-0.7-1.2-1.7-1.1-2.8C168.6,51.4,169,52.5,168.9,53.5z"/>
<path class="st135" d="M115.4,51.8c0.4-0.1,1.2-0.7,0.8,0.5c-0.2,0.6-0.5,1.2-0.8,1.7c0.4,2.3-1.6,3.4-2.6,5
	c-0.1,0.2-0.6-0.2-0.8-0.6v-1.6C114.1,55.8,113.3,52.9,115.4,51.8z"/>
<path class="st136" d="M154.4,105.4l3.3-0.5l-1.1,1.1c-0.6,1.2-1.8,2-3.1,2.3c-1.2,0.3-2.4,0.2-3.5-0.4c-0.6-1.5,0.8-1.3,1.4-1.8
	C152.4,105.6,153.5,105.8,154.4,105.4z"/>
<path class="st137" d="M153.8,107.7l2.8-1.7c0.5,1,0.7,2.2,0.6,3.3c-1-0.7-2.3-0.7-3.3,0c-0.3-0.2-0.4-0.6-0.4-1
	C153.5,108.1,153.6,107.8,153.8,107.7z"/>
<path class="st138" d="M163.3,78.6l-0.6-0.6c-0.5-0.5-0.8-1.3-0.7-2c0.3-3.3-0.5-6.2-3.6-8c-1.8-0.9-3.7,0.9-5.4-0.4
	c1.1-2.7,3.5-2.7,5.8-2.9c3,1.5,5,4.5,5.2,7.8c0.1,0.8,0,1.7,0.2,2.5c0,0.3,0,0.6,0,0.9C164,76.8,164.1,77.9,163.3,78.6z"/>
<path class="st139" d="M163.3,78.6c0.1-0.9-0.4-2,0.6-2.8c0.3-0.3,0.8-0.3,1.2-0.1c0.3,1.2,0.7,2.5,1.1,3.7
	c-0.2,1.4-0.2,2.7-0.1,4.1c0.1,0.9,0.5,2.1-1.1,2.3c-0.5-1.4-1.2-2.6-2-3.8C162.5,80.9,162.6,79.6,163.3,78.6z"/>
<path class="st140" d="M165,85.9c0.6-0.6,0.8-1.5,0.4-2.2c-0.7-1.6-0.3-3,0.1-4.5c0.3-0.4,0.4-0.8,0.9-0.9c1.4-0.2,1.8,0.7,1.9,1.9
	c-0.3,2.3-0.8,4.5-1.6,6.7c-0.2,0.5-0.5,1-1,1.3c-0.3,0.1-0.6,0.1-0.8-0.1V85.9z"/>
<path class="st141" d="M162.8,75.8v2.2c-0.4,0.6-0.8,1.1-1.1,1.7h-0.6c-0.8-0.4-1.3-1.2-1.2-2.1c0-0.7,0-1.4,0.1-2.1
	c0.2-0.9-0.1-2.1,1.3-2.3C163.2,73.3,162,75.1,162.8,75.8z"/>
<path class="st142" d="M165,88.1h0.6c1.8,1.3,1.6,2.9,0.5,4.5h-0.5c-0.8-0.9-1.3-2.1-1.1-3.3C164.4,88.8,164.6,88.4,165,88.1z"/>
<path class="st143" d="M156.1,102.6c-0.7,0.4-1.6,0.6-1.7,1.6c-0.2,0.4-0.7,0.5-1,0.3c0,0,0,0-0.1,0c-0.6-1,0-1.8,0.6-2.4
	c1.8-1.7,3.1-3.9,3.8-6.3c0.5-0.8,0.6-1.7,0.5-2.6c0-0.4,0-0.8-0.1-1.2c-1.3-3.1-2.9-5.5-6.7-6.1c-4.9-0.8-9.8-2-14.8-0.9
	c-0.2-0.2-0.3-0.5-0.3-0.8c1.3-1.9,4.7-3.5,6.7-2.7c3.8,1.4,7.8,2.2,11.9,2.3c4,1.7,6.1,5.6,5.1,9.4c1.1,2.9-0.5,4.9-2.1,6.8
	C157.2,100.8,156.1,101.4,156.1,102.6z"/>
<path class="st144" d="M160,93.1c0.2-4-1.9-6.7-5-8.9c-0.2-0.3-0.1-0.6,0.1-0.8c0,0,0,0,0,0c1.1-0.6,2.5-0.4,3.4,0.4
	c1.3,2.6,4.2,4.8,2,8.2C160.6,92.5,160.4,92.9,160,93.1z"/>
<path class="st145" d="M160.5,92c1.1-3.1-1.2-5.3-2.2-7.8c-0.4-0.5-0.5-1.1-0.5-1.6c0.1-0.7,0.5-1.4,1.1-1.8c0.8,0.2,1,0.6,0.5,1.2
	c0.8,2,1.1,4.2,2.4,6c0.8,1-0.2,1.9-0.2,2.9C161.5,91.4,161.1,91.8,160.5,92z"/>
<path class="st146" d="M159.4,82c0.1-0.5-0.2-0.9-0.6-1.1c-0.4-0.3-0.7-0.7-0.8-1.2c0.1-0.8,0.5-1.4,1.1-1.9
	c0.4-0.3,0.8-0.6,1.4-0.3c-0.1,0.8,0.1,1.6,0.6,2.2C160.5,80.5,160,81.2,159.4,82z"/>
<path class="st142" d="M165.5,94.8H165c-0.3-0.9-1.3-1.9,0.5-2.2l0,0C166,93.2,166,94.1,165.5,94.8L165.5,94.8z"/>
<path class="st147" d="M168.9,54.6l2.2,5.6c1.8,4.5,1.8,9.2,1.1,14c0,1.3,0.7,2.8-0.6,3.9c-1.1-1.1-0.7-2.5-0.8-3.7
	c0.3-6-0.2-11.9-2.8-17.5c-0.2-0.4-0.2-0.9-0.2-1.4c0-0.3,0.2-0.6,0.4-0.8L168.9,54.6z"/>
<path class="st148" d="M171.7,74.2c0,1.3,0,2.6,0,3.9c-1.5,3.8-0.7,8.1-2.8,11.7c-1.2-2.8-0.6-5.6-0.1-8.4c0.5-1.8,0.9-3.5,1.4-5.3
	C170.4,75.3,170.4,74.2,171.7,74.2z"/>
<path class="st95" d="M169.4,81.4c-0.4,2.8-0.6,5.6-0.6,8.4c-0.6,0.9-0.8,2.1-1.7,2.8c-1-2-0.2-4.2-0.4-6.3
	C167.8,84.8,167,82.2,169.4,81.4z"/>
<path class="st94" d="M167.2,86.4c0.7,2-0.1,4.1,0,6.1c-0.4,0.2-0.6,0.7-0.6,1.1l-1.1,1.1c0-0.8,0-1.5,0-2.2c1-1.5,0.6-3,0-4.5
	c0.2-0.4,0.4-0.8,0.6-1.1S166.6,86.1,167.2,86.4z"/>
<path class="st149" d="M144.9,113.8c-0.1-2.6,2.2-3.8,3.4-5.6c0.2-0.1,0.5-0.1,0.7,0c0.5,0.6,0.7,1.5,0.4,2.2
	c0.6,2.2,1.1,4.5,1.7,6.7c-1.6-0.7-3-1.7-4.3-2.9C146.2,113.7,145.7,113.3,144.9,113.8z"/>
<path class="st150" d="M149.4,110.4c-0.4-0.7-0.6-1.5-0.6-2.2c-0.2-0.2-0.1-0.5,0.1-0.7c0.3-0.2,0.8-0.2,1.1,0.2h3.9
	c0,0.2,0,0.4,0,0.6c-1,0.9-2.4,0.8-3.4,1.7L149.4,110.4z"/>
<path class="st151" d="M150.5,109.9c0.3-2.2,2-1.5,3.4-1.7v1.1l-2.2,1.1L150.5,109.9z"/>
<path class="st152" d="M149.9,107.7h-1.1c-0.3-0.4-0.2-0.9-0.3-1.3c-0.3-0.5-1-0.7-1-1.4c0.1-0.2,0.3-0.4,0.5-0.6
	c0.9-0.3,2-0.3,2.9-0.1c1,0.3,2,0.3,2.8,1.1h0.6C153.2,106.8,151.2,106.4,149.9,107.7z"/>
<path class="st153" d="M153.8,105.4c-0.9-0.1-2,0.3-2.8-0.4c0.3-0.4,0.7-0.6,1.1-0.7c0.6,0,1.2,0.2,1.7,0.6
	C153.8,105.1,153.8,105.2,153.8,105.4z"/>
<path class="st154" d="M153.8,104.9l-1.7-0.1c-0.1-0.2-0.1-0.5,0.1-0.7c0.3-0.2,0.7-0.1,1,0.1h1l0.7,0.2L153.8,104.9z"/>
<path class="st155" d="M143.8,109.9c0.3,1.6-0.4,3.1-0.6,4.6c-0.1,1.4-1.3,2.6-2.7,2.6c-1.6,0-2.1-1.1-2.3-2.6c-0.3-1-0.5-2-0.5-3
	c0.9-0.2,1.1,0.5,1.4,1c0.4,1,0.7,2.1,1.9,0.6c0.5-0.7,0.9-1.6,1.2-2.4C142.6,110.2,143,109.6,143.8,109.9z"/>
<path class="st156" d="M143.8,109.9c-0.5,0.2-0.9,0.6-1.1,1.1c-0.7,0.6-1.2,1.3-1.9,1.9s-1.4,0.8-2-0.2l-1.1-1.1v-1.7
	c2.4,1.4,3.8-0.6,5.4-1.6c2.1-0.7,4-1.8,6.2-2.2l-0.5,1.7v0.5h-0.5C146.7,108.6,144.9,108.2,143.8,109.9z"/>
<path class="st157" d="M152.2,104.3c0,0.2-0.1,0.3-0.1,0.4L151,105h-3.2c-3.1,1.1-6.5,1-9.6-0.2h-3.3l-3.9-0.5
	c-3.5-2.9-4-4.1-2.8-6.8c-0.1-0.1-0.2-0.3-0.1-0.5c0-0.2,0.1-0.2,0.1-0.2c0.2-0.1,0.5-0.1,0.8-0.1c1,0.4,1.1,1.4,1.4,2.3
	c0.8,1.5,0.6,3.6,2.8,4.1c0.3,0.1,0.6,0.2,0.8,0.2c4.8,0.2,9.6,0,14.4,0.1c0.6,0,1.3,0,2,0C151.2,103.5,151.8,103.8,152.2,104.3z"/>
<path class="st158" d="M138.2,104.8l9.6,0.2c0,0.1-0.1,0.3-0.1,0.4c0.1,0.8,0,1.6-0.9,1.8c-1.9,0.8-3.9,1.3-6,1.5
	c-2,0-2.9-1.3-2.6-3.3L138.2,104.8z"/>
<path class="st159" d="M138.2,105.4c0.6,1.2,0.9,3,2.6,2.7c2.4-0.5,5.4,0.3,6.9-2.7c0.6,0,1.3-0.1,1.6,0.6c-1.7,1.8-4,2-6.1,2.8
	c-0.9,0.4-1.9,0.7-2.9,0.9c-1,0.1-2.1,0-2.1-1.5c-0.3-0.7-0.5-1.4-0.9-2C136.6,104.8,137.9,105.7,138.2,105.4z"/>
<path class="st160" d="M138.2,108.2c1.5,1.9,3.4,0.1,5,0.6c-0.6,0.4-1.1,0.9-1.6,1.4c-1.5,1.9-2.8,1.6-3.9-0.3c0-0.6,0-1.1,0-1.7
	L138.2,108.2z"/>
<path class="st161" d="M123.7,56.3c-0.2-0.8,1-1.5,0-2.2c1.5-0.8,1.4,0.7,1.6,1.2c0.1,1.1,0.2,2.1,0.1,3.2c2.2,1.4,1.3,4.2,2.8,5.9
	c0.4,1.8-1.4,3.8,0.6,5.5c0.2,0.5,0.2,1,0,1.5c-1.6,0.5-2.2-0.9-3.2-1.6C124.4,65.5,123.7,60.9,123.7,56.3z"/>
<path class="st162" d="M127.1,55.2c-0.4-0.1-1.1-0.2-0.9-0.8c0.6-1.7-0.7-2.5-1.8-3c-1.3-0.4-2.6,0-3.5,1c-0.8,1-1.7,1.9-2.8,2.7
	c-0.8-0.8,0-1.5,0.1-2.3c0.9-1.8,2.4-3.3,4.2-4.2c0.9-0.2,1.8-0.7,2.7,0c0.5,0.7,1.2,1.3,1.9,1.9c0.8,0.6,1.2,1.6,1.1,2.6
	C127.9,53.8,127.6,54.6,127.1,55.2z"/>
<path class="st163" d="M127.6,64.7c-1.7-1.7-0.8-4.3-2.2-6.1l1.7,0.6c1.9,1,1.2,3.5,2.5,4.8c0.5,1.3,1.8,2.6,0.5,4.1
	c-0.2,0.1-0.5,0.2-0.8,0.1C128,67.3,128.7,65.6,127.6,64.7z"/>
<path class="st164" d="M129.3,64.1c-2.1-1.1-1.1-3.5-2.2-5l0.6-1.7l0.4-0.1c1.1,1.2,1.9,2.6,2.3,4.2c0.3,0.8,0.2,1.7-0.3,2.5
	C129.9,64.3,129.5,64.3,129.3,64.1C129.3,64.1,129.3,64.1,129.3,64.1z"/>
<path class="st108" d="M118.7,53l-0.6,2.2c-1.5,0.9-1.8,2.7-2.6,4.1c-0.3,0.6-0.3,1.5-1.3,1.5c-0.2-1.5,1-2.5,1.1-3.9
	c-0.3-1.6,1.1-2.2,1.7-3.3l0.6-0.6C117.9,52.7,118.4,52.7,118.7,53C118.7,53,118.7,53,118.7,53z"/>
<path class="st165" d="M127.1,55.2c0.1-0.8-0.3-1.6,0.6-2.2c1.1,1.3,1.1,3.2,0,4.5l0,0C126.4,56.9,126.5,56.1,127.1,55.2z"/>
<path class="st166" d="M117.1,53.5c-0.1,1.3-1,2.3-1.7,3.3c-2.1,1.8-2.3,4.3-2.8,6.7c-0.3,1.4-0.3,3-1.7,3.9c-1.1-3.2,0.5-6,1.1-8.9
	c0.5,0.2,1.2,0.4,1.3-0.4c0.2-1.6,1.9-2.5,2.1-4.1L117.1,53.5z"/>
<path class="st167" d="M112,75.3c-0.4-1-0.1-2.4-1.7-2.8c1-1.4-0.8-3.1,0.6-4.5C112.5,70.1,113,72.8,112,75.3z"/>
<path class="st168" d="M118.2,61.9c0.2-2.8,1.4-4.6,4.5-4.5c2.2,1.9,1.4,4.7,1.8,7.1c0,0.7,0.1,1.4,0.2,2.1
	c-0.4,3.2,0.9,5.7,3.3,7.7c0.3,0.3,0.4,0.7,0.3,1.1c-0.3,0.4-0.8,0.7-1.4,0.7c-3.6-1.8-5.8-5.6-5.5-9.6c0.2-2-0.3-4,0.1-6.1
	c0.1-0.4-0.3-0.6-0.8-0.5C119.7,60.3,119.7,62.1,118.2,61.9z"/>
<path class="st169" d="M118.2,61.9l2.2-2.8c1.1,0.2,2,0.3,1.5,2c-0.6,2.1-0.1,4.3-0.5,6.5c-0.1,0.8-0.3,1.6-0.8,2.3
	c-1.6,1.2-2.4,0.7-2.8-1.1c0-0.6-0.1-1.3-0.2-1.9c-1-1,0-2.3-0.6-3.3L118.2,61.9z"/>
<path class="st170" d="M124.3,66.9c-1-2.6-0.1-5.4-1.1-8c-0.2-0.5-0.4-1-0.6-1.5l1.1-1.1c0.2,0.1,0.7,0.2,0.7,0.3
	c-0.2,4.6,1.1,9.1,1.5,13.7l-0.4,0.1C124.1,69.6,124.8,68,124.3,66.9z"/>
<path class="st171" d="M117.6,66.9c0.6,0.4,0.5,1.1,0.6,1.7c0.2,1.5,0.9,1.8,2.2,1.1c1,2.1,3.1,3.4,4,5.7c-1.4,1.1-3.1,0.2-4.6,0.7
	c-0.3,0-0.5-0.1-0.7-0.4c-0.2-1.5-0.6-2.9-0.9-4.3C117.6,70,116.8,68.5,117.6,66.9z"/>
<path class="st117" d="M119.3,75.8h0.6c0.8,1.7,0.3,3.3,0,5c0.6,2.2,2,4.3,0.6,6.7c-0.4-1.7-0.8-3.3-1.1-5
	C118.8,80.3,118.8,78.1,119.3,75.8z"/>
<path class="st172" d="M119.3,75.8v6.7c-0.8-0.7-0.6-1.7-0.5-2.6c0.2-2.9-0.4-5.7-0.6-8.6C118.9,72.7,119.3,74.3,119.3,75.8z"/>
<path class="st173" d="M126,79.2c-0.8,0-1.6,0-1.7-1.1c-0.7-1-0.8-2,0.6-2.5c0.4,0,0.8,0.1,1.2,0.4c0.8,0.7,1.5,1.7,2.7,1.5
	c0.4,0,0.7,0.1,1.1,0.1c0.2,0.1,0.5,0.1,0.7,0.2c1,1.7,2.8-0.1,3.9,1c-0.2,1.4-1.3,2.5-2.8,2.5C129.8,80.7,127.7,80.4,126,79.2z"/>
<path class="st174" d="M126,79.2c2,0,3.8,0.9,5.6,1.7c0.6,1-0.1,1.4-0.8,1.8c-1.8,0.9-4.1,0.4-5.4-1.2c-0.7,0-1.5-0.5-2.2,0
	C123.4,79.8,125.4,80.4,126,79.2z"/>
<path class="st175" d="M125.4,75.8c-1.5,0.2-1,1.3-1.1,2.2c-2.6-1.1-3.3-0.6-3.7,2c0,0.3-0.5,0.5-0.8,0.7v-5c1.3-1.8,3,0.1,4.5-0.6
	C124.9,74.9,125.4,74.8,125.4,75.8z"/>
<path class="st176" d="M128.2,97c0,0.2,0,0.4,0,0.6l-1.7-1.1c0.3-2.8-1.5-4.5-3.3-6.1c0-1.4,0.4-2.7,1.1-3.9
	c1.1,0.9,0.9,2.4,1.7,3.6c1,1.3,1.4,2.9,2.3,4.2C128.9,95,128.9,96.2,128.2,97z"/>
<path class="st177" d="M125.4,81.4c1.7,0.2,3.2,1.9,5,0.6c1.1,0.7,2.4-0.7,3.4,0.5c0.3,0.5,0.1,1.2-0.4,1.5c0,0-0.1,0-0.1,0
	c-3,0.3-6,1.3-9.1,0.8C124.3,83.5,125.7,82.8,125.4,81.4z"/>
<path class="st178" d="M125.4,90.4c-0.7-1.2-1.1-2.5-1.1-3.9v-1.1c2.1-0.3,4-1.4,6.2-0.6c-0.4,1.9-2.7,1.4-3.5,2.7
	C126.1,88.2,126.3,89.6,125.4,90.4z"/>
<path class="st179" d="M130.4,84.8c-2.1-0.2-4,1-6.1,0.6v-0.6c2.9-0.8,5.9-1.2,8.9-1.1c0.2,0.4,0,0.7-0.3,1
	c-0.4,0.3-0.9,0.5-1.4,0.6C131.1,85.3,130.7,85.1,130.4,84.8z"/>
<path class="st180" d="M143.2,37.9v-1.7l1.7,1.1c0.5,0.9,0.1,1.8-0.1,2.8c-0.1,0.4-0.3,0.7-0.6,1c-1.4,1.2-1.3,3.4-3.2,4.3
	c-0.4,0-0.8-0.2-0.9-0.6C139.8,41.9,142,40.1,143.2,37.9z"/>
<path class="st181" d="M144.4,40.1c-0.1-1,0.1-1.9,0.6-2.8c0.8-0.5,1.8-0.7,2.2-1.7c0.9,0,1.7,0.4,2.2,1.1
	C147.7,38,146.5,39.7,144.4,40.1z"/>
<path class="st182" d="M144.4,40.1c1.5-1.3,2.9-2.8,5-3.3c0,0.4,0,0.7,0,1.1c-0.6,0.8-1.9,0.5-2.2,1.7c-1.5,1-1.9,3-3.4,4
	c-0.3,0-0.5-0.1-0.7-0.3c-0.1-0.9,0.1-1.9,0.7-2.6L144.4,40.1z"/>
<path class="st183" d="M122.1,42.4c1.6-1.8,3.2-3.7,5.6-4.5c3.7-0.4,7.3-2.8,11.3-0.9c-0.6,1.3-2,1.8-3,2.6c-0.4,0.4-1,0.6-1.5,0.5
	c-0.8-0.2-1.6-0.2-2.4-0.4c-1.3-0.3-2-0.1-2.2,1.5s-1.5,2.4-2.8,3.2c-0.8,0.5-1.5,1-2.2,1.5c-0.2,0.1-0.5,0.3-0.7,0.4
	c-0.6,0.3-1.3,0.4-2,0.3C120.3,45.1,121.7,43.7,122.1,42.4z"/>
<path class="st184" d="M134.3,39.6h1.7c2.8,1.1,5-0.3,7.2-1.7c-0.3,2.5-2.6,4.2-2.8,6.7c-0.2,1-0.7,1.9-1.5,2.5
	c-0.7,0.5-0.9,1.5-2,1.5c-0.4-0.2-0.7-0.4-0.8-0.8c-0.2-0.8-0.1-1.6,0.3-2.3c0.5-1.2,0.8-2.5-0.1-3.7c-0.2-0.2-0.4-0.3-0.6-0.4
	c-0.9-0.4-1.9-0.6-2.9-0.7c-0.6-0.2-1.9,0-1.2-1.4C132.5,39.2,133.5,39.3,134.3,39.6z"/>
<path class="st185" d="M122.1,42.4c0.6,1.2-1.5,2.9,0.6,3.9c0.1,0.2,0.2,0.4,0.2,0.6c-0.1,0.3-0.4,0.5-0.7,0.5l-2.2-1.1
	C120.4,44.9,120.7,43.3,122.1,42.4z"/>
<path class="st186" d="M122.1,47.4l0.6-0.6c0.4-0.6,1.2-0.7,1.7-1.1l0,0c0.8-0.4,1.6-1.1,2.7-0.7c0.6,1.4-0.6,1.7-1.3,2.3
	c-0.9,0.8-2.1,1.1-3,1.8c-1.4,1.2-3,2.2-3.9,3.9h-1.1c0.5-1.6,2-2.5,2.8-3.9C121.1,48.7,121.7,48.1,122.1,47.4z"/>
<path class="st187" d="M158.9,43.5l0.6-0.6c1.1,2.2,3.9,3,4.5,5.6l-0.4,0.1c-0.8-0.2-1.5-0.5-2.2-1
	C160.4,46.4,158.2,45.8,158.9,43.5z"/>
<path class="st187" d="M168.3,54.6v0.6c-2-0.8-4.5-4.6-4.5-6.7l0,0C166.2,50,167.1,52.4,168.3,54.6z"/>
<path class="st188" d="M152.2,41.2h2.8c0.1,0.2,0.1,0.5,0,0.5c-2.9,1.1-5.4,3.2-8.6,3.6l-0.3-0.2C147.6,43.1,149.1,41,152.2,41.2z"
	/>
<path class="st189" d="M143.2,43.5h0.6c1.2-0.4,0.9-2.7,2.8-2.2v1.1l-1.1,1.6c-0.6,1.1-0.8,2.7-2.7,2.3c-0.8-0.9-0.3-1.8,0.1-2.6
	L143.2,43.5z"/>
<path class="st190" d="M142.7,46.3c1.4-0.2,1.8-1.5,2.8-2.2v1.1c0.9,1.4-0.8,2.2-0.8,3.5c-0.1,0.5-0.4,0.9-0.9,1.1
	c-0.3,0-0.5-0.1-0.7-0.2c-0.4-0.9-0.6-2-0.5-3L142.7,46.3z"/>
<path class="st191" d="M144.4,48.5c-0.7-1.5,1.3-2,1.1-3.3h0.6l0,0c0.6,0.6,1.6-0.2,2.1,0.5c0.3,1.1-0.8,1.1-1.2,1.5
	c-0.8,0.4-0.8,1.4-1.4,2C144.9,49.3,144.6,49,144.4,48.5z"/>
<path class="st192" d="M146.6,41.2c-1.3,0.3-1.4,2.1-2.8,2.2c0.7-1.7,1.1-3.6,3.4-3.9v0.6L146.6,41.2z"/>
<path class="st193" d="M158.9,43.5c0.2,1.8,2.1,2.4,2.8,3.9c1.9,1.3,2.8,3.2,3.8,5.1c0,1.1-0.2,2.2-0.7,3.1
	c-0.5,0.5-0.9,0.2-1.4-0.1c-0.4-1-0.9-2-1.6-2.8c-2-2.5-3.3-5.5-4.9-8.2c-0.7-0.9-1.8-0.8-2.7-1.2c-0.3-0.1-0.4-0.4-0.3-0.7
	c1.8-1,3.4-1,4.6,1L158.9,43.5z"/>
<path class="st194" d="M158.3,43.5c-1.4-1-2.8-1.8-4.5-0.5c-1.2,1.8-3.2,2.4-5.2,2.8h-0.4c-0.8-0.1-1.6,0.3-2.2-0.5
	c3.1-1.1,5.7-3.1,8.9-3.9C156.6,41.2,158,41.5,158.3,43.5z"/>
<path class="st195" d="M158.9,65.2c-2.1,0.4-4.4,0.4-5.6,2.8c-0.6,1.4-2,1.9-3,2.8c-2.4,0.4-3.5,2.5-5.2,3.9
	c-1.5,1.1-3.4,1.7-5.2,1.7c-0.3-0.3-0.4-0.8-0.3-1.2c0.1-0.4,0.4-0.7,0.7-0.9c1.5-0.2,2.9-1.1,3.7-2.4c0.6-0.8,1.1-2,2.3-2.2
	c1.2,0,2.3-0.8,2.6-2c1-1.6,2.4-2.8,4.1-3.5c1.5-0.2,2.3-1.3,3.5-2c0.5-0.2,1-0.1,1.4,0.3c0.6,0.6,1.5,1,1.6,2
	C159.5,64.9,159.2,65.1,158.9,65.2z"/>
<path class="st196" d="M149.9,70.3l3.4-2.3c1.5-1,3.3-1.2,5-0.6c0,0.5-0.1,1-0.5,1.3c-1,0.7-1.8,1.5-2.7,2.4
	c-1.2,1.1-2.2,2.5-3.8,3.1c-0.9,0.4-1.6,1-2.6,0.8c-0.3-0.1-0.5-0.3-0.7-0.5C147.2,72.6,149.4,71.8,149.9,70.3z"/>
<path class="st197" d="M158.9,65.2l0.6-0.6c1.2-0.8,2.1,0.1,2.9,0.8c0.2,0.2,0.4,0.4,0.5,0.7c0.8,2,1.8,3.9,2,6.1
	c0.2,1.1-0.2,2.3-0.9,3.1c-1.3-1.9,0.1-4.5-1.7-6.5C161.1,67.6,160.3,66.2,158.9,65.2z"/>
<path class="st198" d="M157.7,68.6c0-0.4,0.2-0.9,0.6-1.1c1.9,0.4,4.3,3.5,4.4,5.6c0.1,0.9,0,1.9,0,2.8c-0.9-0.5-0.1-2.2-1.7-2.2
	c-0.2-0.2-0.3-0.4-0.5-0.6C160.5,71,158.8,70,157.7,68.6z"/>
<path class="st199" d="M163.9,75.3c1-3.4-0.9-6.4-1.7-9.5c1.4-0.4,2,0.5,2.3,1.7c0.3,1,0.6,1.9,1,2.8c0.1,0.4,0.2,0.9,0.2,1.4
	c-0.1,1.4,0.4,2.9-0.7,4.2h-1.1C163.9,75.7,163.9,75.5,163.9,75.3z"/>
<path class="st200" d="M165,75.8v-4.5c2.1,0.8,1,3.1,2.2,4.4c0.2,1.1-0.2,2.2-1.1,2.9l-0.6,0.6C165,78.2,164.8,77,165,75.8z"/>
<path class="st201" d="M165,52.4c-1.1-1.7-2.2-3.3-3.3-5c1-0.1,1.4,0.8,2.2,1.1c1.2,2.4,2.7,4.6,4.5,6.7c2.7,5.9,3.9,12.5,3.3,19
	c-1.3,2.2-1.2,4.9-2.2,7.3c-1.3,1.4-1.6,3.3-2.2,5l-1.1,0.6c0.6-2.2,1.1-4.5,1.7-6.7c0.6-1.1,0.1-2.5,0.7-3.6
	c0.7-2.7,1.9-5.5-0.4-8.1c-1.4-4-0.9-8.3-2.1-12.4C165.8,55,165.5,53.7,165,52.4z"/>
<path class="st202" d="M168.9,77c0,1.2-0.4,2.4-1.1,3.3c0.1-1.2-0.4-1.8-1.7-1.7c0.2-0.9,0.4-1.9,0.6-2.8c0.2-0.6,0.8-1,1.4-0.9
	C169.3,75.2,169.4,76,168.9,77z"/>
<path class="st203" d="M160.5,77.5l-1.1,0.6c-1.8,1.2-3.5,2.4-5.2,3.6c-2.7,1.8-6.3,1.2-8.3-1.3c2-1.2,4.4,0.2,6.3-1.2
	c1.5-1.5,3.1-2.8,4.8-4c1.1-0.9,2.4-1.6,3.5,0.1V77.5z"/>
<path class="st204" d="M160.5,75.3c-0.9-0.8-2.2-0.7-3,0.2c0,0,0,0,0,0c-1.4,1.7-3.6,2.3-4.8,4.2c-0.7,0-1.3-0.3-1.4-1.1
	c0.1-1,1.1-1.4,1.6-2.1c1.9-2,3.2-4.5,5.7-5.7c2.3-0.9,1.9,1.2,2.4,2.3v0.6C160.1,73.9,161.2,74.9,160.5,75.3z"/>
<path class="st205" d="M158.9,92v1.1c-0.9,0.6,0.4,2.1-0.9,2.5c-0.6,0.3-1.3,0.2-1.9-0.2c-0.6-3.7-3.4-6.6-7-7.5
	c-5.2-1.4-10.7-0.2-14.8,3.3c-0.7,0.4-1.3,1.2-2.3,0.7c-0.7-2.5,1.7-3,2.7-4.4c3.2-3.3,7.1-4.1,11.5-2.8c0.7,0.2,1.4,0.4,2.1,0.5
	C152.9,85.2,157,87.9,158.9,92z"/>
<path class="st206" d="M158.9,92c-0.7,0-1.3-0.4-1.6-1c-1.2-3.2-3.7-4.3-6.9-4.8c-2-0.3-3.9-1-5.9-1.4c-3.8-0.8-6.9,0.8-9.6,3.2
	c-0.2,0.2-0.5,0.2-0.7,0c0,0,0,0,0,0c-0.3-0.6-0.2-1.4,0.3-1.9c0.6-0.7,0.8-1.8,2.1-1.5c3.5-2,7.2-1.1,10.8-0.5c2,0.2,4,0.6,5.9,1.1
	C156.4,86.4,158,89,158.9,92z"/>
<path class="st207" d="M131.5,84.8l1.1-0.6c0.7,0.2,1-0.2,1.4-0.6c3.2-3.3,8.2-4.2,12.3-2c2.2,1.1,4.4,0.9,6.7,1
	c0.7,0.1,1.4,0.5,1.9,1v0.6c-4,0.1-8-0.6-11.8-2c-2.4-0.8-4.8,0.1-6.6,2c-1.5,0.8-2.6,2.4-4.5,2.4C131.5,86.1,131.3,85.4,131.5,84.8
	z"/>
<path class="st208" d="M156.1,95.4h2.2c0.1,0.1,0.2,0.2,0.1,0.4s-0.1,0.2-0.1,0.2c-0.4,3.6-3.6,5.4-5,8.3l-1.1,0.1l-1.7-0.1
	c0-0.2-0.1-0.4,0-0.5c2.6-1.6,4.3-4.4,4.6-7.4C155.2,95.8,155.6,95.5,156.1,95.4z"/>
<path class="st209" d="M132.1,86.4c1.4-0.9,2.7-2,4.5-2.2v0.6l-1.7,1.7c-1.3,0.9-2.5,2-4.3,1.4c-0.2-0.2-0.4-0.4-0.3-0.7
	C130.6,86.4,131.4,86.1,132.1,86.4z"/>
<path class="st206" d="M158.3,95.9c0-0.2,0-0.4,0-0.6c0-0.8-0.8-1.8,0.6-2.2C158.7,94.1,159.2,95.2,158.3,95.9z"/>
<path class="st210" d="M155,83.7c-0.6,0-1.3,0.1-1.7-0.6c0.5-1.3,1.6-1.5,2.8-1.7c0.9-0.1,1.8,0.3,2.2,1.2v1.7
	C157.3,83.7,156.1,83.5,155,83.7z"/>
<path class="st211" d="M158.3,82.5c-0.7-0.4-1.4-0.6-2.2-0.6c-0.1-1.6,0.7-2.3,2.2-2.2c0.4,0.2,0.6,0.7,0.6,1.1L158.3,82.5z"/>
<path class="st212" d="M158.3,79.8c-0.9,0.5-1.7,1.3-2.2,2.2l-2.8,1.1c-2.9,0.2-5.9-0.4-8.6-1.5c-3.4-1.5-6.8-0.1-9.9,1.8
	c-0.6,0.4-1,1.9-2.2,0.8l0.5-0.6c0.4-0.2,0.6-0.7,0.6-1.1c-0.1-0.5,0.2-0.8,0.5-1.1c1.9-0.9,3.9-1.6,5.9-2.2
	c2.1-0.5,4.2-0.7,5.9,1.1c3.5,2.3,5.7,2.2,8.7,0c1.4-1,2.7-2.2,4.6-2.2L158.3,79.8z"/>
<path class="st213" d="M138.8,112.7c1.9,0.9,2.2-2,3.9-1.7c0,0.9-0.4,1.8-1.1,2.4c-0.6,0.6-0.9,2-1.9,1.6
	C138.9,114.8,138.8,113.6,138.8,112.7z"/>
<path class="st214" d="M156.1,95.4c-0.4,0.8-0.6,1.7-0.6,2.6c-0.2,3.2-2.5,4.8-5,6.3h-1.6c-0.3-0.2-0.7-0.3-0.7-0.8
	c0.3-0.8,1.2-0.9,1.8-1.3c4.5-2.4,5-7.6,1.3-11.7c-1.2-0.8-2.6-0.9-3.9-1.2c-0.3-0.1-0.5-0.1-0.8-0.2c-3-0.5-6.1,0-8.9,1.5
	c-1.2,0.6-2.4,1.5-3.9,0.4c5.1-4.6,12.4-5.7,18.6-2.6C154.6,89.4,156.7,93.4,156.1,95.4z"/>
<path class="st215" d="M133.8,90.9c2.3,0,4.1-1.4,6.2-2.1c2.3-0.9,4.9-0.9,7.2-0.1c-1.4,1.3-3.3,0.8-5,1.2c-2.6,0.4-4.8,1.8-7.1,2.9
	c-1.4,0.6-1.6,2.1-1.6,3.6c0,2.6,0.5,5.2,1.4,7.6c-0.5,0.2-1.1,0.1-1.6-0.2h-0.6c-0.6-0.4-1.1-1-1.3-1.7c-0.9-2.6-0.6-5.2-0.7-7.9
	c-0.1-1,0.5-1.9,1.4-2.2L133.8,90.9z"/>
<path class="st216" d="M132.1,92c-1.2,3.8-1,8,0.6,11.7c-2.4-0.6-2-2.9-2.8-4.4c0.4-1.7-0.6-3-1.1-4.5c-0.8-1.8-0.5-3.9,0.8-5.3
	c1.5-0.8,2.7-2.4,4.7-1.4h0.6C134,89.5,132.1,90.1,132.1,92z"/>
<path class="st217" d="M129.9,89.8c-0.8,1.6-1.4,3.2-0.6,5c0.5,0.9,0.4,1.7-0.6,2.2h-0.6c0.1-1-0.1-1.9-0.6-2.8
	c-0.4-0.6-0.3-1.4-0.5-2.1c-1.1-3.4-1-3.6,2.2-5.1c0.3-0.2,0.7-0.3,1.1-0.1v0.6C131.2,88.6,130.2,89.1,129.9,89.8z"/>
<path class="st208" d="M133.2,103.8h1.7c0.9-0.9,2-0.7,3-0.8c2.4,0,4.8,0,7.2,0c1.1,0,2.2-0.1,3.1,0.8l0.6,0.5c-4.4,0-8.9,0-13.3,0
	C134.7,104.3,133.9,104.5,133.2,103.8z"/>
<path class="st218" d="M128.8,97.1c0.4-0.7,0.6-1.4,0.6-2.2c0.8,1.4,1.8,2.8,0.6,4.5L128.8,97.1z"/>
<path class="st219" d="M140.7,105.5h5.2C144.3,105.4,142.7,107.4,140.7,105.5z"/>
<path class="st170" d="M128.2,75.3l-0.6-0.6c-0.7-1.4-2.7-2.4-1.7-4.5l0,0c1.5-1,1.6,1.4,2.8,1.1c0.5,0,1,0.2,1.4,0.6
	c0.1,0.2,0.2,0.5,0.3,0.7c0.1,0.5,0,1.1-0.3,1.5C129.6,74.8,129.2,75.5,128.2,75.3z"/>
<path class="st220" d="M127.6,64.7c1.4,0.7,1.3,2.2,1.7,3.3c0.3,0.3,0.4,0.7,0.3,1.1c-0.3,0.6-0.5,1.3-1.4,1.1
	C126.5,68.6,127,66.6,127.6,64.7z"/>
<path class="st221" d="M128.2,70.3l1.1-1.1c0.5,0.2,0.9,0.7,1,1.2c0.1,0.6-0.1,1.2-0.5,1.6c-0.5,0.1-0.9-0.2-1.1-0.6L128.2,70.3z"/>
<path class="st222" d="M127.6,57.4V53c0.1-1-0.8-1.5-1.1-2.2c-0.5-0.9-0.8-1.8,0.3-2.4c1-0.1,1.4,0.6,1.7,1.3
	c0.5,3.1,0.3,6.4,2.1,9.2c0.2,0.5,0.3,1.1,0.1,1.7c-0.1,0.4-0.5,0.7-0.9,0.8L127.6,57.4z"/>
<path class="st223" d="M122.6,49.1c0.9-1.9,3.4-2.1,4.5-3.9c0.3-0.6,1.1-0.9,1.8-0.6c0.2,0.3,0.3,0.7,0.2,1.1
	c-0.6,0.8-1.3,1.5-2.1,2.1c-0.8,0.2-0.9,1.6-2,1.3C124.1,48.5,123.4,49.3,122.6,49.1z"/>
<path class="st165" d="M124.8,49.1l1.7-1.7c1,0,0.9,0.5,0.6,1.1c-0.8,0.6-0.5,1.5-0.6,2.2C125.8,50.3,124.9,50.2,124.8,49.1z"/>
<path class="st224" d="M129.3,64.1h0.6c2-2.4,2.3-2.5,3.8-0.2c-1,1.8-0.1,4.4-2.5,5.5c-0.9-0.1-1.4-0.4-1.2-1.4
	C130.7,66.6,129.1,65.5,129.3,64.1z"/>
<path class="st225" d="M129.9,68c0.2,0.5,0.6,1,1.1,1.2c0.4,1.2,0.1,1.6-1.1,1.1l-0.6-1.1V68H129.9z"/>
<path class="st226" d="M133.2,63.6c-0.9-0.9-1.7-1.4-2.2,0.3c-0.2,0.7-0.6,0.8-1.1,0.2v-2.8l0.6-0.6c2.2-0.9,4.8-1.2,6.2-3.5
	c1.5,1.3,2.4-1.4,3.8-0.5c0.7,1,0.4,2.4-0.4,2.7c-2.2,0.7-3.2,2.9-5.2,3.7c-0.3,0.3-0.6,0.5-0.9,0.6
	C133.7,63.8,133.4,63.8,133.2,63.6z"/>
<path class="st227" d="M125.4,75.8c-0.2-0.4-0.7-0.6-1.1-0.6c-1.6-1.6-4-2.7-3.9-5.6c1-3,0.4-6.2,1.2-9.1c0.3-1.2-1.1-0.8-1.2-1.5
	c1.5-0.5,2.5-0.2,1.9,1.6c-0.7,2.2-0.1,4.5-0.2,6.7c-0.1,3.6,1.8,6.4,4.9,8.4c1.3-0.1,1.5,0.6,1.3,1.7c-1.4,0.9-1.6-0.8-2.4-1.1
	L125.4,75.8z"/>
<path class="st228" d="M126,70.3c-0.1,1.7,1.5,2.8,1.7,4.5c-2.5-2-4.5-4.2-3.3-7.8L126,70.3z"/>
<path class="st229" d="M128.2,77.5c0-0.7-0.4-1.4-1.1-1.7c0.2-0.4,0.7-0.6,1.1-0.6c0.6-0.3,0.8-1.2,1.7-1.1c0.5,0.4,0.8,1,0.9,1.6
	c0.1,0.2,0.1,0.5,0.1,0.8c0,0.7-0.4,1.3-1,1.5h-1.1C128.6,77.9,128.2,77.9,128.2,77.5z"/>
<path class="st230" d="M134.3,82l-0.6,0.6c-1.1-0.2-2.4,0.4-3.3-0.6c0.5,0.1,1-0.3,1.1-0.9c0-0.1,0-0.2,0-0.3
	c1.4-0.1,2.1-1.2,2.8-2.2c0.1-0.4,0.3-0.8,0.6-1c0.7-0.6,1.5-1,2.4-1.3c0.5-0.1,1.1-0.1,1.6-0.1c0.7,0.2,1.3,0.3,2,0.4
	c0.6,0.8-0.1,1.2-0.5,1.7C138.6,80,136.2,80.6,134.3,82z"/>
<path class="st231" d="M129.9,78.1l0.6-1.7c2.2-1,3.6-3,5.4-4.6c0.3-0.2,0.7-0.3,1.1-0.2c0.3,0.1,0.5,0.2,0.7,0.4
	c0.2,0.2,0.3,0.5,0.3,0.7c-0.2,1.3-1.5,1.8-2.2,2.8c-1.4,1.6-2.3,4.2-5.3,2.6L129.9,78.1z"/>
<path class="st232" d="M130.4,78.1c2.9,0.7,3.7-1.7,5-3.3c1.1-0.1,1.7-1.3,2.9-1.2c0.6,2.8-2.3,3-3.4,4.5c-0.2,0.2-0.4,0.4-0.6,0.6
	C133,79,131.4,80.6,130.4,78.1z"/>
<path class="st175" d="M128.2,77.5l0.6,0.6c-1.2,0.3-2.4-0.4-2.7-1.6c0,0,0,0,0-0.1L128.2,77.5z"/>
<path class="st233" d="M129.9,87.6c-2.5,0.8-4.1,2-2.1,4.9c0.3,0.4-0.1,1.2-0.1,1.8c-1.2-1-1.1-2.8-2.2-3.9c0.1-1.2-0.4-2.6,1.1-3.3
	C127.6,86.4,129,86.7,129.9,87.6z"/>
<path class="st234" d="M129.9,87.6c-1.2,0.2-2.2-0.4-3.3-0.6c0.8-1.7,2.9-1,3.9-2.2h1.1l0.6,1.7l-1.7,0.6L129.9,87.6z"/>
<path class="st235" d="M143.8,40.7c-0.2,0.9-0.4,1.9-0.6,2.8l0,0c-0.6,0.9-0.9,2-1,3.1c0.1,1.8-0.1,3.7-0.7,5.4
	c-0.7,2-1.9,3.6-4.2,3.9c-0.7,0.1-1.4,0.2-2.1,0.4c-4,1.1-4.3,0.8-5.3-3.3c-0.2-0.7-0.1-1.5,0.1-2.2c0.6-1,1.2-1.9,2.6-1.9
	c0.9,1,0.1,2.1,0.1,3.1c0,0.9-0.3,2,1.3,1.7c1.2,0.2,2.4-0.6,2.8-1.8c0.8-2,2.9-3.4,3.2-5.7c0.2-0.5,0.6-0.9,1-1.1
	C142.2,43.8,142.2,41.8,143.8,40.7z"/>
<path class="st236" d="M141,45.2l-0.6,1.1c-0.4,0.4-0.2,1.4-1.1,1.3c-0.5,0-0.6-0.3-0.5-0.8l1.7-2.2L141,45.2z"/>
<path class="st123" d="M134.3,39.6h-2.8c-0.7,0.8-1.1,1.8-1.4,2.9c-0.3,0.6-0.8,1.1-1.3,1.5c-0.8,0.3-1.5,0.9-2.3,0.1
	c1.5-1.2,3.2-2.2,2.9-4.6c-0.1-0.4,0.2-0.8,0.6-0.9c0.2,0,0.3,0,0.5,0.1C131.7,39.3,133.2,38.5,134.3,39.6z"/>
<path class="st237" d="M126.5,44c0.8,0.1,1.6-0.1,2.2-0.6c0.3,0.3,0.3,0.8,0,1.1l-1.7,0.6l-2.8,0.6C124.7,44.7,125.7,44.5,126.5,44z
	"/>
<path class="st127" d="M124.3,45.7c-0.2,0.7-0.9,1.2-1.7,1.1v-0.6C123,45.6,123.7,45.7,124.3,45.7z"/>
<path class="st238" d="M138.8,46.8c1,1.1,1.1-0.5,1.7-0.6c-0.1,3.3-3,5.1-4.1,7.8c-0.4,1-1.7,0-2.6,0c-0.1-1.2,0.7-2.3,1.9-2.6
	c-1.4-0.4-1.2-1.1-0.4-2c0.7-0.2,1.6-0.1,1.9-1C137.9,48.1,137.6,46.7,138.8,46.8z"/>
<path class="st239" d="M128.7,44.6c0-0.4,0-0.8,0-1.1l1.1-1.1c0.2-0.2,0.5-0.2,0.7,0c0.1,0.1,0.2,0.3,0.2,0.5c0,3.5,0,3.5,3.4,4
	c2.1-1,1.4-2.8,1.1-4.4c-0.1-0.5-0.8-0.8-0.3-1.4c0.5-0.2,1.1-0.1,1.6,0.2l0.5,0.1c0.4,1.5,0.4,3,0,4.5c-0.4,0.7-0.6,1.4-0.6,2.2
	c0.3,0.7-0.1,1-0.6,1.2c-0.3,0.1-0.5,0.1-0.8,0.1c-1.2,0.1-2.3-0.5-3.5-0.4c-0.5-0.1-1-0.3-1.6-0.5c-1.1-0.6-3.3-0.6-1.4-2.7
	L128.7,44.6z"/>
<path class="st240" d="M130.5,42.4h-0.6c0.1-1.2-0.2-2.6,1.7-2.8c1.5,1.2,3.8-0.1,5,1.6l-1.7,0.1c-0.5,0.5-1.2,0.6-1.8,0.5
	C132,41.3,131.3,42,130.5,42.4z"/>
<path class="st240" d="M137.1,45.7v-4.5C138,42.6,138,44.4,137.1,45.7z"/>
<path class="st241" d="M135.4,49.1l1.1-1.1l0.6,0.6c0.2,1.6-0.7,1.3-1.7,1.1C135.3,49.5,135.3,49.2,135.4,49.1z"/>
<path class="st182" d="M142.1,46.3c0-1.1-0.2-2.2,1.1-2.8c-0.2,0.9-0.4,1.8-0.6,2.8l0,0C142.6,46.4,142.3,46.4,142.1,46.3
	C142.2,46.3,142.1,46.3,142.1,46.3z"/>
<path class="st242" d="M142.1,46.3h0.6c0.5,1,0.7,2.2,0.6,3.3c1.4,3.9,1,5.3-2.1,7.5c-0.3,0.1-0.5,0-0.7-0.2c-1.3,0-2.4,2.1-3.9,0.6
	l-0.2-0.3c-0.1-0.7,0.2-1.4,0.7-1.9c3.8-0.5,3.8-3.7,4.4-6.3C141.8,48,141.3,47,142.1,46.3z"/>
<path class="st243" d="M141,56.9c1.7-1.8,3.5-3.5,1.9-6.2c-0.1-0.2,0.2-0.7,0.4-1h0.5c0.6,0.2,1,0.6,1.4,1.1
	c0.3,0.5,0.5,1.1,0.6,1.7c0.1,0.3,0.1,0.7,0,1.1c-0.1,0.8-0.1,1.6,0,2.5c0,0.2-0.1,0.5-0.2,0.7c-1,2-2.9,3.2-3.9,5.2
	c-0.7,1.5-2,1.4-3.2,0.4c-0.6-0.8-0.7-1.7,0.3-2C140.7,59.7,140.6,58.1,141,56.9z"/>
<path class="st244" d="M144.9,50.7c-0.5,0.1-1.1-0.3-1.1-0.9c0-0.1,0-0.2,0-0.3l0.6-1.1l1.1,0.6c0.1,0.2,0.2,0.4,0.1,0.6
	C145.5,50.1,145.3,50.5,144.9,50.7z"/>
<path class="st245" d="M146.6,46.8l1.7-1.1l0,0c2-0.2,3.5-1.8,5.5-1.8c0.5,1.4-0.7,1.7-1.5,2.3c-1.4,0.7-2.9,1.5-4.6,1.3
	C147.2,47.4,146.8,47.1,146.6,46.8z"/>
<path class="st246" d="M146.6,46.8h1.1c0.2,1.1-0.6,1.8-0.9,2.7c-0.3,0.3-0.7,0.4-1.1,0.3l-0.3-0.2V49
	C145.6,48.2,145.1,47,146.6,46.8z"/>
<path class="st247" d="M165,70.3c-1.7-1-0.3-4-2.8-4.5l0,0c-0.8-1.1-1.5-2.2-2.1-3.3c-0.3-1.3-1.3-2.4-1-3.8
	c0.5-0.9,1.3-1.6,1.5-2.6c0.8-1.1,0.6-2.6,1.6-3.6c0.6,0.8,1.8,1.5,1.1,2.8c-0.4,4.8,0.8,9.4,2.1,14C165.5,69.6,165.3,70,165,70.3z"
	/>
<path class="st248" d="M165,69.2c-1.9-4-2.6-8.4-2.2-12.8c0-0.5,0.2-0.9,0.6-1.2l1.1,0.6c0.5,0.3,0.8,0.8,0.9,1.4
	c-0.7,3.5,1.3,6.8,1,10.3c0,0.6-0.2,1.2-0.5,1.7C165.7,69.3,165.3,69.4,165,69.2C165.1,69.2,165,69.2,165,69.2z"/>
<path class="st249" d="M162.2,52.4c0.2,1.4-0.2,2.8-1.1,3.9c-0.6,0.5-1.4,0.8-2.1,0.7c-0.9,0.1-1.8-0.1-2.6-0.4
	c-0.7-1.8,1-1.3,1.7-1.7c0.9-0.5,2.7-0.3,1.7-2.2c-1.4-2.2-3.1-4.3-3.3-7.1c0-0.6,0.2-1.2,0.7-1.6L162.2,52.4z"/>
<path class="st250" d="M165,56.9c-0.4-0.2-0.6-0.7-0.6-1.1c-0.2-1.2,0.4-2.2,0.6-3.3c1.4,0.7,1.3,2.2,1.7,3.3
	C166,56,166.4,57.8,165,56.9z"/>
<path class="st251" d="M157.2,44v1.7c-0.4,0.2-0.7,0-1-0.2c-0.9-0.8-1.5,0.2-2.2,0.5c-0.2,0.1-0.5,0.2-0.8,0.2c-0.4,0-0.8-0.2-1-0.5
	c0.4-0.7,1.4-0.8,1.7-1.6c-0.3-0.7,0.3-0.8,0.6-1.1C155.5,42.9,156.6,42.8,157.2,44z"/>
<path class="st252" d="M154.4,43l-0.6,1c-1.9,0.3-3.4,2-5.6,1.7l5.6-2.8L154.4,43z"/>
<path class="st253" d="M159.4,58.5c0.1,1.4,1.3,2.4,1.1,3.9c-0.8,0.5-1.8,0.7-2.8,0.6c-0.2-0.4-0.7-0.6-1.1-0.5
	c-1.9-0.4-1.9,2-3.3,2.2c-1.4,1-3.1,1.7-3.9,3.3c-0.6,0.8-1.1,1.3-1.9,0.2c-0.1-1.6,1.2-2.4,2-3.5c0.9-1.2,1.6-2.3-0.3-3.3
	c-0.7-0.5-1.2-1.2-1.4-2c-0.3-0.8-0.2-1.7,0.2-2.5c2-0.4,1.3,2,2.4,2.5c1.9,1.3,3.6,1.5,5-0.8c0.5-0.9,1.4-1.5,2.4-1.7
	c0.8-0.1,1.5,0.5,1.6,1.3C159.4,58.4,159.4,58.5,159.4,58.5z"/>
<path class="st254" d="M134.9,78.1c0.8-1.7,3-2.4,3.3-4.5c-0.4-0.2-0.2-0.8-0.6-1.1l0,0c0.7-2.1,2.4-3.7,2.6-6
	c0.1-0.4,0.7-0.5,1.2-0.3c1.2,1.2,0.6,3.2,1.8,4.4c-0.3,1.7-1.3,3.3-2.8,4.1l-0.6,0.6c-0.8,0.8-1.7,1.4-2.8,1.7
	C136.4,77.3,135.9,78.2,134.9,78.1z"/>
<path class="st253" d="M140.5,74.7c1-1.2,1.3-3,2.8-3.9c0-1.1,0.3-2.1,1-2.9c1.1-0.5,1.8,0.5,2.6,0.9c0.2,0.5,0.1,1.1-0.3,1.5
	c-1.5,0.3-2.4,2-2.7,2.7C143.2,75.1,141.9,74.7,140.5,74.7z"/>
<path class="st255" d="M149.9,70.3c0.4,1.9-2.1,2.6-1.7,4.5c-2.1,1.9-2.3,1.9-3.2-0.2l-0.1-0.4c0.2-0.2,0.5-0.3,0.6-0.6
	C146.1,71.4,148.1,71,149.9,70.3z"/>
<path class="st256" d="M157.7,63c0.9-0.5,1.6-1.5,2.8-0.6c0.9,1,1.8,1.9,1.7,3.4l-2.8-1.1L157.7,63z"/>
<path class="st255" d="M141,77h-2.2c0-1,0.5-0.9,1.1-0.6c1.4-1.5,3.7-0.7,5-2.2l0,0c0.4,1.1,0.6,2.3-0.4,3C143.5,78,142,77.9,141,77
	z"/>
<path class="st257" d="M153.3,64.7c0.7-0.9,1.3-1.9,2-2.8c0.9-1.1,0.9,0.3,1.3,0.6C155.8,63.7,155,64.8,153.3,64.7z"/>
<path class="st257" d="M146.6,70.3v-1.7c0-0.9,0.5-0.9,1.1-0.6c0.6,0.9,1.1,0.2,1.7,0c-0.1,1.3-1.2,2.3-2.5,2.3
	C146.8,70.3,146.7,70.3,146.6,70.3z"/>
<path class="st253" d="M139.9,76.4c-0.4,0-0.9,0.2-1.1,0.6h-1.7c0.8-0.8,1.4-1.9,2.8-1.7V76.4z"/>
<path class="st258" d="M141,77c2.1,0.3,4,0.1,3.9-2.8c0.9,1.8,2.1,1,3.3,0.6h0.6c0.7,0.6,1,1.6,1.9,1.9c0.5,2.1-1.4,1.8-2.4,2.4
	c-2.9,0.1-5.7,0.1-8.5-1L141,77z"/>
<path class="st259" d="M148.8,78.6c-0.2-1.3,2.4-0.5,1.7-2.2c-0.8-1.1,0.2-1.9,0.6-2.8c1.9-0.2,2.4-2.2,3.9-2.8l0.3,0.3
	c0.6,1.2,0.3,2.6-0.7,3.5c-0.6,0.7-1.1,1.5-1.2,2.4l-1.7,1.7C150.9,79.4,149.7,79.4,148.8,78.6C148.9,78.7,148.8,78.7,148.8,78.6z"
	/>
<path class="st260" d="M161.1,73.1c-1-0.2-0.1-2.9-2.2-1.7c-1.4,0.7-2.8,0.8-3.9-0.6l0,0c0.7-1,1.4-2.1,2.8-2.2
	C159.9,69.3,161.2,70.6,161.1,73.1z"/>
<path class="st261" d="M151.1,73.6l-0.6,2.8c-1.7,0.6-1.3-0.9-1.7-1.7C149.8,74.8,150.3,73.9,151.1,73.6z"/>
<path class="st262" d="M165,69.2h0.6c1.1,1.2,1.9,2.6,2.4,4.2c0.1,0.7,0.4,1.4-0.2,2l-1.1,0.6c-1.5-1.2-0.7-3.2-1.7-4.5
	c0-0.4,0-0.8,0-1.1V69.2z"/>
<path class="st263" d="M165,56.9c1,0.3,0.7-1.4,1.7-1.1c0.8,4.2,1.4,8.5,1.7,12.8c0.3,0.3,0.4,0.7,0.1,1.1c-1.8,0.3-2.1-1.3-2.9-2.2
	c0.4-2.5-0.9-4.8-1-7.2C164.3,59.2,164.5,57.9,165,56.9z"/>
<path class="st264" d="M168.3,69.7v-1.1c0.7,0,1.6,0,1.6,1c0,2.5,0.7,5.1-1.1,7.3c0-0.8,0-1.6-1.1-1.7l-0.6-1.7
	C168.1,72.5,167.1,70.8,168.3,69.7z"/>
<path class="st265" d="M148.8,78.6h2.8l1.1,1.1c-2.1,1.5-4.4,1-6.7,0.6c-4.3-2-7.9,0.7-11.7,1.7c1.3-2.2,3.8-2.5,5.6-3.9
	C142.9,78,145.9,78.2,148.8,78.6z"/>
<path class="st266" d="M155,70.8c1.3,0.4,2.6,0.6,3.9,0.6c-2.4,1.3-3.6,3.8-5.6,5.6c-0.5-0.8-0.2-1.9,0.5-2.4
	C155,73.5,155,72.2,155,70.8z"/>
<path class="st267" d="M129.9,89.8c0.2-0.8,0.4-1.5,0.6-2.2l4.4-1.1c-0.2,0.6-0.4,1.1-0.6,1.7C132.6,88.1,131.4,89.5,129.9,89.8z"/>
<path class="st268" d="M142.1,89.2l5-0.6l0,0c1.5,0.5,2.9,0.8,4.5,1.1c3,3.2,3.8,6.5,2,10.3c-0.7,1.4-2.1,2.4-3.7,2.6
	c-0.3-0.5,0-0.9,0.3-1.3c0.6-0.7,1.6-1,2.1-1.9c0.4-1.3,0.4-2.6,0.1-3.9c-0.1-0.2-0.1-0.5-0.2-0.7c-0.2-0.7-0.5-1.3-0.9-1.9
	c-0.4-0.5-0.8-0.8-1.4-1c-2.6-1.2-5.2-0.9-7.8-0.4c-0.5,0.1-1.1,0-1.6-0.3C139.9,89.5,141.6,89.8,142.1,89.2z"/>
<path class="st269" d="M150.5,101.5l-0.6,1.1l-1.7,1.1h-10.6c-0.2-0.3-0.1-0.6,0.1-0.8c0,0,0,0,0,0c0.7-0.4,1.4-0.5,2.2-0.5
	c3.1,0.2,6.3-0.2,9.2-1.4C149.7,101,150.2,101.2,150.5,101.5z"/>
<path class="st215" d="M151.6,89.8c-1.6,0.2-3.2-0.2-4.5-1.1C148.7,88.6,150.3,89,151.6,89.8z"/>
<path class="st270" d="M137.7,103.2v0.6h-2.8c-2.4-2.1-3.4-9.2-1-11c2.4-1.8,5.3-3,8.3-3.5l-1.7,1.7c-0.1,0.4-0.3,0.7-0.6,0.9
	c-0.8,0.3-1.5,0.8-2.2,1.3c-0.4,0.3-0.8,0.5-1.2,0.6c-1.8,0.6-2.8,1.6-2.1,3.7c0.3,0.9-0.1,2,0.6,2.9
	C135.7,101.4,136.8,102.2,137.7,103.2z"/>
<path class="st271" d="M133.2,63.6h0.5c0.5-0.2,0.8,0.1,1,0.5c0.5,1.6-0.7,2.8-1,4.2c-0.8,0.5-0.1,0.9,0.1,1.4
	c0.4,0.7,0.7,1.4,0.9,2.1c0.1,0.9-0.4,1.6-1.2,2c-1.1,0.7-2.7,0.4-3.4-0.8c-0.1-0.1-0.1-0.2-0.2-0.3v-2.3c0.6,0,1-0.4,1.1-0.9
	c0-0.1,0-0.1,0-0.2C132.9,67.8,131.8,65.1,133.2,63.6z"/>
<path class="st272" d="M129.9,72.5c1.1,0.4,2,1.5,3.3,0.6c0.2,2.1-0.9,2.8-2.8,2.8c-0.6-0.4-0.5-1.1-0.6-1.7V72.5z"/>
<path class="st273" d="M130.4,47.9c0.4,0,0.9,0.2,1.1,0.6c-0.2,0.8-0.6,1.5-1.1,2.2V53c0.4,1.4,0.2,2.9,1,4.2c0,0.8-0.3,1.5-1,1.9
	c-2.6-2.7-2.2-6.2-2.2-9.5C128.6,48.5,129.1,47.8,130.4,47.9z"/>
<path class="st242" d="M130.4,59.1l0.6-1.7c1.9,0.6,3.7-1.5,5.6,0l0,0c-0.4,1.8-1.2,3.2-3.3,2.8c-1.1-0.2-1.5,2.7-2.8,0.5V59.1z"/>
<path class="st274" d="M130.4,47.9l-2.2,1.7l-1.1-1.1c0.1-0.5-0.2-0.9-0.6-1.1c0.7-0.6,1.2-1.5,2.2-1.7
	C127.4,47.8,130.1,47,130.4,47.9z"/>
<path class="st275" d="M134.3,64.1l-0.6-0.5l0.6-0.6c1.1-0.5,2.1,0.2,3.1,0.5c3.2,1.2,4,0.8,5.6-2.4c0.8-1.6,2.9-2.5,2.4-4.8
	c0-0.2,0-0.4,0-0.5c0.1-0.4,0.5-0.7,0.9-0.7c0.3,0.1,0.5,0.2,0.7,0.4c1,1.3,0.6,2.8,0.6,4.3c0,0.3-0.1,0.5-0.1,0.8
	c-0.7,2.2-2.2,4.1-4.1,5.3c-0.5,0.2-1,0.4-1.6,0.4c-0.9-0.3-1.6,0.3-2.5,0.3C137.4,66.2,135.7,65.4,134.3,64.1z"/>
<path class="st276" d="M137.1,64.1l-2.8-1.1c2-0.8,2.4-3.8,5.2-3.8c0.7,0,0.8-1.5,1-2.3h0.5c0.7,1.5,0.1,2.5-1.1,3.3
	c-0.6,0.4-1.7,0.5-1.1,1.7c0.2,0.7,1.5,0.8,1,1.6C139.2,64.6,138,63.8,137.1,64.1z"/>
<path class="st277" d="M130.4,75.8c1.3-0.6,2.5-1.2,2.8-2.8c0.7-0.2,1.2-0.9,1.1-1.7c0.6-0.3,1.3-0.1,1.6,0.5c0,0,0,0.1,0,0.1
	c-1.4,2-2.5,4.5-5.6,4.5C130.4,76.2,130.4,76,130.4,75.8z"/>
<path class="st278" d="M139.3,65.8l2.8-0.1c0.1,0.5,0,0.7-0.6,0.6c-0.6,0.1-1.2,0.4-1,1c0.5,2.6-1.5,3.7-2.9,5.1l-0.6-0.5
	c-0.1-0.1-0.2-0.3-0.2-0.4c0-0.2,0-0.2,0.1-0.2C138.6,69.8,138.6,67.7,139.3,65.8z"/>
<path class="st279" d="M137.1,71.4c0,0.2,0,0.3,0,0.5H136l-1.7-0.6c-0.7-0.3-1.1-0.9-1.1-1.7c0.2-0.2,0.4-0.3,0.7-0.2
	C134.9,70.2,136.6,70,137.1,71.4z"/>
<path class="st279" d="M137.7,72.5c0.4,0.2,0.6,0.7,0.6,1.1c-0.9,0.5-1.6,1.3-2.8,1.1C136.1,73.9,137.3,73.6,137.7,72.5z"/>
<path class="st236" d="M135.4,49.1v0.6c0.4,1.7-0.3,3.4-1.7,4.5c-0.1,0.8-0.4,0.9-1,0.4s-1.2-0.7-0.9-1.7c0.3-1.2,0.6-2.5,0.8-3.7
	C133.6,48.7,134.6,48.7,135.4,49.1L135.4,49.1z"/>
<path class="st280" d="M136.6,57.4c-1,0.1-2.2-0.3-3.1,0.6c-1.3,1.4-1.6-0.7-2.5-0.6c-0.5-1.4-0.7-3-0.6-4.5c1.1,0.8-0.1,3,1.8,3.3
	c0.5,0.1,1.3,0.1,1.6-0.2c0.9-1,2.2-0.5,3.3-0.9C137.2,56,137,56.8,136.6,57.4z"/>
<path class="st241" d="M135.4,49.1h-2.8l-2.2,1.7c-0.2-0.9,0.3-1.8,1.1-2.2C132.8,48.7,134.3,48,135.4,49.1z"/>
<path class="st281" d="M130.5,42.4c0.5-1,0.7-2.4,2.3-1.2c0,0.1-0.1,0.2-0.1,0.4c-1.5,2.9-1.5,2.9,1.8,5.6l-0.2,0.3
	C129.1,47.1,129.1,47.1,130.5,42.4z"/>
<path class="st281" d="M132.8,41.1l2.1,0.1c1.4,0.8,1.9,5.3,0.6,6.5c-0.4,0.4-0.9,0-1.2-0.3l0.1-0.2c0.9-2.4,0.5-4.4-1.8-5.9
	L132.8,41.1z"/>
<path class="st282" d="M137.1,64.1c0.4-0.9,3.1,0,1.7-2.2c1.1,0.5,2.1,1,2.7-0.6c0.3-0.8-0.4-2.6,1.7-1.7c0,0,0.4-0.5,0.4-0.7
	c-0.7-1.9,1.1-1.9,1.9-2.7c0.9,1.6,1.2,3.2-1.1,3.9c-1.6,0.5-0.7,2.2-1.9,3.3C140.4,65.7,139,64.9,137.1,64.1z"/>
<path class="st283" d="M145.5,53.5v-1.1c0.3-0.8-0.9-1.8,0.3-2.4c2.4,0.8,2.2,3,2.5,4.9c0,0.3-0.1,0.6-0.3,0.8c-0.7,0.5-1,0-1.3-0.5
	l0,0C146.1,54.8,145.7,54.2,145.5,53.5z"/>
<path class="st284" d="M145.5,53.5c1.1,0,1.1,0.9,1.1,1.7l-1.1,0.6C145.2,55,144.4,54.3,145.5,53.5z"/>
<path class="st285" d="M145.5,50.2c-0.2,0.7,1,1.5,0,2.2c-0.6-0.4-0.5-1.1-0.6-1.7c-0.1-0.4,0.2-0.9,0.5-1.1h0.1
	c0.1,0.1,0.2,0.3,0.1,0.4S145.6,50.2,145.5,50.2z"/>
<path class="st286" d="M152.2,45.7h1.1c-0.4,2.2-2.6,1.7-3.9,2.5c-0.7,0.2-1.2,0.8-1.2,1.5c-0.1,0.2-0.2,0.4-0.4,0.6
	c-0.5,0.1-1-0.1-1.1-0.6c0,0,0-0.1,0-0.1c-0.3-1.1,0.2-2.2,1.1-2.8C149.4,47.2,150.6,45.9,152.2,45.7z"/>
<path class="st287" d="M146.6,49.6l1.1,0.6c1,0.8,1.6,1.9,1.7,3.1c0,0.3,0.1,0.5,0.1,0.8c-0.1,0.7-0.1,1.4-0.9,1.8
	c-0.5,0-0.7-0.4-0.9-0.7c-0.4-1.8-0.1-3.9-2.2-5c0-0.2,0-0.4,0-0.6L146.6,49.6z"/>
<path class="st288" d="M159.4,58.5c-0.6-0.3-0.8-1.2-1.7-1.1c-0.3-1.1,0.9-0.6,1.1-1.1h2.2C161.3,57.6,160.4,58.1,159.4,58.5z"/>
<path class="st289" d="M168.3,69.7c0,1.4,0.2,2.9-1.1,3.9c0.2-1.8-2.2-2.6-1.7-4.5v-1.7C166.9,67.8,167.3,69.1,168.3,69.7z"/>
<path class="st257" d="M158.9,56.3l-1.1,1.1c-0.6,0.5-1.5,0.9-1.8,1.6c-1.5,3.4-3.7,2.2-6,1.2c0.5-0.7,1.4-0.9,2-1.5
	c1.4-0.8,2.5-2.1,4.1-2.4L158.9,56.3z"/>
<path class="st290" d="M156.1,56.3c-1.1,1.2-2.4,2.2-3.9,2.8c-0.2,0.2-0.5,0.2-0.7,0c0,0,0,0,0,0c-0.2-0.4-0.3-0.8-0.2-1.2
	c0.2-0.5,0.5-1,0.9-1.4c1.8-1.3,3.9-2.2,6.2-2.7c1-0.1,1.5-0.9,2.2-1.5c1.1,1.4,0.5,2.2-0.9,2.8C158.5,55.8,157.1,55.4,156.1,56.3z"
	/>
<path class="st291" d="M160.5,52.4c0.2,1.3-0.6,1.8-1.7,2.2c-0.3-0.2-0.6-0.3-0.8-0.7c0-0.7,0-1.5-0.1-2.2c-0.8-1.5-1.4-2.9-2-4.5
	c-0.2-0.8-0.9-1.8,0.6-2.1l0.6,0.6C157.5,48.4,158.9,50.4,160.5,52.4z"/>
<path class="st292" d="M156.6,45.2c-0.7,2.7,1.6,4.5,2.2,6.7c-0.2,0.2-0.4,0.3-0.7,0.3c-1.4-0.5-1.8-1.8-2.3-3
	c-0.4-1-0.6-2.2-1.6-2.8c-0.2-0.2-0.4-0.4-0.5-0.6C154.6,44.9,155.2,43,156.6,45.2z"/>
<path class="st293" d="M153.8,45.7h0.6c-0.3,2.4-2.3,2.3-4,2.8c-0.6,0.1-1.2-0.2-1.6-0.6c1.3-1.2,3.3-0.8,4.5-2.2L153.8,45.7z"/>
<path class="st294" d="M147.7,68c-0.5,0-0.9,0.2-1.1,0.6c-1,0.8-1.4-0.8-2.2-0.6c-0.5-0.5-0.7-1.3-0.4-2c0.3-0.6,0.8-1.2,1.4-1.5
	c1-0.2,1.8-1.1,1.9-2.1c0.1-1,0.4-2,1.1-2.7c0.4,1.7,3.5,1.4,2.8,3.8c-0.5,1.6-1.9,2.6-2.9,3.9C148,67.5,147.8,67.8,147.7,68z"/>
<path class="st295" d="M148.3,59.7c0.1,1.5-0.5,2.8-0.8,4.2c-0.2,1.1-1,1.5-2,0.8c0.5-1.5,1.8-2.7,1.7-4.5l0,0
	c0.8-1.4-0.2-3,0.6-4.5c0-0.2,0-0.4,0-0.6l0.6,0.6c0.3,0.3,0.3,0.7,0.1,1.1c0,0,0,0-0.1,0.1L148.3,59.7z"/>
<path class="st296" d="M148.3,56.9c0-0.4,0-0.8,0-1.1c0.6-0.4,0.5-1.1,0.6-1.7c0.8-0.1,0.9,0.5,1.1,1c0.2,1.5,0.1,3.1,1.7,4h0.6
	c-0.4,0.8-1.3,1.3-2.2,1.1C149.4,59.1,148.8,58,148.3,56.9z"/>
<path class="st295" d="M144.4,65.8V68c0.1,1.1-0.3,2.1-1.1,2.8c-2.8-0.7-1.3-2.9-1.7-4.5l0.6-0.6c0.2-0.4,0.7-0.6,1.1-0.5
	C143.5,65.7,143.9,65.8,144.4,65.8z"/>
<path class="st297" d="M137.7,103.2c-1.8,0.3-2-1.8-3.3-2.2c-0.6-1.5-0.1-3.1-0.4-4.7c-0.2-1.1,0.6-1.7,1.4-2.1s1.8-0.6,2.4-1.3
	c0.2-0.2,0.4-0.4,0.6-0.6c1.5-0.3,3-0.8,4.5-1.3c2.5-0.4,5.1-0.2,7.6,0.5c0.5-0.1,1,0.3,1.1,0.9c0,0.1,0,0.2,0,0.3
	c0.4,0.7,0.8,1.5,1.1,2.2l0,0c0.4,1.6,0.4,3.4,0,5c-0.4,1-1.4,1.2-2.2,1.7h-1.1c-0.1-0.1-0.1-0.2-0.2-0.4c0.1-0.3,0.2-0.5,0.4-0.7
	c3-2.9,2.6-5-1.3-6.4c-2.4-1-5.2-0.7-7.2,0.8c-2.6,1.9-3.2,3.9-1.5,6.8c0.3,0.5,0.7,0.9,0.4,1.5L137.7,103.2z"/>
<path class="st298" d="M150.5,91.5c-2.6,0.3-5.2-0.5-7.8,0c-0.3,0-0.5-0.3-0.6-0.6C145,89.9,147.8,89.8,150.5,91.5z"/>
<path class="st269" d="M142.1,90.9l0.6,0.6c-1.3,0.5-2.4,1.6-3.9,1.1c-0.4-1.1,0.9-0.6,1.1-1.1l0.6-0.6H142.1z"/>
<path class="st269" d="M152.7,99.8v-5C153.6,96.4,153.6,98.3,152.7,99.8z"/>
<path class="st269" d="M152.7,94.8c-0.5-0.7-1.4-1.1-1.1-2.2C152.5,93,152.9,93.9,152.7,94.8z"/>
<path class="st299" d="M148.9,98.6c0.2,1,0.4,2,0.4,3c-2.9,1.9-6.2,1.8-9.5,1.7c-3.5-4.4-2.7-6.5,2.2-9.7c3.5-2.3,6-0.3,8.6,0.9
	C153.5,95.8,152.6,99.5,148.9,98.6c-2-2-3.7-2-5-1.1c-0.8,0.6-1.4,1.3-0.6,2.3l6.1,1.3c-0.4-1.5,1.5-2.1,1.2-3.5
	C150.4,96.2,149.3,96.3,148.9,98.6z"/>
<path class="st269" d="M138.2,92.6c-0.1,0.3-0.2,0.9-0.4,0.9c-4.1,1.2-3.6,4.3-3.5,7.4c-1.1-1.7-0.8-3.8-0.9-5.5
	c0-2.1,2.7-2,4.2-2.9C137.9,92.4,138,92.3,138.2,92.6z"/>
<path class="st298" d="M138.2,92.6h-0.6c0.4-0.8,1.3-1.3,2.2-1.1l-1.1,1.1H138.2z"/>
<path class="st300" d="M133.7,69.8h-0.5c0-0.4-0.8-0.7-0.2-1.2c1-1.1,1.1-2.7,1.9-3.8c0.8-0.2,1.1,0.6,1.8,0.7
	c2.1,0.5,2.9,1.6,2.1,3.8c-0.9,2.5-2.5,1.4-4,1C134.4,70.1,134,69.9,133.7,69.8z"/>
<path class="st301" d="M133.7,69.8c0.7,0.1,1.4,0.2,2.1,0.4c1.5,0.7,2.1-0.1,2.6-1.4s0.3-2-1.1-2.7c-1.7-1-2.6-1-3.1,1.1
	c-0.1,0.7-0.5,1.2-1.2,1.4c-0.1-1.7,1.5-2.8,1.3-4.4c1.8,0.1,3.2,1.6,5,1.8c0.4,2.3,0.3,4.4-2.2,5.6
	C136.1,70.6,134.4,71.2,133.7,69.8z"/>
<path class="st302" d="M144.4,65.8c-0.6,0.3-1.1,0.4-1.1-0.6c1.9-1.2,2.8-3.2,3.9-5c0.6,1.7-0.1,3.6-1.7,4.5
	C145.1,65.1,144.7,65.4,144.4,65.8z"/>
<path class="st302" d="M147.7,55.8c-0.2,1.5,0.6,3.1-0.6,4.5c0.1-1.7-0.1-3.4-0.6-5L147.7,55.8z"/>
<path class="st303" d="M132.6,41.4c3.6,1.4,4.1,3.1,1.8,5.9c-0.5-0.1-1-0.3-1.5-0.6c-0.8-0.5-2.6,0.1-2.3-1.3S130.3,41.9,132.6,41.4
	z"/>
<path class="st304" d="M148.8,47.9h1.7c0.3,0.3,0.4,0.6,0.2,1c-0.1,0.2-0.3,0.4-0.5,0.5c-0.5,0.3-1,0.6-1.5,0.8s-0.8-0.3-1.1-0.7
	C147.1,48.4,147.7,48,148.8,47.9z"/>
<path class="st305" d="M147.7,49.6l1.1,0.6l0.3,0.2c0.5,0.6,0.8,1.4,0.7,2.2c-0.1,0.5-0.3,1.1-1,0.9l-1.2-3.3L147.7,49.6z"/>
<path class="st306" d="M148.9,53.5c0.4-0.3,0.6-0.7,0.5-1.1c0.9-0.2,1,0.5,1.4,1c0.1,0.2,0.2,0.5,0.2,0.7c0.1,0.9,0.1,1.9,1,2.5
	l0.2,0.3c0,0.5-0.2,0.9-0.6,1.1c-1,1.1-1.5,0.5-1.9-0.5c-0.3-0.7,0.2-1.6-0.3-2.3c0-0.5-0.2-0.9-0.5-1.2
	C148.8,53.9,148.8,53.7,148.9,53.5z"/>
<path class="st307" d="M158.3,54.1l0.6,0.5c-2.6-0.3-4.3,1.9-6.6,2.3h-0.1c-0.2-0.7,0.2-1.1,0.6-1.5C154.5,54.6,156,52.7,158.3,54.1
	z"/>
<path class="st308" d="M149.4,55.2c0.7,0.5,0.5,1.2,0.6,1.9c0.1,1.1,0.7,1.3,1.6,0.9v1.1C148.5,59.2,149.6,56.8,149.4,55.2z"/>
<path class="st309" d="M158.3,54.1c-2.1-0.4-3.6,1.4-5.6,1.7c-0.2-0.2-0.2-0.4-0.2-0.7c0.3-0.6,0.7-1,1.2-1.4
	c0.4-0.3,0.9-0.5,1.3-0.7c1.1-0.3,2.1-0.7,3.2-1.2h0.6C158.9,52.6,158.7,53.4,158.3,54.1z"/>
<path class="st310" d="M158.3,51.9c-0.5,1.7-2.1,1.5-3.3,1.7c-0.1-0.2-0.2-0.5-0.1-0.7c1-3.3,0.2-4.3-3-3.6
	c-0.4,0.2-0.9,0.1-1.3-0.1V48c1.5-0.4,3-0.8,3.9-2.2c1.3,0.1,1.4,1.2,1.7,2.2C156.5,49.4,157.2,50.7,158.3,51.9z"/>
<path class="st311" d="M148.4,95.3c1.2,0.5,3.1,0,3.1,2c0,1.8-1.3,3.3-3,3.6c-1.3,0.2-2.6,0.2-3.9,0c-1.3-0.1-2.5-0.5-2.8-1.8
	c-0.4-1.5,1-2.2,2-2.6C145.4,96,146.9,95.6,148.4,95.3z"/>
<path class="st312" d="M150.5,49.1c0.8-0.3,1.6-0.6,2.3-0.9s2.1-1.3,2.4,0.3c0.2,1.4,3,3.1-0.2,4.4c-0.6,0.5-1.3,1-2,1.5
	c-2.2-0.8-3.4-3.1-3-5.4L150.5,49.1z"/>
<path class="st313" d="M150,49.1c1,1.7,0.7,4.3,3.3,5c0.2-0.2,0.4-0.2,0.6,0l-1.1,1.1c-2.9,2.3-1.4-1.2-2.2-1.7l0,0
	c-0.4-1.2-0.9-2.3-1.7-3.3l0,0c-0.1-0.5,0.3-1,0.9-1.1C149.8,49.1,149.9,49.1,150,49.1z"/>
<path class="st304" d="M148.8,50.2c1.2,0.7,1.8,2,1.7,3.3l-1.1-1.1L148.8,50.2z"/>
<path class="st304" d="M150.5,53.5c0.9,0.3,0.1,3,2.2,1.7c0,0.2,0,0.4,0,0.6c-0.2,0.3-0.4,0.7-0.6,1.1
	C149.4,56.8,150.9,54.7,150.5,53.5z"/>
<path class="st314" d="M153.9,54.1h-0.6c0.3-0.7,1-1.1,1.7-1.1v0.6C154.7,54,154.3,54.2,153.9,54.1z"/>
</svg>
