<svg id="Layer_1" data-name="Layer 1" xmlns="http://www.w3.org/2000/svg" viewBox="0 0 280.36 150.96"><defs><style>.cls-1,.cls-7,.cls-8{fill:#fff;}.cls-1{stroke:red;}.cls-1,.cls-2,.cls-3,.cls-4,.cls-5,.cls-6,.cls-7,.cls-8{stroke-linecap:round;stroke-linejoin:round;}.cls-1,.cls-8{stroke-width:0.5px;}.cls-2{fill:none;}.cls-2,.cls-8{stroke:#000;}.cls-3{fill:#2a66ff;}.cls-3,.cls-4,.cls-5,.cls-6,.cls-7{stroke:#fff;}.cls-4{fill:#ff3fab;}.cls-5{fill:#ff3f3f;}.cls-6{fill:#00d417;}</style></defs><polygon class="cls-1" points="260.5 5.84 260.5 17.01 270.18 22.6 279.86 17.01 279.86 5.84 270.18 0.25 260.5 5.84"/><circle class="cls-1" cx="260.5" cy="12.41" r="8.29"/><path class="cls-2" d="M256.23,14.42c.44-.27.44-.27,1.38.25" transform="translate(-0.63 0.32)"/><polygon class="cls-3" points="120.23 11.57 120.23 31.95 137.88 42.14 155.52 31.95 155.52 11.57 137.88 1.39 120.23 11.57"/><polygon class="cls-4" points="136.88 40.99 136.88 61.37 154.52 71.55 172.17 61.37 172.17 40.99 154.52 30.8 136.88 40.99"/><polygon class="cls-5" points="154.52 31.38 154.52 51.76 172.17 61.95 189.82 51.76 189.82 31.38 172.17 21.19 154.52 31.38"/><polygon class="cls-6" points="172.17 40.99 172.17 61.37 189.82 71.55 207.47 61.37 207.47 40.99 189.82 30.8 172.17 40.99"/><polygon class="cls-7" points="189.82 71.46 189.82 91.84 207.47 102.03 225.11 91.84 225.11 71.46 207.47 61.27 189.82 71.46"/><polygon class="cls-8" points="207.47 40.99 207.47 61.37 225.11 71.55 242.76 61.37 242.76 40.99 225.11 30.8 207.47 40.99"/><path class="cls-2" d="M250.3,90.6a11.27,11.27,0,0,1,1,2" transform="translate(-0.63 0.32)"/><path class="cls-2" d="M261.86,109.43a13.16,13.16,0,0,1,1.07,2.2c.07.32.05.62.1.92" transform="translate(-0.63 0.32)"/><path class="cls-2" d="M165.17,88.52a3.22,3.22,0,0,0-.52,2.28,4.76,4.76,0,0,1-.58,2.27" transform="translate(-0.63 0.32)"/><path class="cls-2" d="M162,84.89a5.84,5.84,0,0,0-.78,1.29" transform="translate(-0.63 0.32)"/><path class="cls-2" d="M147.83,99.76a3.87,3.87,0,0,0-.72,2.33,4.26,4.26,0,0,1-.58,1.89" transform="translate(-0.63 0.32)"/><path class="cls-2" d="M131.21,105.67l-1,1.62" transform="translate(-0.63 0.32)"/><path class="cls-2" d="M121,116.9a4.63,4.63,0,0,0-.84,2.92" transform="translate(-0.63 0.32)"/><path class="cls-2" d="M145.17,96.18a8.47,8.47,0,0,1-.84,1.5" transform="translate(-0.63 0.32)"/><path class="cls-2" d="M133.42,109a5.12,5.12,0,0,0-1,3,1.17,1.17,0,0,1-.25.72" transform="translate(-0.63 0.32)"/><path class="cls-2" d="M234.2,67.48a4.84,4.84,0,0,0,1,1.29c3.67,3.94,7.27,7.93,10.95,11.85.57.59,1.08,1.29,1.68,1.82A15,15,0,0,1,249.52,84" transform="translate(-0.63 0.32)"/><path class="cls-2" d="M234.65,74.3c.37.61.53,1.32.85,2" transform="translate(-0.63 0.32)"/><path class="cls-2" d="M248.94,97.16a8.5,8.5,0,0,1,1.23,4.87" transform="translate(-0.63 0.32)"/><path class="cls-2" d="M211.73,41.25c.12.56.58.89.92,1.29,3.27,3.77,6.79,7.32,10.12,11.05,1.47,1.65,2.9,3.33,4.42,4.93a1.19,1.19,0,0,1,.26.84q.17,3.48.44,7c.11,1.34.15,2.69.2,4a2,2,0,0,1-.13.52" transform="translate(-0.63 0.32)"/><path class="cls-2" d="M262.9,103.46c.28.75.78,1.39,1,2.14" transform="translate(-0.63 0.32)"/><path class="cls-2" d="M272.25,119.3c.35.61.68,1.22,1.05,1.81a1,1,0,0,1,.12.53" transform="translate(-0.63 0.32)"/><path class="cls-2" d="M186.34,61.31a6.53,6.53,0,0,0-.05,1.82c.05,1.56-.13,3.12-.16,4.68-.07,2.81-.16,5.63-.27,8.44-.09,2.1-.09,4.2-.24,6.3-.19,2.85-.17,5.72-.38,8.57a.57.57,0,0,0,0,.13c0,2-.16,3.94-.19,5.91a2.89,2.89,0,0,0,1,2" transform="translate(-0.63 0.32)"/><path class="cls-2" d="M214.07,44.43c0,1.19,0,2.38.08,3.57,0,.52.09,1,.09,1.56,0,2.19.23,4.37.15,6.56a1.89,1.89,0,0,1-.06.71" transform="translate(-0.63 0.32)"/><path class="cls-2" d="M212.25,60.47c-.27,0-.26-.14-.26-.33,0-1.19,0-2.38,0-3.57a9.32,9.32,0,0,1,0-2A31.3,31.3,0,0,1,214.32,57a.68.68,0,0,1,.19.45c0,1.4,0,2.81,0,4.22s0,3,.22,4.55a6.27,6.27,0,0,0,.07,1.36c.07.21-.16.4-.29.59s-.37.58-.08.9a5.59,5.59,0,0,1,1,2.53" transform="translate(-0.63 0.32)"/><path class="cls-2" d="M248.42,97.55a12.69,12.69,0,0,0,.2,3.37c.22,2.78.61,5.54.86,8.32a30.63,30.63,0,0,0,.37,3.57.44.44,0,0,1-.13.39" transform="translate(-0.63 0.32)"/><path class="cls-2" d="M228.22,71.38a16.06,16.06,0,0,0,.1,2.4c0,.63.08,1.25.1,1.88.08,1.71.24,3.42.26,5.13a1.39,1.39,0,0,1-.13.78" transform="translate(-0.63 0.32)"/><path class="cls-2" d="M238,96c.15,1,0,2,.12,3.05a4.67,4.67,0,0,0,.13,1.17,19.36,19.36,0,0,1,.39,2.4" transform="translate(-0.63 0.32)"/><path class="cls-2" d="M261.86,97.22a9.85,9.85,0,0,0-.93-1,.37.37,0,0,0-.12.43c.18,1.19.34,2.38.46,3.57a5.74,5.74,0,0,1,.14,1.37c0,.12,0,.24-.13.32" transform="translate(-0.63 0.32)"/><path class="cls-2" d="M249.78,84.5c1.28,1.34,2.46,2.77,3.77,4.09.8.82,1.56,1.69,2.34,2.53" transform="translate(-0.63 0.32)"/><path class="cls-2" d="M248.16,82.81c.09,1.62.2,3.25.38,4.87a1.35,1.35,0,0,1-.25,1.23" transform="translate(-0.63 0.32)"/><path class="cls-2" d="M148.61,88.46c-.17,1.62-.32,3.25-.53,4.87a1.33,1.33,0,0,0,.21,1.1" transform="translate(-0.63 0.32)"/><path class="cls-2" d="M165.49,76.05c0,.21.25.38.19.59a27.33,27.33,0,0,0-.4,3.83c-.08.66-.4,1.43.15,2.08" transform="translate(-0.63 0.32)"/><path class="cls-2" d="M134.19,98.26a9.89,9.89,0,0,1-.26,2.66c-.11.89-.25,1.78-.39,2.67,0,.24.13.39.2.58" transform="translate(-0.63 0.32)"/><path class="cls-2" d="M214.59,57.48c.36.1.55.41.77.66.88,1,2,1.66,2.87,2.71a2.4,2.4,0,0,0,1,.78c.43.17.51.62.77.92s.3.45.53.5c.63.14.67.73.88,1.14.11.23-.14.69-.37.87-.53.39-.41.9-.37,1.38a11.21,11.21,0,0,0,1,3.77c.14.33,0,.7-.12,1" transform="translate(-0.63 0.32)"/><path class="cls-2" d="M267.25,128.07c.09.06.13.17.26.2.95.24,1.09.38,1.16,1.36a1.17,1.17,0,0,0,.4.9,2.77,2.77,0,0,0-.05,2,3.86,3.86,0,0,1-.34,3.25" transform="translate(-0.63 0.32)"/><path class="cls-2" d="M122.05,107.16a21.77,21.77,0,0,1-.33,2.27c-.1.78-.26,1.56-.38,2.34a.86.86,0,0,0,.19.78" transform="translate(-0.63 0.32)"/><path class="cls-2" d="M271.34,107.29c-.11,0-.18,0-.14.26.27,1.55.4,3.13.72,4.68,0,0-.08.12-.12.19" transform="translate(-0.63 0.32)"/><path class="cls-2" d="M196.66,65.47c-1.34-.15-2.68-.2-4-.38a1.36,1.36,0,0,0-1,.12" transform="translate(-0.63 0.32)"/><path class="cls-2" d="M262,112.94a26.48,26.48,0,0,0,.48,3.76c.13,1,.22,2,.43,3" transform="translate(-0.63 0.32)"/><path class="cls-2" d="M211.6,43.07c0,1.43.07,2.85.15,4.28a18.82,18.82,0,0,1,.06,2.6.62.62,0,0,0,.25.52" transform="translate(-0.63 0.32)"/><path class="cls-2" d="M191.6,65.73a1.47,1.47,0,0,0,1,.31c1.17-.05,2.33.23,3.51.14a.37.37,0,0,1,.39.13" transform="translate(-0.63 0.32)"/><path class="cls-2" d="M279.91,129.69c.1,1.31.32,2.6.52,3.9a2,2,0,0,1,0,1" transform="translate(-0.63 0.32)"/><path class="cls-2" d="M186.92,88.26s0,0,0,.07c-.39.56,0,1.22-.25,1.82a.63.63,0,0,0,.58.84c.47.07.77.59,1.3.52" transform="translate(-0.63 0.32)"/><path class="cls-2" d="M220,58.52a11.79,11.79,0,0,1,1.29,3.77,1.14,1.14,0,0,1-.25,1" transform="translate(-0.63 0.32)"/><path class="cls-2" d="M186.15,60.86c0,.16,0,.44.18.37.49-.17.7.16,1,.41,1,.87,2,1.72,3,2.6.35.3.76.6.66,1.16" transform="translate(-0.63 0.32)"/><path class="cls-2" d="M236.6,79a5.61,5.61,0,0,0-.71,0,1.68,1.68,0,0,1-1.82-.79,1.27,1.27,0,0,0-1.82-.52c-.07,0-.17,0-.26,0" transform="translate(-0.63 0.32)"/><path class="cls-2" d="M262.9,120c.25,1.42.39,2.87.52,4.29.06.61.2.83.65,1" transform="translate(-0.63 0.32)"/><path class="cls-2" d="M222.38,60.08c.25,1.27,1.08,2.31,1.37,3.57.08.37.21.74.32,1.1" transform="translate(-0.63 0.32)"/><path class="cls-2" d="M190.37,65.92c-.23.37-.09.78-.14,1.17-.12,1.13,0,2.26-.12,3.38" transform="translate(-0.63 0.32)"/><path class="cls-2" d="M251.41,113.2c.11.47-.12.94,0,1.43.15.73.8.92,1.27,1.28s.66.43.38.93c-.07.13,0,.3.11.46s.1.51.12.77c.1.89-.19,1.26-1,1.42-.15,0-.31,0-.45.07" transform="translate(-0.63 0.32)"/><path class="cls-2" d="M227.51,59a19.16,19.16,0,0,1,1.63,1.62.7.7,0,0,1,.19.65,4,4,0,0,0,.71,2.6" transform="translate(-0.63 0.32)"/><path class="cls-2" d="M213,77.61a14.43,14.43,0,0,0,2.08.13" transform="translate(-0.63 0.32)"/><path class="cls-2" d="M260,127.1c0-.07-.07-.16-.13-.2a2.12,2.12,0,0,1-.87-1.49,7.28,7.28,0,0,0-1.35-2.33,1.83,1.83,0,0,0-1.74-.53" transform="translate(-0.63 0.32)"/><path class="cls-2" d="M188.48,93.72a2.76,2.76,0,0,0-.91-.07" transform="translate(-0.63 0.32)"/><path class="cls-2" d="M184.78,114.11h-.84" transform="translate(-0.63 0.32)"/><path class="cls-2" d="M234.33,92.16h-.91" transform="translate(-0.63 0.32)"/><path class="cls-2" d="M213.48,99.82h-.84" transform="translate(-0.63 0.32)"/><path class="cls-2" d="M235.63,105h-.91" transform="translate(-0.63 0.32)"/><path class="cls-2" d="M196,126.32h-.91" transform="translate(-0.63 0.32)"/><path class="cls-2" d="M196.15,111.77h-.91" transform="translate(-0.63 0.32)"/><path class="cls-2" d="M213.35,93.91h-.84" transform="translate(-0.63 0.32)"/><path class="cls-2" d="M227.77,89.76l-3.18-.52" transform="translate(-0.63 0.32)"/><path class="cls-2" d="M196.54,76.51c-1.53,0-3-.24-4.55-.26-.09,0-.18-.08-.26-.06a3,3,0,0,1-2.81-.9,22.27,22.27,0,0,0-2.9-2.22" transform="translate(-0.63 0.32)"/><path class="cls-2" d="M231,71.83a12.5,12.5,0,0,0-1.37,0,1.78,1.78,0,0,1-1.49-.66c-1.16-1.13-2.19-2.39-3.38-3.5-.11-.11-.2-.25-.39-.2" transform="translate(-0.63 0.32)"/><path class="cls-2" d="M264.33,125.54c.56.36,1,.84,1.54,1.25s.25.89.33,1.35c.17.94.28,1.9.4,2.85,0,.22.2.32.33.46" transform="translate(-0.63 0.32)"/><path class="cls-2" d="M224.65,73.91c0,.52.29,1,0,1.57a.8.8,0,0,1-.8.51" transform="translate(-0.63 0.32)"/><path class="cls-2" d="M239.85,90.73a3.14,3.14,0,0,0-.22,1.69c.05,1.31.32,2.59.4,3.9a4,4,0,0,0,.34,1c.09.28.3.23.52.2a2.5,2.5,0,0,1,2.38,1.3,29.82,29.82,0,0,0,.93,2.91,1.06,1.06,0,0,1,.06.46" transform="translate(-0.63 0.32)"/><path class="cls-2" d="M225.69,80.34c.11.12.3,0,.4.25A3,3,0,0,0,228,82.16" transform="translate(-0.63 0.32)"/><path class="cls-2" d="M185.11,85c.94-.07,1.51.74,2.33,1a4.73,4.73,0,0,0,1.56.49" transform="translate(-0.63 0.32)"/><path class="cls-2" d="M190,72.42c0,1.06.06,2.12,0,3.18,0,.16-.12.25-.14.39" transform="translate(-0.63 0.32)"/><path class="cls-2" d="M263.68,125.21a.92.92,0,0,0-.06.59c.19,1.4.4,2.81.57,4.22a4.08,4.08,0,0,1-.13,1.62c-.32,0-.55-.38-.9-.26" transform="translate(-0.63 0.32)"/><path class="cls-2" d="M180.17,116.06a10.09,10.09,0,0,1,.26,4" transform="translate(-0.63 0.32)"/><path class="cls-2" d="M212.06,60.53a5.06,5.06,0,0,0,0,1.82c.09.61.05,1.22.19,1.83.08.39.26.75.34,1.15a12,12,0,0,1,0,2.87c0,.38-.37.72-.31,1.17a21.41,21.41,0,0,1,.22,2.53,1.9,1.9,0,0,1-.15.78,1.22,1.22,0,0,0,.06,1.3" transform="translate(-0.63 0.32)"/><path class="cls-2" d="M235.56,90a2.33,2.33,0,0,1-1.16-.47,1.23,1.23,0,0,0-.85-.18" transform="translate(-0.63 0.32)"/><path class="cls-2" d="M267,116.45c-.25.56.05,1.12,0,1.68a17.35,17.35,0,0,0,.45,2.54c.16,1.39.45,2.77.59,4.16a9.15,9.15,0,0,1,.11,3.5" transform="translate(-0.63 0.32)"/><path class="cls-2" d="M212.57,74.17c.09,1.06.14,2.13.29,3.18a6.61,6.61,0,0,1,0,.78,2.12,2.12,0,0,0,.2,1.11" transform="translate(-0.63 0.32)"/><path class="cls-2" d="M235.56,85.28a1.25,1.25,0,0,0-.17,1.16,9.72,9.72,0,0,0,.24,2,2.17,2.17,0,0,1,0,1c0,1.26.42,2.5.16,3.76.49.48,0,1.1.25,1.63a1.36,1.36,0,0,1-.06.84s0,0-.06,0l-.06-.06" transform="translate(-0.63 0.32)"/><path class="cls-2" d="M249.72,117.42c.44,0,.32.39.32.65a2.73,2.73,0,0,0,1.17,2.27" transform="translate(-0.63 0.32)"/><path class="cls-2" d="M170,86a4.13,4.13,0,0,1-.2,3.18" transform="translate(-0.63 0.32)"/><path class="cls-2" d="M178.94,79.89c.75.92.19,2,.31,3,0,.12-.2.26-.31.39" transform="translate(-0.63 0.32)"/><path class="cls-2" d="M174.39,83.13a1.88,1.88,0,0,1,.23,1.44c-.15.56,0,1.2-.29,1.74" transform="translate(-0.63 0.32)"/><path class="cls-2" d="M165.69,88.85a3.89,3.89,0,0,1-.13,3.05" transform="translate(-0.63 0.32)"/><path class="cls-2" d="M177.38,81a3.74,3.74,0,0,1,.06,3.12" transform="translate(-0.63 0.32)"/><path class="cls-2" d="M212.12,50.6c0,.56,0,1.12,0,1.69a.53.53,0,0,0,.09.32c.48.48.23.92-.06,1.37a.84.84,0,0,0-.13.58" transform="translate(-0.63 0.32)"/><path class="cls-2" d="M180.63,79a2.11,2.11,0,0,1,.2,1.88c-.12.37.12.8-.14,1.17" transform="translate(-0.63 0.32)"/><path class="cls-2" d="M167.12,87.94c.28.3.19.68.19,1a5.3,5.3,0,0,1-.32,2" transform="translate(-0.63 0.32)"/><path class="cls-2" d="M256.8,122.68l-.33.65" transform="translate(-0.63 0.32)"/><path class="cls-2" d="M237.64,104.37,237,105.6c-.05.1-.15.25-.12.32.39.88.21,2,.9,2.73" transform="translate(-0.63 0.32)"/><path class="cls-2" d="M142.44,103.72c.55,1,.08,2-.19,3" transform="translate(-0.63 0.32)"/><path class="cls-2" d="M172.83,84a2.09,2.09,0,0,1,.25,1.75c-.13.41.1.86-.18,1.23" transform="translate(-0.63 0.32)"/><path class="cls-2" d="M159.07,93.13c.28.31.19.69.19,1a5.66,5.66,0,0,1-.26,1.88" transform="translate(-0.63 0.32)"/><path class="cls-2" d="M157.77,94a3.59,3.59,0,0,1-.2,2.92" transform="translate(-0.63 0.32)"/><path class="cls-2" d="M171.4,85.08a1.58,1.58,0,0,1,.22,1.17,4.73,4.73,0,0,1-.28,1.75" transform="translate(-0.63 0.32)"/><path class="cls-2" d="M234.07,67.22a10.41,10.41,0,0,0-1.44-1.67c-.37-.39-.82,0-1.22,0" transform="translate(-0.63 0.32)"/><path class="cls-2" d="M149.2,99.5c.5.59.11,1.26.09,1.88a2,2,0,0,1-.29,1" transform="translate(-0.63 0.32)"/><path class="cls-2" d="M140.36,105.21c.36.4.19.87.12,1.3A2.48,2.48,0,0,1,140,108" transform="translate(-0.63 0.32)"/><path class="cls-2" d="M135.17,108.39a3.34,3.34,0,0,1-.2,2.86" transform="translate(-0.63 0.32)"/><path class="cls-2" d="M141.4,104.56c.45.59.13,1.22,0,1.82,0,.27.18.75-.36.84" transform="translate(-0.63 0.32)"/><path class="cls-2" d="M244,108.91a7.66,7.66,0,0,1-.15,2,5.69,5.69,0,0,0-.14,2.07,5,5,0,0,1-.08,1.49.82.82,0,0,0,.18.85" transform="translate(-0.63 0.32)"/><path class="cls-2" d="M180.5,130a.74.74,0,0,1,.21.72c-.18.79-.24,1.61-.42,2.4s.39,1.24.47,1.88c0,.11,0,.22.06.33" transform="translate(-0.63 0.32)"/><path class="cls-2" d="M125.82,114.3c.56,1,.1,1.88-.2,2.79" transform="translate(-0.63 0.32)"/><path class="cls-2" d="M150.36,98.85c.53.52.1,1.13.11,1.69a2.25,2.25,0,0,1-.3,1.1" transform="translate(-0.63 0.32)"/><path class="cls-2" d="M136.21,107.74a3.15,3.15,0,0,1-.26,2.8" transform="translate(-0.63 0.32)"/><path class="cls-2" d="M168.55,87.09c.4.36.21.84.17,1.23a3.84,3.84,0,0,1-.24,1.5" transform="translate(-0.63 0.32)"/><path class="cls-2" d="M128.55,112.68c.45.51.15,1.08.11,1.62a7.34,7.34,0,0,1-.24,1.11" transform="translate(-0.63 0.32)"/><path class="cls-2" d="M127.64,113.2c.53.61.13,1.3.09,1.94a1.51,1.51,0,0,1-.22.79" transform="translate(-0.63 0.32)"/><path class="cls-2" d="M129.45,112.22c.59.57.06,1.22.1,1.82a1.66,1.66,0,0,1-.29.85" transform="translate(-0.63 0.32)"/><path class="cls-2" d="M143.48,103a3.09,3.09,0,0,1-.06,2.67" transform="translate(-0.63 0.32)"/><path class="cls-2" d="M160.36,92.35A3.73,3.73,0,0,1,160.3,95" transform="translate(-0.63 0.32)"/><path class="cls-2" d="M221.54,64.37c1,.42,1.35,1.59,2.2,2.21.06,0-.13.16-.19.25" transform="translate(-0.63 0.32)"/><path class="cls-2" d="M156.47,94.82a3.29,3.29,0,0,1-.07,2.66" transform="translate(-0.63 0.32)"/><path class="cls-2" d="M228.81,85.92a2.83,2.83,0,0,0,1.62.26h.78" transform="translate(-0.63 0.32)"/><path class="cls-2" d="M120.75,117.61a1.28,1.28,0,0,1,.13,1.11c-.16.49-.08,1-.39,1.49" transform="translate(-0.63 0.32)"/><path class="cls-2" d="M137.25,107.29c.31.34.19.72.13,1.1a2.83,2.83,0,0,1-.39,1.5" transform="translate(-0.63 0.32)"/><path class="cls-2" d="M121,103.72c.11.22.33.39.18.72a.75.75,0,0,0,.1.85,1.39,1.39,0,0,1,.08,1" transform="translate(-0.63 0.32)"/><path class="cls-2" d="M211.86,43.46c.17.85.1,1.73.2,2.59" transform="translate(-0.63 0.32)"/><path class="cls-2" d="M122.44,116.64a1.08,1.08,0,0,1,.15.85,10.83,10.83,0,0,1-.41,1.68" transform="translate(-0.63 0.32)"/><path class="cls-2" d="M148,100.28a1.17,1.17,0,0,1,.19,1.1c-.16.46,0,1-.26,1.43" transform="translate(-0.63 0.32)"/><path class="cls-2" d="M154,96.51a3.27,3.27,0,0,1-.06,2.53" transform="translate(-0.63 0.32)"/><path class="cls-2" d="M151.53,98.07c.57.64,0,1.34.11,2a.55.55,0,0,1-.17.52" transform="translate(-0.63 0.32)"/><path class="cls-2" d="M126.73,113.91c.57.57,0,1.22.09,1.82a1.29,1.29,0,0,1-.22.72" transform="translate(-0.63 0.32)"/><path class="cls-2" d="M124.13,115.6c.06.18.23.3.2.52a5.78,5.78,0,0,1-.46,2" transform="translate(-0.63 0.32)"/><path class="cls-2" d="M125,114.89c.47.67-.05,1.34,0,2,0,.11.07.38-.18.45" transform="translate(-0.63 0.32)"/><path class="cls-2" d="M223.09,83.39a11.88,11.88,0,0,0,1.48-.93,2,2,0,0,1,.58.93c.13.49-.09.84-.69.65l-.46-.13" transform="translate(-0.63 0.32)"/><path class="cls-2" d="M254.85,105.54c.1,1,.11,2.08.31,3.12s.24,1.81.33,2.72c0,.17.1.44-.25.39" transform="translate(-0.63 0.32)"/><path class="cls-2" d="M133.22,109.69c.47.59.14,1.21.06,1.82a5.7,5.7,0,0,0-.06.58" transform="translate(-0.63 0.32)"/><path class="cls-2" d="M256.73,118.59c.4.28.42.85,1,1.09.28,0,.44-.21.2-.71s-.53-1.34-1.38-1.5l-.26,0a.28.28,0,0,0-.22.09,12.67,12.67,0,0,0,.74,4.59,2.26,2.26,0,0,1,0,.45" transform="translate(-0.63 0.32)"/><path class="cls-2" d="M177,119.5c-.41-.38-.3-.91-.37-1.37a.41.41,0,0,1,.43-.52c.32,0,.55.16.51.46a6.24,6.24,0,0,0,.34,2" transform="translate(-0.63 0.32)"/><path class="cls-2" d="M237.9,86.64a3,3,0,0,0-.48,2.34,20.41,20.41,0,0,1,.22,2.59c0,.09,0,.19,0,.26.45,1,0,2,.17,3.06a8,8,0,0,0,.21,1" transform="translate(-0.63 0.32)"/><path class="cls-2" d="M123.22,116.06c.42.48.21,1,.11,1.55a2.94,2.94,0,0,1-.17.78" transform="translate(-0.63 0.32)"/><path class="cls-2" d="M159.46,125.41a10.8,10.8,0,0,1,.52,2" transform="translate(-0.63 0.32)"/><path class="cls-2" d="M127.38,98.33c.25.26.67.23.93.52-.17.4,0,1-.42,1.21-.28.16-.44-.16-.58-.37" transform="translate(-0.63 0.32)"/><path class="cls-2" d="M235.82,101.44a4.69,4.69,0,0,1,1,1.38,3.73,3.73,0,0,0,.41.57" transform="translate(-0.63 0.32)"/><path class="cls-2" d="M255.17,118a1.76,1.76,0,0,0-.36,1.69,10.81,10.81,0,0,1,.3,2.6.12.12,0,0,0,.06.13" transform="translate(-0.63 0.32)"/><path class="cls-2" d="M240.5,97.55c-.39.5-.17,1.08-.17,1.62a10.64,10.64,0,0,0,.1,1.11,4.75,4.75,0,0,1-1.1,3.37" transform="translate(-0.63 0.32)"/><path class="cls-2" d="M175.82,82a3.79,3.79,0,0,1,0,3.32" transform="translate(-0.63 0.32)"/><path class="cls-2" d="M235.37,95.41a5.25,5.25,0,0,0-1.89.19" transform="translate(-0.63 0.32)"/><path class="cls-2" d="M239.59,107a14,14,0,0,0-2.21.46" transform="translate(-0.63 0.32)"/><path class="cls-2" d="M123.54,96.57c-.08.48-.18,1-.25,1.43-.05.33-.11.58-.52.46" transform="translate(-0.63 0.32)"/><path class="cls-2" d="M261.8,110.34a2.34,2.34,0,0,0,0,1.23,5.43,5.43,0,0,1,.1,1" transform="translate(-0.63 0.32)"/><path class="cls-2" d="M152.7,97.29a1,1,0,0,1,.27.91,3.71,3.71,0,0,1-.4,1.88" transform="translate(-0.63 0.32)"/><path class="cls-2" d="M189.85,89.63,188,89.24" transform="translate(-0.63 0.32)"/><path class="cls-2" d="M269.4,127c.08.06.24.12.24.19,0,1,.68,1.76.6,2.73" transform="translate(-0.63 0.32)"/><path class="cls-2" d="M122.44,102.68l-.39,2.08" transform="translate(-0.63 0.32)"/><path class="cls-2" d="M138.29,106.51c.32.36.18.78.12,1.17a2.82,2.82,0,0,1-.45,1.62" transform="translate(-0.63 0.32)"/><path class="cls-2" d="M180.82,104.63v2.07" transform="translate(-0.63 0.32)"/><path class="cls-2" d="M244.46,103.07a.86.86,0,0,0-.13.52c.24,1.27,0,2.56.19,3.83a6.3,6.3,0,0,0,.26,1" transform="translate(-0.63 0.32)"/><path class="cls-2" d="M229.39,78.46l2,.26" transform="translate(-0.63 0.32)"/><path class="cls-2" d="M253.29,120.6a5.68,5.68,0,0,0-1.3-.13" transform="translate(-0.63 0.32)"/><path class="cls-2" d="M251.8,119.24c0-.2-.18-.41,0-.58.43-.43.21-.85.07-1.31a2.68,2.68,0,0,1-.07-1.81" transform="translate(-0.63 0.32)"/><path class="cls-2" d="M155.17,95.54a3.39,3.39,0,0,1-.13,3" transform="translate(-0.63 0.32)"/><path class="cls-2" d="M252.77,113.07l.2,2" transform="translate(-0.63 0.32)"/><path class="cls-2" d="M122.18,95.8c.06.18.22.2.39.27.55.22.61.6.19,1a1.45,1.45,0,0,1-.32.2" transform="translate(-0.63 0.32)"/><path class="cls-2" d="M256.21,103.91a1.73,1.73,0,0,0-.06,2" transform="translate(-0.63 0.32)"/><path class="cls-2" d="M121.53,117.09a2.75,2.75,0,0,1-.32,2.6" transform="translate(-0.63 0.32)"/><path class="cls-2" d="M123.35,93.78c.57-.91.46-1.2-.58-1.56" transform="translate(-0.63 0.32)"/><path class="cls-2" d="M255.6,112.87a2.38,2.38,0,0,1,.17,1.37,1,1,0,0,0,.18.91s.09.15.06.19c-.47.75.08,1.39.2,2.08" transform="translate(-0.63 0.32)"/><path class="cls-2" d="M162.57,124.3a6,6,0,0,0,.26,1.69" transform="translate(-0.63 0.32)"/><path class="cls-2" d="M171,105.15l-1.95,1" transform="translate(-0.63 0.32)"/><path class="cls-2" d="M190.63,84.69a4,4,0,0,0-1.89-.19" transform="translate(-0.63 0.32)"/><path class="cls-2" d="M229.07,83.91a3.3,3.3,0,0,0-.33,2h-.06l-.07,0" transform="translate(-0.63 0.32)"/><path class="cls-2" d="M181.21,99.43a6.1,6.1,0,0,0-.13,1.95" transform="translate(-0.63 0.32)"/><path class="cls-2" d="M122.83,100.6c0-.28-.07-.57.07-.86a2.58,2.58,0,0,0-1.43-.7" transform="translate(-0.63 0.32)"/><path class="cls-2" d="M260.69,130.21a12.9,12.9,0,0,0-1.34-1.65,1.37,1.37,0,0,0-1.32-.22c-.32.09-.64.18-1,.25" transform="translate(-0.63 0.32)"/><path class="cls-2" d="M134.13,109.11a2.79,2.79,0,0,1-.07,2.53" transform="translate(-0.63 0.32)"/><path class="cls-2" d="M174.59,103.2a12.37,12.37,0,0,0-1.82.91" transform="translate(-0.63 0.32)"/><path class="cls-2" d="M125.36,89.56a1.47,1.47,0,0,1,.14,1.11c-.09.25.07.49.19.71s.29.34.13.58" transform="translate(-0.63 0.32)"/><path class="cls-2" d="M211.73,41.51a19.4,19.4,0,0,1-1.82,1.3" transform="translate(-0.63 0.32)"/><path class="cls-2" d="M225.43,84.24a1.72,1.72,0,0,1-.52,1.81" transform="translate(-0.63 0.32)"/><path class="cls-2" d="M120.3,99.17c.22.66-.1,1.3-.07,2" transform="translate(-0.63 0.32)"/><path class="cls-2" d="M139.19,105.86a2.7,2.7,0,0,1-.06,2.53" transform="translate(-0.63 0.32)"/><path class="cls-2" d="M259.14,126.51c-.53.51-.07,1.13-.2,1.69" transform="translate(-0.63 0.32)"/><path class="cls-2" d="M168.61,106.44l-1.69.91" transform="translate(-0.63 0.32)"/><path class="cls-2" d="M219.33,56.83a10.7,10.7,0,0,1,.31,1.24c0,.21.17.22.27.32" transform="translate(-0.63 0.32)"/><path class="cls-2" d="M256,117.61a1.18,1.18,0,0,1-1.17-.19c-.16-.14-.35,0-.52-.07" transform="translate(-0.63 0.32)"/><path class="cls-2" d="M178.55,116.77a2.66,2.66,0,0,1-.39,3.25" transform="translate(-0.63 0.32)"/><path class="cls-2" d="M258.1,116.83a.41.41,0,0,0,.07.58,2.19,2.19,0,0,1,.71,1.76c0,.5.48.83.58,1.3" transform="translate(-0.63 0.32)"/><path class="cls-2" d="M260.3,124.11a1.72,1.72,0,0,1,.64,1.55,3,3,0,0,0-.12.66" transform="translate(-0.63 0.32)"/><path class="cls-2" d="M236.21,97a1.6,1.6,0,0,1-.13,1.62" transform="translate(-0.63 0.32)"/><path class="cls-2" d="M228.94,86.12c-.41.85.07,1.61.26,2.4" transform="translate(-0.63 0.32)"/><path class="cls-2" d="M259.59,123.59c0,.32-.06.67.39.78.11,0,.09.19.06.25-.2.45,0,.87.07,1.31" transform="translate(-0.63 0.32)"/><path class="cls-2" d="M227.06,88.26a2.83,2.83,0,0,0-1.56.33" transform="translate(-0.63 0.32)"/><path class="cls-2" d="M122.7,93.2c.07.29.06.6.45.73.22.07.26.35.33.57" transform="translate(-0.63 0.32)"/><path class="cls-2" d="M269.53,128.46c-.34.57.05,1,.19,1.56" transform="translate(-0.63 0.32)"/><path class="cls-2" d="M130.3,91.9c.11.49.48.92.22,1.51-.09.21.3.51.36.83" transform="translate(-0.63 0.32)"/><path class="cls-2" d="M212.7,68.26c.53,0,1,.44,1.5.39" transform="translate(-0.63 0.32)"/><path class="cls-2" d="M238,92.94c.5.22.89.66,1.49.65" transform="translate(-0.63 0.32)"/><path class="cls-2" d="M223.94,67.81a1.64,1.64,0,0,0-.46,2.14c.29.61.05,1.31.2,2" transform="translate(-0.63 0.32)"/><path class="cls-2" d="M222.83,72.61l.59-.45c.5-.38.72-.36,1.1.13a1.18,1.18,0,0,1-.06,1.56" transform="translate(-0.63 0.32)"/><path class="cls-2" d="M234.26,84.5a25.49,25.49,0,0,0,.09,2.61,5.22,5.22,0,0,0-1.19.18" transform="translate(-0.63 0.32)"/><path class="cls-2" d="M181,102.55V104" transform="translate(-0.63 0.32)"/><path class="cls-2" d="M236.08,99.3a1,1,0,0,1-.13,1.43" transform="translate(-0.63 0.32)"/><path class="cls-2" d="M166.53,107.61l-1.55.85v-1.11" transform="translate(-0.63 0.32)"/><path class="cls-2" d="M248.87,112.94c.67.26,1.08.89,1.68,1.25a2.83,2.83,0,0,0,.66.31" transform="translate(-0.63 0.32)"/><path class="cls-2" d="M274.46,127.87c-.08.49.21.95.13,1.43" transform="translate(-0.63 0.32)"/><path class="cls-2" d="M230.69,65.66h-1.43" transform="translate(-0.63 0.32)"/><path class="cls-2" d="M258.1,93.46c.35.55.94.88,1.29,1.43" transform="translate(-0.63 0.32)"/><path class="cls-2" d="M181.34,92.16v1.43" transform="translate(-0.63 0.32)"/><path class="cls-2" d="M129.26,88c-.19,0-.53-.2-.45.26.05.28-.15.51-.13.78" transform="translate(-0.63 0.32)"/><path class="cls-2" d="M256.28,91.51c.35.55.94.88,1.3,1.43" transform="translate(-0.63 0.32)"/><path class="cls-2" d="M260.76,123.2a.74.74,0,0,0-.22-1c-.26-.25-.37-.57-.64-.82l-.64.15" transform="translate(-0.63 0.32)"/><path class="cls-2" d="M253.49,106.9a1.81,1.81,0,0,0,1.36.78" transform="translate(-0.63 0.32)"/><path class="cls-2" d="M242.71,118.17c.76,0,1.12.3,1.36,1.13" transform="translate(-0.63 0.32)"/><path class="cls-2" d="M226.93,86.83a2.63,2.63,0,0,0,1,2.41" transform="translate(-0.63 0.32)"/><path class="cls-2" d="M224.2,65.27c0,.44.22.88-.07,1.3" transform="translate(-0.63 0.32)"/><path class="cls-2" d="M179.33,116.06a1,1,0,0,1-.26,1.29" transform="translate(-0.63 0.32)"/><path class="cls-2" d="M250,114.63a1.3,1.3,0,0,1,0,.91,2.55,2.55,0,0,0,0,1.1c0,.3.22.16.34.19" transform="translate(-0.63 0.32)"/><path class="cls-2" d="M125.36,85.92a2.69,2.69,0,0,1-.19,1.56" transform="translate(-0.63 0.32)"/><path class="cls-2" d="M212.06,52.55a1,1,0,0,0,0,1.3" transform="translate(-0.63 0.32)"/><path class="cls-2" d="M260.24,122.16c-.08.21-.09.49-.46.4a2.25,2.25,0,0,0-.58,0" transform="translate(-0.63 0.32)"/><path class="cls-2" d="M212.57,46.83a7.93,7.93,0,0,1-.13,1.82" transform="translate(-0.63 0.32)"/><path class="cls-2" d="M120.23,105.67c.25.68.91.58,1.43.74" transform="translate(-0.63 0.32)"/><path class="cls-2" d="M252,105.93a.8.8,0,0,0-.31-.8c-.4-.28-.67-.72-1.12-1-.15-.07-.12-.2-.13-.32" transform="translate(-0.63 0.32)"/><path class="cls-2" d="M261.28,127.29c.27.76.19,1.57.44,2.34a4.76,4.76,0,0,0,1.38,2.6" transform="translate(-0.63 0.32)"/><path class="cls-2" d="M258.39,120.34a22.72,22.72,0,0,0,.81,2.54.87.87,0,0,0,.78.74" transform="translate(-0.63 0.32)"/><path class="cls-2" d="M195.3,81.12c0,.47-.28.81-.39,1.23" transform="translate(-0.63 0.32)"/><path class="cls-2" d="M256.47,121.06l-1.23.13" transform="translate(-0.63 0.32)"/><path class="cls-2" d="M256.34,120.15a10.05,10.05,0,0,1-1.23.13" transform="translate(-0.63 0.32)"/><path class="cls-2" d="M128,94.63a.41.41,0,0,0,.32.38c.65.06.42.48.4.85s-.41.49-.27.84" transform="translate(-0.63 0.32)"/><path class="cls-2" d="M244.33,105.15c-.23-.05-.35.25-.63.18a.79.79,0,0,0-.93-.7" transform="translate(-0.63 0.32)"/><path class="cls-2" d="M236.08,95.6a1.08,1.08,0,0,1,0,1.1" transform="translate(-0.63 0.32)"/><path class="cls-2" d="M243.55,100.21a2.12,2.12,0,0,1-1.17.07" transform="translate(-0.63 0.32)"/><path class="cls-2" d="M122.77,101c-.15.38,0,.81-.26,1.17" transform="translate(-0.63 0.32)"/><path class="cls-2" d="M252.25,107.74a3.83,3.83,0,0,0,.13,1.17" transform="translate(-0.63 0.32)"/><path class="cls-2" d="M180.69,108v1.17" transform="translate(-0.63 0.32)"/><path class="cls-2" d="M265.89,125.54c0,.39.16.78,0,1.17" transform="translate(-0.63 0.32)"/><path class="cls-2" d="M158.22,126.19l.33,1.16" transform="translate(-0.63 0.32)"/><path class="cls-2" d="M219.52,71.12a1.07,1.07,0,0,1-.13.68l-1.17.29" transform="translate(-0.63 0.32)"/><path class="cls-2" d="M250.43,94.5c.32.48.7,0,1,.06" transform="translate(-0.63 0.32)"/><path class="cls-2" d="M253.1,119.5c.71.52.23,1.25.3,1.88a.91.91,0,0,1-.43.91" transform="translate(-0.63 0.32)"/><path class="cls-2" d="M241.6,90.66a1.13,1.13,0,0,0-.13,1.37" transform="translate(-0.63 0.32)"/><path class="cls-2" d="M212.19,64.88c-.28.54,0,1.14-.2,1.69" transform="translate(-0.63 0.32)"/><path class="cls-2" d="M122.12,96.7c.29.4.38.89.64,1.31s0,.45-.25.58" transform="translate(-0.63 0.32)"/><path class="cls-2" d="M132.18,89.63l-.26,1" transform="translate(-0.63 0.32)"/><path class="cls-2" d="M265.89,118.13a1.22,1.22,0,0,0,1,.52" transform="translate(-0.63 0.32)"/><path class="cls-2" d="M273.16,125.8c0,.35.21.67.13,1" transform="translate(-0.63 0.32)"/><path class="cls-2" d="M123.8,94.89a5.92,5.92,0,0,0-.13,1" transform="translate(-0.63 0.32)"/><path class="cls-2" d="M223.81,66.64c.61.37.68.66.26,1.1" transform="translate(-0.63 0.32)"/><path class="cls-2" d="M172.38,104.37l-1,.52" transform="translate(-0.63 0.32)"/><path class="cls-2" d="M260.37,108.72c-.18.34-.38.69,0,1" transform="translate(-0.63 0.32)"/><path class="cls-2" d="M272.58,124.17c.27.27.54.54.45,1" transform="translate(-0.63 0.32)"/><path class="cls-2" d="M123.87,92.09a2.06,2.06,0,0,0-1-.45" transform="translate(-0.63 0.32)"/><path class="cls-2" d="M156.73,126.71c.18.61.79.36,1.17.58" transform="translate(-0.63 0.32)"/><path class="cls-2" d="M125,101.25a3.74,3.74,0,0,1,1,.43.47.47,0,0,1-.2.41" transform="translate(-0.63 0.32)"/><path class="cls-2" d="M124.39,98.52c.21.85-.17,1.41-1,1.43" transform="translate(-0.63 0.32)"/><path class="cls-2" d="M126.92,102.16a.62.62,0,0,1,.09.85,2.53,2.53,0,0,0-.41.71" transform="translate(-0.63 0.32)"/><path class="cls-2" d="M189.91,77.29v1.49c0,.23,0,.49.26.59" transform="translate(-0.63 0.32)"/><path class="cls-2" d="M224.07,73.78c-.32.07-.6-.11-.91-.13" transform="translate(-0.63 0.32)"/><path class="cls-2" d="M224.07,73.13c-.32-.07-.6.11-.91.13" transform="translate(-0.63 0.32)"/><path class="cls-2" d="M244.46,112a1.82,1.82,0,0,1,.22,1.24,1,1,0,0,1-.48.84" transform="translate(-0.63 0.32)"/><path class="cls-2" d="M252.12,106.44v.91" transform="translate(-0.63 0.32)"/><path class="cls-2" d="M237.45,104.3a3.5,3.5,0,0,1-.91.07" transform="translate(-0.63 0.32)"/><path class="cls-2" d="M219.91,60.86c-.08.31-.49.37-.52.71" transform="translate(-0.63 0.32)"/><path class="cls-2" d="M131.4,97.81c.43.18.48.59.59,1" transform="translate(-0.63 0.32)"/><path class="cls-2" d="M262.25,97.87c.19.37.59.55.78.91" transform="translate(-0.63 0.32)"/><path class="cls-2" d="M237.58,86.77c-.31,0-.59.2-.91.13" transform="translate(-0.63 0.32)"/><path class="cls-2" d="M224.33,85.66a3.06,3.06,0,0,1-.07.91" transform="translate(-0.63 0.32)"/><path class="cls-2" d="M128.68,91.12c.11.27.35.52.25.84a1.94,1.94,0,0,0,.33,1.5" transform="translate(-0.63 0.32)"/><path class="cls-2" d="M265.63,101.51a2.89,2.89,0,0,0,.78.78" transform="translate(-0.63 0.32)"/><path class="cls-2" d="M137.57,95.73c-.62,0-.83.5-1,1" transform="translate(-0.63 0.32)"/><path class="cls-2" d="M123.54,102.09a2,2,0,0,1,.33,1.24" transform="translate(-0.63 0.32)"/><path class="cls-2" d="M128.22,93.59c.4-.06.73.51,1.17.13" transform="translate(-0.63 0.32)"/><path class="cls-2" d="M251.86,104.37c-.08.28.18.56,0,.84" transform="translate(-0.63 0.32)"/><path class="cls-2" d="M120.88,96.44a.9.9,0,0,1,.07.78" transform="translate(-0.63 0.32)"/><path class="cls-2" d="M165.24,103.72v.78" transform="translate(-0.63 0.32)"/><path class="cls-2" d="M165.36,101.9v.78" transform="translate(-0.63 0.32)"/><path class="cls-2" d="M121.14,107.16a1.83,1.83,0,0,0-.45-.25c-.25-.07-.53,0-.44.31s0,.61,0,.91" transform="translate(-0.63 0.32)"/><path class="cls-2" d="M247.9,101.64a1.5,1.5,0,0,0,.65.71" transform="translate(-0.63 0.32)"/><path class="cls-2" d="M247.12,118c0,.46-.29.85-.32,1.3" transform="translate(-0.63 0.32)"/><path class="cls-2" d="M243.49,102a.6.6,0,0,0-.59-.78" transform="translate(-0.63 0.32)"/><path class="cls-2" d="M259.39,114.3a1.44,1.44,0,0,1,.08,1c-.05.13,0,.24.18.26" transform="translate(-0.63 0.32)"/><path class="cls-2" d="M124.13,100c.15.22.5.34.39.71" transform="translate(-0.63 0.32)"/><path class="cls-2" d="M260.69,123.33c0,.26.26.5.07.78" transform="translate(-0.63 0.32)"/><path class="cls-2" d="M122.7,100.08a1.45,1.45,0,0,0-.78.26" transform="translate(-0.63 0.32)"/><path class="cls-2" d="M212.44,49.56c0,.26.09.55-.13.78" transform="translate(-0.63 0.32)"/><path class="cls-2" d="M251.21,111.9c.14.24,0,.54.13.78" transform="translate(-0.63 0.32)"/><path class="cls-2" d="M260.11,127.16c-.47.2-.08.47-.07.71" transform="translate(-0.63 0.32)"/><path class="cls-2" d="M146.53,117.74c.08.21-.15.49.13.65" transform="translate(-0.63 0.32)"/><path class="cls-2" d="M161,124.63l.39.71" transform="translate(-0.63 0.32)"/><path class="cls-2" d="M242.77,102.68l.39,1.43" transform="translate(-0.63 0.32)"/><path class="cls-2" d="M245.11,111.83c.27.69.24.8-.33,1.11" transform="translate(-0.63 0.32)"/><path class="cls-2" d="M176.53,118.07c-.67-.18-.71.54-1.1.78" transform="translate(-0.63 0.32)"/><path class="cls-2" d="M260,95.54c.16.29.45.46.65.71" transform="translate(-0.63 0.32)"/><path class="cls-2" d="M121.47,95.54a1.22,1.22,0,0,0-.72.19" transform="translate(-0.63 0.32)"/><path class="cls-2" d="M127.51,101.12c-.06-.4-.37-.22-.59-.26" transform="translate(-0.63 0.32)"/><path class="cls-2" d="M254.33,115.15c0,.21-.07.44.06.65" transform="translate(-0.63 0.32)"/><path class="cls-2" d="M124.45,91.51c-.09.21,0,.46-.19.65" transform="translate(-0.63 0.32)"/><path class="cls-2" d="M254.46,116.19c0,.3-.1.65.19.9" transform="translate(-0.63 0.32)"/><path class="cls-2" d="M247.51,120.73l.07.65" transform="translate(-0.63 0.32)"/><path class="cls-2" d="M261.21,126.19c0,.22,0,.46.13.65" transform="translate(-0.63 0.32)"/><path class="cls-2" d="M127.05,87.61l-.06.65" transform="translate(-0.63 0.32)"/><path class="cls-2" d="M263.16,112.81v.65" transform="translate(-0.63 0.32)"/><path class="cls-2" d="M158.87,120.08v.65" transform="translate(-0.63 0.32)"/><path class="cls-2" d="M218.29,70.66c.57.41,1.06.46,1.4.13" transform="translate(-0.63 0.32)"/><path class="cls-2" d="M165.62,98.65v.52" transform="translate(-0.63 0.32)"/><path class="cls-2" d="M212.12,66c.11.24.38,0,.52.19" transform="translate(-0.63 0.32)"/><path class="cls-2" d="M131.47,100.21c-.42,0-.72.2-.78.65" transform="translate(-0.63 0.32)"/><path class="cls-2" d="M241.73,101.12c0-.28-.2-.26-.39-.26" transform="translate(-0.63 0.32)"/><path class="cls-2" d="M251.54,100.73c-.3.24,0,.53-.07.78" transform="translate(-0.63 0.32)"/><path class="cls-2" d="M227.51,74.89l.07.51" transform="translate(-0.63 0.32)"/><path class="cls-2" d="M158.48,124.5V125" transform="translate(-0.63 0.32)"/><path class="cls-2" d="M227.58,75.66v.52" transform="translate(-0.63 0.32)"/><path class="cls-2" d="M265.76,124.37v.52" transform="translate(-0.63 0.32)"/><path class="cls-2" d="M265.5,122.42v.52" transform="translate(-0.63 0.32)"/><path class="cls-2" d="M273.55,122v.52" transform="translate(-0.63 0.32)"/><path class="cls-2" d="M272.45,120.6c-.14.16,0,.35-.07.52" transform="translate(-0.63 0.32)"/><path class="cls-2" d="M165.88,95.67v.51" transform="translate(-0.63 0.32)"/><path class="cls-2" d="M181.47,90v.52" transform="translate(-0.63 0.32)"/><path class="cls-2" d="M121.08,90.73c.17,0,.32.16.52.13" transform="translate(-0.63 0.32)"/><path class="cls-2" d="M256.93,114.76a.38.38,0,0,0-.46.26" transform="translate(-0.63 0.32)"/><path class="cls-2" d="M135.23,91.9l-.06.52" transform="translate(-0.63 0.32)"/><path class="cls-2" d="M180.56,111.51V112" transform="translate(-0.63 0.32)"/><path class="cls-2" d="M245.17,111.57c-.18.27-.19.62-.45.85" transform="translate(-0.63 0.32)"/><path class="cls-2" d="M128.87,94.37a.68.68,0,0,0,.39.39" transform="translate(-0.63 0.32)"/><path class="cls-2" d="M212,48.07c.16,0,.29.11.45.06" transform="translate(-0.63 0.32)"/><path class="cls-2" d="M123,99.56c.3-.49.42-.5,1.1-.06" transform="translate(-0.63 0.32)"/><path class="cls-2" d="M252.64,111.51a2.8,2.8,0,0,0,.07.91" transform="translate(-0.63 0.32)"/><path class="cls-2" d="M190,80.08c-.1.3.17.48.26.71" transform="translate(-0.63 0.32)"/><path class="cls-2" d="M245.4,117.81c-.19.45.38.27.42.52" transform="translate(-0.63 0.32)"/><path class="cls-2" d="M57.79,139.77c-2.39,0-4.79.11-7.18,0s-5-.16-7.43-.44a15.84,15.84,0,0,0-3.44,0,20.74,20.74,0,0,1-4.24,0c-.84-.08-1.68,0-2.53-.07A23.8,23.8,0,0,0,29.3,139a31.59,31.59,0,0,0-3.51.13" transform="translate(-0.63 0.32)"/><path class="cls-2" d="M80.66,134.22c-3.49,0-7-.22-10.45-.17" transform="translate(-0.63 0.32)"/><path class="cls-2" d="M32.89,115.93a.82.82,0,0,1-.89-.34,42,42,0,0,1-3.76-5.14" transform="translate(-0.63 0.32)"/><path class="cls-2" d="M93.48,109.39a2.21,2.21,0,0,0-1.07-2.28,2.72,2.72,0,0,1-.65-.66" transform="translate(-0.63 0.32)"/><path class="cls-2" d="M29.79,135.52a2.8,2.8,0,0,1-2,.49,24.06,24.06,0,0,1-3.42-.22,11.3,11.3,0,0,1-3.12-.76" transform="translate(-0.63 0.32)"/><path class="cls-2" d="M107.44,132.17c-.64.46-1.32.05-2,0-1.66,0-3.32-.08-5-.19-.84-.06-1.69-.06-2.53-.09" transform="translate(-0.63 0.32)"/><path class="cls-2" d="M116.67,112.82l-1.06.41" transform="translate(-0.63 0.32)"/><path class="cls-2" d="M88.41,111.76c.36.09.7.26,1.06.36s.78.22,1.08-.27,1-.61,1.54-.82" transform="translate(-0.63 0.32)"/><path class="cls-2" d="M23.74,133.32c.11-.48-.25-.89-.18-1.39a4.48,4.48,0,0,1,.28-1.55c.62-1.11.56-2.48,1.43-3.58.83.61,1.79.27,2.72.31,1.08,0,1.21.29.91,1.31a8.29,8.29,0,0,0,.62,6.21,5.87,5.87,0,0,0,2.9,2.57,4.25,4.25,0,0,0,4.71-.71,6.94,6.94,0,0,0,2.55-5.29,25,25,0,0,0-.42-3.68c-.07-.74-.79-1-1.16-1.54a4.78,4.78,0,0,0-2.92-1.91A4.45,4.45,0,0,0,31,125.26c-.46.38-1.13.82-.93,1.65" transform="translate(-0.63 0.32)"/><path class="cls-2" d="M108.83,113.8a17.27,17.27,0,0,0,.47,4.17,2.29,2.29,0,0,1-.23,1.63" transform="translate(-0.63 0.32)"/><path class="cls-2" d="M9.21,117.64c.29.76.86,1.48.41,2.37" transform="translate(-0.63 0.32)"/><path class="cls-2" d="M10,129.89a4.48,4.48,0,0,0,.14,1.4,1,1,0,0,1-.06.89c-.44.66-.14,1.31.08,1.95a.68.68,0,0,0,.82.41c.35,0,.7-.11,1.06-.16" transform="translate(-0.63 0.32)"/><path class="cls-2" d="M53.14,115.44a28.06,28.06,0,0,0-3.43.08" transform="translate(-0.63 0.32)"/><path class="cls-2" d="M118.54,118.86v13.07" transform="translate(-0.63 0.32)"/><path class="cls-2" d="M59.43,126.38a24.88,24.88,0,0,0,.07,2.86c.17,1,.31,1.2,1.23,1.38.22,0,.45,0,.66.08" transform="translate(-0.63 0.32)"/><path class="cls-2" d="M39.34,116.25a2.77,2.77,0,0,0-.15,1.63c.05.77.52,1.47.42,2.29,0,.26.31.45.63.45" transform="translate(-0.63 0.32)"/><path class="cls-2" d="M40.24,114.29a2.39,2.39,0,0,0,1.8.09,8.49,8.49,0,0,1,1.14-.09" transform="translate(-0.63 0.32)"/><path class="cls-2" d="M93,102.57a2.37,2.37,0,0,1,3.18.38,5.54,5.54,0,0,1,.9,1,1.84,1.84,0,0,0,1.88.82" transform="translate(-0.63 0.32)"/><path class="cls-2" d="M6.84,129.32H2.11a1.23,1.23,0,0,1-1-.25" transform="translate(-0.63 0.32)"/><path class="cls-2" d="M114.63,131.19c-.27,1.4-.27,1.44-1.72,1.3-.79-.08-1.58,0-2.37-.07" transform="translate(-0.63 0.32)"/><path class="cls-2" d="M4.8,121.07a2.31,2.31,0,0,0-.41-.16c-1.32-.24-1.75.1-1.7,1.47,0,.71-.3,1.49.31,2.12" transform="translate(-0.63 0.32)"/><path class="cls-2" d="M50.61,132.75a26.18,26.18,0,0,0-3.43.16,16,16,0,0,1-2-.16" transform="translate(-0.63 0.32)"/><path class="cls-2" d="M100.17,127.19a6.63,6.63,0,0,1-1.47.31c-.81.2-1.08,0-1.31-.88-.14-.51-.08-1.14-.73-1.39" transform="translate(-0.63 0.32)"/><path class="cls-2" d="M9.05,124.17a4.66,4.66,0,0,1-2.79-.47c-.46-.31-.77,0-.79.47a8.86,8.86,0,0,0,.06,2.18,4.23,4.23,0,0,0,3.11,0c.29-.12.6-.22.9-.33" transform="translate(-0.63 0.32)"/><path class="cls-2" d="M110.87,113.48a6.38,6.38,0,0,0,1.39,5.14" transform="translate(-0.63 0.32)"/><path class="cls-2" d="M114.05,131.68a1.35,1.35,0,0,1-1,.16c-1.24-.18-2.51,0-3.75-.15-.18,0-.38,0-.49.16" transform="translate(-0.63 0.32)"/><path class="cls-2" d="M74.94,144.34a2.24,2.24,0,0,0-.16,1.23" transform="translate(-0.63 0.32)"/><path class="cls-2" d="M10.68,134.62c.07,1.7,1.29,2.56,2.54,3.33a6.64,6.64,0,0,1,1.3.92" transform="translate(-0.63 0.32)"/><path class="cls-2" d="M3.9,138.3v1.14" transform="translate(-0.63 0.32)"/><path class="cls-2" d="M56.16,142.71v1.14" transform="translate(-0.63 0.32)"/><path class="cls-2" d="M102.62,114.37a3.17,3.17,0,0,0,1.55,2.86c.26.18.49.38.74.57" transform="translate(-0.63 0.32)"/><path class="cls-2" d="M96.17,146.3v1.14" transform="translate(-0.63 0.32)"/><path class="cls-2" d="M52.24,142.38v1.14" transform="translate(-0.63 0.32)"/><path class="cls-2" d="M10.52,126.79c.49.27,1,.55,1.47.81a.59.59,0,0,1,.36.82c-.16.37-.28.8-.85.74s-.93-.06-1.39-.09" transform="translate(-0.63 0.32)"/><path class="cls-2" d="M84.74,145.32v1.14" transform="translate(-0.63 0.32)"/><path class="cls-2" d="M115.36,147.77v1.14" transform="translate(-0.63 0.32)"/><path class="cls-2" d="M114.54,147.77v1.14" transform="translate(-0.63 0.32)"/><path class="cls-2" d="M70.45,121H69.39" transform="translate(-0.63 0.32)"/><path class="cls-2" d="M108.58,147.28v1.14" transform="translate(-0.63 0.32)"/><path class="cls-2" d="M96.58,146.3v1.14" transform="translate(-0.63 0.32)"/><path class="cls-2" d="M102.13,113.15a6.09,6.09,0,0,1-3.84.33,2.67,2.67,0,0,0-.49,0" transform="translate(-0.63 0.32)"/><path class="cls-2" d="M108,110.7a.16.16,0,0,0-.08.16,7.13,7.13,0,0,1-1.14,3.19" transform="translate(-0.63 0.32)"/><path class="cls-2" d="M11.25,97.39c.1.06.09.15.08.24-.19,2.29,0,4.58,0,6.86a1.3,1.3,0,0,1-.09.49" transform="translate(-0.63 0.32)"/><path class="cls-2" d="M7.66,118.7c.09.94-.28,1.84-.17,2.78" transform="translate(-0.63 0.32)"/><path class="cls-2" d="M113.65,120.66l-.49,2.29" transform="translate(-0.63 0.32)"/><path class="cls-2" d="M56.24,126.54c.1.82-.21,1.61-.14,2.45a7.06,7.06,0,0,0,.39,1.63" transform="translate(-0.63 0.32)"/><path class="cls-2" d="M20,135.28c-1.09,1.59-2.79,2.44-4.25,3.59" transform="translate(-0.63 0.32)"/><path class="cls-2" d="M31.75,115.44a2.23,2.23,0,0,0-1.22.74,1.82,1.82,0,0,1-1.64.66,5.92,5.92,0,0,0-1.23.23" transform="translate(-0.63 0.32)"/><path class="cls-2" d="M65.55,129a14.46,14.46,0,0,0-1,2.7,2.63,2.63,0,0,1-.2.62c-.63.4-.33.92-.23,1.42" transform="translate(-0.63 0.32)"/><path class="cls-2" d="M9.62,113.56a5.5,5.5,0,0,1-2.81-.42c0,.48.41.84.11,1.23s-.71.34-1,.66" transform="translate(-0.63 0.32)"/><path class="cls-2" d="M43.83,131a1.06,1.06,0,0,0-.73-.4,14,14,0,0,0-3.35-.34" transform="translate(-0.63 0.32)"/><path class="cls-2" d="M66.12,128.74a4.41,4.41,0,0,1,1.17,2.2,18.25,18.25,0,0,0,.92,2.24c-.56.22-1,.68-1.6.71" transform="translate(-0.63 0.32)"/><path class="cls-2" d="M52.24,129.48H48.16" transform="translate(-0.63 0.32)"/><path class="cls-2" d="M45.38,131a7.83,7.83,0,0,0-2.47.51,9.24,9.24,0,0,1-3.16.39" transform="translate(-0.63 0.32)"/><path class="cls-2" d="M92.42,110.94A2.5,2.5,0,0,0,95,112.33" transform="translate(-0.63 0.32)"/><path class="cls-2" d="M65.8,119.68a1.19,1.19,0,0,1-.13,1.2,2,2,0,0,0,.3,2.3,6,6,0,0,1,.56,1.24" transform="translate(-0.63 0.32)"/><path class="cls-2" d="M89.64,127.44a1.48,1.48,0,0,0,2,.5c.54-.25,1.17,0,1.71-.26" transform="translate(-0.63 0.32)"/><path class="cls-2" d="M91.68,145.81V147" transform="translate(-0.63 0.32)"/><path class="cls-2" d="M25.87,121.48a2.54,2.54,0,0,0-1.9.21c-.49.29-1.12-.06-1.7,0" transform="translate(-0.63 0.32)"/><path class="cls-2" d="M35.58,136.18A7.65,7.65,0,0,1,33,136c-.34,0-.72-.1-1,.24" transform="translate(-0.63 0.32)"/><path class="cls-2" d="M76.57,130.3H73" transform="translate(-0.63 0.32)"/><path class="cls-2" d="M19.5,139v1.14" transform="translate(-0.63 0.32)"/><path class="cls-2" d="M13.29,110a12.34,12.34,0,0,1-3.26.9" transform="translate(-0.63 0.32)"/><path class="cls-2" d="M115.52,124.91c-1.16-.1-2.25.56-3.43.32" transform="translate(-0.63 0.32)"/><path class="cls-2" d="M9.7,112.09a13,13,0,0,0-3.35.16" transform="translate(-0.63 0.32)"/><path class="cls-2" d="M71.19,131.11c-1.12.07-2.23-.16-3.35-.08" transform="translate(-0.63 0.32)"/><path class="cls-2" d="M38.36,132.26a18.2,18.2,0,0,1-3.27.65" transform="translate(-0.63 0.32)"/><path class="cls-2" d="M21.29,125.4a2.51,2.51,0,0,1,.6,1.8,10.24,10.24,0,0,0,1.46,3.7,5.42,5.42,0,0,0-1.31-.28.7.7,0,0,1,.44-1.06" transform="translate(-0.63 0.32)"/><path class="cls-2" d="M63.51,123.11c-.08.16-.27.37-.23.48.36.93-.06,1.86.07,2.79" transform="translate(-0.63 0.32)"/><path class="cls-2" d="M112.91,120.09a34.33,34.33,0,0,0-3.27,1.63" transform="translate(-0.63 0.32)"/><path class="cls-2" d="M38.69,127a2.46,2.46,0,0,1-1.8.39c-1.47-.06-2.94,0-4.41,0a4.71,4.71,0,0,1-1.62-.23c-.74-.29-1.24.1-1.81.36" transform="translate(-0.63 0.32)"/><path class="cls-2" d="M67.35,121c.16.41.3.82.49,1.22a1.78,1.78,0,0,1-.17,2" transform="translate(-0.63 0.32)"/><path class="cls-2" d="M30.85,121.8c.65,0,.91.31.92,1s.58,1,.55,1.56" transform="translate(-0.63 0.32)"/><path class="cls-2" d="M118,123.36c0,.33.44.74-.16,1a.23.23,0,0,0-.07.32c.5.68.12,1.64.72,2.29" transform="translate(-0.63 0.32)"/><path class="cls-2" d="M2.27,126.62a2.63,2.63,0,0,0,2.94,0" transform="translate(-0.63 0.32)"/><path class="cls-2" d="M10.6,108a.75.75,0,0,0,.24.08c1,0,1.85.17,2.13,1.31" transform="translate(-0.63 0.32)"/><path class="cls-2" d="M29.46,119c.75.75.76,1.12.08,2a47.56,47.56,0,0,0-2.69,4.57,2.58,2.58,0,0,1-.41.57" transform="translate(-0.63 0.32)"/><path class="cls-2" d="M91.6,108.09c-.1-.4-.42-.23-.65-.24-.58,0-1.15,0-1.72,0" transform="translate(-0.63 0.32)"/><path class="cls-2" d="M93.23,119.52a3,3,0,0,1,2,2.94" transform="translate(-0.63 0.32)"/><path class="cls-2" d="M22.93,132a12.83,12.83,0,0,0-5.47-.49" transform="translate(-0.63 0.32)"/><path class="cls-2" d="M117.16,134.22a3.5,3.5,0,0,0-.41,2,1.34,1.34,0,0,1-.9.24" transform="translate(-0.63 0.32)"/><path class="cls-2" d="M97.23,116.66c-.79.3-1.67.2-2.45.56a.55.55,0,0,1-.66-.23.58.58,0,0,0-.81-.25" transform="translate(-0.63 0.32)"/><path class="cls-2" d="M112.91,107.84c-.76-.3-1.63-.16-2.37-.57" transform="translate(-0.63 0.32)"/><path class="cls-2" d="M18.19,127a9.41,9.41,0,0,0-.82,2.69,2.21,2.21,0,0,0,0,1.73c.3.63-.21,1.19-.94,1.31-.4.06-.86,0-1.15.39a.7.7,0,0,0,.41,1.15l.65.16" transform="translate(-0.63 0.32)"/><path class="cls-2" d="M98.87,129.07c-.44.7-1,.61-1.72.42-1.11-.31-1.67,0-2,1.13-.21.59-.28,1.26-1.06,1.49a2.29,2.29,0,0,1-1.14-.1" transform="translate(-0.63 0.32)"/><path class="cls-2" d="M105.32,111.35a13.42,13.42,0,0,1-2.37.08" transform="translate(-0.63 0.32)"/><path class="cls-2" d="M113.07,147.61a6.53,6.53,0,0,1-.16,2.2" transform="translate(-0.63 0.32)"/><path class="cls-2" d="M88.5,120.33a15.08,15.08,0,0,0-2.21.41" transform="translate(-0.63 0.32)"/><path class="cls-2" d="M111.69,110a8.22,8.22,0,0,0-1.73.47,1,1,0,0,1-1,0" transform="translate(-0.63 0.32)"/><path class="cls-2" d="M17,130.7l-.9-.08c-.14,0-.38-.1-.39-.07-.43.88-1.47.14-2,.73a2.26,2.26,0,0,0-.65,1.71c0,.19.06.38.07.57" transform="translate(-0.63 0.32)"/><path class="cls-2" d="M62.69,143.2a11.57,11.57,0,0,1-.08,2.2" transform="translate(-0.63 0.32)"/><path class="cls-2" d="M58.37,116.09c-.21.89-.7,1.79.16,2.61" transform="translate(-0.63 0.32)"/><path class="cls-2" d="M117.48,147.93a6.57,6.57,0,0,1-.16,2.21" transform="translate(-0.63 0.32)"/><path class="cls-2" d="M115.52,125.4c-.68.47-.6,1.17-.58,1.88a4,4,0,0,1-.48,2.61" transform="translate(-0.63 0.32)"/><path class="cls-2" d="M98.21,146.46a6.57,6.57,0,0,1-.16,2.21" transform="translate(-0.63 0.32)"/><path class="cls-2" d="M6.68,118.62A6.29,6.29,0,0,1,6,119.85c-.17.34-.33.67.12,1.08a1.76,1.76,0,0,1,.19,2.34" transform="translate(-0.63 0.32)"/><path class="cls-2" d="M30,120.66a2.16,2.16,0,0,1,.64,1.64,6.15,6.15,0,0,0,.75,2.12" transform="translate(-0.63 0.32)"/><path class="cls-2" d="M94.13,127.11c-.48.12-.72.35-.73.82a2.73,2.73,0,0,1-.32,1.31,5.16,5.16,0,0,0-.27,2.2,14.2,14.2,0,0,1-.39,2.12" transform="translate(-0.63 0.32)"/><path class="cls-2" d="M33.46,127.44c-.14.79.46,1.52.14,2.39a.76.76,0,0,0,1,.83" transform="translate(-0.63 0.32)"/><path class="cls-2" d="M32.4,127.44c-.08.86.49,1.65.24,2.53" transform="translate(-0.63 0.32)"/><path class="cls-2" d="M98.38,120.25c-.81.18-1.59.6-2.45.25-.42-.17-.51.34-.82.41" transform="translate(-0.63 0.32)"/><path class="cls-2" d="M40.65,136.5a6.52,6.52,0,0,1-2.45-.24" transform="translate(-0.63 0.32)"/><path class="cls-2" d="M44.24,123.11a1.78,1.78,0,0,0-2.11,1c-.64,0-1.22-.4-1.89-.24-.5.12-.71-.17-.65-.65a19.18,19.18,0,0,1,.32-2.61" transform="translate(-0.63 0.32)"/><path class="cls-2" d="M13.37,121.8c-.26.21-.71-.09-.9.35a2.81,2.81,0,0,1,.64,1.78c.12.66-.33,1.15-1.12,1.47a14.53,14.53,0,0,1-2.13.65" transform="translate(-0.63 0.32)"/><path class="cls-2" d="M15.17,126.46a3.16,3.16,0,0,0-.6,1.13c-.26.7-.16,1.48-.59,2.16a1.19,1.19,0,0,0,.13,1.2" transform="translate(-0.63 0.32)"/><path class="cls-2" d="M47.34,138.46a18.69,18.69,0,0,1-3.43.17" transform="translate(-0.63 0.32)"/><path class="cls-2" d="M44.81,125.56a17.34,17.34,0,0,1-2.21.63,1,1,0,0,0-.84,1c.33.58.07,1-.13,1.43-.07.15,0,.33.08.48" transform="translate(-0.63 0.32)"/><path class="cls-2" d="M70.37,127c-.1.93.16,1.85.12,2.77" transform="translate(-0.63 0.32)"/><path class="cls-2" d="M13.62,110.05a8,8,0,0,0-.33,2,.41.41,0,0,1-.17.4c-.9.54-.6,1.42-.64,2.21,0,.11.11.27.07.32-.81.92-.34,1.89-.17,2.86,0,.24.21.49,0,.74" transform="translate(-0.63 0.32)"/><path class="cls-2" d="M112.75,109.64a2.84,2.84,0,0,0-.41,2.37" transform="translate(-0.63 0.32)"/><path class="cls-2" d="M90.37,108.33a8.3,8.3,0,0,1,2.37,1.39" transform="translate(-0.63 0.32)"/><path class="cls-2" d="M5.37,124.42a6.88,6.88,0,0,0-2.38.22c.71.59,1.59.24,2.38.35" transform="translate(-0.63 0.32)"/><path class="cls-2" d="M52.24,121.56c-.65.59-1.33,1.1-2.28.73" transform="translate(-0.63 0.32)"/><path class="cls-2" d="M106.7,129.56a4.92,4.92,0,0,1,1.13,2.27l.83.18" transform="translate(-0.63 0.32)"/><path class="cls-2" d="M114.87,130.7c1.14.67.94,1.73.82,2.78a6.22,6.22,0,0,0,.08,2.94" transform="translate(-0.63 0.32)"/><path class="cls-2" d="M16.8,132.83c.37,1.38-.13,2.14-1.47,2.2" transform="translate(-0.63 0.32)"/><path class="cls-2" d="M62.37,120.17h-2" transform="translate(-0.63 0.32)"/><path class="cls-2" d="M26.11,135.36a10.75,10.75,0,0,0-2.12.08" transform="translate(-0.63 0.32)"/><path class="cls-2" d="M103.68,111.92a3.47,3.47,0,0,0,2,.49c.57-.07.76.46,1.15.66" transform="translate(-0.63 0.32)"/><path class="cls-2" d="M51.26,126.46l-2.12.33" transform="translate(-0.63 0.32)"/><path class="cls-2" d="M12.48,125.32A3,3,0,0,1,12.9,127c0,.21-.17.22-.26.33" transform="translate(-0.63 0.32)"/><path class="cls-2" d="M31.5,125.07a5.5,5.5,0,0,1,.41,2" transform="translate(-0.63 0.32)"/><path class="cls-2" d="M17.7,132.5a3,3,0,0,0,2,1" transform="translate(-0.63 0.32)"/><path class="cls-2" d="M17.7,126.13a1.41,1.41,0,0,0,1.39.49" transform="translate(-0.63 0.32)"/><path class="cls-2" d="M10.11,134.3a4.51,4.51,0,0,1-2.62.24" transform="translate(-0.63 0.32)"/><path class="cls-2" d="M38.85,130.13h-2" transform="translate(-0.63 0.32)"/><path class="cls-2" d="M101.64,114a2.32,2.32,0,0,0-.51,1.88,1.78,1.78,0,0,1-.55,1.46" transform="translate(-0.63 0.32)"/><path class="cls-2" d="M16.23,128.34a.69.69,0,0,0-.8.33c-.19.58-.62.39-1,.4" transform="translate(-0.63 0.32)"/><path class="cls-2" d="M113.65,123.85a2.9,2.9,0,0,0,1.87.32" transform="translate(-0.63 0.32)"/><path class="cls-2" d="M107.68,108.41h1.88" transform="translate(-0.63 0.32)"/><path class="cls-2" d="M118.38,132.58a9.11,9.11,0,0,0-1.88.08" transform="translate(-0.63 0.32)"/><path class="cls-2" d="M6.68,108.17a2.14,2.14,0,0,1-.08,1.88" transform="translate(-0.63 0.32)"/><path class="cls-2" d="M117.65,122.05c-.52.62-1.24.34-1.88.41" transform="translate(-0.63 0.32)"/><path class="cls-2" d="M16.56,126.46a1,1,0,0,1,0,1.56c-.37.43-.58.92,0,1.38" transform="translate(-0.63 0.32)"/><path class="cls-2" d="M22,130.79a9.83,9.83,0,0,1-1.88.08" transform="translate(-0.63 0.32)"/><path class="cls-2" d="M50.85,121.89c-.59-.28-1.29,0-1.87-.33" transform="translate(-0.63 0.32)"/><path class="cls-2" d="M98.54,121.8H96.66" transform="translate(-0.63 0.32)"/><path class="cls-2" d="M18.11,139.11a8.09,8.09,0,0,1,.41,1.8" transform="translate(-0.63 0.32)"/><path class="cls-2" d="M117.73,121.23l-1.8.33" transform="translate(-0.63 0.32)"/><path class="cls-2" d="M25.62,139.2c-.53.48-1.22.07-1.79.32" transform="translate(-0.63 0.32)"/><path class="cls-2" d="M95.19,146.14a9.72,9.72,0,0,1-.08,1.79" transform="translate(-0.63 0.32)"/><path class="cls-2" d="M65.8,115.52c-.6-.08-1.17-.41-1.8-.17" transform="translate(-0.63 0.32)"/><path class="cls-2" d="M94.05,146a10.8,10.8,0,0,1-.08,1.8" transform="translate(-0.63 0.32)"/><path class="cls-2" d="M116.67,119.35a11.6,11.6,0,0,1,1.79,1.15" transform="translate(-0.63 0.32)"/><path class="cls-2" d="M7.82,106.78a2.1,2.1,0,0,0,1.8.08" transform="translate(-0.63 0.32)"/><path class="cls-2" d="M28.73,135.6a8.36,8.36,0,0,0-1.8-.08" transform="translate(-0.63 0.32)"/><path class="cls-2" d="M89.15,145.48a10.8,10.8,0,0,1-.08,1.8" transform="translate(-0.63 0.32)"/><path class="cls-2" d="M27.09,123.93a6.36,6.36,0,0,1-1.79.16" transform="translate(-0.63 0.32)"/><path class="cls-2" d="M93,115.35a1.2,1.2,0,0,1,.19.82,2.61,2.61,0,0,0,.79,2.29" transform="translate(-0.63 0.32)"/><path class="cls-2" d="M17.05,114.54c.38.51.14,1.17.41,1.71" transform="translate(-0.63 0.32)"/><path class="cls-2" d="M32.24,124.66a4,4,0,0,1,.73,2.45" transform="translate(-0.63 0.32)"/><path class="cls-2" d="M22.11,135.93a3.7,3.7,0,0,0,1.72,0" transform="translate(-0.63 0.32)"/><path class="cls-2" d="M28.73,129.89a7.37,7.37,0,0,0,1.63.08" transform="translate(-0.63 0.32)"/><path class="cls-2" d="M39.18,138.3H37.54" transform="translate(-0.63 0.32)"/><path class="cls-2" d="M13.86,136a6.86,6.86,0,0,0-1.63.08" transform="translate(-0.63 0.32)"/><path class="cls-2" d="M88.5,121.31c-.57-.06-1.08.25-1.64.25" transform="translate(-0.63 0.32)"/><path class="cls-2" d="M106.46,114.54h-1.63" transform="translate(-0.63 0.32)"/><path class="cls-2" d="M89.8,131.44c-.53-.18-1.1,0-1.63-.16" transform="translate(-0.63 0.32)"/><path class="cls-2" d="M15.66,124.91a2,2,0,0,1,2.19-.06,6.67,6.67,0,0,1,1.08,1.36l.08.09" transform="translate(-0.63 0.32)"/><path class="cls-2" d="M101.15,118.29c.68.55.9,1.47,1.64,2" transform="translate(-0.63 0.32)"/><path class="cls-2" d="M25.62,139a3.39,3.39,0,0,0-3.1-.16" transform="translate(-0.63 0.32)"/><path class="cls-2" d="M97.19,107.19c-.53.44-1-.16-1.51-.08" transform="translate(-0.63 0.32)"/><path class="cls-2" d="M112.67,122.87a2,2,0,0,0-1.56,0" transform="translate(-0.63 0.32)"/><path class="cls-2" d="M20.31,120.74a26.88,26.88,0,0,0-1.55,3" transform="translate(-0.63 0.32)"/><path class="cls-2" d="M6.27,121.89A1.69,1.69,0,0,1,4.8,122" transform="translate(-0.63 0.32)"/><path class="cls-2" d="M95.76,105.31v.57a2.75,2.75,0,0,0,1.47-.24" transform="translate(-0.63 0.32)"/><path class="cls-2" d="M94.7,135.36c.55.12.92.61,1.47.73" transform="translate(-0.63 0.32)"/><path class="cls-2" d="M64.16,123.85c.62.13.66.71.9,1.14" transform="translate(-0.63 0.32)"/><path class="cls-2" d="M101.07,110.78a6,6,0,0,1-1.47.08" transform="translate(-0.63 0.32)"/><path class="cls-2" d="M117.48,113a2.75,2.75,0,0,1,.66,1.47" transform="translate(-0.63 0.32)"/><path class="cls-2" d="M92.09,124.66a4.56,4.56,0,0,1-1.47.17" transform="translate(-0.63 0.32)"/><path class="cls-2" d="M86.7,145.32a6,6,0,0,1-.08,1.47" transform="translate(-0.63 0.32)"/><path class="cls-2" d="M6.76,114.7c.26.63-.14,1-.49,1.47" transform="translate(-0.63 0.32)"/><path class="cls-2" d="M12.31,117.88c-.35,0-.38.43-.73.52s0,.41,0,.63" transform="translate(-0.63 0.32)"/><path class="cls-2" d="M32.89,137.56c0,.61-.32.92-1,.75a2.17,2.17,0,0,0-.57,0" transform="translate(-0.63 0.32)"/><path class="cls-2" d="M13.21,106.45a1,1,0,0,0-.41,1.31" transform="translate(-0.63 0.32)"/><path class="cls-2" d="M14,135.11c-.46.09-.86-.25-1.31-.16h-.08c-.11.05-.11.11,0,.16" transform="translate(-0.63 0.32)"/><path class="cls-2" d="M94.05,106.13c-.1-.21-.3-.35-.48-.24-.49.29-1.08.22-1.56.48" transform="translate(-0.63 0.32)"/><path class="cls-2" d="M38.77,120.82a2.25,2.25,0,0,0,0,1.31" transform="translate(-0.63 0.32)"/><path class="cls-2" d="M60.08,115.84c-.43,0-.85-.31-1.31-.08" transform="translate(-0.63 0.32)"/><path class="cls-2" d="M44.57,128.58a1.52,1.52,0,0,0,1.3.41" transform="translate(-0.63 0.32)"/><path class="cls-2" d="M28.56,130h-1.3" transform="translate(-0.63 0.32)"/><path class="cls-2" d="M71.84,129c-.2.75-.71.4-1.14.33" transform="translate(-0.63 0.32)"/><path class="cls-2" d="M108.58,120.42c-.43,0-.85-.32-1.3-.09" transform="translate(-0.63 0.32)"/><path class="cls-2" d="M92.74,122.29,93,123.6" transform="translate(-0.63 0.32)"/><path class="cls-2" d="M65.39,130.87a2.39,2.39,0,0,0,1.3,0" transform="translate(-0.63 0.32)"/><path class="cls-2" d="M41.87,120.58a1.32,1.32,0,0,0,.33,1.71" transform="translate(-0.63 0.32)"/><path class="cls-2" d="M93.4,120.42c0,.47-.07.9-.66,1" transform="translate(-0.63 0.32)"/><path class="cls-2" d="M110.38,110.86c.07.65-.36,1.35.16,2" transform="translate(-0.63 0.32)"/><path class="cls-2" d="M65.39,122.21c-.38.29-.82.12-1.23.17" transform="translate(-0.63 0.32)"/><path class="cls-2" d="M19.33,133.81a2.35,2.35,0,0,1-2.2.08" transform="translate(-0.63 0.32)"/><path class="cls-2" d="M39.59,126.7c.4.1.77.41,1.22.17" transform="translate(-0.63 0.32)"/><path class="cls-2" d="M39.75,122.62h.41c1,0,1.05.17.73,1.06" transform="translate(-0.63 0.32)"/><path class="cls-2" d="M93.56,133.89c.25.16.58.1.81.25a.94.94,0,0,1,.34.89c0,.47-.31.51-.66.49" transform="translate(-0.63 0.32)"/><path class="cls-2" d="M94,135.36a1.28,1.28,0,0,1-.49-.66c-.2-.49-.52-.45-.9-.24" transform="translate(-0.63 0.32)"/><path class="cls-2" d="M106.05,130.13c-.3.34-.11.88-.49,1.19" transform="translate(-0.63 0.32)"/><path class="cls-2" d="M41.79,141.4a4.35,4.35,0,0,1-.08,1.14" transform="translate(-0.63 0.32)"/><path class="cls-2" d="M19.25,124.42l-1.06.65" transform="translate(-0.63 0.32)"/><path class="cls-2" d="M3,124.83c-.57.16-.11.8-.49,1.06" transform="translate(-0.63 0.32)"/><path class="cls-2" d="M64.65,131H63.51" transform="translate(-0.63 0.32)"/><path class="cls-2" d="M42.69,119.84a.91.91,0,0,0-.08,1.15" transform="translate(-0.63 0.32)"/><path class="cls-2" d="M69.39,118c-.39,0-.74-.25-1.14-.17" transform="translate(-0.63 0.32)"/><path class="cls-2" d="M103.36,131.44a1.79,1.79,0,0,0,1.12,0c.14-.41-.34-.82,0-1.23" transform="translate(-0.63 0.32)"/><path class="cls-2" d="M107.19,131.52c-.36.2-.76,0-1.14.08" transform="translate(-0.63 0.32)"/><path class="cls-2" d="M30.19,116c-.33-.38-.73-.28-1.14-.17" transform="translate(-0.63 0.32)"/><path class="cls-2" d="M62.69,132.66c.38.15.66.56,1.15.41" transform="translate(-0.63 0.32)"/><path class="cls-2" d="M94.62,132c0,.14.12.35.07.4-.49.47-.29,1.09-.4,1.64" transform="translate(-0.63 0.32)"/><path class="cls-2" d="M109,117a4.21,4.21,0,0,1-1.06-.08" transform="translate(-0.63 0.32)"/><path class="cls-2" d="M108.09,118.21a1.79,1.79,0,0,0,1,.41" transform="translate(-0.63 0.32)"/><path class="cls-2" d="M107.68,122.38a3.41,3.41,0,0,0-1.06-.09" transform="translate(-0.63 0.32)"/><path class="cls-2" d="M31.66,129.64c.23.43.59.43,1,.33" transform="translate(-0.63 0.32)"/><path class="cls-2" d="M38.77,124.25c-.23.33.07.74-.16,1.07" transform="translate(-0.63 0.32)"/><path class="cls-2" d="M19.33,122.21c-.51,0-.71.27-.73.74" transform="translate(-0.63 0.32)"/><path class="cls-2" d="M108.09,117.72l1,.08" transform="translate(-0.63 0.32)"/><path class="cls-2" d="M18.44,135.36a3.29,3.29,0,0,1-1-.25" transform="translate(-0.63 0.32)"/><path class="cls-2" d="M46.28,138.79c.26.36.7,0,1,.24" transform="translate(-0.63 0.32)"/><path class="cls-2" d="M97.07,123a2.7,2.7,0,0,0-.08,1" transform="translate(-0.63 0.32)"/><path class="cls-2" d="M41.87,128.5a1.93,1.93,0,0,1,1,.65" transform="translate(-0.63 0.32)"/><path class="cls-2" d="M68.74,120.66l.4,1" transform="translate(-0.63 0.32)"/><path class="cls-2" d="M91.84,122.29a.3.3,0,0,0-.47-.22c-.26.17-.59.38-.34.8" transform="translate(-0.63 0.32)"/><path class="cls-2" d="M12.07,119.27c0,.36-.51.5-.33.9" transform="translate(-0.63 0.32)"/><path class="cls-2" d="M12.72,120.5c.21.27,0,.76.49.9" transform="translate(-0.63 0.32)"/><path class="cls-2" d="M104.09,129.23c.06.11.11.23.17.33.46.82.49.83,1.3.33" transform="translate(-0.63 0.32)"/><path class="cls-2" d="M5.78,120.74c-1.19.49-1.4,1-1,2.21" transform="translate(-0.63 0.32)"/><path class="cls-2" d="M18,139a1.17,1.17,0,0,0-.9,0" transform="translate(-0.63 0.32)"/><path class="cls-2" d="M13.7,107.27c-.24.53-.93.38-1.22.82" transform="translate(-0.63 0.32)"/><path class="cls-2" d="M63.84,118.05c0,.33-.2.55-.33.81" transform="translate(-0.63 0.32)"/><path class="cls-2" d="M21.21,138.87a1,1,0,0,0-.81-.24" transform="translate(-0.63 0.32)"/><path class="cls-2" d="M4.07,121.48c-.28,0-.56.09-.82-.08" transform="translate(-0.63 0.32)"/><path class="cls-2" d="M43.26,129.23l-1.14.09" transform="translate(-0.63 0.32)"/><path class="cls-2" d="M106,110.62c.45.4.92.76,1.55.32" transform="translate(-0.63 0.32)"/><path class="cls-2" d="M11.82,116a.74.74,0,0,0-.24.73" transform="translate(-0.63 0.32)"/><path class="cls-2" d="M41.3,119.52c.11-.61,0-.73-.74-.57" transform="translate(-0.63 0.32)"/><path class="cls-2" d="M95,118.62c.23,0,.47,0,.65.16,0,.28-.18.45-.49.41" transform="translate(-0.63 0.32)"/><path class="cls-2" d="M108.91,132.17c.18.18.36.38.65.25" transform="translate(-0.63 0.32)"/><path class="cls-2" d="M110.13,112.09c-.35.07-.21.36-.24.57" transform="translate(-0.63 0.32)"/><path class="cls-2" d="M34.77,130.21c.26-.14.54-.05.81-.08" transform="translate(-0.63 0.32)"/><path class="cls-2" d="M259.49,9.93c.06.33.12.66.16,1,.09.61-.14.95-.73.89-1-.11-2.07.11-3.1.09-1.56,0-1.18.12-1.8,1.31,0,.08,0,.11.08.08h.08l.09,0" transform="translate(-0.63 0.32)"/><path class="cls-2" d="M273.37,11h-1.49c.1.66.06,1.3.15,2a7.68,7.68,0,0,1-.45,3" transform="translate(-0.63 0.32)"/><path class="cls-2" d="M262.28,12.89a1.28,1.28,0,0,1,1.28.93c.17.42.54.75.71,1.21a2.4,2.4,0,0,1,.25.77.9.9,0,0,0,.27.59" transform="translate(-0.63 0.32)"/><path class="cls-2" d="M268.07,10.42a2.74,2.74,0,0,1-.66,2.37" transform="translate(-0.63 0.32)"/><path class="cls-2" d="M278.33,43.62c.16,1.93,0,3.87.09,5.8,0,.49-.38.41-.66.49" transform="translate(-0.63 0.32)"/><path class="cls-2" d="M274,11.46c-.1.64,0,1.28,0,1.95a3.73,3.73,0,0,1-1.25.06" transform="translate(-0.63 0.32)"/><path class="cls-2" d="M269.73,11.33a17.76,17.76,0,0,0,0,1.79,1.17,1.17,0,0,1-.05.49" transform="translate(-0.63 0.32)"/><path class="cls-2" d="M271.08,11.19c-.1.75,0,1.49-.05,2.24" transform="translate(-0.63 0.32)"/><path class="cls-2" d="M274.35,10.12a.46.46,0,0,1,.18.44,1.71,1.71,0,0,0,.58,1.44" transform="translate(-0.63 0.32)"/><path class="cls-2" d="M273.14,11a1.42,1.42,0,0,1,.33,1c0,.46.15.92.16,1.39" transform="translate(-0.63 0.32)"/><path class="cls-2" d="M243.79,13.49a2.47,2.47,0,0,0,.55,2,2.34,2.34,0,0,1,.67,1.62c0,.46.41.51.65.73" transform="translate(-0.63 0.32)"/><path class="cls-2" d="M273.85,10.47a16.27,16.27,0,0,0,0,1.71c0,.15.05.3-.05.44" transform="translate(-0.63 0.32)"/><path class="cls-2" d="M269.24,14a3.72,3.72,0,0,1,1.43,1.8c.16.4.28.82.48,1.21a.93.93,0,0,0,.6.53" transform="translate(-0.63 0.32)"/><path class="cls-2" d="M248.93,15.28a19.82,19.82,0,0,0-.08,2.78c0,.3.08.61-.08.9" transform="translate(-0.63 0.32)"/><path class="cls-2" d="M271.53,9.22a11.08,11.08,0,0,0,0,1.52c0,.15,0,.31,0,.45" transform="translate(-0.63 0.32)"/><path class="cls-2" d="M271.35,8.77a10.46,10.46,0,0,0-.05,1.48c0,.16.05.34,0,.49" transform="translate(-0.63 0.32)"/><path class="cls-2" d="M273.21,9.85a3.13,3.13,0,0,0-2.29-.24,17.76,17.76,0,0,1-2.53.24" transform="translate(-0.63 0.32)"/><path class="cls-2" d="M267.14,11.83a8.71,8.71,0,0,0-.05,1.35c0,.16.05.33,0,.49" transform="translate(-0.63 0.32)"/><path class="cls-2" d="M264.72,10.34a2.85,2.85,0,0,1-1.64.52,1.39,1.39,0,0,0-1.09.35,1.21,1.21,0,0,1-1.35.17,2,2,0,0,0-.82-.14" transform="translate(-0.63 0.32)"/><path class="cls-2" d="M270.54,10c-.13.59,0,1.2-.09,1.79" transform="translate(-0.63 0.32)"/><path class="cls-2" d="M270,13.44c-.25,1.08.07,2.19-.17,3.27" transform="translate(-0.63 0.32)"/><path class="cls-2" d="M263.82,60.78c-.24,1.08.08,2.19-.16,3.27" transform="translate(-0.63 0.32)"/><path class="cls-2" d="M268.93,8.28a7.88,7.88,0,0,0,0,1.75" transform="translate(-0.63 0.32)"/><path class="cls-2" d="M265.46,9.35c-.13.57,0,1.14-.09,1.71" transform="translate(-0.63 0.32)"/><path class="cls-2" d="M278,10.3a1.46,1.46,0,0,1,.33,1.2,7.06,7.06,0,0,0,0,1.3" transform="translate(-0.63 0.32)"/><path class="cls-2" d="M268.84,10.74a6.13,6.13,0,0,0,0,1.21,1.32,1.32,0,0,1,0,.49" transform="translate(-0.63 0.32)"/><path class="cls-2" d="M269.2,10.65c-.13.57,0,1.14-.09,1.71" transform="translate(-0.63 0.32)"/><path class="cls-2" d="M269.6,8.55c0,.4,0,.81,0,1.21,0,.15,0,.3,0,.45" transform="translate(-0.63 0.32)"/><path class="cls-2" d="M268,12.22c.2.16.53.08.59.49.12.76.81,1.47.15,2.29" transform="translate(-0.63 0.32)"/><path class="cls-2" d="M265.29,14.26a10.34,10.34,0,0,0,0,2.94" transform="translate(-0.63 0.32)"/><path class="cls-2" d="M264.55,13a20.59,20.59,0,0,1-.08,2.94" transform="translate(-0.63 0.32)"/><path class="cls-2" d="M265,13.61c-.24,1,.08,2-.16,2.94" transform="translate(-0.63 0.32)"/><path class="cls-2" d="M189.08,14.06c-.23.94.08,1.91-.16,2.85" transform="translate(-0.63 0.32)"/><path class="cls-2" d="M273.23,11.55c-.13.52,0,1-.09,1.57" transform="translate(-0.63 0.32)"/><path class="cls-2" d="M258.5,51.64a10.77,10.77,0,0,1-.17,2.12,11.68,11.68,0,0,1-.08,2.29" transform="translate(-0.63 0.32)"/><path class="cls-2" d="M232.07,10c-.24.92.08,1.87-.16,2.78" transform="translate(-0.63 0.32)"/><path class="cls-2" d="M270.72,10.56c-.13.51,0,1-.09,1.53" transform="translate(-0.63 0.32)"/><path class="cls-2" d="M274.53,57c-.24.92.07,1.86-.16,2.78" transform="translate(-0.63 0.32)"/><path class="cls-2" d="M227.94,19.12a1,1,0,0,1-.09,1.05c-.41.61-.52,1.4-1.13,1.89-.08.06-.11.11-.08.16.46.89,0,1.8.06,2.7a3.09,3.09,0,0,1-1,2.77" transform="translate(-0.63 0.32)"/><path class="cls-2" d="M274.93,8.32c-.13.49,0,1-.09,1.48" transform="translate(-0.63 0.32)"/><path class="cls-2" d="M268.93,10.74a5,5,0,0,1,0,1.44" transform="translate(-0.63 0.32)"/><path class="cls-2" d="M270.11,12.14a4.23,4.23,0,0,0,.34,1.87c.17.46-.21,1.07.39,1.39" transform="translate(-0.63 0.32)"/><path class="cls-2" d="M243.47,24.35c-.23.85.07,1.75-.16,2.61" transform="translate(-0.63 0.32)"/><path class="cls-2" d="M256.8,14.59a17.47,17.47,0,0,0-.08,2.61" transform="translate(-0.63 0.32)"/><path class="cls-2" d="M231.29,38.15c-.23.83.07,1.7-.16,2.53" transform="translate(-0.63 0.32)"/><path class="cls-2" d="M261.78,13.28a16.46,16.46,0,0,1-.08,2.53" transform="translate(-0.63 0.32)"/><path class="cls-2" d="M264.23,13a15.4,15.4,0,0,1-.08,2.45" transform="translate(-0.63 0.32)"/><path class="cls-2" d="M271.7,9.85a4.3,4.3,0,0,0,0,1.34" transform="translate(-0.63 0.32)"/><path class="cls-2" d="M273.68,9.85c-.13.41,0,.84-.09,1.25" transform="translate(-0.63 0.32)"/><path class="cls-2" d="M275.57,21.65a2.79,2.79,0,0,1,.13,1.25" transform="translate(-0.63 0.32)"/><path class="cls-2" d="M221.79,16.55c-.23.75.08,1.53-.16,2.28" transform="translate(-0.63 0.32)"/><path class="cls-2" d="M269.91,11.73c-.14.53.07,1.08-.09,1.61" transform="translate(-0.63 0.32)"/><path class="cls-2" d="M262.19,13.77c-.23.7.06,1.43-.17,2.12" transform="translate(-0.63 0.32)"/><path class="cls-2" d="M202.83,28.88c-.23.69.06,1.43-.17,2.12" transform="translate(-0.63 0.32)"/><path class="cls-2" d="M278.42,42.49a5.75,5.75,0,0,0-3.43.65" transform="translate(-0.63 0.32)"/><path class="cls-2" d="M212.32,10.83a9.9,9.9,0,0,1-.08,2" transform="translate(-0.63 0.32)"/><path class="cls-2" d="M270.76,12a9.84,9.84,0,0,1-.08,2" transform="translate(-0.63 0.32)"/><path class="cls-2" d="M261.13,13.44a9.08,9.08,0,0,1-.09,1.88" transform="translate(-0.63 0.32)"/><path class="cls-2" d="M269.29,12.14a7.65,7.65,0,0,1-.08,1.79" transform="translate(-0.63 0.32)"/><path class="cls-2" d="M253.52,43.57a7.63,7.63,0,0,1-.08,1.72" transform="translate(-0.63 0.32)"/><path class="cls-2" d="M269.21,48.05a18.71,18.71,0,0,0-.08,2.37,1.6,1.6,0,0,1-.08.65" transform="translate(-0.63 0.32)"/><path class="cls-2" d="M259.33,70.58a11.65,11.65,0,0,0-.09,2.13,1.8,1.8,0,0,1-.07.89" transform="translate(-0.63 0.32)"/><path class="cls-2" d="M256.31,14.75a2.82,2.82,0,0,1,0,1.47" transform="translate(-0.63 0.32)"/><path class="cls-2" d="M263.9,13a5.17,5.17,0,0,1-.08,1.47" transform="translate(-0.63 0.32)"/><path class="cls-2" d="M259.41,13.36a5,5,0,0,1,.08,1.39" transform="translate(-0.63 0.32)"/><path class="cls-2" d="M268.12,9.4a3.06,3.06,0,0,0-1.48.31" transform="translate(-0.63 0.32)"/><path class="cls-2" d="M267.7,17.21a1.26,1.26,0,0,0,0,.72" transform="translate(-0.63 0.32)"/><path class="cls-2" d="M271.61,83.13a5.31,5.31,0,0,0,0,2.21" transform="translate(-0.63 0.32)"/><path class="cls-2" d="M260.47,13.61c0,.38.1.77-.08,1.14" transform="translate(-0.63 0.32)"/><path class="cls-2" d="M257.12,15.57a1.54,1.54,0,0,0,0,1.06" transform="translate(-0.63 0.32)"/><path class="cls-2" d="M273.59,11.28a.72.72,0,0,1,0,.54" transform="translate(-0.63 0.32)"/><path class="cls-2" d="M259.82,13.61c-.05.27.09.56-.08.81" transform="translate(-0.63 0.32)"/><path class="cls-2" d="M256.14,14.75c-.21.24.06.58-.16.82" transform="translate(-0.63 0.32)"/><path class="cls-2" d="M273.05,11.65c-.05.27.09.56-.08.81" transform="translate(-0.63 0.32)"/><path class="cls-2" d="M262.27,13.61c.53-.1.49.68,1,.65" transform="translate(-0.63 0.32)"/><path class="cls-2" d="M268.39,11.4a1.56,1.56,0,0,0,.74.08" transform="translate(-0.63 0.32)"/><path class="cls-2" d="M273.37,11.81v.65" transform="translate(-0.63 0.32)"/><path class="cls-2" d="M269,12.14c0,.21.1.45-.08.65" transform="translate(-0.63 0.32)"/><path class="cls-2" d="M256.23,14.59c-.42-.26-.64-.25-1.23.08" transform="translate(-0.63 0.32)"/></svg>