<?xml version="1.0" encoding="utf-8"?>
<!-- Generator: Adobe Illustrator 25.2.1, SVG Export Plug-In . SVG Version: 6.00 Build 0)  -->
<svg version="1.1" id="Layer_1" xmlns="http://www.w3.org/2000/svg" xmlns:xlink="http://www.w3.org/1999/xlink" x="0px" y="0px"
	 viewBox="0 0 280.4 151" style="enable-background:new 0 0 280.4 151;" xml:space="preserve">
<style type="text/css">
	.st0{fill:url(#SVGID_1_);}
	.st1{fill:none;stroke:#FFFFFF;stroke-width:0.9745;}
	.st2{fill:url(#SVGID_2_);}
	.st3{fill:url(#SVGID_3_);}
	.st4{fill:url(#SVGID_4_);}
	.st5{fill:url(#SVGID_5_);}
	.st6{fill:none;stroke:#FFFFFF;stroke-width:0.6497;}
</style>
<g>
	<g>
		
			<linearGradient id="SVGID_1_" gradientUnits="userSpaceOnUse" x1="149.2583" y1="89.9982" x2="95.1525" y2="43.3428" gradientTransform="matrix(1 0 0 -1 0 111.6759)">
			<stop  offset="0" style="stop-color:#3B8EA8"/>
			<stop  offset="1" style="stop-color:#5200FF"/>
		</linearGradient>
		<path class="st0" d="M106.6,0.6h49.1c3.6,0,6.5,2.9,6.5,6.5v60.4c0,3.6-2.9,6.5-6.5,6.5h-49.1c-3.6,0-6.5-2.9-6.5-6.5V7.1
			C100.1,3.5,103,0.6,106.6,0.6z"/>
		<path class="st1" d="M106.6,1.1h49.1c3.3,0,6,2.7,6,6v60.4c0,3.3-2.7,6-6,6h-49.1c-3.3,0-6-2.7-6-6V7.1
			C100.6,3.8,103.3,1.1,106.6,1.1z"/>
	</g>
	<g>
		
			<linearGradient id="SVGID_2_" gradientUnits="userSpaceOnUse" x1="154.6285" y1="-12.7367" x2="117.6243" y2="-27.777" gradientTransform="matrix(1 0 0 -1 0 111.6759)">
			<stop  offset="0" style="stop-color:#A300DC"/>
			<stop  offset="1" style="stop-color:#FFC700"/>
			<stop  offset="1" style="stop-color:#FF0FF5"/>
		</linearGradient>
		<path class="st2" d="M140.4,104.9H153c3.6,0,6.5,2.9,6.5,6.5v32.5c0,3.6-2.9,6.5-6.5,6.5h-12.7c-3.6,0-6.5-2.9-6.5-6.5v-32.5
			C133.9,107.8,136.8,104.9,140.4,104.9z"/>
		<path class="st1" d="M140.4,105.4H153c3.3,0,6,2.7,6,6v32.5c0,3.3-2.7,6-6,6h-12.7c-3.3,0-6-2.7-6-6v-32.5
			C134.4,108.1,137,105.4,140.4,105.4z"/>
	</g>
	<g>
		
			<linearGradient id="SVGID_3_" gradientUnits="userSpaceOnUse" x1="153.9989" y1="88.7177" x2="225.9188" y2="-8.3571" gradientTransform="matrix(1 0 0 -1 0 111.6759)">
			<stop  offset="0" style="stop-color:#139CE9"/>
			<stop  offset="1" style="stop-color:#1400FF"/>
		</linearGradient>
		<path class="st3" d="M176.1,12.3h37c3.6,0,6.5,2.9,6.5,6.5v117.9c0,3.6-2.9,6.5-6.5,6.5h-37c-3.6,0-6.5-2.9-6.5-6.5V18.8
			C169.6,15.2,172.5,12.3,176.1,12.3z"/>
		<path class="st1" d="M176.1,12.8h37c3.3,0,6,2.7,6,6v117.9c0,3.3-2.7,6-6,6h-37c-3.3,0-6-2.7-6-6V18.8
			C170.1,15.5,172.8,12.8,176.1,12.8z"/>
	</g>
	<g>
		
			<linearGradient id="SVGID_4_" gradientUnits="userSpaceOnUse" x1="49.9298" y1="94.7187" x2="89.8495" y2="55.1853" gradientTransform="matrix(1 0 0 -1 0 111.6759)">
			<stop  offset="0" style="stop-color:#139CE9"/>
			<stop  offset="1" style="stop-color:#1400FF"/>
		</linearGradient>
		<path class="st4" d="M69.2,4.5h6.5c3.6,0,6.5,2.9,6.5,6.5v56.5c0,3.6-2.9,6.5-6.5,6.5h-6.5c-3.6,0-6.5-2.9-6.5-6.5V11
			C62.7,7.4,65.6,4.5,69.2,4.5z"/>
		<path class="st1" d="M69.2,5h6.5c3.3,0,6,2.7,6,6v56.5c0,3.3-2.7,6-6,6h-6.5c-3.3,0-6-2.7-6-6V11C63.2,7.7,65.9,5,69.2,5z"/>
	</g>
	<g>
		
			<linearGradient id="SVGID_5_" gradientUnits="userSpaceOnUse" x1="93.8632" y1="19.497" x2="89.1362" y2="-34.056" gradientTransform="matrix(1 0 0 -1 0 111.6759)">
			<stop  offset="0" style="stop-color:#7E13E9"/>
			<stop  offset="1" style="stop-color:#FF00C7"/>
		</linearGradient>
		<path class="st5" d="M67.3,80.5H117c3.6,0,6.5,2.9,6.5,6.5v49.7c0,3.6-2.9,6.5-6.5,6.5H67.3c-3.6,0-6.5-2.9-6.5-6.5V87
			C60.8,83.4,63.7,80.5,67.3,80.5z"/>
		<path class="st1" d="M67.3,81H117c3.3,0,6,2.7,6,6v49.7c0,3.3-2.7,6-6,6H67.3c-3.3,0-6-2.7-6-6V87C61.3,83.7,64,81,67.3,81z"/>
	</g>
	<circle class="st6" cx="123.5" cy="92.9" r="34.4"/>
	<circle class="st6" cx="123.5" cy="92.9" r="28.3"/>
</g>
</svg>
