<?xml version="1.0" encoding="utf-8"?>
<!-- Generator: Adobe Illustrator 25.2.1, SVG Export Plug-In . SVG Version: 6.00 Build 0)  -->
<svg version="1.1" id="Layer_1" xmlns="http://www.w3.org/2000/svg" xmlns:xlink="http://www.w3.org/1999/xlink" x="0px" y="0px"
	 viewBox="0 0 280.8 151" style="enable-background:new 0 0 280.8 151;" xml:space="preserve">
<style type="text/css">
	.st0{fill:none;}
	.st1{fill:#5FBB52;}
</style>
<rect class="st0" width="103.6" height="92.7"/>
<path class="st1" d="M198.8,129.6L198.8,129.6C198.9,129.6,198.8,129.6,198.8,129.6c-0.1-0.5-0.4-0.9-0.7-1.3
	c-0.1-0.1-0.1-0.2-0.2-0.3l0.1-0.1c-2.2-3.7-4.2-7.5-6.2-11.2c4.7-4,9.1-8.3,13-12.8c10.7-12.2,18.3-25.8,21.4-39.3
	c1.4-5.9,1.8-11.7,1.4-17.3c-0.2-2-0.5-4.1-1-6v-0.1l0,0l0,0c-1.8-7.6-5.8-14.6-11.3-20.4c0.2,0.1,0.3,0.1,0.5,0.2l0.1-0.2l0,0
	c-0.3-0.1-0.6-0.2-0.9-0.3c-4.7-4.8-10.4-8.6-16.8-11.2c-1-0.4-2-0.7-3-1.1l0,0c-2-0.8-4.1-1.4-6.1-1.9c-2-0.7-4-1.2-6.1-1.7
	c-2.7-0.6-5.4-1.1-8.2-1.4c-7.9-1.5-16.5-1.7-25.2-0.6c-7.7,0.6-15.6,2.3-23.2,4.8l0.1,0.2c6-2,12-3.4,18-4.2
	c-5.2,0.9-10.3,2.2-15.4,3.9l0.1,0.2l0,0l-0.1-0.2c-0.3,0.1-0.6,0.2-0.9,0.3c-0.5,0-1,0-1.5,0.1c-0.8,0.2-1.5,0.5-2,1.1l0,0l0,0
	c-17.3,5.7-33.2,15.7-45.5,28.4c-0.2,0.1-0.3,0.2-0.4,0.4c-0.6,0.6-1.2,1.2-1.7,1.8c-3.1,3.4-6,7.1-8.5,10.8c-1.8,2.5-3.5,5-5.1,7.6
	c-0.8,0.7-1.3,1.7-1.6,2.9c-1.1,1.9-2,3.9-2.9,5.8c3.6-9.1,9.5-18.1,16.9-26.3C89.3,25.6,107.1,14,126.6,7.6l-0.1,0
	C107,14,89.1,25.6,75.7,40.3C67.2,49.6,60.8,60,57.4,70.5c-1.1,2.9-2,5.8-2.7,8.8c-0.9,3.9-1.4,7.9-1.4,11.8c0,0.5,0,1,0,1.5
	c-0.1,1.2-0.2,2.5-0.2,3.7c0,3.5,0.4,7,1.3,10.4c0.4,3.6,1.2,7.1,2.4,10.4c0.2,0.8,0.3,1.5,0.5,2.3h0.2c-0.1-0.3-0.1-0.6-0.2-0.9
	c2.9,7.3,7.7,13.9,14,18.9c0,0.1,0,0.1,0.1,0.2h0.2c2.4,1.9,5,3.5,7.8,4.9c4,2,8.5,3.5,13.1,4.6c0.9,0.2,1.8,0.4,2.6,0.6l0,0l0,0
	c14.4,2.7,31,1.4,47-3.4c11.8-3.5,23.1-8.8,33.5-15.3c3.9,2.5,7.9,5.1,11.8,7.9l0.1-0.1c-3.9-2.7-7.9-5.3-11.8-7.8
	c0.1-0.1,0.2-0.1,0.3-0.2c0.2,0.1,0.4,0.2,0.6,0.2c2.3,1.5,4.6,3,6.9,4.6c0.9,0.6,1.8,1.3,2.7,1.9l0,0c0.1,0,0.1,0.1,0.2,0.1
	c0.5,0.7,1.3,1.3,2.3,1.6c0.2,0.1,0.3,0.2,0.5,0.4l0.1-0.1c0,0-0.1,0-0.1-0.1c0.1,0,0.1,0,0.2,0c0.6,0.1,1.3,0.2,2,0.1l0,0l0,0
	c0.4,0,0.8-0.1,1.3-0.2c3-0.9,5.5-3.2,6-5.7c0.1-0.4,0.1-0.9,0.1-1.3C198.9,130,198.9,129.8,198.8,129.6z M183.7,133.3
	c-2-1.4-4-2.8-6.1-4.2c0.1,0,0.1,0,0.2,0.1c0.8,0.2,1.7,0.3,2.6,0.2c1.8,1.4,3.6,2.8,5.5,4.1c0,0.1,0,0.3,0,0.4
	c0,0.4,0.1,0.7,0.3,1.1C185.4,134.4,184.6,133.9,183.7,133.3z M95.2,147.3c-1-2.6-2-5.1-2.7-7.7c9,1.7,18.9,1.7,29,0.2
	c1.2,2.5,2.5,5.1,4,7.8C115,149.1,104.6,149.1,95.2,147.3z M92.5,139.5c-0.7-2.5-1.3-4.9-1.7-7.2c8.6,1.6,18,1.5,27.5,0.1
	c0.9,2.4,1.9,4.8,3.1,7.3C111.4,141.1,101.5,141.1,92.5,139.5z M53.7,90.8c0.1,1.6,0.5,3.3,0.9,4.9c-0.1,1.1-0.2,2.2-0.3,3.3
	c-0.4-2.2-0.7-4.4-0.8-6.6C53.5,91.9,53.6,91.4,53.7,90.8z M62.1,60.9c0.5-0.9,1-1.9,1.6-2.8c0.2-0.2,0.3-0.3,0.5-0.4
	c-0.9,1.7-1.7,3.4-2.4,5.2c0-0.6,0.1-1.2,0.2-1.7C62,61,62.1,61,62.1,60.9z M78.9,38.2c0-0.1,0.1-0.2,0.1-0.3
	c0.1-0.1,0.2-0.3,0.4-0.4c0.1-0.1,0.3-0.1,0.5-0.1l0,0c-0.4,0.3-0.7,0.7-1.1,1C78.8,38.4,78.8,38.3,78.9,38.2z M100.5,20.8
	c0-0.1,0-0.1,0-0.1s0.1-0.1,0.3,0c0,0,0.1,0,0.2,0.1c-0.1,0.1-0.3,0.2-0.4,0.2C100.6,20.9,100.6,20.9,100.5,20.8z M101.2,20.8
	c0.3,0.1,0.7,0.4,1.2,0.6c-0.4,0.3-0.8,0.5-1.3,0.8c-0.2-0.4-0.4-0.7-0.5-1.1C100.9,21,101.1,20.9,101.2,20.8z M160.1,2.8
	c0.4,0.1,0.8,0.1,1.2,0.2c-3.7,0.2-7.5,0.6-11.2,1.2c1.1-0.7,2.4-1.2,3.8-1.5C156,2.7,158,2.7,160.1,2.8z M156.1,2.5
	c0.4,0,0.9,0,1.3,0C157,2.5,156.5,2.5,156.1,2.5z M189.1,6.6c0.2,0.1,0.4,0.1,0.6,0.2c-0.1,0-0.2,0-0.3-0.1c-2-0.4-3.9-0.8-6-1.1
	l0,0c1.7,0.2,3.4,0.4,5.1,0.8C188.8,6.5,189,6.6,189.1,6.6z M191.5,7.5c6.1,2.4,11.5,6.1,15.9,10.6c-0.6-0.1-1.1-0.3-1.7-0.4
	c-1.7-0.4-3.4-0.7-5-0.9c-4.3-4.5-9.5-8.1-15.5-10.5c-0.3-0.1-0.5-0.2-0.8-0.3c1.7,0.3,3.4,0.6,5,1c0.6,0.1,1.2,0.3,1.9,0.5
	C191.4,7.4,191.4,7.4,191.5,7.5z M217.5,62.2c-2.6-1.3-5.1-2.6-7.6-3.6c0.2-0.8,0.4-1.5,0.6-2.3c1.2-5.2,1.7-10.4,1.3-15.4
	c-0.1-1.8-0.4-3.6-0.8-5.4c2.5,0.6,5,1.5,7.6,2.4c0.4,1.9,0.7,3.8,0.9,5.7c0.4,5.3-0.1,10.8-1.3,16.4
	C217.9,60.7,217.7,61.5,217.5,62.2z M212.6,94c-2.5-2-5-3.9-7.5-5.7c5.9-8.4,10.2-17.1,12.6-25.9c2.6,1.4,5.3,2.9,7.9,4.5
	C223.2,76.1,218.7,85.3,212.6,94z M204.9,88.2c-2.4-1.7-4.8-3.4-7.1-4.9c5.6-7.9,9.7-16.3,12-24.6c2.5,1.1,5,2.3,7.6,3.6
	C215.1,71.1,210.8,79.9,204.9,88.2z M192.1,118.3c0,0.4,0,0.7,0,1.1c-0.3-0.6-0.7-1.2-1-1.8c0.2-0.2,0.5-0.4,0.7-0.6
	c0.1,0.2,0.2,0.3,0.3,0.5C192,117.8,192.1,118.1,192.1,118.3z M191.9,120.3L191.9,120.3c-0.5-0.8-0.9-1.5-1.3-2.3
	c0.1-0.1,0.2-0.1,0.3-0.2c0.4,0.7,0.8,1.3,1.1,2C192,119.9,191.9,120.1,191.9,120.3z M185.8,127.5c-1.1-1.1-2.3-2.2-3.4-3.3
	c0.7-0.5,1.5-1,2.2-1.6c1,1.2,2.1,2.3,3.2,3.6C187.2,126.7,186.5,127.1,185.8,127.5z M162.2,119.9c-0.5-0.4-1-0.8-1.4-1.3
	c1.7,1,3.4,2,5,3.1c-0.5-0.1-0.9-0.3-1.4-0.5C163.7,120.7,163,120.3,162.2,119.9z M56.9,104.1c0.2-0.9,0.5-1.8,0.8-2.6
	c2.5,6,6.6,11.3,11.8,15.4c-0.4,1.9-0.6,3.9-0.6,6c-5.5-4.4-9.8-10.2-12.4-16.6C56.6,105.5,56.7,104.8,56.9,104.1z M56,89
	c0.4-1.7,0.8-3.4,1.4-5c0.1,4.4,1.1,8.8,2.8,12.9c-1,1.2-1.8,2.6-2.4,4.2c-1.1-2.8-2-5.7-2.4-8.6C55.5,91.2,55.7,90.1,56,89z
	 M57.5,82.6c0-1.5,0.1-2.9,0.3-4.4c0.3-0.2,0.5-0.4,0.8-0.6s0.7-0.4,1-0.6C58.9,78.8,58.2,80.7,57.5,82.6z M60,76.8
	c0.5-0.2,1-0.5,1.6-0.7c-0.2,1.5-0.3,3-0.3,4.5c0,4.4,0.9,8.7,2.7,12.8c-1.2,0.8-2.3,1.7-3.2,2.7c-0.2,0.2-0.3,0.4-0.5,0.6
	c-1.8-4.2-2.7-8.7-2.7-13.3C58.2,81.1,59,79,60,76.8z M161.9,3.1c1.8,0.4,3.6,1,5.4,1.8c-1.1,0.1-2.2,0.1-3.4,0.2
	c-4.2-0.7-8.5-1-13-0.9C154.7,3.7,158.3,3.3,161.9,3.1z M183.5,5.8c0.5,0.2,1.1,0.4,1.6,0.6c5.9,2.3,11.1,5.9,15.3,10.3
	c-2.2-0.3-4.3-0.3-6.3-0.2c-4-4.3-9-7.8-14.7-10c-0.7-0.3-1.4-0.5-2.1-0.8c1.1-0.1,2.3-0.2,3.5-0.2C181.8,5.6,182.6,5.7,183.5,5.8z
	 M209.7,58.5c-2.4-1-4.8-1.9-7.2-2.6c0.2-0.8,0.4-1.5,0.6-2.3c1.1-4.9,1.6-9.7,1.2-14.4c-0.1-1.7-0.4-3.4-0.8-5.1
	c1.8,0.2,3.7,0.5,5.6,1c0.5,0.1,1,0.2,1.5,0.4c0.4,1.8,0.7,3.6,0.8,5.4c0.4,5-0.1,10.2-1.3,15.4C210.1,57,209.9,57.7,209.7,58.5z
	 M188.7,114c-0.1-0.1-0.3-0.1-0.4-0.2c-0.7-1.3-1.4-2.6-2-3.9c0-0.1,0-0.2,0.1-0.3C187.1,111.2,187.9,112.6,188.7,114z M191.2,116.1
	c0.1,0.3,0.3,0.5,0.4,0.8c-0.2,0.2-0.5,0.4-0.7,0.6c-0.6-1-1.1-2-1.7-3C190,114.9,190.7,115.5,191.2,116.1z M190.7,117.6
	c-0.1,0.1-0.2,0.1-0.3,0.2c-0.7-1.2-1.4-2.5-2-3.7c0.1,0.1,0.3,0.1,0.4,0.2C189.5,115.4,190.1,116.5,190.7,117.6z M159.4,117.5
	c-0.8-0.5-1.5-0.9-2.3-1.4c0.8,0.1,1.6,0.2,2.3,0.2c0.1,0.3,0.2,0.6,0.3,1C159.6,117.3,159.5,117.4,159.4,117.5z M159.8,117.4
	c0.1,0.2,0.2,0.3,0.3,0.5c-0.2-0.1-0.4-0.2-0.6-0.3C159.7,117.5,159.8,117.5,159.8,117.4z M69.9,116.1c0.4-1.6,0.9-3.1,1.6-4.6
	c1.9,1.5,4,2.8,6.2,3.8c3.1,1.5,6.4,2.6,10,3.4c0.9,0.2,1.8,0.4,2.7,0.5c-0.4,1.9-0.5,3.9-0.5,5.9c-0.9-0.2-1.8-0.3-2.7-0.6
	c-3.8-0.9-7.4-2.1-10.8-3.7c-2.4-1.2-4.6-2.6-6.7-4.2C69.8,116.6,69.8,116.3,69.9,116.1z M74.9,52.7c1.2-1.5,2.4-2.9,3.7-4.3
	c2.4-2.7,5-5.3,7.7-7.8c0.2,0.1,0.3,0.2,0.5,0.3c0.9,0.6,1.8,1.2,2.8,1.8c-4.7,4.8-8.6,10.1-11.4,15.6c-1.4-0.5-2.7-0.8-4-1.1
	c-0.6-0.1-1.2-0.2-1.7-0.3C73.3,55.4,74,54.1,74.9,52.7z M72.3,56.8c-0.2,0-0.4-0.1-0.6-0.1c0.7-1,1.5-2,2.3-2.9
	C73.4,54.8,72.8,55.8,72.3,56.8z M202.4,55.8c-1.3-0.4-2.6-0.8-3.9-1c-0.9-0.2-1.8-0.4-2.7-0.5c0.2-0.8,0.4-1.5,0.6-2.3
	c1-4.5,1.4-9,1.1-13.3c-0.1-1.6-0.3-3.2-0.7-4.8c2.1-0.1,4.3,0,6.5,0.2c0.4,1.7,0.6,3.4,0.8,5.1c0.3,4.7-0.1,9.5-1.2,14.3
	C202.8,54.3,202.6,55,202.4,55.8z M181.4,94c0.2,0.4,0.3,0.9,0.4,1.4c-0.4-1-0.8-1.9-1.2-2.9c0.3,0.4,0.5,0.9,0.7,1.3
	C181.3,93.9,181.3,94,181.4,94z M177.8,119.7c-0.7-0.7-1.4-1.4-2.1-2.1c0.2-0.2,0.5-0.5,0.8-0.7c0.7-0.5,1.3-0.9,1.9-1.4
	c0.7,0.8,1.4,1.6,2.1,2.4C179.6,118.6,178.7,119.2,177.8,119.7z M171.1,122.2c0.6-0.1,1.1-0.2,1.7-0.3c0,0.1-0.1,0.2-0.1,0.3
	c-0.1,0.3-0.1,0.6-0.1,0.9C172.1,122.9,171.6,122.6,171.1,122.2z M170.9,122.1c-0.3-0.2-0.6-0.4-0.9-0.6c0,0-0.1-0.1-0.2-0.1
	c0.8-0.5,1.7-1.1,2.5-1.6c0.3,0.3,0.7,0.5,1,0.8c-0.2,0.4-0.3,0.8-0.5,1.2C172.2,121.9,171.6,122,170.9,122.1z M159.5,114.9
	c0-0.2,0-0.4,0-0.5c0.8,0.5,1.5,1,2.3,1.6c-0.2,0-0.3,0-0.5,0.1C160.7,115.7,160.1,115.3,159.5,114.9z M161,116c-0.5,0-0.9,0-1.4,0
	c-0.1-0.3-0.1-0.6-0.1-0.9c0,0,0,0,0-0.1C160,115.4,160.5,115.7,161,116z M90.8,118.3c0-0.1,0.1-0.3,0.1-0.4
	c0.3-1.3,0.8-2.6,1.4-3.8c7,1.2,14.7,1.1,22.5-0.1c-0.2,1.2-0.2,2.5-0.1,3.8c0,0.4,0.1,0.9,0.1,1.3c-8.4,1.3-16.7,1.4-24.2,0
	C90.7,118.9,90.8,118.6,90.8,118.3z M137,10.7L137,10.7L137,10.7c3.2-1,6.4-1.9,9.6-2.6c-0.5,1-0.9,2.2-1.2,3.5l0,0
	c-6.3,0.2-12.8,1.4-19.1,3.3C129.8,13.4,133.4,12,137,10.7L137,10.7z M195.6,54.2c-0.5-0.1-1-0.2-1.5-0.2c-1.5-0.2-2.9-0.3-4.3-0.2
	c0.2-0.8,0.4-1.5,0.6-2.3c1-4.1,1.3-8.2,1.1-12.2c-0.1-1.5-0.3-2.9-0.6-4.3c1.4-0.4,2.9-0.7,4.4-0.9c0.5-0.1,0.9-0.1,1.4-0.1
	c0.3,1.6,0.6,3.1,0.7,4.7c0.3,4.3-0.1,8.8-1.1,13.3C196,52.6,195.8,53.4,195.6,54.2z M181.8,96.1c0.1,1.1-0.1,2.3-0.3,3.5
	c0,0.1,0,0.2-0.1,0.2c-0.9-2.1-1.8-4.2-2.6-6.3c0.5-0.4,0.9-0.9,1.3-1.3C180.7,93.5,181.3,94.8,181.8,96.1z M184,114.2
	c-0.3,0.4-0.5,0.7-0.8,1c-0.4-0.5-0.7-1-1.1-1.5c0.5-0.1,0.9-0.2,1.4-0.3c0.1,0.1,0.1,0.2,0.2,0.2C183.8,113.9,183.9,114,184,114.2z
	 M147.7,110.8c-0.5-0.7-0.8-1.4-1-2.1c0.1,0,0.1-0.1,0.2-0.1c1.2,0.5,2.3,1.1,3.5,1.7c0.5,0.3,1,0.5,1.6,0.8c-1.3,0.1-2.6,0.1-3.8,0
	C148,111,147.9,110.9,147.7,110.8z M137.4,108.3c-0.3-0.1-0.7-0.3-1-0.4c0.1,0,0.1,0,0.2-0.1c0.7,0.1,1.4,0.1,2.1,0.1
	c0.5,0.4,1.1,0.7,1.7,1c0.1,0.2,0.2,0.4,0.2,0.5C139.5,109,138.4,108.7,137.4,108.3z M115.4,112.5c0.2-1,0.5-1.9,0.9-2.8
	c3.6-0.6,7.2-1.4,10.8-2.6c1-0.3,1.9-0.6,2.9-1c1.1,0.5,2.3,0.9,3.6,1.2c0.4,0.1,0.7,0.1,1.1,0.2c0.4,0.1,0.7,0.2,1.1,0.4
	c-2.9,1.2-5.8,2.2-8.7,3.1c-4,1.2-8,2.2-12,2.8C115.2,113.4,115.3,112.9,115.4,112.5z M124,15.9c0.3,1.5,0.7,3.2,1.3,4.9
	c-6.7,2.2-13.1,5.2-19,8.8c-0.8-1-1.5-2-2.1-2.9C110.4,22.6,117.1,18.9,124,15.9z M189.5,53.7c-1.8,0.1-3.4,0.4-5,0.8
	c0.2-0.8,0.4-1.6,0.6-2.4c0.9-3.8,1.2-7.5,1-11.2c-0.1-1.3-0.3-2.6-0.5-3.8c1.6-0.9,3.2-1.7,5-2.3c0.3,1.4,0.5,2.8,0.6,4.3
	c0.3,4-0.1,8.1-1.1,12.2C190,52.2,189.8,53,189.5,53.7z M180.1,91.9c-0.4,0.4-0.9,0.9-1.3,1.3c-0.3-0.8-0.6-1.6-0.9-2.4
	c0.1-0.2,0.1-0.4,0.2-0.6c0-0.1,0-0.1,0-0.2C178.9,90.6,179.6,91.2,180.1,91.9L180.1,91.9z M181.8,101.1c-0.1-0.1-0.3-0.1-0.4-0.2
	c0.1-0.1,0.1-0.3,0.1-0.4C181.6,100.6,181.7,100.8,181.8,101.1C181.8,101,181.8,101,181.8,101.1z M168,114.1c-0.4-0.3-0.8-0.7-1.3-1
	c0.8-0.5,1.5-1,2.2-1.5c0.5,0.4,0.9,0.9,1.4,1.3C169.6,113.3,168.9,113.7,168,114.1z M170.5,113c1.6,1.5,3.1,3,4.7,4.5
	c-0.5,0.4-1.1,0.8-1.6,1.1c-1.8-1.5-3.6-3-5.4-4.4C169,113.9,169.8,113.5,170.5,113z M159.2,108.9c0.3-0.2,0.6-0.4,1-0.6
	c0.2,0.1,0.3,0.2,0.5,0.4c-0.4,0.2-0.8,0.3-1.1,0.5C159.4,109.1,159.3,109,159.2,108.9z M159.3,109.3c-0.5,0.2-1,0.4-1.5,0.6
	c0.4-0.3,0.9-0.5,1.3-0.8C159.2,109.1,159.3,109.2,159.3,109.3z M149,107.3c-0.3-0.2-0.6-0.4-0.9-0.6c0.5-0.1,1-0.3,1.4-0.4
	c1-0.3,1.9-0.6,2.8-1C151.3,106,150.1,106.7,149,107.3z M146.6,108.3c-0.1-0.4-0.1-0.7-0.2-1.1c0.5-0.1,1-0.2,1.5-0.3
	c0.3,0.2,0.6,0.4,0.9,0.6c-0.6,0.3-1.3,0.7-1.9,1C146.8,108.4,146.7,108.3,146.6,108.3z M146.7,108.5
	C146.7,108.5,146.6,108.5,146.7,108.5C146.6,108.5,146.6,108.5,146.7,108.5C146.6,108.5,146.7,108.5,146.7,108.5z M139.3,106.4
	c-0.9-0.5-1.9-0.9-2.8-1.4c0.2,0,0.5-0.1,0.7-0.1c0.6,0.2,1.3,0.4,1.9,0.6C139.1,105.8,139.2,106.1,139.3,106.4L139.3,106.4z
	 M136.5,107.6c-0.3,0-0.7-0.1-1-0.1c-1.5-0.6-2.9-1.2-4.4-1.7c0.4-0.1,0.7-0.3,1.1-0.4c1.1,0,2.3-0.1,3.4-0.3c0.6,0.7,1.2,1.4,2,2
	C137.2,107.3,136.9,107.4,136.5,107.6z M137.7,107.3c0.2,0.2,0.4,0.3,0.6,0.4c-0.5,0-1,0-1.4-0.1
	C137.2,107.5,137.5,107.4,137.7,107.3z M127.9,27.3c5.7-1.9,11.6-2.9,17.3-3.1c0.2,1.2,0.3,2.5,0.6,3.8c0.2,1.3,0.5,2.7,0.9,4.1
	c-5,0.2-10.3,1.1-15.3,2.8c-0.3-0.5-0.5-1.1-0.8-1.6c-0.4-0.8-0.7-1.5-1.1-2.3C128.9,29.7,128.4,28.5,127.9,27.3z M162.2,19.7
	c0.6,0.2,1.1,0.4,1.7,0.6c4.2,1.7,7.8,4.3,10.7,7.6c-1,1.7-1.9,3.6-2.6,5.6c-2.6-2.9-5.9-5.3-9.6-6.8c-0.5-0.2-1.1-0.4-1.6-0.6
	c0.2-1.4,0.4-2.7,0.7-4C161.8,21.3,162,20.5,162.2,19.7z M180,56.5c-1,0.7-1.9,1.4-2.7,2.3c0.1-0.3,0.2-0.7,0.3-1
	c0.7-3.2,1-6.3,0.8-9.5c-0.1-1.1-0.2-2.2-0.4-3.2c0.9-1.6,1.9-3,3.2-4.3c0.2,1.1,0.4,2.2,0.4,3.2c0.2,3.3-0.1,6.6-0.9,10
	C180.5,54.9,180.3,55.7,180,56.5z M175.8,79.9c-0.1-0.1-0.2-0.3-0.4-0.4c0.1-0.1,0.1-0.2,0.2-0.3C175.7,79.5,175.8,79.7,175.8,79.9
	L175.8,79.9z M175.5,81.7c0,0.2-0.1,0.3-0.1,0.5c-0.2-0.7-0.3-1.4-0.4-2c0.1-0.2,0.3-0.3,0.4-0.5c0.2,0.2,0.3,0.3,0.5,0.5
	C175.7,80.7,175.6,81.2,175.5,81.7z M178.5,115.2c-1.4-1.6-2.8-3.2-4.2-4.7c1.1-0.9,2.1-1.8,3-2.8c1.3,1.8,2.6,3.6,4,5.4
	C180.4,113.7,179.4,114.4,178.5,115.2C178.5,115.1,178.5,115.1,178.5,115.2z M160.9,108.6c-0.2-0.1-0.3-0.3-0.5-0.4
	c0.8-0.5,1.6-1,2.3-1.6c-0.5,0.5-0.9,1.1-1.3,1.7C161.2,108.4,161.1,108.5,160.9,108.6z M161.2,108.7l-0.1,0.1c0,0-0.1,0-0.1-0.1
	C161.1,108.7,161.2,108.7,161.2,108.7z M143.9,104.1c-0.3-0.2-0.6-0.4-0.9-0.6c0.1,0,0.2,0,0.3-0.1c1.3-0.4,2.5-0.8,3.7-1.3
	c0,0.1-0.1,0.3-0.1,0.4C145.9,103.1,144.9,103.6,143.9,104.1z M146.7,102.9c-0.1,0.3-0.2,0.5-0.2,0.8c-0.1,0.6-0.2,1.3-0.3,1.9
	c-0.7-0.4-1.4-0.9-2.1-1.3C145,103.8,145.9,103.3,146.7,102.9z M137.1,104.7c-0.7-0.2-1.3-0.4-1.9-0.5c1.1-0.5,2.2-0.9,3.3-1.4
	c0.1,0.5,0.2,1.1,0.3,1.7C138.2,104.5,137.7,104.6,137.1,104.7z M138.8,104.6c0.1,0.2,0.1,0.5,0.2,0.7c-0.5-0.2-1-0.3-1.5-0.5
	C138,104.8,138.4,104.7,138.8,104.6z M129.4,105.2c-0.6-0.2-1.3-0.5-1.9-0.7c-0.1-0.1-0.2-0.1-0.2-0.2c0.3-0.1,0.6-0.2,0.9-0.3
	c0.3-0.1,0.7-0.2,1-0.3c0.5-0.1,1.1-0.1,1.6-0.2c1.1,0.1,2.2,0.3,3.3,0.6c0.1,0.1,0.2,0.1,0.4,0.2c-0.8,0.3-1.6,0.6-2.4,0.9
	C131.2,105.2,130.3,105.2,129.4,105.2z M131.6,105.4c-0.3,0.1-0.5,0.2-0.8,0.3c-0.3-0.1-0.5-0.2-0.8-0.3
	C130.5,105.4,131,105.4,131.6,105.4z M172.2,33.9c2.8,3.2,4.8,7.1,5.6,11.1c-0.5,0.8-0.9,1.7-1.2,2.6c-0.3,0.9-0.6,1.8-0.9,2.8
	c-0.8-3.5-2.5-6.9-5-9.7c0.2-1.3,0.4-2.6,0.7-3.9c0-0.1,0-0.2,0.1-0.3C171.6,35.7,171.9,34.8,172.2,33.9z M177,59.1
	c-0.5,0.6-0.9,1.3-1.3,2c-0.1,0.2-0.1,0.3-0.2,0.5c0.6-2.6,0.8-5.2,0.6-7.9c-0.1-1-0.2-1.9-0.4-2.9c0.3-1.1,0.6-2.1,1-3.1
	c0.3-0.8,0.7-1.6,1.1-2.3c0.2,1,0.3,1.9,0.4,2.9c0.2,3.1-0.1,6.3-0.8,9.5C177.3,58.2,177.1,58.7,177,59.1z M175.3,73.1L175.3,73.1
	L175.3,73.1L175.3,73.1z M175,73.1c-0.1,0-0.3,0-0.4,0c0.1-0.4,0.1-0.9,0.2-1.3c0.1,0.3,0.3,0.7,0.4,1C175.2,72.9,175.1,73,175,73.1
	z M174.5,73.8c0-0.2,0.1-0.4,0.1-0.6c0.1,0,0.2,0,0.3,0C174.8,73.4,174.6,73.6,174.5,73.8z M126.8,104.2c-0.3-0.1-0.5-0.2-0.8-0.3
	c0.2,0,0.3,0,0.5,0C126.7,104.1,126.8,104.1,126.8,104.2C126.9,104.2,126.8,104.2,126.8,104.2z M175.6,51.3c0.1,0.8,0.3,1.6,0.3,2.4
	c0.2,2.8-0.1,5.6-0.8,8.4c0,0.2-0.1,0.4-0.1,0.5s0,0.1-0.1,0.2c0-0.8,0.1-1.7,0-2.5c0-0.8-0.2-1.7-0.3-2.5c0.1-2.1,0.4-4.1,0.9-6
	C175.5,51.6,175.6,51.5,175.6,51.3z M173.1,77.7c-0.3-0.2-0.6-0.4-1-0.6c0.6-0.7,1.2-1.5,1.7-2.2c0,0.1,0,0.2,0,0.3
	C173.7,76.1,173.4,76.9,173.1,77.7z M174,75.8c0.1,0.9,0.3,1.9,0.4,2.9c-0.4-0.3-0.7-0.6-1.1-0.8C173.6,77.2,173.8,76.5,174,75.8z
	 M149.4,100.9c-0.5-0.3-0.9-0.5-1.4-0.7c0.7-1.4,1.6-2.8,2.7-4c0.4-0.2,0.8-0.4,1.1-0.7c0.9,0.8,1.7,1.6,2.6,2.4
	c-1.2,0.8-2.4,1.6-3.7,2.3C150.3,100.5,149.9,100.7,149.4,100.9z M145.7,98.6c-0.6-0.4-1.1-0.8-1.7-1.2c1.2-0.6,2.3-1.3,3.5-2
	c0.9-0.5,1.7-1,2.6-1.5c0.5,0.4,0.9,0.8,1.4,1.3c-0.2,0.2-0.4,0.5-0.6,0.7c-0.6,0.4-1.3,0.8-1.9,1.2
	C147.8,97.5,146.8,98.1,145.7,98.6z M146.3,98.5c-0.1,0.1-0.3,0.1-0.4,0.2l0,0C146,98.6,146.2,98.6,146.3,98.5z M134.2,103.9
	c-0.5-0.3-1.1-0.5-1.6-0.7c0.5-0.1,1.1-0.2,1.6-0.4c0.2,0.4,0.4,0.9,0.7,1.3C134.6,104,134.4,104,134.2,103.9z M132.3,103
	c-0.2-0.1-0.3-0.1-0.5-0.2c0.7-0.3,1.4-0.5,2.1-0.8c0.1,0.2,0.1,0.4,0.2,0.6C133.5,102.8,132.9,102.9,132.3,103z M122.4,103.8
	c0.3-0.1,0.5-0.2,0.8-0.2c0.3-0.1,0.5-0.1,0.8-0.1h0.1C123.6,103.6,123,103.7,122.4,103.8C122.4,103.9,122.4,103.8,122.4,103.8z
	 M124.4,103.4c0.2,0,0.4-0.1,0.5-0.1c0,0,0,0,0.1,0C124.8,103.4,124.6,103.4,124.4,103.4L124.4,103.4z M122.1,88.6
	c0.4-1.8,1.1-3.5,1.9-5.3c2.8,1.9,5.7,3.9,8.7,6c0.9,0.7,1.9,1.4,2.9,2c-0.7,1.4-1.2,2.8-1.6,4.3c-0.2,0.8-0.3,1.6-0.4,2.4
	c-1-0.6-2-1.1-2.9-1.7c-3-1.7-6-3.3-9-4.9C121.7,90.5,121.8,89.5,122.1,88.6z M174.1,67.6c0,0.1-0.1,0.2-0.1,0.3
	c0-0.2,0.1-0.4,0.1-0.6c0-0.1,0.1-0.2,0.1-0.2C174.2,67.2,174.2,67.4,174.1,67.6z M173.9,74.7c-0.6,0.8-1.2,1.6-1.9,2.4
	c-0.3-0.2-0.7-0.4-1.1-0.5v-0.1c0.6-1,1.1-2,1.5-3.1c0.4-0.1,0.9-0.1,1.4-0.1C173.8,73.7,173.8,74.2,173.9,74.7z M174,73.7
	c0.1,0.2,0.1,0.4,0.2,0.6c0,0.1-0.1,0.1-0.1,0.2C174,74.2,174,73.9,174,73.7z M165.9,89c-0.3,0.3-0.7,0.6-1,0.9
	c-0.5-0.7-0.9-1.3-1.4-2c1.3-0.4,2.6-0.6,4-0.7C167,87.8,166.5,88.4,165.9,89z M167.7,87.2c0,0,0.1,0,0.2,0
	c-0.2,0.2-0.4,0.4-0.6,0.6C167.4,87.6,167.6,87.4,167.7,87.2z M172.1,100.6c-0.3,0.1-0.7,0.2-1,0.3c-0.1-0.1-0.2-0.2-0.3-0.3
	c0.3-0.2,0.6-0.5,0.9-0.7C171.9,100.1,172,100.3,172.1,100.6C172.2,100.5,172.1,100.5,172.1,100.6z M171,101
	c-0.4,0.1-0.7,0.3-1.1,0.5c0.3-0.2,0.6-0.5,0.8-0.7C170.8,100.8,170.9,100.9,171,101z M170.7,100.5c-1.4-1.4-2.8-2.7-4.1-4
	c0.6-0.5,1.1-1,1.6-1.6c1.1,1.6,2.3,3.2,3.4,4.8C171.3,100,171,100.2,170.7,100.5z M137.6,100.3c-0.1-0.1-0.2-0.1-0.3-0.2
	c0.5-0.2,1-0.4,1.5-0.6c0,0.1-0.1,0.2-0.1,0.3C138.3,100,137.9,100.1,137.6,100.3z M138.6,100.1L138.6,100.1
	c-0.1,0.3-0.1,0.5-0.1,0.8c-0.2-0.1-0.5-0.3-0.7-0.4C138,100.3,138.3,100.2,138.6,100.1z M134.1,95.7c0.3-1.4,0.9-2.8,1.5-4.2
	c2.4,1.7,4.9,3.5,7.3,5.3c-2.1,1.1-4.2,2-6.4,2.9c-0.9-0.5-1.9-1.1-2.8-1.6C133.8,97.3,133.9,96.5,134.1,95.7z M147.9,64.2
	c3.2-1,6.5-1.6,9.6-1.6c1.3,2.9,2.7,5.8,4.1,8.7c0.5,1.1,1.1,2.2,1.7,3.3c-2.7-0.2-5.4,0.1-8.1,0.9c-0.6-1-1.3-1.9-1.9-2.9
	C151.4,69.8,149.6,67,147.9,64.2z M174.4,65.4c0,0.1,0,0.1,0.1,0.2c0,0.2-0.1,0.4-0.1,0.6c-0.1,0.1-0.1,0.3-0.2,0.4
	C174.3,66.2,174.3,65.9,174.4,65.4C174.4,65.5,174.4,65.5,174.4,65.4z M173.9,67.2c-0.2,0.4-0.4,0.8-0.6,1.1
	c0.2-0.5,0.4-1.1,0.6-1.6C173.9,66.9,173.9,67.1,173.9,67.2z M172.9,68.7L172.9,68.7L172.9,68.7L172.9,68.7z M172.8,69
	c-0.2,0.5-0.5,1.1-0.8,1.6c-0.7,1.1-1.4,2.2-2.1,3.3c-0.2-0.5-0.4-1-0.6-1.5c-1.1-2.9-2-5.7-2.9-8.5c0.2,0.1,0.5,0.2,0.8,0.3
	c2.1,0.9,4,2.3,5.4,4C172.7,68.5,172.7,68.8,172.8,69z M170.6,76.4c-0.3-0.1-0.6-0.3-0.9-0.4c0.2-0.2,0.3-0.4,0.5-0.7
	C170.4,75.7,170.5,76.1,170.6,76.4L170.6,76.4z M163.1,86.3c-0.1,0.1-0.3,0.3-0.5,0.4c-0.4-0.6-0.8-1.2-1.2-1.8c0.7-0.7,1.4-1.3,2-2
	c0.9-0.9,1.8-1.8,2.7-2.8c0.3,0.6,0.6,1.1,0.9,1.7C165.8,83.4,164.5,84.9,163.1,86.3z M167.1,82.1c0,0.1,0.1,0.2,0.1,0.3
	c-0.7,0.7-1.3,1.3-2,2C165.9,83.6,166.5,82.8,167.1,82.1z M157.6,91.2l0.1-0.1l0,0C157.7,91.2,157.6,91.2,157.6,91.2
	C157.6,91.3,157.6,91.2,157.6,91.2z M157.4,91.4c-1.3,1-2.7,2-4.1,2.9C154.7,93.4,156.1,92.4,157.4,91.4L157.4,91.4z M162,92.3
	c-1-0.9-1.9-1.6-2.7-2.2c0.4-0.4,0.9-0.7,1.3-1.1c0.9-0.4,1.8-0.7,2.7-1c0.5,0.7,1,1.4,1.4,2.1C163.9,90.8,163,91.6,162,92.3z
	 M164.4,90.6c-0.7,0.7-1.3,1.3-2.1,1.9l-0.1-0.1C162.9,91.9,163.7,91.3,164.4,90.6z M162.7,87.1c0.2,0.3,0.3,0.5,0.5,0.8
	c-0.7,0.2-1.5,0.5-2.2,0.8C161.6,88.1,162.1,87.6,162.7,87.1z M159.9,89.1c-0.4,0.2-0.8,0.4-1.1,0.5c-0.6-0.4-1-0.8-1.4-1
	c1.4-1.1,2.7-2.3,4-3.5c0.4,0.6,0.8,1.2,1.2,1.7C161.7,87.6,160.8,88.4,159.9,89.1z M158.9,89.8c0.1-0.1,0.2-0.1,0.4-0.2
	C159.2,89.7,159.1,89.8,158.9,89.8C159,89.8,159,89.8,158.9,89.8z M156.6,88.8c-0.1-0.1-0.1-0.3-0.1-0.4c0.1,0,0.2,0.1,0.4,0.2
	C156.8,88.6,156.7,88.7,156.6,88.8z M157.2,88.8c0.4,0.2,0.8,0.6,1.4,1c-0.4,0.2-0.8,0.4-1.2,0.6c-0.3-0.5-0.5-0.9-0.7-1.3
	C156.9,89,157,88.9,157.2,88.8z M158.7,89.9l0.1,0.1c-0.4,0.3-0.7,0.6-1.1,0.9c-0.1-0.1-0.1-0.2-0.2-0.3
	C157.9,90.3,158.3,90.1,158.7,89.9z M159,90.1L159,90.1c-0.4,0.3-0.7,0.7-1.1,1l0,0C158.2,90.7,158.6,90.4,159,90.1z M159.2,90
	c0.3-0.2,0.6-0.5,0.9-0.7l0,0C159.8,89.5,159.5,89.7,159.2,90L159.2,90z M161.3,84.7c-0.1-0.1-0.2-0.3-0.3-0.4
	c1.7-1.6,3.2-3.2,4.7-4.9c0.1,0.1,0.1,0.2,0.2,0.4c-0.8,1-1.7,2-2.6,3C162.7,83.5,162,84.1,161.3,84.7z M165.9,79.3
	c0.8-0.9,1.5-1.8,2.2-2.7c0,0.1-0.1,0.2-0.1,0.3c0,0.1,0,0.2,0,0.3c-0.6,0.8-1.3,1.7-1.9,2.5C166,79.6,166,79.4,165.9,79.3z
	 M167.9,77.6c0,0.1,0,0.2,0,0.3c-0.3,0.4-0.6,0.7-1,1.1c-0.2,0.2-0.4,0.4-0.6,0.6C166.9,79,167.4,78.3,167.9,77.6z M168.2,77.3
	c0.3-0.4,0.6-0.9,0.9-1.3c0.1,0,0.2,0.1,0.3,0.1c-0.4,0.5-0.8,1-1.3,1.5C168.2,77.5,168.2,77.4,168.2,77.3z M168.3,76.8
	c0.1-0.2,0.1-0.4,0.2-0.6c0.1-0.1,0.2-0.2,0.2-0.3c0.1,0,0.1,0,0.2,0.1C168.7,76.2,168.5,76.5,168.3,76.8z M168.8,75.7
	c0.3-0.5,0.7-0.9,1-1.4v0.1c-0.3,0.5-0.6,0.9-0.9,1.3C169,75.8,168.9,75.7,168.8,75.7z M168.9,75.4c0.1-0.3,0.3-0.5,0.5-0.7
	C169.2,74.9,169,75.1,168.9,75.4z M168.3,76.1c-0.8,1-1.6,2-2.5,3c-0.7-1.4-1.5-2.9-2.2-4.3c1.1,0.1,2.2,0.3,3.3,0.5
	c0.5,0.1,1.1,0.3,1.6,0.4C168.4,75.9,168.3,76,168.3,76.1z M165.7,79.3c-1.5,1.7-3,3.3-4.7,4.9c-1.9-2.8-3.8-5.7-5.7-8.4
	c2.7-0.8,5.4-1.1,8.1-0.9C164.1,76.3,164.9,77.8,165.7,79.3z M161.2,84.9c-1.3,1.2-2.7,2.4-4.2,3.6c-0.2-0.1-0.3-0.2-0.5-0.2
	c1.5-1.2,3-2.4,4.3-3.7C161,84.6,161.1,84.7,161.2,84.9z M156.3,88.5c0,0.2,0.1,0.3,0.2,0.5c-0.2,0.1-0.4,0.3-0.5,0.4
	c-0.1-0.1-0.2-0.2-0.3-0.3C155.8,88.8,156,88.6,156.3,88.5z M155.7,89.4c-1.8,1.4-3.7,2.8-5.7,4.1c-0.1-0.1-0.3-0.2-0.4-0.4
	c2-1.3,3.9-2.6,5.8-4.1C155.5,89.2,155.6,89.3,155.7,89.4z M156.6,89.2c0.2,0.4,0.4,0.8,0.7,1.2c-0.1,0-0.2,0.1-0.2,0.1
	c-0.3-0.3-0.6-0.7-0.9-1C156.3,89.5,156.4,89.4,156.6,89.2z M157.4,90.6c0.1,0.1,0.1,0.2,0.2,0.3c-0.1,0-0.1,0.1-0.2,0.1
	c-0.1-0.1-0.2-0.2-0.3-0.3C157.2,90.7,157.3,90.7,157.4,90.6z M157.8,91.3c0.4,0.5,0.8,1.1,1.2,1.6c-0.5-0.5-0.9-1-1.3-1.5
	C157.8,91.4,157.8,91.4,157.8,91.3z M158,91.2c0.4-0.3,0.8-0.7,1.2-1c0.8,0.6,1.7,1.4,2.7,2.2c-0.6,0.5-1.2,1-1.8,1.4
	C159.2,92.9,158.6,92,158,91.2z M162,92.6l0.1,0.1c-0.6,0.5-1.2,1-1.8,1.5c-0.1-0.1-0.1-0.1-0.2-0.2C160.8,93.6,161.4,93.1,162,92.6
	z M162.3,92.8c0.8,0.7,1.6,1.5,2.5,2.3c0.3,0.3,0.7,0.6,1,0.9c-0.8,0.6-1.6,1.3-2.4,1.9c-1.1-1.3-2.1-2.5-3-3.5
	C161.1,93.9,161.7,93.4,162.3,92.8z M165,95c-0.9-0.8-1.7-1.6-2.5-2.3c0.9-0.8,1.7-1.6,2.5-2.4c0.9,1.4,1.9,2.7,2.8,4.1
	c-0.6,0.5-1.2,1-1.9,1.5C165.6,95.6,165.3,95.3,165,95z M166.3,80c0.3-0.3,0.6-0.6,0.8-0.9c0.3-0.3,0.5-0.6,0.8-0.9
	c-0.1,0.7,0,1.6,0.1,2.4c-0.3,0.3-0.5,0.7-0.8,1C166.9,81.1,166.6,80.6,166.3,80z M168.1,78c0.5-0.6,1-1.2,1.5-1.8
	c0.3,0.1,0.6,0.2,0.9,0.4c-0.7,1.3-1.5,2.6-2.4,3.8C168,79.6,168,78.8,168.1,78z M169.5,76c-0.1,0-0.2-0.1-0.3-0.1
	c0.3-0.4,0.5-0.8,0.8-1.2c0.1,0.2,0.1,0.3,0.2,0.5C169.9,75.4,169.7,75.7,169.5,76z M170.1,74.5c0.1-0.2,0.2-0.3,0.3-0.5
	c0.3-0.1,0.6-0.3,0.9-0.4c-0.3,0.5-0.7,0.9-1,1.4C170.2,74.8,170.2,74.6,170.1,74.5z M170,74.2L170,74.2C170,74.2,170,74.1,170,74.2
	C170.1,74.2,170,74.2,170,74.2z M170.2,73.8c0.1-0.1,0.2-0.3,0.3-0.4C170.4,73.5,170.3,73.7,170.2,73.8
	C170.3,73.8,170.2,73.8,170.2,73.8z M169.2,72.5c0.2,0.5,0.4,1.1,0.6,1.6c-0.5,0.3-0.9,0.7-1.1,1.2c0,0.1-0.1,0.2-0.1,0.3
	c-0.5-0.2-1.1-0.3-1.6-0.4c-1.1-0.2-2.2-0.4-3.4-0.5c-0.6-1.1-1.1-2.3-1.7-3.4c-1.4-2.9-2.8-5.8-4.1-8.7c2.2,0,4.2,0.1,6.2,0.6
	c0.8,0.2,1.6,0.4,2.3,0.7C167.1,66.7,168.1,69.6,169.2,72.5z M160.8,84.3c-1.7,1.6-3.5,3.1-5.3,4.5c-2.8-3.2-5.5-6.4-8.2-9.5
	c2.4-1.5,5.1-2.7,7.8-3.6C156.9,78.6,158.8,81.4,160.8,84.3z M155.3,88.9c-1.9,1.4-3.8,2.8-5.8,4.1c-3-2.8-6-5.5-9-8.3
	c1.9-2,4.2-3.8,6.7-5.3C149.8,82.6,152.5,85.7,155.3,88.9z M149.3,93.1c-2,1.3-4.1,2.5-6.2,3.6c-2.5-1.8-4.9-3.6-7.4-5.4
	c1.1-2.3,2.7-4.4,4.6-6.4C143.3,87.6,146.3,90.3,149.3,93.1z M140.4,98.3c0.3,0,0.6-0.1,0.9-0.1c-0.7,0.3-1.4,0.6-2.1,0.9
	C139.5,98.7,139.9,98.4,140.4,98.3z M138.8,99.3c-0.6,0.2-1.2,0.5-1.8,0.7c-0.1-0.1-0.2-0.1-0.3-0.2c0.8-0.3,1.6-0.7,2.4-1.1
	C139.1,98.9,138.9,99.1,138.8,99.3z M140.7,98.1c0.8-0.4,1.6-0.8,2.5-1.2c0.1,0.1,0.3,0.2,0.4,0.3c-0.6,0.3-1.2,0.6-1.8,0.9
	C141.3,98,141,98.1,140.7,98.1z M136.3,99.8c-0.8,0.3-1.7,0.6-2.5,1c-0.1-0.3-0.1-0.7-0.1-1c0-0.5,0-1,0-1.5
	C134.6,98.8,135.5,99.3,136.3,99.8z M136.5,99.9c0.1,0.1,0.2,0.1,0.3,0.2c-1,0.4-1.9,0.7-2.9,1V101
	C134.7,100.6,135.6,100.3,136.5,99.9z M133.7,101.1c-0.1,0-0.1,0-0.2,0.1c-0.9,0.3-1.7,0.5-2.6,0.7c0.9-0.3,1.8-0.6,2.7-0.9
	C133.7,101,133.7,101.1,133.7,101.1z M133.6,101.4h0.1c0,0.2,0.1,0.4,0.1,0.5c-0.8,0.3-1.5,0.6-2.3,0.8c-0.4-0.2-0.7-0.3-1.1-0.5
	C131.5,102,132.6,101.7,133.6,101.4z M133.9,101.3c1-0.3,2.1-0.7,3.1-1.1c0.1,0.1,0.2,0.1,0.3,0.2c-1.1,0.5-2.2,1-3.3,1.4
	C134,101.6,134,101.4,133.9,101.3z M139,99.4c0.9-0.4,1.8-0.8,2.8-1.2h0.1c-1,0.5-2,1-2.9,1.4C138.9,99.6,139,99.5,139,99.4z
	 M142.1,98.1c0.2-0.1,0.4-0.2,0.5-0.2C142.5,97.9,142.3,98,142.1,98.1L142.1,98.1z M143.7,97.1c-0.1-0.1-0.3-0.2-0.4-0.3
	c2.1-1.1,4.2-2.3,6.2-3.5c0.1,0.1,0.3,0.2,0.4,0.4c-0.8,0.5-1.7,1.1-2.5,1.6C146.2,95.9,144.9,96.5,143.7,97.1z M156,89.7
	c0.3,0.3,0.6,0.7,0.9,1c-2,1.2-3.8,2.6-5.3,4.2c-0.4-0.4-0.9-0.8-1.3-1.2C152.2,92.5,154.2,91.1,156,89.7z M157,90.9
	c0.1,0.1,0.2,0.2,0.3,0.3c-1.8,1.4-3.6,2.7-5.5,3.9c0,0,0,0-0.1-0.1C153.2,93.5,155,92.1,157,90.9z M151.6,95.2l-0.1,0.1
	C151.5,95.3,151.6,95.3,151.6,95.2L151.6,95.2z M157.6,91.5c0.7,0.9,1.5,1.7,2.2,2.6c-1.7,1.3-3.4,2.5-5.1,3.7
	c-0.9-0.8-1.7-1.6-2.6-2.4C154,94.2,155.8,92.9,157.6,91.5z M163.5,98c0.8-0.6,1.6-1.2,2.4-1.9c0.1,0.1,0.2,0.2,0.3,0.3
	c-0.7,0.7-1.5,1.4-2.3,2C163.8,98.3,163.7,98.2,163.5,98z M166.1,96c0.6-0.5,1.2-1,1.8-1.5c0,0.1,0.1,0.1,0.1,0.2
	c-0.5,0.6-1.1,1.1-1.6,1.6C166.3,96.3,166.2,96.1,166.1,96z M163.4,87.8c-0.2-0.3-0.4-0.6-0.6-0.8c0.2-0.2,0.3-0.3,0.5-0.5
	c1.4-1.3,2.8-2.6,4.1-3.9c0.5,1,1,1.9,1.5,2.9c-0.4,0.6-0.8,1.1-1.3,1.7C166.2,87.1,164.8,87.3,163.4,87.8z M167.5,82.4
	c0.2-0.2,0.4-0.4,0.6-0.6c0.2,0.9,0.4,1.9,0.7,2.9C168.3,83.9,167.9,83.1,167.5,82.4z M167.4,82.2c-0.1-0.1-0.1-0.2-0.2-0.3
	c0.2-0.3,0.5-0.6,0.7-0.9c0,0.2,0,0.4,0.1,0.6C167.8,81.7,167.6,82,167.4,82.2z M168.1,80.7c1-1.3,1.8-2.7,2.6-4.1l0,0
	c0.2,0.4,0.3,0.8,0.5,1.3c-0.5,0.5-0.9,1.1-1.4,1.6c-0.5,0.6-1.1,1.2-1.7,1.8C168.2,81.1,168.2,80.9,168.1,80.7z M171,76.8
	c0.3,0.1,0.6,0.3,0.8,0.4c-0.2,0.2-0.3,0.4-0.5,0.6C171.3,77.4,171.1,77.1,171,76.8z M170.8,76.2c-0.1-0.3-0.3-0.7-0.4-1
	c0.4-0.6,0.9-1.1,1.3-1.7c0.2,0,0.3-0.1,0.5-0.1C171.7,74.3,171.3,75.3,170.8,76.2z M171.8,73.3c0.3-0.4,0.6-0.9,0.9-1.4
	c-0.2,0.4-0.3,0.8-0.5,1.3C172.1,73.2,172,73.2,171.8,73.3z M171.5,73.3c-0.3,0.1-0.6,0.2-0.9,0.3c0.6-1,1.1-1.9,1.6-2.9
	c0.2-0.4,0.5-0.8,0.7-1.2c0.1,0.4,0.2,0.8,0.3,1.2c0,0.1-0.1,0.3-0.1,0.4C172.6,71.8,172.1,72.6,171.5,73.3z M173.1,69.2
	c0-0.1,0.1-0.2,0.1-0.2c0.1,0.2,0.3,0.4,0.4,0.5c-0.1,0.3-0.2,0.5-0.3,0.8C173.2,70,173.2,69.6,173.1,69.2z M173.7,69.3
	c-0.1-0.2-0.2-0.3-0.4-0.5c0.2-0.3,0.4-0.7,0.5-1c0,0.4-0.1,0.8-0.1,1.3C173.7,69.2,173.7,69.2,173.7,69.3z M174.2,65.5
	c-0.3,1-0.7,2-1.2,3c-0.1-0.1-0.1-0.2-0.2-0.3c-0.8-3.3-1.4-6.6-1.8-9.8c1.6,1.9,2.7,4.1,3.3,6.5c0,0.1,0,0.1,0,0.2
	C174.2,65.2,174.2,65.4,174.2,65.5z M172.5,67.9c-1.4-1.6-3.2-2.9-5.3-3.8c-0.3-0.1-0.6-0.2-0.9-0.3c-1.2-3.7-2.2-7.2-3-10.7
	c0.3,0.1,0.7,0.2,1,0.4c2.5,1.1,4.7,2.7,6.4,4.7C171.2,61.3,171.8,64.6,172.5,67.9z M166.1,63.6c-0.7-0.3-1.4-0.5-2.2-0.6
	c-2-0.5-4.1-0.6-6.3-0.6c-1.7-3.7-3.2-7.4-4.6-10.9c2.6-0.1,5.1,0.2,7.5,0.7c0.9,0.2,1.8,0.5,2.6,0.8C164,56.4,165,60,166.1,63.6z
	 M157.4,62.4c-3.2,0.1-6.5,0.6-9.7,1.6c-2.3-3.6-4.4-7.1-6.4-10.5c3.8-1.2,7.7-1.9,11.5-2C154.2,55,155.7,58.7,157.4,62.4z
	 M153.1,72.8c0.6,0.9,1.3,1.9,1.9,2.8c-2.8,0.9-5.4,2.1-7.8,3.6c-0.8-0.9-1.5-1.8-2.3-2.7c-2.3-2.7-4.6-5.3-6.7-7.9
	c2.9-1.8,6.2-3.3,9.5-4.4C149.4,67,151.2,69.9,153.1,72.8z M144.7,76.6c0.7,0.9,1.5,1.8,2.3,2.7c-2.5,1.5-4.8,3.3-6.7,5.3
	c-0.9-0.8-1.7-1.6-2.6-2.3c-2.7-2.4-5.3-4.8-7.9-7.1c2.4-2.4,5.1-4.6,8.2-6.5C140.2,71.3,142.4,73.9,144.7,76.6z M137.6,82.4
	c0.9,0.8,1.7,1.6,2.6,2.4c-1.9,2-3.5,4.2-4.6,6.4c-0.9-0.7-1.9-1.4-2.8-2c-2.9-2.1-5.8-4.1-8.7-6c1.4-2.7,3.3-5.4,5.7-7.8
	C132.3,77.6,134.9,80,137.6,82.4z M130.5,96.4c1,0.6,2,1.1,3,1.7c0,0.5-0.1,1.1,0,1.6c0,0.4,0.1,0.7,0.1,1.1
	c-1.1,0.4-2.2,0.8-3.4,1.1c-0.1,0-0.1,0-0.2,0.1c-2.4-1.1-4.8-2.1-7.2-3.1c-0.8-1.7-1.3-3.6-1.3-5.4c0-0.6,0-1.2,0.1-1.8
	C124.5,93.2,127.5,94.8,130.5,96.4z M129.8,102.1c-0.7,0.2-1.4,0.4-2,0.6c-0.7,0.1-1.3,0.3-2,0.4c-1.2-1.1-2.1-2.5-2.8-3.9
	C125.2,100.1,127.5,101.1,129.8,102.1z M127.8,102.8c0.8-0.2,1.6-0.3,2.4-0.5c0.4,0.2,0.7,0.3,1.1,0.5c-0.4,0.1-0.8,0.3-1.2,0.4
	c-1-0.1-2.1-0.2-3-0.2C127.3,103,127.6,102.9,127.8,102.8z M134.1,102c1.2-0.5,2.3-0.9,3.5-1.5c0.3,0.2,0.6,0.3,0.9,0.5
	c0,0.1,0,0.3,0,0.4c-0.2,0.1-0.4,0.1-0.6,0.2c-1.2,0.4-2.3,0.7-3.5,0.9C134.2,102.4,134.2,102.2,134.1,102z M138.6,101.2
	c0.1,0,0.2,0.1,0.2,0.1c-0.1,0-0.2,0.1-0.2,0.1C138.6,101.3,138.6,101.2,138.6,101.2z M138.7,100.9c0-0.3,0.1-0.6,0.1-0.8
	c0-0.1,0-0.1,0.1-0.2c1.1-0.5,2.3-1.1,3.4-1.6c0.3,0,0.7,0.1,1,0.2c0.5,0.1,1.1,0.3,1.7,0.5c-1.9,0.8-3.8,1.6-5.7,2.3
	C139,101.1,138.8,101,138.7,100.9z M143.2,98.3c-0.3-0.1-0.5-0.1-0.8-0.1c0.5-0.2,0.9-0.5,1.4-0.7c0.6,0.4,1.1,0.8,1.7,1.2
	c-0.1,0.1-0.3,0.1-0.4,0.2C144.4,98.6,143.8,98.4,143.2,98.3z M154.6,98C154.7,98.1,154.7,98.1,154.6,98c-0.5,0.4-1,0.7-1.6,1.1
	C153.6,98.7,154.1,98.4,154.6,98z M154.8,97.9c1.7-1.2,3.5-2.4,5.1-3.7c0.1,0.1,0.1,0.1,0.2,0.2C158.4,95.7,156.7,96.9,154.8,97.9
	C154.9,98,154.8,98,154.8,97.9z M164.1,98.7c0.8-0.7,1.6-1.3,2.4-2c1.3,1.3,2.7,2.6,4.1,4c-0.5,0.4-1,0.8-1.5,1.2
	c-0.5,0.3-1,0.5-1.5,0.8c-0.1-0.1-0.3-0.3-0.4-0.4C166.1,101,165,99.8,164.1,98.7z M168.1,102.5c-0.1,0.1-0.3,0.2-0.4,0.3l0,0
	C167.8,102.7,167.9,102.6,168.1,102.5z M167.8,103c0.4-0.3,0.9-0.7,1.3-1c0.6-0.3,1.3-0.6,2-0.9c0.1,0.1,0.2,0.2,0.3,0.2
	c-0.9,0.9-1.8,1.7-2.8,2.5C168.3,103.6,168.1,103.3,167.8,103z M171.3,101c0.2-0.1,0.4-0.1,0.6-0.2c-0.1,0.1-0.3,0.3-0.4,0.4
	C171.4,101.2,171.4,101.1,171.3,101z M172.3,100.7L172.3,100.7c1.1,1.5,2.3,3.1,3.4,4.6c-1.4-1.4-2.7-2.7-4-4
	C171.8,101.2,172.1,100.9,172.3,100.7z M168.1,94.4c0.4-0.4,0.8-0.7,1.2-1.1C169,93.7,168.6,94.1,168.1,94.4
	C168.1,94.5,168.1,94.5,168.1,94.4z M168,94.3c-1-1.4-1.9-2.7-2.9-4.1c0.3-0.3,0.7-0.7,1-1c0.7-0.6,1.4-1.3,2.1-2c0.5,0,0.9,0,1.4,0
	c0.4,1.2,1,2.5,1.5,3.8c-0.3,0.5-0.7,0.9-1,1.4C169.4,93,168.7,93.7,168,94.3z M168.4,87c0.3-0.3,0.6-0.5,0.8-0.8
	c0.1,0.3,0.2,0.5,0.3,0.8C169.1,87,168.8,87,168.4,87z M169.2,86c-0.3,0.3-0.7,0.7-1.1,1c-0.1,0-0.1,0-0.2,0c0.4-0.5,0.7-1,1.1-1.4
	l0,0C169.1,85.7,169.1,85.9,169.2,86z M168.2,81.6c0.6-0.6,1.2-1.3,1.8-1.9c0.4-0.5,0.9-1,1.3-1.5c0.3,0.6,0.5,1.3,0.8,1.9
	c-0.8,1.7-1.8,3.4-3,5.1C168.7,83.9,168.4,82.7,168.2,81.6z M171.5,78c0.2-0.2,0.4-0.5,0.6-0.7c0.3,0.2,0.7,0.4,1,0.6
	c-0.2,0.6-0.5,1.3-0.8,1.9C172,79.2,171.7,78.6,171.5,78z M174.1,73.2c0.1,0,0.2,0,0.3,0c0,0.2-0.1,0.5-0.1,0.7
	C174.2,73.7,174.1,73.5,174.1,73.2z M173.7,73c-0.4,0-0.9,0-1.2,0.1c0.3-0.7,0.5-1.3,0.8-2c0,0,0-0.1,0.1-0.1c0.1,0.5,0.3,1,0.4,1.6
	C173.7,72.8,173.7,72.9,173.7,73z M173.5,70.9c0.1-0.1,0.1-0.2,0.2-0.3c0,0.4,0,0.8,0,1.2C173.6,71.4,173.5,71.2,173.5,70.9z
	 M173.5,70.4c0.1-0.2,0.1-0.3,0.1-0.5c0,0.1,0,0.2,0,0.3C173.6,70.2,173.6,70.3,173.5,70.4z M173.9,69.7c0-0.2,0-0.4,0-0.6
	c0.1-0.5,0.3-1,0.4-1.5c0.1-0.4,0.2-0.9,0.3-1.3c0.1,0.7,0.1,1.4,0.2,2C174.5,68.8,174.2,69.3,173.9,69.7L173.9,69.7z M174.8,60.3
	c0.1,1.1,0,2.1,0,3.2c0,0.1-0.1,0.3-0.1,0.4c-0.1-1.8-0.1-3.6,0-5.3C174.7,59.2,174.7,59.7,174.8,60.3z M174.4,64.5L174.4,64.5
	c-0.7-2.3-1.9-4.5-3.5-6.4c-0.4-3.1-0.6-6-0.7-8.9c2.1,2.5,3.6,5.4,4.2,8.6C174.3,59.9,174.3,62.2,174.4,64.5z M170.7,57.8
	c-1.7-1.9-3.9-3.5-6.3-4.5c-0.4-0.2-0.7-0.3-1.1-0.4c-0.8-3.4-1.4-6.6-1.9-9.7c0.4,0.1,0.8,0.3,1.2,0.4c2.9,1.2,5.5,3.1,7.5,5.4
	C170.1,51.8,170.3,54.8,170.7,57.8z M163.1,52.8c-0.8-0.3-1.7-0.5-2.5-0.7c-2.4-0.5-5-0.8-7.6-0.7c-1.3-3.4-2.5-6.7-3.6-10
	c3.1-0.1,6.1,0.2,8.9,0.8c1,0.2,2,0.5,2.9,0.9C161.7,46.2,162.3,49.4,163.1,52.8z M152.7,51.3c-3.8,0.1-7.7,0.8-11.5,2
	c-1.9-3.3-3.7-6.5-5.4-9.6c4.4-1.4,9-2.2,13.4-2.4C150.2,44.6,151.4,47.9,152.7,51.3z M147.6,64.1c-3.4,1.1-6.6,2.6-9.5,4.4
	c-2.8-3.3-5.6-6.6-8.2-9.7c3.5-2.1,7.3-3.9,11.3-5.2C143.2,57,145.3,60.5,147.6,64.1z M137.8,68.6c-3.1,1.9-5.8,4.1-8.2,6.5
	c-3.3-3-6.6-5.8-9.7-8.5c2.8-2.9,6.1-5.5,9.7-7.7C132.3,62,135,65.2,137.8,68.6z M129.5,75.2c-2.3,2.4-4.3,5.1-5.7,7.8
	c-3.7-2.5-7.3-4.8-10.8-7c1.7-3.3,4-6.4,6.8-9.3C123,69.4,126.2,72.3,129.5,75.2z M123.8,83.2c-0.9,1.7-1.5,3.5-2,5.3
	c-0.2,0.9-0.4,1.9-0.4,2.8c-3.8-2-7.6-3.8-11.3-5.5c0.1-1.1,0.3-2.2,0.5-3.3c0.5-2.2,1.3-4.3,2.3-6.4
	C116.5,78.4,120.1,80.7,123.8,83.2z M121.4,91.5c0,0.6-0.1,1.3-0.1,1.9c0.1,1.8,0.5,3.7,1.3,5.3c-3.7-1.5-7.4-2.9-11-4.1
	c-0.9-2-1.5-4.2-1.5-6.4c0-0.7,0-1.5,0.1-2.2C113.8,87.7,117.6,89.5,121.4,91.5z M122.7,99c0.7,1.5,1.7,2.8,2.9,4
	c-0.2,0-0.5,0.1-0.7,0.1c-0.3,0-0.6,0.1-0.9,0.1l0,0c-2.4-0.8-4.7-1.4-7-2c-2.3-1.7-4.1-3.9-5.3-6.4C115.3,96.1,119,97.5,122.7,99z
	 M123.5,103.4c-0.7,0.1-1.5,0.2-2.2,0.2c-0.5-0.2-1-0.4-1.4-0.6c-0.9-0.4-1.7-0.9-2.5-1.4C119.4,102.1,121.5,102.7,123.5,103.4z
	 M122.4,103.7c-0.1,0-0.3,0.1-0.4,0.1c-0.1,0-0.2-0.1-0.2-0.1C122,103.7,122.2,103.7,122.4,103.7z M121.4,103.8c-0.1,0-0.2,0-0.3,0
	C121.2,103.8,121.2,103.8,121.4,103.8C121.3,103.8,121.4,103.8,121.4,103.8z M124.5,103.6c0.2,0.1,0.4,0.1,0.6,0.2
	c-0.6,0-1.1,0-1.7,0C123.7,103.8,124.1,103.7,124.5,103.6z M124.8,103.6c0.3-0.1,0.7-0.2,1-0.2c0.1,0.2,0.3,0.3,0.5,0.5
	c-0.2,0-0.5,0-0.8,0C125.3,103.7,125.1,103.7,124.8,103.6z M126.8,103.9c0.5,0,1-0.1,1.5-0.1c-0.1,0-0.1,0-0.2,0.1
	c-0.3,0.1-0.7,0.2-1,0.3C127,104.1,126.9,104,126.8,103.9z M126.6,103.8c-0.2-0.2-0.4-0.3-0.5-0.5c0.1,0,0.1,0,0.2,0
	c1.1-0.1,2.3,0,3.5,0.1c-0.2,0.1-0.4,0.1-0.6,0.2C128.3,103.6,127.4,103.7,126.6,103.8z M130.5,103.3c0.3-0.1,0.7-0.2,1-0.4
	c0.1,0.1,0.3,0.1,0.4,0.2c-0.4,0.1-0.8,0.1-1.2,0.2C130.7,103.3,130.6,103.3,130.5,103.3z M132.3,103.2c0.4,0.2,0.7,0.4,1.1,0.5
	c-0.7-0.1-1.3-0.3-2-0.4C131.7,103.3,132,103.3,132.3,103.2z M134.4,102.8c1.2-0.3,2.3-0.6,3.5-0.9c0.2-0.1,0.4-0.1,0.5-0.2
	c0,0.3,0,0.6,0,0.9c-1.1,0.5-2.3,1-3.4,1.5C134.8,103.6,134.6,103.2,134.4,102.8z M138.6,101.6c0.2-0.1,0.3-0.1,0.5-0.2
	c0.3,0.2,0.5,0.3,0.8,0.5c-0.4,0.2-0.8,0.4-1.2,0.6C138.7,102.1,138.6,101.9,138.6,101.6z M139.3,101.3c2-0.7,3.9-1.4,5.8-2.3
	c0.1,0,0.1,0,0.1,0.1c-1.7,0.9-3.4,1.8-5.2,2.7C139.8,101.6,139.6,101.5,139.3,101.3z M145.3,99c0.1,0,0.2-0.1,0.4-0.2l0,0
	C145.6,98.9,145.5,98.9,145.3,99C145.4,99,145.4,99,145.3,99z M145.9,99c0.2,0.2,0.5,0.4,0.7,0.6c-0.3-0.2-0.7-0.3-1-0.4
	C145.8,99,145.8,99,145.9,99z M146.1,98.9c1-0.6,2-1.1,2.9-1.7c0.4-0.2,0.8-0.5,1.2-0.7c-1,1.2-1.8,2.4-2.4,3.6
	c-0.1-0.1-0.2-0.1-0.4-0.2C147,99.6,146.5,99.2,146.1,98.9z M148.3,100.6c0.3,0.2,0.6,0.3,0.9,0.5c-0.1,0-0.1,0-0.1,0.1
	C148.8,100.9,148.6,100.7,148.3,100.6z M148.8,101.2c-0.5,0.2-1,0.4-1.5,0.7c0.2-0.5,0.4-0.9,0.6-1.4
	C148.2,100.7,148.5,100.9,148.8,101.2z M150.9,100.4c1.3-0.7,2.7-1.4,3.9-2.2c1.2,1.1,2.3,2.2,3.5,3.3c-1.3,0.9-2.6,1.7-3.9,2.5
	c-1.7-1.1-3.2-2.1-4.7-3C150.1,100.9,150.5,100.6,150.9,100.4z M155,98.2c1.8-1.1,3.5-2.3,5.2-3.6c1,1.2,2,2.3,3,3.5
	c-1.5,1.2-3.1,2.3-4.7,3.4C157.4,100.3,156.2,99.2,155,98.2z M163.4,98.2c0.1,0.2,0.3,0.3,0.4,0.5c-1.5,1.2-3.1,2.2-4.7,3.2
	c-0.1-0.1-0.2-0.2-0.4-0.3C160.3,100.5,161.8,99.4,163.4,98.2z M163.9,98.8c1,1.2,2.1,2.4,3.1,3.6c0.1,0.1,0.1,0.2,0.2,0.2
	c0,0.1,0.1,0.1,0.2,0.2c-1.5,0.9-2.8,2-4,3.2c-1.4-1.3-2.8-2.6-4.2-3.9C160.8,101,162.4,100,163.9,98.8z M167.5,102.9
	C167.5,102.9,167.5,103,167.5,102.9c-1,0.9-2.1,1.7-3.3,2.5C165.2,104.5,166.3,103.6,167.5,102.9z M168.7,104c1-0.8,1.9-1.6,2.8-2.5
	c1.5,1.5,3,3,4.6,4.5c-1.1,0.9-2.2,1.8-3.3,2.6C171.4,107.1,170,105.6,168.7,104z M176.2,106.2c0,0,0.1,0.1,0.2,0.2
	c0.3,0.4,0.5,0.7,0.8,1.1c-0.9,1-1.9,2-3,2.9c-0.4-0.5-0.9-1-1.3-1.5C174,107.9,175.1,107.1,176.2,106.2z M168.3,94.8
	c0.7-0.7,1.3-1.5,1.9-2.2c0.4-0.3,0.7-0.7,1.1-1c0.6,1.4,1.3,2.9,2.1,4.5c0.3,0.5,0.5,1,0.8,1.5c-0.8,0.7-1.6,1.4-2.5,2.1
	C170.6,98,169.4,96.4,168.3,94.8z M170.9,91.7c0.1-0.1,0.2-0.3,0.3-0.4v0.1C171.1,91.5,171,91.6,170.9,91.7z M171.3,91.1
	c0.1-0.2,0.3-0.4,0.4-0.6c0,0.1,0.1,0.2,0.1,0.3c-0.2,0.2-0.3,0.3-0.5,0.5C171.4,91.2,171.4,91.1,171.3,91.1z M171.9,90.3
	c0.5-0.8,1-1.6,1.5-2.5c0.4,0.1,0.8,0.2,1.2,0.4c-0.8,0.8-1.6,1.6-2.5,2.4C172,90.5,171.9,90.4,171.9,90.3z M171.8,90.1
	c-0.5-1-1.1-1.9-1.6-2.8c0.8,0.1,1.7,0.2,2.5,0.4c0.2,0,0.3,0.1,0.5,0.1C172.7,88.6,172.3,89.3,171.8,90.1z M171.6,90.3
	c-0.1,0.2-0.3,0.4-0.4,0.6c-0.5-1.2-1-2.5-1.4-3.6h0.1C170.5,88.3,171.1,89.3,171.6,90.3z M169.7,87c-0.1-0.2-0.1-0.3-0.2-0.5
	c0.1,0.2,0.2,0.3,0.3,0.5C169.8,87,169.8,87,169.7,87z M169.2,85.5c0-0.1,0-0.1-0.1-0.2c1.2-1.6,2.2-3.3,3.1-5.1
	c0.2,0.6,0.5,1.2,0.7,1.8c-1.2,1.3-2.3,2.5-3.6,3.7C169.3,85.7,169.3,85.6,169.2,85.5z M172.3,80.1c0.3-0.7,0.6-1.4,0.9-2
	c0.4,0.3,0.9,0.6,1.3,0.9c0.1,0.4,0.1,0.8,0.2,1.2c-0.3,0.4-0.6,0.7-0.9,1.1c-0.2,0.2-0.5,0.5-0.7,0.7
	C172.8,81.3,172.6,80.7,172.3,80.1z M174.7,79.1c0.2,0.1,0.3,0.3,0.5,0.4c-0.1,0.1-0.2,0.2-0.3,0.3
	C174.8,79.7,174.8,79.4,174.7,79.1z M174.7,78.9c-0.2-1.2-0.4-2.4-0.5-3.6c0.1-0.2,0.1-0.4,0.1-0.6c0.1,0.5,0.3,0.9,0.4,1.4
	c0.3,1,0.6,2,0.9,3c-0.1,0.1-0.2,0.2-0.3,0.3C175.1,79.2,174.9,79,174.7,78.9z M174.4,73.1c-0.1,0-0.3,0-0.4,0
	c0-0.1-0.1-0.3-0.1-0.4c0-0.8-0.1-1.6,0-2.4l0.1-0.1c0.3,0.4,0.5,0.9,0.7,1.3C174.6,72,174.5,72.5,174.4,73.1z M174.1,69.9
	c0.3-0.4,0.5-0.8,0.7-1.2c0,0.8,0,1.6-0.1,2.4C174.5,70.7,174.3,70.3,174.1,69.9z M174.9,63.9c0.1-0.4,0.2-0.8,0.3-1.2
	c0.2-0.5,0.4-1,0.6-1.5c0.3-0.5,0.6-1.1,1-1.5c-0.6,2-1.3,3.9-2.2,5.9C174.8,65,174.9,64.5,174.9,63.9z M175.5,50.8
	c-0.1,0.3-0.2,0.6-0.2,0.9c-0.4,1.7-0.7,3.5-0.8,5.4c-0.7-3-2.2-5.8-4.2-8.2c0-2.8,0.1-5.4,0.4-7.9
	C173.1,43.8,174.8,47.2,175.5,50.8z M170,48.7c-2-2.2-4.5-4.1-7.4-5.3c-0.4-0.2-0.8-0.3-1.3-0.5c-0.4-3-0.7-5.9-0.8-8.7
	c0.5,0.2,0.9,0.3,1.3,0.5c3.3,1.4,6.2,3.5,8.5,6.1C170.1,43.3,170,45.9,170,48.7z M161.2,42.8c-0.9-0.3-1.9-0.6-2.9-0.8
	c-2.8-0.7-5.8-0.9-9-0.8c-1-3.1-1.8-6.1-2.5-9c3.6-0.1,7,0.2,10.3,0.9c1.1,0.3,2.2,0.6,3.2,0.9C160.5,36.9,160.7,39.8,161.2,42.8z
	 M149.1,41.2c-4.4,0.1-9,1-13.4,2.4c-1.6-2.9-3.1-5.8-4.4-8.6c5.1-1.6,10.3-2.6,15.3-2.8C147.3,35.1,148.2,38.1,149.1,41.2z
	 M141.1,53.4c-4,1.3-7.8,3.1-11.4,5.2c-2.5-3-5-5.9-7.3-8.8c4.1-2.5,8.5-4.6,13.2-6.1C137.3,46.9,139.1,50.1,141.1,53.4z
	 M129.5,58.7c-3.6,2.2-6.9,4.8-9.7,7.7c-3-2.6-6-5.1-8.9-7.5c3.3-3.4,7.1-6.4,11.3-9C124.6,52.8,127,55.7,129.5,58.7z M119.7,66.6
	c-2.8,2.9-5.1,6-6.8,9.3c-3.4-2.1-6.7-4.1-10-6c1.9-3.8,4.6-7.5,7.9-10.8C113.7,61.5,116.6,64,119.7,66.6z M112.8,76.1
	c-1.1,2.1-1.9,4.3-2.4,6.4c-0.2,1.1-0.4,2.2-0.5,3.2c-3.6-1.6-7.1-3.1-10.5-4.4c0.1-1.2,0.3-2.5,0.6-3.7c0.6-2.5,1.5-5.1,2.8-7.5
	C106.1,71.9,109.4,73.9,112.8,76.1z M109.9,85.9c-0.1,0.8-0.1,1.5-0.1,2.3c0.1,2.2,0.6,4.3,1.5,6.3c-3.5-1.2-6.9-2.2-10.2-3
	c-1.1-2.4-1.7-4.9-1.8-7.5c0-0.9,0-1.7,0.1-2.6C102.9,82.8,106.4,84.3,109.9,85.9z M111.4,94.8c1.2,2.5,2.9,4.7,5.1,6.4
	c-0.8-0.2-1.5-0.4-2.2-0.5c-2.4-0.5-4.7-1-6.9-1.3c-2.7-2-4.8-4.6-6.2-7.5C104.5,92.6,107.9,93.6,111.4,94.8z M114.2,100.8
	c0.9,0.2,1.8,0.4,2.7,0.7c0.9,0.7,1.9,1.2,2.9,1.7c0.4,0.2,0.7,0.3,1.1,0.5c-0.3,0-0.7,0-1,0.1c-0.6-0.1-1.2-0.2-1.8-0.2
	c-0.7-0.1-1.5-0.2-2.2-0.4c-1.8-0.4-3.5-1-5.1-1.7c-1.1-0.5-2.1-1.1-3-1.8C109.8,99.9,112,100.3,114.2,100.8z M122.7,104
	c1,0,1.9,0,2.9,0c0.3,0.1,0.6,0.2,1,0.3c-0.4,0.1-0.8,0.2-1.2,0.3c-0.4-0.1-0.8-0.2-1.2-0.3C123.6,104.3,123.1,104.2,122.7,104z
	 M126.8,104.4c0.2,0.1,0.4,0.1,0.6,0.2c0.2,0.2,0.4,0.3,0.6,0.4c-0.8-0.1-1.6-0.2-2.3-0.3C126.1,104.7,126.5,104.5,126.8,104.4z
	 M128.1,104.9c0.2,0.1,0.5,0.2,0.7,0.3c-0.1,0-0.2,0-0.3,0C128.3,105,128.2,104.9,128.1,104.9z M134.7,104.4
	c0.2,0.1,0.3,0.2,0.5,0.2c0.1,0.1,0.2,0.2,0.2,0.3c-0.9,0.1-1.8,0.2-2.7,0.2C133.4,104.9,134,104.6,134.7,104.4z M135.6,104.8
	c0.1,0,0.2,0.1,0.2,0.1L135.6,104.8C135.6,104.9,135.6,104.8,135.6,104.8z M135.3,104.5C135.3,104.4,135.3,104.4,135.3,104.5
	c0.4,0,0.9,0.2,1.4,0.3c-0.2,0-0.4,0.1-0.6,0.1C135.9,104.7,135.6,104.6,135.3,104.5z M138.7,102.6c0.5-0.2,0.9-0.4,1.4-0.6
	c0.8,0.5,1.6,1,2.5,1.5c-1.2,0.3-2.4,0.6-3.5,0.9C138.8,103.8,138.8,103.2,138.7,102.6z M140.3,101.9c1.8-0.8,3.5-1.7,5.2-2.7
	c0.6,0.2,1.2,0.5,1.9,0.9c0.1,0.1,0.2,0.2,0.4,0.3c-0.3,0.5-0.5,1.1-0.7,1.6c-1.3,0.5-2.6,1-3.9,1.4c-0.1,0-0.3,0.1-0.4,0.1
	C141.9,102.9,141.1,102.4,140.3,101.9z M147.2,102.1c0.6-0.2,1.2-0.5,1.8-0.8l0,0c-0.6,0.4-1.3,0.8-2,1.1
	C147.1,102.3,147.2,102.2,147.2,102.1z M149.2,101.2L149.2,101.2L149.2,101.2L149.2,101.2z M149.6,101.2c1.5,0.8,3.1,1.8,4.7,3
	c-0.2,0.1-0.4,0.3-0.6,0.4c-1.4-1.1-2.8-2.2-4.3-3.2C149.4,101.3,149.5,101.3,149.6,101.2z M154.6,104.2c1.3-0.8,2.6-1.7,3.9-2.5
	c0.1,0.1,0.2,0.2,0.3,0.3C157.5,102.8,156.1,103.5,154.6,104.2L154.6,104.2z M159,102.1c1.4,1.3,2.8,2.6,4.2,3.9l0,0
	c-1,0.7-2,1.3-3,2c-0.3-0.2-0.6-0.5-0.9-0.7c-1.5-1.1-3-2.1-4.5-3.1C156.3,103.7,157.7,102.9,159,102.1z M163.3,106.2
	C163.3,106.2,163.4,106.2,163.3,106.2c0.3,0.2,0.5,0.5,0.8,0.7c-0.8,0.4-1.6,0.9-2.4,1.3C162.2,107.5,162.7,106.9,163.3,106.2z
	 M163.5,106.1c1.4-1,2.8-2,4.1-3c0.2,0.3,0.5,0.6,0.7,0.9c-1.3,1-2.6,2-4.1,2.8C164,106.6,163.8,106.4,163.5,106.1z M168.5,104.2
	c1.3,1.5,2.6,3.1,4,4.6c-1.1,0.9-2.3,1.7-3.5,2.5c-1.5-1.5-3.1-2.9-4.6-4.4C165.9,106.1,167.2,105.2,168.5,104.2z M172.3,100.4
	c-0.1-0.2-0.3-0.4-0.4-0.6c0.8-0.7,1.6-1.4,2.4-2.1c0,0,0,0.1,0.1,0.1C173.7,98.7,173,99.5,172.3,100.4z M174.5,98
	c0.3,0.6,0.7,1.3,1,1.9c-1,0.1-2,0.2-3,0.5C173.2,99.7,173.9,98.9,174.5,98z M174.4,97.6c0.1-0.1,0.1-0.1,0.2-0.2
	C174.6,97.5,174.5,97.6,174.4,97.6C174.5,97.6,174.5,97.6,174.4,97.6z M174.4,97.4c-0.3-0.5-0.5-1-0.7-1.5c-0.8-1.6-1.5-3.1-2.1-4.5
	c0.2-0.2,0.3-0.3,0.5-0.5c1.1,1.9,2.1,3.7,3.2,5.6c0,0.1-0.1,0.1-0.1,0.2C174.8,97,174.6,97.2,174.4,97.4z M175.3,96.4
	c-1.1-1.9-2.2-3.7-3.2-5.6c0.9-0.8,1.7-1.7,2.6-2.5c0.4,0.1,0.8,0.3,1.1,0.5c0.5,1.1,1,2.2,1.5,3.3C176.9,93.5,176.2,95,175.3,96.4z
	 M177.5,92.3c0.2,0.5,0.5,1,0.7,1.5c-0.9,0.8-1.7,1.6-2.6,2.4C176.4,95,177,93.7,177.5,92.3z M174.9,88.1c0.2-0.2,0.3-0.3,0.5-0.5
	c0.1,0.3,0.3,0.6,0.4,0.9C175.5,88.4,175.2,88.2,174.9,88.1z M174.7,88c-0.4-0.1-0.8-0.3-1.2-0.4c0.4-0.7,0.7-1.4,1-2.1
	c0.3,0.6,0.5,1.2,0.8,1.9C175.1,87.6,174.9,87.8,174.7,88z M173.2,87.6c-0.2,0-0.4-0.1-0.6-0.1c-0.8-0.2-1.7-0.3-2.6-0.4
	c-0.2-0.4-0.4-0.7-0.6-1.1c1.2-1.2,2.4-2.4,3.6-3.7c0.4,1,0.9,2,1.3,3C174,86.1,173.6,86.9,173.2,87.6z M173.2,82.1
	c0.3-0.3,0.5-0.5,0.8-0.8s0.5-0.6,0.8-0.9c0.2,0.7,0.3,1.5,0.5,2.3c-0.2,0.8-0.5,1.6-0.8,2.4C174,84.1,173.6,83.1,173.2,82.1z
	 M175.8,79.1c0-0.1,0.1-0.1,0.1-0.2c0,0.1,0,0.3,0,0.4C175.8,79.3,175.8,79.2,175.8,79.1z M175.7,78.9c-0.3-0.9-0.6-1.9-0.8-2.8
	c-0.2-0.6-0.3-1.2-0.5-1.8l0,0c0.3-0.3,0.5-0.7,0.8-1c0.1,0,0.2,0,0.2,0c0.3,1,0.5,2.1,0.6,3.1c0,0.7,0,1.5,0,2.2
	C175.9,78.7,175.8,78.8,175.7,78.9z M175.4,72.6c-0.1-0.4-0.3-0.8-0.5-1.2c0.1-0.5,0.1-1,0.1-1.4C175.1,70.9,175.2,71.7,175.4,72.6
	L175.4,72.6z M175,68.5C175,68.5,175,68.4,175,68.5c2.3-4,4-7.9,5.2-11.9c1.2-0.8,2.6-1.4,4-1.8c-1.7,5.9-4.7,11.9-8.7,17.5
	C175.3,71,175.2,69.8,175,68.5z M175,68c0,0,0-0.1,0-0.2c0-0.6-0.1-1.3-0.2-1.9c1-2.2,1.8-4.5,2.5-6.7c0.8-0.9,1.7-1.7,2.7-2.4
	C178.8,60.6,177.1,64.3,175,68z M177.9,44.8c-0.9-4.1-2.9-7.9-5.7-11.1c0.7-2,1.5-3.9,2.6-5.6c3.2,3.6,5.4,7.9,6.3,12.5
	C179.9,41.8,178.8,43.3,177.9,44.8z M162.4,26.9c3.7,1.5,7,3.9,9.6,6.8c-0.3,0.9-0.6,1.8-0.8,2.8c0,0.1,0,0.2-0.1,0.3
	c-0.3,1.2-0.5,2.5-0.7,3.8c-2.3-2.6-5.2-4.7-8.5-6c-0.5-0.2-0.9-0.4-1.4-0.5c0-1.4,0-2.7,0-4c0-1.2,0.1-2.5,0.3-3.6
	C161.4,26.5,161.9,26.7,162.4,26.9z M160.4,29.9c0,1.3,0,2.6,0,4c-1-0.4-2.1-0.7-3.2-0.9c-3.3-0.8-6.8-1-10.4-0.9
	c-0.3-1.4-0.6-2.8-0.9-4.1c-0.2-1.3-0.4-2.5-0.6-3.7c4.1-0.1,8,0.2,11.7,1c1.2,0.3,2.4,0.6,3.6,1C160.5,27.5,160.4,28.7,160.4,29.9z
	 M135.6,43.6c-4.7,1.5-9.1,3.6-13.2,6.1c-2.2-2.7-4.3-5.2-6.3-7.7c4.7-2.9,9.8-5.2,15.1-7C132.5,37.8,134,40.7,135.6,43.6z
	 M122.2,49.8c-4.2,2.6-8.1,5.7-11.4,9c-2.7-2.3-5.4-4.4-7.9-6.4c3.8-3.8,8.2-7.3,13-10.3C117.9,44.6,120,47.1,122.2,49.8z M110.7,59
	c-3.3,3.4-6,7-7.9,10.9c-3.1-1.8-6.1-3.4-9.1-4.9c2.2-4.4,5.3-8.6,9.1-12.4C105.3,54.6,107.9,56.7,110.7,59z M102.6,70
	c-1.3,2.5-2.2,5-2.8,7.6c-0.3,1.2-0.5,2.4-0.6,3.7c-3.3-1.2-6.5-2.3-9.6-3.3c0.1-1.4,0.4-2.8,0.7-4.1c0.7-2.9,1.8-5.9,3.2-8.7
	C96.5,66.6,99.5,68.2,102.6,70z M99.2,81.4c-0.1,0.9-0.1,1.8-0.1,2.7c0,2.6,0.6,5.1,1.7,7.4c-0.5-0.1-1.1-0.3-1.6-0.4
	c-2.6-0.6-5.2-1.1-7.7-1.5c-1.2-2.7-1.9-5.6-2-8.6c0-1,0-2,0.1-3C92.8,79.1,96,80.2,99.2,81.4z M99.2,91.3c0.6,0.1,1.2,0.3,1.8,0.4
	c1.3,2.9,3.4,5.5,6,7.5c-2.9-0.4-5.7-0.7-8.3-0.7c-3-2.3-5.4-5.3-7-8.6C94.1,90.2,96.6,90.7,99.2,91.3z M107.3,99.5
	c1,0.8,2.2,1.4,3.4,2c1.6,0.7,3.4,1.3,5.2,1.7c0.1,0,0.2,0,0.3,0.1c-1.9-0.1-3.8-0.2-5.5-0.1c-0.7-0.1-1.5-0.3-2.2-0.4
	c-2.1-0.5-4.1-1.1-5.9-2c-1.3-0.6-2.5-1.3-3.6-2.1C101.6,98.7,104.4,99,107.3,99.5z M118,103.6c0.2,0,0.5,0.1,0.7,0.1
	c-2.5,0.1-5,0-7.4-0.4C113.5,103.3,115.7,103.4,118,103.6z M119.9,103.9L119.9,103.9c0.5,0.1,0.9,0.1,1.3,0.2
	c-5.7,0.9-11.3,1-16.5,0.2c0.8-0.2,1.6-0.4,2.4-0.5c1.1-0.2,2.3-0.3,3.4-0.4C113.5,103.9,116.7,104,119.9,103.9z M121.5,104.2
	c0.1,0,0.2,0,0.2,0c0.7,0.1,1.5,0.3,2.2,0.4c0.1,0,0.2,0,0.3,0.1c0.2,0,0.4,0.1,0.6,0.1c-2,0.5-4.1,1-6.1,1.3
	C119.5,105.3,120.5,104.7,121.5,104.2z M128.4,105.3c0.2,0.1,0.3,0.2,0.5,0.3c-0.5-0.1-0.9-0.2-1.4-0.4
	C127.8,105.2,128.1,105.3,128.4,105.3z M128.8,105.3c0.2,0,0.4,0,0.6,0c0.4,0.1,0.8,0.3,1.1,0.4c-0.1,0.1-0.3,0.1-0.4,0.1
	c-0.1,0-0.3-0.1-0.4-0.1C129.4,105.6,129.1,105.5,128.8,105.3z M130.8,105.9c1.1,0.4,2.2,0.8,3.3,1.3c-1.2-0.4-2.5-0.8-3.7-1.1
	C130.6,106,130.7,105.9,130.8,105.9z M133.1,107c-0.6-0.2-1.3-0.4-1.9-0.6C131.9,106.6,132.5,106.8,133.1,107z M136.1,107.7
	L136.1,107.7L136.1,107.7L136.1,107.7z M135.8,105.1c0.1,0,0.2,0,0.3,0c1,0.5,2,1,2.9,1.4c-0.4,0.2-0.8,0.4-1.3,0.6
	C137,106.4,136.4,105.8,135.8,105.1z M139.3,105.6c0.3,0.1,0.7,0.2,1,0.3c-0.3,0.1-0.5,0.2-0.8,0.3
	C139.4,106,139.4,105.8,139.3,105.6z M139.2,105.4c-0.1-0.3-0.1-0.6-0.2-0.8c1.2-0.2,2.5-0.6,3.7-0.9c0.3,0.2,0.7,0.4,1,0.6
	c-1.1,0.5-2.1,1.1-3.2,1.6C140.1,105.7,139.7,105.5,139.2,105.4z M143.9,104.4c0.8,0.5,1.5,0.9,2.3,1.4c0,0.4,0,0.8,0,1.2
	c-0.6,0.1-1.2,0.2-1.8,0.3c-1.2-0.5-2.4-1-3.6-1.4C141.8,105.4,142.9,104.9,143.9,104.4z M146.4,107c0-0.4,0-0.7,0-1.1
	c0.4,0.3,0.8,0.5,1.2,0.8C147.2,106.8,146.8,106.9,146.4,107z M146.2,107.2c0,0.3,0.1,0.7,0.1,1c-0.5-0.2-1.1-0.5-1.6-0.7
	C145.2,107.4,145.7,107.3,146.2,107.2z M149.5,106.2c-0.5,0.2-1.1,0.3-1.6,0.4c-0.5-0.3-1-0.6-1.5-0.9c0-0.7,0.1-1.3,0.3-2
	c0.1-0.3,0.2-0.7,0.3-1c0.7-0.4,1.5-0.8,2.2-1.3c1.4,1.1,2.8,2.2,4.3,3.3c0,0-0.1,0-0.1,0.1C152.1,105.3,150.8,105.8,149.5,106.2z
	 M154.6,104.4c1.5,1,3,2,4.5,3.2c0.3,0.2,0.6,0.4,0.9,0.6c-0.3,0.2-0.6,0.4-0.9,0.6c-1.7-1.4-3.5-2.7-5.2-4.1
	C154.1,104.6,154.4,104.5,154.6,104.4z M160.9,108.8c0.1,0,0.1,0.1,0.2,0.1c-0.2,0.3-0.4,0.7-0.5,1c-0.3-0.2-0.5-0.4-0.8-0.6
	C160.1,109.1,160.5,109,160.9,108.8z M161.2,109.1c1.7,1.3,3.5,2.6,5.3,4c-0.4,0.2-0.7,0.5-1.1,0.7c-1.6-1.3-3.1-2.5-4.7-3.8
	C160.8,109.7,161,109.4,161.2,109.1z M161.3,108.9c0.1-0.1,0.2-0.3,0.3-0.4c0.9-0.4,1.8-0.9,2.7-1.4c1.5,1.4,3.1,2.9,4.6,4.4
	c-0.7,0.5-1.5,1-2.3,1.5C164.8,111.6,163,110.2,161.3,108.9z M169.2,111.5c1.2-0.8,2.3-1.7,3.5-2.5c0.4,0.5,0.9,1,1.3,1.5
	c-1.1,0.8-2.2,1.6-3.4,2.3C170.1,112.4,169.6,111.9,169.2,111.5z M181.4,113.2c0.1,0.2,0.3,0.3,0.4,0.5c-0.7,0.2-1.5,0.5-2.2,0.9
	C180.2,114.1,180.8,113.6,181.4,113.2z M181.6,113c0.3-0.2,0.5-0.4,0.8-0.7c0.3,0.3,0.6,0.6,0.9,0.9c-0.4,0.1-0.9,0.2-1.3,0.3
	C181.9,113.4,181.7,113.2,181.6,113z M181.5,112.9c-1.3-1.8-2.7-3.6-4-5.4l0,0c1.6,1.6,3.1,3.1,4.8,4.8
	C182,112.4,181.7,112.7,181.5,112.9z M177.3,107.3C177.3,107.3,177.3,107.2,177.3,107.3C177.3,107.2,177.3,107.3,177.3,107.3
	L177.3,107.3z M176.5,106.2c0-0.1-0.1-0.1-0.1-0.2c0.6-0.5,1.1-0.9,1.7-1.4c0.2,0.3,0.4,0.6,0.6,1c-0.4,0.5-0.8,1-1.2,1.5
	C177.1,106.8,176.8,106.5,176.5,106.2z M176.3,105.9c-1.3-1.7-2.5-3.5-3.8-5.2c1-0.3,2.1-0.5,3.1-0.5c0.8,1.4,1.6,2.9,2.4,4.3
	C177.4,104.9,176.9,105.4,176.3,105.9z M175.8,100.1c0.5,0,1,0,1.6,0c0.6,1.1,1.3,2.1,1.9,3.2c-0.4,0.3-0.7,0.7-1.1,1
	C177.3,102.9,176.5,101.5,175.8,100.1z M175.7,99.9c-0.4-0.7-0.7-1.4-1.1-2.1c0.2-0.3,0.4-0.7,0.7-1l0.1-0.1
	c0.6,1.1,1.2,2.1,1.9,3.2C176.7,99.9,176.2,99.9,175.7,99.9z M175.5,96.6c0.9-0.9,1.9-1.7,2.8-2.6c1,2,2,4.1,3,6.2
	c-0.1,0.2-0.1,0.4-0.2,0.6c-0.6-0.2-1.1-0.4-1.8-0.5c-0.6-0.1-1.3-0.2-1.9-0.3C176.8,98.9,176.2,97.8,175.5,96.6z M178.5,93.9
	c0.1-0.1,0.2-0.2,0.3-0.2c0.5,1.4,1.1,2.9,1.7,4.3C179.8,96.6,179.1,95.2,178.5,93.9z M178.4,93.7c-0.3-0.5-0.5-1.1-0.8-1.6
	c0.1-0.3,0.2-0.5,0.3-0.8c0.3,0.7,0.5,1.5,0.8,2.2C178.6,93.5,178.5,93.6,178.4,93.7z M177.9,90.2c0,0.1-0.1,0.2-0.1,0.3
	c-0.1-0.3-0.2-0.6-0.3-0.9c0.2,0.1,0.3,0.2,0.5,0.3C178,90,177.9,90.1,177.9,90.2z M177.7,90.9c-0.1,0.3-0.2,0.6-0.3,0.9
	c-0.5-1-0.9-2-1.4-3c0.4,0.2,0.8,0.4,1.1,0.6C177.4,90,177.6,90.4,177.7,90.9z M176,88.6c-0.2-0.4-0.3-0.8-0.5-1.1
	c0.3-0.3,0.6-0.6,0.8-0.9c0.2,0.7,0.4,1.4,0.7,2.1c0.1,0.2,0.1,0.3,0.2,0.5C176.8,89,176.4,88.8,176,88.6z M175.4,87.3
	c-0.3-0.7-0.6-1.3-0.9-2c0.3-0.8,0.6-1.5,0.8-2.3c0.3,1.1,0.6,2.2,0.9,3.4C176,86.7,175.7,87,175.4,87.3z M175.5,82.6
	c0.1-0.3,0.2-0.6,0.2-0.9c0.1-0.5,0.2-0.9,0.3-1.4c0,0,0,0,0.1,0.1c0.5,1.5,1,3,1.5,4.6c-0.4,0.4-0.7,0.8-1.1,1.2
	C176.1,85,175.8,83.8,175.5,82.6z M176.4,80.9c0.8,1.1,1.4,2.3,1.7,3.5c-0.1,0.1-0.3,0.3-0.4,0.4C177.2,83.5,176.8,82.2,176.4,80.9z
	 M176.2,80.4c-0.1-0.2-0.1-0.4-0.2-0.5c0-0.4,0.1-0.8,0.1-1.1c0.1-0.2,0.3-0.3,0.4-0.5c0.3,1.2,0.6,2.4,0.9,3.6
	c0.1,0.3,0.2,0.5,0.2,0.8C177.3,81.8,176.8,81.1,176.2,80.4z M176.2,78.4c0-0.6,0-1.2,0-1.7c0.1,0.4,0.2,0.9,0.3,1.4
	C176.4,78.1,176.3,78.2,176.2,78.4z M175.7,73.3c0.8,0.1,1.6,0.2,2.5,0.4c0.4,0.1,0.8,0.2,1.2,0.3c-0.9,1.3-1.8,2.5-2.8,3.7
	C176.3,76.3,176,74.8,175.7,73.3z M178.3,73.6c-0.9-0.2-1.8-0.3-2.6-0.4c0-0.2-0.1-0.3-0.1-0.5c4.1-5.8,7.1-11.8,8.9-17.9
	c1.6-0.5,3.3-0.7,5-0.8c-1.9,6.8-5.3,13.5-9.9,20C179.1,73.8,178.7,73.7,178.3,73.6z M185.9,41c0.2,3.6-0.1,7.4-1,11.1
	c-0.2,0.8-0.4,1.6-0.7,2.5c-1.5,0.4-2.8,1-4,1.8c0.2-0.7,0.4-1.5,0.6-2.2c0.8-3.4,1.1-6.8,0.9-10.1c-0.1-1.2-0.2-2.3-0.5-3.4
	c1.2-1.3,2.6-2.4,4.1-3.3C185.7,38.5,185.9,39.8,185.9,41z M181.3,40.4c-1-4.6-3.2-8.9-6.4-12.5c1-1.7,2.2-3.2,3.5-4.5
	c3.5,3.9,6,8.7,7,13.8C183.9,38.1,182.5,39.2,181.3,40.4z M174.7,27.7c-2.9-3.2-6.6-5.9-10.8-7.6c-0.6-0.2-1.1-0.4-1.7-0.6
	c0.6-1.9,1.4-3.7,2.3-5.2c0.6,0.2,1.3,0.4,1.9,0.7c4.6,1.8,8.6,4.7,11.8,8.3C176.9,24.6,175.8,26.1,174.7,27.7z M162.1,19.4
	c-1.3-0.4-2.6-0.8-3.9-1.1c-4.2-1-8.6-1.3-13.2-1.2c0-1.9,0.2-3.8,0.6-5.4c5.1-0.2,10,0.2,14.6,1.3c1.4,0.3,2.8,0.7,4.2,1.2
	C163.5,15.8,162.7,17.5,162.1,19.4z M158.1,18.5c1.3,0.3,2.6,0.7,3.9,1.1c-0.2,0.8-0.5,1.6-0.7,2.4c-0.3,1.3-0.5,2.6-0.7,4
	c-1.1-0.4-2.3-0.7-3.5-1c-3.7-0.9-7.7-1.2-11.8-1c-0.3-2.3-0.4-4.6-0.4-6.7C149.6,17.2,154,17.6,158.1,18.5z M145.2,24
	c-5.7,0.2-11.6,1.3-17.3,3.1c-0.9-2.2-1.7-4.3-2.4-6.2c6.4-2.1,13-3.3,19.3-3.6C144.7,19.4,144.9,21.7,145.2,24z M125.3,21
	c0.6,1.9,1.4,4,2.4,6.2c-6,2-11.8,4.7-17.1,7.9c-1.5-1.9-2.9-3.7-4.2-5.4C112.2,26.2,118.6,23.2,125.3,21z M127.7,27.4
	c0.5,1.2,1,2.4,1.6,3.6c0.6,1.3,1.2,2.6,1.8,3.9c-5.3,1.7-10.5,4.1-15.2,7c-0.9-1.1-1.8-2.3-2.7-3.4c-0.9-1.1-1.7-2.2-2.5-3.2
	C116,32.1,121.7,29.4,127.7,27.4z M113.1,38.6c0.9,1.1,1.8,2.2,2.7,3.4c-4.9,3-9.3,6.5-13,10.3c-1.2-0.9-2.3-1.8-3.4-2.7
	c-1.2-0.9-2.3-1.8-3.4-2.6c4.2-4.3,9.2-8.3,14.6-11.6C111.3,36.4,112.2,37.5,113.1,38.6z M99.2,49.7c1.1,0.9,2.3,1.8,3.4,2.7
	c-3.7,3.9-6.8,8.1-9.1,12.4c-1.3-0.7-2.7-1.3-4-2c-1.4-0.6-2.7-1.2-4-1.8c2.5-4.9,6-9.6,10.3-14C96.9,48,98,48.8,99.2,49.7z
	 M89.4,63.1c1.3,0.6,2.6,1.3,4,1.9c-1.5,2.9-2.6,5.8-3.2,8.8c-0.3,1.4-0.5,2.7-0.7,4.1c-1.5-0.4-2.9-0.9-4.4-1.2
	c-0.6-0.2-1.2-0.3-1.8-0.4c-0.8-0.2-1.6-0.3-2.3-0.5c0.1-1.5,0.4-3,0.7-4.5c0.8-3.4,2-6.7,3.7-9.9C86.7,61.8,88.1,62.4,89.4,63.1z
	 M83.3,76.4c0.6,0.1,1.2,0.3,1.8,0.4c1.5,0.4,2.9,0.8,4.4,1.2c-0.1,1-0.1,2-0.1,3c0,2.9,0.7,5.8,1.9,8.5c-1.5-0.2-3-0.4-4.5-0.5
	c-1.3-0.1-2.6-0.2-3.9-0.2c-1.3-3-2.1-6.3-2.1-9.6c0-1.1,0.1-2.3,0.2-3.4C81.7,76.1,82.5,76.2,83.3,76.4z M86.8,89.3
	c1.5,0.1,3,0.3,4.6,0.6c1.5,3.3,3.9,6.3,6.9,8.6c-1.3,0-2.6,0-3.9,0c-1.2,0.1-2.4,0.2-3.5,0.3c-3.4-2.6-6.1-6-7.9-9.8
	C84.3,89.1,85.5,89.2,86.8,89.3z M94.4,98.7c1.3-0.1,2.7-0.1,4.1,0c1.2,0.9,2.5,1.7,3.8,2.3c1.8,0.9,3.8,1.5,5.9,2
	c0.5,0.1,1,0.2,1.5,0.3c-0.9,0.1-1.8,0.2-2.7,0.3c-1,0.2-1.9,0.4-2.8,0.7c-0.8-0.1-1.6-0.3-2.4-0.5c-2.4-0.5-4.6-1.3-6.7-2.3
	c-1.5-0.7-2.8-1.5-4.1-2.5C92.2,98.9,93.3,98.8,94.4,98.7z M95.1,101.6c2.1,1,4.3,1.7,6.7,2.3c0.7,0.2,1.4,0.3,2.1,0.4
	c-1.6,0.5-3.2,1.2-4.6,2.1c-0.9-0.2-1.9-0.3-2.8-0.5c-2.6-0.6-5.1-1.5-7.5-2.5c-1.6-0.8-3.1-1.7-4.5-2.7c2-0.7,4.1-1.2,6.3-1.5
	C92.2,100.1,93.6,100.9,95.1,101.6z M104.3,104.4c5.2,0.9,10.8,0.8,16.5-0.1c-0.9,0.5-1.7,1.1-2.5,1.9c-6.5,1.1-12.9,1.2-18.7,0.3
	C101.1,105.6,102.6,104.9,104.3,104.4z M118.2,106.4c-0.8,0.9-1.5,1.9-2,3.1c-7.1,1.2-14.2,1.3-20.6,0.2c1.1-1.2,2.4-2.2,3.9-3.1
	C105.3,107.6,111.7,107.5,118.2,106.4z M118.5,106.3c2.3-0.4,4.5-0.9,6.8-1.5c0.1,0,0.1,0,0.2,0c0.1,0,0.1,0,0.2,0
	c1.3,0.3,2.6,0.6,4,1c0,0,0.1,0,0.1,0.1c-0.9,0.3-1.8,0.6-2.7,0.9c-3.5,1.1-7.1,1.9-10.6,2.5C117,108.3,117.7,107.2,118.5,106.3z
	 M138.9,107.9c0.3,0,0.6,0,0.9,0c0.1,0.2,0.2,0.5,0.3,0.7C139.7,108.4,139.3,108.2,138.9,107.9z M138.7,107.7
	c-0.3-0.2-0.5-0.4-0.7-0.5c0.4-0.2,0.9-0.4,1.3-0.6c0.1,0,0.1,0.1,0.2,0.1c0.1,0.3,0.2,0.7,0.4,1
	C139.4,107.7,139.1,107.7,138.7,107.7z M139.7,106.8c0.6,0.3,1.1,0.6,1.7,0.9c-0.5,0-0.9,0-1.4,0
	C139.9,107.4,139.8,107.1,139.7,106.8z M139.6,106.6L139.6,106.6c0.3-0.2,0.6-0.4,1-0.5c1.2,0.4,2.3,0.9,3.5,1.4
	c-0.8,0.1-1.5,0.2-2.3,0.3C141,107.3,140.3,106.9,139.6,106.6z M144.4,107.5c0.7,0.3,1.3,0.6,2,0.9c0,0.1,0,0.2,0.1,0.2
	c-0.5,0.2-1,0.5-1.4,0.7c-1-0.5-2-1-3-1.6C142.8,107.7,143.6,107.6,144.4,107.5z M146.5,108.8c0.2,0.6,0.5,1.2,0.8,1.8
	c-0.7-0.4-1.4-0.8-2.1-1.2C145.7,109.3,146.1,109,146.5,108.8z M150.5,110.1c-1.1-0.6-2.3-1.1-3.4-1.6c0.6-0.3,1.3-0.7,1.9-1
	c1.7,1.1,3.4,2.2,5.1,3.3c-0.6,0.1-1.2,0.2-1.8,0.2C151.7,110.7,151.1,110.4,150.5,110.1z M149.2,107.4c1.5-0.8,2.9-1.6,4.3-2.5
	c0.1,0,0.1,0,0.2-0.1c1.7,1.3,3.5,2.7,5.3,4.1c-0.6,0.4-1.3,0.8-1.9,1.2c-0.1,0-0.2,0.1-0.3,0.1c-0.8,0.2-1.6,0.4-2.3,0.6
	C152.6,109.6,150.9,108.5,149.2,107.4z M156.4,110.5c-0.4,0.3-0.9,0.5-1.3,0.7c-0.2-0.1-0.3-0.2-0.5-0.3
	C155.2,110.8,155.8,110.7,156.4,110.5z M157.1,110.3c0.8-0.3,1.6-0.6,2.4-0.9c0.3,0.2,0.6,0.5,0.9,0.7c-0.4,0.8-0.7,1.7-0.9,2.5
	c-0.1,0.5-0.2,1-0.2,1.5c-1.4-0.9-2.7-1.8-4.1-2.7C155.9,111,156.5,110.6,157.1,110.3z M159.7,112.6c0.2-0.8,0.5-1.6,0.9-2.4
	c1.5,1.2,3.1,2.4,4.6,3.7c-1.1,0.7-2.1,1.3-3.2,2c-0.8-0.6-1.7-1.1-2.5-1.7C159.5,113.7,159.6,113.2,159.7,112.6z M165.4,114
	c0.3,0.3,0.6,0.5,1,0.8c-0.5,0.2-1.1,0.4-1.6,0.6c-0.8,0.2-1.5,0.4-2.3,0.5C163.4,115.3,164.4,114.7,165.4,114z M165.5,113.9
	c0.4-0.2,0.7-0.5,1.1-0.7c0.4,0.3,0.8,0.6,1.2,1c-0.4,0.2-0.9,0.4-1.3,0.5C166.2,114.5,165.9,114.2,165.5,113.9z M168,114.3
	c1.8,1.4,3.6,2.9,5.5,4.4c-0.4,0.3-0.7,0.5-1.1,0.7c-1.9-1.6-3.8-3.1-5.7-4.6C167.1,114.7,167.6,114.5,168,114.3z M173.6,118.9
	c0.2,0.1,0.3,0.3,0.5,0.4c-0.2,0.4-0.5,0.7-0.7,1.1c-0.3-0.3-0.6-0.5-0.9-0.8C172.9,119.4,173.3,119.1,173.6,118.9z M173.8,118.8
	c0.5-0.4,1-0.7,1.5-1.1c-0.4,0.5-0.8,0.9-1.1,1.4C174.1,119,173.9,118.9,173.8,118.8z M175.4,117.4c-1.6-1.5-3.1-3-4.7-4.5
	c1.2-0.7,2.3-1.5,3.4-2.3c1.3,1.5,2.7,3.1,4.1,4.7c-0.7,0.4-1.3,0.9-1.9,1.4C176,117,175.7,117.2,175.4,117.4z M178.6,115.3
	L178.6,115.3c1-0.6,2.1-1.1,3.3-1.5c0.4,0.5,0.8,1,1.2,1.6c-0.7,0.8-1.5,1.6-2.4,2.3C180,116.9,179.3,116.1,178.6,115.3z
	 M182.5,112.2c0,0,0.1-0.1,0.2-0.1c0.2,0.3,0.3,0.5,0.5,0.8C183,112.7,182.8,112.5,182.5,112.2z M182.4,112.1
	c-1.7-1.7-3.2-3.3-4.8-4.8c0.4-0.5,0.8-1,1.2-1.5c1.2,2,2.5,4.1,3.8,6.2C182.5,112,182.5,112.1,182.4,112.1z M178.9,105.6
	c0.3-0.5,0.6-0.9,0.9-1.4c1.3,2.2,2.7,4.4,4.1,6.6c-0.4,0.3-0.8,0.7-1.2,1C181.4,109.7,180.1,107.6,178.9,105.6z M178.8,105.4
	c-0.2-0.3-0.4-0.6-0.5-0.9c0.4-0.3,0.8-0.6,1.1-1c0.1,0.2,0.2,0.3,0.3,0.5C179.4,104.5,179.1,104.9,178.8,105.4z M179.5,103.4
	c0.3-0.3,0.6-0.5,0.9-0.8c-0.2,0.4-0.4,0.8-0.6,1.2C179.7,103.7,179.6,103.5,179.5,103.4z M179.4,103.2c-0.6-1-1.2-2-1.8-3.1
	c0.6,0.1,1.2,0.2,1.8,0.3c0.6,0.1,1.2,0.3,1.7,0.5c-0.1,0.4-0.3,0.8-0.5,1.2C180.2,102.5,179.8,102.9,179.4,103.2z M181.3,101.1
	c0.1,0.1,0.3,0.1,0.4,0.2c-0.2,0.2-0.5,0.4-0.7,0.6C181.1,101.6,181.2,101.3,181.3,101.1z M181.9,100.9c-0.1-0.3-0.2-0.6-0.4-0.8
	c0-0.2,0.1-0.3,0.1-0.5c0.2-1,0.3-2,0.3-3c0.4,1,0.9,2,1.3,3.1C182.9,100.1,182.4,100.5,181.9,100.9
	C181.9,101,181.9,101,181.9,100.9z M178.2,89.9c0.2-0.7,0.3-1.5,0.3-2.2c0.5,1.2,0.9,2.5,1.4,3.7C179.4,90.8,178.8,90.3,178.2,89.9z
	 M178,89.8c-0.2-0.1-0.4-0.3-0.6-0.4c-0.1-0.2-0.2-0.5-0.2-0.7c-0.2-0.8-0.5-1.5-0.7-2.2c0.4-0.4,0.7-0.8,1.1-1.2
	c0.2,0.6,0.5,1.3,0.7,2C178.3,88,178.2,88.9,178,89.8z M177.8,85.1c0.1-0.1,0.3-0.3,0.4-0.4c0.1,0.4,0.1,0.8,0.2,1.2
	c0,0.3,0,0.5,0,0.8C178.1,86.1,178,85.6,177.8,85.1z M177.6,81.8c-0.3-1.3-0.6-2.5-0.9-3.7c1-1.3,2-2.6,3-3.9
	c1.2,0.4,2.5,0.8,3.8,1.4c0.4,0.2,0.9,0.4,1.3,0.6c-1.9,2.7-4,5.3-6.2,7.8c-0.1,0.1-0.2,0.2-0.3,0.3
	C178.1,83.4,177.8,82.6,177.6,81.8z M183.6,75.4c-1.3-0.6-2.6-1-3.8-1.4c4.6-6.5,8-13.3,9.9-20.1c1.4-0.1,2.9,0,4.4,0.2
	c0.5,0.1,1,0.2,1.4,0.2c-2,7.3-5.7,14.6-10.7,21.6C184.5,75.8,184,75.6,183.6,75.4z M195.2,33.8c-1.5,0.2-3,0.5-4.4,0.9
	c-1.2-5.5-4-10.7-7.9-15c1.3-0.8,2.7-1.4,4.1-1.9c0.3-0.1,0.7-0.2,1-0.3c4.2,4.6,7.3,10.1,8.6,16.1
	C196.1,33.7,195.7,33.7,195.2,33.8z M190.6,34.7c-1.8,0.6-3.4,1.3-5,2.3c-1.1-5.1-3.6-9.8-7.1-13.8c1.3-1.3,2.7-2.5,4.3-3.4
	C186.6,24.1,189.4,29.2,190.6,34.7z M178.3,23.1c-3.2-3.5-7.2-6.4-11.8-8.3c-0.6-0.2-1.2-0.5-1.8-0.7c0.9-1.5,1.9-2.9,3.1-4
	c0.7,0.2,1.4,0.5,2.1,0.8c4.9,2,9.2,5,12.7,8.8C181.1,20.6,179.6,21.8,178.3,23.1z M164.5,14.1c-1.4-0.5-2.8-0.9-4.2-1.2
	c-4.6-1.1-9.5-1.5-14.6-1.3c0.3-1.3,0.7-2.5,1.2-3.5c0.9-0.2,1.9-0.4,2.8-0.6c4.7,0,9.3,0.4,13.6,1.4c1.5,0.3,2.9,0.8,4.3,1.2
	C166.4,11.2,165.4,12.5,164.5,14.1z M145.4,11.8c-0.4,1.6-0.6,3.5-0.6,5.4c-6.3,0.2-12.9,1.5-19.3,3.6c-0.6-1.8-1-3.5-1.2-5
	c0.1-0.1,0.2-0.1,0.3-0.1C131.4,13.4,138.5,12,145.4,11.8z M107,24.7c-0.3-0.3-0.7-0.6-1-0.9c5.3-3,10.9-5.6,16.8-7.6
	C117.3,18.7,112,21.5,107,24.7z M106.8,24.8c-0.9,0.6-1.9,1.2-2.8,1.8c-0.3-0.4-0.5-0.8-0.8-1.1c0.9-0.5,1.7-1,2.6-1.5
	C106.1,24.2,106.5,24.5,106.8,24.8z M103.8,26.7c-6.2,4.1-12.1,8.7-17.5,13.7c-0.4-0.2-0.8-0.5-1.1-0.7c5.2-5.3,11.2-10,17.8-14.1
	C103.3,25.9,103.6,26.3,103.8,26.7z M103.9,26.8c0.6,0.9,1.4,1.9,2.1,2.9c-6.1,3.7-11.6,8.1-16.3,12.9c-1-0.7-1.9-1.3-2.8-1.9
	c-0.2-0.1-0.3-0.2-0.5-0.3C91.9,35.5,97.7,30.9,103.9,26.8z M106.2,29.9c1.2,1.6,2.6,3.4,4.2,5.4c-5.5,3.4-10.4,7.3-14.7,11.6
	c-2-1.5-3.9-2.9-5.7-4.1C94.7,37.9,100.2,33.6,106.2,29.9z M95.6,47c-4.2,4.3-7.7,9.1-10.3,14c-2.4-1-4.7-1.9-6.9-2.6
	c2.8-5.5,6.7-10.7,11.4-15.5C91.6,44.1,93.6,45.5,95.6,47z M85.2,61.2c-1.7,3.3-2.9,6.6-3.7,10c-0.3,1.5-0.6,3-0.7,4.5
	c-2.6-0.5-5.1-0.8-7.4-1c0.2-1.7,0.4-3.3,0.8-5c0.9-3.8,2.3-7.5,4.2-11.2C80.5,59.3,82.8,60.1,85.2,61.2z M80.8,75.9
	c-0.1,1.1-0.2,2.3-0.2,3.4c0,3.3,0.8,6.6,2.1,9.6c-2.5,0-4.9,0.1-7.2,0.4c-1.5-3.4-2.3-7-2.4-10.7c0-1.2,0.1-2.5,0.2-3.7
	C75.7,75,78.2,75.4,80.8,75.9z M82.8,89.1c1.7,3.8,4.4,7.2,7.8,9.8c-2.2,0.3-4.3,0.9-6.3,1.6c-3.8-2.9-6.9-6.7-8.8-10.9
	C77.9,89.2,80.3,89,82.8,89.1z M84.2,100.5c-1.9,0.7-3.7,1.5-5.3,2.5c-4.2-3.2-7.5-7.4-9.6-12.1c1.9-0.6,3.9-1.1,6.1-1.4
	C77.3,93.8,80.3,97.6,84.2,100.5z M84.3,100.7c1.5,1.1,3,2,4.7,2.8c2.3,1.1,4.9,1.9,7.5,2.6c0.9,0.2,1.7,0.4,2.6,0.5
	c-1.4,0.9-2.7,1.9-3.8,3.1c-1-0.2-1.9-0.3-2.9-0.6c-2.9-0.7-5.7-1.6-8.3-2.8c-1.8-0.9-3.5-1.9-5.1-3.1
	C80.7,102.2,82.4,101.4,84.3,100.7z M84,106.4c2.6,1.2,5.4,2.2,8.3,2.8c0.9,0.2,1.8,0.4,2.8,0.5c-1.2,1.2-2.1,2.6-2.9,4.1
	c-0.9-0.2-1.9-0.3-2.8-0.6c-3.2-0.7-6.3-1.8-9.1-3.1c-2-1-3.9-2.1-5.7-3.5c1.2-1.3,2.6-2.4,4.2-3.5C80.5,104.5,82.2,105.6,84,106.4z
	 M95.4,109.9c6.5,1.1,13.5,1,20.7-0.2c-0.4,0.9-0.7,1.8-0.9,2.7c-0.1,0.5-0.2,1-0.3,1.5c-7.8,1.2-15.5,1.3-22.5,0.1
	C93.2,112.5,94.2,111.1,95.4,109.9z M115,117.9c-0.1-1.3,0-2.6,0.1-3.9c4-0.6,8.1-1.6,12.1-2.8c3-0.9,6-2,8.9-3.2
	c0.4,0.2,0.9,0.3,1.3,0.5c1.1,0.5,2.2,1,3.4,1.4l0,0c0.2,0.4,0.4,0.8,0.6,1.2c-4.3,1.9-8.7,3.6-13.1,5c-4.3,1.3-8.7,2.3-13.1,3
	C115,118.7,115,118.3,115,117.9z M141,110c0.5,0.2,0.9,0.4,1.4,0.6c-0.3,0.1-0.6,0.3-0.9,0.4C141.3,110.7,141.1,110.4,141,110z
	 M141.6,110.1c0.2,0.1,0.4,0.2,0.6,0.2c0.2,0.1,0.3,0.1,0.5,0.2l0,0C142.3,110.4,141.9,110.2,141.6,110.1z M142.3,110.2
	c-0.5-0.2-1-0.4-1.5-0.6c-0.1-0.2-0.1-0.3-0.2-0.5c0.9,0.4,1.8,0.8,2.7,1.1c-0.1,0.1-0.3,0.1-0.4,0.2
	C142.7,110.3,142.5,110.2,142.3,110.2z M140.4,108.8c-0.1-0.3-0.2-0.6-0.4-0.9c0.5,0,1.1,0,1.6-0.1c1,0.5,2.1,1.1,3.1,1.6
	c-0.4,0.2-0.9,0.4-1.3,0.6C142.4,109.7,141.4,109.3,140.4,108.8z M145,109.6c0.9,0.4,1.7,0.9,2.6,1.4l0,0c-0.8-0.1-1.6-0.2-2.3-0.4
	c-0.5-0.1-1-0.3-1.5-0.4C144.2,110,144.6,109.8,145,109.6z M148.1,111.2c1.2,0.6,2.3,1.3,3.5,1.9c-0.3,0.2-0.6,0.3-0.9,0.5
	C149.7,112.9,148.7,112.1,148.1,111.2C148,111.2,148.1,111.2,148.1,111.2z M148.5,111.2c1.2,0.1,2.5,0.1,3.8,0
	c0.5,0.2,1,0.5,1.4,0.7c-0.6,0.4-1.3,0.7-1.9,1.1C150.7,112.4,149.6,111.8,148.5,111.2z M152.6,111.2c0.6-0.1,1.1-0.1,1.7-0.2
	c0.2,0.1,0.4,0.2,0.6,0.4c-0.3,0.2-0.6,0.4-1,0.5C153.5,111.6,153.1,111.4,152.6,111.2z M155.1,111.5c1.4,0.9,2.8,1.9,4.2,2.8
	c0,0.2,0,0.4,0,0.6c-1.7-1-3.4-1.9-5.1-2.8C154.4,111.8,154.7,111.6,155.1,111.5z M164.8,115.5c0.6-0.2,1.2-0.4,1.7-0.6
	c1.9,1.5,3.8,3.1,5.7,4.7c-0.8,0.6-1.7,1.1-2.5,1.6c-2.5-1.8-4.9-3.5-7.4-5.2C163.1,116,163.9,115.8,164.8,115.5z M173.5,120.7
	c0.3,0.2,0.5,0.4,0.8,0.6c-0.3,0.1-0.6,0.2-0.8,0.3c-0.1,0-0.2,0.1-0.3,0.1C173.2,121.3,173.4,121,173.5,120.7z M173.6,120.5
	c0.2-0.4,0.4-0.8,0.6-1.1c0.5,0.4,1.1,0.9,1.6,1.3c-0.4,0.2-0.9,0.4-1.3,0.5C174.2,121,173.9,120.7,173.6,120.5z M174.3,119.2
	c0.3-0.5,0.7-1,1.2-1.4c0.7,0.7,1.4,1.4,2.1,2c-0.5,0.3-1.1,0.6-1.6,0.8C175.5,120.2,174.9,119.7,174.3,119.2z M180.9,117.8
	c0.9-0.7,1.7-1.5,2.4-2.3c1.3,1.7,2.5,3.4,3.8,5c-0.7,0.6-1.5,1.1-2.2,1.7C183.5,120.8,182.2,119.3,180.9,117.8z M183.4,115.4
	c0.3-0.3,0.6-0.7,0.8-1c1.2,1.8,2.4,3.7,3.7,5.6c-0.2,0.2-0.5,0.4-0.7,0.5C185.9,118.8,184.6,117.1,183.4,115.4z M184.4,114.4
	c1.5,1.5,3,3.1,4.6,4.7c-0.3,0.3-0.6,0.5-0.9,0.8C186.8,118,185.6,116.2,184.4,114.4z M183.9,113.6c0,0-0.1-0.1-0.1-0.2
	c0.3,0,0.5,0,0.8,0c-0.1,0.2-0.2,0.4-0.4,0.5C184.1,113.8,184,113.7,183.9,113.6z M183.7,113.3c-0.3-0.4-0.5-0.8-0.8-1.3
	c0.4-0.3,0.8-0.6,1.2-1c0.3,0.5,0.7,1.1,1,1.6c-0.1,0.2-0.2,0.4-0.4,0.6C184.3,113.2,184,113.2,183.7,113.3z M185.2,112.8
	c0.1,0.1,0.2,0.3,0.3,0.4c-0.2,0-0.3,0-0.5,0C185,113.1,185.1,112.9,185.2,112.8z M185.3,112.6c0.4-0.8,0.7-1.5,0.9-2.3
	c0.6,1.2,1.2,2.3,1.8,3.5c-0.3-0.1-0.7-0.2-1-0.3c-0.4-0.1-0.9-0.2-1.3-0.2C185.5,113,185.4,112.8,185.3,112.6z M185.1,112.4
	c-0.3-0.5-0.6-1-1-1.5c0.5-0.5,1.1-0.9,1.6-1.4c0.1,0.2,0.2,0.3,0.3,0.5C185.9,110.8,185.5,111.6,185.1,112.4z M184.1,110.7
	c-1.4-2.2-2.8-4.5-4.2-6.7c0.3-0.6,0.6-1.2,0.9-1.7c0.4-0.3,0.7-0.6,1.1-1c1.2,2.6,2.5,5.3,3.8,8
	C185.2,109.8,184.6,110.3,184.1,110.7z M183.7,104.8c0.7,1.4,1.5,2.8,2.3,4.3l-0.1,0.1C185.1,107.7,184.4,106.3,183.7,104.8z
	 M182,101.2c0.5-0.4,0.9-0.9,1.4-1.3c0.5,1.1,1,2.3,1.6,3.5C184.2,102.5,183.2,101.8,182,101.2C182.1,101.2,182.1,101.2,182,101.2z
	 M182,96.1c0-0.1,0-0.3,0-0.4c0.5,1.3,1,2.5,1.5,3.8C183,98.3,182.5,97.2,182,96.1z M180.4,92c0-0.1,0.1-0.1,0.2-0.2
	c0.1,0.3,0.2,0.5,0.3,0.8C180.7,92.4,180.5,92.2,180.4,92z M180.3,91.8c-0.6-1.6-1.2-3.1-1.7-4.6c0-0.4,0-0.9,0-1.3
	c0-0.1,0-0.3,0-0.4c0.6,2,1.3,4.1,2,6.2C180.4,91.7,180.3,91.7,180.3,91.8z M178.4,84.4c0.1-0.1,0.2-0.3,0.4-0.4
	c2.3-2.5,4.3-5.1,6.2-7.8c1.9,0.9,3.9,1.9,5.9,3.1c-2,2.9-4.2,5.6-6.6,8.4c-1.2,1.3-2.4,2.6-3.6,3.8
	C179.8,89.1,179.1,86.7,178.4,84.4z M185.1,76c5-7,8.6-14.3,10.7-21.7c0.9,0.2,1.8,0.3,2.7,0.5c1.3,0.3,2.6,0.6,3.9,1
	c-2.2,7.8-6.1,15.7-11.3,23.2C189,78,187,76.9,185.1,76z M196.8,33.7c-1.4-6-4.4-11.5-8.6-16.1c1.8-0.5,3.8-0.8,5.8-0.9
	c4.6,4.9,7.8,10.9,9.3,17.2C201.1,33.6,198.9,33.5,196.8,33.7z M188,17.4c-3.7-4-8.4-7.3-13.7-9.4c-0.7-0.3-1.5-0.5-2.2-0.8
	c1.5-0.7,3.1-1.1,4.8-1.4c0.8,0.3,1.6,0.6,2.4,0.9c5.6,2.2,10.5,5.6,14.5,9.8C191.8,16.6,189.9,16.9,188,17.4z M174.2,8.1
	c5.2,2.1,9.9,5.3,13.6,9.3c-0.3,0.1-0.6,0.2-0.9,0.3c-1.5,0.5-2.8,1.1-4.1,1.9c-3.5-3.8-7.8-6.9-12.8-8.8c-0.7-0.3-1.4-0.5-2.1-0.7
	c0.9-0.8,1.8-1.6,2.9-2.2c0.3-0.2,0.7-0.4,1.1-0.5C172.7,7.5,173.5,7.8,174.2,8.1z M170.7,7.7c-1.1,0.6-2.1,1.4-3,2.2
	c-1.4-0.5-2.9-0.9-4.4-1.3c-4.1-0.9-8.3-1.4-12.8-1.4c4.5-0.9,9-1.6,13.5-1.9c1.1,0.2,2.1,0.4,3.2,0.6c1.5,0.4,3,0.8,4.5,1.2
	C171.3,7.3,171,7.5,170.7,7.7z M149.6,7.2c-0.8,0-1.6,0-2.4,0.1c0.5-0.8,1.1-1.6,1.7-2.2c0.2-0.2,0.4-0.4,0.7-0.6
	c4.7-0.2,9.2,0,13.6,0.7C158.7,5.6,154.2,6.3,149.6,7.2z M148.8,7.4c-0.6,0.1-1.2,0.3-1.8,0.4c0.1-0.1,0.1-0.2,0.2-0.4
	C147.7,7.4,148.2,7.4,148.8,7.4z M146.7,7.9c-3.3,0.8-6.5,1.7-9.7,2.7c-1-0.6-2-1.1-3-1.5c4.4-0.9,8.7-1.5,13-1.6
	C146.8,7.6,146.8,7.7,146.7,7.9z M133.3,9.1c-2,0.4-3.9,0.9-5.9,1.5c1.7-0.6,3.3-1.2,5-1.8C132.7,8.8,133,8.9,133.3,9.1z M133.7,9.2
	c1,0.4,2.1,0.9,3.1,1.5c-4.2,1.4-8.3,3-12.3,4.8c-0.1,0-0.2,0-0.3,0.1c-0.2-1.3-0.3-2.6-0.2-3.7c0.4-0.2,0.7-0.3,1.1-0.5
	C127.9,10.5,130.8,9.8,133.7,9.2z M123.9,15.6c-6.3,2.1-12.4,4.8-18.1,8.1c-0.7-0.6-1.3-1.1-1.9-1.5c6.3-3.9,13-7.4,19.9-10.2
	C123.7,13.1,123.7,14.3,123.9,15.6z M105.7,23.8c-0.9,0.5-1.7,1-2.5,1.5c-0.4-0.7-0.8-1.3-1.2-1.9c0.6-0.4,1.2-0.8,1.8-1.2
	C104.3,22.7,105,23.2,105.7,23.8z M102.9,25.4c-6.7,4.1-12.7,8.9-17.9,14.2c-0.8-0.5-1.5-0.8-2.2-1.2c5.8-5.5,12.1-10.5,18.9-14.9
	C102.1,24.1,102.5,24.7,102.9,25.4z M84.9,39.7c-1.5,1.5-2.9,3-4.2,4.6c-0.5-0.9-0.9-1.8-1.3-2.6c1.1-1.1,2.2-2.2,3.3-3.2
	C83.4,38.9,84.1,39.3,84.9,39.7z M85.1,39.8c0.4,0.2,0.7,0.4,1.1,0.7c-1.7,1.6-3.3,3.1-4.9,4.8c-0.2-0.3-0.3-0.5-0.5-0.7
	C82.2,42.9,83.6,41.3,85.1,39.8z M81.2,45.4c-0.9,0.9-1.8,1.9-2.7,2.9s-1.8,2.1-2.7,3.1c1.5-2.3,3.1-4.5,5-6.7
	C80.9,44.9,81,45.1,81.2,45.4z M74.2,57.4c1.2,0.3,2.6,0.7,3.9,1.1c-1.9,3.7-3.3,7.4-4.2,11.2c-0.4,1.7-0.7,3.3-0.8,5
	c-2.2-0.1-4.3-0.1-6.2,0.1c0.2-1.8,0.5-3.6,0.9-5.3c1-4.2,2.5-8.3,4.6-12.4C73,57.1,73.6,57.2,74.2,57.4z M73.1,74.9
	c-0.1,1.2-0.2,2.5-0.2,3.7c0,3.7,0.9,7.4,2.4,10.8c-2.2,0.3-4.2,0.8-6.1,1.4c-1.6-3.7-2.5-7.7-2.5-11.8c0-1.4,0.1-2.7,0.2-4.1
	C68.8,74.7,70.9,74.7,73.1,74.9z M66.5,79.1c0,4.1,0.9,8.1,2.5,11.8c-1.8,0.6-3.5,1.4-4.9,2.3c-1.7-4-2.6-8.3-2.6-12.6
	c0-1.5,0.1-3,0.3-4.6c1.5-0.5,3.2-0.9,5-1.1C66.6,76.3,66.5,77.7,66.5,79.1z M69.1,91.1c2.1,4.7,5.4,8.9,9.6,12.1
	c-1.6,1-3,2.2-4.2,3.5c-4.6-3.5-8.1-8.1-10.3-13.3C65.6,92.5,67.3,91.7,69.1,91.1z M74.4,106.8c-1,1-1.8,2.2-2.5,3.4
	c-0.2,0.3-0.4,0.7-0.5,1c-4.9-3.8-8.7-8.8-11-14.4c0.2-0.2,0.4-0.5,0.6-0.7c0.9-1,1.9-1.8,3.1-2.6C66.2,98.7,69.8,103.3,74.4,106.8z
	 M72.1,110.3c0.7-1.2,1.5-2.3,2.4-3.3c1.8,1.3,3.7,2.5,5.7,3.5c2.8,1.4,5.9,2.4,9.2,3.1c0.9,0.2,1.8,0.4,2.7,0.5
	c-0.6,1.2-1.1,2.5-1.4,3.8c0,0.1-0.1,0.3-0.1,0.4c-0.1,0.3-0.1,0.6-0.2,0.9c-0.9-0.2-1.8-0.3-2.7-0.5c-3.5-0.8-6.9-2-9.9-3.4
	c-2.2-1.1-4.3-2.4-6.2-3.8C71.7,111,71.9,110.6,72.1,110.3z M90.6,119.4c7.6,1.3,15.9,1.3,24.3,0c0.2,1.9,0.6,3.9,1.1,6
	c-9,1.4-17.9,1.4-25.9,0C90.1,123.2,90.3,121.3,90.6,119.4z M115.1,119.3c4.4-0.7,8.8-1.7,13.1-3c4.5-1.4,8.9-3.1,13.1-5
	c0.9,1.8,1.9,3.6,2.9,5.5c-4.6,2.1-9.2,3.8-14,5.3c-4.7,1.4-9.4,2.5-14.1,3.2C115.7,123.2,115.3,121.2,115.1,119.3z M141.6,111.2
	c0.4-0.2,0.7-0.3,1-0.5c2.4,1.1,4.8,2.2,7.1,3.4c-1.7,0.9-3.5,1.7-5.3,2.5C143.4,114.8,142.4,113,141.6,111.2z M142.8,110.6
	C142.8,110.6,142.9,110.6,142.8,110.6c2.5,1,4.9,2.1,7.4,3.2c-0.1,0-0.2,0.1-0.3,0.1C147.6,112.8,145.2,111.7,142.8,110.6z
	 M143.1,110.5c0.2-0.1,0.3-0.1,0.5-0.2c0.6,0.2,1.1,0.3,1.7,0.5c0.8,0.2,1.7,0.3,2.5,0.4c0.7,1,1.7,1.8,2.8,2.5c0,0-0.1,0-0.1,0.1
	C148,112.6,145.5,111.5,143.1,110.5z M150.7,113.8c0.2,0.1,0.4,0.2,0.6,0.3C151.1,114.1,150.9,114,150.7,113.8
	C150.7,113.9,150.7,113.8,150.7,113.8z M151.8,113.3c1.4,0.8,2.9,1.6,4.3,2.5c-0.2,0-0.3-0.1-0.5-0.1c-1.7-0.4-3.4-1.1-4.7-1.9
	C151.2,113.6,151.5,113.4,151.8,113.3z M152,113.2c0.7-0.4,1.3-0.7,1.9-1.1c1.8,0.9,3.5,1.9,5.3,2.9c0,0.1,0,0.1,0,0.2
	c0,0.3,0.1,0.6,0.1,0.9c-0.9,0-1.8-0.1-2.7-0.2C155.1,114.9,153.5,114,152,113.2z M159.6,116.3c0.5,0,1.1,0,1.6-0.1
	c0,0,0.1,0,0.1,0.1c-0.5,0.3-1,0.6-1.5,0.8C159.8,116.9,159.7,116.6,159.6,116.3z M162,116.1c1.4,1,2.8,1.9,4.2,2.9
	c-1.5-0.9-3-1.9-4.5-2.7C161.8,116.2,161.9,116.2,162,116.1z M169.9,121.6c0.2,0.2,0.4,0.3,0.7,0.5c-0.6,0-1.3,0-1.9,0
	c0.3-0.2,0.7-0.4,1-0.6C169.7,121.5,169.8,121.6,169.9,121.6z M172.8,123.4c0-0.3,0.1-0.7,0.2-1c0-0.2,0.1-0.3,0.1-0.5
	c0.1,0,0.3-0.1,0.5-0.1c0.3-0.1,0.6-0.2,0.9-0.3c1.8,1.5,3.5,2.9,5.3,4.4c-0.6,0.4-1.2,0.8-1.7,1.1
	C176.3,125.8,174.5,124.5,172.8,123.4z M177.9,127.1C177.8,127.1,177.8,127.2,177.9,127.1c-0.9-0.6-1.7-1.2-2.6-1.8
	C176.2,125.9,177,126.5,177.9,127.1z M174.7,121.4c0.4-0.2,0.9-0.3,1.3-0.5c1.6,1.4,3.3,2.8,4.9,4.2c-0.3,0.2-0.7,0.5-1,0.7
	C178.2,124.3,176.4,122.8,174.7,121.4z M176.2,120.8c0.5-0.2,1.1-0.5,1.6-0.8c1.5,1.4,2.9,2.8,4.4,4.3c-0.4,0.3-0.7,0.5-1.1,0.8
	C179.4,123.5,177.8,122.1,176.2,120.8z M177.9,119.9c0.9-0.5,1.8-1.1,2.7-1.8c1.3,1.5,2.6,2.9,3.9,4.4c-0.7,0.5-1.5,1.1-2.2,1.6
	C180.8,122.7,179.4,121.3,177.9,119.9z M184.9,122.4c0.7-0.6,1.5-1.1,2.2-1.7c0.9,1.2,1.8,2.3,2.7,3.5c-0.5,0.6-1.1,1.2-1.7,1.7
	C187,124.8,186,123.6,184.9,122.4z M187.3,120.6c0.2-0.2,0.5-0.3,0.7-0.5c0.8,1.1,1.6,2.3,2.4,3.4c-0.1,0.2-0.3,0.4-0.4,0.6
	C189.1,122.9,188.2,121.8,187.3,120.6z M188.1,120c0.4-0.3,0.7-0.6,1.1-0.9c0.7,1,1.3,2,2,3c-0.2,0.4-0.5,0.8-0.7,1.3
	C189.7,122.2,188.9,121.1,188.1,120z M189.1,118.9c-1.6-1.7-3.2-3.3-4.8-4.8c0.2-0.2,0.3-0.5,0.5-0.7c0.3,0,0.5,0,0.8,0
	C186.7,115.2,187.9,117.1,189.1,118.9L189.1,118.9z M185.8,113.4c0.4,0,0.8,0.1,1.2,0.2s0.8,0.2,1.2,0.4c0.7,1.3,1.4,2.6,2.2,3.9
	c-0.4,0.3-0.7,0.6-1.1,0.9C188.1,117,186.9,115.2,185.8,113.4z M186.2,109.6L186.2,109.6c-0.1,0-0.1-0.2-0.2-0.3l0.1-0.1
	c0,0.1,0.1,0.1,0.1,0.2C186.2,109.5,186.2,109.6,186.2,109.6z M186.2,109.1C186.2,109.1,186.3,109.1,186.2,109.1
	C186.3,109.1,186.3,109.1,186.2,109.1C186.3,109.2,186.2,109.1,186.2,109.1z M186.1,108.9c-1.3-2.5-2.7-5-3.9-7.5
	c1.3,0.6,2.3,1.5,3.1,2.5c0.3,0.7,0.7,1.4,1,2.1c0.1,0.3,0.1,0.5,0.1,0.8c0,0.6,0,1.2-0.1,1.8C186.3,108.8,186.2,108.9,186.1,108.9z
	 M186.6,106.9c0-0.1,0-0.1,0-0.2c0.2,0.4,0.4,0.8,0.6,1.2c-0.2,0.2-0.4,0.4-0.6,0.6C186.6,108,186.7,107.5,186.6,106.9z M181.5,94
	c0-0.1,0-0.1-0.1-0.2c-0.3-0.7-0.5-1.4-0.8-2.1c1.2-1.3,2.5-2.6,3.7-3.9c2.4-2.7,4.6-5.5,6.7-8.4c2.1,1.2,4.3,2.6,6.5,4
	c-2.1,3-4.5,6-7,8.9c-2.2,2.5-4.5,4.8-6.9,7.1C182.9,97.6,182.2,95.8,181.5,94z M191.1,79.2c5.3-7.5,9.2-15.3,11.4-23.2
	c2.3,0.7,4.7,1.6,7.2,2.6c-2.3,8.3-6.4,16.6-12,24.6C195.5,81.8,193.3,80.4,191.1,79.2z M209.3,34.9c-1.9-0.4-3.8-0.8-5.7-1
	c-1.5-6.4-4.7-12.4-9.3-17.3c2-0.1,4.2,0,6.3,0.3c4.9,5.2,8.4,11.5,10.1,18.3C210.2,35.1,209.7,35,209.3,34.9z M177,5.6
	c-0.5-0.2-1-0.3-1.5-0.5c1.3,0,2.6,0.1,3.9,0.3C178.5,5.4,177.7,5.5,177,5.6z M176.6,5.7c-1.7,0.3-3.3,0.7-4.7,1.4
	c-1.5-0.5-3.1-0.9-4.7-1.3c-0.8-0.2-1.6-0.3-2.4-0.5c3.3-0.2,6.7-0.3,9.9-0.2C175.3,5.3,175.9,5.5,176.6,5.7z M148.9,4.9
	c-0.7,0.7-1.3,1.5-1.8,2.4c-4.4,0.2-8.9,0.8-13.4,1.7c-0.3-0.1-0.6-0.2-0.9-0.3l0,0c5.5-1.8,11-3.2,16.5-4.1
	C149.1,4.6,149,4.8,148.9,4.9z M128.7,7.9c0.7,0,1.4,0.1,2.1,0.3c0.5,0.1,0.9,0.2,1.4,0.4c-2.4,0.8-4.8,1.7-7.2,2.6
	c-0.3,0.1-0.7,0.2-1,0.3c0-0.3,0.1-0.5,0.1-0.7c0.1-0.4,0.2-0.8,0.4-1.2c0.1-0.2,0.2-0.3,0.3-0.5c0.2-0.1,0.3-0.1,0.5-0.2
	C126.4,8.6,127.6,8.3,128.7,7.9z M103.7,22.1c-0.3-0.2-0.6-0.4-0.9-0.6c6.2-3.7,12.9-6.9,19.8-9.2C116.1,15,109.8,18.3,103.7,22.1z
	 M103.6,22.2c-0.6,0.4-1.2,0.7-1.8,1.1c-0.2-0.3-0.3-0.6-0.5-0.9c0.4-0.3,0.9-0.6,1.3-0.8C102.9,21.7,103.2,21.9,103.6,22.2z
	 M101.6,23.4c-6.8,4.4-13.2,9.4-18.9,14.9c-0.3-0.1-0.5-0.2-0.8-0.4c5.7-5.8,12.2-11,19.2-15.4C101.3,22.8,101.5,23.1,101.6,23.4z
	 M82.5,38.4c-1.1,1-2.1,2-3.1,3.1c-0.1-0.2-0.2-0.4-0.2-0.6c0.2-0.2,0.4-0.4,0.6-0.6c0.7-0.7,1.4-1.4,2-2.2
	C82,38.2,82.3,38.3,82.5,38.4z M79.3,41.7c-0.9,1-1.9,1.9-2.8,2.9c-1.2,1.3-2.4,2.7-3.5,4.1c1.8-2.6,3.9-5.2,6.1-7.7
	C79.1,41.3,79.2,41.5,79.3,41.7z M76.6,44.8c0.9-1,1.8-1.9,2.7-2.9c0.3,0.8,0.7,1.7,1.3,2.6c-2.2,2.6-4.2,5.3-5.9,8.1
	c-1.1,1.3-2.2,2.7-3.2,4.1c-1.2-0.2-2.3-0.2-3.4-0.2c1-1.9,2.2-3.8,3.4-5.7C73.2,48.7,74.9,46.7,76.6,44.8z M67.9,56.5
	c-0.2,0-0.4,0-0.6,0c0.9-1.4,1.9-2.7,2.9-4C69.4,53.9,68.6,55.2,67.9,56.5z M67.8,56.7c-2.2,4.1-3.8,8.2-4.9,12.4
	c-0.5-1.3-0.8-2.6-0.9-3.8c1.6-2.9,3.3-5.8,5.2-8.6C67.3,56.7,67.6,56.7,67.8,56.7z M68,56.7c1-0.1,2.2,0,3.4,0.2
	c-3.2,4.2-5.9,8.5-8.3,12.9c0-0.1-0.1-0.2-0.1-0.3C64.1,65.2,65.8,60.9,68,56.7z M63,70c-0.1,0.2-0.2,0.3-0.3,0.5
	c0.1-0.2,0.1-0.5,0.2-0.7C62.9,69.9,62.9,69.9,63,70z M71.6,56.9c0.2,0,0.4,0.1,0.6,0.1c-2.1,4-3.7,8.2-4.6,12.4
	c-0.4,1.8-0.7,3.6-0.9,5.4c-1.8,0.2-3.5,0.5-5,1.1c0.2-1.5,0.4-3,0.8-4.5C65,66.4,68.1,61.6,71.6,56.9z M61.5,75.9
	c-0.5,0.2-1,0.4-1.5,0.6c0.6-1.5,1.3-3,2.1-4.5C61.9,73.3,61.7,74.6,61.5,75.9z M60.2,97c2.4,5.6,6.2,10.6,11.1,14.4
	c-0.7,1.5-1.2,3-1.6,4.6c0,0.2-0.1,0.4-0.1,0.6c-5.2-4.1-9.2-9.5-11.8-15.5C58.4,99.6,59.2,98.2,60.2,97z M69.7,117
	c2,1.6,4.3,3,6.6,4.1c3.3,1.6,7,2.9,10.8,3.7c0.9,0.2,1.8,0.4,2.8,0.6c0,2.1,0.2,4.3,0.6,6.6c-0.9-0.2-1.8-0.3-2.7-0.6
	c-4.1-0.9-8-2.3-11.6-4c-2.5-1.2-4.9-2.7-7.1-4.5C69.2,120.9,69.3,118.9,69.7,117z M90.1,125.5c8.1,1.4,16.9,1.4,26,0
	c0.6,2.2,1.3,4.4,2.1,6.7c-9.6,1.4-19,1.4-27.5-0.1C90.4,129.8,90.2,127.6,90.1,125.5z M116.3,125.5c4.7-0.7,9.4-1.8,14.1-3.2
	c4.8-1.5,9.5-3.3,14-5.3c1.2,2,2.4,4.1,3.8,6.2c-4.8,2.2-9.8,4.1-14.9,5.6c-5,1.5-10,2.6-14.9,3.4
	C117.6,129.9,116.9,127.6,116.3,125.5z M144.6,116.8c1.8-0.8,3.6-1.7,5.4-2.6c2.6,1.3,5.3,2.7,7.9,4.1c-3.1,1.7-6.2,3.3-9.4,4.7
	C147,120.9,145.7,118.8,144.6,116.8z M150.2,114.1c0.1,0,0.2-0.1,0.3-0.2c2.6,1.3,5.3,2.6,8,4c-0.1,0.1-0.3,0.1-0.4,0.2
	C155.4,116.8,152.8,115.4,150.2,114.1z M152.9,115c0.9,0.4,1.8,0.6,2.7,0.9c0.3,0.1,0.7,0.1,1,0.2c0.9,0.5,1.7,1,2.6,1.5
	c-0.2,0.1-0.4,0.2-0.6,0.3C156.7,116.9,154.8,115.9,152.9,115z M159.4,117.7c0.3,0.2,0.7,0.4,1,0.6c0.3,0.4,0.6,0.8,1,1.1
	c-0.9-0.5-1.7-0.9-2.6-1.4C159,117.9,159.2,117.8,159.4,117.7z M160.5,118.1c-0.2-0.3-0.4-0.5-0.5-0.8c0.5-0.3,1-0.6,1.6-0.9
	c2.6,1.6,5.2,3.2,7.9,5c-0.4,0.2-0.8,0.5-1.2,0.7c-0.6-0.1-1.2-0.1-1.7-0.3h-0.1C164.5,120.5,162.5,119.3,160.5,118.1z M168,122.2
	c-0.1,0.1-0.3,0.2-0.4,0.3c-0.2-0.2-0.5-0.3-0.7-0.5C167.3,122.1,167.7,122.2,168,122.2z M168.4,122.3c0.8,0.1,1.6,0.1,2.4,0
	c0.6,0.4,1.2,0.8,1.8,1.3c0,0.2,0,0.4,0,0.7c0,0.7,0.2,1.3,0.6,1.9c-1.8-1.2-3.6-2.3-5.4-3.5C168,122.5,168.2,122.4,168.4,122.3z
	 M172.8,124.2c0-0.2,0-0.3,0-0.5c1.6,1.2,3.3,2.4,4.9,3.6c-0.5,0.3-0.9,0.6-1.4,0.9c-0.9-0.6-1.8-1.2-2.7-1.8
	C173.1,125.7,172.8,125,172.8,124.2z M177.8,127.4c0.8,0.6,1.6,1.2,2.4,1.8c-0.8,0-1.6-0.1-2.4-0.3c-0.3-0.1-0.5-0.1-0.7-0.2
	c-0.2-0.2-0.5-0.3-0.7-0.5C176.9,128,177.4,127.7,177.8,127.4z M178,127.3L178,127.3c0.9,0.6,1.8,1.2,2.7,1.9c-0.1,0-0.1,0-0.2,0
	C179.7,128.6,178.8,127.9,178,127.3z M178.2,127.1c0.6-0.4,1.1-0.8,1.7-1.1c1.1,0.9,2.1,1.8,3.2,2.7c-0.1,0-0.2,0.1-0.3,0.1
	c-0.6,0.2-1.2,0.3-1.8,0.3C180.1,128.5,179.1,127.8,178.2,127.1z M180.1,125.9c0.3-0.2,0.7-0.5,1-0.7c1.1,1,2.3,2,3.4,3
	c-0.4,0.2-0.8,0.3-1.2,0.4C182.2,127.7,181.2,126.8,180.1,125.9z M181.2,125.1c0.4-0.3,0.7-0.5,1.1-0.8c1.1,1.1,2.2,2.2,3.4,3.3
	c-0.3,0.2-0.7,0.3-1,0.5C183.5,127.1,182.4,126.1,181.2,125.1z M189.8,128c-0.5-0.6-1.1-1.2-1.6-1.8c0.6-0.5,1.2-1.1,1.7-1.7
	c0.7,0.9,1.3,1.7,2,2.6C191.2,127.3,190.5,127.6,189.8,128z M192.2,127c-0.7-0.9-1.4-1.8-2.1-2.7c0.1-0.2,0.3-0.4,0.4-0.5
	c0.7,1,1.5,2.1,2.2,3.1C192.5,126.9,192.3,126.9,192.2,127z M190.6,123.5c0.3-0.4,0.5-0.8,0.8-1.2c1,1.5,2,3,3,4.4
	c-0.5,0-0.9,0-1.4,0.1C192.1,125.7,191.4,124.6,190.6,123.5z M191.5,122.1c0.2-0.4,0.4-0.9,0.5-1.3c1.2,2,2.4,4.1,3.7,6.2
	c-0.1,0-0.2-0.1-0.3-0.1c-0.3-0.1-0.7-0.1-1-0.1l0.2-0.1C193.5,125.1,192.5,123.6,191.5,122.1z M191.3,121.9c-0.7-1-1.3-2-2-2.9
	c0.3-0.3,0.7-0.6,1-0.9c0.5,0.8,0.9,1.6,1.4,2.5C191.7,121,191.5,121.5,191.3,121.9z M190.9,115.5c-0.5-0.5-1.1-1-1.8-1.3
	c-0.9-1.6-1.8-3.1-2.6-4.7c0-0.2,0.1-0.4,0.1-0.6c0.3-0.2,0.5-0.4,0.8-0.7c0.2,0.4,0.4,0.8,0.6,1.2
	C188.8,111.4,189.8,113.4,190.9,115.5z M186.4,105.8c-0.1-0.5-0.4-1-0.7-1.5c-0.7-1.6-1.4-3.2-2-4.8c2.4-2.3,4.8-4.7,7-7.2
	c2.5-2.9,4.9-5.9,7-8.9c2.3,1.5,4.7,3.2,7.1,4.9c-2.2,3.2-4.7,6.3-7.4,9.4c-3.1,3.5-6.5,6.9-10.1,10.1
	C187,107.2,186.7,106.5,186.4,105.8z M210.9,35.3c-1.6-6.8-5.1-13.1-10-18.4c1.6,0.2,3.2,0.5,4.8,0.9c0.7,0.1,1.3,0.3,2,0.5
	c5.2,5.5,9,12.2,10.8,19.4C215.9,36.8,213.4,35.9,210.9,35.3z M180.9,5.3c-2-0.2-4.1-0.4-6.2-0.4c-0.9-0.3-1.9-0.5-2.9-0.7
	c-2.1-0.5-4.2-0.8-6.3-1.1c3.2,0,6.3,0.1,9.4,0.5c0.7,0.1,1.5,0.3,2.2,0.5c1.7,0.4,3.3,0.9,4.9,1.4C181.7,5.4,181.3,5.3,180.9,5.3z
	 M171.8,4.3c0.7,0.2,1.4,0.3,2.1,0.5c-2.1-0.1-4.1,0-6.2,0.1l0,0l0,0c-1.7-0.7-3.4-1.3-5.1-1.8c0.5,0,1,0,1.6,0
	C166.8,3.4,169.3,3.8,171.8,4.3z M162,3c-0.2,0-0.3-0.1-0.5-0.1c0.4,0,0.8,0.1,1.1,0.1C162.4,2.9,162.2,2.9,162,3z M132.7,8.5
	L132.7,8.5c-0.1,0-0.2,0.1-0.2,0.1c-0.6-0.2-1.1-0.3-1.6-0.5c-0.6-0.1-1.1-0.2-1.6-0.3c6.3-1.7,12.6-2.9,18.8-3.2
	C142.9,5.5,137.7,6.8,132.7,8.5z M127.7,7.9c-0.8,0.3-1.6,0.5-2.4,0.8c0,0,0,0-0.1,0c0.4-0.4,0.9-0.6,1.6-0.8
	C127.1,8,127.4,8,127.7,7.9z M124.4,9.5c-0.2,0.4-0.3,0.8-0.4,1.3c-0.1,0.3-0.1,0.6-0.2,0.8c-7.4,2.4-14.5,5.7-21.1,9.7
	c-0.5-0.3-0.9-0.5-1.2-0.6c7.3-4.6,15-8.4,23.1-11.4C124.5,9.4,124.4,9.4,124.4,9.5z M101,22.4c-7.1,4.4-13.6,9.7-19.3,15.5
	c-0.5-0.2-1-0.4-1.5-0.5c6.1-6,12.9-11.4,20.3-16.1C100.7,21.6,100.8,22,101,22.4z M80.1,37.5c0.5,0.1,1,0.3,1.5,0.5
	c-0.7,0.7-1.4,1.4-2,2.1c-0.2,0.2-0.3,0.4-0.5,0.5c-0.2-0.7-0.3-1.3-0.3-1.9C79.2,38.4,79.7,38,80.1,37.5z M79,40.8
	c-2.8,3.2-5.4,6.5-7.6,9.8c-1.5,1.9-3,3.9-4.4,5.9c-0.6,0.1-1.2,0.2-1.8,0.4C65,57,64.9,57,64.7,57.1c1.2-2.3,2.6-4.5,4-6.7
	c2.1-2.9,4.4-5.7,6.9-8.4c0.9-1,1.9-2.1,2.9-3.1C78.6,39.5,78.7,40.1,79,40.8z M64.6,57.5c0.2-0.1,0.5-0.2,0.7-0.3
	c0.5-0.2,1-0.3,1.5-0.3c-1.8,2.7-3.5,5.4-5,8.2c-0.1-0.6-0.1-1.1-0.1-1.6C62.6,61.4,63.5,59.4,64.6,57.5z M61.7,65.3
	c-0.7,1.4-1.4,2.7-2.1,4.1c0.6-1.9,1.2-3.7,2-5.6C61.6,64.3,61.6,64.8,61.7,65.3z M61.8,65.6c0.2,1.2,0.5,2.5,1,3.8
	c-0.1,0.4-0.2,0.9-0.3,1.3c0,0.2-0.1,0.3-0.1,0.5c-0.9,1.8-1.8,3.6-2.5,5.4c-0.4,0.2-0.9,0.5-1.3,0.7c-0.2,0.2-0.5,0.3-0.7,0.5
	c0.2-1.7,0.5-3.5,0.9-5.2c0.2-0.7,0.3-1.3,0.5-2C60,69,60.9,67.3,61.8,65.6z M57.6,78.1c-0.7,0.6-1.4,1.4-1.9,2.2
	c0.8-2.8,1.8-5.6,3-8.4c-0.1,0.3-0.1,0.5-0.2,0.8C58.1,74.5,57.8,76.3,57.6,78.1z M57.6,78.4c-0.2,1.6-0.3,3.2-0.3,4.7v0.1
	c-0.6,1.9-1.1,3.8-1.6,5.6c-0.2,0.9-0.4,1.8-0.6,2.8c-0.2-1.7-0.3-3.3-0.3-5c0-1.3,0.1-2.5,0.2-3.8c0.1-0.6,0.3-1.2,0.5-1.8
	C56.1,80,56.8,79.2,57.6,78.4z M54.8,82.8c-0.1,0.3-0.2,0.6-0.2,0.9c-0.4,1.6-0.6,3.2-0.9,4.8c0-1.4,0.2-2.7,0.4-3.9
	c0.2-0.8,0.4-1.5,0.7-2.2C54.9,82.5,54.9,82.7,54.8,82.8z M54.7,84.2c0,0.8-0.1,1.7-0.1,2.5c0,1.9,0.1,3.8,0.4,5.6
	c-0.2,1-0.3,2-0.4,2.9c-0.5-1.9-0.8-3.7-0.9-5.5C54,87.8,54.3,86,54.7,84.2z M55.2,92.9c0.5,2.8,1.3,5.6,2.4,8.2
	c-0.4,0.9-0.7,1.9-0.9,2.8c-0.1,0.6-0.3,1.2-0.3,1.9c-0.8-2-1.4-4-1.9-6C54.6,97.6,54.8,95.2,55.2,92.9z M56.3,106.3
	c-0.2,1.6-0.3,3.2-0.2,4.8c-0.6-1.5-1.1-3.1-1.5-4.6c-0.2-1.5-0.2-3-0.2-4.6c0-0.4,0-0.9,0-1.3C54.9,102.6,55.6,104.5,56.3,106.3z
	 M56.5,106.7c2.7,6.3,7,12,12.5,16.4c0,2.1,0.2,4.3,0.6,6.6c-5.9-4.8-10.4-11-13.2-17.9C56.2,110,56.3,108.3,56.5,106.7z
	 M69.2,123.2c2.2,1.7,4.5,3.2,7,4.4c3.6,1.7,7.5,3.1,11.6,4c0.9,0.2,1.8,0.4,2.8,0.6c0.4,2.3,1,4.7,1.7,7.2
	c-0.9-0.2-1.8-0.3-2.6-0.5c-4.4-1-8.6-2.4-12.4-4.3c-2.7-1.3-5.2-2.9-7.5-4.8C69.4,127.6,69.2,125.4,69.2,123.2z M118.5,132.3
	c5-0.8,10-1.9,14.9-3.4c5.1-1.5,10.1-3.4,14.9-5.6c1.4,2.2,3,4.5,4.6,6.9c-5.1,2.3-10.3,4.3-15.7,5.9c-5.2,1.6-10.5,2.8-15.7,3.5
	C120.4,137.1,119.4,134.7,118.5,132.3z M148.5,123.2c3.2-1.5,6.4-3.1,9.5-4.8c2.8,1.5,5.6,3.1,8.4,4.8c-4.3,2.5-8.8,4.9-13.3,6.9
	C151.5,127.8,150,125.5,148.5,123.2z M158.2,118.3c0.1-0.1,0.3-0.1,0.4-0.2c1.2,0.6,2.3,1.3,3.5,1.9c0.7,0.5,1.4,0.9,2.3,1.3
	c0.9,0.5,1.8,1,2.7,1.6c-0.1,0.1-0.3,0.2-0.4,0.2C163.8,121.4,161,119.8,158.2,118.3z M165.4,121.7c0.3,0.1,0.6,0.2,0.9,0.3
	c0.4,0.2,0.7,0.5,1.1,0.7c-0.1,0-0.1,0.1-0.2,0.1C166.6,122.4,166,122,165.4,121.7z M167.6,122.7c1.9,1.2,3.9,2.5,5.8,3.7l0,0
	c-2-1.3-4-2.5-6-3.7C167.5,122.8,167.5,122.8,167.6,122.7z M175.3,127.9c-0.1-0.1-0.2-0.1-0.3-0.2
	C175.1,127.8,175.2,127.8,175.3,127.9z M185.9,133.3c-1.7-1.3-3.4-2.6-5.2-3.9c0.1,0,0.1,0,0.2,0c1.7,1.2,3.3,2.5,5,3.7
	C186,133.2,185.9,133.2,185.9,133.3z M181.2,129.3c0.6-0.1,1.1-0.2,1.7-0.3c0.1,0,0.3-0.1,0.4-0.1c1.1,0.9,2.1,1.8,3.2,2.7
	c-0.2,0.4-0.3,0.7-0.4,1.1c0,0.1,0,0.2,0,0.2C184.4,131.7,182.8,130.5,181.2,129.3z M186.5,131.4c-1-0.9-2-1.7-3-2.6
	c0.4-0.1,0.8-0.3,1.1-0.4c0.8,0.7,1.6,1.4,2.4,2.2C186.9,130.8,186.7,131.1,186.5,131.4z M184.8,128.3c0.3-0.2,0.7-0.3,1-0.5
	c0.6,0.6,1.3,1.3,1.9,1.9c-0.2,0.2-0.4,0.5-0.6,0.7C186.4,129.7,185.6,129,184.8,128.3z M187.9,129.5c-0.6-0.6-1.3-1.2-1.9-1.8
	c0.7-0.4,1.3-0.8,2-1.3c0.5,0.6,1.1,1.2,1.6,1.8C188.9,128.6,188.4,129,187.9,129.5z M192.1,127.1c0.2-0.1,0.5-0.1,0.7-0.2
	c1.5,2.1,3.1,4.3,4.8,6.5c-0.4,0.6-0.9,1.1-1.5,1.6c-2.1-2.4-4.2-4.7-6.2-7C190.5,127.8,191.3,127.4,192.1,127.1z M193,126.9
	c0.8-0.1,1.6-0.1,2.3,0.1c0.2,0,0.3,0.1,0.4,0.1c0.9,1.4,1.8,2.9,2.8,4.4c-0.2,0.6-0.4,1.2-0.8,1.8
	C196.1,131.2,194.6,129.1,193,126.9z M196.1,127.3c0.8,0.3,1.4,0.7,1.9,1.2c0.2,0.4,0.4,0.8,0.7,1.2c0,0.2,0.1,0.3,0.1,0.5
	c0,0.4,0,0.8-0.1,1.2C197.8,130,196.9,128.6,196.1,127.3z M195.9,127c-1.4-2.2-2.7-4.4-3.9-6.5c0-0.1,0-0.2,0.1-0.2
	c0-0.1,0-0.2,0-0.3c1.4,2.4,2.8,4.7,4.2,7.1l0.2-0.1c-1.5-2.4-3-4.9-4.4-7.3c0.1-0.5,0.1-0.9,0.1-1.4c0-0.1,0-0.1,0-0.2
	c1.7,3.2,3.5,6.5,5.4,9.8C197.2,127.5,196.6,127.2,195.9,127z M204.8,103.9c-4,4.5-8.3,8.8-13,12.8l0,0l0,0
	c-1.3-2.4-2.5-4.9-3.7-7.3c-0.2-0.4-0.4-0.9-0.6-1.3c3.6-3.2,7-6.6,10.1-10.2c2.7-3,5.1-6.2,7.4-9.3c2.4,1.8,4.9,3.7,7.5,5.7
	C210.1,97.5,207.6,100.8,204.8,103.9z M226.2,64.7c-0.2,0.7-0.3,1.4-0.5,2.1c-2.7-1.6-5.3-3.1-7.9-4.5c0.2-0.7,0.4-1.5,0.6-2.2
	c1.3-5.5,1.8-11,1.3-16.4c-0.2-1.9-0.5-3.8-0.9-5.6c2.6,1,5.2,2.1,7.9,3.4c0.5,2,0.8,4,1,6C228,53.1,227.5,58.9,226.2,64.7z
	 M226.5,41.2c-2.6-1.3-5.2-2.4-7.8-3.4c-1.7-7.2-5.5-13.9-10.7-19.4c2.3,0.6,4.7,1.4,7,2.4C220.6,26.5,224.6,33.6,226.5,41.2z
	 M214.7,20.5c-2.3-0.9-4.6-1.7-6.9-2.3c-4.2-4.3-9.2-7.9-14.9-10.3c1.8,0.5,3.6,1.1,5.4,1.8C204.5,12.1,210.1,15.8,214.7,20.5z
	 M191.7,7.3c-0.1,0-0.2,0-0.2-0.1c0,0-0.1,0-0.1-0.1C191.4,7.2,191.5,7.3,191.7,7.3z M183.1,4.9c1.4,0.3,2.8,0.7,4.2,1.1
	c-1.5-0.3-3-0.5-4.5-0.6c-1.8-0.6-3.7-1.2-5.6-1.6h-0.1C179.1,4.1,181.1,4.5,183.1,4.9z M164.2,2.9c-1.3-0.1-2.7-0.2-4.1-0.3
	c-0.9-0.2-1.9-0.2-2.8-0.3c5.3-0.2,10.4,0,15.3,0.8C169.9,2.9,167,2.8,164.2,2.9z M154.1,2.5c-0.1,0-0.1,0-0.2,0c-0.1,0-0.2,0-0.3,0
	C153.7,2.6,153.9,2.5,154.1,2.5z M149.7,3c1-0.1,2.1-0.1,3.1-0.2c-1.2,0.3-2.3,0.8-3.2,1.5l0,0c-6.6,0.3-13.4,1.4-20.1,3.3
	C136.1,5.3,143,3.8,149.7,3z M120.5,10.7c-6.7,2.8-13.2,6.1-19.3,10c-0.1,0-0.2-0.1-0.3-0.1s-0.2,0-0.3,0
	C106.8,16.6,113.5,13.3,120.5,10.7z M100.3,20.6L100.3,20.6c-0.1,0.1,0,0.2,0,0.3c0,0.1,0.1,0.1,0.1,0.2C93,25.8,86.1,31.3,80,37.3
	h-0.1c-0.1,0-0.2,0-0.3,0C85.7,31,92.7,25.4,100.3,20.6z M77.2,39.7c0.5-0.5,0.9-1,1.4-1.5c0,0.1-0.1,0.3-0.1,0.5
	c-1,1.1-2.1,2.1-3,3.2c-1.4,1.5-2.7,3-3.9,4.5C73.4,44.2,75.2,41.9,77.2,39.7z M66.3,53.9c-0.7,1.1-1.3,2.3-1.9,3.4
	c-0.1,0.1-0.3,0.2-0.4,0.3C64.7,56.4,65.5,55.1,66.3,53.9z M63,58.9c-0.2,0.3-0.3,0.6-0.5,0.9C62.6,59.4,62.8,59.1,63,58.9z
	 M61.7,61.5c-0.1,0.6-0.2,1.2-0.2,1.8c-1,2.4-1.9,4.9-2.5,7.3c-1.5,3.4-2.8,6.9-3.7,10.3c0,0.1-0.1,0.1-0.1,0.2
	c0.2-1.9,0.6-3.8,1-5.7c0.4-1.7,0.9-3.3,1.4-5C58.7,67.5,60.1,64.5,61.7,61.5z M56.4,73.9c-0.1,0.5-0.3,1.1-0.4,1.6
	c-0.5,2.1-0.8,4.2-1,6.2c-0.4,0.9-0.7,1.8-1,2.8c-0.1,0.3-0.1,0.5-0.1,0.8c0.2-2,0.6-4,1.1-6C55.3,77.4,55.8,75.7,56.4,73.9z
	 M53.5,88.9c0,0.3,0,0.5,0,0.8c0,0.2,0,0.3-0.1,0.5C53.5,89.8,53.5,89.3,53.5,88.9z M53.3,96.2c0-0.6,0-1.3,0.1-1.9
	c0.2,1.9,0.4,3.8,0.9,5.6c0,0.7-0.1,1.4-0.1,2.1c0,1.1,0,2.1,0.1,3.2C53.7,102.2,53.3,99.2,53.3,96.2z M54.8,107.9
	c0.4,1.3,0.8,2.6,1.3,3.9c0.1,1.3,0.2,2.5,0.4,3.8C55.8,113.1,55.2,110.5,54.8,107.9z M57,116.9c-0.3-1.5-0.5-3-0.6-4.5
	c2.8,6.8,7.3,12.8,13.2,17.5c0.4,2.3,0.9,4.6,1.6,7C64.7,131.6,59.8,124.6,57,116.9z M92.5,146.7c-4.7-1.1-9.1-2.6-13.1-4.6
	c-2.8-1.4-5.5-3.1-7.9-5c-0.7-2.4-1.3-4.7-1.7-7c2.3,1.8,4.7,3.3,7.4,4.6c3.8,1.9,8,3.3,12.4,4.3c0.9,0.2,1.8,0.4,2.7,0.6
	c0.8,2.5,1.7,5.1,2.7,7.6C94.2,147.1,93.3,146.9,92.5,146.7z M142.1,143.9c-5.4,1.6-10.9,2.9-16.4,3.7c-1.4-2.6-2.8-5.2-4-7.8
	c5.2-0.8,10.5-2,15.7-3.5c5.3-1.6,10.6-3.6,15.7-5.9c1.7,2.4,3.5,4.9,5.3,7.4C153.1,140.2,147.6,142.2,142.1,143.9z M158.6,137.7
	c-1.9-2.5-3.7-5-5.3-7.4c4.6-2.1,9.1-4.4,13.4-7c2.9,1.7,5.8,3.5,8.8,5.4C170.1,132.1,164.4,135.1,158.6,137.7z M175.6,128.6
	c-2.9-1.9-5.9-3.6-8.8-5.4c0.1-0.1,0.3-0.2,0.4-0.2c2.2,1.3,4.4,2.6,6.6,4c0.5,0.6,1.2,1.1,2,1.5
	C175.8,128.5,175.7,128.5,175.6,128.6z M187.2,135.9c0.2,0.2,0.5,0.4,0.7,0.5C187.6,136.3,187.4,136.1,187.2,135.9z M189.5,137.1
	c-0.2-0.1-0.4-0.1-0.6-0.2c-0.7-0.5-1.5-1.1-2.2-1.6c-0.3-0.4-0.5-0.9-0.5-1.3c0-0.2,0-0.5,0-0.7c1.7,1.3,3.4,2.6,5.1,3.9
	C190.7,137.2,190.1,137.2,189.5,137.1z M192.7,137c-0.4,0.1-0.8,0.2-1.2,0.2c-1.8-1.4-3.6-2.8-5.3-4.1c0-0.1,0-0.2,0.1-0.3
	c0.2-0.7,0.5-1.4,1-2.1c2.1,1.9,4.3,3.9,6.5,5.9C193.4,136.7,193.1,136.9,192.7,137z M193.9,136.5c-2.2-2.1-4.4-4.1-6.6-6
	c0.6-0.8,1.4-1.6,2.4-2.2c2,2.3,4.1,4.6,6.2,7C195.3,135.8,194.7,136.2,193.9,136.5z"/>
</svg>
