<?xml version="1.0" encoding="utf-8"?>
<!-- Generator: Adobe Illustrator 25.2.0, SVG Export Plug-In . SVG Version: 6.00 Build 0)  -->
<svg version="1.1" id="Layer_1" xmlns="http://www.w3.org/2000/svg" xmlns:xlink="http://www.w3.org/1999/xlink" x="0px" y="0px"
	 viewBox="0 0 280.8 151" style="enable-background:new 0 0 280.8 151;" xml:space="preserve">
<style type="text/css">
	.st0{stroke:#000000;stroke-width:4;stroke-linecap:round;stroke-linejoin:round;stroke-miterlimit:10;}
	.st1{fill:#FFFFFF;}
	.st2{fill:none;stroke:#000000;stroke-width:27;stroke-linecap:round;stroke-linejoin:round;stroke-miterlimit:10;}
	.st3{fill:none;}
	.st4{fill:#FED305;}
	.st5{fill:#EE3724;}
	.st6{fill:#EE3024;}
	.st7{fill:#FCD208;}
	.st8{fill:#FDD901;}
	.st9{fill:#FAD00C;}
	.st10{fill:#009DD9;}
	.st11{fill:#4A3634;}
	.st12{fill:#EC2624;}
	.st13{fill:#ED2824;}
	.st14{fill:#FCD42B;}
	.st15{fill:#E8D257;}
	.st16{fill:#FCD20C;}
	.st17{fill:#FAD310;}
	.st18{fill:#273B87;}
	.st19{fill:#293580;}
	.st20{fill:#EE2824;}
	.st21{fill:#5FBB52;}
</style>
<rect class="st3" width="103.6" height="92.7"/>
<path class="st21" d="M250.5,130L250.5,130C250.6,130,250.5,130,250.5,130c-0.1-0.5-0.4-0.9-0.7-1.3c-0.1-0.1-0.1-0.2-0.2-0.3
	l0.1-0.1c-2.2-3.7-4.2-7.5-6.2-11.2c4.7-4,9.1-8.3,13-12.8c10.7-12.2,18.3-25.8,21.4-39.3c1.4-5.9,1.8-11.7,1.4-17.3
	c-0.2-2-0.5-4.1-1-6l0-0.1l0,0c0,0,0,0,0,0c-1.8-7.6-5.8-14.6-11.3-20.4c0.2,0.1,0.3,0.1,0.5,0.2l0.1-0.2l0,0
	c-0.3-0.1-0.6-0.2-0.9-0.3c-4.7-4.8-10.4-8.6-16.8-11.2c-1-0.4-2-0.7-3-1.1l0,0c-2-0.8-4.1-1.4-6.1-1.9c-2-0.7-4-1.2-6.1-1.7
	c-2.7-0.6-5.4-1.1-8.2-1.4c-7.9-1.5-16.5-1.7-25.2-0.6c-7.7,0.6-15.6,2.3-23.2,4.8l0.1,0.2c6-2,12-3.4,18-4.2
	c-5.2,0.9-10.3,2.2-15.4,3.9l0.1,0.2l0,0l-0.1-0.2c-0.3,0.1-0.6,0.2-0.9,0.3c-0.5,0-1,0-1.5,0.1c-0.8,0.2-1.5,0.5-2,1.1c0,0,0,0,0,0
	l0,0c-17.3,5.7-33.2,15.7-45.5,28.4c-0.2,0.1-0.3,0.2-0.4,0.4c-0.6,0.6-1.2,1.2-1.7,1.8c-3.1,3.4-6,7.1-8.5,10.8
	c-1.8,2.5-3.5,5-5.1,7.6c-0.8,0.7-1.3,1.7-1.6,2.9c-1.1,1.9-2,3.9-2.9,5.8c3.6-9.1,9.5-18.1,16.9-26.3
	c13.4-14.6,31.2-26.2,50.7-32.6L178.2,8c-19.5,6.4-37.4,18-50.8,32.7c-8.5,9.3-14.9,19.7-18.3,30.2c-1.1,2.9-2,5.8-2.7,8.8
	c-0.9,3.9-1.4,7.9-1.4,11.8c0,0.5,0,1,0,1.5c-0.1,1.2-0.2,2.5-0.2,3.7c0,3.5,0.4,7,1.3,10.4c0.4,3.6,1.2,7.1,2.4,10.4
	c0.2,0.8,0.3,1.5,0.5,2.3l0.2,0c-0.1-0.3-0.1-0.6-0.2-0.9c2.9,7.3,7.7,13.9,14,18.9c0,0.1,0,0.1,0.1,0.2l0.2,0
	c2.4,1.9,5,3.5,7.8,4.9c4,2,8.5,3.5,13.1,4.6c0.9,0.2,1.8,0.4,2.6,0.6c0,0,0,0,0,0l0,0c14.4,2.7,31,1.4,47-3.4
	c11.8-3.5,23.1-8.8,33.5-15.3c3.9,2.5,7.9,5.1,11.8,7.9l0.1-0.1c-3.9-2.7-7.9-5.3-11.8-7.8c0.1-0.1,0.2-0.1,0.3-0.2
	c0.2,0.1,0.4,0.2,0.6,0.2c2.3,1.5,4.6,3,6.9,4.6c0.9,0.6,1.8,1.3,2.7,1.9l0,0c0.1,0,0.1,0.1,0.2,0.1c0.5,0.7,1.3,1.3,2.3,1.6
	c0.2,0.1,0.3,0.2,0.5,0.4l0.1-0.1c0,0-0.1,0-0.1-0.1c0.1,0,0.1,0,0.2,0c0.6,0.1,1.3,0.2,2,0.1c0,0,0,0,0,0l0,0
	c0.4,0,0.8-0.1,1.3-0.2c3-0.9,5.5-3.2,6-5.7c0.1-0.4,0.1-0.9,0.1-1.3C250.6,130.4,250.6,130.2,250.5,130z M235.4,133.7
	c-2-1.4-4-2.8-6.1-4.2c0.1,0,0.1,0,0.2,0.1c0.8,0.2,1.7,0.3,2.6,0.2c1.8,1.4,3.6,2.8,5.5,4.1c0,0.1,0,0.3,0,0.4
	c0,0.4,0.1,0.7,0.3,1.1C237.1,134.8,236.3,134.3,235.4,133.7z M146.9,147.7c-1-2.6-2-5.1-2.7-7.7c9,1.7,18.9,1.7,29,0.2
	c1.2,2.5,2.5,5.1,4,7.8C166.7,149.5,156.3,149.5,146.9,147.7z M144.2,139.9c-0.7-2.5-1.3-4.9-1.7-7.2c8.6,1.6,18,1.5,27.5,0.1
	c0.9,2.4,1.9,4.8,3.1,7.3C163.1,141.5,153.2,141.5,144.2,139.9z M105.4,91.2c0.1,1.6,0.5,3.3,0.9,4.9c-0.1,1.1-0.2,2.2-0.3,3.3
	c-0.4-2.2-0.7-4.4-0.8-6.6C105.2,92.3,105.3,91.8,105.4,91.2z M113.8,61.3c0.5-0.9,1-1.9,1.6-2.8c0.2-0.2,0.3-0.3,0.5-0.4
	c-0.9,1.7-1.7,3.4-2.4,5.2c0-0.6,0.1-1.2,0.2-1.7C113.7,61.4,113.8,61.4,113.8,61.3z M130.6,38.6c0-0.1,0.1-0.2,0.1-0.3
	c0.1-0.1,0.2-0.3,0.4-0.4c0.1-0.1,0.3-0.1,0.5-0.1c0,0,0,0,0,0c-0.4,0.3-0.7,0.7-1.1,1C130.5,38.8,130.5,38.7,130.6,38.6z
	 M152.2,21.2c0-0.1,0-0.1,0-0.1c0,0,0.1-0.1,0.3,0c0,0,0.1,0,0.2,0.1c-0.1,0.1-0.3,0.2-0.4,0.2C152.3,21.3,152.3,21.3,152.2,21.2z
	 M152.9,21.2c0.3,0.1,0.7,0.4,1.2,0.6c-0.4,0.3-0.8,0.5-1.3,0.8c-0.2-0.4-0.4-0.7-0.5-1.1C152.6,21.4,152.8,21.3,152.9,21.2z
	 M211.8,3.2c0.4,0.1,0.8,0.1,1.2,0.2c-3.7,0.2-7.5,0.6-11.2,1.2c1.1-0.7,2.4-1.2,3.8-1.5C207.7,3.1,209.7,3.1,211.8,3.2z M207.8,2.9
	c0.4,0,0.9,0,1.3,0C208.7,2.9,208.2,2.9,207.8,2.9z M240.8,7c0.2,0.1,0.4,0.1,0.6,0.2c-0.1,0-0.2,0-0.3-0.1c-2-0.4-3.9-0.8-6-1.1
	c0,0,0,0,0,0c1.7,0.2,3.4,0.4,5.1,0.8C240.5,6.9,240.7,7,240.8,7z M243.2,7.9c6.1,2.4,11.5,6.1,15.9,10.6c-0.6-0.1-1.1-0.3-1.7-0.4
	c-1.7-0.4-3.4-0.7-5-0.9c-4.3-4.5-9.5-8.1-15.5-10.5c-0.3-0.1-0.5-0.2-0.8-0.3c1.7,0.3,3.4,0.6,5,1c0.6,0.1,1.2,0.3,1.9,0.5
	C243.1,7.8,243.1,7.8,243.2,7.9z M269.2,62.6c-2.6-1.3-5.1-2.6-7.6-3.6c0.2-0.8,0.4-1.5,0.6-2.3c1.2-5.2,1.7-10.4,1.3-15.4
	c-0.1-1.8-0.4-3.6-0.8-5.4c2.5,0.6,5,1.5,7.6,2.4c0.4,1.9,0.7,3.8,0.9,5.7c0.4,5.3-0.1,10.8-1.3,16.4
	C269.6,61.1,269.4,61.9,269.2,62.6z M264.3,94.4c-2.5-2-5-3.9-7.5-5.7c5.9-8.4,10.2-17.1,12.6-25.9c2.6,1.4,5.3,2.9,7.9,4.5
	C274.9,76.5,270.4,85.7,264.3,94.4z M256.6,88.6c-2.4-1.7-4.8-3.4-7.1-4.9c5.6-7.9,9.7-16.3,12-24.6c2.5,1.1,5,2.3,7.6,3.6
	C266.8,71.5,262.5,80.3,256.6,88.6z M243.8,118.7c0,0.4,0,0.7,0,1.1c-0.3-0.6-0.7-1.2-1-1.8c0.2-0.2,0.5-0.4,0.7-0.6
	c0.1,0.2,0.2,0.3,0.3,0.5C243.7,118.2,243.8,118.5,243.8,118.7z M243.6,120.7C243.6,120.7,243.6,120.7,243.6,120.7
	c-0.5-0.8-0.9-1.5-1.3-2.3c0.1-0.1,0.2-0.1,0.3-0.2c0.4,0.7,0.8,1.3,1.1,2C243.7,120.3,243.6,120.5,243.6,120.7z M237.5,127.9
	c-1.1-1.1-2.3-2.2-3.4-3.3c0.7-0.5,1.5-1,2.2-1.6c1,1.2,2.1,2.3,3.2,3.6C238.9,127.1,238.2,127.5,237.5,127.9z M213.9,120.3
	c-0.5-0.4-1-0.8-1.4-1.3c1.7,1,3.4,2,5,3.1c-0.5-0.1-0.9-0.3-1.4-0.5C215.4,121.1,214.7,120.7,213.9,120.3z M108.6,104.5
	c0.2-0.9,0.5-1.8,0.8-2.6c2.5,6,6.6,11.3,11.8,15.4c-0.4,1.9-0.6,3.9-0.6,6c-5.5-4.4-9.8-10.2-12.4-16.6
	C108.3,105.9,108.4,105.2,108.6,104.5z M107.7,89.4c0.4-1.7,0.8-3.4,1.4-5c0.1,4.4,1.1,8.8,2.8,12.9c-1,1.2-1.8,2.6-2.4,4.2
	c-1.1-2.8-2-5.7-2.4-8.6C107.2,91.6,107.4,90.5,107.7,89.4z M109.2,83c0-1.5,0.1-2.9,0.3-4.4c0.3-0.2,0.5-0.4,0.8-0.6
	c0.3-0.2,0.7-0.4,1-0.6C110.6,79.2,109.9,81.1,109.2,83z M111.7,77.2c0.5-0.2,1-0.5,1.6-0.7c-0.2,1.5-0.3,3-0.3,4.5
	c0,4.4,0.9,8.7,2.7,12.8c-1.2,0.8-2.3,1.7-3.2,2.7c-0.2,0.2-0.3,0.4-0.5,0.6c-1.8-4.2-2.7-8.7-2.7-13.3
	C109.9,81.5,110.7,79.4,111.7,77.2z M213.6,3.5c1.8,0.4,3.6,1,5.4,1.8c-1.1,0.1-2.2,0.1-3.4,0.2c-4.2-0.7-8.5-1-13-0.9
	C206.4,4.1,210,3.7,213.6,3.5z M235.2,6.2c0.5,0.2,1.1,0.4,1.6,0.6c5.9,2.3,11.1,5.9,15.3,10.3c-2.2-0.3-4.3-0.3-6.3-0.2
	c-4-4.3-9-7.8-14.7-10c-0.7-0.3-1.4-0.5-2.1-0.8c1.1-0.1,2.3-0.2,3.5-0.2C233.5,6,234.3,6.1,235.2,6.2z M261.4,58.9
	c-2.4-1-4.8-1.9-7.2-2.6c0.2-0.8,0.4-1.5,0.6-2.3c1.1-4.9,1.6-9.7,1.2-14.4c-0.1-1.7-0.4-3.4-0.8-5.1c1.8,0.2,3.7,0.5,5.6,1
	c0.5,0.1,1,0.2,1.5,0.4c0.4,1.8,0.7,3.6,0.8,5.4c0.4,5-0.1,10.2-1.3,15.4C261.8,57.4,261.6,58.1,261.4,58.9z M240.4,114.4
	c-0.1-0.1-0.3-0.1-0.4-0.2c-0.7-1.3-1.4-2.6-2-3.9c0-0.1,0-0.2,0.1-0.3C238.8,111.6,239.6,113,240.4,114.4z M242.9,116.5
	c0.1,0.3,0.3,0.5,0.4,0.8c-0.2,0.2-0.5,0.4-0.7,0.6c-0.6-1-1.1-2-1.7-3C241.7,115.3,242.4,115.9,242.9,116.5z M242.4,118
	c-0.1,0.1-0.2,0.1-0.3,0.2c-0.7-1.2-1.4-2.5-2-3.7c0.1,0.1,0.3,0.1,0.4,0.2C241.2,115.8,241.8,116.9,242.4,118z M211.1,117.9
	c-0.8-0.5-1.5-0.9-2.3-1.4c0.8,0.1,1.6,0.2,2.3,0.2c0.1,0.3,0.2,0.6,0.3,1C211.3,117.7,211.2,117.8,211.1,117.9z M211.5,117.8
	c0.1,0.2,0.2,0.3,0.3,0.5c-0.2-0.1-0.4-0.2-0.6-0.3C211.4,117.9,211.5,117.9,211.5,117.8z M121.6,116.5c0.4-1.6,0.9-3.1,1.6-4.6
	c1.9,1.5,4,2.8,6.2,3.8c3.1,1.5,6.4,2.6,10,3.4c0.9,0.2,1.8,0.4,2.7,0.5c-0.4,1.9-0.5,3.9-0.5,5.9c-0.9-0.2-1.8-0.3-2.7-0.6
	c-3.8-0.9-7.4-2.1-10.8-3.7c-2.4-1.2-4.6-2.6-6.7-4.2C121.5,117,121.5,116.7,121.6,116.5z M126.6,53.1c1.2-1.5,2.4-2.9,3.7-4.3
	c2.4-2.7,5-5.3,7.7-7.8c0.2,0.1,0.3,0.2,0.5,0.3c0.9,0.6,1.8,1.2,2.8,1.8c-4.7,4.8-8.6,10.1-11.4,15.6c-1.4-0.5-2.7-0.8-4-1.1
	c-0.6-0.1-1.2-0.2-1.7-0.3C125,55.8,125.7,54.5,126.6,53.1z M124,57.2c-0.2,0-0.4-0.1-0.6-0.1c0.7-1,1.5-2,2.3-2.9
	C125.1,55.2,124.5,56.2,124,57.2z M254.1,56.2c-1.3-0.4-2.6-0.8-3.9-1c-0.9-0.2-1.8-0.4-2.7-0.5c0.2-0.8,0.4-1.5,0.6-2.3
	c1-4.5,1.4-9,1.1-13.3c-0.1-1.6-0.3-3.2-0.7-4.8c2.1-0.1,4.3,0,6.5,0.2c0.4,1.7,0.6,3.4,0.8,5.1c0.3,4.7-0.1,9.5-1.2,14.3
	C254.5,54.7,254.3,55.4,254.1,56.2z M233.1,94.4c0.2,0.4,0.3,0.9,0.4,1.4c-0.4-1-0.8-1.9-1.2-2.9c0.3,0.4,0.5,0.9,0.7,1.3
	C233,94.3,233,94.4,233.1,94.4z M229.5,120.1c-0.7-0.7-1.4-1.4-2.1-2.1c0.2-0.2,0.5-0.5,0.8-0.7c0.7-0.5,1.3-0.9,1.9-1.4
	c0.7,0.8,1.4,1.6,2.1,2.4C231.3,119,230.4,119.6,229.5,120.1z M222.8,122.6c0.6-0.1,1.1-0.2,1.7-0.3c0,0.1-0.1,0.2-0.1,0.3
	c-0.1,0.3-0.1,0.6-0.1,0.9C223.8,123.3,223.3,123,222.8,122.6z M222.6,122.5c-0.3-0.2-0.6-0.4-0.9-0.6c0,0-0.1-0.1-0.2-0.1
	c0.8-0.5,1.7-1.1,2.5-1.6c0.3,0.3,0.7,0.5,1,0.8c-0.2,0.4-0.3,0.8-0.5,1.2C223.9,122.3,223.3,122.4,222.6,122.5z M211.2,115.3
	c0-0.2,0-0.4,0-0.5c0.8,0.5,1.5,1,2.3,1.6c-0.2,0-0.3,0-0.5,0.1C212.4,116.1,211.8,115.7,211.2,115.3z M212.7,116.4
	c-0.5,0-0.9,0-1.4,0c-0.1-0.3-0.1-0.6-0.1-0.9c0,0,0,0,0-0.1C211.7,115.8,212.2,116.1,212.7,116.4z M142.5,118.7
	c0-0.1,0.1-0.3,0.1-0.4c0.3-1.3,0.8-2.6,1.4-3.8c7,1.2,14.7,1.1,22.5-0.1c-0.2,1.2-0.2,2.5-0.1,3.8c0,0.4,0.1,0.9,0.1,1.3
	c-8.4,1.3-16.7,1.4-24.2,0C142.4,119.3,142.5,119,142.5,118.7z M188.7,11.1L188.7,11.1L188.7,11.1c3.2-1,6.4-1.9,9.6-2.6
	c-0.5,1-0.9,2.2-1.2,3.5c0,0,0,0,0,0c-6.3,0.2-12.8,1.4-19.1,3.3C181.5,13.8,185.1,12.4,188.7,11.1L188.7,11.1z M247.3,54.6
	c-0.5-0.1-1-0.2-1.5-0.2c-1.5-0.2-2.9-0.3-4.3-0.2c0.2-0.8,0.4-1.5,0.6-2.3c1-4.1,1.3-8.2,1.1-12.2c-0.1-1.5-0.3-2.9-0.6-4.3
	c1.4-0.4,2.9-0.7,4.4-0.9c0.5-0.1,0.9-0.1,1.4-0.1c0.3,1.6,0.6,3.1,0.7,4.7c0.3,4.3-0.1,8.8-1.1,13.3
	C247.7,53,247.5,53.8,247.3,54.6z M233.5,96.5c0.1,1.1-0.1,2.3-0.3,3.5c0,0.1,0,0.2-0.1,0.2c-0.9-2.1-1.8-4.2-2.6-6.3
	c0.5-0.4,0.9-0.9,1.3-1.3C232.4,93.9,233,95.2,233.5,96.5z M235.7,114.6c-0.3,0.4-0.5,0.7-0.8,1c-0.4-0.5-0.7-1-1.1-1.5
	c0.5-0.1,0.9-0.2,1.4-0.3c0.1,0.1,0.1,0.2,0.2,0.2C235.5,114.3,235.6,114.4,235.7,114.6z M199.4,111.2c-0.5-0.7-0.8-1.4-1-2.1
	c0.1,0,0.1-0.1,0.2-0.1c1.2,0.5,2.3,1.1,3.5,1.7c0.5,0.3,1,0.5,1.6,0.8c-1.3,0.1-2.6,0.1-3.8,0C199.7,111.4,199.6,111.3,199.4,111.2
	z M189.1,108.7c-0.3-0.1-0.7-0.3-1-0.4c0.1,0,0.1,0,0.2-0.1c0.7,0.1,1.4,0.1,2.1,0.1c0.5,0.4,1.1,0.7,1.7,1c0.1,0.2,0.2,0.4,0.2,0.5
	C191.2,109.4,190.1,109.1,189.1,108.7z M167.1,112.9c0.2-1,0.5-1.9,0.9-2.8c3.6-0.6,7.2-1.4,10.8-2.6c1-0.3,1.9-0.6,2.9-1
	c1.1,0.5,2.3,0.9,3.6,1.2c0.4,0.1,0.7,0.1,1.1,0.2c0.4,0.1,0.7,0.2,1.1,0.4c-2.9,1.2-5.8,2.2-8.7,3.1c-4,1.2-8,2.2-12,2.8
	C166.9,113.8,167,113.3,167.1,112.9z M175.7,16.3c0.3,1.5,0.7,3.2,1.3,4.9c-6.7,2.2-13.1,5.2-19,8.8c-0.8-1-1.5-2-2.1-2.9
	C162.1,23,168.8,19.3,175.7,16.3z M241.2,54.1c-1.8,0.1-3.4,0.4-5,0.8c0.2-0.8,0.4-1.6,0.6-2.4c0.9-3.8,1.2-7.5,1-11.2
	c-0.1-1.3-0.3-2.6-0.5-3.8c1.6-0.9,3.2-1.7,5-2.3c0.3,1.4,0.5,2.8,0.6,4.3c0.3,4-0.1,8.1-1.1,12.2C241.7,52.6,241.5,53.4,241.2,54.1
	z M231.8,92.3c-0.4,0.4-0.9,0.9-1.3,1.3c-0.3-0.8-0.6-1.6-0.9-2.4c0.1-0.2,0.1-0.4,0.2-0.6c0-0.1,0-0.1,0-0.2
	C230.6,91,231.3,91.6,231.8,92.3C231.8,92.3,231.8,92.3,231.8,92.3z M233.5,101.5c-0.1-0.1-0.3-0.1-0.4-0.2c0.1-0.1,0.1-0.3,0.1-0.4
	C233.3,101,233.4,101.2,233.5,101.5C233.5,101.4,233.5,101.4,233.5,101.5z M219.7,114.5c-0.4-0.3-0.8-0.7-1.3-1
	c0.8-0.5,1.5-1,2.2-1.5c0.5,0.4,0.9,0.9,1.4,1.3C221.3,113.7,220.6,114.1,219.7,114.5z M222.2,113.4c1.6,1.5,3.1,3,4.7,4.5
	c-0.5,0.4-1.1,0.8-1.6,1.1c-1.8-1.5-3.6-3-5.4-4.4C220.7,114.3,221.5,113.9,222.2,113.4z M210.9,109.3c0.3-0.2,0.6-0.4,1-0.6
	c0.2,0.1,0.3,0.2,0.5,0.4c-0.4,0.2-0.8,0.3-1.1,0.5C211.1,109.5,211,109.4,210.9,109.3z M211,109.7c-0.5,0.2-1,0.4-1.5,0.6
	c0.4-0.3,0.9-0.5,1.3-0.8C210.9,109.5,211,109.6,211,109.7z M200.7,107.7c-0.3-0.2-0.6-0.4-0.9-0.6c0.5-0.1,1-0.3,1.4-0.4
	c1-0.3,1.9-0.6,2.8-1C203,106.4,201.8,107.1,200.7,107.7z M198.3,108.7c-0.1-0.4-0.1-0.7-0.2-1.1c0.5-0.1,1-0.2,1.5-0.3
	c0.3,0.2,0.6,0.4,0.9,0.6c-0.6,0.3-1.3,0.7-1.9,1C198.5,108.8,198.4,108.7,198.3,108.7z M198.4,108.9
	C198.4,108.9,198.3,108.9,198.4,108.9C198.3,108.9,198.3,108.9,198.4,108.9C198.3,108.9,198.4,108.9,198.4,108.9z M191,106.8
	c-0.9-0.5-1.9-0.9-2.8-1.4c0.2,0,0.5-0.1,0.7-0.1c0.6,0.2,1.3,0.4,1.9,0.6C190.8,106.2,190.9,106.5,191,106.8
	C191,106.8,191,106.8,191,106.8z M188.2,108c-0.3,0-0.7-0.1-1-0.1c-1.5-0.6-2.9-1.2-4.4-1.7c0.4-0.1,0.7-0.3,1.1-0.4
	c1.1,0,2.3-0.1,3.4-0.3c0.6,0.7,1.2,1.4,2,2C188.9,107.7,188.6,107.8,188.2,108z M189.4,107.7c0.2,0.2,0.4,0.3,0.6,0.4
	c-0.5,0-1,0-1.4-0.1C188.9,107.9,189.2,107.8,189.4,107.7z M179.6,27.7c5.7-1.9,11.6-2.9,17.3-3.1c0.2,1.2,0.3,2.5,0.6,3.8
	c0.2,1.3,0.5,2.7,0.9,4.1c-5,0.2-10.3,1.1-15.3,2.8c-0.3-0.5-0.5-1.1-0.8-1.6c-0.4-0.8-0.7-1.5-1.1-2.3
	C180.6,30.1,180.1,28.9,179.6,27.7z M213.9,20.1c0.6,0.2,1.1,0.4,1.7,0.6c4.2,1.7,7.8,4.3,10.7,7.6c-1,1.7-1.9,3.6-2.6,5.6
	c-2.6-2.9-5.9-5.3-9.6-6.8c-0.5-0.2-1.1-0.4-1.6-0.6c0.2-1.4,0.4-2.7,0.7-4C213.5,21.7,213.7,20.9,213.9,20.1z M231.7,56.9
	c-1,0.7-1.9,1.4-2.7,2.3c0.1-0.3,0.2-0.7,0.3-1c0.7-3.2,1-6.3,0.8-9.5c-0.1-1.1-0.2-2.2-0.4-3.2c0.9-1.6,1.9-3,3.2-4.3
	c0.2,1.1,0.4,2.2,0.4,3.2c0.2,3.3-0.1,6.6-0.9,10C232.2,55.3,232,56.1,231.7,56.9z M227.5,80.3c-0.1-0.1-0.2-0.3-0.4-0.4
	c0.1-0.1,0.1-0.2,0.2-0.3C227.4,79.9,227.5,80.1,227.5,80.3C227.5,80.3,227.5,80.3,227.5,80.3z M227.2,82.1c0,0.2-0.1,0.3-0.1,0.5
	c-0.2-0.7-0.3-1.4-0.4-2c0.1-0.2,0.3-0.3,0.4-0.5c0.2,0.2,0.3,0.3,0.5,0.5C227.4,81.1,227.3,81.6,227.2,82.1z M230.2,115.6
	c-1.4-1.6-2.8-3.2-4.2-4.7c1.1-0.9,2.1-1.8,3-2.8c1.3,1.8,2.6,3.6,4,5.4C232.1,114.1,231.1,114.8,230.2,115.6
	C230.2,115.5,230.2,115.5,230.2,115.6z M212.6,109c-0.2-0.1-0.3-0.3-0.5-0.4c0.8-0.5,1.6-1,2.3-1.6c-0.5,0.5-0.9,1.1-1.3,1.7
	C212.9,108.8,212.8,108.9,212.6,109z M212.9,109.1c0,0-0.1,0.1-0.1,0.1c0,0-0.1,0-0.1-0.1C212.8,109.1,212.9,109.1,212.9,109.1z
	 M195.6,104.5c-0.3-0.2-0.6-0.4-0.9-0.6c0.1,0,0.2,0,0.3-0.1c1.3-0.4,2.5-0.8,3.7-1.3c0,0.1-0.1,0.3-0.1,0.4
	C197.6,103.5,196.6,104,195.6,104.5z M198.4,103.3c-0.1,0.3-0.2,0.5-0.2,0.8c-0.1,0.6-0.2,1.3-0.3,1.9c-0.7-0.4-1.4-0.9-2.1-1.3
	C196.7,104.2,197.6,103.7,198.4,103.3z M188.8,105.1c-0.7-0.2-1.3-0.4-1.9-0.5c1.1-0.5,2.2-0.9,3.3-1.4c0.1,0.5,0.2,1.1,0.3,1.7
	C189.9,104.9,189.4,105,188.8,105.1z M190.5,105c0.1,0.2,0.1,0.5,0.2,0.7c-0.5-0.2-1-0.3-1.5-0.5C189.7,105.2,190.1,105.1,190.5,105
	z M181.1,105.6c-0.6-0.2-1.3-0.5-1.9-0.7c-0.1-0.1-0.2-0.1-0.2-0.2c0.3-0.1,0.6-0.2,0.9-0.3c0.3-0.1,0.7-0.2,1-0.3
	c0.5-0.1,1.1-0.1,1.6-0.2c1.1,0.1,2.2,0.3,3.3,0.6c0.1,0.1,0.2,0.1,0.4,0.2c-0.8,0.3-1.6,0.6-2.4,0.9
	C182.9,105.6,182,105.6,181.1,105.6z M183.3,105.8c-0.3,0.1-0.5,0.2-0.8,0.3c-0.3-0.1-0.5-0.2-0.8-0.3
	C182.2,105.8,182.7,105.8,183.3,105.8z M223.9,34.3c2.8,3.2,4.8,7.1,5.6,11.1c-0.5,0.8-0.9,1.7-1.2,2.6c-0.3,0.9-0.6,1.8-0.9,2.8
	c-0.8-3.5-2.5-6.9-5-9.7c0.2-1.3,0.4-2.6,0.7-3.9c0-0.1,0-0.2,0.1-0.3C223.3,36.1,223.6,35.2,223.9,34.3z M228.7,59.5
	c-0.5,0.6-0.9,1.3-1.3,2c-0.1,0.2-0.1,0.3-0.2,0.5c0.6-2.6,0.8-5.2,0.6-7.9c-0.1-1-0.2-1.9-0.4-2.9c0.3-1.1,0.6-2.1,1-3.1
	c0.3-0.8,0.7-1.6,1.1-2.3c0.2,1,0.3,1.9,0.4,2.9c0.2,3.1-0.1,6.3-0.8,9.5C229,58.6,228.8,59.1,228.7,59.5z M227,73.5
	C227,73.5,227,73.5,227,73.5C227,73.5,227,73.5,227,73.5C227,73.5,227,73.5,227,73.5z M226.7,73.5c-0.1,0-0.3,0-0.4,0
	c0.1-0.4,0.1-0.9,0.2-1.3c0.1,0.3,0.3,0.7,0.4,1C226.9,73.3,226.8,73.4,226.7,73.5z M226.2,74.2c0-0.2,0.1-0.4,0.1-0.6
	c0.1,0,0.2,0,0.3,0C226.5,73.8,226.3,74,226.2,74.2z M178.5,104.6c-0.3-0.1-0.5-0.2-0.8-0.3c0.2,0,0.3,0,0.5,0
	C178.4,104.5,178.5,104.5,178.5,104.6C178.6,104.6,178.5,104.6,178.5,104.6z M227.3,51.7c0.1,0.8,0.3,1.6,0.3,2.4
	c0.2,2.8-0.1,5.6-0.8,8.4c0,0.2-0.1,0.4-0.1,0.5c0,0.1,0,0.1-0.1,0.2c0-0.8,0.1-1.7,0-2.5c0-0.8-0.2-1.7-0.3-2.5
	c0.1-2.1,0.4-4.1,0.9-6C227.2,52,227.3,51.9,227.3,51.7z M224.8,78.1c-0.3-0.2-0.6-0.4-1-0.6c0.6-0.7,1.2-1.5,1.7-2.2
	c0,0.1,0,0.2,0,0.3C225.4,76.5,225.1,77.3,224.8,78.1z M225.7,76.2c0.1,0.9,0.3,1.9,0.4,2.9c-0.4-0.3-0.7-0.6-1.1-0.8
	C225.3,77.6,225.5,76.9,225.7,76.2z M201.1,101.3c-0.5-0.3-0.9-0.5-1.4-0.7c0.7-1.4,1.6-2.8,2.7-4c0.4-0.2,0.8-0.4,1.1-0.7
	c0.9,0.8,1.7,1.6,2.6,2.4c-1.2,0.8-2.4,1.6-3.7,2.3C202,100.9,201.6,101.1,201.1,101.3z M197.4,99c-0.6-0.4-1.1-0.8-1.7-1.2
	c1.2-0.6,2.3-1.3,3.5-2c0.9-0.5,1.7-1,2.6-1.5c0.5,0.4,0.9,0.8,1.4,1.3c-0.2,0.2-0.4,0.5-0.6,0.7c-0.6,0.4-1.3,0.8-1.9,1.2
	C199.5,97.9,198.5,98.5,197.4,99z M198,98.9c-0.1,0.1-0.3,0.1-0.4,0.2c0,0,0,0,0,0C197.7,99,197.9,99,198,98.9z M185.9,104.3
	c-0.5-0.3-1.1-0.5-1.6-0.7c0.5-0.1,1.1-0.2,1.6-0.4c0.2,0.4,0.4,0.9,0.7,1.3C186.3,104.4,186.1,104.4,185.9,104.3z M184,103.4
	c-0.2-0.1-0.3-0.1-0.5-0.2c0.7-0.3,1.4-0.5,2.1-0.8c0.1,0.2,0.1,0.4,0.2,0.6C185.2,103.2,184.6,103.3,184,103.4z M174.1,104.2
	c0.3-0.1,0.5-0.2,0.8-0.2c0.3-0.1,0.5-0.1,0.8-0.1c0,0,0.1,0,0.1,0C175.3,104,174.7,104.1,174.1,104.2
	C174.1,104.3,174.1,104.2,174.1,104.2z M176.1,103.8c0.2,0,0.4-0.1,0.5-0.1c0,0,0,0,0.1,0C176.5,103.8,176.3,103.8,176.1,103.8
	C176.1,103.8,176.1,103.8,176.1,103.8z M173.8,89c0.4-1.8,1.1-3.5,1.9-5.3c2.8,1.9,5.7,3.9,8.7,6c0.9,0.7,1.9,1.4,2.9,2
	c-0.7,1.4-1.2,2.8-1.6,4.3c-0.2,0.8-0.3,1.6-0.4,2.4c-1-0.6-2-1.1-2.9-1.7c-3-1.7-6-3.3-9-4.9C173.4,90.9,173.5,89.9,173.8,89z
	 M225.8,68c0,0.1-0.1,0.2-0.1,0.3c0-0.2,0.1-0.4,0.1-0.6c0-0.1,0.1-0.2,0.1-0.2C225.9,67.6,225.9,67.8,225.8,68z M225.6,75.1
	c-0.6,0.8-1.2,1.6-1.9,2.4c-0.3-0.2-0.7-0.4-1.1-0.5c0,0,0-0.1,0-0.1c0.6-1,1.1-2,1.5-3.1c0.4-0.1,0.9-0.1,1.4-0.1
	C225.5,74.1,225.5,74.6,225.6,75.1z M225.7,74.1c0.1,0.2,0.1,0.4,0.2,0.6c0,0.1-0.1,0.1-0.1,0.2C225.7,74.6,225.7,74.3,225.7,74.1z
	 M217.6,89.4c-0.3,0.3-0.7,0.6-1,0.9c-0.5-0.7-0.9-1.3-1.4-2c1.3-0.4,2.6-0.6,4-0.7C218.7,88.2,218.2,88.8,217.6,89.4z M219.4,87.6
	c0,0,0.1,0,0.2,0c-0.2,0.2-0.4,0.4-0.6,0.6C219.1,88,219.3,87.8,219.4,87.6z M223.8,101c-0.3,0.1-0.7,0.2-1,0.3
	c-0.1-0.1-0.2-0.2-0.3-0.3c0.3-0.2,0.6-0.5,0.9-0.7C223.6,100.5,223.7,100.7,223.8,101C223.9,100.9,223.8,100.9,223.8,101z
	 M222.7,101.4c-0.4,0.1-0.7,0.3-1.1,0.5c0.3-0.2,0.6-0.5,0.8-0.7C222.5,101.2,222.6,101.3,222.7,101.4z M222.4,100.9
	c-1.4-1.4-2.8-2.7-4.1-4c0.6-0.5,1.1-1,1.6-1.6c1.1,1.6,2.3,3.2,3.4,4.8C223,100.4,222.7,100.6,222.4,100.9z M189.3,100.7
	c-0.1-0.1-0.2-0.1-0.3-0.2c0.5-0.2,1-0.4,1.5-0.6c0,0.1-0.1,0.2-0.1,0.3C190,100.4,189.6,100.5,189.3,100.7z M190.3,100.5
	C190.3,100.5,190.3,100.5,190.3,100.5c-0.1,0.3-0.1,0.5-0.1,0.8c-0.2-0.1-0.5-0.3-0.7-0.4C189.7,100.7,190,100.6,190.3,100.5z
	 M185.8,96.1c0.3-1.4,0.9-2.8,1.5-4.2c2.4,1.7,4.9,3.5,7.3,5.3c-2.1,1.1-4.2,2-6.4,2.9c-0.9-0.5-1.9-1.1-2.8-1.6
	C185.5,97.7,185.6,96.9,185.8,96.1z M199.6,64.6c3.2-1,6.5-1.6,9.6-1.6c1.3,2.9,2.7,5.8,4.1,8.7c0.5,1.1,1.1,2.2,1.7,3.3
	c-2.7-0.2-5.4,0.1-8.1,0.9c-0.6-1-1.3-1.9-1.9-2.9C203.1,70.2,201.3,67.4,199.6,64.6z M226.1,65.8c0,0.1,0,0.1,0.1,0.2
	c0,0.2-0.1,0.4-0.1,0.6c-0.1,0.1-0.1,0.3-0.2,0.4c0.1-0.4,0.1-0.7,0.2-1.1C226.1,65.9,226.1,65.9,226.1,65.8z M225.6,67.6
	c-0.2,0.4-0.4,0.8-0.6,1.1c0.2-0.5,0.4-1.1,0.6-1.6C225.6,67.3,225.6,67.5,225.6,67.6z M224.6,69.1
	C224.6,69.1,224.6,69.1,224.6,69.1C224.6,69.1,224.6,69.1,224.6,69.1C224.6,69.1,224.6,69.1,224.6,69.1z M224.5,69.4
	c-0.2,0.5-0.5,1.1-0.8,1.6c-0.7,1.1-1.4,2.2-2.1,3.3c-0.2-0.5-0.4-1-0.6-1.5c-1.1-2.9-2-5.7-2.9-8.5c0.2,0.1,0.5,0.2,0.8,0.3
	c2.1,0.9,4,2.3,5.4,4C224.4,68.9,224.4,69.2,224.5,69.4z M222.3,76.8c-0.3-0.1-0.6-0.3-0.9-0.4c0.2-0.2,0.3-0.4,0.5-0.7
	C222.1,76.1,222.2,76.5,222.3,76.8C222.3,76.8,222.3,76.8,222.3,76.8z M214.8,86.7c-0.1,0.1-0.3,0.3-0.5,0.4
	c-0.4-0.6-0.8-1.2-1.2-1.8c0.7-0.7,1.4-1.3,2-2c0.9-0.9,1.8-1.8,2.7-2.8c0.3,0.6,0.6,1.1,0.9,1.7C217.5,83.8,216.2,85.3,214.8,86.7z
	 M218.8,82.5c0,0.1,0.1,0.2,0.1,0.3c-0.7,0.7-1.3,1.3-2,2C217.6,84,218.2,83.2,218.8,82.5z M209.3,91.6c0,0,0.1-0.1,0.1-0.1
	c0,0,0,0,0,0C209.4,91.6,209.3,91.6,209.3,91.6C209.3,91.7,209.3,91.6,209.3,91.6z M209.1,91.8c-1.3,1-2.7,2-4.1,2.9
	C206.4,93.8,207.8,92.8,209.1,91.8C209.1,91.8,209.1,91.8,209.1,91.8z M213.7,92.7c-1-0.9-1.9-1.6-2.7-2.2c0.4-0.4,0.9-0.7,1.3-1.1
	c0.9-0.4,1.8-0.7,2.7-1c0.5,0.7,1,1.4,1.4,2.1C215.6,91.2,214.7,92,213.7,92.7z M216.1,91c-0.7,0.7-1.3,1.3-2.1,1.9
	c0,0-0.1-0.1-0.1-0.1C214.6,92.3,215.4,91.7,216.1,91z M214.4,87.5c0.2,0.3,0.3,0.5,0.5,0.8c-0.7,0.2-1.5,0.5-2.2,0.8
	C213.3,88.5,213.8,88,214.4,87.5z M211.6,89.5c-0.4,0.2-0.8,0.4-1.1,0.5c-0.6-0.4-1-0.8-1.4-1c1.4-1.1,2.7-2.3,4-3.5
	c0.4,0.6,0.8,1.2,1.2,1.7C213.4,88,212.5,88.8,211.6,89.5z M210.6,90.2c0.1-0.1,0.2-0.1,0.4-0.2C210.9,90.1,210.8,90.2,210.6,90.2
	C210.7,90.2,210.7,90.2,210.6,90.2z M208.3,89.2c-0.1-0.1-0.1-0.3-0.1-0.4c0.1,0,0.2,0.1,0.4,0.2C208.5,89,208.4,89.1,208.3,89.2z
	 M208.9,89.2c0.4,0.2,0.8,0.6,1.4,1c-0.4,0.2-0.8,0.4-1.2,0.6c-0.3-0.5-0.5-0.9-0.7-1.3C208.6,89.4,208.7,89.3,208.9,89.2z
	 M210.4,90.3c0,0,0.1,0.1,0.1,0.1c-0.4,0.3-0.7,0.6-1.1,0.9c-0.1-0.1-0.1-0.2-0.2-0.3C209.6,90.7,210,90.5,210.4,90.3z M210.7,90.5
	C210.7,90.5,210.7,90.5,210.7,90.5c-0.4,0.3-0.7,0.7-1.1,1c0,0,0,0,0,0C209.9,91.1,210.3,90.8,210.7,90.5z M210.9,90.4
	c0.3-0.2,0.6-0.5,0.9-0.7c0,0,0,0,0,0C211.5,89.9,211.2,90.1,210.9,90.4C210.9,90.4,210.9,90.4,210.9,90.4z M213,85.1
	c-0.1-0.1-0.2-0.3-0.3-0.4c1.7-1.6,3.2-3.2,4.7-4.9c0.1,0.1,0.1,0.2,0.2,0.4c-0.8,1-1.7,2-2.6,3C214.4,83.9,213.7,84.5,213,85.1z
	 M217.6,79.7c0.8-0.9,1.5-1.8,2.2-2.7c0,0.1-0.1,0.2-0.1,0.3c0,0.1,0,0.2,0,0.3c-0.6,0.8-1.3,1.7-1.9,2.5
	C217.7,80,217.7,79.8,217.6,79.7z M219.6,78c0,0.1,0,0.2,0,0.3c-0.3,0.4-0.6,0.7-1,1.1c-0.2,0.2-0.4,0.4-0.6,0.6
	C218.6,79.4,219.1,78.7,219.6,78z M219.9,77.7c0.3-0.4,0.6-0.9,0.9-1.3c0.1,0,0.2,0.1,0.3,0.1c-0.4,0.5-0.8,1-1.3,1.5
	C219.9,77.9,219.9,77.8,219.9,77.7z M220,77.2c0.1-0.2,0.1-0.4,0.2-0.6c0.1-0.1,0.2-0.2,0.2-0.3c0.1,0,0.1,0,0.2,0.1
	C220.4,76.6,220.2,76.9,220,77.2z M220.5,76.1c0.3-0.5,0.7-0.9,1-1.4c0,0,0,0.1,0,0.1c-0.3,0.5-0.6,0.9-0.9,1.3
	C220.7,76.2,220.6,76.1,220.5,76.1z M220.6,75.8c0.1-0.3,0.3-0.5,0.5-0.7C220.9,75.3,220.7,75.5,220.6,75.8z M220,76.5
	c-0.8,1-1.6,2-2.5,3c-0.7-1.4-1.5-2.9-2.2-4.3c1.1,0.1,2.2,0.3,3.3,0.5c0.5,0.1,1.1,0.3,1.6,0.4C220.1,76.3,220,76.4,220,76.5z
	 M217.4,79.7c-1.5,1.7-3,3.3-4.7,4.9c-1.9-2.8-3.8-5.7-5.7-8.4c2.7-0.8,5.4-1.1,8.1-0.9C215.8,76.7,216.6,78.2,217.4,79.7z
	 M212.9,85.3c-1.3,1.2-2.7,2.4-4.2,3.6c-0.2-0.1-0.3-0.2-0.5-0.2c1.5-1.2,3-2.4,4.3-3.7C212.7,85,212.8,85.1,212.9,85.3z M208,88.9
	c0,0.2,0.1,0.3,0.2,0.5c-0.2,0.1-0.4,0.3-0.5,0.4c-0.1-0.1-0.2-0.2-0.3-0.3C207.5,89.2,207.7,89,208,88.9z M207.4,89.8
	c-1.8,1.4-3.7,2.8-5.7,4.1c-0.1-0.1-0.3-0.2-0.4-0.4c2-1.3,3.9-2.6,5.8-4.1C207.2,89.6,207.3,89.7,207.4,89.8z M208.3,89.6
	c0.2,0.4,0.4,0.8,0.7,1.2c-0.1,0-0.2,0.1-0.2,0.1c-0.3-0.3-0.6-0.7-0.9-1C208,89.9,208.1,89.8,208.3,89.6z M209.1,91
	c0.1,0.1,0.1,0.2,0.2,0.3c-0.1,0-0.1,0.1-0.2,0.1c-0.1-0.1-0.2-0.2-0.3-0.3C208.9,91.1,209,91.1,209.1,91z M209.5,91.7
	c0.4,0.5,0.8,1.1,1.2,1.6c-0.5-0.5-0.9-1-1.3-1.5C209.5,91.8,209.5,91.8,209.5,91.7z M209.7,91.6c0.4-0.3,0.8-0.7,1.2-1
	c0.8,0.6,1.7,1.4,2.7,2.2c-0.6,0.5-1.2,1-1.8,1.4C210.9,93.3,210.3,92.4,209.7,91.6z M213.7,93c0,0,0.1,0.1,0.1,0.1
	c-0.6,0.5-1.2,1-1.8,1.5c-0.1-0.1-0.1-0.1-0.2-0.2C212.5,94,213.1,93.5,213.7,93z M214,93.2c0.8,0.7,1.6,1.5,2.5,2.3
	c0.3,0.3,0.7,0.6,1,0.9c-0.8,0.6-1.6,1.3-2.4,1.9c-1.1-1.3-2.1-2.5-3-3.5C212.8,94.3,213.4,93.8,214,93.2z M216.7,95.4
	c-0.9-0.8-1.7-1.6-2.5-2.3c0.9-0.8,1.7-1.6,2.5-2.4c0.9,1.4,1.9,2.7,2.8,4.1c-0.6,0.5-1.2,1-1.9,1.5C217.3,96,217,95.7,216.7,95.4z
	 M218,80.4c0.3-0.3,0.6-0.6,0.8-0.9c0.3-0.3,0.5-0.6,0.8-0.9c-0.1,0.7,0,1.6,0.1,2.4c-0.3,0.3-0.5,0.7-0.8,1
	C218.6,81.5,218.3,81,218,80.4z M219.8,78.4c0.5-0.6,1-1.2,1.5-1.8c0.3,0.1,0.6,0.2,0.9,0.4c-0.7,1.3-1.5,2.6-2.4,3.8
	C219.7,80,219.7,79.2,219.8,78.4z M221.2,76.4c-0.1,0-0.2-0.1-0.3-0.1c0.3-0.4,0.5-0.8,0.8-1.2c0.1,0.2,0.1,0.3,0.2,0.5
	C221.6,75.8,221.4,76.1,221.2,76.4z M221.8,74.9c0.1-0.2,0.2-0.3,0.3-0.5c0.3-0.1,0.6-0.3,0.9-0.4c-0.3,0.5-0.7,0.9-1,1.4
	C221.9,75.2,221.9,75,221.8,74.9z M221.7,74.6C221.7,74.6,221.7,74.6,221.7,74.6C221.7,74.6,221.7,74.5,221.7,74.6
	C221.8,74.6,221.7,74.6,221.7,74.6z M221.9,74.2c0.1-0.1,0.2-0.3,0.3-0.4C222.1,73.9,222,74.1,221.9,74.2
	C222,74.2,221.9,74.2,221.9,74.2z M220.9,72.9c0.2,0.5,0.4,1.1,0.6,1.6c-0.5,0.3-0.9,0.7-1.1,1.2c0,0.1-0.1,0.2-0.1,0.3
	c-0.5-0.2-1.1-0.3-1.6-0.4c-1.1-0.2-2.2-0.4-3.4-0.5c-0.6-1.1-1.1-2.3-1.7-3.4c-1.4-2.9-2.8-5.8-4.1-8.7c2.2,0,4.2,0.1,6.2,0.6
	c0.8,0.2,1.6,0.4,2.3,0.7C218.8,67.1,219.8,70,220.9,72.9z M212.5,84.7c-1.7,1.6-3.5,3.1-5.3,4.5c-2.8-3.2-5.5-6.4-8.2-9.5
	c2.4-1.5,5.1-2.7,7.8-3.6C208.6,79,210.5,81.8,212.5,84.7z M207,89.3c-1.9,1.4-3.8,2.8-5.8,4.1c-3-2.8-6-5.5-9-8.3
	c1.9-2,4.2-3.8,6.7-5.3C201.5,83,204.2,86.1,207,89.3z M201,93.5c-2,1.3-4.1,2.5-6.2,3.6c-2.5-1.8-4.9-3.6-7.4-5.4
	c1.1-2.3,2.7-4.4,4.6-6.4C195,88,198,90.7,201,93.5z M192.1,98.7c0.3,0,0.6-0.1,0.9-0.1c-0.7,0.3-1.4,0.6-2.1,0.9
	C191.2,99.1,191.6,98.8,192.1,98.7z M190.5,99.7c-0.6,0.2-1.2,0.5-1.8,0.7c-0.1-0.1-0.2-0.1-0.3-0.2c0.8-0.3,1.6-0.7,2.4-1.1
	C190.8,99.3,190.6,99.5,190.5,99.7z M192.4,98.5c0.8-0.4,1.6-0.8,2.5-1.2c0.1,0.1,0.3,0.2,0.4,0.3c-0.6,0.3-1.2,0.6-1.8,0.9
	C193,98.4,192.7,98.5,192.4,98.5z M188,100.2c-0.8,0.3-1.7,0.6-2.5,1c-0.1-0.3-0.1-0.7-0.1-1c0-0.5,0-1,0-1.5
	C186.3,99.2,187.2,99.7,188,100.2z M188.2,100.3c0.1,0.1,0.2,0.1,0.3,0.2c-1,0.4-1.9,0.7-2.9,1c0,0,0-0.1,0-0.1
	C186.4,101,187.3,100.7,188.2,100.3z M185.4,101.5c-0.1,0-0.1,0-0.2,0.1c-0.9,0.3-1.7,0.5-2.6,0.7c0.9-0.3,1.8-0.6,2.7-0.9
	C185.4,101.4,185.4,101.5,185.4,101.5z M185.3,101.8c0,0,0.1,0,0.1,0c0,0.2,0.1,0.4,0.1,0.5c-0.8,0.3-1.5,0.6-2.3,0.8
	c-0.4-0.2-0.7-0.3-1.1-0.5C183.2,102.4,184.3,102.1,185.3,101.8z M185.6,101.7c1-0.3,2.1-0.7,3.1-1.1c0.1,0.1,0.2,0.1,0.3,0.2
	c-1.1,0.5-2.2,1-3.3,1.4C185.7,102,185.7,101.8,185.6,101.7z M190.7,99.8c0.9-0.4,1.8-0.8,2.8-1.2c0,0,0.1,0,0.1,0
	c-1,0.5-2,1-2.9,1.4C190.6,100,190.7,99.9,190.7,99.8z M193.8,98.5c0.2-0.1,0.4-0.2,0.5-0.2C194.2,98.3,194,98.4,193.8,98.5
	C193.8,98.5,193.8,98.5,193.8,98.5z M195.4,97.5c-0.1-0.1-0.3-0.2-0.4-0.3c2.1-1.1,4.2-2.3,6.2-3.5c0.1,0.1,0.3,0.2,0.4,0.4
	c-0.8,0.5-1.7,1.1-2.5,1.6C197.9,96.3,196.6,96.9,195.4,97.5z M207.7,90.1c0.3,0.3,0.6,0.7,0.9,1c-2,1.2-3.8,2.6-5.3,4.2
	c-0.4-0.4-0.9-0.8-1.3-1.2C203.9,92.9,205.9,91.5,207.7,90.1z M208.7,91.3c0.1,0.1,0.2,0.2,0.3,0.3c-1.8,1.4-3.6,2.7-5.5,3.9
	c0,0,0,0-0.1-0.1C204.9,93.9,206.7,92.5,208.7,91.3z M203.3,95.6c0,0-0.1,0.1-0.1,0.1C203.2,95.7,203.3,95.7,203.3,95.6
	C203.3,95.6,203.3,95.6,203.3,95.6z M209.3,91.9c0.7,0.9,1.5,1.7,2.2,2.6c-1.7,1.3-3.4,2.5-5.1,3.7c-0.9-0.8-1.7-1.6-2.6-2.4
	C205.7,94.6,207.5,93.3,209.3,91.9z M215.2,98.4c0.8-0.6,1.6-1.2,2.4-1.9c0.1,0.1,0.2,0.2,0.3,0.3c-0.7,0.7-1.5,1.4-2.3,2
	C215.5,98.7,215.4,98.6,215.2,98.4z M217.8,96.4c0.6-0.5,1.2-1,1.8-1.5c0,0.1,0.1,0.1,0.1,0.2c-0.5,0.6-1.1,1.1-1.6,1.6
	C218,96.7,217.9,96.5,217.8,96.4z M215.1,88.2c-0.2-0.3-0.4-0.6-0.6-0.8c0.2-0.2,0.3-0.3,0.5-0.5c1.4-1.3,2.8-2.6,4.1-3.9
	c0.5,1,1,1.9,1.5,2.9c-0.4,0.6-0.8,1.1-1.3,1.7C217.9,87.5,216.5,87.7,215.1,88.2z M219.2,82.8c0.2-0.2,0.4-0.4,0.6-0.6
	c0.2,0.9,0.4,1.9,0.7,2.9C220,84.3,219.6,83.5,219.2,82.8z M219.1,82.6c-0.1-0.1-0.1-0.2-0.2-0.3c0.2-0.3,0.5-0.6,0.7-0.9
	c0,0.2,0,0.4,0.1,0.6C219.5,82.1,219.3,82.4,219.1,82.6z M219.8,81.1c1-1.3,1.8-2.7,2.6-4.1c0,0,0,0,0,0c0.2,0.4,0.3,0.8,0.5,1.3
	c-0.5,0.5-0.9,1.1-1.4,1.6c-0.5,0.6-1.1,1.2-1.7,1.8C219.9,81.5,219.9,81.3,219.8,81.1z M222.7,77.2c0.3,0.1,0.6,0.3,0.8,0.4
	c-0.2,0.2-0.3,0.4-0.5,0.6C223,77.8,222.8,77.5,222.7,77.2z M222.5,76.6c-0.1-0.3-0.3-0.7-0.4-1c0.4-0.6,0.9-1.1,1.3-1.7
	c0.2,0,0.3-0.1,0.5-0.1C223.4,74.7,223,75.7,222.5,76.6z M223.5,73.7c0.3-0.4,0.6-0.9,0.9-1.4c-0.2,0.4-0.3,0.8-0.5,1.3
	C223.8,73.6,223.7,73.6,223.5,73.7z M223.2,73.7c-0.3,0.1-0.6,0.2-0.9,0.3c0.6-1,1.1-1.9,1.6-2.9c0.2-0.4,0.5-0.8,0.7-1.2
	c0.1,0.4,0.2,0.8,0.3,1.2c0,0.1-0.1,0.3-0.1,0.4C224.3,72.2,223.8,73,223.2,73.7z M224.8,69.6c0-0.1,0.1-0.2,0.1-0.2
	c0.1,0.2,0.3,0.4,0.4,0.5c-0.1,0.3-0.2,0.5-0.3,0.8C224.9,70.4,224.9,70,224.8,69.6z M225.4,69.7c-0.1-0.2-0.2-0.3-0.4-0.5
	c0.2-0.3,0.4-0.7,0.5-1c0,0.4-0.1,0.8-0.1,1.3C225.4,69.6,225.4,69.6,225.4,69.7z M225.9,65.9c-0.3,1-0.7,2-1.2,3
	c-0.1-0.1-0.1-0.2-0.2-0.3c-0.8-3.3-1.4-6.6-1.8-9.8c1.6,1.9,2.7,4.1,3.3,6.5c0,0.1,0,0.1,0,0.2C225.9,65.6,225.9,65.8,225.9,65.9z
	 M224.2,68.3c-1.4-1.6-3.2-2.9-5.3-3.8c-0.3-0.1-0.6-0.2-0.9-0.3c-1.2-3.7-2.2-7.2-3-10.7c0.3,0.1,0.7,0.2,1,0.4
	c2.5,1.1,4.7,2.7,6.4,4.7C222.9,61.7,223.5,65,224.2,68.3z M217.8,64c-0.7-0.3-1.4-0.5-2.2-0.6c-2-0.5-4.1-0.6-6.3-0.6
	c-1.7-3.7-3.2-7.4-4.6-10.9c2.6-0.1,5.1,0.2,7.5,0.7c0.9,0.2,1.8,0.5,2.6,0.8C215.7,56.8,216.7,60.4,217.8,64z M209.1,62.8
	c-3.2,0.1-6.5,0.6-9.7,1.6c-2.3-3.6-4.4-7.1-6.4-10.5c3.8-1.2,7.7-1.9,11.5-2C205.9,55.4,207.4,59.1,209.1,62.8z M204.8,73.2
	c0.6,0.9,1.3,1.9,1.9,2.8c-2.8,0.9-5.4,2.1-7.8,3.6c-0.8-0.9-1.5-1.8-2.3-2.7c-2.3-2.7-4.6-5.3-6.7-7.9c2.9-1.8,6.2-3.3,9.5-4.4
	C201.1,67.4,202.9,70.3,204.8,73.2z M196.4,77c0.7,0.9,1.5,1.8,2.3,2.7c-2.5,1.5-4.8,3.3-6.7,5.3c-0.9-0.8-1.7-1.6-2.6-2.3
	c-2.7-2.4-5.3-4.8-7.9-7.1c2.4-2.4,5.1-4.6,8.2-6.5C191.9,71.7,194.1,74.3,196.4,77z M189.3,82.8c0.9,0.8,1.7,1.6,2.6,2.4
	c-1.9,2-3.5,4.2-4.6,6.4c-0.9-0.7-1.9-1.4-2.8-2c-2.9-2.1-5.8-4.1-8.7-6c1.4-2.7,3.3-5.4,5.7-7.8C184,78,186.6,80.4,189.3,82.8z
	 M182.2,96.8c1,0.6,2,1.1,3,1.7c0,0.5-0.1,1.1,0,1.6c0,0.4,0.1,0.7,0.1,1.1c-1.1,0.4-2.2,0.8-3.4,1.1c-0.1,0-0.1,0-0.2,0.1
	c-2.4-1.1-4.8-2.1-7.2-3.1c-0.8-1.7-1.3-3.6-1.3-5.4c0-0.6,0-1.2,0.1-1.8C176.2,93.6,179.2,95.2,182.2,96.8z M181.5,102.5
	c-0.7,0.2-1.4,0.4-2,0.6c-0.7,0.1-1.3,0.3-2,0.4c-1.2-1.1-2.1-2.5-2.8-3.9C176.9,100.5,179.2,101.5,181.5,102.5z M179.5,103.2
	c0.8-0.2,1.6-0.3,2.4-0.5c0.4,0.2,0.7,0.3,1.1,0.5c-0.4,0.1-0.8,0.3-1.2,0.4c-1-0.1-2.1-0.2-3-0.2
	C179,103.4,179.3,103.3,179.5,103.2z M185.8,102.4c1.2-0.5,2.3-0.9,3.5-1.5c0.3,0.2,0.6,0.3,0.9,0.5c0,0.1,0,0.3,0,0.4
	c-0.2,0.1-0.4,0.1-0.6,0.2c-1.2,0.4-2.3,0.7-3.5,0.9C185.9,102.8,185.9,102.6,185.8,102.4z M190.3,101.6c0.1,0,0.2,0.1,0.2,0.1
	c-0.1,0-0.2,0.1-0.2,0.1C190.3,101.7,190.3,101.6,190.3,101.6z M190.4,101.3c0-0.3,0.1-0.6,0.1-0.8c0-0.1,0-0.1,0.1-0.2
	c1.1-0.5,2.3-1.1,3.4-1.6c0.3,0,0.7,0.1,1,0.2c0.5,0.1,1.1,0.3,1.7,0.5c-1.9,0.8-3.8,1.6-5.7,2.3
	C190.7,101.5,190.5,101.4,190.4,101.3z M194.9,98.7c-0.3-0.1-0.5-0.1-0.8-0.1c0.5-0.2,0.9-0.5,1.4-0.7c0.6,0.4,1.1,0.8,1.7,1.2
	c-0.1,0.1-0.3,0.1-0.4,0.2C196.1,99,195.5,98.8,194.9,98.7z M206.3,98.4C206.4,98.5,206.4,98.5,206.3,98.4c-0.5,0.4-1,0.7-1.6,1.1
	C205.3,99.1,205.8,98.8,206.3,98.4z M206.5,98.3c1.7-1.2,3.5-2.4,5.1-3.7c0.1,0.1,0.1,0.1,0.2,0.2C210.1,96.1,208.4,97.3,206.5,98.3
	C206.6,98.4,206.5,98.4,206.5,98.3z M215.8,99.1c0.8-0.7,1.6-1.3,2.4-2c1.3,1.3,2.7,2.6,4.1,4c-0.5,0.4-1,0.8-1.5,1.2
	c-0.5,0.3-1,0.5-1.5,0.8c-0.1-0.1-0.3-0.3-0.4-0.4C217.8,101.4,216.7,100.2,215.8,99.1z M219.8,102.9c-0.1,0.1-0.3,0.2-0.4,0.3
	c0,0,0,0,0,0C219.5,103.1,219.6,103,219.8,102.9z M219.5,103.4c0.4-0.3,0.9-0.7,1.3-1c0.6-0.3,1.3-0.6,2-0.9
	c0.1,0.1,0.2,0.2,0.3,0.2c-0.9,0.9-1.8,1.7-2.8,2.5C220,104,219.8,103.7,219.5,103.4z M223,101.4c0.2-0.1,0.4-0.1,0.6-0.2
	c-0.1,0.1-0.3,0.3-0.4,0.4C223.1,101.6,223.1,101.5,223,101.4z M224,101.1C224,101.1,224,101.1,224,101.1c1.1,1.5,2.3,3.1,3.4,4.6
	c-1.4-1.4-2.7-2.7-4-4C223.5,101.6,223.8,101.3,224,101.1z M219.8,94.8c0.4-0.4,0.8-0.7,1.2-1.1c-0.3,0.4-0.7,0.8-1.1,1.2
	C219.8,94.9,219.8,94.9,219.8,94.8z M219.7,94.7c-1-1.4-1.9-2.7-2.9-4.1c0.3-0.3,0.7-0.7,1-1c0.7-0.6,1.4-1.3,2.1-2
	c0.5,0,0.9,0,1.4,0c0.4,1.2,1,2.5,1.5,3.8c-0.3,0.5-0.7,0.9-1,1.4C221.1,93.4,220.4,94.1,219.7,94.7z M220.1,87.4
	c0.3-0.3,0.6-0.5,0.8-0.8c0.1,0.3,0.2,0.5,0.3,0.8C220.8,87.4,220.5,87.4,220.1,87.4z M220.9,86.4c-0.3,0.3-0.7,0.7-1.1,1
	c-0.1,0-0.1,0-0.2,0c0.4-0.5,0.7-1,1.1-1.4c0,0,0,0,0,0C220.8,86.1,220.8,86.3,220.9,86.4z M219.9,82c0.6-0.6,1.2-1.3,1.8-1.9
	c0.4-0.5,0.9-1,1.3-1.5c0.3,0.6,0.5,1.3,0.8,1.9c-0.8,1.7-1.8,3.4-3,5.1C220.4,84.3,220.1,83.1,219.9,82z M223.2,78.4
	c0.2-0.2,0.4-0.5,0.6-0.7c0.3,0.2,0.7,0.4,1,0.6c-0.2,0.6-0.5,1.3-0.8,1.9C223.7,79.6,223.4,79,223.2,78.4z M225.8,73.6
	c0.1,0,0.2,0,0.3,0c0,0.2-0.1,0.5-0.1,0.7C225.9,74.1,225.8,73.9,225.8,73.6z M225.4,73.4c-0.4,0-0.9,0-1.2,0.1
	c0.3-0.7,0.5-1.3,0.8-2c0,0,0-0.1,0.1-0.1c0.1,0.5,0.3,1,0.4,1.6C225.4,73.2,225.4,73.3,225.4,73.4z M225.2,71.3
	c0.1-0.1,0.1-0.2,0.2-0.3c0,0.4,0,0.8,0,1.2C225.3,71.8,225.2,71.6,225.2,71.3z M225.2,70.8c0.1-0.2,0.1-0.3,0.1-0.5
	c0,0.1,0,0.2,0,0.3C225.3,70.6,225.3,70.7,225.2,70.8z M225.6,70.1c0-0.2,0-0.4,0-0.6c0.1-0.5,0.3-1,0.4-1.5
	c0.1-0.4,0.2-0.9,0.3-1.3c0.1,0.7,0.1,1.4,0.2,2C226.2,69.2,225.9,69.7,225.6,70.1C225.6,70.1,225.6,70.1,225.6,70.1z M226.5,60.7
	c0.1,1.1,0,2.1,0,3.2c0,0.1-0.1,0.3-0.1,0.4c-0.1-1.8-0.1-3.6,0-5.3C226.4,59.6,226.4,60.1,226.5,60.7z M226.1,64.9
	C226.1,64.9,226.1,64.9,226.1,64.9c-0.7-2.3-1.9-4.5-3.5-6.4c-0.4-3.1-0.6-6-0.7-8.9c2.1,2.5,3.6,5.4,4.2,8.6
	C226,60.3,226,62.6,226.1,64.9z M222.4,58.2c-1.7-1.9-3.9-3.5-6.3-4.5c-0.4-0.2-0.7-0.3-1.1-0.4c-0.8-3.4-1.4-6.6-1.9-9.7
	c0.4,0.1,0.8,0.3,1.2,0.4c2.9,1.2,5.5,3.1,7.5,5.4C221.8,52.2,222,55.2,222.4,58.2z M214.8,53.2c-0.8-0.3-1.7-0.5-2.5-0.7
	c-2.4-0.5-5-0.8-7.6-0.7c-1.3-3.4-2.5-6.7-3.6-10c3.1-0.1,6.1,0.2,8.9,0.8c1,0.2,2,0.5,2.9,0.9C213.4,46.6,214,49.8,214.8,53.2z
	 M204.4,51.7c-3.8,0.1-7.7,0.8-11.5,2c-1.9-3.3-3.7-6.5-5.4-9.6c4.4-1.4,9-2.2,13.4-2.4C201.9,45,203.1,48.3,204.4,51.7z
	 M199.3,64.5c-3.4,1.1-6.6,2.6-9.5,4.4c-2.8-3.3-5.6-6.6-8.2-9.7c3.5-2.1,7.3-3.9,11.3-5.2C194.9,57.4,197,60.9,199.3,64.5z
	 M189.5,69c-3.1,1.9-5.8,4.1-8.2,6.5c-3.3-3-6.6-5.8-9.7-8.5c2.8-2.9,6.1-5.5,9.7-7.7C184,62.4,186.7,65.6,189.5,69z M181.2,75.6
	c-2.3,2.4-4.3,5.1-5.7,7.8c-3.7-2.5-7.3-4.8-10.8-7c1.7-3.3,4-6.4,6.8-9.3C174.7,69.8,177.9,72.7,181.2,75.6z M175.5,83.6
	c-0.9,1.7-1.5,3.5-2,5.3c-0.2,0.9-0.4,1.9-0.4,2.8c-3.8-2-7.6-3.8-11.3-5.5c0.1-1.1,0.3-2.2,0.5-3.3c0.5-2.2,1.3-4.3,2.3-6.4
	C168.2,78.8,171.8,81.1,175.5,83.6z M173.1,91.9c0,0.6-0.1,1.3-0.1,1.9c0.1,1.8,0.5,3.7,1.3,5.3c-3.7-1.5-7.4-2.9-11-4.1
	c-0.9-2-1.5-4.2-1.5-6.4c0-0.7,0-1.5,0.1-2.2C165.5,88.1,169.3,89.9,173.1,91.9z M174.4,99.4c0.7,1.5,1.7,2.8,2.9,4
	c-0.2,0-0.5,0.1-0.7,0.1c-0.3,0-0.6,0.1-0.9,0.1c0,0,0,0,0,0c-2.4-0.8-4.7-1.4-7-2c-2.3-1.7-4.1-3.9-5.3-6.4
	C167,96.5,170.7,97.9,174.4,99.4z M175.2,103.8c-0.7,0.1-1.5,0.2-2.2,0.2c-0.5-0.2-1-0.4-1.4-0.6c-0.9-0.4-1.7-0.9-2.5-1.4
	C171.1,102.5,173.2,103.1,175.2,103.8z M174.1,104.1c-0.1,0-0.3,0.1-0.4,0.1c-0.1,0-0.2-0.1-0.2-0.1
	C173.7,104.1,173.9,104.1,174.1,104.1z M173.1,104.2c-0.1,0-0.2,0-0.3,0C172.9,104.2,172.9,104.2,173.1,104.2
	C173,104.2,173.1,104.2,173.1,104.2z M176.2,104c0.2,0.1,0.4,0.1,0.6,0.2c-0.6,0-1.1,0-1.7,0C175.4,104.2,175.8,104.1,176.2,104z
	 M176.5,104c0.3-0.1,0.7-0.2,1-0.2c0.1,0.2,0.3,0.3,0.5,0.5c-0.2,0-0.5,0-0.8,0C177,104.1,176.8,104.1,176.5,104z M178.5,104.3
	c0.5,0,1-0.1,1.5-0.1c-0.1,0-0.1,0-0.2,0.1c-0.3,0.1-0.7,0.2-1,0.3C178.7,104.5,178.6,104.4,178.5,104.3z M178.3,104.2
	c-0.2-0.2-0.4-0.3-0.5-0.5c0.1,0,0.1,0,0.2,0c1.1-0.1,2.3,0,3.5,0.1c-0.2,0.1-0.4,0.1-0.6,0.2C180,104,179.1,104.1,178.3,104.2z
	 M182.2,103.7c0.3-0.1,0.7-0.2,1-0.4c0.1,0.1,0.3,0.1,0.4,0.2c-0.4,0.1-0.8,0.1-1.2,0.2C182.4,103.7,182.3,103.7,182.2,103.7z
	 M184,103.6c0.4,0.2,0.7,0.4,1.1,0.5c-0.7-0.1-1.3-0.3-2-0.4C183.4,103.7,183.7,103.7,184,103.6z M186.1,103.2
	c1.2-0.3,2.3-0.6,3.5-0.9c0.2-0.1,0.4-0.1,0.5-0.2c0,0.3,0,0.6,0,0.9c-1.1,0.5-2.3,1-3.4,1.5C186.5,104,186.3,103.6,186.1,103.2z
	 M190.3,102c0.2-0.1,0.3-0.1,0.5-0.2c0.3,0.2,0.5,0.3,0.8,0.5c-0.4,0.2-0.8,0.4-1.2,0.6C190.4,102.5,190.3,102.3,190.3,102z
	 M191,101.7c2-0.7,3.9-1.4,5.8-2.3c0.1,0,0.1,0,0.1,0.1c-1.7,0.9-3.4,1.8-5.2,2.7C191.5,102,191.3,101.9,191,101.7z M197,99.4
	c0.1,0,0.2-0.1,0.4-0.2c0,0,0,0,0,0c-0.1,0.1-0.2,0.1-0.3,0.2C197.1,99.4,197.1,99.4,197,99.4z M197.6,99.4c0.2,0.2,0.5,0.4,0.7,0.6
	c-0.3-0.2-0.7-0.3-1-0.4C197.5,99.4,197.5,99.4,197.6,99.4z M197.8,99.3c1-0.6,2-1.1,2.9-1.7c0.4-0.2,0.8-0.5,1.2-0.7
	c-1,1.2-1.8,2.4-2.4,3.6c-0.1-0.1-0.2-0.1-0.4-0.2C198.7,100,198.2,99.6,197.8,99.3z M200,101c0.3,0.2,0.6,0.3,0.9,0.5
	c-0.1,0-0.1,0-0.1,0.1C200.5,101.3,200.3,101.1,200,101z M200.5,101.6c-0.5,0.2-1,0.4-1.5,0.7c0.2-0.5,0.4-0.9,0.6-1.4
	C199.9,101.1,200.2,101.3,200.5,101.6z M202.6,100.8c1.3-0.7,2.7-1.4,3.9-2.2c1.2,1.1,2.3,2.2,3.5,3.3c-1.3,0.9-2.6,1.7-3.9,2.5
	c-1.7-1.1-3.2-2.1-4.7-3C201.8,101.3,202.2,101,202.6,100.8z M206.7,98.6c1.8-1.1,3.5-2.3,5.2-3.6c1,1.2,2,2.3,3,3.5
	c-1.5,1.2-3.1,2.3-4.7,3.4C209.1,100.7,207.9,99.6,206.7,98.6z M215.1,98.6c0.1,0.2,0.3,0.3,0.4,0.5c-1.5,1.2-3.1,2.2-4.7,3.2
	c-0.1-0.1-0.2-0.2-0.4-0.3C212,100.9,213.5,99.8,215.1,98.6z M215.6,99.2c1,1.2,2.1,2.4,3.1,3.6c0.1,0.1,0.1,0.2,0.2,0.2
	c0,0.1,0.1,0.1,0.2,0.2c-1.5,0.9-2.8,2-4,3.2c-1.4-1.3-2.8-2.6-4.2-3.9C212.5,101.4,214.1,100.4,215.6,99.2z M219.2,103.3
	C219.2,103.3,219.2,103.4,219.2,103.3c-1,0.9-2.1,1.7-3.3,2.5C216.9,104.9,218,104,219.2,103.3z M220.4,104.4c1-0.8,1.9-1.6,2.8-2.5
	c1.5,1.5,3,3,4.6,4.5c-1.1,0.9-2.2,1.8-3.3,2.6C223.1,107.5,221.7,106,220.4,104.4z M227.9,106.6c0,0,0.1,0.1,0.2,0.2
	c0.3,0.4,0.5,0.7,0.8,1.1c-0.9,1-1.9,2-3,2.9c-0.4-0.5-0.9-1-1.3-1.5C225.7,108.3,226.8,107.5,227.9,106.6z M220,95.2
	c0.7-0.7,1.3-1.5,1.9-2.2c0.4-0.3,0.7-0.7,1.1-1c0.6,1.4,1.3,2.9,2.1,4.5c0.3,0.5,0.5,1,0.8,1.5c-0.8,0.7-1.6,1.4-2.5,2.1
	C222.3,98.4,221.1,96.8,220,95.2z M222.6,92.1c0.1-0.1,0.2-0.3,0.3-0.4c0,0,0,0.1,0,0.1C222.8,91.9,222.7,92,222.6,92.1z M223,91.5
	c0.1-0.2,0.3-0.4,0.4-0.6c0,0.1,0.1,0.2,0.1,0.3c-0.2,0.2-0.3,0.3-0.5,0.5C223.1,91.6,223.1,91.5,223,91.5z M223.6,90.7
	c0.5-0.8,1-1.6,1.5-2.5c0.4,0.1,0.8,0.2,1.2,0.4c-0.8,0.8-1.6,1.6-2.5,2.4C223.7,90.9,223.6,90.8,223.6,90.7z M223.5,90.5
	c-0.5-1-1.1-1.9-1.6-2.8c0.8,0.1,1.7,0.2,2.5,0.4c0.2,0,0.3,0.1,0.5,0.1C224.4,89,224,89.7,223.5,90.5z M223.3,90.7
	c-0.1,0.2-0.3,0.4-0.4,0.6c-0.5-1.2-1-2.5-1.4-3.6c0,0,0.1,0,0.1,0C222.2,88.7,222.8,89.7,223.3,90.7z M221.4,87.4
	c-0.1-0.2-0.1-0.3-0.2-0.5c0.1,0.2,0.2,0.3,0.3,0.5C221.5,87.4,221.5,87.4,221.4,87.4z M220.9,85.9c0-0.1,0-0.1-0.1-0.2
	c1.2-1.6,2.2-3.3,3.1-5.1c0.2,0.6,0.5,1.2,0.7,1.8c-1.2,1.3-2.3,2.5-3.6,3.7C221,86.1,221,86,220.9,85.9z M224,80.5
	c0.3-0.7,0.6-1.4,0.9-2c0.4,0.3,0.9,0.6,1.3,0.9c0.1,0.4,0.1,0.8,0.2,1.2c-0.3,0.4-0.6,0.7-0.9,1.1c-0.2,0.2-0.5,0.5-0.7,0.7
	C224.5,81.7,224.3,81.1,224,80.5z M226.4,79.5c0.2,0.1,0.3,0.3,0.5,0.4c-0.1,0.1-0.2,0.2-0.3,0.3C226.5,80.1,226.5,79.8,226.4,79.5z
	 M226.4,79.3c-0.2-1.2-0.4-2.4-0.5-3.6c0.1-0.2,0.1-0.4,0.1-0.6c0.1,0.5,0.3,0.9,0.4,1.4c0.3,1,0.6,2,0.9,3
	c-0.1,0.1-0.2,0.2-0.3,0.3C226.8,79.6,226.6,79.4,226.4,79.3z M226.1,73.5c-0.1,0-0.3,0-0.4,0c0-0.1-0.1-0.3-0.1-0.4
	c0-0.8-0.1-1.6,0-2.4c0,0,0.1-0.1,0.1-0.1c0.3,0.4,0.5,0.9,0.7,1.3C226.3,72.4,226.2,72.9,226.1,73.5z M225.8,70.3
	c0.3-0.4,0.5-0.8,0.7-1.2c0,0.8,0,1.6-0.1,2.4C226.2,71.1,226,70.7,225.8,70.3z M226.6,64.3c0.1-0.4,0.2-0.8,0.3-1.2
	c0.2-0.5,0.4-1,0.6-1.5c0.3-0.5,0.6-1.1,1-1.5c-0.6,2-1.3,3.9-2.2,5.9C226.5,65.4,226.6,64.9,226.6,64.3z M227.2,51.2
	c-0.1,0.3-0.2,0.6-0.2,0.9c-0.4,1.7-0.7,3.5-0.8,5.4c-0.7-3-2.2-5.8-4.2-8.2c0-2.8,0.1-5.4,0.4-7.9
	C224.8,44.2,226.5,47.6,227.2,51.2z M221.7,49.1c-2-2.2-4.5-4.1-7.4-5.3c-0.4-0.2-0.8-0.3-1.3-0.5c-0.4-3-0.7-5.9-0.8-8.7
	c0.5,0.2,0.9,0.3,1.3,0.5c3.3,1.4,6.2,3.5,8.5,6.1C221.8,43.7,221.7,46.3,221.7,49.1z M212.9,43.2c-0.9-0.3-1.9-0.6-2.9-0.8
	c-2.8-0.7-5.8-0.9-9-0.8c-1-3.1-1.8-6.1-2.5-9c3.6-0.1,7,0.2,10.3,0.9c1.1,0.3,2.2,0.6,3.2,0.9C212.2,37.3,212.4,40.2,212.9,43.2z
	 M200.8,41.6c-4.4,0.1-9,1-13.4,2.4c-1.6-2.9-3.1-5.8-4.4-8.6c5.1-1.6,10.3-2.6,15.3-2.8C199,35.5,199.9,38.5,200.8,41.6z
	 M192.8,53.8c-4,1.3-7.8,3.1-11.4,5.2c-2.5-3-5-5.9-7.3-8.8c4.1-2.5,8.5-4.6,13.2-6.1C189,47.3,190.8,50.5,192.8,53.8z M181.2,59.1
	c-3.6,2.2-6.9,4.8-9.7,7.7c-3-2.6-6-5.1-8.9-7.5c3.3-3.4,7.1-6.4,11.3-9C176.3,53.2,178.7,56.1,181.2,59.1z M171.4,67
	c-2.8,2.9-5.1,6-6.8,9.3c-3.4-2.1-6.7-4.1-10-6c1.9-3.8,4.6-7.5,7.9-10.8C165.4,61.9,168.3,64.4,171.4,67z M164.5,76.5
	c-1.1,2.1-1.9,4.3-2.4,6.4c-0.2,1.1-0.4,2.2-0.5,3.2c-3.6-1.6-7.1-3.1-10.5-4.4c0.1-1.2,0.3-2.5,0.6-3.7c0.6-2.5,1.5-5.1,2.8-7.5
	C157.8,72.3,161.1,74.3,164.5,76.5z M161.6,86.3c-0.1,0.8-0.1,1.5-0.1,2.3c0.1,2.2,0.6,4.3,1.5,6.3c-3.5-1.2-6.9-2.2-10.2-3
	c-1.1-2.4-1.7-4.9-1.8-7.5c0-0.9,0-1.7,0.1-2.6C154.6,83.2,158.1,84.7,161.6,86.3z M163.1,95.2c1.2,2.5,2.9,4.7,5.1,6.4
	c-0.8-0.2-1.5-0.4-2.2-0.5c-2.4-0.5-4.7-1-6.9-1.3c-2.7-2-4.8-4.6-6.2-7.5C156.2,93,159.6,94,163.1,95.2z M165.9,101.2
	c0.9,0.2,1.8,0.4,2.7,0.7c0.9,0.7,1.9,1.2,2.9,1.7c0.4,0.2,0.7,0.3,1.1,0.5c-0.3,0-0.7,0-1,0.1c-0.6-0.1-1.2-0.2-1.8-0.2
	c-0.7-0.1-1.5-0.2-2.2-0.4c-1.8-0.4-3.5-1-5.1-1.7c-1.1-0.5-2.1-1.1-3-1.8C161.5,100.3,163.7,100.7,165.9,101.2z M174.4,104.4
	c1,0,1.9,0,2.9,0c0.3,0.1,0.6,0.2,1,0.3c-0.4,0.1-0.8,0.2-1.2,0.3c-0.4-0.1-0.8-0.2-1.2-0.3C175.3,104.7,174.8,104.6,174.4,104.4z
	 M178.5,104.8c0.2,0.1,0.4,0.1,0.6,0.2c0.2,0.2,0.4,0.3,0.6,0.4c-0.8-0.1-1.6-0.2-2.3-0.3C177.8,105.1,178.2,104.9,178.5,104.8z
	 M179.8,105.3c0.2,0.1,0.5,0.2,0.7,0.3c-0.1,0-0.2,0-0.3,0C180,105.4,179.9,105.3,179.8,105.3z M186.4,104.8
	c0.2,0.1,0.3,0.2,0.5,0.2c0.1,0.1,0.2,0.2,0.2,0.3c-0.9,0.1-1.8,0.2-2.7,0.2C185.1,105.3,185.7,105,186.4,104.8z M187.3,105.2
	c0.1,0,0.2,0.1,0.2,0.1c0,0-0.1,0-0.1,0C187.3,105.3,187.3,105.2,187.3,105.2z M187,104.9C187,104.8,187,104.8,187,104.9
	c0.4,0,0.9,0.2,1.4,0.3c-0.2,0-0.4,0.1-0.6,0.1C187.6,105.1,187.3,105,187,104.9z M190.4,103c0.5-0.2,0.9-0.4,1.4-0.6
	c0.8,0.5,1.6,1,2.5,1.5c-1.2,0.3-2.4,0.6-3.5,0.9C190.5,104.2,190.5,103.6,190.4,103z M192,102.3c1.8-0.8,3.5-1.7,5.2-2.7
	c0.6,0.2,1.2,0.5,1.9,0.9c0.1,0.1,0.2,0.2,0.4,0.3c-0.3,0.5-0.5,1.1-0.7,1.6c-1.3,0.5-2.6,1-3.9,1.4c-0.1,0-0.3,0.1-0.4,0.1
	C193.6,103.3,192.8,102.8,192,102.3z M198.9,102.5c0.6-0.2,1.2-0.5,1.8-0.8c0,0,0,0,0,0c-0.6,0.4-1.3,0.8-2,1.1
	C198.8,102.7,198.9,102.6,198.9,102.5z M200.9,101.6C200.9,101.6,200.9,101.6,200.9,101.6C200.9,101.6,200.9,101.6,200.9,101.6
	C200.9,101.6,200.9,101.6,200.9,101.6z M201.3,101.6c1.5,0.8,3.1,1.8,4.7,3c-0.2,0.1-0.4,0.3-0.6,0.4c-1.4-1.1-2.8-2.2-4.3-3.2
	C201.1,101.7,201.2,101.7,201.3,101.6z M206.3,104.6c1.3-0.8,2.6-1.7,3.9-2.5c0.1,0.1,0.2,0.2,0.3,0.3
	C209.2,103.2,207.8,103.9,206.3,104.6L206.3,104.6z M210.7,102.5c1.4,1.3,2.8,2.6,4.2,3.9c0,0,0,0,0,0c-1,0.7-2,1.3-3,2
	c-0.3-0.2-0.6-0.5-0.9-0.7c-1.5-1.1-3-2.1-4.5-3.1C208,104.1,209.4,103.3,210.7,102.5z M215,106.6C215,106.6,215.1,106.6,215,106.6
	c0.3,0.2,0.5,0.5,0.8,0.7c-0.8,0.4-1.6,0.9-2.4,1.3C213.9,107.9,214.4,107.3,215,106.6z M215.2,106.5c1.4-1,2.8-2,4.1-3
	c0.2,0.3,0.5,0.6,0.7,0.9c-1.3,1-2.6,2-4.1,2.8C215.7,107,215.5,106.8,215.2,106.5z M220.2,104.6c1.3,1.5,2.6,3.1,4,4.6
	c-1.1,0.9-2.3,1.7-3.5,2.5c-1.5-1.5-3.1-2.9-4.6-4.4C217.6,106.5,218.9,105.6,220.2,104.6z M224,100.8c-0.1-0.2-0.3-0.4-0.4-0.6
	c0.8-0.7,1.6-1.4,2.4-2.1c0,0,0,0.1,0.1,0.1C225.4,99.1,224.7,99.9,224,100.8z M226.2,98.4c0.3,0.6,0.7,1.3,1,1.9
	c-1,0.1-2,0.2-3,0.5C224.9,100.1,225.6,99.3,226.2,98.4z M226.1,98c0.1-0.1,0.1-0.1,0.2-0.2C226.3,97.9,226.2,98,226.1,98
	C226.2,98,226.2,98,226.1,98z M226.1,97.8c-0.3-0.5-0.5-1-0.7-1.5c-0.8-1.6-1.5-3.1-2.1-4.5c0.2-0.2,0.3-0.3,0.5-0.5
	c1.1,1.9,2.1,3.7,3.2,5.6c0,0.1-0.1,0.1-0.1,0.2C226.5,97.4,226.3,97.6,226.1,97.8z M227,96.8c-1.1-1.9-2.2-3.7-3.2-5.6
	c0.9-0.8,1.7-1.7,2.6-2.5c0.4,0.1,0.8,0.3,1.1,0.5c0.5,1.1,1,2.2,1.5,3.3C228.6,93.9,227.9,95.4,227,96.8z M229.2,92.7
	c0.2,0.5,0.5,1,0.7,1.5c-0.9,0.8-1.7,1.6-2.6,2.4C228.1,95.4,228.7,94.1,229.2,92.7z M226.6,88.5c0.2-0.2,0.3-0.3,0.5-0.5
	c0.1,0.3,0.3,0.6,0.4,0.9C227.2,88.8,226.9,88.6,226.6,88.5z M226.4,88.4c-0.4-0.1-0.8-0.3-1.2-0.4c0.4-0.7,0.7-1.4,1-2.1
	c0.3,0.6,0.5,1.2,0.8,1.9C226.8,88,226.6,88.2,226.4,88.4z M224.9,88c-0.2,0-0.4-0.1-0.6-0.1c-0.8-0.2-1.7-0.3-2.6-0.4
	c-0.2-0.4-0.4-0.7-0.6-1.1c1.2-1.2,2.4-2.4,3.6-3.7c0.4,1,0.9,2,1.3,3C225.7,86.5,225.3,87.3,224.9,88z M224.9,82.5
	c0.3-0.3,0.5-0.5,0.8-0.8c0.3-0.3,0.5-0.6,0.8-0.9c0.2,0.7,0.3,1.5,0.5,2.3c-0.2,0.8-0.5,1.6-0.8,2.4
	C225.7,84.5,225.3,83.5,224.9,82.5z M227.5,79.5c0-0.1,0.1-0.1,0.1-0.2c0,0.1,0,0.3,0,0.4C227.5,79.7,227.5,79.6,227.5,79.5z
	 M227.4,79.3c-0.3-0.9-0.6-1.9-0.8-2.8c-0.2-0.6-0.3-1.2-0.5-1.8c0,0,0,0,0,0c0.3-0.3,0.5-0.7,0.8-1c0.1,0,0.2,0,0.2,0
	c0.3,1,0.5,2.1,0.6,3.1c0,0.7,0,1.5,0,2.2C227.6,79.1,227.5,79.2,227.4,79.3z M227.1,73c-0.1-0.4-0.3-0.8-0.5-1.2
	c0.1-0.5,0.1-1,0.1-1.4C226.8,71.3,226.9,72.1,227.1,73C227.1,73,227.1,73,227.1,73z M226.7,68.9C226.7,68.9,226.7,68.8,226.7,68.9
	c2.3-4,4-7.9,5.2-11.9c1.2-0.8,2.6-1.4,4-1.8c-1.7,5.9-4.7,11.9-8.7,17.5C227,71.4,226.9,70.2,226.7,68.9z M226.7,68.4
	c0,0,0-0.1,0-0.2c0-0.6-0.1-1.3-0.2-1.9c1-2.2,1.8-4.5,2.5-6.7c0.8-0.9,1.7-1.7,2.7-2.4C230.5,61,228.8,64.7,226.7,68.4z
	 M229.6,45.2c-0.9-4.1-2.9-7.9-5.7-11.1c0.7-2,1.5-3.9,2.6-5.6c3.2,3.6,5.4,7.9,6.3,12.5C231.6,42.2,230.5,43.7,229.6,45.2z
	 M214.1,27.3c3.7,1.5,7,3.9,9.6,6.8c-0.3,0.9-0.6,1.8-0.8,2.8c0,0.1,0,0.2-0.1,0.3c-0.3,1.2-0.5,2.5-0.7,3.8c-2.3-2.6-5.2-4.7-8.5-6
	c-0.5-0.2-0.9-0.4-1.4-0.5c0-1.4,0-2.7,0-4c0-1.2,0.1-2.5,0.3-3.6C213.1,26.9,213.6,27.1,214.1,27.3z M212.1,30.3c0,1.3,0,2.6,0,4
	c-1-0.4-2.1-0.7-3.2-0.9c-3.3-0.8-6.8-1-10.4-0.9c-0.3-1.4-0.6-2.8-0.9-4.1c-0.2-1.3-0.4-2.5-0.6-3.7c4.1-0.1,8,0.2,11.7,1
	c1.2,0.3,2.4,0.6,3.6,1C212.2,27.9,212.1,29.1,212.1,30.3z M187.3,44c-4.7,1.5-9.1,3.6-13.2,6.1c-2.2-2.7-4.3-5.2-6.3-7.7
	c4.7-2.9,9.8-5.2,15.1-7C184.2,38.2,185.7,41.1,187.3,44z M173.9,50.2c-4.2,2.6-8.1,5.7-11.4,9c-2.7-2.3-5.4-4.4-7.9-6.4
	c3.8-3.8,8.2-7.3,13-10.3C169.6,45,171.7,47.5,173.9,50.2z M162.4,59.4c-3.3,3.4-6,7-7.9,10.9c-3.1-1.8-6.1-3.4-9.1-4.9
	c2.2-4.4,5.3-8.6,9.1-12.4C157,55,159.6,57.1,162.4,59.4z M154.3,70.4c-1.3,2.5-2.2,5-2.8,7.6c-0.3,1.2-0.5,2.4-0.6,3.7
	c-3.3-1.2-6.5-2.3-9.6-3.3c0.1-1.4,0.4-2.8,0.7-4.1c0.7-2.9,1.8-5.9,3.2-8.7C148.2,67,151.2,68.6,154.3,70.4z M150.9,81.8
	c-0.1,0.9-0.1,1.8-0.1,2.7c0,2.6,0.6,5.1,1.7,7.4c-0.5-0.1-1.1-0.3-1.6-0.4c-2.6-0.6-5.2-1.1-7.7-1.5c-1.2-2.7-1.9-5.6-2-8.6
	c0-1,0-2,0.1-3C144.5,79.5,147.7,80.6,150.9,81.8z M150.9,91.7c0.6,0.1,1.2,0.3,1.8,0.4c1.3,2.9,3.4,5.5,6,7.5
	c-2.9-0.4-5.7-0.7-8.3-0.7c-3-2.3-5.4-5.3-7-8.6C145.8,90.6,148.3,91.1,150.9,91.7z M159,99.9c1,0.8,2.2,1.4,3.4,2
	c1.6,0.7,3.4,1.3,5.2,1.7c0.1,0,0.2,0,0.3,0.1c-1.9-0.1-3.8-0.2-5.5-0.1c-0.7-0.1-1.5-0.3-2.2-0.4c-2.1-0.5-4.1-1.1-5.9-2
	c-1.3-0.6-2.5-1.3-3.6-2.1C153.3,99.1,156.1,99.4,159,99.9z M169.7,104c0.2,0,0.5,0.1,0.7,0.1c-2.5,0.1-5,0-7.4-0.4
	C165.2,103.7,167.4,103.8,169.7,104z M171.6,104.3C171.6,104.3,171.6,104.3,171.6,104.3c0.5,0.1,0.9,0.1,1.3,0.2
	c-5.7,0.9-11.3,1-16.5,0.2c0.8-0.2,1.6-0.4,2.4-0.5c1.1-0.2,2.3-0.3,3.4-0.4C165.2,104.3,168.4,104.4,171.6,104.3z M173.2,104.6
	c0.1,0,0.2,0,0.2,0c0.7,0.1,1.5,0.3,2.2,0.4c0.1,0,0.2,0,0.3,0.1c0.2,0,0.4,0.1,0.6,0.1c-2,0.5-4.1,1-6.1,1.3
	C171.2,105.7,172.2,105.1,173.2,104.6z M180.1,105.7c0.2,0.1,0.3,0.2,0.5,0.3c-0.5-0.1-0.9-0.2-1.4-0.4
	C179.5,105.6,179.8,105.7,180.1,105.7z M180.5,105.7c0.2,0,0.4,0,0.6,0c0.4,0.1,0.8,0.3,1.1,0.4c-0.1,0.1-0.3,0.1-0.4,0.1
	c-0.1,0-0.3-0.1-0.4-0.1C181.1,106,180.8,105.9,180.5,105.7z M182.5,106.3c1.1,0.4,2.2,0.8,3.3,1.3c-1.2-0.4-2.5-0.8-3.7-1.1
	C182.3,106.4,182.4,106.3,182.5,106.3z M184.8,107.4c-0.6-0.2-1.3-0.4-1.9-0.6C183.6,107,184.2,107.2,184.8,107.4z M187.8,108.1
	C187.8,108.1,187.8,108.1,187.8,108.1C187.8,108.1,187.8,108.1,187.8,108.1C187.8,108.1,187.8,108.1,187.8,108.1z M187.5,105.5
	c0.1,0,0.2,0,0.3,0c1,0.5,2,1,2.9,1.4c-0.4,0.2-0.8,0.4-1.3,0.6C188.7,106.8,188.1,106.2,187.5,105.5z M191,106
	c0.3,0.1,0.7,0.2,1,0.3c-0.3,0.1-0.5,0.2-0.8,0.3C191.1,106.4,191.1,106.2,191,106z M190.9,105.8c-0.1-0.3-0.1-0.6-0.2-0.8
	c1.2-0.2,2.5-0.6,3.7-0.9c0.3,0.2,0.7,0.4,1,0.6c-1.1,0.5-2.1,1.1-3.2,1.6C191.8,106.1,191.4,105.9,190.9,105.8z M195.6,104.8
	c0.8,0.5,1.5,0.9,2.3,1.4c0,0.4,0,0.8,0,1.2c-0.6,0.1-1.2,0.2-1.8,0.3c-1.2-0.5-2.4-1-3.6-1.4C193.5,105.8,194.6,105.3,195.6,104.8z
	 M198.1,107.4c0-0.4,0-0.7,0-1.1c0.4,0.3,0.8,0.5,1.2,0.8C198.9,107.2,198.5,107.3,198.1,107.4z M197.9,107.6c0,0.3,0.1,0.7,0.1,1
	c-0.5-0.2-1.1-0.5-1.6-0.7C196.9,107.8,197.4,107.7,197.9,107.6z M201.2,106.6c-0.5,0.2-1.1,0.3-1.6,0.4c-0.5-0.3-1-0.6-1.5-0.9
	c0-0.7,0.1-1.3,0.3-2c0.1-0.3,0.2-0.7,0.3-1c0.7-0.4,1.5-0.8,2.2-1.3c1.4,1.1,2.8,2.2,4.3,3.3c0,0-0.1,0-0.1,0.1
	C203.8,105.7,202.5,106.2,201.2,106.6z M206.3,104.8c1.5,1,3,2,4.5,3.2c0.3,0.2,0.6,0.4,0.9,0.6c-0.3,0.2-0.6,0.4-0.9,0.6
	c-1.7-1.4-3.5-2.7-5.2-4.1C205.8,105,206.1,104.9,206.3,104.8z M212.6,109.2c0.1,0,0.1,0.1,0.2,0.1c-0.2,0.3-0.4,0.7-0.5,1
	c-0.3-0.2-0.5-0.4-0.8-0.6C211.8,109.5,212.2,109.4,212.6,109.2z M212.9,109.5c1.7,1.3,3.5,2.6,5.3,4c-0.4,0.2-0.7,0.5-1.1,0.7
	c-1.6-1.3-3.1-2.5-4.7-3.8C212.5,110.1,212.7,109.8,212.9,109.5z M213,109.3c0.1-0.1,0.2-0.3,0.3-0.4c0.9-0.4,1.8-0.9,2.7-1.4
	c1.5,1.4,3.1,2.9,4.6,4.4c-0.7,0.5-1.5,1-2.3,1.5C216.5,112,214.7,110.6,213,109.3z M220.9,111.9c1.2-0.8,2.3-1.7,3.5-2.5
	c0.4,0.5,0.9,1,1.3,1.5c-1.1,0.8-2.2,1.6-3.4,2.3C221.8,112.8,221.3,112.3,220.9,111.9z M233.1,113.6c0.1,0.2,0.3,0.3,0.4,0.5
	c-0.7,0.2-1.5,0.5-2.2,0.9C231.9,114.5,232.5,114,233.1,113.6z M233.3,113.4c0.3-0.2,0.5-0.4,0.8-0.7c0.3,0.3,0.6,0.6,0.9,0.9
	c-0.4,0.1-0.9,0.2-1.3,0.3C233.6,113.8,233.4,113.6,233.3,113.4z M233.2,113.3c-1.3-1.8-2.7-3.6-4-5.4c0,0,0,0,0,0
	c1.6,1.6,3.1,3.1,4.8,4.8C233.7,112.8,233.4,113.1,233.2,113.3z M229,107.7C229,107.7,229,107.6,229,107.7
	C229,107.6,229,107.7,229,107.7C229,107.7,229,107.7,229,107.7z M228.2,106.6c0-0.1-0.1-0.1-0.1-0.2c0.6-0.5,1.1-0.9,1.7-1.4
	c0.2,0.3,0.4,0.6,0.6,1c-0.4,0.5-0.8,1-1.2,1.5C228.8,107.2,228.5,106.9,228.2,106.6z M228,106.3c-1.3-1.7-2.5-3.5-3.8-5.2
	c1-0.3,2.1-0.5,3.1-0.5c0.8,1.4,1.6,2.9,2.4,4.3C229.1,105.3,228.6,105.8,228,106.3z M227.5,100.5c0.5,0,1,0,1.6,0
	c0.6,1.1,1.3,2.1,1.9,3.2c-0.4,0.3-0.7,0.7-1.1,1C229,103.3,228.2,101.9,227.5,100.5z M227.4,100.3c-0.4-0.7-0.7-1.4-1.1-2.1
	c0.2-0.3,0.4-0.7,0.7-1c0,0,0.1-0.1,0.1-0.1c0.6,1.1,1.2,2.1,1.9,3.2C228.4,100.3,227.9,100.3,227.4,100.3z M227.2,97
	c0.9-0.9,1.9-1.7,2.8-2.6c1,2,2,4.1,3,6.2c-0.1,0.2-0.1,0.4-0.2,0.6c-0.6-0.2-1.1-0.4-1.8-0.5c-0.6-0.1-1.3-0.2-1.9-0.3
	C228.5,99.3,227.9,98.2,227.2,97z M230.2,94.3c0.1-0.1,0.2-0.2,0.3-0.2c0.5,1.4,1.1,2.9,1.7,4.3C231.5,97,230.8,95.6,230.2,94.3z
	 M230.1,94.1c-0.3-0.5-0.5-1.1-0.8-1.6c0.1-0.3,0.2-0.5,0.3-0.8c0.3,0.7,0.5,1.5,0.8,2.2C230.3,93.9,230.2,94,230.1,94.1z
	 M229.6,90.6c0,0.1-0.1,0.2-0.1,0.3c-0.1-0.3-0.2-0.6-0.3-0.9c0.2,0.1,0.3,0.2,0.5,0.3C229.7,90.4,229.6,90.5,229.6,90.6z
	 M229.4,91.3c-0.1,0.3-0.2,0.6-0.3,0.9c-0.5-1-0.9-2-1.4-3c0.4,0.2,0.8,0.4,1.1,0.6C229.1,90.4,229.3,90.8,229.4,91.3z M227.7,89
	c-0.2-0.4-0.3-0.8-0.5-1.1c0.3-0.3,0.6-0.6,0.8-0.9c0.2,0.7,0.4,1.4,0.7,2.1c0.1,0.2,0.1,0.3,0.2,0.5
	C228.5,89.4,228.1,89.2,227.7,89z M227.1,87.7c-0.3-0.7-0.6-1.3-0.9-2c0.3-0.8,0.6-1.5,0.8-2.3c0.3,1.1,0.6,2.2,0.9,3.4
	C227.7,87.1,227.4,87.4,227.1,87.7z M227.2,83c0.1-0.3,0.2-0.6,0.2-0.9c0.1-0.5,0.2-0.9,0.3-1.4c0,0,0,0,0.1,0.1
	c0.5,1.5,1,3,1.5,4.6c-0.4,0.4-0.7,0.8-1.1,1.2C227.8,85.4,227.5,84.2,227.2,83z M228.1,81.3c0.8,1.1,1.4,2.3,1.7,3.5
	c-0.1,0.1-0.3,0.3-0.4,0.4C228.9,83.9,228.5,82.6,228.1,81.3z M227.9,80.8c-0.1-0.2-0.1-0.4-0.2-0.5c0-0.4,0.1-0.8,0.1-1.1
	c0.1-0.2,0.3-0.3,0.4-0.5c0.3,1.2,0.6,2.4,0.9,3.6c0.1,0.3,0.2,0.5,0.2,0.8C229,82.2,228.5,81.5,227.9,80.8z M227.9,78.8
	c0-0.6,0-1.2,0-1.7c0.1,0.4,0.2,0.9,0.3,1.4C228.1,78.5,228,78.6,227.9,78.8z M227.4,73.7c0.8,0.1,1.6,0.2,2.5,0.4
	c0.4,0.1,0.8,0.2,1.2,0.3c-0.9,1.3-1.8,2.5-2.8,3.7C228,76.7,227.7,75.2,227.4,73.7z M230,74c-0.9-0.2-1.8-0.3-2.6-0.4
	c0-0.2-0.1-0.3-0.1-0.5c4.1-5.8,7.1-11.8,8.9-17.9c1.6-0.5,3.3-0.7,5-0.8c-1.9,6.8-5.3,13.5-9.9,20C230.8,74.2,230.4,74.1,230,74z
	 M237.6,41.4c0.2,3.6-0.1,7.4-1,11.1c-0.2,0.8-0.4,1.6-0.7,2.5c-1.5,0.4-2.8,1-4,1.8c0.2-0.7,0.4-1.5,0.6-2.2
	c0.8-3.4,1.1-6.8,0.9-10.1c-0.1-1.2-0.2-2.3-0.5-3.4c1.2-1.3,2.6-2.4,4.1-3.3C237.4,38.9,237.6,40.2,237.6,41.4z M233,40.8
	c-1-4.6-3.2-8.9-6.4-12.5c1-1.7,2.2-3.2,3.5-4.5c3.5,3.9,6,8.7,7,13.8C235.6,38.5,234.2,39.6,233,40.8z M226.4,28.1
	c-2.9-3.2-6.6-5.9-10.8-7.6c-0.6-0.2-1.1-0.4-1.7-0.6c0.6-1.9,1.4-3.7,2.3-5.2c0.6,0.2,1.3,0.4,1.9,0.7c4.6,1.8,8.6,4.7,11.8,8.3
	C228.6,25,227.5,26.5,226.4,28.1z M213.8,19.8c-1.3-0.4-2.6-0.8-3.9-1.1c-4.2-1-8.6-1.3-13.2-1.2c0-1.9,0.2-3.8,0.6-5.4
	c5.1-0.2,10,0.2,14.6,1.3c1.4,0.3,2.8,0.7,4.2,1.2C215.2,16.2,214.4,17.9,213.8,19.8z M209.8,18.9c1.3,0.3,2.6,0.7,3.9,1.1
	c-0.2,0.8-0.5,1.6-0.7,2.4c-0.3,1.3-0.5,2.6-0.7,4c-1.1-0.4-2.3-0.7-3.5-1c-3.7-0.9-7.7-1.2-11.8-1c-0.3-2.3-0.4-4.6-0.4-6.7
	C201.3,17.6,205.7,18,209.8,18.9z M196.9,24.4c-5.7,0.2-11.6,1.3-17.3,3.1c-0.9-2.2-1.7-4.3-2.4-6.2c6.4-2.1,13-3.3,19.3-3.6
	C196.4,19.8,196.6,22.1,196.9,24.4z M177,21.4c0.6,1.9,1.4,4,2.4,6.2c-6,2-11.8,4.7-17.1,7.9c-1.5-1.9-2.9-3.7-4.2-5.4
	C163.9,26.6,170.3,23.6,177,21.4z M179.4,27.8c0.5,1.2,1,2.4,1.6,3.6c0.6,1.3,1.2,2.6,1.8,3.9c-5.3,1.7-10.5,4.1-15.2,7
	c-0.9-1.1-1.8-2.3-2.7-3.4c-0.9-1.1-1.7-2.2-2.5-3.2C167.7,32.5,173.4,29.8,179.4,27.8z M164.8,39c0.9,1.1,1.8,2.2,2.7,3.4
	c-4.9,3-9.3,6.5-13,10.3c-1.2-0.9-2.3-1.8-3.4-2.7c-1.2-0.9-2.3-1.8-3.4-2.6c4.2-4.3,9.2-8.3,14.6-11.6
	C163,36.8,163.9,37.9,164.8,39z M150.9,50.1c1.1,0.9,2.3,1.8,3.4,2.7c-3.7,3.9-6.8,8.1-9.1,12.4c-1.3-0.7-2.7-1.3-4-2
	c-1.4-0.6-2.7-1.2-4-1.8c2.5-4.9,6-9.6,10.3-14C148.6,48.4,149.7,49.2,150.9,50.1z M141.1,63.5c1.3,0.6,2.6,1.3,4,1.9
	c-1.5,2.9-2.6,5.8-3.2,8.8c-0.3,1.4-0.5,2.7-0.7,4.1c-1.5-0.4-2.9-0.9-4.4-1.2c-0.6-0.2-1.2-0.3-1.8-0.4c-0.8-0.2-1.6-0.3-2.3-0.5
	c0.1-1.5,0.4-3,0.7-4.5c0.8-3.4,2-6.7,3.7-9.9C138.4,62.2,139.8,62.8,141.1,63.5z M135,76.8c0.6,0.1,1.2,0.3,1.8,0.4
	c1.5,0.4,2.9,0.8,4.4,1.2c-0.1,1-0.1,2-0.1,3c0,2.9,0.7,5.8,1.9,8.5c-1.5-0.2-3-0.4-4.5-0.5c-1.3-0.1-2.6-0.2-3.9-0.2
	c-1.3-3-2.1-6.3-2.1-9.6c0-1.1,0.1-2.3,0.2-3.4C133.4,76.5,134.2,76.6,135,76.8z M138.5,89.7c1.5,0.1,3,0.3,4.6,0.6
	c1.5,3.3,3.9,6.3,6.9,8.6c-1.3,0-2.6,0-3.9,0c-1.2,0.1-2.4,0.2-3.5,0.3c-3.4-2.6-6.1-6-7.9-9.8C136,89.5,137.2,89.6,138.5,89.7z
	 M146.1,99.1c1.3-0.1,2.7-0.1,4.1,0c1.2,0.9,2.5,1.7,3.8,2.3c1.8,0.9,3.8,1.5,5.9,2c0.5,0.1,1,0.2,1.5,0.3c-0.9,0.1-1.8,0.2-2.7,0.3
	c-1,0.2-1.9,0.4-2.8,0.7c-0.8-0.1-1.6-0.3-2.4-0.5c-2.4-0.5-4.6-1.3-6.7-2.3c-1.5-0.7-2.8-1.5-4.1-2.5
	C143.9,99.3,145,99.2,146.1,99.1z M146.8,102c2.1,1,4.3,1.7,6.7,2.3c0.7,0.2,1.4,0.3,2.1,0.4c-1.6,0.5-3.2,1.2-4.6,2.1
	c-0.9-0.2-1.9-0.3-2.8-0.5c-2.6-0.6-5.1-1.5-7.5-2.5c-1.6-0.8-3.1-1.7-4.5-2.7c2-0.7,4.1-1.2,6.3-1.5
	C143.9,100.5,145.3,101.3,146.8,102z M156,104.8c5.2,0.9,10.8,0.8,16.5-0.1c-0.9,0.5-1.7,1.1-2.5,1.9c-6.5,1.1-12.9,1.2-18.7,0.3
	C152.8,106,154.3,105.3,156,104.8z M169.9,106.8c-0.8,0.9-1.5,1.9-2,3.1c-7.1,1.2-14.2,1.3-20.6,0.2c1.1-1.2,2.4-2.2,3.9-3.1
	C157,108,163.4,107.9,169.9,106.8z M170.2,106.7c2.3-0.4,4.5-0.9,6.8-1.5c0.1,0,0.1,0,0.2,0c0.1,0,0.1,0,0.2,0c1.3,0.3,2.6,0.6,4,1
	c0,0,0.1,0,0.1,0.1c-0.9,0.3-1.8,0.6-2.7,0.9c-3.5,1.1-7.1,1.9-10.6,2.5C168.7,108.7,169.4,107.6,170.2,106.7z M190.6,108.3
	c0.3,0,0.6,0,0.9,0c0.1,0.2,0.2,0.5,0.3,0.7C191.4,108.8,191,108.6,190.6,108.3z M190.4,108.1c-0.3-0.2-0.5-0.4-0.7-0.5
	c0.4-0.2,0.9-0.4,1.3-0.6c0.1,0,0.1,0.1,0.2,0.1c0.1,0.3,0.2,0.7,0.4,1C191.1,108.1,190.8,108.1,190.4,108.1z M191.4,107.2
	c0.6,0.3,1.1,0.6,1.7,0.9c-0.5,0-0.9,0-1.4,0C191.6,107.8,191.5,107.5,191.4,107.2z M191.3,107c0,0,0-0.1,0-0.1
	c0.3-0.1,0.6-0.3,1-0.4c1.2,0.4,2.3,0.9,3.5,1.4c-0.8,0.1-1.5,0.2-2.3,0.3C192.7,107.7,192,107.3,191.3,107z M196.1,107.9
	c0.7,0.3,1.3,0.6,2,0.9c0,0.1,0,0.2,0.1,0.2c-0.5,0.2-1,0.5-1.4,0.7c-1-0.5-2-1-3-1.6C194.5,108.1,195.3,108,196.1,107.9z
	 M198.2,109.2c0.2,0.6,0.5,1.2,0.8,1.8c-0.7-0.4-1.4-0.8-2.1-1.2C197.4,109.7,197.8,109.4,198.2,109.2z M202.2,110.5
	c-1.1-0.6-2.3-1.1-3.4-1.6c0.6-0.3,1.3-0.7,1.9-1c1.7,1.1,3.4,2.2,5.1,3.3c-0.6,0.1-1.2,0.2-1.8,0.2
	C203.4,111.1,202.8,110.8,202.2,110.5z M200.9,107.8c1.5-0.8,2.9-1.6,4.3-2.5c0.1,0,0.1,0,0.2-0.1c1.7,1.3,3.5,2.7,5.3,4.1
	c-0.6,0.4-1.3,0.8-1.9,1.2c-0.1,0-0.2,0.1-0.3,0.1c-0.8,0.2-1.6,0.4-2.3,0.6C204.3,110,202.6,108.9,200.9,107.8z M208.1,110.9
	c-0.4,0.3-0.9,0.5-1.3,0.7c-0.2-0.1-0.3-0.2-0.5-0.3C206.9,111.2,207.5,111.1,208.1,110.9z M208.8,110.7c0.8-0.3,1.6-0.6,2.4-0.9
	c0.3,0.2,0.6,0.5,0.9,0.7c-0.4,0.8-0.7,1.7-0.9,2.5c-0.1,0.5-0.2,1-0.2,1.5c-1.4-0.9-2.7-1.8-4.1-2.7
	C207.6,111.4,208.2,111,208.8,110.7z M211.4,113c0.2-0.8,0.5-1.6,0.9-2.4c1.5,1.2,3.1,2.4,4.6,3.7c-1.1,0.7-2.1,1.3-3.2,2
	c-0.8-0.6-1.7-1.1-2.5-1.7C211.2,114.1,211.3,113.6,211.4,113z M217.1,114.4c0.3,0.3,0.6,0.5,1,0.8c-0.5,0.2-1.1,0.4-1.6,0.6
	c-0.8,0.2-1.5,0.4-2.3,0.5C215.1,115.7,216.1,115.1,217.1,114.4z M217.2,114.3c0.4-0.2,0.7-0.5,1.1-0.7c0.4,0.3,0.8,0.6,1.2,1
	c-0.4,0.2-0.9,0.4-1.3,0.5C217.9,114.9,217.6,114.6,217.2,114.3z M219.7,114.7c1.8,1.4,3.6,2.9,5.5,4.4c-0.4,0.3-0.7,0.5-1.1,0.7
	c-1.9-1.6-3.8-3.1-5.7-4.6C218.8,115.1,219.3,114.9,219.7,114.7z M225.3,119.3c0.2,0.1,0.3,0.3,0.5,0.4c-0.2,0.4-0.5,0.7-0.7,1.1
	c-0.3-0.3-0.6-0.5-0.9-0.8C224.6,119.8,225,119.5,225.3,119.3z M225.5,119.2c0.5-0.4,1-0.7,1.5-1.1c-0.4,0.5-0.8,0.9-1.1,1.4
	C225.8,119.4,225.6,119.3,225.5,119.2z M227.1,117.8c-1.6-1.5-3.1-3-4.7-4.5c1.2-0.7,2.3-1.5,3.4-2.3c1.3,1.5,2.7,3.1,4.1,4.7
	c-0.7,0.4-1.3,0.9-1.9,1.4C227.7,117.4,227.4,117.6,227.1,117.8z M230.3,115.7C230.3,115.7,230.3,115.7,230.3,115.7
	c1-0.6,2.1-1.1,3.3-1.5c0.4,0.5,0.8,1,1.2,1.6c-0.7,0.8-1.5,1.6-2.4,2.3C231.7,117.3,231,116.5,230.3,115.7z M234.2,112.6
	c0,0,0.1-0.1,0.2-0.1c0.2,0.3,0.3,0.5,0.5,0.8C234.7,113.1,234.5,112.9,234.2,112.6z M234.1,112.5c-1.7-1.7-3.2-3.3-4.8-4.8
	c0.4-0.5,0.8-1,1.2-1.5c1.2,2,2.5,4.1,3.8,6.2C234.2,112.4,234.2,112.5,234.1,112.5z M230.6,106c0.3-0.5,0.6-0.9,0.9-1.4
	c1.3,2.2,2.7,4.4,4.1,6.6c-0.4,0.3-0.8,0.7-1.2,1C233.1,110.1,231.8,108,230.6,106z M230.5,105.8c-0.2-0.3-0.4-0.6-0.5-0.9
	c0.4-0.3,0.8-0.6,1.1-1c0.1,0.2,0.2,0.3,0.3,0.5C231.1,104.9,230.8,105.3,230.5,105.8z M231.2,103.8c0.3-0.3,0.6-0.5,0.9-0.8
	c-0.2,0.4-0.4,0.8-0.6,1.2C231.4,104.1,231.3,103.9,231.2,103.8z M231.1,103.6c-0.6-1-1.2-2-1.8-3.1c0.6,0.1,1.2,0.2,1.8,0.3
	c0.6,0.1,1.2,0.3,1.7,0.5c-0.1,0.4-0.3,0.8-0.5,1.2C231.9,102.9,231.5,103.3,231.1,103.6z M233,101.5c0.1,0.1,0.3,0.1,0.4,0.2
	c-0.2,0.2-0.5,0.4-0.7,0.6C232.8,102,232.9,101.7,233,101.5z M233.6,101.3c-0.1-0.3-0.2-0.6-0.4-0.8c0-0.2,0.1-0.3,0.1-0.5
	c0.2-1,0.3-2,0.3-3c0.4,1,0.9,2,1.3,3.1C234.6,100.5,234.1,100.9,233.6,101.3C233.6,101.4,233.6,101.4,233.6,101.3z M229.9,90.3
	c0.2-0.7,0.3-1.5,0.3-2.2c0.5,1.2,0.9,2.5,1.4,3.7C231.1,91.2,230.5,90.7,229.9,90.3z M229.7,90.2c-0.2-0.1-0.4-0.3-0.6-0.4
	c-0.1-0.2-0.2-0.5-0.2-0.7c-0.2-0.8-0.5-1.5-0.7-2.2c0.4-0.4,0.7-0.8,1.1-1.2c0.2,0.6,0.5,1.3,0.7,2C230,88.4,229.9,89.3,229.7,90.2
	z M229.5,85.5c0.1-0.1,0.3-0.3,0.4-0.4c0.1,0.4,0.1,0.8,0.2,1.2c0,0.3,0,0.5,0,0.8C229.8,86.5,229.7,86,229.5,85.5z M229.3,82.2
	c-0.3-1.3-0.6-2.5-0.9-3.7c1-1.3,2-2.6,3-3.9c1.2,0.4,2.5,0.8,3.8,1.4c0.4,0.2,0.9,0.4,1.3,0.6c-1.9,2.7-4,5.3-6.2,7.8
	c-0.1,0.1-0.2,0.2-0.3,0.3C229.8,83.8,229.5,83,229.3,82.2z M235.3,75.8c-1.3-0.6-2.6-1-3.8-1.4c4.6-6.5,8-13.3,9.9-20.1
	c1.4-0.1,2.9,0,4.4,0.2c0.5,0.1,1,0.2,1.4,0.2c-2,7.3-5.7,14.6-10.7,21.6C236.2,76.2,235.7,76,235.3,75.8z M246.9,34.2
	c-1.5,0.2-3,0.5-4.4,0.9c-1.2-5.5-4-10.7-7.9-15c1.3-0.8,2.7-1.4,4.1-1.9c0.3-0.1,0.7-0.2,1-0.3c4.2,4.6,7.3,10.1,8.6,16.1
	C247.8,34.1,247.4,34.1,246.9,34.2z M242.3,35.1c-1.8,0.6-3.4,1.3-5,2.3c-1.1-5.1-3.6-9.8-7.1-13.8c1.3-1.3,2.7-2.5,4.3-3.4
	C238.3,24.5,241.1,29.6,242.3,35.1z M230,23.5c-3.2-3.5-7.2-6.4-11.8-8.3c-0.6-0.2-1.2-0.5-1.8-0.7c0.9-1.5,1.9-2.9,3.1-4
	c0.7,0.2,1.4,0.5,2.1,0.8c4.9,2,9.2,5,12.7,8.8C232.8,21,231.3,22.2,230,23.5z M216.2,14.5c-1.4-0.5-2.8-0.9-4.2-1.2
	c-4.6-1.1-9.5-1.5-14.6-1.3c0.3-1.3,0.7-2.5,1.2-3.5c0.9-0.2,1.9-0.4,2.8-0.6c4.7,0,9.3,0.4,13.6,1.4c1.5,0.3,2.9,0.8,4.3,1.2
	C218.1,11.6,217.1,12.9,216.2,14.5z M197.1,12.2c-0.4,1.6-0.6,3.5-0.6,5.4c-6.3,0.2-12.9,1.5-19.3,3.6c-0.6-1.8-1-3.5-1.2-5
	c0.1-0.1,0.2-0.1,0.3-0.1C183.1,13.8,190.2,12.4,197.1,12.2z M158.7,25.1c-0.3-0.3-0.7-0.6-1-0.9c5.3-3,10.9-5.6,16.8-7.6
	C169,19.1,163.7,21.9,158.7,25.1z M158.5,25.2c-0.9,0.6-1.9,1.2-2.8,1.8c-0.3-0.4-0.5-0.8-0.8-1.1c0.9-0.5,1.7-1,2.6-1.5
	C157.8,24.6,158.2,24.9,158.5,25.2z M155.5,27.1c-6.2,4.1-12.1,8.7-17.5,13.7c-0.4-0.2-0.8-0.5-1.1-0.7c5.2-5.3,11.2-10,17.8-14.1
	C155,26.3,155.3,26.7,155.5,27.1z M155.6,27.2c0.6,0.9,1.4,1.9,2.1,2.9c-6.1,3.7-11.6,8.1-16.3,12.9c-1-0.7-1.9-1.3-2.8-1.9
	c-0.2-0.1-0.3-0.2-0.5-0.3C143.6,35.9,149.4,31.3,155.6,27.2z M157.9,30.3c1.2,1.6,2.6,3.4,4.2,5.4c-5.5,3.4-10.4,7.3-14.7,11.6
	c-2-1.5-3.9-2.9-5.7-4.1C146.4,38.3,151.9,34,157.9,30.3z M147.3,47.4c-4.2,4.3-7.7,9.1-10.3,14c-2.4-1-4.7-1.9-6.9-2.6
	c2.8-5.5,6.7-10.7,11.4-15.5C143.3,44.5,145.3,45.9,147.3,47.4z M136.9,61.6c-1.7,3.3-2.9,6.6-3.7,10c-0.3,1.5-0.6,3-0.7,4.5
	c-2.6-0.5-5.1-0.8-7.4-1c0.2-1.7,0.4-3.3,0.8-5c0.9-3.8,2.3-7.5,4.2-11.2C132.2,59.7,134.5,60.5,136.9,61.6z M132.5,76.3
	c-0.1,1.1-0.2,2.3-0.2,3.4c0,3.3,0.8,6.6,2.1,9.6c-2.5,0-4.9,0.1-7.2,0.4c-1.5-3.4-2.3-7-2.4-10.7c0-1.2,0.1-2.5,0.2-3.7
	C127.4,75.4,129.9,75.8,132.5,76.3z M134.5,89.5c1.7,3.8,4.4,7.2,7.8,9.8c-2.2,0.3-4.3,0.9-6.3,1.6c-3.8-2.9-6.9-6.7-8.8-10.9
	C129.6,89.6,132,89.4,134.5,89.5z M135.9,100.9c-1.9,0.7-3.7,1.5-5.3,2.5c-4.2-3.2-7.5-7.4-9.6-12.1c1.9-0.6,3.9-1.1,6.1-1.4
	C129,94.2,132,98,135.9,100.9z M136,101.1c1.5,1.1,3,2,4.7,2.8c2.3,1.1,4.9,1.9,7.5,2.6c0.9,0.2,1.7,0.4,2.6,0.5
	c-1.4,0.9-2.7,1.9-3.8,3.1c-1-0.2-1.9-0.3-2.9-0.6c-2.9-0.7-5.7-1.6-8.3-2.8c-1.8-0.9-3.5-1.9-5.1-3.1
	C132.4,102.6,134.1,101.8,136,101.1z M135.7,106.8c2.6,1.2,5.4,2.2,8.3,2.8c0.9,0.2,1.8,0.4,2.8,0.5c-1.2,1.2-2.1,2.6-2.9,4.1
	c-0.9-0.2-1.9-0.3-2.8-0.6c-3.2-0.7-6.3-1.8-9.1-3.1c-2-1-3.9-2.1-5.7-3.5c1.2-1.3,2.6-2.4,4.2-3.5
	C132.2,104.9,133.9,106,135.7,106.8z M147.1,110.3c6.5,1.1,13.5,1,20.7-0.2c-0.4,0.9-0.7,1.8-0.9,2.7c-0.1,0.5-0.2,1-0.3,1.5
	c-7.8,1.2-15.5,1.3-22.5,0.1C144.9,112.9,145.9,111.5,147.1,110.3z M166.7,118.3c-0.1-1.3,0-2.6,0.1-3.9c4-0.6,8.1-1.6,12.1-2.8
	c3-0.9,6-2,8.9-3.2c0.4,0.2,0.9,0.3,1.3,0.5c1.1,0.5,2.2,1,3.4,1.4c0,0,0,0,0,0c0.2,0.4,0.4,0.8,0.6,1.2c-4.3,1.9-8.7,3.6-13.1,5
	c-4.3,1.3-8.7,2.3-13.1,3C166.7,119.1,166.7,118.7,166.7,118.3z M192.7,110.4c0.5,0.2,0.9,0.4,1.4,0.6c-0.3,0.1-0.6,0.3-0.9,0.4
	C193,111.1,192.8,110.8,192.7,110.4z M193.3,110.5c0.2,0.1,0.4,0.2,0.6,0.2c0.2,0.1,0.3,0.1,0.5,0.2c0,0,0,0,0,0
	C194,110.8,193.6,110.6,193.3,110.5z M194,110.6c-0.5-0.2-1-0.4-1.5-0.6c-0.1-0.2-0.1-0.3-0.2-0.5c0.9,0.4,1.8,0.8,2.7,1.1
	c-0.1,0.1-0.3,0.1-0.4,0.2C194.4,110.7,194.2,110.6,194,110.6z M192.1,109.2c-0.1-0.3-0.2-0.6-0.4-0.9c0.5,0,1.1,0,1.6-0.1
	c1,0.5,2.1,1.1,3.1,1.6c-0.4,0.2-0.9,0.4-1.3,0.6C194.1,110.1,193.1,109.7,192.1,109.2z M196.7,110c0.9,0.4,1.7,0.9,2.6,1.4
	c0,0,0,0,0,0c-0.8-0.1-1.6-0.2-2.3-0.4c-0.5-0.1-1-0.3-1.5-0.4C195.9,110.4,196.3,110.2,196.7,110z M199.8,111.6
	c1.2,0.6,2.3,1.3,3.5,1.9c-0.3,0.2-0.6,0.3-0.9,0.5C201.4,113.3,200.4,112.5,199.8,111.6C199.7,111.6,199.8,111.6,199.8,111.6z
	 M200.2,111.6c1.2,0.1,2.5,0.1,3.8,0c0.5,0.2,1,0.5,1.4,0.7c-0.6,0.4-1.3,0.7-1.9,1.1C202.4,112.8,201.3,112.2,200.2,111.6z
	 M204.3,111.6c0.6-0.1,1.1-0.1,1.7-0.2c0.2,0.1,0.4,0.2,0.6,0.4c-0.3,0.2-0.6,0.4-1,0.5C205.2,112,204.8,111.8,204.3,111.6z
	 M206.8,111.9c1.4,0.9,2.8,1.9,4.2,2.8c0,0.2,0,0.4,0,0.6c-1.7-1-3.4-1.9-5.1-2.8C206.1,112.2,206.4,112,206.8,111.9z M216.5,115.9
	c0.6-0.2,1.2-0.4,1.7-0.6c1.9,1.5,3.8,3.1,5.7,4.7c-0.8,0.6-1.7,1.1-2.5,1.6c-2.5-1.8-4.9-3.5-7.4-5.2
	C214.8,116.4,215.6,116.2,216.5,115.9z M225.2,121.1c0.3,0.2,0.5,0.4,0.8,0.6c-0.3,0.1-0.6,0.2-0.8,0.3c-0.1,0-0.2,0.1-0.3,0.1
	C224.9,121.7,225.1,121.4,225.2,121.1z M225.3,120.9c0.2-0.4,0.4-0.8,0.6-1.1c0.5,0.4,1.1,0.9,1.6,1.3c-0.4,0.2-0.9,0.4-1.3,0.5
	C225.9,121.4,225.6,121.1,225.3,120.9z M226,119.6c0.3-0.5,0.7-1,1.2-1.4c0.7,0.7,1.4,1.4,2.1,2c-0.5,0.3-1.1,0.6-1.6,0.8
	C227.2,120.6,226.6,120.1,226,119.6z M232.6,118.2c0.9-0.7,1.7-1.5,2.4-2.3c1.3,1.7,2.5,3.4,3.8,5c-0.7,0.6-1.5,1.1-2.2,1.7
	C235.2,121.2,233.9,119.7,232.6,118.2z M235.1,115.8c0.3-0.3,0.6-0.7,0.8-1c1.2,1.8,2.4,3.7,3.7,5.6c-0.2,0.2-0.5,0.4-0.7,0.5
	C237.6,119.2,236.3,117.5,235.1,115.8z M236.1,114.8c1.5,1.5,3,3.1,4.6,4.7c-0.3,0.3-0.6,0.5-0.9,0.8
	C238.5,118.4,237.3,116.6,236.1,114.8z M235.6,114c0,0-0.1-0.1-0.1-0.2c0.3,0,0.5,0,0.8,0c-0.1,0.2-0.2,0.4-0.4,0.5
	C235.8,114.2,235.7,114.1,235.6,114z M235.4,113.7c-0.3-0.4-0.5-0.8-0.8-1.3c0.4-0.3,0.8-0.6,1.2-1c0.3,0.5,0.7,1.1,1,1.6
	c-0.1,0.2-0.2,0.4-0.4,0.6C236,113.6,235.7,113.6,235.4,113.7z M236.9,113.2c0.1,0.1,0.2,0.3,0.3,0.4c-0.2,0-0.3,0-0.5,0
	C236.7,113.5,236.8,113.3,236.9,113.2z M237,113c0.4-0.8,0.7-1.5,0.9-2.3c0.6,1.2,1.2,2.3,1.8,3.5c-0.3-0.1-0.7-0.2-1-0.3
	c-0.4-0.1-0.9-0.2-1.3-0.2C237.2,113.4,237.1,113.2,237,113z M236.8,112.8c-0.3-0.5-0.6-1-1-1.5c0.5-0.5,1.1-0.9,1.6-1.4
	c0.1,0.2,0.2,0.3,0.3,0.5C237.6,111.2,237.2,112,236.8,112.8z M235.8,111.1c-1.4-2.2-2.8-4.5-4.2-6.7c0.3-0.6,0.6-1.2,0.9-1.7
	c0.4-0.3,0.7-0.6,1.1-1c1.2,2.6,2.5,5.3,3.8,8C236.9,110.2,236.3,110.7,235.8,111.1z M235.4,105.2c0.7,1.4,1.5,2.8,2.3,4.3
	c0,0-0.1,0.1-0.1,0.1C236.8,108.1,236.1,106.7,235.4,105.2z M233.7,101.6c0.5-0.4,0.9-0.9,1.4-1.3c0.5,1.1,1,2.3,1.6,3.5
	C235.9,102.9,234.9,102.2,233.7,101.6C233.8,101.6,233.8,101.6,233.7,101.6z M233.7,96.5c0-0.1,0-0.3,0-0.4c0.5,1.3,1,2.5,1.5,3.8
	C234.7,98.7,234.2,97.6,233.7,96.5z M232.1,92.4c0-0.1,0.1-0.1,0.2-0.2c0.1,0.3,0.2,0.5,0.3,0.8C232.4,92.8,232.2,92.6,232.1,92.4z
	 M232,92.2c-0.6-1.6-1.2-3.1-1.7-4.6c0-0.4,0-0.9,0-1.3c0-0.1,0-0.3,0-0.4c0.6,2,1.3,4.1,2,6.2C232.1,92.1,232,92.1,232,92.2z
	 M230.1,84.8c0.1-0.1,0.2-0.3,0.4-0.4c2.3-2.5,4.3-5.1,6.2-7.8c1.9,0.9,3.9,1.9,5.9,3.1c-2,2.9-4.2,5.6-6.6,8.4
	c-1.2,1.3-2.4,2.6-3.6,3.8C231.5,89.5,230.8,87.1,230.1,84.8z M236.8,76.4c5-7,8.6-14.3,10.7-21.7c0.9,0.2,1.8,0.3,2.7,0.5
	c1.3,0.3,2.6,0.6,3.9,1c-2.2,7.8-6.1,15.7-11.3,23.2C240.7,78.4,238.7,77.3,236.8,76.4z M248.5,34.1c-1.4-6-4.4-11.5-8.6-16.1
	c1.8-0.5,3.8-0.8,5.8-0.9c4.6,4.9,7.8,10.9,9.3,17.2C252.8,34,250.6,33.9,248.5,34.1z M239.7,17.8c-3.7-4-8.4-7.3-13.7-9.4
	c-0.7-0.3-1.5-0.5-2.2-0.8c1.5-0.7,3.1-1.1,4.8-1.4c0.8,0.3,1.6,0.6,2.4,0.9c5.6,2.2,10.5,5.6,14.5,9.8
	C243.5,17,241.6,17.3,239.7,17.8z M225.9,8.5c5.2,2.1,9.9,5.3,13.6,9.3c-0.3,0.1-0.6,0.2-0.9,0.3c-1.5,0.5-2.8,1.1-4.1,1.9
	c-3.5-3.8-7.8-6.9-12.8-8.8c-0.7-0.3-1.4-0.5-2.1-0.7c0.9-0.8,1.8-1.6,2.9-2.2c0.3-0.2,0.7-0.4,1.1-0.5
	C224.4,7.9,225.2,8.2,225.9,8.5z M222.4,8.1c-1.1,0.6-2.1,1.4-3,2.2c-1.4-0.5-2.9-0.9-4.4-1.3c-4.1-0.9-8.3-1.4-12.8-1.4
	c4.5-0.9,9-1.6,13.5-1.9c1.1,0.2,2.1,0.4,3.2,0.6c1.5,0.4,3,0.8,4.5,1.2C223,7.7,222.7,7.9,222.4,8.1z M201.3,7.6
	c-0.8,0-1.6,0-2.4,0.1c0.5-0.8,1.1-1.6,1.7-2.2c0.2-0.2,0.4-0.4,0.7-0.6c4.7-0.2,9.2,0,13.6,0.7C210.4,6,205.9,6.7,201.3,7.6z
	 M200.5,7.8c-0.6,0.1-1.2,0.3-1.8,0.4c0.1-0.1,0.1-0.2,0.2-0.4C199.4,7.8,199.9,7.8,200.5,7.8z M198.4,8.3c-3.3,0.8-6.5,1.7-9.7,2.7
	c-1-0.6-2-1.1-3-1.5c4.4-0.9,8.7-1.5,13-1.6C198.5,8,198.5,8.1,198.4,8.3z M185,9.5c-2,0.4-3.9,0.9-5.9,1.5c1.7-0.6,3.3-1.2,5-1.8
	C184.4,9.2,184.7,9.3,185,9.5z M185.4,9.6c1,0.4,2.1,0.9,3.1,1.5c-4.2,1.4-8.3,3-12.3,4.8c-0.1,0-0.2,0-0.3,0.1
	c-0.2-1.3-0.3-2.6-0.2-3.7c0.4-0.2,0.7-0.3,1.1-0.5C179.6,10.9,182.5,10.2,185.4,9.6z M175.6,16c-6.3,2.1-12.4,4.8-18.1,8.1
	c-0.7-0.6-1.3-1.1-1.9-1.5c6.3-3.9,13-7.4,19.9-10.2C175.4,13.5,175.4,14.7,175.6,16z M157.4,24.2c-0.9,0.5-1.7,1-2.5,1.5
	c-0.4-0.7-0.8-1.3-1.2-1.9c0.6-0.4,1.2-0.8,1.8-1.2C156,23.1,156.7,23.6,157.4,24.2z M154.6,25.8c-6.7,4.1-12.7,8.9-17.9,14.2
	c-0.8-0.5-1.5-0.8-2.2-1.2c5.8-5.5,12.1-10.5,18.9-14.9C153.8,24.5,154.2,25.1,154.6,25.8z M136.6,40.1c-1.5,1.5-2.9,3-4.2,4.6
	c-0.5-0.9-0.9-1.8-1.3-2.6c1.1-1.1,2.2-2.2,3.3-3.2C135.1,39.3,135.8,39.7,136.6,40.1z M136.8,40.2c0.4,0.2,0.7,0.4,1.1,0.7
	c-1.7,1.6-3.3,3.1-4.9,4.8c-0.2-0.3-0.3-0.5-0.5-0.7C133.9,43.3,135.3,41.7,136.8,40.2z M132.9,45.8c-0.9,0.9-1.8,1.9-2.7,2.9
	c-0.9,1-1.8,2.1-2.7,3.1c1.5-2.3,3.1-4.5,5-6.7C132.6,45.3,132.7,45.5,132.9,45.8z M125.9,57.8c1.2,0.3,2.6,0.7,3.9,1.1
	c-1.9,3.7-3.3,7.4-4.2,11.2c-0.4,1.7-0.7,3.3-0.8,5c-2.2-0.1-4.3-0.1-6.2,0.1c0.2-1.8,0.5-3.6,0.9-5.3c1-4.2,2.5-8.3,4.6-12.4
	C124.7,57.5,125.3,57.6,125.9,57.8z M124.8,75.3c-0.1,1.2-0.2,2.5-0.2,3.7c0,3.7,0.9,7.4,2.4,10.8c-2.2,0.3-4.2,0.8-6.1,1.4
	c-1.6-3.7-2.5-7.7-2.5-11.8c0-1.4,0.1-2.7,0.2-4.1C120.5,75.1,122.6,75.1,124.8,75.3z M118.2,79.5c0,4.1,0.9,8.1,2.5,11.8
	c-1.8,0.6-3.5,1.4-4.9,2.3c-1.7-4-2.6-8.3-2.6-12.6c0-1.5,0.1-3,0.3-4.6c1.5-0.5,3.2-0.9,5-1.1C118.3,76.7,118.2,78.1,118.2,79.5z
	 M120.8,91.5c2.1,4.7,5.4,8.9,9.6,12.1c-1.6,1-3,2.2-4.2,3.5c-4.6-3.5-8.1-8.1-10.3-13.3C117.3,92.9,119,92.1,120.8,91.5z
	 M126.1,107.2c-1,1-1.8,2.2-2.5,3.4c-0.2,0.3-0.4,0.7-0.5,1c-4.9-3.8-8.7-8.8-11-14.4c0.2-0.2,0.4-0.5,0.6-0.7
	c0.9-1,1.9-1.8,3.1-2.6C117.9,99.1,121.5,103.7,126.1,107.2z M123.8,110.7c0.7-1.2,1.5-2.3,2.4-3.3c1.8,1.3,3.7,2.5,5.7,3.5
	c2.8,1.4,5.9,2.4,9.2,3.1c0.9,0.2,1.8,0.4,2.7,0.5c-0.6,1.2-1.1,2.5-1.4,3.8c0,0.1-0.1,0.3-0.1,0.4c-0.1,0.3-0.1,0.6-0.2,0.9
	c-0.9-0.2-1.8-0.3-2.7-0.5c-3.5-0.8-6.9-2-9.9-3.4c-2.2-1.1-4.3-2.4-6.2-3.8C123.4,111.4,123.6,111,123.8,110.7z M142.3,119.8
	c7.6,1.3,15.9,1.3,24.3,0c0.2,1.9,0.6,3.9,1.1,6c-9,1.4-17.9,1.4-25.9,0C141.8,123.6,142,121.7,142.3,119.8z M166.8,119.7
	c4.4-0.7,8.8-1.7,13.1-3c4.5-1.4,8.9-3.1,13.1-5c0.9,1.8,1.9,3.6,2.9,5.5c-4.6,2.1-9.2,3.8-14,5.3c-4.7,1.4-9.4,2.5-14.1,3.2
	C167.4,123.6,167,121.6,166.8,119.7z M193.3,111.6c0.4-0.2,0.7-0.3,1-0.5c2.4,1.1,4.8,2.2,7.1,3.4c-1.7,0.9-3.5,1.7-5.3,2.5
	C195.1,115.2,194.1,113.4,193.3,111.6z M194.5,111C194.5,111,194.6,111,194.5,111c2.5,1,4.9,2.1,7.4,3.2c-0.1,0-0.2,0.1-0.3,0.1
	C199.3,113.2,196.9,112.1,194.5,111z M194.8,110.9c0.2-0.1,0.3-0.1,0.5-0.2c0.6,0.2,1.1,0.3,1.7,0.5c0.8,0.2,1.7,0.3,2.5,0.4
	c0.7,1,1.7,1.8,2.8,2.5c0,0-0.1,0-0.1,0.1C199.7,113,197.2,111.9,194.8,110.9z M202.4,114.2c0.2,0.1,0.4,0.2,0.6,0.3
	C202.8,114.5,202.6,114.4,202.4,114.2C202.4,114.3,202.4,114.2,202.4,114.2z M203.5,113.7c1.4,0.8,2.9,1.6,4.3,2.5
	c-0.2,0-0.3-0.1-0.5-0.1c-1.7-0.4-3.4-1.1-4.7-1.9C202.9,114,203.2,113.8,203.5,113.7z M203.7,113.6c0.7-0.4,1.3-0.7,1.9-1.1
	c1.8,0.9,3.5,1.9,5.3,2.9c0,0.1,0,0.1,0,0.2c0,0.3,0.1,0.6,0.1,0.9c-0.9,0-1.8-0.1-2.7-0.2C206.8,115.3,205.2,114.4,203.7,113.6z
	 M211.3,116.7c0.5,0,1.1,0,1.6-0.1c0,0,0.1,0,0.1,0.1c-0.5,0.3-1,0.6-1.5,0.8C211.5,117.3,211.4,117,211.3,116.7z M213.7,116.5
	c1.4,1,2.8,1.9,4.2,2.9c-1.5-0.9-3-1.9-4.5-2.7C213.5,116.6,213.6,116.6,213.7,116.5z M221.6,122c0.2,0.2,0.4,0.3,0.7,0.5
	c-0.6,0-1.3,0-1.9,0c0.3-0.2,0.7-0.4,1-0.6C221.4,121.9,221.5,122,221.6,122z M224.5,123.8c0-0.3,0.1-0.7,0.2-1
	c0-0.2,0.1-0.3,0.1-0.5c0.1,0,0.3-0.1,0.5-0.1c0.3-0.1,0.6-0.2,0.9-0.3c1.8,1.5,3.5,2.9,5.3,4.4c-0.6,0.4-1.2,0.8-1.7,1.1
	C228,126.2,226.2,124.9,224.5,123.8z M229.6,127.5C229.5,127.5,229.5,127.6,229.6,127.5c-0.9-0.6-1.7-1.2-2.6-1.8
	C227.9,126.3,228.7,126.9,229.6,127.5z M226.4,121.8c0.4-0.2,0.9-0.3,1.3-0.5c1.6,1.4,3.3,2.8,4.9,4.2c-0.3,0.2-0.7,0.5-1,0.7
	C229.9,124.7,228.1,123.2,226.4,121.8z M227.9,121.2c0.5-0.2,1.1-0.5,1.6-0.8c1.5,1.4,2.9,2.8,4.4,4.3c-0.4,0.3-0.7,0.5-1.1,0.8
	C231.1,123.9,229.5,122.5,227.9,121.2z M229.6,120.3c0.9-0.5,1.8-1.1,2.7-1.8c1.3,1.5,2.6,2.9,3.9,4.4c-0.7,0.5-1.5,1.1-2.2,1.6
	C232.5,123.1,231.1,121.7,229.6,120.3z M236.6,122.8c0.7-0.6,1.5-1.1,2.2-1.7c0.9,1.2,1.8,2.3,2.7,3.5c-0.5,0.6-1.1,1.2-1.7,1.7
	C238.7,125.2,237.7,124,236.6,122.8z M239,121c0.2-0.2,0.5-0.3,0.7-0.5c0.8,1.1,1.6,2.3,2.4,3.4c-0.1,0.2-0.3,0.4-0.4,0.6
	C240.8,123.3,239.9,122.2,239,121z M239.8,120.4c0.4-0.3,0.7-0.6,1.1-0.9c0.7,1,1.3,2,2,3c-0.2,0.4-0.5,0.8-0.7,1.3
	C241.4,122.6,240.6,121.5,239.8,120.4z M240.8,119.3c-1.6-1.7-3.2-3.3-4.8-4.8c0.2-0.2,0.3-0.5,0.5-0.7c0.3,0,0.5,0,0.8,0
	C238.4,115.6,239.6,117.5,240.8,119.3C240.8,119.3,240.8,119.3,240.8,119.3z M237.5,113.8c0.4,0,0.8,0.1,1.2,0.2
	c0.4,0.1,0.8,0.2,1.2,0.4c0.7,1.3,1.4,2.6,2.2,3.9c-0.4,0.3-0.7,0.6-1.1,0.9C239.8,117.4,238.6,115.6,237.5,113.8z M237.9,110
	c0,0,0,0.1,0,0.1c-0.1-0.1-0.1-0.3-0.2-0.4c0,0,0.1-0.1,0.1-0.1c0,0.1,0.1,0.1,0.1,0.2C237.9,109.9,237.9,110,237.9,110z
	 M237.9,109.5C237.9,109.5,238,109.5,237.9,109.5C238,109.5,238,109.5,237.9,109.5C238,109.6,237.9,109.5,237.9,109.5z M237.8,109.3
	c-1.3-2.5-2.7-5-3.9-7.5c1.3,0.6,2.3,1.5,3.1,2.5c0.3,0.7,0.7,1.4,1,2.1c0.1,0.3,0.1,0.5,0.1,0.8c0,0.6,0,1.2-0.1,1.8
	C238,109.2,237.9,109.3,237.8,109.3z M238.3,107.3c0-0.1,0-0.1,0-0.2c0.2,0.4,0.4,0.8,0.6,1.2c-0.2,0.2-0.4,0.4-0.6,0.6
	C238.3,108.4,238.4,107.9,238.3,107.3z M233.2,94.4c0-0.1,0-0.1-0.1-0.2c-0.3-0.7-0.5-1.4-0.8-2.1c1.2-1.3,2.5-2.6,3.7-3.9
	c2.4-2.7,4.6-5.5,6.7-8.4c2.1,1.2,4.3,2.6,6.5,4c-2.1,3-4.5,6-7,8.9c-2.2,2.5-4.5,4.8-6.9,7.1C234.6,98,233.9,96.2,233.2,94.4z
	 M242.8,79.6c5.3-7.5,9.2-15.3,11.4-23.2c2.3,0.7,4.7,1.6,7.2,2.6c-2.3,8.3-6.4,16.6-12,24.6C247.2,82.2,245,80.8,242.8,79.6z
	 M261,35.3c-1.9-0.4-3.8-0.8-5.7-1c-1.5-6.4-4.7-12.4-9.3-17.3c2-0.1,4.2,0,6.3,0.3c4.9,5.2,8.4,11.5,10.1,18.3
	C261.9,35.5,261.4,35.4,261,35.3z M228.7,6c-0.5-0.2-1-0.3-1.5-0.5c1.3,0,2.6,0.1,3.9,0.3C230.2,5.8,229.4,5.9,228.7,6z M228.3,6.1
	c-1.7,0.3-3.3,0.7-4.7,1.4c-1.5-0.5-3.1-0.9-4.7-1.3c-0.8-0.2-1.6-0.3-2.4-0.5c3.3-0.2,6.7-0.3,9.9-0.2C227,5.7,227.6,5.9,228.3,6.1
	z M200.6,5.3c-0.7,0.7-1.3,1.5-1.8,2.4c-4.4,0.2-8.9,0.8-13.4,1.7c-0.3-0.1-0.6-0.2-0.9-0.3c0,0,0,0,0,0c5.5-1.8,11-3.2,16.5-4.1
	C200.8,5,200.7,5.2,200.6,5.3z M180.4,8.3c0.7,0,1.4,0.1,2.1,0.3c0.5,0.1,0.9,0.2,1.4,0.4c-2.4,0.8-4.8,1.7-7.2,2.6
	c-0.3,0.1-0.7,0.2-1,0.3c0-0.3,0.1-0.5,0.1-0.7c0.1-0.4,0.2-0.8,0.4-1.2c0.1-0.2,0.2-0.3,0.3-0.5c0.2-0.1,0.3-0.1,0.5-0.2
	C178.1,9,179.3,8.7,180.4,8.3z M155.4,22.5c-0.3-0.2-0.6-0.4-0.9-0.6c6.2-3.7,12.9-6.9,19.8-9.2C167.8,15.4,161.5,18.7,155.4,22.5z
	 M155.3,22.6c-0.6,0.4-1.2,0.7-1.8,1.1c-0.2-0.3-0.3-0.6-0.5-0.9c0.4-0.3,0.9-0.6,1.3-0.8C154.6,22.1,154.9,22.3,155.3,22.6z
	 M153.3,23.8c-6.8,4.4-13.2,9.4-18.9,14.9c-0.3-0.1-0.5-0.2-0.8-0.4c5.7-5.8,12.2-11,19.2-15.4C153,23.2,153.2,23.5,153.3,23.8z
	 M134.2,38.8c-1.1,1-2.1,2-3.1,3.1c-0.1-0.2-0.2-0.4-0.2-0.6c0.2-0.2,0.4-0.4,0.6-0.6c0.7-0.7,1.4-1.4,2-2.2
	C133.7,38.6,134,38.7,134.2,38.8z M131,42.1c-0.9,1-1.9,1.9-2.8,2.9c-1.2,1.3-2.4,2.7-3.5,4.1c1.8-2.6,3.9-5.2,6.1-7.7
	C130.8,41.7,130.9,41.9,131,42.1z M128.3,45.2c0.9-1,1.8-1.9,2.7-2.9c0.3,0.8,0.7,1.7,1.3,2.6c-2.2,2.6-4.2,5.3-5.9,8.1
	c-1.1,1.3-2.2,2.7-3.2,4.1c-1.2-0.2-2.3-0.2-3.4-0.2c1-1.9,2.2-3.8,3.4-5.7C124.9,49.1,126.6,47.1,128.3,45.2z M119.6,56.9
	c-0.2,0-0.4,0-0.6,0c0.9-1.4,1.9-2.7,2.9-4C121.1,54.3,120.3,55.6,119.6,56.9z M119.5,57.1c-2.2,4.1-3.8,8.2-4.9,12.4
	c-0.5-1.3-0.8-2.6-0.9-3.8c1.6-2.9,3.3-5.8,5.2-8.6C119,57.1,119.3,57.1,119.5,57.1z M119.7,57.1c1-0.1,2.2,0,3.4,0.2
	c-3.2,4.2-5.9,8.5-8.3,12.9c0-0.1-0.1-0.2-0.1-0.3C115.8,65.6,117.5,61.3,119.7,57.1z M114.7,70.4c-0.1,0.2-0.2,0.3-0.3,0.5
	c0.1-0.2,0.1-0.5,0.2-0.7C114.6,70.3,114.6,70.3,114.7,70.4z M123.3,57.3c0.2,0,0.4,0.1,0.6,0.1c-2.1,4-3.7,8.2-4.6,12.4
	c-0.4,1.8-0.7,3.6-0.9,5.4c-1.8,0.2-3.5,0.5-5,1.1c0.2-1.5,0.4-3,0.8-4.5C116.7,66.8,119.8,62,123.3,57.3z M113.2,76.3
	c-0.5,0.2-1,0.4-1.5,0.6c0.6-1.5,1.3-3,2.1-4.5C113.6,73.7,113.4,75,113.2,76.3z M111.9,97.4c2.4,5.6,6.2,10.6,11.1,14.4
	c-0.7,1.5-1.2,3-1.6,4.6c0,0.2-0.1,0.4-0.1,0.6c-5.2-4.1-9.2-9.5-11.8-15.5C110.1,100,110.9,98.6,111.9,97.4z M121.4,117.4
	c2,1.6,4.3,3,6.6,4.1c3.3,1.6,7,2.9,10.8,3.7c0.9,0.2,1.8,0.4,2.8,0.6c0,2.1,0.2,4.3,0.6,6.6c-0.9-0.2-1.8-0.3-2.7-0.6
	c-4.1-0.9-8-2.3-11.6-4c-2.5-1.2-4.9-2.7-7.1-4.5C120.9,121.3,121,119.3,121.4,117.4z M141.8,125.9c8.1,1.4,16.9,1.4,26,0
	c0.6,2.2,1.3,4.4,2.1,6.7c-9.6,1.4-19,1.4-27.5-0.1C142.1,130.2,141.9,128,141.8,125.9z M168,125.9c4.7-0.7,9.4-1.8,14.1-3.2
	c4.8-1.5,9.5-3.3,14-5.3c1.2,2,2.4,4.1,3.8,6.2c-4.8,2.2-9.8,4.1-14.9,5.6c-5,1.5-10,2.6-14.9,3.4C169.3,130.3,168.6,128,168,125.9z
	 M196.3,117.2c1.8-0.8,3.6-1.7,5.4-2.6c2.6,1.3,5.3,2.7,7.9,4.1c-3.1,1.7-6.2,3.3-9.4,4.7C198.7,121.3,197.4,119.2,196.3,117.2z
	 M201.9,114.5c0.1,0,0.2-0.1,0.3-0.2c2.6,1.3,5.3,2.6,8,4c-0.1,0.1-0.3,0.1-0.4,0.2C207.1,117.2,204.5,115.8,201.9,114.5z
	 M204.6,115.4c0.9,0.4,1.8,0.6,2.7,0.9c0.3,0.1,0.7,0.1,1,0.2c0.9,0.5,1.7,1,2.6,1.5c-0.2,0.1-0.4,0.2-0.6,0.3
	C208.4,117.3,206.5,116.3,204.6,115.4z M211.1,118.1c0.3,0.2,0.7,0.4,1,0.6c0.3,0.4,0.6,0.8,1,1.1c-0.9-0.5-1.7-0.9-2.6-1.4
	C210.7,118.3,210.9,118.2,211.1,118.1z M212.2,118.5c-0.2-0.3-0.4-0.5-0.5-0.8c0.5-0.3,1-0.6,1.6-0.9c2.6,1.6,5.2,3.2,7.9,5
	c-0.4,0.2-0.8,0.5-1.2,0.7c-0.6-0.1-1.2-0.1-1.7-0.3c0,0-0.1,0-0.1,0C216.2,120.9,214.2,119.7,212.2,118.5z M219.7,122.6
	c-0.1,0.1-0.3,0.2-0.4,0.3c-0.2-0.2-0.5-0.3-0.7-0.5C219,122.5,219.4,122.6,219.7,122.6z M220.1,122.7c0.8,0.1,1.6,0.1,2.4,0
	c0.6,0.4,1.2,0.8,1.8,1.3c0,0.2,0,0.4,0,0.7c0,0.7,0.2,1.3,0.6,1.9c-1.8-1.2-3.6-2.3-5.4-3.5C219.7,122.9,219.9,122.8,220.1,122.7z
	 M224.5,124.6c0-0.2,0-0.3,0-0.5c1.6,1.2,3.3,2.4,4.9,3.6c-0.5,0.3-0.9,0.6-1.4,0.9c-0.9-0.6-1.8-1.2-2.7-1.8
	C224.8,126.1,224.5,125.4,224.5,124.6z M229.5,127.8c0.8,0.6,1.6,1.2,2.4,1.8c-0.8,0-1.6-0.1-2.4-0.3c-0.3-0.1-0.5-0.1-0.7-0.2
	c-0.2-0.2-0.5-0.3-0.7-0.5C228.6,128.4,229.1,128.1,229.5,127.8z M229.7,127.7C229.7,127.7,229.7,127.7,229.7,127.7
	c0.9,0.6,1.8,1.2,2.7,1.9c-0.1,0-0.1,0-0.2,0C231.4,129,230.5,128.3,229.7,127.7z M229.9,127.5c0.6-0.4,1.1-0.8,1.7-1.1
	c1.1,0.9,2.1,1.8,3.2,2.7c-0.1,0-0.2,0.1-0.3,0.1c-0.6,0.2-1.2,0.3-1.8,0.3C231.8,128.9,230.8,128.2,229.9,127.5z M231.8,126.3
	c0.3-0.2,0.7-0.5,1-0.7c1.1,1,2.3,2,3.4,3c-0.4,0.2-0.8,0.3-1.2,0.4C233.9,128.1,232.9,127.2,231.8,126.3z M232.9,125.5
	c0.4-0.3,0.7-0.5,1.1-0.8c1.1,1.1,2.2,2.2,3.4,3.3c-0.3,0.2-0.7,0.3-1,0.5C235.2,127.5,234.1,126.5,232.9,125.5z M241.5,128.4
	c-0.5-0.6-1.1-1.2-1.6-1.8c0.6-0.5,1.2-1.1,1.7-1.7c0.7,0.9,1.3,1.7,2,2.6C242.9,127.7,242.2,128,241.5,128.4z M243.9,127.4
	c-0.7-0.9-1.4-1.8-2.1-2.7c0.1-0.2,0.3-0.4,0.4-0.5c0.7,1,1.5,2.1,2.2,3.1C244.2,127.3,244,127.3,243.9,127.4z M242.3,123.9
	c0.3-0.4,0.5-0.8,0.8-1.2c1,1.5,2,3,3,4.4c-0.5,0-0.9,0-1.4,0.1C243.8,126.1,243.1,125,242.3,123.9z M243.2,122.5
	c0.2-0.4,0.4-0.9,0.5-1.3c1.2,2,2.4,4.1,3.7,6.2c-0.1,0-0.2-0.1-0.3-0.1c-0.3-0.1-0.7-0.1-1-0.1l0.2-0.1
	C245.2,125.5,244.2,124,243.2,122.5z M243,122.3c-0.7-1-1.3-2-2-2.9c0.3-0.3,0.7-0.6,1-0.9c0.5,0.8,0.9,1.6,1.4,2.5
	C243.4,121.4,243.2,121.9,243,122.3z M242.6,115.9c-0.5-0.5-1.1-1-1.8-1.3c-0.9-1.6-1.8-3.1-2.6-4.7c0-0.2,0.1-0.4,0.1-0.6
	c0.3-0.2,0.5-0.4,0.8-0.7c0.2,0.4,0.4,0.8,0.6,1.2C240.5,111.8,241.5,113.8,242.6,115.9z M238.1,106.2c-0.1-0.5-0.4-1-0.7-1.5
	c-0.7-1.6-1.4-3.2-2-4.8c2.4-2.3,4.8-4.7,7-7.2c2.5-2.9,4.9-5.9,7-8.9c2.3,1.5,4.7,3.2,7.1,4.9c-2.2,3.2-4.7,6.3-7.4,9.4
	c-3.1,3.5-6.5,6.9-10.1,10.1C238.7,107.6,238.4,106.9,238.1,106.2z M262.6,35.7c-1.6-6.8-5.1-13.1-10-18.4c1.6,0.2,3.2,0.5,4.8,0.9
	c0.7,0.1,1.3,0.3,2,0.5c5.2,5.5,9,12.2,10.8,19.4C267.6,37.2,265.1,36.3,262.6,35.7z M232.6,5.7c-2-0.2-4.1-0.4-6.2-0.4
	c-0.9-0.3-1.9-0.5-2.9-0.7c-2.1-0.5-4.2-0.8-6.3-1.1c3.2,0,6.3,0.1,9.4,0.5c0.7,0.1,1.5,0.3,2.2,0.5c1.7,0.4,3.3,0.9,4.9,1.4
	C233.4,5.8,233,5.7,232.6,5.7z M223.5,4.7c0.7,0.2,1.4,0.3,2.1,0.5c-2.1-0.1-4.1,0-6.2,0.1l0,0l0,0c-1.7-0.7-3.4-1.3-5.1-1.8
	c0.5,0,1,0,1.6,0C218.5,3.8,221,4.2,223.5,4.7z M213.7,3.4c-0.2,0-0.3-0.1-0.5-0.1c0.4,0,0.8,0.1,1.1,0.1
	C214.1,3.3,213.9,3.3,213.7,3.4z M184.4,8.9L184.4,8.9c-0.1,0-0.2,0.1-0.2,0.1c-0.6-0.2-1.1-0.3-1.6-0.5c-0.6-0.1-1.1-0.2-1.6-0.3
	c6.3-1.7,12.6-2.9,18.8-3.2C194.6,5.9,189.4,7.2,184.4,8.9z M179.4,8.3c-0.8,0.3-1.6,0.5-2.4,0.8c0,0,0,0-0.1,0
	c0.4-0.4,0.9-0.6,1.6-0.8C178.8,8.4,179.1,8.4,179.4,8.3z M176.1,9.9c-0.2,0.4-0.3,0.8-0.4,1.3c-0.1,0.3-0.1,0.6-0.2,0.8
	c-7.4,2.4-14.5,5.7-21.1,9.7c-0.5-0.3-0.9-0.5-1.2-0.6c7.3-4.6,15-8.4,23.1-11.4C176.2,9.8,176.1,9.8,176.1,9.9z M152.7,22.8
	c-7.1,4.4-13.6,9.7-19.3,15.5c-0.5-0.2-1-0.4-1.5-0.5c6.1-6,12.9-11.4,20.3-16.1C152.4,22,152.5,22.4,152.7,22.8z M131.8,37.9
	c0.5,0.1,1,0.3,1.5,0.5c-0.7,0.7-1.4,1.4-2,2.1c-0.2,0.2-0.3,0.4-0.5,0.5c-0.2-0.7-0.3-1.3-0.3-1.9
	C130.9,38.8,131.4,38.4,131.8,37.9z M130.7,41.2c-2.8,3.2-5.4,6.5-7.6,9.8c-1.5,1.9-3,3.9-4.4,5.9c-0.6,0.1-1.2,0.2-1.8,0.4
	c-0.2,0.1-0.3,0.1-0.5,0.2c1.2-2.3,2.6-4.5,4-6.7c2.1-2.9,4.4-5.7,6.9-8.4c0.9-1,1.9-2.1,2.9-3.1C130.3,39.9,130.4,40.5,130.7,41.2z
	 M116.3,57.9c0.2-0.1,0.5-0.2,0.7-0.3c0.5-0.2,1-0.3,1.5-0.3c-1.8,2.7-3.5,5.4-5,8.2c-0.1-0.6-0.1-1.1-0.1-1.6
	C114.3,61.8,115.2,59.8,116.3,57.9z M113.4,65.7c-0.7,1.4-1.4,2.7-2.1,4.1c0.6-1.9,1.2-3.7,2-5.6C113.3,64.7,113.3,65.2,113.4,65.7z
	 M113.5,66c0.2,1.2,0.5,2.5,1,3.8c-0.1,0.4-0.2,0.9-0.3,1.3c0,0.2-0.1,0.3-0.1,0.5c-0.9,1.8-1.8,3.6-2.5,5.4
	c-0.4,0.2-0.9,0.5-1.3,0.7c-0.2,0.2-0.5,0.3-0.7,0.5c0.2-1.7,0.5-3.5,0.9-5.2c0.2-0.7,0.3-1.3,0.5-2C111.7,69.4,112.6,67.7,113.5,66
	z M109.3,78.5c-0.7,0.6-1.4,1.4-1.9,2.2c0.8-2.8,1.8-5.6,3-8.4c-0.1,0.3-0.1,0.5-0.2,0.8C109.8,74.9,109.5,76.7,109.3,78.5z
	 M109.3,78.8c-0.2,1.6-0.3,3.2-0.3,4.7c0,0,0,0.1,0,0.1c-0.6,1.9-1.1,3.8-1.6,5.6c-0.2,0.9-0.4,1.8-0.6,2.8c-0.2-1.7-0.3-3.3-0.3-5
	c0-1.3,0.1-2.5,0.2-3.8c0.1-0.6,0.3-1.2,0.5-1.8C107.8,80.4,108.5,79.6,109.3,78.8z M106.5,83.2c-0.1,0.3-0.2,0.6-0.2,0.9
	c-0.4,1.6-0.6,3.2-0.9,4.8c0-1.4,0.2-2.7,0.4-3.9c0.2-0.8,0.4-1.5,0.7-2.2C106.6,82.9,106.6,83.1,106.5,83.2z M106.4,84.6
	c0,0.8-0.1,1.7-0.1,2.5c0,1.9,0.1,3.8,0.4,5.6c-0.2,1-0.3,2-0.4,2.9c-0.5-1.9-0.8-3.7-0.9-5.5C105.7,88.2,106,86.4,106.4,84.6z
	 M106.9,93.3c0.5,2.8,1.3,5.6,2.4,8.2c-0.4,0.9-0.7,1.9-0.9,2.8c-0.1,0.6-0.3,1.2-0.3,1.9c-0.8-2-1.4-4-1.9-6
	C106.3,98,106.5,95.6,106.9,93.3z M108,106.7c-0.2,1.6-0.3,3.2-0.2,4.8c-0.6-1.5-1.1-3.1-1.5-4.6c-0.2-1.5-0.2-3-0.2-4.6
	c0-0.4,0-0.9,0-1.3C106.6,103,107.3,104.9,108,106.7z M108.2,107.1c2.7,6.3,7,12,12.5,16.4c0,2.1,0.2,4.3,0.6,6.6
	c-5.9-4.8-10.4-11-13.2-17.9C107.9,110.4,108,108.7,108.2,107.1z M120.9,123.6c2.2,1.7,4.5,3.2,7,4.4c3.6,1.7,7.5,3.1,11.6,4
	c0.9,0.2,1.8,0.4,2.8,0.6c0.4,2.3,1,4.7,1.7,7.2c-0.9-0.2-1.8-0.3-2.6-0.5c-4.4-1-8.6-2.4-12.4-4.3c-2.7-1.3-5.2-2.9-7.5-4.8
	C121.1,128,120.9,125.8,120.9,123.6z M170.2,132.7c5-0.8,10-1.9,14.9-3.4c5.1-1.5,10.1-3.4,14.9-5.6c1.4,2.2,3,4.5,4.6,6.9
	c-5.1,2.3-10.3,4.3-15.7,5.9c-5.2,1.6-10.5,2.8-15.7,3.5C172.1,137.5,171.1,135.1,170.2,132.7z M200.2,123.6
	c3.2-1.5,6.4-3.1,9.5-4.8c2.8,1.5,5.6,3.1,8.4,4.8c-4.3,2.5-8.8,4.9-13.3,6.9C203.2,128.2,201.7,125.9,200.2,123.6z M209.9,118.7
	c0.1-0.1,0.3-0.1,0.4-0.2c1.2,0.6,2.3,1.3,3.5,1.9c0.7,0.5,1.4,0.9,2.3,1.3c0.9,0.5,1.8,1,2.7,1.6c-0.1,0.1-0.3,0.2-0.4,0.2
	C215.5,121.8,212.7,120.2,209.9,118.7z M217.1,122.1c0.3,0.1,0.6,0.2,0.9,0.3c0.4,0.2,0.7,0.5,1.1,0.7c-0.1,0-0.1,0.1-0.2,0.1
	C218.3,122.8,217.7,122.4,217.1,122.1z M219.3,123.1c1.9,1.2,3.9,2.5,5.8,3.7c0,0,0,0,0,0c-2-1.3-4-2.5-6-3.7
	C219.2,123.2,219.2,123.2,219.3,123.1z M227,128.3c-0.1-0.1-0.2-0.1-0.3-0.2C226.8,128.2,226.9,128.2,227,128.3z M237.6,133.7
	c-1.7-1.3-3.4-2.6-5.2-3.9c0.1,0,0.1,0,0.2,0c1.7,1.2,3.3,2.5,5,3.7C237.7,133.6,237.6,133.6,237.6,133.7z M232.9,129.7
	c0.6-0.1,1.1-0.2,1.7-0.3c0.1,0,0.3-0.1,0.4-0.1c1.1,0.9,2.1,1.8,3.2,2.7c-0.2,0.4-0.3,0.7-0.4,1.1c0,0.1,0,0.2,0,0.2
	C236.1,132.1,234.5,130.9,232.9,129.7z M238.2,131.8c-1-0.9-2-1.7-3-2.6c0.4-0.1,0.8-0.3,1.1-0.4c0.8,0.7,1.6,1.4,2.4,2.2
	C238.6,131.2,238.4,131.5,238.2,131.8z M236.5,128.7c0.3-0.2,0.7-0.3,1-0.5c0.6,0.6,1.3,1.3,1.9,1.9c-0.2,0.2-0.4,0.5-0.6,0.7
	C238.1,130.1,237.3,129.4,236.5,128.7z M239.6,129.9c-0.6-0.6-1.3-1.2-1.9-1.8c0.7-0.4,1.3-0.8,2-1.3c0.5,0.6,1.1,1.2,1.6,1.8
	C240.6,129,240.1,129.4,239.6,129.9z M243.8,127.5c0.2-0.1,0.5-0.1,0.7-0.2c1.5,2.1,3.1,4.3,4.8,6.5c-0.4,0.6-0.9,1.1-1.5,1.6
	c-2.1-2.4-4.2-4.7-6.2-7C242.2,128.2,243,127.8,243.8,127.5z M244.7,127.3c0.8-0.1,1.6-0.1,2.3,0.1c0.2,0,0.3,0.1,0.4,0.1
	c0.9,1.4,1.8,2.9,2.8,4.4c-0.2,0.6-0.4,1.2-0.8,1.8C247.8,131.6,246.3,129.5,244.7,127.3z M247.8,127.7c0.8,0.3,1.4,0.7,1.9,1.2
	c0.2,0.4,0.4,0.8,0.7,1.2c0,0.2,0.1,0.3,0.1,0.5c0,0.4,0,0.8-0.1,1.2C249.5,130.4,248.6,129,247.8,127.7z M247.6,127.4
	c-1.4-2.2-2.7-4.4-3.9-6.5c0-0.1,0-0.2,0.1-0.2c0-0.1,0-0.2,0-0.3c1.4,2.4,2.8,4.7,4.2,7.1l0.2-0.1c-1.5-2.4-3-4.9-4.4-7.3
	c0.1-0.5,0.1-0.9,0.1-1.4c0-0.1,0-0.1,0-0.2c1.7,3.2,3.5,6.5,5.4,9.8C248.9,127.9,248.3,127.6,247.6,127.4z M256.5,104.3
	c-4,4.5-8.3,8.8-13,12.8c0,0,0,0,0,0c0,0,0,0,0,0c-1.3-2.4-2.5-4.9-3.7-7.3c-0.2-0.4-0.4-0.9-0.6-1.3c3.6-3.2,7-6.6,10.1-10.2
	c2.7-3,5.1-6.2,7.4-9.3c2.4,1.8,4.9,3.7,7.5,5.7C261.8,97.9,259.3,101.2,256.5,104.3z M277.9,65.1c-0.2,0.7-0.3,1.4-0.5,2.1
	c-2.7-1.6-5.3-3.1-7.9-4.5c0.2-0.7,0.4-1.5,0.6-2.2c1.3-5.5,1.8-11,1.3-16.4c-0.2-1.9-0.5-3.8-0.9-5.6c2.6,1,5.2,2.1,7.9,3.4
	c0.5,2,0.8,4,1,6C279.7,53.5,279.2,59.3,277.9,65.1z M278.2,41.6c-2.6-1.3-5.2-2.4-7.8-3.4c-1.7-7.2-5.5-13.9-10.7-19.4
	c2.3,0.6,4.7,1.4,7,2.4C272.3,26.9,276.3,34,278.2,41.6z M266.4,20.9c-2.3-0.9-4.6-1.7-6.9-2.3c-4.2-4.3-9.2-7.9-14.9-10.3
	c1.8,0.5,3.6,1.1,5.4,1.8C256.2,12.5,261.8,16.2,266.4,20.9z M243.4,7.7c-0.1,0-0.2,0-0.2-0.1c0,0-0.1,0-0.1-0.1
	C243.1,7.6,243.2,7.7,243.4,7.7z M234.8,5.3c1.4,0.3,2.8,0.7,4.2,1.1c-1.5-0.3-3-0.5-4.5-0.6c-1.8-0.6-3.7-1.2-5.6-1.6
	c0,0-0.1,0-0.1,0C230.8,4.5,232.8,4.9,234.8,5.3z M215.9,3.3c-1.3-0.1-2.7-0.2-4.1-0.3c-0.9-0.2-1.9-0.2-2.8-0.3
	c5.3-0.2,10.4,0,15.3,0.8C221.6,3.3,218.7,3.2,215.9,3.3z M205.8,2.9c-0.1,0-0.1,0-0.2,0c-0.1,0-0.2,0-0.3,0
	C205.4,3,205.6,2.9,205.8,2.9z M201.4,3.4c1-0.1,2.1-0.1,3.1-0.2c-1.2,0.3-2.3,0.8-3.2,1.5c0,0,0,0,0,0c-6.6,0.3-13.4,1.4-20.1,3.3
	C187.8,5.7,194.7,4.2,201.4,3.4z M172.2,11.1c-6.7,2.8-13.2,6.1-19.3,10c-0.1,0-0.2-0.1-0.3-0.1c-0.1,0-0.2,0-0.3,0
	C158.5,17,165.2,13.7,172.2,11.1z M152,21C152,21,152,21,152,21c-0.1,0.1,0,0.2,0,0.3c0,0.1,0.1,0.1,0.1,0.2
	c-7.4,4.7-14.3,10.2-20.4,16.2c0,0-0.1,0-0.1,0c-0.1,0-0.2,0-0.3,0C137.4,31.4,144.4,25.8,152,21z M128.9,40.1
	c0.5-0.5,0.9-1,1.4-1.5c0,0.1-0.1,0.3-0.1,0.5c-1,1.1-2.1,2.1-3,3.2c-1.4,1.5-2.7,3-3.9,4.5C125.1,44.6,126.9,42.3,128.9,40.1z
	 M118,54.3c-0.7,1.1-1.3,2.3-1.9,3.4c-0.1,0.1-0.3,0.2-0.4,0.3C116.4,56.8,117.2,55.5,118,54.3z M114.7,59.3
	c-0.2,0.3-0.3,0.6-0.5,0.9C114.3,59.8,114.5,59.5,114.7,59.3z M113.4,61.9c-0.1,0.6-0.2,1.2-0.2,1.8c-1,2.4-1.9,4.9-2.5,7.3
	c-1.5,3.4-2.8,6.9-3.7,10.3c0,0.1-0.1,0.1-0.1,0.2c0.2-1.9,0.6-3.8,1-5.7c0.4-1.7,0.9-3.3,1.4-5C110.4,67.9,111.8,64.9,113.4,61.9z
	 M108.1,74.3c-0.1,0.5-0.3,1.1-0.4,1.6c-0.5,2.1-0.8,4.2-1,6.2c-0.4,0.9-0.7,1.8-1,2.8c-0.1,0.3-0.1,0.5-0.1,0.8c0.2-2,0.6-4,1.1-6
	C107,77.8,107.5,76.1,108.1,74.3z M105.2,89.3c0,0.3,0,0.5,0,0.8c0,0.2,0,0.3-0.1,0.5C105.2,90.2,105.2,89.7,105.2,89.3z M105,96.6
	c0-0.6,0-1.3,0.1-1.9c0.2,1.9,0.4,3.8,0.9,5.6c0,0.7-0.1,1.4-0.1,2.1c0,1.1,0,2.1,0.1,3.2C105.4,102.6,105,99.6,105,96.6z
	 M106.5,108.3c0.4,1.3,0.8,2.6,1.3,3.9c0.1,1.3,0.2,2.5,0.4,3.8C107.5,113.5,106.9,110.9,106.5,108.3z M108.7,117.3
	c-0.3-1.5-0.5-3-0.6-4.5c2.8,6.8,7.3,12.8,13.2,17.5c0.4,2.3,0.9,4.6,1.6,7C116.4,132,111.5,125,108.7,117.3z M144.2,147.1
	c-4.7-1.1-9.1-2.6-13.1-4.6c-2.8-1.4-5.5-3.1-7.9-5c-0.7-2.4-1.3-4.7-1.7-7c2.3,1.8,4.7,3.3,7.4,4.6c3.8,1.9,8,3.3,12.4,4.3
	c0.9,0.2,1.8,0.4,2.7,0.6c0.8,2.5,1.7,5.1,2.7,7.6C145.9,147.5,145,147.3,144.2,147.1z M193.8,144.3c-5.4,1.6-10.9,2.9-16.4,3.7
	c-1.4-2.6-2.8-5.2-4-7.8c5.2-0.8,10.5-2,15.7-3.5c5.3-1.6,10.6-3.6,15.7-5.9c1.7,2.4,3.5,4.9,5.3,7.4
	C204.8,140.6,199.3,142.6,193.8,144.3z M210.3,138.1c-1.9-2.5-3.7-5-5.3-7.4c4.6-2.1,9.1-4.4,13.4-7c2.9,1.7,5.8,3.5,8.8,5.4
	C221.8,132.5,216.1,135.5,210.3,138.1z M227.3,129c-2.9-1.9-5.9-3.6-8.8-5.4c0.1-0.1,0.3-0.2,0.4-0.2c2.2,1.3,4.4,2.6,6.6,4
	c0.5,0.6,1.2,1.1,2,1.5C227.5,128.9,227.4,128.9,227.3,129z M238.9,136.3c0.2,0.2,0.5,0.4,0.7,0.5
	C239.3,136.7,239.1,136.5,238.9,136.3z M241.2,137.5c-0.2-0.1-0.4-0.1-0.6-0.2c-0.7-0.5-1.5-1.1-2.2-1.6c-0.3-0.4-0.5-0.9-0.5-1.3
	c0-0.2,0-0.5,0-0.7c1.7,1.3,3.4,2.6,5.1,3.9C242.4,137.6,241.8,137.6,241.2,137.5z M244.4,137.4c-0.4,0.1-0.8,0.2-1.2,0.2
	c-1.8-1.4-3.6-2.8-5.3-4.1c0-0.1,0-0.2,0.1-0.3c0.2-0.7,0.5-1.4,1-2.1c2.1,1.9,4.3,3.9,6.5,5.9C245.1,137.1,244.8,137.3,244.4,137.4
	z M245.6,136.9c-2.2-2.1-4.4-4.1-6.6-6c0.6-0.8,1.4-1.6,2.4-2.2c2,2.3,4.1,4.6,6.2,7C247,136.2,246.4,136.6,245.6,136.9z"/>
</svg>
