<svg id="Layer_1" data-name="Layer 1" xmlns="http://www.w3.org/2000/svg" xmlns:xlink="http://www.w3.org/1999/xlink" viewBox="0 0 280.84 150.97"><defs><style>.cls-1{fill:url(#linear-gradient);}</style><linearGradient id="linear-gradient" y1="75.49" x2="280.84" y2="75.49" gradientUnits="userSpaceOnUse"><stop offset="0" stop-color="#69b3e5"/><stop offset="0.09" stop-color="#60ace7"/><stop offset="0.25" stop-color="#4698ed"/><stop offset="0.45" stop-color="#1d78f6"/><stop offset="0.57" stop-color="#0062fd"/><stop offset="1" stop-color="#0062fd"/></linearGradient></defs><path class="cls-1" d="M3.11,151c38.4-9.29,78.41-24.16,102.78-47.83,18.7-18.15,26.6-39.83,23.48-64.42-2.88-22.64-.31-35.3,7.62-37.61,16.32-4.77,52.56,33.6,83.52,71.43-28.77-34-59.94-64.83-75.18-60.37-8.35,2.44-11.1,15.35-8.18,38.37,3,23.84-4.7,44.93-23,62.68-11.84,11.5-32.43,25.49-68,37.75h2.17c34.6-12.16,54.8-25.93,66.49-37.27C133.22,95.79,141,74.51,138,50.46c-2.88-22.64-.32-35.3,7.62-37.62C160.93,8.36,193.9,42,223.53,77.53c-25.19-29.07-51.44-54-64.67-50.18-7.73,2.26-10.27,14.19-7.57,35.46,2.55,20-4.2,38.28-20.06,54.18-10.11,10.14-27.16,22.32-55.79,34h1.91c21.69-8.94,41-20,54.5-33.52,16-16,22.83-34.47,20.25-54.72-2.65-20.89-.29-32.57,7-34.71,11.8-3.45,37.23,17.84,73.52,61.57l2.12,2.57C209.51,62.47,182.34,35.75,169,39.64c-7.51,2.2-9.89,13.32-7.26,34,2.44,19.21-4,36.67-19.22,51.91-9.78,9.8-22.74,18.21-37.47,25.43h1.65c14.29-7.12,26.88-15.38,36.44-25,15.35-15.39,21.88-33,19.41-52.44-2.54-20-.28-31.2,6.71-33.24,12.86-3.75,39.81,22.94,65,52.54-18.41-20.43-36.62-36.55-46.3-33.72-6.37,1.86-8.39,11.25-6.17,28.72,2,16.18-3.39,30.89-16.19,43.73-7.33,7.35-16.79,13.77-27.53,19.38h1.58c10.33-5.5,19.44-11.77,26.57-18.92,13-13,18.47-27.88,16.38-44.27-2.13-16.85-.24-26.26,5.62-28,11.29-3.31,35.54,21.35,57.48,47.57C231.53,91.89,217.71,79.83,210.3,82c-5,1.46-6.6,8.82-4.87,22.48,1.6,12.59-2.64,24-12.6,34A80.93,80.93,0,0,1,176.19,151h1.43a79.94,79.94,0,0,0,15.83-12c10.12-10.14,14.42-21.78,12.8-34.57-1.66-13.09-.21-20.4,4.32-21.73,9.77-2.86,32.08,21.32,50.49,44.09-10.44-11.76-21-21.35-26.53-19.73-3.55,1-4.68,6.18-3.47,15.73,1.11,8.71-1.83,16.64-8.73,23.56a47.33,47.33,0,0,1-5.45,4.65h1.26a48.29,48.29,0,0,0,4.82-4.19c7-7.07,10-15.18,8.92-24.1s-.17-14.08,2.91-15c8.61-2.51,31.3,25.35,44.58,42.92l.26.35h1.21c-2.79-3.95-9.28-13.08-18.06-24.88-10.44-14.3-27.29-36.8-45.47-58.71C177.21,19.05,150.12-3.47,136.73.43c-8.35,2.44-11.1,15.35-8.18,38.37,3.1,24.38-4.73,45.87-23.27,63.87C80.41,126.82,39.15,141.76,0,151Z" transform="translate(0 0)"/></svg>