<?xml version="1.0" encoding="utf-8"?>
<!-- Generator: Adobe Illustrator 25.2.0, SVG Export Plug-In . SVG Version: 6.00 Build 0)  -->
<svg version="1.1" id="Layer_1" xmlns="http://www.w3.org/2000/svg" xmlns:xlink="http://www.w3.org/1999/xlink" x="0px" y="0px"
	 viewBox="0 0 280.8 151" style="enable-background:new 0 0 280.8 151;" xml:space="preserve">
<style type="text/css">
	.st0{stroke:#000000;stroke-width:4;stroke-linecap:round;stroke-linejoin:round;stroke-miterlimit:10;}
	.st1{fill:#FFFFFF;}
	.st2{fill:none;stroke:#000000;stroke-width:27;stroke-linecap:round;stroke-linejoin:round;stroke-miterlimit:10;}
	.st3{fill:none;}
	.st4{fill:#FED305;}
	.st5{fill:#EE3724;}
	.st6{fill:#EE3024;}
	.st7{fill:#FCD208;}
	.st8{fill:#FDD901;}
	.st9{fill:#FAD00C;}
	.st10{fill:#009DD9;}
	.st11{fill:#4A3634;}
	.st12{fill:#EC2624;}
	.st13{fill:#ED2824;}
	.st14{fill:#FCD42B;}
	.st15{fill:#E8D257;}
	.st16{fill:#FCD20C;}
	.st17{fill:#FAD310;}
	.st18{fill:#273B87;}
	.st19{fill:#293580;}
	.st20{fill:#EE2824;}
	.st21{fill:none;stroke:#00AEEF;stroke-miterlimit:10;}
	.st22{fill:none;stroke:#F7941D;stroke-miterlimit:10;}
	.st23{fill:none;stroke:#ED1C24;stroke-miterlimit:10;}
	.st24{fill:none;stroke:#2BB673;stroke-miterlimit:10;}
	.st25{fill:none;stroke:#92278F;stroke-miterlimit:10;}
</style>
<rect class="st3" width="103.6" height="92.7"/>
<g>
	<line class="st21" x1="95.4" y1="95.2" x2="95.4" y2="126.6"/>
	<line class="st21" x1="116" y1="150.6" x2="95.4" y2="126.6"/>
	<line class="st21" x1="175" y1="150.7" x2="116" y2="150.7"/>
	<line class="st21" x1="220.6" y1="104.7" x2="174.8" y2="150.5"/>
	<line class="st21" x1="246.1" y1="78.4" x2="220.3" y2="104.9"/>
	<line class="st22" x1="245.8" y1="56.5" x2="245.8" y2="78.4"/>
	<line class="st22" x1="217.5" y1="30.1" x2="245.8" y2="56.5"/>
	<line class="st22" x1="102" y1="30.1" x2="217.5" y2="30.1"/>
</g>
<g>
	<line class="st23" x1="153.7" y1="95.2" x2="176.4" y2="117.9"/>
	<line class="st23" x1="253.3" y1="117.3" x2="176.4" y2="117.3"/>
	<line class="st23" x1="274.2" y1="137.7" x2="253.6" y2="117.1"/>
</g>
<g>
	<line class="st24" x1="104" y1="54.6" x2="220.3" y2="54.6"/>
	<line class="st24" x1="245.9" y1="78.4" x2="220.3" y2="54.6"/>
	<line class="st24" x1="280.8" y1="78.4" x2="245.9" y2="78.4"/>
</g>
<g>
	<line class="st25" x1="47.1" y1="110.9" x2="116.8" y2="110.9"/>
	<line class="st25" x1="126.6" y1="136.2" x2="116.8" y2="110.9"/>
	<line class="st25" x1="225" y1="136.2" x2="126.6" y2="136.2"/>
</g>
</svg>
