<?xml version="1.0" encoding="utf-8"?>
<!-- Generator: Adobe Illustrator 25.2.0, SVG Export Plug-In . SVG Version: 6.00 Build 0)  -->
<svg version="1.1" id="Layer_1" xmlns="http://www.w3.org/2000/svg" xmlns:xlink="http://www.w3.org/1999/xlink" x="0px" y="0px"
	 viewBox="0 0 280.8 151" style="enable-background:new 0 0 280.8 151;" xml:space="preserve">
<style type="text/css">
	.st0{fill:#00AEEF;}
	.st1{fill:none;stroke:#00AEEF;stroke-width:8;stroke-linecap:round;stroke-linejoin:round;stroke-miterlimit:10;}
	.st2{fill:#ED1C24;}
	.st3{fill:#F7941D;}
	.st4{fill:#2BB673;}
	.st5{fill:#92278F;}
</style>
<g>
	<path class="st0" d="M151.3,149.6h-48.5c-1,0-1.9-0.4-2.6-1l-12.8-11.5c-0.8-0.8-1.3-1.8-1.3-3l0.2-91.8c0-2.2,1.8-4,4-4
		c0,0,0,0,0,0c2.2,0,4,1.8,4,4l-0.2,90l10.4,9.3h43l0.1-39.7c0-1,0.4-2,1.1-2.7L233,8.6c1.5-1.6,4-1.7,5.6-0.2
		c1.6,1.5,1.7,4,0.2,5.6l-83.5,89.5l-0.1,42.2C155.2,147.8,153.5,149.6,151.3,149.6z"/>
	<path class="st1" d="M75.7,53.5"/>
	<path class="st2" d="M257.7,102.7h-77c-0.8,0-1.5-0.2-2.1-0.6l-37.1-23.4H90c-0.7,0-1.5-0.2-2.1-0.6L46.9,52.5
		c-1.9-1.2-2.4-3.6-1.3-5.5c1.2-1.9,3.6-2.4,5.5-1.3l40,25h51.5c0.8,0,1.5,0.2,2.1,0.6l37.1,23.4h75.8c2.2,0,4,1.8,4,4
		S259.9,102.7,257.7,102.7z"/>
	<path class="st3" d="M200,151c-2.2,0-4-1.8-4-4V30.7L173.3,8h-137c-2.2,0-4-1.8-4-4s1.8-4,4-4H175c1.1,0,2.1,0.4,2.8,1.2l25.1,25.1
		C203.6,27,204,28,204,29v118C204,149.2,202.2,151,200,151z"/>
	<path class="st4" d="M257.7,56.2h-99.3c-0.9,0-1.7-0.3-2.4-0.8l-31.5-24.3H65.2c-2.2,0-4-1.8-4-4s1.8-4,4-4h60.5
		c0.9,0,1.7,0.3,2.4,0.8l31.5,24.3h98c2.2,0,4,1.8,4,4S259.9,56.2,257.7,56.2z"/>
	<path class="st5" d="M234.8,129.5H113.6c-1.1,0-2.2-0.5-3-1.3l-22.5-25.5H23.1c-2.2,0-4-1.8-4-4s1.8-4,4-4H90c1.1,0,2.2,0.5,3,1.3
		l22.5,25.5h119.3c2.2,0,4,1.8,4,4C238.8,127.8,237,129.5,234.8,129.5z"/>
</g>
</svg>
