<?xml version="1.0" encoding="utf-8"?>
<!-- Generator: Adobe Illustrator 25.2.1, SVG Export Plug-In . SVG Version: 6.00 Build 0)  -->
<svg version="1.1" id="Layer_1" xmlns="http://www.w3.org/2000/svg" xmlns:xlink="http://www.w3.org/1999/xlink" x="0px" y="0px"
	 viewBox="0 0 278.8 151.8" style="enable-background:new 0 0 278.8 151.8;" xml:space="preserve">
<style type="text/css">
	.st0{stroke:#FFFFFF;stroke-width:0.5;stroke-miterlimit:10;}
</style>
<path d="M144.4,22.4c0.9,0,3.8-3.5,6.9-8c4.1-5.9,4.6-7.5,3.9-7.5h-1.1l-10.9,15.5H144.4z"/>
<path d="M152.1,23.8c1,0,4.1-3.5,8-9.1c3.1-4.5,5.1-7.8,4.2-7.8h-1.6l-11.9,16.9H152.1z"/>
<path d="M147.9,22.4c0.9,0,3.8-3.5,6.9-8c4.1-5.9,4.6-7.5,3.9-7.5h-1l-11,15.5H147.9z"/>
<path d="M155.5,23.8c1,0,4.1-3.5,8-9.1c3.1-4.5,5.1-7.8,4.2-7.8h-1.6l-11.9,16.9H155.5z"/>
<g>
	<polygon class="st0" points="117,37.1 107.6,49.6 106.9,51.8 112.4,44.6 107.7,51.8 110.2,49.6 118.4,37.1 120.8,37.1 111.1,51.8 
		113.7,49.6 145.4,1.2 144.1,1.2 127.6,23.1 142,1.2 140.7,1.2 104.1,49.6 103.5,51.8 114.6,37.1 	"/>
	<path class="st0" d="M126.3,44.9h-0.8l-4,5.7l3.1,0c0.1,0,0.3,0,0.4-0.1l-0.1,0.1l3.1,0c1.6,0,6.2-5.2,12.5-14.1
		c3.9-5.6,6.8-10.2,7.1-11.9c2.9-3.2,5.6-6.6,8-10.1c6-8.4,8.5-13.2,6.5-13.2h-2.4l-0.4,0.5c-0.1-0.4-0.3-0.5-0.7-0.5h-2.4l-4,5.7
		h0.8L126.3,44.9z"/>
	<path class="st0" d="M212.6,51.4c0.7,0,2.2-1.4,4.4-3.8c-0.7,1.3-1.1,2.4-1.3,3l-4.3,5.3h0.9l-31.2,38h-0.9l-4.7,5.7h3.7
		c0.1,0,0.2,0,0.4-0.1l0,0.1h3.7c1.9,0,7.2-5.2,14.6-14.1c4.6-5.6,7.9-10.2,8.3-11.9c3.4-3.1,6.5-6.5,9.4-10.2
		c5-6.1,7.9-10.2,8.3-12.1l2-1.8l8.2-12.4h2.4l-8.6,13.1H227l-40.6,49.4h4h1.6h4l4.7-5.7h-4h-0.4l14.4-17.5h3.7l4.7-5.7h-3.7
		l12.2-14.8h0.4h4l4.4-5.3h0.4l34.9-49.4h-1l-20.2,28.6l-8.9,12.8l-0.2,0.2l22.4-35.3l4.4-6.3h-0.5h-0.5h-0.7l-22,31.2l19.8-31.2
		H263l-31.1,44l28.9-44h-1.3L243,23.1l14.3-21.8h-1.3l-36.6,48.3l-0.2,0.8c-0.1-0.1-0.2-0.1-0.4-0.1h-1c1.8-1.6,4.6-4.9,8-9.1
		l1.7-3.6c-3.6,4.5-6.5,8-7.4,8c-0.4,0-0.1-0.9,0.6-2.4c0.5-0.6,1.1-1.3,1.6-2l1.5-3.1c2.5-3.9,5.7-8.5,8.3-12.1
		c2.9-4.2,6.9-9.6,10.1-13.7l1.3-1.3c0.3-0.5,0.6-0.9,0.8-1.4c1.6-1.9,2.9-3.2,3.4-3.2c0.8,0-1.3,3.5-3.8,7.5l3-2.9
		c4.1-6.5,6.2-10.5,5-10.5c-0.5,0-2,1.2-4.6,4.1c1.5-2.6,2-4.1,1.2-4.1c-1.3,0-7.1,5.9-21,25.6C219,38.2,210.3,51.4,212.6,51.4z
		 M195.1,93.9h-2.9l14.4-17.5h2.9L195.1,93.9z M214.2,70.7h-2.9l12.2-14.8h2.9L214.2,70.7z M235.7,50.3h-2.2l21.7-30.7L235.7,50.3z
		 M258.3,9.2l0.2-0.2l-22.3,35.2l-4.3,6H231h-1.6l19.9-28.2L258.3,9.2z M228.4,50.3L228.4,50.3l0.1-0.2L228.4,50.3z M223.6,50.9
		c0-0.2-0.1-0.4-0.2-0.5l4.4-5.8L223.6,50.9z M232.4,37.1L223,49.6l-0.2,0.7h-2.7l9.9-13.1H232.4z M244.3,6.4c0.5,0-0.2,1.4-1.4,3.5
		c-3.1,3.9-7,9.1-11.9,16.1c-4.1,5.8-8.3,11.9-11.2,16.7c-1.5,1.8-2.7,2.9-3.2,2.9c-1.6,0,6.6-12,12-19.6
		C234,18.3,242.8,6.4,244.3,6.4z"/>
	<path class="st0" d="M238.9,50.3h-1.2L197,99.6h1.2l19.1-23.2h2.9l-19.1,23.2h1.2l19.1-23.2h3.8l4.7-5.7H226l12.2-14.8h0.5h4
		l4.7-5.7h-3c4.9-4.5,16.5-20.9,18.9-24.3c14.1-19.9,16.6-25.6,15.3-25.6c-0.6,0-2.1,1.2-4.9,4.5c1.8-3.3,2.1-4.5,1.5-4.5
		c-1.3,0-6.8,5.8-20.8,25.6C243.8,40.8,239.7,47.7,238.9,50.3z M243.9,47c-0.8,1.5-1.3,2.6-1.5,3.3h-0.7h-0.9
		C241.7,49.5,242.7,48.4,243.9,47z M224.8,70.7H222l12.2-14.8h2.9L224.8,70.7z"/>
	<path class="st0" d="M175.8,6.9l-26.8,38h-1.1l-4,5.7h0.2l-40.3,49h4h1.6h4l4.7-5.7h-4h-0.4l14.4-17.5h3.7l4.7-5.7h-3.7l12.2-14.8
		h0.4h4l4.4-5.3c-0.1,0.5,0,0.8,0.3,0.8c0.8,0,3.3-2.2,6.2-5.4l15.4-21.8h-2.8l-4,5.7h1.8l-9.2,13c-1.6,1.7-2.7,2.6-3.2,2.6
		c-0.4,0-0.1-0.9,0.7-2.4L172,24.2h-0.8c2.9-4.1,6.6-9.1,9.5-12.8l1.5-1.6c0.2-0.3,0.4-0.6,0.6-0.9c1.4-1.6,2.4-2.6,2.8-2.6
		c0.8,0-0.8,3-3.2,7l3.3-3.5c3.4-5.6,5.2-9.5,4.2-9.5c-0.7,0-2.4,1.5-4.6,4c1.3-2.5,1.8-4,1.1-4c-2.2,0-12.5,13.5-20.9,25.5
		c-7.1,10-14.3,20.9-15.4,24.4h-0.4h-1.6h-1.1l3.8-5.3h-1.1l26.8-38h1.1l4-5.7h-3.2l-4,5.7H175.8z M166.5,26.1
		c5.3-7.5,14.2-19.7,15.7-19.7c0.5,0,0,1.2-1,3.1c-3.4,4.3-7.3,9.6-11,14.8h-1.1l-4,5.7h1.1c-3.4,4.9-6.7,9.8-9,13.6
		c-1.3,1.3-2.2,1.9-2.6,1.9C153,45.5,161.1,33.7,166.5,26.1z M154.6,48.2c-0.4,0.8-0.7,1.5-0.9,2h-1.3
		C153,49.7,153.7,49.1,154.6,48.2z M112.4,93.9h-2.9l14.4-17.5h2.9L112.4,93.9z M131.5,70.7h-2.9l12.2-14.8h2.9L131.5,70.7z"/>
	<path class="st0" d="M111.7,78.5h1.7l-8.5,11.8l-7.7,9.3h1l-0.9,1.2l3.7-3.3l6-8.5l8.7-10.6h1.7l-16.1,22.4l3.7-3.3l14.2-20
		c2.6-1.8,8.2-7.8,13.2-13.8c6.6-8,9-12,8.8-13.1h2.2l4-5.7h-1.1l26.8-38h1.1l4-5.7h-3.2l-4,5.7h1.1l-26.8,38h-1.1l-3.8,5.3h-1.3
		l1.7-1.7l12.2-20c2.2-1.8,7-7.8,11.3-13.8c6.8-9.6,8.5-13.5,7.2-13.5h-2.6l-0.5,0.7c0.1-0.4-0.1-0.7-0.4-0.7h-2.6l-34.9,49.4h1
		l14.9-21.2h1.4l-7.4,12l-6.2,8.8h-0.7L93.2,99.6h1.2L111.7,78.5z M138.8,50.3h-0.9l-0.5,0.7c0.1-0.4-0.1-0.7-0.4-0.7h-1l1.7-1.7
		l5.3-8.7l7.3-10.4h1.4L138.8,50.3z M149.8,28.5c0.1-0.1,0.2-0.1,0.2-0.2l-0.9,1.2L149.8,28.5z M115.6,77.3l-1,1.2l0.7-1
		C115.4,77.5,115.5,77.4,115.6,77.3z"/>
	<path class="st0" d="M157.8,49.4c-1.4,0-6.5,4.7-13.3,13c-7.6,9.3-8,11.2-9.1,14.2c-0.7,1.8-1,3.2-4.9,8.1l-1.6,1.1
		c-1.7,2.1-3.1,4-4.4,5.7c-1.9,2-3.3,3-3.8,3c-1.2,0,1.9-4.5,6.7-10.5l-2.5,1.8c-7,8.8-10.8,14.6-9.1,14.6c0.8,0,2.7-1.4,5.3-3.9
		c-1.6,2.5-2.1,4-1.2,4c1.7,0,7.2-5.3,14.9-14.7c4.2-5.1,7-9.1,8.3-11.6l1.9-4.6c0.6-1.6,1.3-3,5.1-7.6l0.3-0.2
		c0.4-0.6,0.9-1.1,1.3-1.6c2.8-3.2,4.7-4.8,5.3-4.8c1,0-1.4,3.4-5.2,8.2l2.6-1.8c4.2-5.4,6.9-9.3,7.6-11.2h0.2l16.4-23.2h2.5
		l-16.4,23.2h0.6l-4.4,5.3h1.3l-31.3,38h-1.2l-4.7,5.7h3.7l4.7-5.7H132l31.2-38h1.3l4.4-5.3h0.1L200,6.9h0.3h1.7h0.4l-30.6,43.3
		h-2.2l-4.7,5.7h1.3l-31.2,38h-1.3l-4.7,5.7h3.7l4.7-5.7h-1.3l31.3-38h1.3l4.7-5.7h-0.5l30.6-43.3h2.1l4-5.7H206h-1.7h-3.5l-4,5.7
		h2.1l-30.6,43.3h-2.4l34.6-49h-1l-14.5,20.5h-2.5l14.5-20.5h-0.6h-0.4h-0.6l-14.5,20.5h-2.5L193,1.2h-1L158,49.4
		C158,49.4,157.9,49.4,157.8,49.4z M139.4,76.6c-0.8,2-1.1,3.5-6.1,9.6c-4.5,5.5-7.6,8.3-8.5,8.3c-0.6,0-0.1-1.2,1.3-3.2
		c1.5-1.6,3-3.5,4.7-5.5c4.2-5.1,7-9.1,8.3-11.6l1.9-4.6c0.6-1.6,1.3-3,5.1-7.7c3.7-4.5,6.1-6.5,6.8-6.5c0.8,0-0.5,2.1-2.8,5.2
		c-0.5,0.6-1,1.2-1.5,1.8C140.9,71.7,140.6,73.6,139.4,76.6z M177.1,27.4l-15.6,22.1c-1,0.4-2.8,1.9-5.3,4.4
		c0.9-1.4,1.5-2.5,1.8-3.3h0.2l16.4-23.2H177.1z"/>
	<path class="st0" d="M185.6,50.3L145,99.6h4h1.6h4l4.7-5.7h-4h-0.4l14.4-17.5h3.7l4.7-5.7H174l12.2-14.8h0.4h4l3.8-4.6
		c0,0.1,0.1,0.1,0.2,0.1c0.8,0,2.6-1.8,4.9-4.4c-0.7,1.2-1.1,2.1-1.4,2.8c-2.2,1.3-6.6,5.7-12.2,12.6c-7.6,9.3-8,11.2-9.1,14.2
		c-0.7,1.8-1,3.2-4.9,8.1l-1.6,1.1c-1.7,2.1-3.2,4-4.4,5.8c-1.9,2-3.2,3-3.8,3c-1.2,0,1.9-4.5,6.7-10.5l-2.5,1.8
		c-7,8.8-10.8,14.7-9.1,14.7c0.8,0,2.7-1.4,5.3-3.9c-1.5,2.5-2,3.9-1.2,3.9c1.7,0,7.2-5.3,14.9-14.7c4.2-5.1,7-9.1,8.3-11.6l1.9-4.6
		c0.6-1.6,1.3-3,5-7.5l0.4-0.3c0.5-0.7,1-1.3,1.5-1.9c2.7-3,4.5-4.5,5.1-4.5c1,0-1.4,3.4-5.1,8.2l2.6-1.8c4.2-5.4,6.9-9.3,7.6-11.2
		h2.3h1.6h3.5l4-5.7h-3.5h-0.6l30.9-43.7h-1l-30.9,43.7h-2.5L238,1.2h-1L203,49.4c-0.9,0.2-2.9,1.8-5.5,4.4c0.8-1.3,1.4-2.3,1.7-3
		c4.5-3.5,17.1-21.3,19.6-24.9c14.1-19.9,16.6-25.6,15.4-25.6c-0.6,0-2.1,1.2-5,4.6c1.8-3.3,2.1-4.6,1.5-4.6
		c-1.3,0-6.8,5.8-20.8,25.6c-10.5,14.9-14.5,21.8-15.4,24.3h-3.3h-1l36.8-48l0.7-2.3L200,36.2l13.5-20.8l10.1-13.1l0.7-2.3l-4.9,6.4
		l4.1-6.4l-2.6,2.3l-8.6,13.3l-15.8,20.7L220,0l-2.6,2.3l-31,48H185.6z M189.9,62.4c-7.6,9.3-8,11.2-9.1,14.2
		c-0.8,2-1.1,3.5-6.1,9.6c-4.5,5.5-7.6,8.3-8.6,8.3c-0.6,0-0.1-1.2,1.3-3.2c1.5-1.6,3-3.5,4.7-5.5c4.2-5.1,7.1-9.1,8.3-11.6l1.9-4.6
		c0.6-1.6,1.3-3,5.1-7.7c3.7-4.5,6.1-6.5,6.8-6.5c0.8,0-0.5,2.1-2.8,5.2C190.9,61.2,190.4,61.8,189.9,62.4z M153.7,93.9h-2.9
		l14.4-17.5h2.9L153.7,93.9z M172.8,70.7h-2.9l12.2-14.8h2.9L172.8,70.7z M206.6,24.3l-16.8,26h-0.2h-2.9L206.6,24.3z"/>
	<path class="st0" d="M141,99.6c3.2,0,11.8-9.8,24.5-25.3c15-18.3,18.7-24.1,16.1-24.1h-3l-0.3,0.4c-0.1-0.3-0.3-0.4-0.7-0.4h-3
		l-4.7,5.7h0.9l-31.2,38h-0.9l-4.7,5.7h3c0.4,0,0.8-0.1,1.4-0.4l-0.3,0.4H141z"/>
	<path class="st0" d="M212.8,100.5c3.1,0,20.9-21.5,24.1-25.5c16.4-19.9,19.4-25.6,17.9-25.6c-0.7,0-2.4,1.2-5.7,4.5
		c2.1-3.3,2.4-4.5,1.7-4.5c-1.5,0-8,5.8-24.2,25.6c-16.3,19.8-19.2,25.5-17.8,25.5c0.9,0,3-1.8,5.7-4.4
		C212.4,99.3,212.1,100.5,212.8,100.5z"/>
	<path class="st0" d="M269.2,55.9h4l4.7-5.7h-4h-1.6h-4l-40.6,49.4h4h1.6h4l4.7-5.7h-4h-0.4L252,76.4h3.7l4.7-5.7h-3.7l12.2-14.8
		H269.2z M236.4,93.9h-2.9L248,76.4h2.9L236.4,93.9z M255.5,70.7h-2.9l12.2-14.8h2.9L255.5,70.7z"/>
	<polygon class="st0" points="83.1,144.8 128.2,106.9 130.1,106.9 136.9,101.2 131.5,101.2 124.8,106.9 126.6,106.9 81.4,144.8 
		79.6,144.8 72.8,150.5 78.2,150.5 84.9,144.8 	"/>
	<polygon class="st0" points="62.9,106.9 69.7,101.2 63.9,101.2 60.9,101.2 55.1,101.2 48.3,106.9 51.9,106.9 0,150.5 1.7,150.5 
		53.6,106.9 54.2,106.9 57.1,106.9 57.8,106.9 5.8,150.5 7.5,150.5 59.4,106.9 	"/>
	<polygon class="st0" points="82.8,101.2 58.5,121.6 54.3,121.6 78.7,101.2 77.7,101.2 77,101.2 76,101.2 51.7,121.6 47.5,121.6 
		71.9,101.2 70.2,101.2 11.5,150.5 13.2,150.5 40.8,127.3 44.9,127.3 17.3,150.5 18.3,150.5 19,150.5 20,150.5 47.6,127.3 
		51.7,127.3 24.1,150.5 25.8,150.5 84.5,101.2 	"/>
	<path class="st0" d="M41.4,144.8l20.8-17.5h5.3l6.8-5.7H69l17.6-14.8h0.6H93l6.8-5.7h-5.8h-2.3h-5.8l-58.7,49.4h5.8h2.3H41l6.8-5.7
		H42H41.4z M80.7,106.9h4.2l-17.6,14.8h-4.2L80.7,106.9z M35.5,144.8l20.8-17.5h4.2l-20.8,17.5H35.5z"/>
	<path class="st0" d="M98,127.3l6.8-5.7h-5.5l17.6-14.8h0.7h5.8l6.8-5.7h-5.8H122h-5.8l-58.7,49.4h1.7l27.6-23.2h4.2l-27.6,23.2H65
		l27.6-23.2H98z M93.5,121.6l17.6-14.8h4.2l-17.6,14.8H93.5z"/>
	<polygon class="st0" points="88.9,144.8 134.1,106.9 135.9,106.9 142.7,101.2 137.4,101.2 130.6,106.9 132.4,106.9 87.2,144.8 
		85.4,144.8 78.7,150.5 84,150.5 90.8,144.8 	"/>
	<path class="st0" d="M101.7,144.8h-0.6l20.8-17.5h5.3l6.8-5.7h-5.3l17.6-14.8h0.6h5.8l6.8-5.7h-5.8h-2.3h-5.8l-58.7,49.4h5.8H95
		h5.8l6.8-5.7H101.7z M140.5,106.9h4.2l-17.6,14.8h-4.2L140.5,106.9z M95.3,144.8l20.8-17.5h4.2l-20.8,17.5H95.3z"/>
	<path class="st0" d="M158.4,114.6c11.4-9.6,14.3-13.5,12.1-13.5h-4.4l-0.8,0.7c0.1-0.4-0.1-0.7-0.6-0.7h-4.4l-58.7,49.4h1.7
		l25.1-21.1h2.4l-12.4,11.9l-11,9.3h1.4l-1.3,1.2l5.4-3.3l8.7-8.4l12.6-10.6h2.4l-23.3,22.4l5.4-3.3l20.6-20
		C143.1,126.6,151.2,120.7,158.4,114.6z M133.5,128.4c0.1-0.1,0.3-0.2,0.5-0.2l-1.6,1.4L133.5,128.4z"/>
	<polygon class="st0" points="187.6,103.1 189.8,99.9 156.1,125.3 171.3,110.9 181.8,103.1 183.9,99.9 178.6,103.9 182.9,99.9 
		177.5,103.1 169.3,111 150.3,125.3 177,99.9 171.7,103.1 142.1,131.5 119.5,150.5 121.1,150.5 143.8,131.5 162.6,117.4 
		147.9,131.5 125.3,150.5 127,150.5 149.6,131.5 	"/>
	<path class="st0" d="M189.8,137.4c-6.1,4.5-11,8-12.5,8c-0.7,0-0.2-1,1.2-2.5c0.8-0.6,1.7-1.2,2.5-1.9l2.5-3.1
		c4.2-3.9,9.6-8.5,14-12.2c5-4.2,11.7-9.7,17.2-13.8l2-1.2c0.4-0.4,0.9-0.8,1.3-1.2c2.9-2,5-3.3,5.9-3.3c1.3,0-2.1,3.5-6.3,7.5
		l5-2.9c6.8-6.5,10.5-10.5,8.4-10.5c-0.9,0-3.4,1.2-7.9,4.2c1.8-2,2.8-3.3,2.7-3.9l3.5-3.1l14.2-20c2.6-1.8,8.2-7.8,13.2-13.8
		c7.9-9.6,9.9-13.5,8.4-13.5h-3.1l-0.5,0.6c0-0.4-0.1-0.6-0.4-0.6h-3.1l-40.6,49.4h1.2l17.4-21.1h1.7l-8.2,11.3l-8.1,9.8h1l-0.9,1.2
		l3.7-3.3l6.3-8.8l8.4-10.2h1.7l-15.9,22.1c-0.1-0.2-0.2-0.3-0.5-0.3c-1.9,0-10,4.8-28.7,20.1c18-15.5,21.3-20.1,19.4-20.1
		c-1,0-3.6,1.3-8.5,4.7c3.2-3.4,3.6-4.7,2.6-4.7c-2.1,0-11.5,5.8-35,25.6s-27.8,25.5-25.7,25.5c1.3,0,4.5-1.9,8.4-4.6
		c-3.1,3.4-3.6,4.6-2.6,4.6c3.4,0,18.9-12.3,28.3-20c-12,10.4-22.1,20-18.9,20c1.2,0,3.8-1.4,7.4-3.8c-2.1,2.4-2.9,3.8-1.6,3.8
		c2,0,8.1-4.1,16.6-10.3L189.8,137.4z M239.4,77.5c0.1,0,0.1-0.1,0.2-0.1l-0.6,0.7L239.4,77.5z M191.7,125.8
		c9-7.6,23.7-19.5,26.3-19.5c0.8,0-0.3,1.4-2.3,3.4c-5.1,3.9-11.8,9.1-20.1,16.2c-7,5.9-14,12-18.9,16.8c-2.5,1.7-4.4,2.8-5.2,2.8
		C168.8,145.4,182.6,133.4,191.7,125.8z"/>
	<path class="st0" d="M243.1,129.8L228,142.6l-0.3,0.2l37.6-35.2l7.6-6.4h-0.8h-0.9h-1.2L233,132.4l33.3-31.2h-2.1l-52.3,44l48.6-44
		h-2.1L230.6,123l24.1-21.9h-2.1L197,144.8h-5.6h-0.6l20.8-17.5h5.3l6.8-5.7h-5.3l17.6-14.8h0.6h5.8l6.8-5.7h-5.8H241h-5.8
		l-58.7,49.4h5.8h2.3h5.8l0.3-0.2l-0.7,1.5l18.7-14.7h4l-15.8,12.4l-1.1,2.3l9.2-7.3l-8,7.3l4.3-2.3l13.7-12.4h4l-16.3,14.7l3.4-1.8
		l-0.6,0.5h1.7l33.9-28.5l15.2-12.9l0.2-0.2L219,144.2l-7.5,6.3h0.8h0.9h1.2l36.8-31l-33.1,31h2.1l58.7-49.4h-1.7L243.1,129.8z
		 M230.1,106.9h4.2l-17.6,14.8h-4.2L230.1,106.9z M185,144.8l20.8-17.5h4.2l-20.8,17.5H185z"/>
</g>
</svg>
