<svg id="Layer_1" data-name="Layer 1" xmlns="http://www.w3.org/2000/svg" viewBox="0 0 278.81 151.76"><polygon points="114.58 37.14 103.48 51.83 104.11 49.56 140.68 1.23 141.95 1.23 110.23 49.56 107.65 51.83 117.31 37.14 114.58 37.14"/><polygon points="136.09 8.62 118.86 31.46 121.05 31.46 136.09 8.62"/><path d="M123.61,49.81l4-5.69h.79l26.84-38h-.8l4-5.69h2.43c2,0-.56,4.74-6.52,13.17a87.77,87.77,0,0,1-8,10.14c-.35,1.7-3.16,6.35-7.1,11.94-6.3,8.91-10.9,14.12-12.51,14.12Z" transform="translate(-2.05 0.79)"/><path d="M130.57,44.12c.87,0,2.56-1.23,7.31-8,3.48-4.92,5.79-8.9,4.84-8.9h-1.39L129.41,44.12Z" transform="translate(-2.05 0.79)"/><path d="M146.45,21.57c.85,0,3.76-3.5,6.91-8,4.15-5.87,4.64-7.48,3.94-7.48h-1.05L145.34,21.57Z" transform="translate(-2.05 0.79)"/><path d="M167.76.44h2.62c1.28,0-.45,3.89-7.2,13.46-4.29,6.06-9.14,12-11.34,13.83l-12.23,20L136.4,51l13.83-22.36h-1.44L133.87,49.81h-1Z" transform="translate(-2.05 0.79)"/><path d="M154.11,23c1,0,4.08-3.5,8-9.09,3.14-4.46,5.06-7.77,4.18-7.77h-1.6L152.81,23Z" transform="translate(-2.05 0.79)"/><polygon points="144.38 44.91 145.46 44.91 172.3 6.92 171.22 6.92 175.24 1.23 178.4 1.23 174.38 6.92 173.29 6.92 146.45 44.91 147.54 44.91 143.53 50.6 140.36 50.6 144.38 44.91"/><path d="M158.68,45.26c-2.91,3.22-5.4,5.4-6.18,5.4-2.26,0,6.59-13.46,15.16-25.58,8.43-11.94,18.69-25.49,20.9-25.49,1,0-.81,3.88-4.24,9.47L181,12.57c2.43-4,4-7,3.26-7-1.52,0-10.42,12.22-15.71,19.71-5.42,7.67-13.46,19.42-11.91,19.42.5,0,1.61-.85,3.25-2.56l9.17-13h-1.85l4-5.68h2.84Z" transform="translate(-2.05 0.79)"/><polygon points="192.06 1.23 193.05 1.23 178.59 21.7 181.64 21.7 196.1 1.23 197.09 1.23 162.21 50.6 161.22 50.6 177.62 27.38 174.57 27.38 158.17 50.6 157.18 50.6 192.06 1.23"/><polygon points="198.96 6.92 196.83 6.92 200.85 1.23 206.05 1.23 202.03 6.92 199.95 6.92 169.09 50.6 168.1 50.6 198.96 6.92"/><polygon points="224.18 0 223.51 2.27 185.54 51.83 185.37 51.83 217.41 2.27 219.98 0 196.5 36.2 224.18 0"/><path d="M217.39,25.17c-2.81,4-18,25.49-20.74,25.49-1.24,0,1.28-5.69,15.27-25.49S231.46-.41,232.73-.41,231.45,5.27,217.39,25.17Z" transform="translate(-2.05 0.79)"/><path d="M213,25.17c-5.09,7.2-13.59,19.52-12.09,19.52s10.41-12.32,15.49-19.52S230,5.56,228.51,5.56,218.12,17.87,213,25.17Z" transform="translate(-2.05 0.79)"/><polygon points="237.04 1.23 238.03 1.23 207.17 44.91 211.21 44.91 207.19 50.6 202.16 50.6 237.04 1.23"/><path d="M224.46,40.33c-5,6.26-8.65,10.33-9.85,10.33-2.25,0,6.42-13.27,15-25.49,13.92-19.71,19.71-25.58,21-25.58s-.92,4-5,10.51l-3,2.94c2.48-4,4.52-7.48,3.76-7.48-1.53,0-10.28,11.94-15.64,19.52s-13.57,19.61-12,19.61c.91,0,3.84-3.5,7.45-8Z" transform="translate(-2.05 0.79)"/><polygon points="229.98 37.14 218.88 51.83 219.5 49.56 256.08 1.23 257.35 1.23 225.63 49.56 223.05 51.83 232.71 37.14 229.98 37.14"/><polygon points="251.49 8.62 234.26 31.46 236.45 31.46 251.49 8.62"/><polygon points="263.02 1.23 264.24 1.23 237.84 42.83 238.01 42.64 246.96 29.85 267.17 1.23 268.16 1.23 233.28 50.6 232.06 50.6 258.45 9 258.29 9.19 249.28 22.08 229.13 50.6 228.14 50.6 263.02 1.23"/><path d="M261.77,25.17c-2.81,4-18,25.49-20.74,25.49-1.24,0,1.29-5.69,15.27-25.49S275.85-.41,277.12-.41,275.83,5.27,261.77,25.17Z" transform="translate(-2.05 0.79)"/><path d="M257.33,25.17c-5.08,7.2-13.58,19.52-12.09,19.52s10.41-12.32,15.5-19.52S274.39,5.56,272.89,5.56,262.5,17.87,257.33,25.17Z" transform="translate(-2.05 0.79)"/><polygon points="118.04 37.14 106.94 51.83 107.57 49.56 144.14 1.23 145.41 1.23 113.69 49.56 111.11 51.83 120.78 37.14 118.04 37.14"/><polygon points="139.55 8.62 122.33 31.46 124.52 31.46 139.55 8.62"/><path d="M127.07,49.81l4-5.69h.8l26.83-38h-.8l4-5.69h2.42c1.95,0-.56,4.74-6.52,13.17a89,89,0,0,1-8,10.14c-.35,1.7-3.17,6.35-7.11,11.94-6.29,8.91-10.9,14.12-12.51,14.12Z" transform="translate(-2.05 0.79)"/><path d="M134,44.12c.87,0,2.56-1.23,7.31-8,3.48-4.92,5.79-8.9,4.84-8.9h-1.39L132.88,44.12Z" transform="translate(-2.05 0.79)"/><path d="M149.91,21.57c.86,0,3.76-3.5,6.91-8,4.15-5.87,4.64-7.48,3.94-7.48h-1L148.8,21.57Z" transform="translate(-2.05 0.79)"/><path d="M171.22.44h2.62c1.29,0-.44,3.89-7.2,13.46-4.29,6.06-9.13,12-11.34,13.83l-12.23,20L139.86,51l13.83-22.36h-1.44L137.33,49.81h-1Z" transform="translate(-2.05 0.79)"/><path d="M157.58,23c1,0,4.07-3.5,8-9.09,3.15-4.46,5.07-7.77,4.18-7.77h-1.6L156.27,23Z" transform="translate(-2.05 0.79)"/><polygon points="147.84 44.91 148.92 44.91 175.76 6.92 174.68 6.92 178.7 1.23 181.87 1.23 177.84 6.92 176.75 6.92 149.91 44.91 151.01 44.91 146.99 50.6 143.82 50.6 147.84 44.91"/><path d="M162.14,45.26c-2.91,3.22-5.39,5.4-6.18,5.4-2.26,0,6.59-13.46,15.16-25.58C179.55,13.14,189.81-.41,192-.41c1,0-.81,3.88-4.24,9.47l-3.3,3.51c2.43-4,4-7,3.25-7-1.52,0-10.41,12.22-15.71,19.71-5.41,7.67-13.46,19.42-11.91,19.42.51,0,1.61-.85,3.25-2.56l9.17-13h-1.85l4-5.68h2.84Z" transform="translate(-2.05 0.79)"/><polygon points="195.52 1.23 196.51 1.23 182.06 21.7 185.1 21.7 199.56 1.23 200.55 1.23 165.67 50.6 164.68 50.6 181.08 27.38 178.03 27.38 161.63 50.6 160.65 50.6 195.52 1.23"/><polygon points="202.42 6.92 200.29 6.92 204.31 1.23 209.52 1.23 205.5 6.92 203.41 6.92 172.55 50.6 171.56 50.6 202.42 6.92"/><polygon points="227.64 0 226.97 2.27 189 51.83 188.83 51.83 220.88 2.27 223.44 0 199.96 36.2 227.64 0"/><path d="M220.85,25.17c-2.81,4-18,25.49-20.74,25.49-1.24,0,1.28-5.69,15.27-25.49S234.92-.41,236.2-.41,234.91,5.27,220.85,25.17Z" transform="translate(-2.05 0.79)"/><path d="M216.41,25.17c-5.08,7.2-13.58,19.52-12.09,19.52s10.41-12.32,15.49-19.52S233.46,5.56,232,5.56,221.58,17.87,216.41,25.17Z" transform="translate(-2.05 0.79)"/><polygon points="240.5 1.23 241.49 1.23 210.63 44.91 214.67 44.91 210.65 50.6 205.62 50.6 240.5 1.23"/><path d="M227.92,40.33c-5,6.26-8.65,10.33-9.85,10.33-2.25,0,6.42-13.27,15.05-25.49C247,5.46,252.83-.41,254.07-.41s-.92,4-5,10.51l-3,2.94c2.49-4,4.52-7.48,3.77-7.48-1.54,0-10.29,11.94-15.64,19.52s-13.58,19.61-12,19.61c.9,0,3.84-3.5,7.44-8Z" transform="translate(-2.05 0.79)"/><polygon points="233.44 37.14 222.34 51.83 222.97 49.56 259.54 1.23 260.81 1.23 229.09 49.56 226.51 51.83 236.17 37.14 233.44 37.14"/><polygon points="254.95 8.62 237.72 31.46 239.91 31.46 254.95 8.62"/><polygon points="266.48 1.23 267.71 1.23 241.3 42.83 241.47 42.64 250.42 29.85 270.63 1.23 271.62 1.23 236.75 50.6 235.52 50.6 261.91 9 261.76 9.19 252.74 22.08 232.59 50.6 231.6 50.6 266.48 1.23"/><path d="M265.23,25.17c-2.81,4-18,25.49-20.74,25.49-1.24,0,1.29-5.69,15.27-25.49S279.31-.41,280.58-.41,279.29,5.27,265.23,25.17Z" transform="translate(-2.05 0.79)"/><path d="M260.8,25.17c-5.09,7.2-13.59,19.52-12.1,19.52s10.41-12.32,15.5-19.52S277.85,5.56,276.35,5.56,266,17.87,260.8,25.17Z" transform="translate(-2.05 0.79)"/><path d="M135.85,49.47h3.05c1.5,0-.52,3.89-8.38,13.46-5,6.06-10.64,12-13.2,13.83l-14.26,20-3.73,3.31,16.1-22.36h-1.67L96.39,98.84H95.23Z" transform="translate(-2.05 0.79)"/><path d="M120,72c1.14,0,4.75-3.5,9.35-9.09,3.67-4.46,5.91-7.77,4.87-7.77h-1.86L118.45,72Z" transform="translate(-2.05 0.79)"/><polygon points="144.28 50.26 149.88 50.26 145.19 55.95 140.75 55.95 128.59 70.73 132.26 70.73 127.58 76.42 123.91 76.42 109.5 93.94 113.94 93.94 109.26 99.63 103.66 99.63 144.28 50.26"/><path d="M129.49,83.2c-4.77,6.07-7.9,10.53-6.7,10.53.95,0,4-2.85,8.56-8.34,5-6.07,5.31-7.59,6.08-9.58,1.17-3,1.5-4.92,9.14-14.21,6.85-8.34,11.9-13,13.31-13S158.35,53.36,152.4,61l-2.58,1.79c3.77-4.83,6.11-8.24,5.13-8.24-.75,0-3.18,2.09-6.84,6.54-3.83,4.64-4.48,6.06-5.12,7.67l-1.9,4.64c-1.23,2.47-4.06,6.45-8.28,11.57-7.71,9.38-13.26,14.68-14.92,14.68S120,93.82,127,85Z" transform="translate(-2.05 0.79)"/><polygon points="129.64 93.94 130.89 93.94 162.15 55.95 160.89 55.95 165.57 50.26 169.26 50.26 164.58 55.95 163.3 55.95 132.05 93.94 133.32 93.94 128.64 99.63 124.95 99.63 129.64 93.94"/><path d="M176.69,49.47h3c2.55,0-1.05,5.78-16.1,24.07-12.71,15.45-21.3,25.3-24.52,25.3h-3l4.68-5.69h.93l31.25-38H172Z" transform="translate(-2.05 0.79)"/><path d="M142.83,93.15h1.22c1.52,0,6.08-4.73,17.77-18.94,12.47-15.17,14.88-19,13.46-19h-1.19Z" transform="translate(-2.05 0.79)"/><polygon points="185.63 50.26 191.23 50.26 186.54 55.95 182.1 55.95 169.94 70.73 173.61 70.73 168.93 76.42 165.26 76.42 150.84 93.94 155.29 93.94 150.61 99.63 145.01 99.63 185.63 50.26"/><path d="M170.84,83.2c-4.77,6.07-7.9,10.53-6.7,10.53,1,0,4-2.85,8.56-8.34,5-6.07,5.31-7.59,6.08-9.58,1.17-3,1.5-4.92,9.14-14.21,6.85-8.34,11.9-13,13.31-13S199.7,53.36,193.75,61l-2.58,1.79c3.77-4.83,6.11-8.24,5.12-8.24-.74,0-3.17,2.09-6.83,6.54-3.83,4.64-4.48,6.06-5.12,7.67l-1.9,4.64c-1.23,2.47-4.06,6.45-8.28,11.57-7.71,9.38-13.26,14.68-14.92,14.68s2.11-5.87,9.09-14.68Z" transform="translate(-2.05 0.79)"/><path d="M177.47,98.84l4.68-5.69h.93l31.25-38h-.92l4.68-5.69h2.82c2.27,0-.65,4.74-7.59,13.17A92.28,92.28,0,0,1,204,72.78c-.4,1.7-3.68,6.35-8.28,11.94-7.32,8.91-12.69,14.12-14.56,14.12Z" transform="translate(-2.05 0.79)"/><path d="M185.58,93.15c1,0,3-1.23,8.51-8,4-4.92,6.74-8.9,5.64-8.9h-1.62L184.23,93.15Z" transform="translate(-2.05 0.79)"/><path d="M204.07,70.6c1,0,4.38-3.5,8.05-8,4.83-5.87,5.4-7.48,4.59-7.48h-1.22L202.78,70.6Z" transform="translate(-2.05 0.79)"/><polygon points="226.98 50.26 232.58 50.26 227.89 55.95 223.45 55.95 211.29 70.73 214.96 70.73 210.28 76.42 206.61 76.42 192.19 93.94 196.64 93.94 191.96 99.63 186.36 99.63 226.98 50.26"/><polygon points="237.64 50.26 243.29 50.26 238.61 55.95 234.12 55.95 221.96 70.73 225.73 70.73 221.05 76.42 217.28 76.42 198.18 99.63 197.02 99.63 237.64 50.26"/><path d="M235,74.21c-3.27,4-21,25.48-24.15,25.48-1.44,0,1.5-5.69,17.78-25.48s22.76-25.59,24.24-25.59S251.37,54.31,235,74.21Z" transform="translate(-2.05 0.79)"/><path d="M229.83,74.21C223.91,81.4,214,93.73,215.74,93.73s12.13-12.33,18-19.52S249.69,54.59,248,54.59,235.84,66.91,229.83,74.21Z" transform="translate(-2.05 0.79)"/><path d="M259.9,49.47H263c1.5,0-.52,3.89-8.38,13.46-5,6.06-10.64,12-13.21,13.83l-14.25,20-3.73,3.31,16.1-22.36h-1.67L220.43,98.84h-1.15Z" transform="translate(-2.05 0.79)"/><path d="M244,72c1.14,0,4.75-3.5,9.35-9.09,3.67-4.46,5.91-7.77,4.87-7.77h-1.86L242.5,72Z" transform="translate(-2.05 0.79)"/><polygon points="268.33 50.26 273.93 50.26 269.24 55.95 264.8 55.95 252.64 70.73 256.31 70.73 251.63 76.42 247.96 76.42 233.54 93.94 237.99 93.94 233.31 99.63 227.71 99.63 268.33 50.26"/><path d="M139.88,49.47h3.05c1.5,0-.52,3.89-8.38,13.46-5,6.06-10.64,12-13.2,13.83l-14.25,20-3.74,3.31,16.11-22.36H117.8L100.42,98.84H99.26Z" transform="translate(-2.05 0.79)"/><path d="M124,72c1.14,0,4.75-3.5,9.36-9.09,3.66-4.46,5.9-7.77,4.87-7.77h-1.86L122.48,72Z" transform="translate(-2.05 0.79)"/><polygon points="148.31 50.26 153.91 50.26 149.23 55.95 144.78 55.95 132.63 70.73 136.29 70.73 131.61 76.42 127.94 76.42 113.53 93.94 117.97 93.94 113.29 99.63 107.69 99.63 148.31 50.26"/><path d="M133.53,83.2c-4.78,6.07-7.91,10.53-6.7,10.53.94,0,4-2.85,8.55-8.34,5-6.07,5.31-7.59,6.08-9.58,1.17-3,1.5-4.92,9.14-14.21,6.85-8.34,11.9-13,13.31-13s-1.53,4.74-7.48,12.42l-2.58,1.79C157.62,58,160,54.59,159,54.59c-.74,0-3.18,2.09-6.84,6.54-3.83,4.64-4.48,6.06-5.12,7.67l-1.9,4.64c-1.23,2.47-4.06,6.45-8.27,11.57-7.72,9.38-13.27,14.68-14.93,14.68S124,93.82,131,85Z" transform="translate(-2.05 0.79)"/><polygon points="133.67 93.94 134.93 93.94 166.18 55.95 164.92 55.95 169.61 50.26 173.29 50.26 168.61 55.95 167.34 55.95 136.08 93.94 137.35 93.94 132.67 99.63 128.99 99.63 133.67 93.94"/><path d="M180.72,49.47h3c2.55,0-1.05,5.78-16.1,24.07-12.71,15.45-21.3,25.3-24.52,25.3h-3l4.68-5.69h.93l31.25-38H176Z" transform="translate(-2.05 0.79)"/><path d="M146.86,93.15h1.23c1.51,0,6.07-4.73,17.76-18.94,12.47-15.17,14.89-19,13.46-19h-1.19Z" transform="translate(-2.05 0.79)"/><polygon points="189.66 50.26 195.26 50.26 190.58 55.95 186.13 55.95 173.97 70.73 177.64 70.73 172.96 76.42 169.29 76.42 154.88 93.94 159.32 93.94 154.64 99.63 149.04 99.63 189.66 50.26"/><path d="M174.88,83.2c-4.78,6.07-7.91,10.53-6.71,10.53,1,0,4.05-2.85,8.56-8.34,5-6.07,5.31-7.59,6.08-9.58,1.17-3,1.5-4.92,9.14-14.21,6.85-8.34,11.9-13,13.31-13s-1.53,4.74-7.48,12.42l-2.58,1.79c3.77-4.83,6.11-8.24,5.13-8.24-.74,0-3.18,2.09-6.84,6.54-3.83,4.64-4.48,6.06-5.12,7.67l-1.9,4.64c-1.23,2.47-4.06,6.45-8.27,11.57-7.72,9.38-13.27,14.68-14.93,14.68s2.11-5.87,9.09-14.68Z" transform="translate(-2.05 0.79)"/><path d="M181.5,98.84l4.68-5.69h.93l31.26-38h-.93l4.68-5.69h2.82c2.28,0-.65,4.74-7.58,13.17A92.2,92.2,0,0,1,208,72.78c-.4,1.7-3.68,6.35-8.28,11.94-7.32,8.91-12.68,14.12-14.56,14.12Z" transform="translate(-2.05 0.79)"/><path d="M189.61,93.15c1,0,3-1.23,8.51-8,4-4.92,6.74-8.9,5.64-8.9h-1.62L188.26,93.15Z" transform="translate(-2.05 0.79)"/><path d="M208.1,70.6c1,0,4.38-3.5,8.05-8,4.83-5.87,5.4-7.48,4.59-7.48h-1.22L206.81,70.6Z" transform="translate(-2.05 0.79)"/><polygon points="231.01 50.26 236.61 50.26 231.93 55.95 227.48 55.95 215.32 70.73 218.99 70.73 214.31 76.42 210.64 76.42 196.23 93.94 200.67 93.94 195.99 99.63 190.39 99.63 231.01 50.26"/><polygon points="241.68 50.26 247.32 50.26 242.64 55.95 238.15 55.95 225.99 70.73 229.76 70.73 225.08 76.42 221.31 76.42 202.21 99.63 201.06 99.63 241.68 50.26"/><path d="M239,74.21c-3.27,4-21,25.48-24.14,25.48-1.45,0,1.49-5.69,17.77-25.48s22.77-25.59,24.25-25.59S255.4,54.31,239,74.21Z" transform="translate(-2.05 0.79)"/><path d="M233.86,74.21C227.94,81.4,218,93.73,219.78,93.73s12.12-12.33,18-19.52S253.72,54.59,252,54.59,239.87,66.91,233.86,74.21Z" transform="translate(-2.05 0.79)"/><path d="M263.93,49.47H267c1.5,0-.52,3.89-8.38,13.46-5,6.06-10.64,12-13.2,13.83l-14.25,20-3.74,3.31,16.11-22.36h-1.67L224.47,98.84h-1.16Z" transform="translate(-2.05 0.79)"/><path d="M248,72c1.14,0,4.75-3.5,9.36-9.09,3.66-4.46,5.9-7.77,4.86-7.77h-1.85L246.53,72Z" transform="translate(-2.05 0.79)"/><polygon points="272.36 50.26 277.96 50.26 273.28 55.95 268.83 55.95 256.68 70.73 260.34 70.73 255.66 76.42 251.99 76.42 237.58 93.94 242.02 93.94 237.34 99.63 231.74 99.63 272.36 50.26"/><polygon points="51.93 106.85 48.35 106.85 55.11 101.17 63.87 101.17 57.11 106.85 53.6 106.85 1.67 150.53 0 150.53 51.93 106.85"/><polygon points="70.2 101.17 71.87 101.17 47.54 121.63 52.67 121.63 77 101.17 78.66 101.17 19.97 150.53 18.3 150.53 45.9 127.31 40.77 127.31 13.17 150.53 11.51 150.53 70.2 101.17"/><polygon points="85.81 101.17 93.9 101.17 87.13 106.85 80.71 106.85 63.15 121.63 68.45 121.63 61.69 127.31 56.38 127.31 35.55 144.84 41.97 144.84 35.2 150.53 27.12 150.53 85.81 101.17"/><polygon points="116.17 101.17 124.33 101.17 117.56 106.85 111.07 106.85 93.5 121.63 98.95 121.63 92.19 127.31 86.74 127.31 59.14 150.53 57.47 150.53 116.17 101.17"/><polygon points="79.6 144.84 81.42 144.84 126.58 106.85 124.76 106.85 131.53 101.17 136.85 101.17 130.09 106.85 128.25 106.85 83.08 144.84 84.92 144.84 78.16 150.53 72.83 150.53 79.6 144.84"/><polygon points="145.57 101.17 153.66 101.17 146.89 106.85 140.47 106.85 122.91 121.63 128.21 121.63 121.44 127.31 116.14 127.31 95.31 144.84 101.73 144.84 94.96 150.53 86.88 150.53 145.57 101.17"/><path d="M162.36,100.37h4.41c2.16,0-.74,3.89-12.12,13.46-7.22,6.06-15.37,12-19.08,13.83l-20.59,20-5.4,3.32,23.27-22.36h-2.41l-25.11,21.13h-1.67Z" transform="translate(-2.05 0.79)"/><path d="M139.39,122.93c1.65,0,6.87-3.51,13.52-9.1,5.3-4.46,8.53-7.77,7-7.77h-2.69L137.2,122.93Z" transform="translate(-2.05 0.79)"/><polygon points="183.94 99.93 181.77 103.06 143.78 131.49 121.14 150.53 119.47 150.53 142.12 131.49 171.72 103.06 177.03 99.93 150.29 125.32 183.94 99.93"/><path d="M186.13,125.1c-4.74,4-30.38,25.49-34.91,25.49-2.09,0,2.16-5.68,25.7-25.49s32.9-25.58,35-25.58S209.8,105.2,186.13,125.1Z" transform="translate(-2.05 0.79)"/><path d="M178.66,125.1c-8.56,7.21-22.86,19.52-20.35,19.52s17.51-12.31,26.08-19.52,23-19.61,20.45-19.61S187.36,117.8,178.66,125.1Z" transform="translate(-2.05 0.79)"/><path d="M183.09,140.26c-8.48,6.26-14.56,10.33-16.58,10.33-3.78,0,10.81-13.27,25.33-25.49C215.26,105.4,225,99.52,227.1,99.52s-1.55,4-8.41,10.51l-5,2.94c4.18-4,7.61-7.48,6.34-7.48-2.59,0-17.31,11.94-26.33,19.52s-22.84,19.61-20.2,19.61c1.51,0,6.45-3.5,12.53-8Z" transform="translate(-2.05 0.79)"/><polygon points="235.21 101.17 243.3 101.17 236.53 106.85 230.11 106.85 212.55 121.63 217.85 121.63 211.08 127.31 205.78 127.31 184.95 144.84 191.37 144.84 184.6 150.53 176.51 150.53 235.21 101.17"/><polygon points="208.72 137.07 190.03 151.76 191.09 149.49 252.64 101.17 254.78 101.17 201.39 149.49 197.05 151.76 213.32 137.07 208.72 137.07"/><polygon points="244.91 108.56 215.93 131.39 219.62 131.39 244.91 108.56"/><polygon points="264.32 101.17 266.38 101.17 221.94 142.76 222.23 142.57 237.29 129.78 271.31 101.17 272.98 101.17 214.28 150.53 212.22 150.53 256.63 108.93 256.38 109.12 241.19 122.01 207.29 150.53 205.62 150.53 264.32 101.17"/><polygon points="57.76 106.85 54.17 106.85 60.94 101.17 69.7 101.17 62.93 106.85 59.42 106.85 7.49 150.53 5.83 150.53 57.76 106.85"/><polygon points="76.03 101.17 77.69 101.17 53.37 121.63 58.49 121.63 82.82 101.17 84.49 101.17 25.79 150.53 24.13 150.53 51.73 127.31 46.6 127.31 19 150.53 17.33 150.53 76.03 101.17"/><polygon points="91.64 101.17 99.73 101.17 92.96 106.85 86.54 106.85 68.98 121.63 74.28 121.63 67.51 127.31 62.21 127.31 41.38 144.84 47.8 144.84 41.03 150.53 32.94 150.53 91.64 101.17"/><polygon points="121.99 101.17 130.16 101.17 123.39 106.85 116.89 106.85 99.33 121.63 104.78 121.63 98.01 127.31 92.56 127.31 64.96 150.53 63.3 150.53 121.99 101.17"/><polygon points="85.42 144.84 87.24 144.84 132.41 106.85 130.59 106.85 137.35 101.17 142.68 101.17 135.91 106.85 134.07 106.85 88.91 144.84 90.75 144.84 83.98 150.53 78.66 150.53 85.42 144.84"/><polygon points="151.4 101.17 159.49 101.17 152.72 106.85 146.3 106.85 128.74 121.63 134.04 121.63 127.27 127.31 121.97 127.31 101.14 144.84 107.56 144.84 100.79 150.53 92.7 150.53 151.4 101.17"/><path d="M168.19,100.37h4.4c2.17,0-.74,3.89-12.11,13.46-7.22,6.06-15.37,12-19.08,13.83l-20.59,20-5.4,3.32,23.27-22.36h-2.42l-25.1,21.13h-1.67Z" transform="translate(-2.05 0.79)"/><path d="M145.22,122.93c1.64,0,6.87-3.51,13.52-9.1,5.3-4.46,8.53-7.77,7-7.77h-2.69L143,122.93Z" transform="translate(-2.05 0.79)"/><polygon points="189.77 99.93 187.6 103.06 149.61 131.49 126.96 150.53 125.3 150.53 147.94 131.49 177.54 103.06 182.85 99.93 156.12 125.32 189.77 99.93"/><path d="M192,125.1c-4.74,4-30.38,25.49-34.91,25.49-2.09,0,2.16-5.68,25.7-25.49s32.89-25.58,35-25.58S215.62,105.2,192,125.1Z" transform="translate(-2.05 0.79)"/><path d="M184.49,125.1c-8.56,7.21-22.87,19.52-20.35,19.52s17.51-12.31,26.07-19.52,23-19.61,20.46-19.61S193.18,117.8,184.49,125.1Z" transform="translate(-2.05 0.79)"/><path d="M188.92,140.26c-8.48,6.26-14.57,10.33-16.58,10.33-3.79,0,10.8-13.27,25.32-25.49,23.43-19.7,33.17-25.58,35.26-25.58s-1.55,4-8.4,10.51l-5,2.94c4.19-4,7.61-7.48,6.34-7.48-2.59,0-17.3,11.94-26.32,19.52s-22.85,19.61-20.21,19.61c1.52,0,6.46-3.5,12.53-8Z" transform="translate(-2.05 0.79)"/><polygon points="241.04 101.17 249.13 101.17 242.36 106.85 235.94 106.85 218.38 121.63 223.68 121.63 216.91 127.31 211.61 127.31 190.78 144.84 197.19 144.84 190.43 150.53 182.34 150.53 241.04 101.17"/><polygon points="214.54 137.07 195.86 151.76 196.92 149.49 258.47 101.17 260.61 101.17 207.22 149.49 202.88 151.76 219.15 137.07 214.54 137.07"/><polygon points="250.74 108.56 221.76 131.39 225.44 131.39 250.74 108.56"/><polygon points="270.14 101.17 272.21 101.17 227.77 142.76 228.05 142.57 243.12 129.78 277.14 101.17 278.81 101.17 220.11 150.53 218.04 150.53 262.46 108.93 262.2 109.12 247.02 122.01 213.12 150.53 211.45 150.53 270.14 101.17"/></svg>