<?xml version="1.0" encoding="utf-8"?>
<!-- Generator: Adobe Illustrator 25.2.1, SVG Export Plug-In . SVG Version: 6.00 Build 0)  -->
<svg version="1.1" id="Layer_1" xmlns="http://www.w3.org/2000/svg" xmlns:xlink="http://www.w3.org/1999/xlink" x="0px" y="0px"
	 viewBox="0 0 280.8 151" style="enable-background:new 0 0 280.8 151;" xml:space="preserve">
<style type="text/css">
	.st0{fill:url(#SVGID_1_);}
	.st1{fill:url(#SVGID_2_);}
	.st2{fill:url(#SVGID_3_);}
	.st3{fill:url(#SVGID_4_);}
	.st4{fill:url(#SVGID_5_);}
	.st5{fill:url(#SVGID_6_);}
	.st6{fill:url(#SVGID_7_);}
	.st7{fill:url(#SVGID_8_);}
	.st8{fill:url(#SVGID_9_);}
	.st9{fill:url(#SVGID_10_);}
	.st10{fill:url(#SVGID_11_);}
	.st11{fill:url(#SVGID_12_);}
	.st12{fill:url(#SVGID_13_);}
	.st13{fill:none;stroke:url(#SVGID_14_);stroke-miterlimit:10;}
	.st14{fill:url(#SVGID_15_);}
	.st15{fill:url(#SVGID_16_);}
	.st16{fill:url(#SVGID_17_);}
	.st17{fill:url(#SVGID_18_);}
	.st18{fill:url(#SVGID_19_);}
	.st19{fill:url(#SVGID_20_);}
	.st20{fill:url(#SVGID_21_);}
	.st21{fill:url(#SVGID_22_);}
	.st22{fill:url(#SVGID_23_);}
	.st23{fill:url(#SVGID_24_);}
	.st24{fill:url(#SVGID_25_);}
	.st25{fill:url(#SVGID_26_);}
	.st26{fill:url(#SVGID_27_);}
	.st27{fill:url(#SVGID_28_);}
	.st28{fill:url(#SVGID_29_);}
	.st29{fill:url(#SVGID_30_);}
	.st30{fill:url(#SVGID_31_);}
	.st31{fill:url(#SVGID_32_);}
	.st32{fill:url(#SVGID_33_);}
	.st33{fill:url(#SVGID_34_);}
</style>
<linearGradient id="SVGID_1_" gradientUnits="userSpaceOnUse" x1="184.36" y1="614.11" x2="242.25" y2="614.11" gradientTransform="matrix(6.123234e-17 1 1 -6.123234e-17 -473.69 -91.66)">
	<stop  offset="0" style="stop-color:#00AA9E"/>
	<stop  offset="0.67" style="stop-color:#6800FF"/>
</linearGradient>
<path class="st0" d="M0,121.7L0,121.7c0-16,13-28.9,28.9-28.9h223c16,0,28.9,13,28.9,28.9v0c0,16-13,28.9-28.9,28.9h-223
	C13,150.6,0,137.6,0,121.7z"/>
<linearGradient id="SVGID_2_" gradientUnits="userSpaceOnUse" x1="184.36" y1="614.105" x2="240.81" y2="614.105" gradientTransform="matrix(6.123234e-17 1 1 -6.123234e-17 -473.69 -91.66)">
	<stop  offset="0" style="stop-color:#00AA9E"/>
	<stop  offset="0.67" style="stop-color:#6800FF"/>
</linearGradient>
<path class="st1" d="M3.5,120.9L3.5,120.9c0-15.6,12.6-28.2,28.2-28.2h217.4c15.6,0,28.2,12.6,28.2,28.2v0
	c0,15.6-12.6,28.2-28.2,28.2H31.7C16.1,149.2,3.5,136.5,3.5,120.9z"/>
<linearGradient id="SVGID_3_" gradientUnits="userSpaceOnUse" x1="184.36" y1="614.1" x2="239.1" y2="614.1" gradientTransform="matrix(6.123234e-17 1 1 -6.123234e-17 -473.68 -91.65)">
	<stop  offset="0" style="stop-color:#00AA9E"/>
	<stop  offset="0.67" style="stop-color:#6800FF"/>
</linearGradient>
<path class="st2" d="M7.6,120.1L7.6,120.1C7.6,105,19.9,92.7,35,92.7h210.8c15.1,0,27.4,12.3,27.4,27.4v0
	c0,15.1-12.3,27.4-27.4,27.4H35C19.9,147.4,7.6,135.2,7.6,120.1z"/>
<linearGradient id="SVGID_4_" gradientUnits="userSpaceOnUse" x1="184.37" y1="614.11" x2="236.26" y2="614.11" gradientTransform="matrix(6.123234e-17 1 1 -6.123234e-17 -473.69 -91.66)">
	<stop  offset="0" style="stop-color:#00AA9E"/>
	<stop  offset="0.67" style="stop-color:#6800FF"/>
</linearGradient>
<path class="st3" d="M14.5,118.7L14.5,118.7c0-14.3,11.6-25.9,26-25.9h199.9c14.3,0,25.9,11.6,25.9,25.9l0,0
	c0,14.3-11.6,25.9-25.9,25.9H40.5C26.2,144.6,14.5,133,14.5,118.7z"/>
<linearGradient id="SVGID_5_" gradientUnits="userSpaceOnUse" x1="184.37" y1="614.11" x2="232.33" y2="614.11" gradientTransform="matrix(6.123234e-17 1 1 -6.123234e-17 -473.69 -91.66)">
	<stop  offset="0" style="stop-color:#00AA9E"/>
	<stop  offset="0.67" style="stop-color:#6800FF"/>
</linearGradient>
<path class="st4" d="M24.1,116.7L24.1,116.7c0-13.2,10.7-24,24-24h184.7c13.2,0,24,10.7,24,24l0,0c0,13.2-10.7,24-24,24H48
	C34.8,140.7,24.1,129.9,24.1,116.7z"/>
<linearGradient id="SVGID_6_" gradientUnits="userSpaceOnUse" x1="184.37" y1="614.11" x2="225.28" y2="614.11" gradientTransform="matrix(6.123234e-17 1 1 -6.123234e-17 -473.69 -91.66)">
	<stop  offset="0" style="stop-color:#00AA9E"/>
	<stop  offset="0.67" style="stop-color:#6800FF"/>
</linearGradient>
<path class="st5" d="M41.2,113.2L41.2,113.2c0-11.3,9.2-20.5,20.5-20.5h157.6c11.3,0,20.5,9.2,20.5,20.5l0,0
	c0,11.3-9.2,20.5-20.5,20.5H61.6C50.3,133.6,41.2,124.5,41.2,113.2z"/>
<linearGradient id="SVGID_7_" gradientUnits="userSpaceOnUse" x1="184.36" y1="614.115" x2="220.51" y2="614.115" gradientTransform="matrix(6.123234e-17 1 1 -6.123234e-17 -473.69 -91.66)">
	<stop  offset="0" style="stop-color:#00AA9E"/>
	<stop  offset="0.67" style="stop-color:#6800FF"/>
</linearGradient>
<path class="st6" d="M52.7,110.8L52.7,110.8c0-10,8.1-18.1,18.1-18.1H210c10,0,18.1,8.1,18.1,18.1l0,0c0,10-8.1,18.1-18.1,18.1H70.8
	C60.8,128.9,52.7,120.8,52.7,110.8z"/>
<linearGradient id="SVGID_8_" gradientUnits="userSpaceOnUse" x1="103.58" y1="76.515" x2="214.78" y2="76.515" gradientTransform="matrix(1 0 0 -1 0 152)">
	<stop  offset="0" style="stop-color:#6800FF"/>
	<stop  offset="8.000000e-02" style="stop-color:#6209FA"/>
	<stop  offset="0.22" style="stop-color:#5323EB"/>
	<stop  offset="0.4" style="stop-color:#394CD3"/>
	<stop  offset="0.61" style="stop-color:#1685B3"/>
	<stop  offset="0.73" style="stop-color:#00AA9E"/>
</linearGradient>
<path class="st7" d="M159.2,0L159.2,0c30.7,0,55.6,24.9,55.6,55.6v39.8c0,30.7-24.9,55.6-55.6,55.6l0,0c-30.7,0-55.6-24.9-55.6-55.6
	V55.6C103.6,24.9,128.5,0,159.2,0z"/>
<linearGradient id="SVGID_9_" gradientUnits="userSpaceOnUse" x1="106.34" y1="76.515" x2="214.78" y2="76.515" gradientTransform="matrix(1 0 0 -1 0 152)">
	<stop  offset="0" style="stop-color:#6800FF"/>
	<stop  offset="8.000000e-02" style="stop-color:#6209FA"/>
	<stop  offset="0.22" style="stop-color:#5323EB"/>
	<stop  offset="0.4" style="stop-color:#394CD3"/>
	<stop  offset="0.61" style="stop-color:#1685B3"/>
	<stop  offset="0.73" style="stop-color:#00AA9E"/>
</linearGradient>
<path class="st8" d="M160.6,1.9L160.6,1.9c29.9,0,54.2,24.3,54.2,54.2v38.8c0,29.9-24.3,54.2-54.2,54.2l0,0
	c-29.9,0-54.2-24.3-54.2-54.2V56.1C106.3,26.1,130.6,1.9,160.6,1.9z"/>
<linearGradient id="SVGID_10_" gradientUnits="userSpaceOnUse" x1="109.63" y1="76.51" x2="214.78" y2="76.51" gradientTransform="matrix(1 0 0 -1 0 152)">
	<stop  offset="0" style="stop-color:#6800FF"/>
	<stop  offset="8.000000e-02" style="stop-color:#6209FA"/>
	<stop  offset="0.22" style="stop-color:#5323EB"/>
	<stop  offset="0.4" style="stop-color:#394CD3"/>
	<stop  offset="0.61" style="stop-color:#1685B3"/>
	<stop  offset="0.73" style="stop-color:#00AA9E"/>
</linearGradient>
<path class="st9" d="M162.2,4.1L162.2,4.1c29,0,52.6,23.5,52.6,52.6v37.6c0,29-23.5,52.6-52.6,52.6h0c-29,0-52.6-23.5-52.6-52.6
	V56.7C109.6,27.6,133.2,4.1,162.2,4.1z"/>
<linearGradient id="SVGID_11_" gradientUnits="userSpaceOnUse" x1="115.1" y1="76.51" x2="214.78" y2="76.51" gradientTransform="matrix(1 0 0 -1 0 152)">
	<stop  offset="0" style="stop-color:#6800FF"/>
	<stop  offset="8.000000e-02" style="stop-color:#6209FA"/>
	<stop  offset="0.22" style="stop-color:#5323EB"/>
	<stop  offset="0.4" style="stop-color:#394CD3"/>
	<stop  offset="0.61" style="stop-color:#1685B3"/>
	<stop  offset="0.73" style="stop-color:#00AA9E"/>
</linearGradient>
<path class="st10" d="M164.9,7.8L164.9,7.8c27.5,0,49.8,22.3,49.8,49.8v35.7c0,27.5-22.3,49.8-49.8,49.8l0,0
	c-27.5,0-49.8-22.3-49.8-49.8V57.7C115.1,30.1,137.4,7.8,164.9,7.8z"/>
<linearGradient id="SVGID_12_" gradientUnits="userSpaceOnUse" x1="122.64" y1="76.515" x2="214.78" y2="76.515" gradientTransform="matrix(1 0 0 -1 0 152)">
	<stop  offset="0" style="stop-color:#6800FF"/>
	<stop  offset="8.000000e-02" style="stop-color:#6209FA"/>
	<stop  offset="0.22" style="stop-color:#5323EB"/>
	<stop  offset="0.4" style="stop-color:#394CD3"/>
	<stop  offset="0.61" style="stop-color:#1685B3"/>
	<stop  offset="0.73" style="stop-color:#00AA9E"/>
</linearGradient>
<path class="st11" d="M168.7,12.9L168.7,12.9c25.4,0,46.1,20.6,46.1,46.1v33c0,25.4-20.6,46.1-46.1,46.1l0,0
	c-25.4,0-46.1-20.6-46.1-46.1V59C122.6,33.6,143.3,12.9,168.7,12.9z"/>
<linearGradient id="SVGID_13_" gradientUnits="userSpaceOnUse" x1="136.19" y1="76.515" x2="214.78" y2="76.515" gradientTransform="matrix(1 0 0 -1 0 152)">
	<stop  offset="0" style="stop-color:#6800FF"/>
	<stop  offset="8.000000e-02" style="stop-color:#6209FA"/>
	<stop  offset="0.22" style="stop-color:#5323EB"/>
	<stop  offset="0.4" style="stop-color:#394CD3"/>
	<stop  offset="0.61" style="stop-color:#1685B3"/>
	<stop  offset="0.73" style="stop-color:#00AA9E"/>
</linearGradient>
<path class="st12" d="M175.5,22.1L175.5,22.1c21.7,0,39.3,17.6,39.3,39.3v28.1c0,21.7-17.6,39.3-39.3,39.3l0,0
	c-21.7,0-39.3-17.6-39.3-39.3V61.4C136.2,39.7,153.8,22.1,175.5,22.1z"/>
<linearGradient id="SVGID_14_" gradientUnits="userSpaceOnUse" x1="144.84" y1="76.52" x2="215.29" y2="76.52" gradientTransform="matrix(1 0 0 -1 0 152)">
	<stop  offset="0" style="stop-color:#6800FF"/>
	<stop  offset="8.000000e-02" style="stop-color:#6209FA"/>
	<stop  offset="0.22" style="stop-color:#5323EB"/>
	<stop  offset="0.4" style="stop-color:#394CD3"/>
	<stop  offset="0.61" style="stop-color:#1685B3"/>
	<stop  offset="0.73" style="stop-color:#00AA9E"/>
</linearGradient>
<path class="st13" d="M180.1,28.3L180.1,28.3c19.2,0,34.7,15.5,34.7,34.7v24.8c0,19.2-15.5,34.7-34.7,34.7h0
	c-19.2,0-34.7-15.5-34.7-34.7V63.1C145.3,43.9,160.9,28.3,180.1,28.3z"/>
<linearGradient id="SVGID_15_" gradientUnits="userSpaceOnUse" x1="169.53" y1="76.515" x2="280.84" y2="76.515" gradientTransform="matrix(1 0 0 -1 0 152)">
	<stop  offset="0" style="stop-color:#00AA9E"/>
	<stop  offset="0.67" style="stop-color:#6800FF"/>
</linearGradient>
<path class="st14" d="M225.9,149.1h-1.5c-30.3,0-54.9-24.6-54.9-54.9V56.8c0-30.3,24.6-54.9,54.9-54.9h1.5
	c30.3,0,54.9,24.6,54.9,54.9v37.4C280.8,124.5,256.2,149.1,225.9,149.1z"/>
<linearGradient id="SVGID_16_" gradientUnits="userSpaceOnUse" x1="169.54" y1="76.52" x2="277.47" y2="76.52" gradientTransform="matrix(1 0 0 -1 0 152)">
	<stop  offset="0" style="stop-color:#00AA9E"/>
	<stop  offset="0.67" style="stop-color:#6800FF"/>
</linearGradient>
<path class="st15" d="M224.2,146.9h-1.4c-29.4,0-53.3-23.8-53.3-53.3V57.4c0-29.4,23.8-53.3,53.3-53.3h1.4
	c29.4,0,53.3,23.8,53.3,53.3v36.2C277.5,123,253.6,146.9,224.2,146.9z"/>
<linearGradient id="SVGID_17_" gradientUnits="userSpaceOnUse" x1="169.54" y1="76.52" x2="271.86" y2="76.52" gradientTransform="matrix(1 0 0 -1 0 152)">
	<stop  offset="0" style="stop-color:#00AA9E"/>
	<stop  offset="0.67" style="stop-color:#6800FF"/>
</linearGradient>
<path class="st16" d="M221.4,143.1H220c-27.9,0-50.5-22.6-50.5-50.5V58.3c0-27.9,22.6-50.5,50.5-50.5h1.3
	c27.9,0,50.5,22.6,50.5,50.5v34.3C271.9,120.5,249.3,143.1,221.4,143.1z"/>
<linearGradient id="SVGID_18_" gradientUnits="userSpaceOnUse" x1="169.53" y1="76.515" x2="264.11" y2="76.515" gradientTransform="matrix(1 0 0 -1 0 152)">
	<stop  offset="0" style="stop-color:#00AA9E"/>
	<stop  offset="0.67" style="stop-color:#6800FF"/>
</linearGradient>
<path class="st17" d="M217.4,138h-1.2c-25.8,0-46.7-20.9-46.7-46.7V59.6c0-25.8,20.9-46.7,46.7-46.7h1.2c25.8,0,46.7,20.9,46.7,46.7
	v31.7C264.1,117.1,243.2,138,217.4,138z"/>
<linearGradient id="SVGID_19_" gradientUnits="userSpaceOnUse" x1="169.54" y1="76.515" x2="250.21" y2="76.515" gradientTransform="matrix(1 0 0 -1 0 152)">
	<stop  offset="0" style="stop-color:#00AA9E"/>
	<stop  offset="0.67" style="stop-color:#6800FF"/>
</linearGradient>
<path class="st18" d="M210.4,128.8h-1.1c-22,0-39.8-17.8-39.8-39.8V61.9c0-22,17.8-39.8,39.8-39.8h1.1c22,0,39.8,17.8,39.8,39.8V89
	C250.2,111,232.4,128.8,210.4,128.8z"/>
<linearGradient id="SVGID_20_" gradientUnits="userSpaceOnUse" x1="169.54" y1="76.51" x2="240.82" y2="76.51" gradientTransform="matrix(1 0 0 -1 0 152)">
	<stop  offset="0" style="stop-color:#00AA9E"/>
	<stop  offset="0.67" style="stop-color:#6800FF"/>
</linearGradient>
<path class="st19" d="M205.6,122.6h-0.9c-19.4,0-35.2-15.8-35.2-35.2V63.5c0-19.4,15.8-35.2,35.2-35.2h0.9
	c19.4,0,35.2,15.8,35.2,35.2v23.9C240.8,106.9,225.1,122.6,205.6,122.6z"/>
<linearGradient id="SVGID_21_" gradientUnits="userSpaceOnUse" x1="172.02" y1="76.51" x2="233.38" y2="76.51" gradientTransform="matrix(1 0 0 -1 0 152)">
	<stop  offset="0" style="stop-color:#00AA9E"/>
	<stop  offset="0.67" style="stop-color:#6800FF"/>
</linearGradient>
<path class="st20" d="M202.7,117.1L202.7,117.1c-16.9,0-30.7-13.7-30.7-30.7V64.5c0-16.9,13.7-30.7,30.7-30.7l0,0
	c16.9,0,30.7,13.7,30.7,30.7v21.9C233.4,103.4,219.6,117.1,202.7,117.1z"/>
<linearGradient id="SVGID_22_" gradientUnits="userSpaceOnUse" x1="172.02" y1="76.52" x2="231.85" y2="76.52" gradientTransform="matrix(1 0 0 -1 0 152)">
	<stop  offset="0" style="stop-color:#00AA9E"/>
	<stop  offset="0.67" style="stop-color:#6800FF"/>
</linearGradient>
<path class="st21" d="M201.9,116.1L201.9,116.1c-16.5,0-29.9-13.4-29.9-29.9V64.8c0-16.5,13.4-29.9,29.9-29.9l0,0
	c16.5,0,29.9,13.4,29.9,29.9v21.4C231.8,102.7,218.5,116.1,201.9,116.1z"/>
<linearGradient id="SVGID_23_" gradientUnits="userSpaceOnUse" x1="172.02" y1="76.515" x2="230.04" y2="76.515" gradientTransform="matrix(1 0 0 -1 0 152)">
	<stop  offset="0" style="stop-color:#00AA9E"/>
	<stop  offset="0.67" style="stop-color:#6800FF"/>
</linearGradient>
<path class="st22" d="M201,114.9L201,114.9c-16,0-29-13-29-29V65.1c0-16,13-29,29-29h0c16,0,29,13,29,29v20.7
	C230,101.9,217.1,114.9,201,114.9z"/>
<linearGradient id="SVGID_24_" gradientUnits="userSpaceOnUse" x1="172.02" y1="76.52" x2="227.02" y2="76.52" gradientTransform="matrix(1 0 0 -1 0 152)">
	<stop  offset="0" style="stop-color:#00AA9E"/>
	<stop  offset="0.67" style="stop-color:#6800FF"/>
</linearGradient>
<path class="st23" d="M199.5,112.8L199.5,112.8c-15.2,0-27.5-12.3-27.5-27.5V65.6c0-15.2,12.3-27.5,27.5-27.5l0,0
	c15.2,0,27.5,12.3,27.5,27.5v19.7C227,100.5,214.7,112.8,199.5,112.8z"/>
<linearGradient id="SVGID_25_" gradientUnits="userSpaceOnUse" x1="172.02" y1="76.51" x2="222.86" y2="76.51" gradientTransform="matrix(1 0 0 -1 0 152)">
	<stop  offset="0" style="stop-color:#00AA9E"/>
	<stop  offset="0.67" style="stop-color:#6800FF"/>
</linearGradient>
<path class="st24" d="M197.4,110L197.4,110c-14,0-25.4-11.4-25.4-25.4V66.4c0-14,11.4-25.4,25.4-25.4l0,0c14,0,25.4,11.4,25.4,25.4
	v18.2C222.9,98.6,211.5,110,197.4,110z"/>
<linearGradient id="SVGID_26_" gradientUnits="userSpaceOnUse" x1="172.01" y1="76.52" x2="215.38" y2="76.52" gradientTransform="matrix(1 0 0 -1 0 152)">
	<stop  offset="0" style="stop-color:#00AA9E"/>
	<stop  offset="0.67" style="stop-color:#6800FF"/>
</linearGradient>
<path class="st25" d="M193.7,104.9L193.7,104.9c-12,0-21.7-9.7-21.7-21.7V67.7c0-12,9.7-21.7,21.7-21.7h0c12,0,21.7,9.7,21.7,21.7
	v15.5C215.4,95.2,205.7,104.9,193.7,104.9z"/>
<linearGradient id="SVGID_27_" gradientUnits="userSpaceOnUse" x1="172.02" y1="76.51" x2="210.34" y2="76.51" gradientTransform="matrix(1 0 0 -1 0 152)">
	<stop  offset="0" style="stop-color:#00AA9E"/>
	<stop  offset="0.67" style="stop-color:#6800FF"/>
</linearGradient>
<path class="st26" d="M191.2,101.5L191.2,101.5c-10.6,0-19.2-8.6-19.2-19.2V68.6c0-10.6,8.6-19.2,19.2-19.2h0
	c10.6,0,19.2,8.6,19.2,19.2v13.7C210.3,92.9,201.8,101.5,191.2,101.5z"/>
<linearGradient id="SVGID_28_" gradientUnits="userSpaceOnUse" x1="217.86" y1="45.74" x2="280.84" y2="45.74" gradientTransform="matrix(1 0 0 -1 0 152)">
	<stop  offset="0" style="stop-color:#00AA9E"/>
	<stop  offset="0.67" style="stop-color:#6800FF"/>
</linearGradient>
<path class="st27" d="M249.8,147.9h-0.8c-17.2,0-31.1-13.9-31.1-31.1V95.7c0-17.2,13.9-31.1,31.1-31.1h0.8
	c17.2,0,31.1,13.9,31.1,31.1v21.1C280.8,134,266.9,147.9,249.8,147.9z"/>
<linearGradient id="SVGID_29_" gradientUnits="userSpaceOnUse" x1="217.86" y1="45.74" x2="279.28" y2="45.74" gradientTransform="matrix(1 0 0 -1 0 152)">
	<stop  offset="0" style="stop-color:#00AA9E"/>
	<stop  offset="0.67" style="stop-color:#6800FF"/>
</linearGradient>
<path class="st28" d="M249,146.9h-0.8c-16.7,0-30.3-13.6-30.3-30.3V95.9c0-16.7,13.6-30.3,30.3-30.3h0.8c16.7,0,30.3,13.6,30.3,30.3
	v20.6C279.3,133.3,265.7,146.9,249,146.9z"/>
<linearGradient id="SVGID_30_" gradientUnits="userSpaceOnUse" x1="217.86" y1="45.735" x2="277.42" y2="45.735" gradientTransform="matrix(1 0 0 -1 0 152)">
	<stop  offset="0" style="stop-color:#00AA9E"/>
	<stop  offset="0.67" style="stop-color:#6800FF"/>
</linearGradient>
<path class="st29" d="M248,145.6h-0.8c-16.2,0-29.4-13.2-29.4-29.4v-20c0-16.2,13.2-29.4,29.4-29.4h0.8c16.2,0,29.4,13.2,29.4,29.4
	v20C277.4,132.5,264.3,145.6,248,145.6z"/>
<linearGradient id="SVGID_31_" gradientUnits="userSpaceOnUse" x1="217.86" y1="45.74" x2="274.32" y2="45.74" gradientTransform="matrix(1 0 0 -1 0 152)">
	<stop  offset="0" style="stop-color:#00AA9E"/>
	<stop  offset="0.67" style="stop-color:#6800FF"/>
</linearGradient>
<path class="st30" d="M246.5,143.6h-0.7c-15.4,0-27.9-12.5-27.9-27.9v-19c0-15.4,12.5-27.9,27.9-27.9h0.7
	c15.4,0,27.9,12.5,27.9,27.9v19C274.3,131.1,261.8,143.6,246.5,143.6z"/>
<linearGradient id="SVGID_32_" gradientUnits="userSpaceOnUse" x1="217.86" y1="45.74" x2="270.05" y2="45.74" gradientTransform="matrix(1 0 0 -1 0 152)">
	<stop  offset="0" style="stop-color:#00AA9E"/>
	<stop  offset="0.67" style="stop-color:#6800FF"/>
</linearGradient>
<path class="st31" d="M244.3,140.8h-0.7c-14.2,0-25.8-11.5-25.8-25.8V97.5c0-14.2,11.5-25.8,25.8-25.8h0.7
	c14.2,0,25.7,11.5,25.7,25.8V115C270,129.2,258.5,140.8,244.3,140.8z"/>
<linearGradient id="SVGID_33_" gradientUnits="userSpaceOnUse" x1="217.86" y1="45.74" x2="262.37" y2="45.74" gradientTransform="matrix(1 0 0 -1 0 152)">
	<stop  offset="0" style="stop-color:#00AA9E"/>
	<stop  offset="0.67" style="stop-color:#6800FF"/>
</linearGradient>
<path class="st32" d="M240.4,135.7h-0.6c-12.1,0-22-9.8-22-22V98.8c0-12.1,9.8-22,22-22h0.6c12.1,0,22,9.8,22,22v14.9
	C262.4,125.9,252.5,135.7,240.4,135.7z"/>
<linearGradient id="SVGID_34_" gradientUnits="userSpaceOnUse" x1="217.86" y1="45.74" x2="257.19" y2="45.74" gradientTransform="matrix(1 0 0 -1 0 152)">
	<stop  offset="0" style="stop-color:#00AA9E"/>
	<stop  offset="0.67" style="stop-color:#6800FF"/>
</linearGradient>
<path class="st33" d="M237.8,132.3h-0.5c-10.7,0-19.4-8.7-19.4-19.4V99.7c0-10.7,8.7-19.4,19.4-19.4h0.5c10.7,0,19.4,8.7,19.4,19.4
	v13.2C257.2,123.6,248.5,132.3,237.8,132.3z"/>
</svg>
