<svg id="Layer_1" data-name="Layer 1" xmlns="http://www.w3.org/2000/svg" xmlns:xlink="http://www.w3.org/1999/xlink" viewBox="0 0 280.84 150.97"><defs><style>.cls-1{fill:url(#linear-gradient);}.cls-2{fill:url(#linear-gradient-2);}.cls-3{fill:url(#linear-gradient-3);}.cls-4{fill:url(#linear-gradient-4);}.cls-5{fill:url(#linear-gradient-5);}.cls-6{fill:url(#linear-gradient-6);}.cls-7{fill:url(#linear-gradient-7);}.cls-8{fill:url(#linear-gradient-8);}.cls-9{fill:url(#linear-gradient-9);}.cls-10{fill:url(#linear-gradient-10);}.cls-11{fill:url(#linear-gradient-11);}.cls-12{fill:url(#linear-gradient-12);}.cls-13{fill:url(#linear-gradient-13);}.cls-14{fill:none;stroke-miterlimit:10;stroke:url(#linear-gradient-14);}.cls-15{fill:url(#linear-gradient-15);}.cls-16{fill:url(#linear-gradient-16);}.cls-17{fill:url(#linear-gradient-17);}.cls-18{fill:url(#linear-gradient-18);}.cls-19{fill:url(#linear-gradient-19);}.cls-20{fill:url(#linear-gradient-20);}.cls-21{fill:url(#linear-gradient-21);}.cls-22{fill:url(#linear-gradient-22);}.cls-23{fill:url(#linear-gradient-23);}.cls-24{fill:url(#linear-gradient-24);}.cls-25{fill:url(#linear-gradient-25);}.cls-26{fill:url(#linear-gradient-26);}.cls-27{fill:url(#linear-gradient-27);}.cls-28{fill:url(#linear-gradient-28);}.cls-29{fill:url(#linear-gradient-29);}.cls-30{fill:url(#linear-gradient-30);}.cls-31{fill:url(#linear-gradient-31);}.cls-32{fill:url(#linear-gradient-32);}.cls-33{fill:url(#linear-gradient-33);}.cls-34{fill:url(#linear-gradient-34);}</style><linearGradient id="linear-gradient" x1="29.36" y1="22.89" x2="87.25" y2="22.89" gradientTransform="translate(198.73 144.54) rotate(180)" gradientUnits="userSpaceOnUse"><stop offset="0" stop-color="#00aa9e"/><stop offset="0.67" stop-color="#6800ff"/></linearGradient><linearGradient id="linear-gradient-2" x1="29.36" y1="22.89" x2="85.81" y2="22.89" gradientTransform="translate(198.01 143.82) rotate(180)" xlink:href="#linear-gradient"/><linearGradient id="linear-gradient-3" x1="29.36" y1="22.89" x2="84.1" y2="22.89" gradientTransform="translate(197.15 142.97) rotate(180)" xlink:href="#linear-gradient"/><linearGradient id="linear-gradient-4" x1="29.36" y1="22.89" x2="81.26" y2="22.89" gradientTransform="translate(195.73 141.54) rotate(180)" xlink:href="#linear-gradient"/><linearGradient id="linear-gradient-5" x1="29.36" y1="22.89" x2="77.33" y2="22.89" gradientTransform="translate(193.77 139.58) rotate(180)" xlink:href="#linear-gradient"/><linearGradient id="linear-gradient-6" x1="29.36" y1="22.89" x2="70.28" y2="22.89" gradientTransform="translate(190.24 136.05) rotate(180)" xlink:href="#linear-gradient"/><linearGradient id="linear-gradient-7" x1="29.36" y1="22.89" x2="65.52" y2="22.89" gradientTransform="translate(187.86 133.67) rotate(180)" xlink:href="#linear-gradient"/><linearGradient id="linear-gradient-8" x1="103.58" y1="75.49" x2="214.78" y2="75.49" gradientUnits="userSpaceOnUse"><stop offset="0" stop-color="#6800ff"/><stop offset="0.08" stop-color="#6209fa"/><stop offset="0.22" stop-color="#5323eb"/><stop offset="0.4" stop-color="#394cd3"/><stop offset="0.61" stop-color="#1685b3"/><stop offset="0.73" stop-color="#00aa9e"/></linearGradient><linearGradient id="linear-gradient-9" x1="106.34" y1="75.49" x2="214.78" y2="75.49" xlink:href="#linear-gradient-8"/><linearGradient id="linear-gradient-10" x1="109.63" y1="75.49" x2="214.78" y2="75.49" xlink:href="#linear-gradient-8"/><linearGradient id="linear-gradient-11" x1="115.1" y1="75.49" x2="214.78" y2="75.49" xlink:href="#linear-gradient-8"/><linearGradient id="linear-gradient-12" x1="122.64" y1="75.49" x2="214.78" y2="75.49" xlink:href="#linear-gradient-8"/><linearGradient id="linear-gradient-13" x1="136.19" y1="75.49" x2="214.78" y2="75.49" xlink:href="#linear-gradient-8"/><linearGradient id="linear-gradient-14" x1="144.84" y1="75.49" x2="215.28" y2="75.49" xlink:href="#linear-gradient-8"/><linearGradient id="linear-gradient-15" x1="169.53" y1="75.49" x2="280.84" y2="75.49" gradientTransform="translate(450.37 150.97) rotate(-180)" xlink:href="#linear-gradient"/><linearGradient id="linear-gradient-16" x1="169.53" y1="75.49" x2="277.47" y2="75.49" gradientTransform="translate(447 150.97) rotate(-180)" xlink:href="#linear-gradient"/><linearGradient id="linear-gradient-17" x1="169.53" y1="75.49" x2="271.85" y2="75.49" gradientTransform="translate(441.39 150.97) rotate(-180)" xlink:href="#linear-gradient"/><linearGradient id="linear-gradient-18" x1="169.53" y1="75.49" x2="264.11" y2="75.49" gradientTransform="translate(433.64 150.97) rotate(180)" xlink:href="#linear-gradient"/><linearGradient id="linear-gradient-19" x1="169.53" y1="75.49" x2="250.21" y2="75.49" gradientTransform="translate(419.74 150.97) rotate(180)" xlink:href="#linear-gradient"/><linearGradient id="linear-gradient-20" x1="169.53" y1="75.49" x2="240.82" y2="75.49" gradientTransform="translate(410.35 150.97) rotate(180)" xlink:href="#linear-gradient"/><linearGradient id="linear-gradient-21" x1="172.01" y1="75.49" x2="233.37" y2="75.49" gradientTransform="translate(405.39 150.97) rotate(-180)" xlink:href="#linear-gradient"/><linearGradient id="linear-gradient-22" x1="172.01" y1="75.49" x2="231.85" y2="75.49" gradientTransform="translate(403.86 150.97) rotate(-180)" xlink:href="#linear-gradient"/><linearGradient id="linear-gradient-23" x1="172.01" y1="75.49" x2="230.03" y2="75.49" gradientTransform="translate(402.05 150.97) rotate(180)" xlink:href="#linear-gradient"/><linearGradient id="linear-gradient-24" x1="172.01" y1="75.49" x2="227.02" y2="75.49" gradientTransform="translate(399.03 150.97) rotate(180)" xlink:href="#linear-gradient"/><linearGradient id="linear-gradient-25" x1="172.01" y1="75.49" x2="222.85" y2="75.49" gradientTransform="translate(394.87 150.97) rotate(-180)" xlink:href="#linear-gradient"/><linearGradient id="linear-gradient-26" x1="172.01" y1="75.49" x2="215.38" y2="75.49" gradientTransform="translate(387.39 150.97) rotate(-180)" xlink:href="#linear-gradient"/><linearGradient id="linear-gradient-27" x1="172.01" y1="75.49" x2="210.33" y2="75.49" gradientTransform="translate(382.35 150.97) rotate(180)" xlink:href="#linear-gradient"/><linearGradient id="linear-gradient-28" x1="217.86" y1="106.26" x2="280.84" y2="106.26" gradientTransform="translate(498.7 212.52) rotate(-180)" xlink:href="#linear-gradient"/><linearGradient id="linear-gradient-29" x1="217.86" y1="106.26" x2="279.28" y2="106.26" gradientTransform="translate(497.14 212.52) rotate(180)" xlink:href="#linear-gradient"/><linearGradient id="linear-gradient-30" x1="217.86" y1="106.26" x2="277.42" y2="106.26" gradientTransform="translate(495.28 212.52) rotate(-180)" xlink:href="#linear-gradient"/><linearGradient id="linear-gradient-31" x1="217.86" y1="106.26" x2="274.32" y2="106.26" gradientTransform="translate(492.18 212.52) rotate(180)" xlink:href="#linear-gradient"/><linearGradient id="linear-gradient-32" x1="217.86" y1="106.26" x2="270.05" y2="106.26" gradientTransform="translate(487.91 212.52) rotate(180)" xlink:href="#linear-gradient"/><linearGradient id="linear-gradient-33" x1="217.86" y1="106.26" x2="262.37" y2="106.26" gradientTransform="translate(480.23 212.52) rotate(180)" xlink:href="#linear-gradient"/><linearGradient id="linear-gradient-34" x1="217.86" y1="106.26" x2="257.19" y2="106.26" gradientTransform="translate(475.05 212.52) rotate(-180)" xlink:href="#linear-gradient"/></defs><rect class="cls-1" x="111.48" y="-18.77" width="57.89" height="280.84" rx="28.94" transform="translate(18.77 262.07) rotate(-90)"/><rect class="cls-2" x="112.2" y="-16.01" width="56.45" height="273.87" rx="28.23" transform="translate(19.49 261.35) rotate(-90)"/><rect class="cls-3" x="113.05" y="-12.71" width="54.74" height="265.56" rx="27.37" transform="translate(20.35 260.5) rotate(-90)"/><rect class="cls-4" x="114.47" y="-7.23" width="51.89" height="251.76" rx="25.95" transform="translate(21.77 259.07) rotate(-90)"/><rect class="cls-5" x="116.44" y="0.34" width="47.96" height="232.7" rx="23.98" transform="translate(23.73 257.11) rotate(-90)"/><rect class="cls-6" x="119.96" y="13.91" width="40.91" height="198.5" rx="20.46" transform="translate(27.26 253.58) rotate(-90)"/><rect class="cls-7" x="122.35" y="23.09" width="36.15" height="175.39" rx="18.08" transform="translate(29.64 251.2) rotate(-90)"/><rect class="cls-8" x="103.58" width="111.2" height="150.97" rx="55.6"/><rect class="cls-9" x="106.34" y="1.87" width="108.44" height="147.23" rx="54.22"/><rect class="cls-10" x="109.63" y="4.11" width="105.15" height="142.76" rx="52.57"/><rect class="cls-11" x="115.1" y="7.82" width="99.68" height="135.34" rx="49.84"/><rect class="cls-12" x="122.64" y="12.94" width="92.14" height="125.09" rx="46.07"/><rect class="cls-13" x="136.19" y="22.13" width="78.59" height="106.71" rx="39.3"/><rect class="cls-14" x="145.34" y="28.34" width="69.45" height="94.28" rx="34.72"/><rect class="cls-15" x="169.53" y="1.87" width="111.31" height="147.23" rx="54.93" transform="translate(450.37 150.97) rotate(180)"/><rect class="cls-16" x="169.53" y="4.11" width="107.93" height="142.76" rx="53.27" transform="translate(447 150.97) rotate(180)"/><rect class="cls-17" x="169.53" y="7.82" width="102.32" height="135.34" rx="50.5" transform="translate(441.39 150.97) rotate(180)"/><rect class="cls-18" x="169.53" y="12.94" width="94.58" height="125.09" rx="46.68" transform="translate(433.64 150.97) rotate(-180)"/><rect class="cls-19" x="169.53" y="22.13" width="80.67" height="106.71" rx="39.81" transform="translate(419.74 150.97) rotate(-180)"/><rect class="cls-20" x="169.53" y="28.34" width="71.28" height="94.28" rx="35.18" transform="translate(410.35 150.97) rotate(-180)"/><rect class="cls-21" x="172.01" y="33.83" width="61.36" height="83.3" rx="30.68" transform="translate(405.39 150.97) rotate(180)"/><rect class="cls-22" x="172.01" y="34.87" width="59.83" height="81.24" rx="29.92" transform="translate(403.86 150.97) rotate(180)"/><rect class="cls-23" x="172.01" y="36.1" width="58.02" height="78.77" rx="29.01" transform="translate(402.05 150.97) rotate(-180)"/><rect class="cls-24" x="172.01" y="38.15" width="55" height="74.68" rx="27.5" transform="translate(399.03 150.97) rotate(-180)"/><rect class="cls-25" x="172.01" y="40.97" width="50.84" height="69.02" rx="25.42" transform="translate(394.87 150.97) rotate(180)"/><rect class="cls-26" x="172.01" y="46.05" width="43.37" height="58.88" rx="21.68" transform="translate(387.39 150.97) rotate(180)"/><rect class="cls-27" x="172.01" y="49.47" width="38.32" height="52.02" rx="19.16" transform="translate(382.35 150.97) rotate(-180)"/><rect class="cls-28" x="217.86" y="64.61" width="62.98" height="83.3" rx="31.08" transform="translate(498.7 212.52) rotate(180)"/><rect class="cls-29" x="217.86" y="65.64" width="61.42" height="81.24" rx="30.31" transform="translate(497.14 212.52) rotate(-180)"/><rect class="cls-30" x="217.86" y="66.87" width="59.56" height="78.77" rx="29.39" transform="translate(495.28 212.52) rotate(180)"/><rect class="cls-31" x="217.86" y="68.92" width="56.46" height="74.68" rx="27.86" transform="translate(492.18 212.52) rotate(-180)"/><rect class="cls-32" x="217.86" y="71.75" width="52.19" height="69.02" rx="25.75" transform="translate(487.91 212.52) rotate(-180)"/><rect class="cls-33" x="217.86" y="76.82" width="44.51" height="58.88" rx="21.97" transform="translate(480.23 212.52) rotate(-180)"/><rect class="cls-34" x="217.86" y="80.25" width="39.33" height="52.02" rx="19.41" transform="translate(475.05 212.52) rotate(180)"/></svg>