<svg id="Layer_1" data-name="Layer 1" xmlns="http://www.w3.org/2000/svg" viewBox="0 0 280.84 150.97"><defs><style>.cls-1{fill:#fff;}</style></defs><path d="M120.09,151h-1.37c0-.37-.06-.75-.06-1.12V.63c0-.34,0-.67.07-1,1.38-.16,1.38-.16,1.38,1.07,0,.78,0,1.56,0,2.34,0,.61.13,1,.85,1,.21,0,.48.37.61.63a1.79,1.79,0,0,1,0,.77c-.09,3.55-.21,7.1-.28,10.65,0,2,0,3.94,0,5.9,0,1.13,0,2.26,0,3.39a2.06,2.06,0,0,0,.44,1.15.83.83,0,0,0,.86.05,1.47,1.47,0,0,0,.33-1c0-4.2,0-8.4,0-12.6s0-8.29,0-12.43c0-.86.26-1.1,1.07-1a23.6,23.6,0,0,0,2.66,0c.49,0,.66.18.65.65,0,.84,0,1.69,0,2.52,0,.54-.21,1.29.71,1.28s.63-.8.65-1.31c0-.84,0-1.68,0-2.52,0-.21.26-.58.41-.58,1.77,0,3.53,0,5.36,0,0,.44.06.78.06,1.12V8.08c0,.49-.08,1,.69,1s.71-.5.71-1q0-3.73,0-7.48c0-.33.05-.66.08-1h4.26V.83q0,14.61,0,29.2a2.24,2.24,0,0,0,0,.78c.13.27.42.7.6.68a1.45,1.45,0,0,0,.77-.61c.12-.16.07-.45.07-.68q0-8.86,0-17.73c0-.87,0-1.74,0-2.61,0-.44.18-.77.72-.75s.69.32.69.78a17.38,17.38,0,0,0,0,2.17,1.11,1.11,0,0,0,.66.78c.52.14.86-.19.9-.77,0-.23,0-.46,0-.69,0-3.65,0-7.29,0-10.94,0-.57.13-.84.77-.82,1.26,0,2.51,0,3.77,0,1.09,0,1.1,0,1.1,1.07,0,3.82,0,7.65,0,11.47,0,.6.13,1,.85,1s.76-.47.75-1c-.06-3.71-.11-7.41-.17-11.11V-.42c.76,0,1.39,0,2,0,.41,0,.93-.13.9.58S155,1.57,154,1.65c-.69.05-1,.42-.87,1.1a8.11,8.11,0,0,1,0,.86l-.06,19.28c0,.53.15,1,.79,1,.86.08.91-.49.91-1.11q0-3.48,0-7c0-.65,0-1.23.92-1.19.21,0,.54-.31.63-.55a3.92,3.92,0,0,0,.12-1.2c0-4.14-.05-8.28-.06-12.42,0-.38-.1-.86.53-.88s.51.49.52.86c0,.87,0,1.74.05,2.61a.77.77,0,0,0,.8.83c.57,0,.74-.36.8-.82a7.53,7.53,0,0,0,0-1V-.37c1.81,0,3.5,0,5.18,0,.15,0,.41.36.42.57.05.72,0,1.44,0,2.17s0,1.1.83,1.1.74-.56.75-1.08c0-.91,0-1.83,0-2.72,1.48-.25,1.5-.24,1.5,1.11q0,23.9,0,47.8c0,3.13,0,6.25,0,9.38,0,1.09.11,1.19,1.18,1.2.75,0,1.49,0,2.23,0s.9.28.9.88,0,.93,0,1.4c0,2.69,0,5.38,0,8.08,0,.67.26,1,.9.83a1.2,1.2,0,0,0,.5-.9c0-2.32,0-4.64,0-7,0-4.46,0-8.92,0-13.38,0-.35-.25-1-.39-1-1.12,0-1-.78-1-1.51q0-15.12,0-30.25c0-1.59.35-1.75-1.64-1.73-1,0-1.27-.23-1.27-1.27q0-6.35,0-12.69c0-.34,0-.68.06-1h1.4V2.21c0,.53,0,1.13.71,1.15s.75-.56.74-1.11V-.35a5.36,5.36,0,0,1,.63-.07c3.4,0,6.81,0,10.21,0,.6,0,.72.27.71.79,0,2.09,0,4.17,0,6.26q0,5.52,0,11c0,.62-.06,1.07-.85,1.11-.21,0-.56.55-.56.85,0,3.15,0,6.31,0,9.47,0,.59.23.83.82.82,1.2,0,2.4,0,3.6,0s1.36-.07,1.36-1.37q0-8.86,0-17.73c0-3.45,0-6.89,0-10.34,0-.66.18-.93.88-.89s.57.67.58,1.08q0,14.91,0,29.81c0,3.13,0,6.26,0,9.39,0,.45,0,.88.6.94s1-.16,1-.85c0-3.91.08-7.81.09-11.71,0-3.27-.07-6.54-.07-9.81s.09-6.59.09-9.89q0-3.94-.13-7.89c0-.81.21-1.06,1-1a33.08,33.08,0,0,0,3.59,0c.84-.06,1.07.21,1.07,1.06,0,5.7,0,11.41,0,17.12q0,11,0,22.07c0,.56-.07,1-.76,1s-.84.3-.84.88c0,1.77,0,3.54,0,5.3,0,1.42,0,2.84,0,4.26,0,.6.25.8.83.79q2.1,0,4.2,0c.67,0,.93-.26.91-.92,0-1,0-2,0-3S201,47,202.12,47h.43c1.26,0,1.27,0,1.26,1.31q-.09,11.12-.18,22.23c0,3,0,6.08,0,9.13,0,.64.07,1.14.9,1.14s.81-.53.81-1.12c0-3.1,0-6.2,0-9.29,0-8,.13-16.1.19-24.14q0-4.74,0-9.48c0-1.07-.13-1.18-1.19-1.19h-1.12c-.46,0-.65-.19-.64-.68,0-2.32,0-4.64,0-7,0-.75,0-1.5,0-2.25s-.3-.88-.89-.89-.7.35-.69.85c0,.72,0,1.44,0,2.17,0,2.15,0,2.18-2.18,2a1.11,1.11,0,0,1-.68-.57,1.62,1.62,0,0,1-.06-.77q.09-10.94.18-21.88c0-2,0-4.11,0-6.16,0-.36-.09-.77.51-.78s.59.38.58.8c0,1.91,0,3.82,0,5.73,0,.71.19,1.19.89,1.2s.8-.62.78-1.23c0-.93,0-1.86,0-2.78,0-.58.13-1,.84-1.06.31,0,.62-.55.79-.91a2.16,2.16,0,0,0,0-1c-.05-.58.16-.83.78-.81,1.11,0,2.23,0,3.34,0h5.73c0,.33.07.64.07,1,0,3.74,0,7.47,0,11.21,0,.64-.05,1.25.88,1.22s.79-.58.79-1.2c0-3.82,0-7.65,0-11.47a4.68,4.68,0,0,1,.11-.69h5.45c0,.33.05.58.05.84,0,3.71,0,7.42,0,11.13a2.64,2.64,0,0,0,0,1c.15.32.48.74.76.76s.68-.34.84-.64a2.69,2.69,0,0,0,.07-1.11c0-2.31,0-4.62-.08-6.93,0-1-.13-2-.18-3a12.86,12.86,0,0,1,0-1.64.69.69,0,0,1,.45-.46c1.26,0,2.51,0,3.85,0,0,.49.08.91.08,1.34q0,9.39,0,18.77,0,7.26,0,14.51c0,.59,0,1.06.82,1.15.25,0,.61.6.63.94.07,1.36,0,2.73,0,4.09s0,1.44-1.44,1.5-1.66.17-1.64,1.78v.61c0,2.58,0,5.16,0,7.73,0,.81.26,1.18,1.1,1.12s1.43,0,2.14,0c1.22,0,1.27-.06,1.27-1.34q0-7.65,0-15.3c0-.56.12-1,.68-1.13.74-.12.84-.53.78-1.17,0-.43,0-.87,0-1.3,0-2.06,0-2.08-2-2.17-.58,0-.83-.26-.82-.84,0-.4,0-.81,0-1.22q.11-11.41.2-22.84c0-1.71,0-3.42,0-5.13,0-.39-.28-1,.52-1s.47.68.47,1.06c0,2.23,0,4.46,0,6.69,0,.62.13,1.1.89,1.08s.7-.53.7-1V-.38h2.88c0,.42.06.82.06,1.21q0,8.61,0,17.21c0,.93,0,1.86,0,2.78,0,.5.28.71.78.7s.63-.32.63-.74c0-.64,0-1.27,0-1.91,0-6.08,0-12.17,0-18.25,0-.84.23-1.12,1.07-1.06a27,27,0,0,0,3.6,0c.82,0,1,.27,1,1,0,5,0,10,0,15,0,1.65,0,3.31,0,5,0,.76.47,1.15,1.09.81a1.42,1.42,0,0,0,.44-1.07c0-6.6,0-13.21,0-19.81a8.64,8.64,0,0,1,.07-.9c1.39-.19,1.44-.14,1.44,1.19v19c0,.81,0,1.63,0,2.43,0,.3-.36.81-.54.81-.9,0-.93.52-.93,1.19q0,9.91,0,19.82a1.57,1.57,0,0,0,.06.76,1,1,0,0,0,.68.47c.2,0,.48-.23.61-.44s.05-.45.05-.68c0-2.95,0-5.91,0-8.86,0-.33.3-.92.46-.92,1,0,1-.63,1-1.34q0-15.3,0-30.59a3.46,3.46,0,0,1,.05-1.12A1,1,0,0,1,245,.76c.87-.1.73.62.73,1.13q0,9.87,0,19.73c0,.23-.09.52,0,.68a4.36,4.36,0,0,0,.72.77,5.28,5.28,0,0,0,.71-.79c.1-.14,0-.39,0-.6V2.48a6.91,6.91,0,0,1,.06-1.21c0-.2.25-.53.34-.52.86.1,1.06-.44,1.11-1.13h10.05c0,1,0,1.89,0,2.8a1,1,0,0,0,.6.65c.19.05.56-.2.7-.41a1.94,1.94,0,0,0,.1-.85c0-.71,0-1.43,0-2.18h1.4c0,.34.05.63.05.91q0,4.95,0,9.91v3c0,.52-.14.88-.76.93s-1.62,0-1.94.38-.16,1.36-.21,2.08v.08q0,8.65,0,17.3c0,4.17,0,8.34,0,12.51,0,.39-.29,1.09-.5,1.1-1,.08-.89.72-.89,1.36V59.31c0,3.24,0,6.49,0,9.73,0,.41.32,1.15.55,1.17.85.08.85.57.85,1.2V89.83a14.63,14.63,0,0,0,0,2,1.06,1.06,0,0,0,.7.63c.43.13.69-.16.68-.63,0-.26,0-.52,0-.79V71.13c0-.73.51-1.13,1.1-.77a1.21,1.21,0,0,1,.38.93c0,10.19,0,20.39,0,30.59,0,2.15-.15,1.79-1.77,1.82-1,0-1.15.23-1.15,1.2q0,11.55,0,23.11c0,2.7,0,5.39,0,8.09,0,.65-.11,1.11-.89,1.2-.2,0-.52.47-.52.72,0,4.32,0,8.63,0,12.95H247a10.36,10.36,0,0,0,.1-1.12q0-7,0-14c0-.53,0-1.11-.73-1.11s-.74.56-.74,1.1q0,4.51,0,9c0,2,0,4,0,6.07H224.05c0-1,0-2,0-3s-.15-1.05-1.12-1a7.47,7.47,0,0,1-1.95-.05c-.8-.17-1.17,0-1.19.88,0,1.07,0,2.14,0,3.21h-1.55l.06-10.77c0-1.16,0-2.31,0-3.47,0-.48.08-1,.75-.92s.89-.37.88-1q0-9.77,0-19.54a4.26,4.26,0,0,0-.08-1.29c-.1-.28-.45-.64-.7-.65-.63,0-.68-.34-.68-.84,0-2.89,0-5.79,0-8.68a3.17,3.17,0,0,0-.27-1.33.76.76,0,0,0-1.41,0,2.38,2.38,0,0,0-.19,1q0,6.07,0,12.16c0,2.63,0,5.27,0,7.9,0,.3-.13.75-.34.86a3.06,3.06,0,0,1-1.42.41c-.83,0-.91.44-.91,1.11,0,2.69,0,5.38,0,8.08,0,1.81,0,1.85,1.77,1.8.83,0,1.12.32,1.12,1.11,0,4.69,0,9.38,0,14.07h-4.46l.06-9.82c0-1.3,0-2.61,0-3.91,0-.31-.34-.88-.52-.87-.89,0-.85-.53-.85-1.14q0-9.91,0-19.82c0-.55.35-1.45-.69-1.43s-.67.87-.67,1.41q0,15.47,0,30.94a1.51,1.51,0,0,0,0,.68c.13.26.35.61.58.66.53.12.61.42.61.88,0,.8.06,1.61.1,2.42h-5.66c0-.37-.06-.75-.06-1.12q.1-8.55.2-17.1c0-1.89,0-3.77,0-5.65,0-2.17,0-2.24-2.09-2.19h-.17c-.54,0-.67-.25-.67-.76,0-3,0-6,.06-9,0-.64-.16-1.1-.86-1.13s-.75.56-.75,1.09c0,1,0,2,0,3,0,.63-.27,1-.95.92-2.06-.08-2,.39-2-2,.06-9.41.15-18.82.22-28.22a22.64,22.64,0,0,0-.13-2.86c0-.3-.48-.54-.74-.81a3.5,3.5,0,0,0-.72.78,2.71,2.71,0,0,0-.07,1q0,8.7,0,17.38,0,12.38,0,24.76c0,.67-.1,1.12-.93,1.11-.22,0-.46.42-.67.66-.05.05,0,.17,0,.25q0,4.56,0,9.12c0,.58,0,1.12.84,1.11,1.45,0,2.91,0,4.37,0,.51,0,.72-.24.72-.74,0-.79,0-1.57,0-2.35,0-2,0-2,2-2,.63,0,.88.26.88.87l0,13.81H189.4c0-2.8,0-5.6,0-8.4,0-.59-.15-1.08-.81-1.07s-.84.49-.83,1.08,0,1,0,1.47c0,2.31,0,4.61,0,6.92h-5.67q0-4.29,0-8.57c0-.54,0-1.06-.77-1.08s-.76.57-.76,1.07c0,2.86,0,5.72,0,8.58h-1.2c0-2.4,0-4.8,0-7.21,0-4.17,0-8.33,0-12.5,0-.65-.4-.88-.91-.91s-.89.34-.89,1q0,9.81,0,19.63h-4.28c0-.87,0-1.74,0-2.61,0-3.33,0-6.66,0-10,0-.31-.3-.87-.5-.88-.81-.07-.9-.54-.9-1.19q0-15.15,0-30.32c0-2.13.26-2-1.91-2-.72,0-1-.3-1-1v-.87q0-15.42,0-30.85c0-.56-.05-1-.76-.94s-.66.48-.66,1c0,1.68,0,3.36,0,5q0,35.06,0,70.13c0,2.33,0,2,2,2,2.4,0,2.4,0,2.26,2.45h-5.83a9,9,0,0,0,0-1.47c0-.27-.28-.72-.45-.72-1,0-.94-.72-.94-1.4q0-5.77,0-11.55c0-2.75,0-5.5,0-8.25,0-.52.12-1.25-.67-1.26s-.69.75-.7,1.29c0,.9,0,1.8,0,2.7l0,20.66H159a4.5,4.5,0,0,0,0-1.37c-.09-.33-.46-.58-.71-.87a3.65,3.65,0,0,0-.65,1,5,5,0,0,0,0,1.29h-8.75q0-7.32,0-14.65a.88.88,0,0,0-.08-.5c-.17-.19-.43-.47-.61-.44a.89.89,0,0,0-.64.52,5.66,5.66,0,0,0-.06,1.37q0,6.85,0,13.7h-1.37c0-.52-.1-1-.1-1.55,0-4.15,0-8.29,0-12.43,0-.29.09-.63,0-.85a1.44,1.44,0,0,0-.74-.74c-.5-.15-.79.22-.83.73,0,.29,0,.58,0,.87q.07,7,.16,14H133.3c0-2.23,0-4.46,0-6.69,0-.57-.13-1.1-.79-1.1-.83,0-.92-.48-.92-1.13,0-1.07.06-2.14,0-3.21a1,1,0,0,0-.59-.73.69.69,0,0,0-.93.62,6.05,6.05,0,0,0-.05,1c0,3.77,0,7.53,0,11.29h-1a3.82,3.82,0,0,0-.13-1.28,1.2,1.2,0,0,0-.85-.6c-.21,0-.55.39-.65.68a4.72,4.72,0,0,0-.08,1.2h-5.49c0-.29,0-.58,0-.87,0-.54-.23-.86-.82-.88s-.79.36-.83.88C120.1,150.39,120.1,150.68,120.09,151Zm124.2-44.21h0V91.12c0-.61,0-1.12.86-1s.56.62.56,1q0,10.08,0,20.16c0,.62.15,1.11.76,1.12s.76-.53.75-1.13c0-3.56,0-7.12,0-10.69,0-3.15,0-6.31,0-9.47,0-.34.28-.94.5-1,.8-.14.92-.6.91-1.29q0-7.92,0-15.82c0-1.45,0-2.9,0-4.34,0-.32-.32-.89-.53-.9-.9-.07-.88-.64-.88-1.28q0-9.95,0-19.9c0-.6-.06-1.21-.77-1.2s-.7.61-.7,1.18c0,6.63,0,13.27,0,19.9,0,1.19,0,1.24-1.17,1.24h-.43c-1.17,0-1.28.14-1.27,1.29q0,8.68,0,17.38,0,7.47,0,14.94c0,3.27,0,6.55,0,9.82,0,.54,0,1.17-.64,1.26-.82.12-.83.62-.83,1.23q0,9.82,0,19.64c0,.56-.25,1.39.72,1.35s.67-.85.68-1.41c0-2.9,0-5.79,0-8.69,0-.35.33-1,.51-1,1,0,1-.63,1-1.33Zm-56.6-32.71c-1.05,0-1.19.21-1.19,1.31q0,15.67,0,31.37a1.77,1.77,0,0,1-.05.77c-.13.23-.43.53-.63.51a1.05,1.05,0,0,1-.71-.53,2.43,2.43,0,0,1,0-.94V86.72c0-.51,0-1-.73-1s-.74.5-.74,1q0,5.47,0,10.95c0,3.07,0,6.14,0,9.21,0,.53,0,1.14-.68,1.19s-.82.54-.82,1.13V118c0,1,.19,1.22,1.19,1.24s2.29,0,3.43,0c.82,0,1.14-.29,1.14-1.11q0-12.37,0-24.76V86.62c0-.66.22-1.1,1-.94s.52.81.52,1.27q0,12.21,0,24.42,0,8.86,0,17.73c0,.92.41,1.33,1.08,1a1.48,1.48,0,0,0,.45-1.14c0-4,0-8,0-12,0-4.64.08-9.27.09-13.9,0-3.39-.07-6.77-.08-10.16,0-2.11.05-4.22.07-6.34,0-.45,0-1-.61-.92-1.07.1-1.06-.57-1.06-1.31l0-25q0-3.07,0-6.17c0-.9-.29-1.18-1-1.11s-.7.64-.7,1.15q0,9.09,0,18.17ZM146.06,63.24h.06V61.5q0-7.17,0-14.34c0-.48,0-1-.72-1s-.95.26-.95.92c0,3.25,0,6.49,0,9.73,0,3.68.1,7.35.16,11,0,.53-.27.9-.75.81-.26,0-.59-.5-.63-.82a20.51,20.51,0,0,1,0-2.08c0-.48-.25-.92-.78-.78a1.76,1.76,0,0,0-.88.73c-.13.17-.05.5-.05.76,0,6.61,0,13.21,0,19.82,0,.28-.16.77-.32.81-1,.22-.88,1-.88,1.69q0,14.69,0,29.37a13.51,13.51,0,0,0,0,1.91,1,1,0,0,0,.67.65c.24,0,.54-.36.72-.62s0-.45,0-.69q0-8.25,0-16.51c0-1.18,0-2.37,0-3.56,0-.41.11-.81.68-.81s.77.31.78.81c0,.66,0,1.33,0,2s.25.8.83.79c.78,0,.77-.52.77-1.07,0-3.21,0-6.43,0-9.64,0-3.47,0-7,0-10.42,0-.3.27-.84.42-.85.77,0,.8-.48.8-1Zm70.76-5.65h0V67.75c0,.55.05,1.11.77,1.11s.7-.57.73-1.07c0-.14,0-.29,0-.43,0-3.74,0-7.48,0-11.21,0-2.81,0-5.62,0-8.43,0-.64.05-1.14.89-1.14.67,0,.78-.53.78-1.12q0-9.42,0-18.85c0-.61,0-1.22,0-1.83s-.2-.91-.81-.9-.55-.4-.55-.79c0-3-.05-6-.05-8.94,0-.71-.18-1.3-.92-1.46-.56-.12-.92.43-.93,1.35,0,3.53,0,7.07,0,10.6,0,3.19,0,6.37,0,9.56,0,.28-.11.73-.29.8-.56.24-1.2.28-1.76.51-.27.11-.61.46-.61.71,0,3.16,0,6.31,0,9.47a.8.8,0,0,0,1,.91h.77c1.11,0,1.11,0,1.12,1.17Zm-5.76-21.66h0V27.85c0-.82,0-1.63,0-2.44a1,1,0,0,0-.61-.61c-.42-.13-.71.11-.72.59,0,.29,0,.58,0,.87V57.12a2.46,2.46,0,0,0,.05.77c.07.22.25.56.42.58.74.1.71.6.71,1.15,0,4.05,0,8.11,0,12.16,0,2.49,0,5,0,7.48,0,.52,0,1.22.66,1.23,1.13,0,1,.71,1,1.45,0,6.46,0,12.92,0,19.38,0,.57.17,1.05.76,1.05s.9-.38.9-1c0-1.67.07-3.35.05-5C214.14,90.52,214,84.74,214,79c0-3,0-6,0-9,0-.51,0-1.07-.65-1.1s-.83-.48-.83-1.05q0-8.73,0-17.47c0-.9,0-1.8,0-2.69,0-.26-.35-.69-.53-.69-.79,0-.85-.45-.85-1.08C211.07,42.59,211.06,39.26,211.06,35.93ZM227,92.29h.2c0-1.59,0-3.18,0-4.78,0-.59-.15-1.17-.84-1.18s-.75.61-.75,1.13q0,5.91,0,11.82c0,5.1,0,10.19,0,15.29,0,3,0,6,0,9,0,.56.08,1.07.87,1.12.22,0,.56.57.58.9.07,1.12,0,2.26,0,3.39,0,2.21,0,2.23-2.16,2.24-.66,0-.93.2-.93.89,0,3.13,0,6.26,0,9.38,0,.65.27,1,.93.94.83,0,1.66-.05,2.49,0s1.06-.31,1.06-1.07c0-3.13,0-6.25,0-9.38,0-2.12,0-4.23,0-6.35,0-.51.17-1,.66-.92.71,0,.76-.41.79-.85,0-.78,0-1.57,0-2.35,0-1.34-.13-1.48-1.47-1.49s-1.41,0-1.41-1.45ZM121.78,70.88h0v-10c0-.93-.39-1.32-1.1-1a1.54,1.54,0,0,0-.58,1.16q-.06,13.56,0,27.1c0,1.39,0,2.78,0,4.17a1,1,0,0,0,.83,1.1,1,1,0,0,1,.61.74c0,3.36,0,6.71,0,10.07,0,3.53-.17,7-.24,10.58a1.09,1.09,0,0,0,.16.74,1.41,1.41,0,0,0,.9.43c.21,0,.43-.4.58-.66s0-.34,0-.51q0-12.08,0-24.15c0-2.6,0-5.21,0-7.81,0-.36-.28-1-.51-1-.7-.15-.68-.57-.68-1.08Zm99.37,9.33h0c0-3.1,0-6.19,0-9.29,0-2.06-.15-2.15,2-2,.62,0,.92-.23.92-.83V58.23c0-.66-.36-.85-1-.77a7.86,7.86,0,0,1-1.44.17c-1.92-.09-1.93-.11-1.93,1.9V94.7c0,2.35,0,4.69,0,7,0,.3.37.86.55.85a1.58,1.58,0,0,0,1-.58,1.48,1.48,0,0,0,.15-.91c-.09-3.95-.23-7.9-.29-11.86C221.11,86.23,221.15,83.22,221.15,80.21ZM163.45,54h0v5.73c0,3.36,0,6.72,0,10.08,0,.29.26.81.45.84.74.12.74.61.74,1.15q0,7.26,0,14.51c0,1.85,0,3.71,0,5.56,0,.82.68,1.33,1.19.9a1.57,1.57,0,0,0,.37-1.07q0-11.21,0-22.41c0-3,0-6,0-8.95,0-.45,0-1-.63-1-.84,0-.84-.47-.84-1.06q0-4.47,0-9c0-3.76,0-7.53,0-11.29,0-.81-.57-1.26-1.08-.83a1.56,1.56,0,0,0-.31,1.08Q163.44,46.11,163.45,54ZM199.3,85.52h0V95.59c0,.58,0,1.17.82,1.15s.81-.59.81-1.17c0-1,0-2,0-2.95,0-.55.18-.88.78-.91s.87-.49.87-1.13q0-8.08,0-16.15c0-1.25,0-2.49,0-3.74,0-.2,0-.4,0-.6-.07-.55-.41-.9-.93-.76a1.16,1.16,0,0,0-.67.78c-.08,1.13,0,2.26-.08,3.39,0,.3-.39.84-.58.83-1,0-1,.56-1,1.29Zm-66-20.6h0c0-3.33,0-6.66,0-10,0-.52-.06-1-.68-1-.82,0-1-.5-1-1.19,0-1,0-2.08,0-3.13,0-.56-.22-.76-.76-.76-.79,0-.84.49-.84,1.1,0,5.79,0,11.59,0,17.38,0,.9,0,1.8,0,2.69,0,.51.13,1,.81,1s.8.35.79.92c0,1.13,0,2.26,0,3.39,0,.47.19.76.71.76s.85-.13.94-.67a4.16,4.16,0,0,0,0-.61ZM228.2,86.54h0c0,3.36,0,6.72,0,10.07,0,.6.08,1,.81,1s.78-.47.78-1c0-2.38,0-4.75,0-7.12,0-.48,0-1,.65-1,.87,0,1-.51,1-1.25q0-5.3,0-10.59c0-3.13,0-6.25,0-9.38,0-.65-.16-1.17-.92-1.18s-.71.62-.71,1.12c0,2.46,0,4.92,0,7.38,0,.5,0,1-.7.92s-1,.37-.95,1.06C228.21,79.88,228.2,83.21,228.2,86.54Zm-71.86,6.38h.06q0-5.13,0-10.25c0-.75-.41-1.15-1.08-.89a1.25,1.25,0,0,0-.52,1c-.05,2.35,0,4.7,0,7,0,.35-.21,1-.39,1-1.26.18-1.32,1-1.32,2,0,5.21,0,10.42,0,15.64,0,1.27,0,2.54,0,3.81,0,.61.21,1,.89,1s.75-.41.76-.91q0-.43,0-.87c0-2.15,0-4.29,0-6.43,0-.42-.09-1,.54-1,1,0,1.06-.62,1.06-1.37Q156.34,97.82,156.34,92.92ZM135.82,64.48c-1.41.36-1.49.44-1.47,1.68.06,3.91.19,7.81.21,11.72,0,6.34,0,12.68,0,19a2.16,2.16,0,0,0,0,.85c.14.28.45.67.67.66s.53-.39.68-.67a2,2,0,0,0,0-.77q0-15.6,0-31.19A11.1,11.1,0,0,0,135.82,64.48ZM241.35,94.14h0V78.6c0-.23.07-.52,0-.68s-.44-.56-.68-.58a1.14,1.14,0,0,0-.77.49c-.13.17-.06.5-.06.76v15q0,7.34,0,14.67c0,.64,0,1.27,0,1.91,0,.49.33.79.79.65a1.21,1.21,0,0,0,.69-.64,2.93,2.93,0,0,0,0-1C241.36,104.15,241.35,99.14,241.35,94.14ZM125.9,104.73h0q0-4.61,0-9.21c0-.43,0-.87,0-1.3s-.15-.79-.68-.82-.72.27-.76.73,0,.69,0,1q0,9.78,0,19.56a2.18,2.18,0,0,0,.06.77c.09.2.32.5.48.49.73,0,.74.42.74,1,0,3,0,6,0,9,0,.53.1.84.69.83s.92,0,.92-.7c0-3.18,0-6.37,0-9.56,0-.23-.32-.66-.47-.65-1,0-.93-.6-.93-1.27Q125.91,109.69,125.9,104.73Zm1.42-28.28h0q0,7.9,0,15.81c0,.55.06,1.12.76,1.13s.65-.52.65-1q.17-12.89.3-25.76c0-1.89,0-3.77,0-5.65,0-1-.3-1.59-1-1.51-.84.12-.75.82-.75,1.43Zm80.82,43h0q0-7.95,0-15.9c0-.43.13-1-.59-1s-.78.43-.79,1c-.07,3.9-.17,7.8-.21,11.71,0,3,0,6.08,0,9.12,0,3.62,0,7.24,0,10.86,0,.43-.13,1,.55,1.08s1,0,1-1Zm0-89.32h0c0-5.27,0-10.54,0-15.81,0-.49.08-1.16-.69-1.15s-.67.67-.68,1.17c-.08,3.81-.18,7.63-.2,11.45,0,6,0,12,0,18a22.79,22.79,0,0,0,0,2.34,1,1,0,0,0,.6.75c.75.23,1,0,1-.91C208.16,40.69,208.15,35.42,208.15,30.15Zm26,63.84h0c0-3.6,0-7.19,0-10.78,0-1.76,0-3.53,0-5.3,0-.47-.17-.78-.69-.79s-.86.14-.91.7a9,9,0,0,0,0,1c.07,3.67.2,7.34.22,11,0,6.4,0,12.8,0,19.2a4.41,4.41,0,0,0,.07,1.21c.07.23.39.55.58.53a1,1,0,0,0,.72-.51,3.12,3.12,0,0,0,.08-1.11ZM124.44,15.39h0q0,5,0,10c0,.61,0,1.24.81,1.38.15,0,.33.39.35.6a20.66,20.66,0,0,1,.08,2.08c0,2.38,0,4.75,0,7.12,0,.55.16.89.78.89s.81-.12.81-.72c0-3.16,0-6.31,0-9.47,0-.25-.26-.72-.41-.72-1-.05-1-.72-1-1.46q0-9.64,0-19.29a4.16,4.16,0,0,0-.11-1.28.89.89,0,0,0-.69-.44c-.19,0-.47.26-.58.47a1.77,1.77,0,0,0-.07.77Q124.44,10.35,124.44,15.39Zm57.71,53.45h0v-16c0-.52,0-1-.74-1s-.82.38-.83.94c0,1.94-.11,3.88-.07,5.81,0,2.48.23,5,.24,7.44,0,6.19,0,12.38,0,18.58,0,.14,0,.32,0,.42a7.36,7.36,0,0,0,.62.74,2.94,2.94,0,0,0,.69-.67,2,2,0,0,0,0-.85ZM150.46,85.51h0v15.72c0,.14-.05.32,0,.42.18.28.46.77.62.74a1.61,1.61,0,0,0,.85-.66,1.69,1.69,0,0,0,.05-.85c0-3.7-.12-7.41-.13-11.11,0-6.6,0-13.2,0-19.79,0-.64.1-1.47-.79-1.42s-.61.85-.61,1.41Zm8.63-9.31h0c0-5.26,0-10.53,0-15.8,0-.53-.06-1-.7-1.08s-.79.55-.79,1.09l-.21,22.3c0,1.79,0,3.59,0,5.38,0,1.33,0,2.66.05,4,0,.58.24,1,.92,1s.68-.5.7-1V76.2Zm20.53-24h-.07c0-3.35,0-6.71,0-10.06,0-.68-.26-1-.95-1.05s-.93.33-.92,1c0,1.62,0,3.24,0,4.86V62.35c0,.63.11,1.23.93,1.13a1.09,1.09,0,0,0,1-1.26C179.61,58.89,179.62,55.56,179.62,52.23Zm44.44-39.14h0q0-5.16,0-10.32c0-.58-.13-.95-.81-.91s-.84.34-.84.94c0,1,0,2.08,0,3.12,0,4.13,0,8.27,0,12.41,0,1.56,0,3.12,0,4.68,0,.14,0,.29,0,.43,0,.59.28,1,1,1s.76-.48.76-1Zm0,89.32h0V92.26c0-.54,0-1.06-.76-1s-1,.48-.94,1.14.1,1.1.1,1.64c0,2.95-.09,5.9-.09,8.84,0,3.24.07,6.48.11,9.72,0,.23,0,.52.07.67a1.23,1.23,0,0,0,.76.51c.22,0,.54-.27.66-.51a1.82,1.82,0,0,0,.08-.85Q224.07,107.41,224.06,102.41Zm-85.16,7.27h0c0-3.24,0-6.48,0-9.72a2.21,2.21,0,0,0,0-.86c-.13-.25-.43-.57-.66-.58s-.52.31-.66.56a1.62,1.62,0,0,0-.06.77q0,9.33,0,18.66a5.53,5.53,0,0,0,0,1.47,1.15,1.15,0,0,0,.74.69c.18,0,.48-.4.67-.67.08-.11,0-.34,0-.51Zm-1.46-89.43V30.31c0,.18-.06.4,0,.51s.45.64.67.63.5-.37.69-.62,0-.34,0-.51q0-10,0-20a1.77,1.77,0,0,0-.12-.84.88.88,0,0,0-.65-.38.71.71,0,0,0-.57.37,3.68,3.68,0,0,0-.12,1.11C137.43,13.83,137.44,17,137.44,20.25Zm10.11,37h0c0,3.39,0,6.78,0,10.17a1.7,1.7,0,0,0,.23,1c.13.17.68.27.74.19a2,2,0,0,0,.4-1.06q0-10,0-20c0-.26.07-.58-.05-.77a1.34,1.34,0,0,0-.74-.62c-.65-.11-.62.43-.62.87Zm13,80.13h0v10a1.77,1.77,0,0,0,.07.77.89.89,0,0,0,.6.45.84.84,0,0,0,.61-.42,2,2,0,0,0,.09-.85q0-9.78,0-19.55a2.85,2.85,0,0,0-.12-1.1.9.9,0,0,0-.72-.38c-.18,0-.41.29-.52.51s0,.39,0,.6Zm10.09-56h0v4.68c0,1.89,0,3.77,0,5.65,0,.67.55,1,1.08.7a1.31,1.31,0,0,0,.34-1q0-8,0-16c0-1.44,0-2.89,0-4.34,0-.71-.45-1.06-1-.74a1.21,1.21,0,0,0-.4.9C170.63,74.73,170.64,78.09,170.64,81.45Zm78,42.14h0v2.61c0,2.49,0,5,0,7.47,0,.57.08,1.08.82,1s.55-.64.56-1.07q0-9.95,0-19.89A1.51,1.51,0,0,0,250,113a3.77,3.77,0,0,0-.63-.7,3.24,3.24,0,0,0-.65.69,2,2,0,0,0-.06.86ZM160.54,48.06h0V58.39c0,.57.21,1.08.83.86a1.33,1.33,0,0,0,.57-1c0-6.72,0-13.44,0-20.15,0-.5,0-1-.72-1s-.69.52-.69,1Zm88.08-13.91h0v4.51c0,1.94,0,3.88,0,5.82,0,.43.06.82.64.82s.73-.35.74-.84v-.35q0-9.86,0-19.7a1.77,1.77,0,0,0,0-.77c-.12-.23-.41-.53-.6-.51a1.18,1.18,0,0,0-.69.53c-.11.17,0,.45,0,.68Zm-88.09-2.68h0c0-1.6,0-3.19,0-4.78,0-.49-.17-.76-.69-.77s-.76.24-.76.78c0,3.16,0,6.31,0,9.46,0,.52.18.91.79.9s.63-.46.63-.91C160.54,34.59,160.53,33,160.53,31.47Zm0,89.36c0-1.57,0-3.13,0-4.69,0-.51-.11-.84-.7-.82s-.67.33-.67.79c0,3.09,0,6.19,0,9.28,0,.47.09.85.69.87s.69-.43.69-.92C160.51,123.83,160.52,122.33,160.52,120.83Z"/><path d="M-.68,68.75V13C0,12.78.52,12.61.5,11.68.42,7.89.43,4.09.4.3c0-.55.22-.68.72-.68,1.37,0,2.75,0,4.12,0,.59,0,.8.17.79.78C6,2,6,3.65,6,5.3,6,7.53,6,9.76,6,12c0,.86.36,1.21,1.06,1.09s.64-.66.64-1.15q0-4.65,0-9.3c0-.8-.15-1.61-.16-2.42,0-.2.23-.59.38-.6.79-.06,1.58,0,2.38,0,0,.32.07.52.08.72.06.76,0,1.36-1,1.39-.65,0-.65.62-.65,1.13l0,16.08c0,1.33,0,2.67,0,4a1.28,1.28,0,0,0,.58,1c.68.28,1-.11,1-1,0-2.34,0-4.69,0-7,0-.36.3-1,.46-1,1.31,0,1.19-.88,1.19-1.73q0-6.3,0-12.6c0-.35-.13-.81.48-.82s.49.45.5.81c0,.89.05,1.79.1,2.68,0,.48.13.93.78.92s.77-.51.79-1a19.86,19.86,0,0,0,0-2.44c-.08-.88.28-1.08,1.08-1a26.18,26.18,0,0,0,3.43,0c.87-.06,1.11.28,1,1.09a14.27,14.27,0,0,0,0,1.73c0,.61.14,1.08.91,1.08s.74-.53.74-1.07c0-.92,0-1.84,0-2.73,1.41-.29,1.46-.24,1.47,1V35q0,10.83,0,21.64c0,2.91-.16,2.54,2.54,2.56,1.8,0,1.8,0,1.8,1.84,0,2.81,0,5.62,0,8.43,0,.6-.11,1-.84,1s-.63.51-.63,1q0,10.1,0,20.17c0,.57,0,1.06.79,1s.69-.54.69-1l0-19.46a4.71,4.71,0,0,1,0-1.13c.06-.21.34-.53.5-.53.91.06.92-.5.92-1.17,0-5.13,0-10.26,0-15.38,0-1.63,0-3.25,0-4.87,0-.33-.31-.94-.48-.94-1,0-1-.69-1-1.38V18c0-.87,0-1.74,0-2.61,0-.56-.24-.8-.77-.78-.23,0-.46,0-.69,0-1.27,0-1.4-.13-1.39-1.45q0-6.25,0-12.51c0-.34,0-.67.06-1h1.36V2.54c0,.5.22.92.74.81a1.15,1.15,0,0,0,.66-.79,10.32,10.32,0,0,0,0-2.08c0-.72.24-.93.95-.92,2.8.06,5.61,0,8.41.07h2.08a1.38,1.38,0,0,1,.09.33c0,6,0,12,0,18a1,1,0,0,1-.62.69.79.79,0,0,0-.75.87v9.56c0,.63.29.86.9.84,1.12,0,2.23,0,3.35,0,1.46,0,1.47,0,1.47-1.45q0-13.82,0-27.63c0-.4,0-.79.06-1.18h1.44V39.41a2,2,0,0,0,0,.77c.12.24.4.56.6.55a1.27,1.27,0,0,0,.85-.46,1.51,1.51,0,0,0,.12-.84q0-15.6,0-31.2c0-2.58,0-5.16,0-7.74,0-.29.27-.81.43-.82,1.68-.06,3.36,0,5.1,0,0,.41.06.78.06,1.15q0,19,0,38a5.1,5.1,0,0,1,0,1.3c-.08.27-.42.67-.64.67-.78,0-.91.48-.91,1.09,0,3.09,0,6.19,0,9.29,0,.61.2.91.84.9,1.43,0,2.86,0,4.29,0,.55,0,.8-.23.8-.76,0-.84,0-1.68,0-2.52,0-1.77,0-1.77,1.72-1.76,1.18,0,1.2,0,1.19,1.22-.07,7.32-.16,14.65-.21,22,0,3.19,0,6.37.06,9.56,0,.57.08,1,.81,1s.76-.52.76-1.07c0-2.31,0-4.63,0-7,.22-8.93-.35-17.87.31-26.8.23-3.11,0-6.25,0-9.38,0-.71-.31-1.08-1-1-.4,0-.8,0-1.2,0s-.72-.19-.7-.73c0-1.88,0-3.76.05-5.64,0-1.19,0-2.38,0-3.56,0-.68-.36-.83-.92-.84s-.82.28-.81.86c0,.78,0,1.56,0,2.34,0,1.93,0,1.91-1.89,1.88-.63,0-.9-.26-.93-.85,0-.32,0-.64,0-1q.09-13.25.19-26.49c0-.6,0-1.2,0-1.83h1V.26c0,2,0,4,0,6.07,0,.56.19,1.07.87,1s.74-.51.74-1.05V3.36c0-.59.13-1,.84-1s.9-.43.85-1.06c0-.29,0-.58,0-.87-.06-.6.18-.79.79-.79,2.71,0,5.43,0,8.14,0,.79,0,1,.2,1,1,0,3.82,0,7.64,0,11.47,0,.52,0,1,.74,1a.85.85,0,0,0,.94-1c0-.78,0-1.56,0-2.35,0-3.07,0-6.14,0-9.21,0-.29.26-.83.41-.84,1.67-.06,3.35,0,5.14,0V2.19c0,3.48,0,7,0,10.43,0,.46.05.88.67.89a.81.81,0,0,0,.94-.78,5.51,5.51,0,0,0,.06-.7c0-2.95-.06-5.9-.12-8.85,0-1.18-.12-2.35-.19-3.53h4.4V1.09l0,24.25v9c0,.56.07,1.11.75,1.14s.72.33.72.82c0,1.19,0,2.37,0,3.56,0,1.91,0,1.91-1.82,2.08-1.15.1-1.31.27-1.31,1.44,0,1.94,0,3.88,0,5.82,0,1.05,0,2.09.05,3.13,0,.61.26.88.9.83s1.43,0,2.14,0c1.47,0,1.48,0,1.47-1.49,0-5.1,0-10.2,0-15.29,0-.35.33-1,.56-1,.81-.11.87-.59.84-1.23,0-.46,0-.92,0-1.39,0-2,0-2-2-2-.64,0-.9-.25-.9-.93,0-6.55,0-13.1,0-19.65,0-2.28.14-4.56.2-6.84,0-1,0-1.91,0-2.86,0-.37,0-.89.52-.74.23.06.39.49.5.79a2,2,0,0,1,0,.69c0,2.07,0,4.15,0,6.23,0,.55,0,1.06.79,1.09s.76-.52.77-1.06V1.5c0-1.92,0-1.88,1.88-1.94.82,0,1.07.2,1.07,1.05,0,6.48,0,13,0,19.46a2.21,2.21,0,0,0,0,.86c.13.24.44.54.66.53a.94.94,0,0,0,.66-.55,2.92,2.92,0,0,0,0-1V.68c0-.34,0-.68,0-1,1.65,0,3.22,0,4.78,0,.58,0,.76.2.76.75,0,1.62,0,3.24,0,4.87q0,7.64,0,15.28c0,.65.15,1,.92,1S97,21,97,20.45Q97,10.6,97,.73C97,.36,97,0,97-.38h1.34c0,.38.05.72.05,1.06q0,9.9,0,19.81a12.24,12.24,0,0,1,0,1.82c0,.28-.38.71-.61.73-.76.05-.78.52-.78,1.08q0,9.94,0,19.9a1.51,1.51,0,0,0,0,.68c.16.25.45.57.68.57s.52-.33.64-.59a2.17,2.17,0,0,0,0-.85c0-2.87,0-5.74,0-8.61,0-.29.29-.83.45-.83,1,0,1-.66,1-1.37l0-25.73c0-1.91,0-3.82,0-5.73a1,1,0,0,1,.39-.77.91.91,0,0,1,.85.11,2.61,2.61,0,0,1,.22,1.16q0,9.78,0,19.56a2.43,2.43,0,0,0,0,.94A.92.92,0,0,0,102,23a1,1,0,0,0,.66-.48,1.72,1.72,0,0,0,0-.76V8.67c0-2.32,0-4.63,0-6.95,0-.32.24-.92.37-.92.82,0,1.15-.46,1.24-1.22,3.17,0,6.29,0,9.4,0a.8.8,0,0,1,.51.56c.07.75,0,1.51,0,2.26,0,.46.23.77.67.65a1.06,1.06,0,0,0,.69-.63,11.11,11.11,0,0,0,0-2.08c0-.6.2-.8.79-.8s.71.39.7.89c0,4.11,0,8.23,0,12.34,0,1.43-.09,1.53-1.5,1.51s-1.42,0-1.42,1.37V33.92c0,4.26,0,8.52,0,12.78,0,.37-.26,1-.44,1.06-1.06.11-.93.84-.93,1.53q0,7.7,0,15.38c0,1.51,0,3,0,4.52,0,.36.3,1,.5,1,.9.06.87.61.87,1.26q0,9.57,0,19.12a5.59,5.59,0,0,0,.06,1.3.87.87,0,0,0,.56.56c.94.16.81-.61.82-1.14,0-2.87,0-5.74,0-8.61,0-3.82,0-7.64,0-11.47,0-.8.56-1.25,1.11-.85a1.46,1.46,0,0,1,.35,1c0,10.11,0,20.22,0,30.33,0,2.24-.2,2-1.84,1.93-.82,0-1.12.37-1.11,1.17,0,1.27,0,2.55,0,3.82q0,13.65,0,27.29c0,.64,0,1.23-.86,1.32-.19,0-.43.35-.5.58a3.73,3.73,0,0,0,0,.95q0,6.08,0,12.16H102.76c0-.38,0-.75,0-1.13,0-4.68,0-9.36,0-14,0-.48.07-1.05-.66-1.08s-.75.39-.75.9q0,7.68,0,15.35H79.78c0-1.1,0-2.19-.08-3.29,0-.9-.43-1.06-1.29-.83a3.42,3.42,0,0,1-1.74,0c-.89-.25-1.22-.11-1.27.83-.05,1.1-.06,2.19-.08,3.29H73.94c0-.26,0-.52,0-.78V137.34a3,3,0,0,1,.08-1c.08-.23.36-.57.53-.56,1,0,1-.61,1-1.36q0-8.39,0-16.77c0-1.18,0-2.37,0-3.55,0-.3-.33-.84-.5-.83-.89,0-.86-.53-.86-1.14,0-2.9,0-5.79,0-8.69a2.06,2.06,0,0,0-.36-1.1.89.89,0,0,0-.77-.29,1,1,0,0,0-.6.58,3.41,3.41,0,0,0-.12,1.11c0,3.65,0,7.3,0,10.94,0,2.87,0,5.74,0,8.6a1.37,1.37,0,0,1-.35,1,2.8,2.8,0,0,1-1.42.5c-.81,0-.91.5-.91,1.15,0,2.67,0,5.33,0,8,0,1.86,0,1.9,1.82,1.85.86,0,1.11.32,1.1,1.11,0,2.2,0,4.4,0,6.6,0,2.49,0,5,0,7.47H68.11c0-1.85,0-3.71,0-5.56,0-2.69,0-5.38,0-8.08,0-.33-.29-1-.42-1-1.09.06-1-.68-1-1.34q0-9.85,0-19.72a1.78,1.78,0,0,0,0-.77c-.12-.24-.41-.56-.61-.56a1.14,1.14,0,0,0-.77.51,1.81,1.81,0,0,0-.06.85v19.72q0,5.77,0,11.55c0,.57,0,1.11.81,1.14.17,0,.43.5.46.78.07.81,0,1.62,0,2.43H60.9c.07-5.12.15-10.24.21-15.36,0-3.21.08-6.42.13-9.63,0-.84-.42-1.12-1.18-1.09-.54,0-1.28.16-1.57-.13s-.2-1-.21-1.58c0-2.69-.06-5.38,0-8.07,0-.65-.07-1.11-.8-1.14s-.85.52-.85,1.11c0,1,0,2,0,3,0,.3-.14.83-.26.84a7,7,0,0,1-2.19,0c-.19,0-.35-.78-.35-1.21,0-3.62,0-7.24,0-10.86,0-3.21,0-6.43,0-9.64,0-3.7.1-7.41.16-11.11,0-.64-.31-.86-.9-.85s-.76.4-.77.91,0,.87,0,1.3q0,11.27,0,22.51c0,6.48,0,13,0,19.46,0,.24-.34.71-.5.7-1.09-.07-1.12.63-1.12,1.41,0,2.26,0,4.52,0,6.77,0,.79,0,1.57,0,2.35,0,.49.19.73.72.73,1.46,0,2.92,0,4.37,0,.59,0,.84-.25.83-.83,0-.75,0-1.5,0-2.26,0-2,0-1.95,2-2,.72,0,1,.25,1,.95,0,1.88,0,3.76,0,5.64q0,4.05.05,8.08H45.12c0-2.74,0-5.48,0-8.23,0-.68-.15-1.24-.93-1.27s-.75.64-.76,1.18c0,2.77,0,5.55,0,8.32H37.74c0-2.89.06-5.78.07-8.68,0-.42.12-1-.6-1s-1,.34-1.05,1,0,1.38,0,2.08q0,3.33,0,6.68h-1c0-4,0-7.93,0-11.89,0-2.6-.08-5.21-.12-7.81a.85.85,0,0,0-.88-1c-.61,0-.8.36-.86.86a6.78,6.78,0,0,0,0,.78c0,5.16,0,10.31,0,15.46,0,1.18.12,2.37.18,3.55H29.17c0-4.2,0-8.4,0-12.6,0-.55-.07-1-.76-1s-.71-.55-.72-1.06c0-1.62,0-3.24,0-4.86,0-8.83,0-17.67,0-26.5,0-.78-.26-1.06-1-1-.2,0-.4,0-.6,0-1.14,0-1.27-.12-1.27-1.3,0-1.94,0-3.88,0-5.82V71.41c0-.59-.09-1-.82-1s-.66.56-.66,1q0,6.69,0,13.37,0,26,0,52,0,5.31,0,10.6c0,1,.15,1.15,1.15,1.15.77,0,1.55,0,2.32,0a.74.74,0,0,1,.87.81c0,.55,0,1.1.06,1.65H22a8,8,0,0,0-.07-1.47c-.07-.29-.36-.73-.59-.76-.77-.1-.81-.58-.81-1.17q0-9.9,0-19.8a2.65,2.65,0,0,0-.13-1,.86.86,0,0,0-.62-.45.81.81,0,0,0-.59.46A3.92,3.92,0,0,0,19,128v23H14.76a7.92,7.92,0,0,0-.1-1.55,1,1,0,0,0-.68-.66c-.22,0-.59.39-.66.66a7.92,7.92,0,0,0-.11,1.55H4.63c0-.55,0-1.1,0-1.65q0-6.47,0-12.94c0-.47,0-1-.66-1s-.75.48-.75,1c0,2.61,0,5.21,0,7.82,0,2.26,0,4.51,0,6.77H1.72c0-.55,0-1.1,0-1.65V136.37c0-.51,0-1-.72-1s-.85.39-.84,1Q.23,143.64.34,151h-1V102.12c1,.1,1.22-.48,1.18-1.32,0-.52-.07-1-.07-1.56,0-2.78,0-5.56,0-8.34,0-3.41,0-6.82,0-10.23,0-.2.22-.58.32-.57,1.15.05.93-.81.93-1.44q0-15.76,0-31.53c0-.59-.06-1-.81-1S0,46.6.05,47.19C.14,51,.24,54.88.29,58.72c0,2.9,0,5.79,0,8.69C.31,68.2,0,68.59-.68,68.75ZM16.1,126.32c0-3.44,0-6.87,0-10.31a.94.94,0,0,0-.66-.64c-.24,0-.56.34-.7.6a2,2,0,0,0,0,.86c0,2.66,0,5.31,0,8,0,1.42,0,1.42,1.4,1.5,0,.28.05.57.05.86q0,10.08,0,20.16a1.82,1.82,0,0,0,.08.85.91.91,0,0,0,.66.47c.21,0,.48-.3.59-.54a2.38,2.38,0,0,0,.05-.85V127.69C17.58,126.29,17.48,126.2,16.1,126.32Zm0-89.17c0-3.53,0-7.06,0-10.59a.81.81,0,0,0-.27-.57c-.19-.13-.61-.24-.67-.17a2.06,2.06,0,0,0-.47,1c0,2.89,0,5.79,0,8.68,0,1.42,0,1.42,1.38,1.6,0,.23.05.46.05.69q0,10,0,20a4.51,4.51,0,0,0,0,.52c.05.45,0,1,.69,1s.74-.41.75-.92,0-.81,0-1.21q0-9.33,0-18.67C17.59,37,17.54,36.93,16.1,37.15Zm83.79,69.62h0V98.25c0-2.4,0-4.8,0-7.21,0-.68.21-1.05,1-.93s.47.64.47,1q0,10,0,20.07a1.47,1.47,0,0,0,0,.6c.13.25.37.64.56.63a1.32,1.32,0,0,0,.79-.5c.12-.14.05-.45.05-.68V99.78c0-2.89,0-5.79,0-8.69,0-.33.27-.92.45-.93,1-.07,1-.7,1-1.45,0-3.25,0-6.49,0-9.74s0-6.72,0-10.08c0-.52,0-1.1-.64-1.13-.92-.05-.88-.63-.87-1.26V46.77a1.77,1.77,0,0,0-.05-.77c-.14-.26-.48-.67-.62-.63a1.52,1.52,0,0,0-.72.68c-.1.17,0,.45,0,.68q0,9.65,0,19.29c0,2,0,1.68-1.65,1.7-1.17,0-1.27.11-1.27,1.3q0,10.82,0,21.64c0,6.89,0,13.79,0,20.68,0,.3-.17.82-.33.86-1.06.2-1,1-1,1.77q0,9,0,18a16,16,0,0,0,.06,2.08.89.89,0,0,0,.62.6c.22,0,.55-.31.66-.56a2.43,2.43,0,0,0,0-.94c0-2.87,0-5.74,0-8.6,0-.34.3-1,.46-1,1.08,0,1-.74,1-1.44Q99.9,114.45,99.89,106.77Zm-53.22,1.09h0v-4.43l0-16.78c0-.52.07-1.14-.73-1.05s-.92-.4-.92-1c0-.87,0-1.74,0-2.61q0-12.3,0-24.59c0-1.45,0-2.9,0-4.34,0-.88-.63-1.32-1.21-.89a1.64,1.64,0,0,0-.43,1.13c0,2.81,0,5.62,0,8.43,0,3.82,0,7.64,0,11.47,0,.33-.17.93-.34,1-1,.15-.88.89-.88,1.57q0,10,0,19.91,0,5.6,0,11.21c0,.54.07,1.21-.74,1.18s-.7-.68-.72-1.22V86.91a1.44,1.44,0,0,0-.1-.76,1,1,0,0,0-.7-.43c-.22,0-.46.3-.61.52s0,.4,0,.6v9.21c0,3.59,0,7.19,0,10.78,0,.65,0,1.22-.89,1.27-.18,0-.48.43-.48.67,0,3.22,0,6.43,0,9.65a.78.78,0,0,0,.87.84h3.22c1.61,0,1.62,0,1.62-1.66q0-15.33,0-30.67c0-.24-.06-.52,0-.68s.47-.54.71-.54.55.3.67.55a2.41,2.41,0,0,1,.06.94q0,20.76,0,41.54a1.78,1.78,0,0,0,0,.77,1.18,1.18,0,0,0,.65.6c.9.17.92-.47.92-1.14Q46.67,118.43,46.67,107.86ZM72.45,57.65h0V68c0,.57.24,1.07.85.83a1.38,1.38,0,0,0,.56-1.06c0-2.92,0-5.85,0-8.78,0-3.76,0-7.53,0-11.29,0-.52,0-1.06.7-1s.94-.44.94-1.12c0-2.78,0-5.55,0-8.33,0-4.08,0-8.17.06-12.25,0-.46,0-1-.63-1s-.86-.36-.78-1a7.53,7.53,0,0,0,0-1c0-2.61,0-5.21,0-7.82,0-.79-.45-1.58-1-1.55-.87,0-.94.68-.93,1.36v.26q0,9.35,0,18.68c0,1.94,0,2-1.79,2.48-.73.19-.88.54-.88,1.19,0,2.78,0,5.56,0,8.34,0,1.56.13,1.67,1.68,1.69,1.2,0,1.23.05,1.22,1.29ZM66.72,35.82h0V32.17c0-2.2,0-4.4,0-6.6,0-.7-.57-1.1-1.12-.72a1.42,1.42,0,0,0-.36,1q0,15.42,0,30.84a7.47,7.47,0,0,0,0,1c0,.46.18.82.75.89.18,0,.44.41.44.63,0,1.53,0,3.06,0,4.59,0,2.63,0,5.27,0,7.9s0,5.21,0,7.81c0,.59.16,1.08.85,1s.88.34.88,1c0,3,0,6.08,0,9.12,0,3.57,0,7.13,0,10.69,0,.64.25,1,.85,1.06s.78-.47.81-1,0-.93,0-1.39q-.15-12.7-.3-25.42c0-1.56,0-3.13,0-4.69,0-.34-.26-1-.43-1-1-.05-1-.76-1-1.47V48.78a6.08,6.08,0,0,0,0-1.21c0-.23-.3-.59-.45-.58-1,.06-.93-.61-.92-1.26ZM82.86,92.18h0c0-1.45,0-2.9,0-4.35,0-1.12-.27-1.59-.92-1.55-1,.07-.79.91-.79,1.52q0,11.78,0,23.54,0,6,0,12.07c0,.63.06,1.23.75,1.37s.76.5.75,1c0,1.12,0,2.25,0,3.38,0,2.43,0,2-2,2-.71,0-1.09.22-1.09,1,0,1.32,0,2.65,0,4,0,1.76-.07,3.53-.1,5.29,0,.72.3,1.06,1,1s1.43,0,2.15,0c1.36,0,1.39-.05,1.39-1.41q0-7.63,0-15.28c0-.5,0-.93.67-1s.74-.48.74-1c0-.78,0-1.56,0-2.34,0-1.37,0-1.4-1.4-1.41s-1.47,0-1.44-1.44c.17-7.28-.34-14.57.26-21.85C83,95.25,82.86,93.71,82.86,92.18ZM20.53,48.24h0V38.08c0-.51,0-1-.72-1s-.75.47-.76,1v.61q0,11.25,0,22.49c0,2.81,0,5.62,0,8.43,0,.34.14,1,.3,1,1.1.23,1,1.09,1,1.83,0,2.2,0,4.39,0,6.59l-.09,12.67c0,.63.08,1.2.87,1.22s.79-.66.79-1.23V61a4,4,0,0,0-.05-1c-.07-.23-.32-.58-.5-.58-.85,0-.84-.61-.84-1.22ZM75.36,80.09h0v7c0,4.81,0,9.62,0,14.43,0,.5-.07,1.08.71,1.13s.86-.53.86-1.09c0-2.22.09-4.45.07-6.68,0-1.72-.22-3.45-.22-5.18,0-6.28,0-12.56,0-18.85,0-1.95,0-1.95,1.95-2h.17a.7.7,0,0,0,.79-.8c0-3.21,0-6.43,0-9.64,0-.72-.37-1-1-.93a19.28,19.28,0,0,1-2.28,0c-.63-.05-1,.14-1,.82,0,.35,0,.7,0,1Zm11.79-2.7h0V72.7c0-1.88,0-3.76,0-5.64,0-.6-.23-1-.91-1s-.78.46-.79,1,0,1.1,0,1.65c0,2,0,3.94,0,5.9,0,.58-.13.94-.81.9s-.9.55-.9,1.17c0,2.84.09,5.67.11,8.51,0,2.25,0,4.5,0,6.76,0,1.56,0,3.12,0,4.68,0,.69.23,1.09,1,1s.62-.63.62-1.08q0-3.43,0-6.86c0-.71.07-1.25,1-1.28.61,0,.75-.51.75-1.06Q87.15,82.38,87.15,77.39ZM58.25,80.7h0V79q0-4.22.07-8.42c0-.87-.3-1.27-1-1.25s-.73.65-.74,1.2l0,3c0,.5-.19.85-.76.81s-.79.34-.81.86c0,.69-.06,1.39-.06,2.08q0,9.24,0,18.48c0,.56.2,1,.82,1s.76-.48.77-1c0-1,0-2.09,0-3.13,0-.59.18-.93.82-1s.88-.4.88-1ZM12,92.88h0c0-3.36,0-6.72,0-10.08,0-.6-.07-1.1-.85-1.11s-.82.46-.82,1q0,3.51,0,7c0,.47.08,1-.64,1.11s-1,.55-1,1.32c0,4.38,0,8.75,0,13.13,0,2.26,0,4.51,0,6.77,0,.49,0,1,.62,1.17s1-.15,1-1.06c0-2.41,0-4.81,0-7.22,0-.45,0-.93.62-.91.93,0,1.07-.52,1.06-1.29C12,99.49,12,96.19,12,92.88Zm85,1.17h0q0-7.17,0-14.33A8.3,8.3,0,0,0,97,78a1,1,0,0,0-.7-.64c-.28,0-.62.29-.84.53s-.06.45-.06.68v25.17c0,2,0,4,0,6.08,0,.91.35,1.22,1.13,1s.55-.79.55-1.27C97.05,104.41,97,99.23,97,94.05ZM6,85.53v9q0,3.48,0,7c0,.61.17,1,.89,1s.81-.61.8-1.17c-.07-3.88-.19-7.75-.2-11.63,0-6.63,0-13.26,0-19.89,0-.59,0-1.22-.74-1.24S6,69.12,6,69.72C6,75,6,80.26,6,85.53ZM63.8,30.1h0V14.46a1.94,1.94,0,0,0,0-.77.87.87,0,0,0-.59-.48.84.84,0,0,0-.63.41,1.91,1.91,0,0,0-.13.84c-.1,3.75-.25,7.5-.27,11.26,0,6.68,0,13.37,0,20.06,0,.7.13,1.17,1,1.17s.74-.61.74-1.13C63.81,40.58,63.8,35.34,63.8,30.1Zm0,89.44h0V103.47c0-.42.06-.9-.59-1s-.79.39-.8.93q-.15,7.55-.28,15.08c0,1.5,0,3,0,4.51,0,1.19.06,2.37.06,3.56,0,2.86-.07,5.72-.09,8.59,0,.62.13,1.13,1,1.14s.72-.63.72-1.14Q63.8,127.35,63.79,119.54ZM37.84,68.81h0V64c0-3.74,0-7.48,0-11.21,0-.86-.64-1.28-1.26-.81a1.67,1.67,0,0,0-.43,1.14c-.05,2.75-.07,5.5,0,8.24,0,1.1.28,2.18.28,3.28,0,6.66,0,13.32,0,20,0,.21-.06.46,0,.6s.41.55.62.54a1.09,1.09,0,0,0,.73-.49,1.81,1.81,0,0,0,.08-.85ZM14.71,76.22h0q0-7.86,0-15.72c0-.5.06-1.14-.67-1.18s-.77.53-.78,1.08c0,7.4-.12,14.81-.16,22.21,0,2.26,0,4.51,0,6.77,0,.9-.06,1.79,0,2.69,0,.48,0,1,.76,1s.8-.44.82-1c0-.28,0-.57,0-.86ZM89.76,94h0V80.89c0-1,0-2,0-3,0-.26-.42-.7-.63-.68a1.08,1.08,0,0,0-.82.59,4.62,4.62,0,0,0-.11,1.54c.06,3.38.18,6.76.19,10.14,0,6.6,0,13.2,0,19.8a4,4,0,0,0,.11,1.2.64.64,0,0,0,1.2,0,3.8,3.8,0,0,0,.09-1.12ZM33.29,52.33h0v1.74c0,2.81,0,5.62,0,8.43,0,.92.78,1.39,1.41.86a1.69,1.69,0,0,0,.45-1.14c.05-1.88,0-3.76,0-5.64,0-4.78,0-9.55,0-14.32,0-.92-.34-1.27-1.23-1.13s-.65.74-.65,1.22C33.28,45.68,33.29,49,33.29,52.33ZM79.72,13.1h0c0-3.48,0-6.95,0-10.42,0-.61-.23-.84-.81-.81-.76,0-.82.59-.82,1.18q0,7.5,0,15c0,1.82,0,3.65,0,5.47,0,.81.77,1.27,1.32.8a1.59,1.59,0,0,0,.35-1.07C79.73,19.87,79.72,16.48,79.72,13.1Zm0,89.38c0-3.38,0-6.77,0-10.15,0-.52.07-1.09-.72-1.1s-1,.39-1,1.09c0,1.56,0,3.13,0,4.69q0,7.63,0,15.28c0,.68,0,1.45.94,1.46s.71-.82.72-1.37C79.72,109.08,79.71,105.78,79.71,102.48ZM3.2,57.28h0q0,5.17,0,10.33c0,.91.42,1.23,1.06.78a1.33,1.33,0,0,0,.32-1q0-9.9,0-19.8a1.84,1.84,0,0,0,0-.85,1.22,1.22,0,0,0-.72-.61c-.16,0-.43.37-.6.62-.07.09,0,.28,0,.42Q3.2,52.25,3.2,57.28Zm102.47-23V23.84c0-.47-.16-.75-.69-.76s-.69.31-.71.76c0,.29,0,.58,0,.87q0,9.63,0,19.26c0,.26-.07.58.06.76a1.16,1.16,0,0,0,.77.53c.67,0,.58-.57.58-1Zm0,89.42h0c0-3.38,0-6.77,0-10.16,0-.63-.2-1.15-.85-1.12-.2,0-.52.69-.52,1.07,0,6.74,0,13.49,0,20.23,0,.46,0,1,.67,1s.73-.49.73-1Z"/><path class="cls-1" d="M40.75-.39c0,.37-.06.71-.06,1.05q0,8.37,0,16.75c0,.2,0,.4,0,.6,0,.52.33.69.82.65.76-.06.61-.64.61-1.1q0-8.46,0-16.92c0-.34,0-.67,0-1Z"/><path class="cls-1" d="M185.08-.39V17.66c0,.91.38,1.31,1,1a1.44,1.44,0,0,0,.41-1.08c0-5.64,0-11.28,0-16.92,0-.34,0-.67-.06-1Z"/><path class="cls-1" d="M261.63,131h0c0-1.79,0-3.58,0-5.37,0-.72-.47-.84-.92-.85-.19,0-.56.49-.56.75,0,3.64,0,7.28,0,10.92a1.12,1.12,0,0,0,.67.79c.54.15.72-.3.76-.78,0-.2,0-.4,0-.61Z"/><path class="cls-1" d="M115.73,130.92h0c0,1.8,0,3.6,0,5.39,0,.51.2,1,.77.89a1.19,1.19,0,0,0,.68-.88c0-3.53,0-7.06,0-10.6,0-.63-.25-.9-.87-.88s-.67.44-.67,1C115.75,127.5,115.73,129.21,115.73,130.92Z"/><path class="cls-1" d="M260.13,41.62h0v5.29c0,.52.13.93.74.94s.72-.45.72-1c0-3.52,0-7,0-10.57,0-.72-.4-1-.91-1-.22,0-.55.62-.56,1C260.1,38.09,260.13,39.86,260.13,41.62Z"/><path class="cls-1" d="M115.76,41.55h0c0,1.73,0,3.47,0,5.2,0,.54.11,1.08.73,1.06s.76-.5.76-1.11c0-3.41,0-6.82,0-10.23,0-.71-.27-1.13-.85-1.14s-.68.57-.67,1.1C115.77,38.14,115.76,39.84,115.76,41.55Z"/><path d="M263,151q0-22.54,0-45.1,0-24.81,0-49.62V.8c0-1.34,0-1.34,1.52-1.14V2.73c0,.69-.08,1.38,1,1.34.14,0,.43.45.43.7,0,3.64-.1,7.29-.14,10.93,0,1.88,0,3.77,0,5.65,0,1.3,0,2.61,0,3.91,0,.58-.27,1.4.75,1.43s.79-.88.8-1.45c0-3.68,0-7.36,0-11q0-6.69,0-13.38V-.36h4.4c0,1.13,0,2.26,0,3.37a1.34,1.34,0,0,0,.32.91c.46.37,1.08,0,1.09-.68,0-1.18,0-2.36,0-3.6h5.74c0,.32.06.65.06,1,0,2.49,0,5,0,7.47,0,.46-.08,1,.63,1s.72-.49.72-1q0-3.74,0-7.47c0-.32.06-.64.09-1h.24V.55q0,26.07,0,52.14v89.42c0,2.95,0,5.91,0,8.86h-3.09c0-2.34.05-4.68,0-7a1,1,0,0,0-.62-.75c-.92,0-1-.57-1-1.26,0-1,0-2,0-3,0-.49-.17-.83-.75-.82s-.75.33-.77.83c0,.12,0,.23,0,.35l0,11.71h-1.2c0-.37,0-.74,0-1.12,0-.6-.35-.77-.88-.78s-.67.33-.67.78V151h-5.66c0-.28,0-.57,0-.85,0-.54-.25-.85-.82-.86s-.68.4-.7.85c0,.29,0,.57,0,.86Zm3.09-79.86h0V65.56c0-1.57,0-3.13,0-4.69,0-.84-.42-1.26-1-1a1.52,1.52,0,0,0-.54,1.17c0,5.56,0,11.11,0,16.67,0,4.84,0,9.67,0,14.51,0,.38.32,1.08.5,1.09.94,0,.89.63.88,1.25-.06,3.62-.14,7.23-.17,10.85,0,2.63,0,5.26,0,7.9a14.72,14.72,0,0,0,.08,2c.08.62.83,1,1.19.56a1.81,1.81,0,0,0,.28-1.12q0-15.72,0-31.44c0-.17.05-.38,0-.51s-.35-.64-.59-.68c-.6-.12-.61-.49-.61-1Zm11.62-6h0c0-.73,0-1.45,0-2.17l0-8.17c0-.48-.17-.81-.68-.79-.8,0-1-.46-1-1.1,0-1,0-2.09,0-3.13,0-.57-.18-.87-.79-.86s-.79.3-.79.87q0,10.13,0,20.25c0,.52.13,1,.79,1s.87.39.86,1c0,1,0,2,0,3,0,.54,0,1.07.78,1.06s.89-.5.89-1.1C277.72,71.69,277.71,68.39,277.71,65.09Zm-6,11.4h0V91.77c0,.23-.08.51,0,.69a6,6,0,0,0,.69.93c.24-.3.5-.6.72-.91.05-.08,0-.23,0-.34V72.34c0-.35,0-.69,0-1,.06-3.61.11-7.23.16-10.84,0-.63-.38-1-.89-.89-.29,0-.52.54-.73.87-.08.12,0,.33,0,.51Zm8.62,5.12V72c0-2.11,0-4.23,0-6.34a1.05,1.05,0,0,0-.42-.82,1,1,0,0,0-.91.2,1.64,1.64,0,0,0-.18,1c.05,3.93.13,7.87.15,11.8,0,6.43,0,12.86,0,19.29,0,.23-.08.52,0,.69a3.82,3.82,0,0,0,.7.69,3.65,3.65,0,0,0,.61-.7c.1-.18,0-.45,0-.68ZM270.24,15.36h0V9.63c0-1.56,0-3.13,0-4.69,0-.74-.53-1.17-1-.81a1.44,1.44,0,0,0-.35,1c0,3.3,0,6.59,0,9.89,0,3.48,0,7,0,10.42,0,.38.22,1.06.4,1.08.9.1.85.65.82,1.3s0,1.33,0,2c0,2.25,0,4.51,0,6.76,0,.52.14.82.73.82s.79-.18.79-.75c0-3.15,0-6.3,0-9.46,0-.25-.33-.71-.52-.71-.85,0-.86-.56-.86-1.19Q270.25,20.36,270.24,15.36Zm-1.39,89.28c0,3.39,0,6.77,0,10.16,0,.6-.08,1.27.86,1.27.14,0,.36.34.4.55a6,6,0,0,1,0,1.12c0,2.75,0,5.5,0,8.25,0,.51.14.82.72.82s.78-.22.78-.77c0-3.12,0-6.25,0-9.38,0-.26-.3-.74-.48-.74-.95,0-.92-.64-.92-1.31q0-7,0-14V94.46c0-.61-.1-1.21-.87-1-.25.08-.5.65-.5,1C268.83,97.86,268.85,101.25,268.85,104.64Z"/><path class="cls-1" d="M27.79,151c0-.55,0-1.1-.06-1.65a.74.74,0,0,0-.87-.81c-.77,0-1.55,0-2.32,0-1,0-1.14-.13-1.15-1.15q0-5.3,0-10.6,0-26,0-52,0-6.69,0-13.37c0-.49-.1-1,.66-1s.82.43.82,1V96.87c0,1.94,0,3.88,0,5.82,0,1.18.13,1.29,1.27,1.3.2,0,.4,0,.6,0,.73-.07,1,.21,1,1,0,8.83,0,17.67,0,26.5,0,1.62,0,3.24,0,4.86,0,.51,0,1,.72,1.06s.76.43.76,1c0,4.2,0,8.4,0,12.6Z"/><path class="cls-1" d="M59.53,151q0-4-.05-8.08c0-1.88,0-3.76,0-5.64,0-.7-.24-1-1-.95-2,0-2,0-2,2,0,.76,0,1.51,0,2.26,0,.58-.24.84-.83.83-1.45,0-2.91,0-4.37,0-.53,0-.72-.24-.72-.73,0-.78,0-1.56,0-2.35,0-2.25,0-4.51,0-6.77,0-.78,0-1.48,1.12-1.41.16,0,.5-.46.5-.7,0-6.49,0-13,0-19.46q0-11.25,0-22.51c0-.43,0-.86,0-1.3s.13-.91.77-.91.91.21.9.85c-.06,3.7-.13,7.41-.16,11.11,0,3.21,0,6.43,0,9.64,0,3.62,0,7.24,0,10.86,0,.43.16,1.18.35,1.21a7,7,0,0,0,2.19,0c.12,0,.25-.54.26-.84,0-1,0-2,0-3,0-.59.06-1.15.85-1.11s.81.49.8,1.14c0,2.69,0,5.38,0,8.07,0,.55-.09,1.29.21,1.58s1,.14,1.57.13c.76,0,1.19.25,1.18,1.09-.05,3.21-.08,6.42-.13,9.63-.06,5.12-.14,10.24-.21,15.36Z"/><path class="cls-1" d="M203.81,151l0-13.81c0-.61-.25-.86-.88-.87-2,0-2-.06-2,2,0,.78,0,1.56,0,2.35,0,.5-.21.74-.72.74-1.46,0-2.92,0-4.37,0-.82,0-.84-.53-.84-1.11q0-4.56,0-9.12c0-.08,0-.2,0-.25.21-.24.45-.66.67-.66.83,0,.93-.44.93-1.11q0-12.38,0-24.76,0-8.68,0-17.38a2.71,2.71,0,0,1,.07-1,3.5,3.5,0,0,1,.72-.78c.26.27.7.51.74.81a22.64,22.64,0,0,1,.13,2.86c-.07,9.4-.16,18.81-.22,28.22,0,2.37-.06,1.9,2,2,.68,0,.94-.29.95-.92,0-1,0-2,0-3,0-.53,0-1.12.75-1.09s.87.49.86,1.13c0,3,0,6-.06,9,0,.51.13.79.67.76h.17c2.13,0,2.09,0,2.09,2.19,0,1.88,0,3.76,0,5.65q-.09,8.55-.2,17.1c0,.37,0,.75.06,1.12Z"/><path class="cls-1" d="M172.07,151c.14-2.45.14-2.45-2.26-2.45-2,0-2,.32-2-2q0-35.07,0-70.13c0-1.68,0-3.36,0-5,0-.47-.06-1,.66-1s.76.38.76.94q0,15.44,0,30.85v.87c0,.67.29,1,1,1,2.17-.07,1.91-.17,1.91,2q0,15.17,0,30.32c0,.65.09,1.12.9,1.19.2,0,.5.57.5.88,0,3.33,0,6.66,0,10,0,.87,0,1.74,0,2.61Z"/><path class="cls-1" d="M72.4,151c0-2.49,0-5,0-7.47,0-2.2,0-4.4,0-6.6,0-.79-.24-1.14-1.1-1.11-1.83.05-1.83,0-1.82-1.85,0-2.66,0-5.32,0-8,0-.65.1-1.1.91-1.15a2.8,2.8,0,0,0,1.42-.5,1.37,1.37,0,0,0,.35-1c0-2.86,0-5.73,0-8.6,0-3.64,0-7.29,0-10.94a3.41,3.41,0,0,1,.12-1.11,1,1,0,0,1,.6-.58.89.89,0,0,1,.77.29,2.06,2.06,0,0,1,.36,1.1c0,2.9,0,5.79,0,8.69,0,.61,0,1.16.86,1.14.17,0,.49.53.5.83.07,1.18,0,2.37,0,3.55q0,8.39,0,16.77c0,.75,0,1.41-1,1.36-.17,0-.45.33-.53.56a3,3,0,0,0-.08,1v12.85c0,.26,0,.52,0,.78Z"/><path class="cls-1" d="M216.85,151c0-4.69,0-9.38,0-14.07,0-.79-.29-1.13-1.12-1.11-1.77.05-1.77,0-1.77-1.8,0-2.7,0-5.39,0-8.08,0-.67.08-1.11.91-1.11a3.06,3.06,0,0,0,1.42-.41c.21-.11.34-.56.34-.86,0-2.63,0-5.27,0-7.9q0-6.07,0-12.16a2.38,2.38,0,0,1,.19-1,.76.76,0,0,1,1.41,0,3.17,3.17,0,0,1,.27,1.33c0,2.89,0,5.79,0,8.68,0,.5,0,.81.68.84.25,0,.6.37.7.65a4.26,4.26,0,0,1,.08,1.29q0,9.78,0,19.54c0,.67-.15,1.09-.88,1s-.74.44-.75.92c0,1.16,0,2.31,0,3.47L218.22,151Z"/><path class="cls-1" d="M-.68,68.75c.71-.16,1-.55,1-1.34,0-2.9,0-5.79,0-8.69C.24,54.88.14,51,.05,47.19c0-.59.1-1,.81-1.06s.81.41.81,1q0,15.76,0,31.53c0,.63.22,1.49-.93,1.44-.1,0-.32.37-.32.57,0,3.41,0,6.82,0,10.23,0,2.78,0,5.56,0,8.34,0,.52,0,1,.07,1.56,0,.84-.21,1.42-1.18,1.32Z"/><path class="cls-1" d="M66.57,151c0-.81,0-1.62,0-2.43,0-.28-.29-.77-.46-.78-.83,0-.81-.57-.81-1.14q0-5.77,0-11.55V115.35a1.81,1.81,0,0,1,.06-.85,1.14,1.14,0,0,1,.77-.51c.2,0,.49.32.61.56a1.78,1.78,0,0,1,0,.77q0,9.87,0,19.72c0,.66-.14,1.4,1,1.34.13,0,.42.62.42,1,0,2.7,0,5.39,0,8.08,0,1.85,0,3.71,0,5.56Z"/><path class="cls-1" d="M211,151c0-.81-.08-1.62-.1-2.42,0-.46-.08-.76-.61-.88-.23,0-.45-.4-.58-.66a1.51,1.51,0,0,1,0-.68q0-15.48,0-30.94c0-.54-.27-1.39.67-1.41s.69.88.69,1.43q0,9.9,0,19.82c0,.61,0,1.15.85,1.14.18,0,.51.56.52.87.06,1.3,0,2.61,0,3.91l-.06,9.82Z"/><path class="cls-1" d="M19,151V128a3.92,3.92,0,0,1,.13-1.19.81.81,0,0,1,.59-.46.86.86,0,0,1,.62.45,2.65,2.65,0,0,1,.13,1q0,9.9,0,19.8c0,.59,0,1.07.81,1.17.23,0,.52.47.59.76A8,8,0,0,1,22,151Z"/><path class="cls-1" d="M33.46,151c-.06-1.18-.17-2.37-.18-3.55,0-5.15,0-10.3,0-15.46a6.78,6.78,0,0,1,0-.78c.06-.5.25-.9.86-.86a.85.85,0,0,1,.88,1c0,2.6.11,5.21.12,7.81,0,4,0,7.93,0,11.89Z"/><path class="cls-1" d="M163.5,151l0-20.66c0-.9,0-1.8,0-2.7,0-.54-.16-1.31.7-1.29s.67.74.67,1.26c0,2.75,0,5.5,0,8.25q0,5.78,0,11.55c0,.68,0,1.36.94,1.4.17,0,.41.45.45.72a9,9,0,0,1,0,1.47Z"/><path class="cls-1" d="M177.73,151q0-9.81,0-19.63c0-.65.27-1,.89-1s.92.26.91.91c0,4.17,0,8.33,0,12.5,0,2.41,0,4.81,0,7.21Z"/><path class="cls-1" d="M130,151c0-3.76,0-7.52,0-11.29a6.05,6.05,0,0,1,.05-1,.69.69,0,0,1,.93-.62,1,1,0,0,1,.59.73c.07,1.07,0,2.14,0,3.21,0,.65.09,1.13.92,1.13.66,0,.79.53.79,1.1,0,2.23,0,4.46,0,6.69Z"/><path class="cls-1" d="M274.49,151l0-11.71c0-.12,0-.23,0-.35,0-.5.21-.81.77-.83s.75.33.75.82c0,1,0,2,0,3,0,.69.05,1.25,1,1.26a1,1,0,0,1,.62.75c0,2.34,0,4.68,0,7Z"/><path class="cls-1" d="M245.67,151c0-2,0-4.05,0-6.07q0-4.52,0-9c0-.54,0-1.11.74-1.1s.73.58.73,1.11q0,7,0,14A10.36,10.36,0,0,1,247,151Z"/><path class="cls-1" d="M.34,151Q.24,143.64.12,136.3c0-.57.2-1,.84-1s.72.52.72,1v12.95c0,.55,0,1.1,0,1.65Z"/><path class="cls-1" d="M144.62,151q-.08-7-.16-14c0-.29,0-.58,0-.87,0-.51.33-.88.83-.73a1.44,1.44,0,0,1,.74.74c.12.22,0,.56,0,.85,0,4.14,0,8.28,0,12.43,0,.51.07,1,.1,1.55Z"/><path class="cls-1" d="M101.39,151q0-7.68,0-15.35c0-.51.11-.93.75-.9s.66.6.66,1.08c0,4.68,0,9.36,0,14,0,.38,0,.75,0,1.13Z"/><path class="cls-1" d="M147.54,151q0-6.85,0-13.7a5.66,5.66,0,0,1,.06-1.37.89.89,0,0,1,.64-.52c.18,0,.44.25.61.44a.88.88,0,0,1,.08.5q0,7.34,0,14.65Z"/><path class="cls-1" d="M3.26,151c0-2.26,0-4.51,0-6.77,0-2.61,0-5.21,0-7.82,0-.53.07-1,.75-1s.66.54.66,1q0,6.47,0,12.94c0,.55,0,1.1,0,1.65Z"/><path class="cls-1" d="M75.32,151c0-1.1,0-2.19.08-3.29,0-.94.38-1.08,1.27-.83a3.42,3.42,0,0,0,1.74,0c.86-.23,1.25-.07,1.29.83,0,1.1,0,2.19.08,3.29Z"/><path class="cls-1" d="M219.77,151c0-1.07,0-2.14,0-3.21,0-.86.39-1,1.19-.88a7.47,7.47,0,0,0,1.95.05c1-.05,1.11,0,1.12,1s0,2,0,3Z"/><path class="cls-1" d="M43.41,151c0-2.77,0-5.55,0-8.32,0-.54-.06-1.2.76-1.18s.93.59.93,1.27c0,2.75,0,5.49,0,8.23Z"/><path class="cls-1" d="M36.2,151q0-3.34,0-6.68c0-.7,0-1.39,0-2.08s.33-1,1.05-1,.6.61.6,1c0,2.9,0,5.79-.07,8.68Z"/><path class="cls-1" d="M187.86,151c0-2.31,0-4.61,0-6.92,0-.49,0-1,0-1.47s.18-1.08.83-1.08.81.48.81,1.07c0,2.8,0,5.6,0,8.4Z"/><path class="cls-1" d="M180.65,151c0-2.86,0-5.72,0-8.58,0-.5-.05-1.09.76-1.07s.77.54.77,1.08q0,4.28,0,8.57Z"/><path class="cls-1" d="M13.21,151a7.92,7.92,0,0,1,.11-1.55c.07-.27.44-.67.66-.66a1,1,0,0,1,.68.66,7.92,7.92,0,0,1,.1,1.55Z"/><path class="cls-1" d="M127.3,151a4.72,4.72,0,0,1,.08-1.2c.1-.29.44-.69.65-.68a1.2,1.2,0,0,1,.85.6A3.82,3.82,0,0,1,129,151Z"/><path class="cls-1" d="M157.66,151a5,5,0,0,1,0-1.29,3.65,3.65,0,0,1,.65-1c.25.29.62.54.71.87a4.5,4.5,0,0,1,0,1.37Z"/><path class="cls-1" d="M271.75,151v-1.12c0-.45.13-.78.67-.78s.88.18.88.78c0,.38,0,.75,0,1.12Z"/><path class="cls-1" d="M120.09,151c0-.29,0-.58,0-.87,0-.52.22-.89.83-.88s.81.34.82.88c0,.29,0,.58,0,.87Z"/><path class="cls-1" d="M264.54,151c0-.29,0-.57,0-.86,0-.45.1-.85.7-.85s.8.32.82.86c0,.28,0,.57,0,.85Z"/><path class="cls-1" d="M244.29,106.76v15.47c0,.7,0,1.34-1,1.33-.18,0-.51.64-.51,1,0,2.9,0,5.79,0,8.69,0,.56.24,1.37-.68,1.41s-.72-.79-.72-1.35q0-9.81,0-19.64c0-.61,0-1.11.83-1.23.62-.09.64-.72.64-1.26,0-3.27,0-6.55,0-9.82q0-7.47,0-14.94,0-8.7,0-17.38c0-1.15.1-1.28,1.27-1.29h.43c1.13,0,1.17,0,1.17-1.24,0-6.63,0-13.27,0-19.9,0-.57.06-1.16.7-1.18s.77.6.77,1.2q0,9.95,0,19.9c0,.64,0,1.21.88,1.28.21,0,.52.58.53.9.07,1.44,0,2.89,0,4.34q0,7.91,0,15.82c0,.69-.11,1.15-.91,1.29-.22,0-.5.64-.5,1,0,3.16,0,6.32,0,9.47,0,3.57,0,7.13,0,10.69,0,.6-.13,1.13-.75,1.13s-.76-.5-.76-1.12q0-10.08,0-20.16c0-.42.17-1-.56-1s-.86.42-.86,1v15.64Z"/><path class="cls-1" d="M187.69,74.05V71.4q0-9.09,0-18.17c0-.51-.06-1.08.7-1.15s1,.21,1,1.11q0,3.09,0,6.17l0,25c0,.74,0,1.41,1.06,1.31.6-.06.61.47.61.92,0,2.12-.07,4.23-.07,6.34,0,3.39.08,6.77.08,10.16,0,4.63-.07,9.26-.09,13.9,0,4,0,8,0,12a1.48,1.48,0,0,1-.45,1.14c-.67.37-1.08,0-1.08-1q0-8.86,0-17.73,0-12.21,0-24.42c0-.46.24-1.12-.52-1.27s-1,.28-1,.94V93.4q0,12.38,0,24.76c0,.82-.32,1.15-1.14,1.11-1.14,0-2.28,0-3.43,0s-1.19-.24-1.19-1.24v-8.86c0-.59,0-1.08.82-1.13s.68-.66.68-1.19c0-3.07,0-6.14,0-9.21q0-5.47,0-10.95c0-.5,0-1,.74-1s.73.53.73,1v19.82a2.43,2.43,0,0,0,0,.94,1.05,1.05,0,0,0,.71.53c.2,0,.5-.28.63-.51a1.77,1.77,0,0,0,.05-.77q0-15.69,0-31.37C186.5,74.26,186.64,74.1,187.69,74.05Z"/><path class="cls-1" d="M146.06,63.24V79.05c0,.57,0,1-.8,1-.15,0-.42.55-.42.85,0,3.47,0,7,0,10.42,0,3.21,0,6.43,0,9.64,0,.55,0,1.06-.77,1.07-.58,0-.84-.2-.83-.79s0-1.34,0-2c0-.5-.23-.81-.78-.81s-.67.4-.68.81c0,1.19,0,2.38,0,3.56q0,8.27,0,16.51c0,.24.08.52,0,.69s-.48.62-.72.62a1,1,0,0,1-.67-.65,13.51,13.51,0,0,1,0-1.91q0-14.69,0-29.37c0-.71-.14-1.47.88-1.69.16,0,.32-.53.32-.81,0-6.61,0-13.21,0-19.82,0-.26-.08-.59.05-.76a1.76,1.76,0,0,1,.88-.73c.53-.14.76.3.78.78a20.51,20.51,0,0,0,0,2.08c0,.32.37.78.63.82.48.09.76-.28.75-.81-.06-3.68-.12-7.35-.16-11,0-3.24,0-6.48,0-9.73,0-.66.32-.93.95-.92s.72.56.72,1q0,7.17,0,14.34v1.74Z"/><path class="cls-1" d="M216.82,57.59V47.77c0-1.18,0-1.18-1.12-1.17h-.77a.8.8,0,0,1-1-.91c0-3.16,0-6.31,0-9.47,0-.25.34-.6.61-.71.56-.23,1.2-.27,1.76-.51.18-.07.29-.52.29-.8,0-3.19,0-6.37,0-9.56,0-3.53,0-7.07,0-10.6,0-.92.37-1.47.93-1.35.74.16.92.75.92,1.46,0,3,0,6,.05,8.94,0,.39,0,.8.55.79s.78.41.81.9,0,1.22,0,1.83q0,9.42,0,18.85c0,.59-.11,1.12-.78,1.12-.84,0-.89.5-.89,1.14,0,2.81,0,5.62,0,8.43,0,3.73,0,7.47,0,11.21,0,.14,0,.29,0,.43,0,.5-.06,1.06-.73,1.07s-.77-.56-.77-1.11V57.59Z"/><path class="cls-1" d="M211.06,35.93c0,3.33,0,6.66,0,10,0,.63.06,1.07.85,1.08.18,0,.51.43.53.69.07.89,0,1.79,0,2.69q0,8.73,0,17.47c0,.57.09,1,.83,1.05s.65.59.65,1.1c0,3,0,6,0,9,.06,5.79.17,11.57.24,17.36,0,1.68-.05,3.36-.05,5,0,.65-.32,1-.9,1s-.76-.48-.76-1.05c0-6.46,0-12.92,0-19.38,0-.74.1-1.44-1-1.45-.63,0-.66-.71-.66-1.23,0-2.5,0-5,0-7.48,0-4,0-8.11,0-12.16,0-.55,0-1-.71-1.15-.17,0-.35-.36-.42-.58a2.46,2.46,0,0,1-.05-.77V26.26c0-.29,0-.58,0-.87,0-.48.3-.72.72-.59a1,1,0,0,1,.61.61c.07.81,0,1.62,0,2.44v8.08Z"/><path class="cls-1" d="M227,92.29v26.32c0,1.44,0,1.44,1.41,1.45s1.48.15,1.47,1.49c0,.78,0,1.57,0,2.35,0,.44-.08.9-.79.85-.49,0-.67.41-.66.92,0,2.12,0,4.23,0,6.35,0,3.13,0,6.25,0,9.38,0,.76-.26,1.12-1.06,1.07s-1.66,0-2.49,0c-.66,0-.93-.29-.93-.94,0-3.12,0-6.25,0-9.38,0-.69.27-.89.93-.89,2.15,0,2.15,0,2.16-2.24,0-1.13,0-2.27,0-3.39,0-.33-.36-.88-.58-.9-.79,0-.87-.56-.87-1.12,0-3,0-6,0-9,0-5.1,0-10.19,0-15.29q0-5.91,0-11.82c0-.52,0-1.15.75-1.13s.84.59.84,1.18c0,1.6,0,3.19,0,4.78Z"/><path class="cls-1" d="M121.78,70.88v9.9c0,.51,0,.93.68,1.08.23,0,.5.65.51,1,0,2.6,0,5.21,0,7.81q0,12.07,0,24.15c0,.17.06.39,0,.51s-.37.64-.58.66a1.41,1.41,0,0,1-.9-.43,1.09,1.09,0,0,1-.16-.74c.07-3.53.19-7,.24-10.58,0-3.36,0-6.71,0-10.07a1,1,0,0,0-.61-.74,1,1,0,0,1-.83-1.1c0-1.39,0-2.78,0-4.17q0-13.55,0-27.1a1.54,1.54,0,0,1,.58-1.16c.71-.34,1.09.05,1.1,1v10Z"/><path class="cls-1" d="M221.15,80.21c0,3,0,6,0,9,.06,4,.2,7.91.29,11.86a1.48,1.48,0,0,1-.15.91,1.58,1.58,0,0,1-1,.58c-.18,0-.55-.55-.55-.85-.05-2.35,0-4.69,0-7V59.53c0-2,0-2,1.93-1.9a7.86,7.86,0,0,0,1.44-.17c.59-.08,1,.11,1,.77V68c0,.6-.3.86-.92.83-2.12-.1-2,0-2,2,0,3.1,0,6.19,0,9.29Z"/><path class="cls-1" d="M163.45,54q0-7.87,0-15.73a1.56,1.56,0,0,1,.31-1.08c.51-.43,1.08,0,1.08.83,0,3.76,0,7.53,0,11.29q0,4.49,0,9c0,.59,0,1.1.84,1.06.66,0,.63.57.63,1,0,3,0,6,0,8.95q0,11.2,0,22.41a1.57,1.57,0,0,1-.37,1.07c-.51.43-1.18-.08-1.19-.9,0-1.85,0-3.71,0-5.56q0-7.26,0-14.51c0-.54,0-1-.74-1.15-.19,0-.45-.55-.45-.84,0-3.36,0-6.72,0-10.08V54Z"/><path class="cls-1" d="M199.3,85.52v-9.9c0-.73.06-1.33,1-1.29.19,0,.56-.53.58-.83.08-1.13,0-2.26.08-3.39a1.16,1.16,0,0,1,.67-.78c.52-.14.86.21.93.76,0,.2,0,.4,0,.6,0,1.25,0,2.49,0,3.74q0,8.07,0,16.15c0,.64-.18,1.09-.87,1.13s-.78.36-.78.91c0,1,0,2,0,2.95,0,.58-.06,1.16-.81,1.17s-.82-.57-.82-1.15V85.52Z"/><path class="cls-1" d="M133.34,64.92v9.91a4.16,4.16,0,0,1,0,.61c-.09.54-.46.67-.94.67s-.71-.29-.71-.76c0-1.13,0-2.26,0-3.39,0-.57-.1-1-.79-.92s-.79-.48-.81-1c0-.89,0-1.79,0-2.69,0-5.79,0-11.59,0-17.38,0-.61.05-1.11.84-1.1.54,0,.78.2.76.76,0,1,0,2.09,0,3.13,0,.69.19,1.19,1,1.19.62,0,.69.45.68,1,0,3.33,0,6.66,0,10Z"/><path class="cls-1" d="M228.2,86.54c0-3.33,0-6.66,0-10,0-.69.16-1.13.95-1.06s.7-.42.7-.92c0-2.46,0-4.92,0-7.38,0-.5-.09-1.13.71-1.12s.93.53.92,1.18c0,3.13,0,6.25,0,9.38q0,5.3,0,10.59c0,.74-.15,1.23-1,1.25-.62,0-.65.55-.65,1,0,2.37,0,4.74,0,7.12,0,.55,0,1-.78,1s-.81-.43-.81-1c0-3.35,0-6.71,0-10.07Z"/><path class="cls-1" d="M156.34,92.92q0,4.9,0,9.81c0,.75,0,1.4-1.06,1.37-.63,0-.54.56-.54,1,0,2.14,0,4.28,0,6.43q0,.43,0,.87c0,.5-.12.92-.76.91s-.89-.4-.89-1c0-1.27,0-2.54,0-3.81,0-5.22,0-10.43,0-15.64,0-1,.06-1.85,1.32-2,.18,0,.39-.65.39-1,0-2.34,0-4.69,0-7a1.25,1.25,0,0,1,.52-1c.67-.26,1.08.14,1.08.89q0,5.11,0,10.25Z"/><path class="cls-1" d="M135.82,64.48a11.1,11.1,0,0,1,.16,1.31q0,15.58,0,31.19a2,2,0,0,1,0,.77c-.15.28-.44.65-.68.67s-.53-.38-.67-.66a2.16,2.16,0,0,1,0-.85c0-6.35,0-12.69,0-19,0-3.91-.15-7.81-.21-11.72C134.33,64.92,134.41,64.84,135.82,64.48Z"/><path class="cls-1" d="M241.35,94.14c0,5,0,10,0,15a2.93,2.93,0,0,1,0,1,1.21,1.21,0,0,1-.69.64c-.46.14-.76-.16-.79-.65,0-.64,0-1.27,0-1.91q0-7.33,0-14.67v-15c0-.26-.07-.59.06-.76a1.14,1.14,0,0,1,.77-.49c.24,0,.52.33.68.58s0,.45,0,.68V94.14Z"/><path class="cls-1" d="M125.9,104.73q0,5,0,9.91c0,.67,0,1.3.93,1.27.15,0,.46.42.47.65,0,3.19,0,6.38,0,9.56,0,.7-.44.69-.92.7s-.7-.3-.69-.83c0-3,0-6,0-9,0-.54,0-1-.74-1-.16,0-.39-.29-.48-.49a2.18,2.18,0,0,1-.06-.77q0-9.78,0-19.56c0-.35,0-.69,0-1s.23-.76.76-.73.67.37.68.82,0,.87,0,1.3q0,4.61,0,9.21Z"/><path class="cls-1" d="M127.32,76.45V60.9c0-.61-.09-1.31.75-1.43.65-.08,1,.47,1,1.51,0,1.88,0,3.76,0,5.65q-.14,12.87-.3,25.76c0,.48,0,1-.65,1s-.76-.58-.76-1.13q0-7.91,0-15.81Z"/><path class="cls-1" d="M208.14,119.47v15.81c0,1-.2,1.15-1,1s-.54-.65-.55-1.08c0-3.62,0-7.24,0-10.86,0-3,0-6.08,0-9.12,0-3.91.14-7.81.21-11.71,0-.54.09-1,.79-1s.59.59.59,1q0,8,0,15.9Z"/><path class="cls-1" d="M208.15,30.15c0,5.27,0,10.54,0,15.82,0,.91-.21,1.14-1,.91a1,1,0,0,1-.6-.75,22.79,22.79,0,0,1,0-2.34c0-6,0-12,0-18,0-3.82.12-7.64.2-11.45,0-.5-.08-1.16.68-1.17s.69.66.69,1.15c0,5.27,0,10.54,0,15.81Z"/><path class="cls-1" d="M234.17,94v15.2a3.12,3.12,0,0,1-.08,1.11,1,1,0,0,1-.72.51c-.19,0-.51-.3-.58-.53a4.41,4.41,0,0,1-.07-1.21c0-6.4,0-12.8,0-19.2,0-3.67-.15-7.34-.22-11a9,9,0,0,1,0-1c0-.56.43-.7.91-.7s.69.32.69.79c0,1.77,0,3.54,0,5.3,0,3.59,0,7.18,0,10.78Z"/><path class="cls-1" d="M124.44,15.39q0-5,0-10.08a1.77,1.77,0,0,1,.07-.77c.11-.21.39-.48.58-.47a.89.89,0,0,1,.69.44,4.16,4.16,0,0,1,.11,1.28q0,9.65,0,19.29c0,.74,0,1.41,1,1.46.15,0,.41.47.41.72,0,3.16,0,6.31,0,9.47,0,.6-.3.72-.81.72s-.78-.34-.78-.89c0-2.37,0-4.74,0-7.12a20.66,20.66,0,0,0-.08-2.08c0-.21-.2-.57-.35-.6-.85-.14-.81-.77-.81-1.38q0-5,0-10Z"/><path class="cls-1" d="M182.15,68.84V84.29a2,2,0,0,1,0,.85,2.94,2.94,0,0,1-.69.67,7.36,7.36,0,0,1-.62-.74c-.06-.1,0-.28,0-.42,0-6.2,0-12.39,0-18.58,0-2.48-.2-5-.24-7.44,0-1.93,0-3.87.07-5.81,0-.56.15-1,.83-.94s.74.46.74,1v16Z"/><path class="cls-1" d="M150.46,85.51V70c0-.56-.14-1.37.61-1.41s.79.78.79,1.42c0,6.59,0,13.19,0,19.79,0,3.7.09,7.41.13,11.11a1.69,1.69,0,0,1-.05.85,1.61,1.61,0,0,1-.85.66c-.16,0-.44-.46-.62-.74-.06-.1,0-.28,0-.42V85.51Z"/><path class="cls-1" d="M159.09,76.2V92.09c0,.49-.05,1-.7,1s-.91-.42-.92-1c0-1.33,0-2.66-.05-4,0-1.79,0-3.59,0-5.38l.21-22.3c0-.54.07-1.12.79-1.09s.7.55.7,1.08c0,5.27,0,10.54,0,15.8Z"/><path class="cls-1" d="M179.62,52.23c0,3.33,0,6.66,0,10a1.09,1.09,0,0,1-1,1.26c-.82.1-.92-.5-.93-1.13V47c0-1.62,0-3.24,0-4.86,0-.67.17-1,.92-1s.95.37.95,1.05c0,3.35,0,6.71,0,10.06Z"/><path class="cls-1" d="M224.06,13.09V23.42c0,.51-.05,1-.76,1s-.91-.38-1-1c0-.14,0-.29,0-.43,0-1.56,0-3.12,0-4.68,0-4.14,0-8.28,0-12.41,0-1,0-2.08,0-3.12,0-.6.21-.91.84-.94s.81.33.81.91q0,5.16,0,10.32Z"/><path class="cls-1" d="M224.06,102.41q0,5,0,10a1.82,1.82,0,0,1-.08.85c-.12.24-.44.53-.66.51a1.23,1.23,0,0,1-.76-.51c-.12-.15-.07-.44-.07-.67,0-3.24-.11-6.48-.11-9.72,0-2.94.07-5.89.09-8.84,0-.54-.08-1.09-.1-1.64s.16-1.11.94-1.14.76.49.76,1v10.15Z"/><path class="cls-1" d="M138.9,109.68v9.81c0,.17.06.4,0,.51-.19.27-.49.7-.67.67a1.15,1.15,0,0,1-.74-.69,5.53,5.53,0,0,1,0-1.47q0-9.33,0-18.66a1.62,1.62,0,0,1,.06-.77c.14-.25.44-.56.66-.56s.53.33.66.58a2.21,2.21,0,0,1,0,.86c0,3.24,0,6.48,0,9.72Z"/><path class="cls-1" d="M137.44,20.25c0-3.21,0-6.42,0-9.63a3.68,3.68,0,0,1,.12-1.11.71.71,0,0,1,.57-.37.88.88,0,0,1,.65.38,1.77,1.77,0,0,1,.12.84q0,10,0,20c0,.17,0,.4,0,.51s-.45.61-.69.62-.49-.37-.67-.63,0-.33,0-.51Z"/><path class="cls-1" d="M147.55,57.28V47c0-.44,0-1,.62-.87a1.34,1.34,0,0,1,.74.62c.12.19.05.51.05.77q0,10,0,20a2,2,0,0,1-.4,1.06c-.06.08-.61,0-.74-.19a1.7,1.7,0,0,1-.23-1c0-3.39,0-6.78,0-10.17Z"/><path class="cls-1" d="M160.55,137.41v-10c0-.21-.06-.45,0-.6s.34-.51.52-.51a.9.9,0,0,1,.72.38,2.85,2.85,0,0,1,.12,1.1q0,9.78,0,19.55a2,2,0,0,1-.09.85.84.84,0,0,1-.61.42.89.89,0,0,1-.6-.45,1.77,1.77,0,0,1-.07-.77v-10Z"/><path class="cls-1" d="M170.64,81.45c0-3.36,0-6.72,0-10.08a1.21,1.21,0,0,1,.4-.9c.58-.32,1,0,1,.74,0,1.45,0,2.9,0,4.34q0,8,0,16a1.31,1.31,0,0,1-.34,1c-.53.35-1.07,0-1.08-.7,0-1.88,0-3.76,0-5.65V81.45Z"/><path class="cls-1" d="M248.62,123.59v-9.72a2,2,0,0,1,.06-.86,3.24,3.24,0,0,1,.65-.69,3.77,3.77,0,0,1,.63.7,1.51,1.51,0,0,1,.06.68q0,9.94,0,19.89c0,.43.13,1-.56,1.07s-.82-.42-.82-1c0-2.49,0-5,0-7.47v-2.61Z"/><path class="cls-1" d="M160.54,48.06v-10c0-.49-.08-1,.69-1s.72.5.72,1c0,6.71,0,13.43,0,20.15a1.33,1.33,0,0,1-.57,1c-.62.22-.83-.29-.83-.86V48.06Z"/><path class="cls-1" d="M248.62,34.15V24.34c0-.23-.06-.51,0-.68a1.18,1.18,0,0,1,.69-.53c.19,0,.48.28.6.51a1.77,1.77,0,0,1,0,.77q0,9.86,0,19.7v.35c0,.49-.17.84-.74.84s-.64-.39-.64-.82c0-1.94,0-3.88,0-5.82V34.15Z"/><path class="cls-1" d="M160.53,31.47c0,1.56,0,3.12,0,4.68,0,.45,0,.9-.63.91s-.79-.38-.79-.9c0-3.15,0-6.3,0-9.46,0-.54.21-.8.76-.78s.69.28.69.77c0,1.59,0,3.18,0,4.78Z"/><path class="cls-1" d="M160.52,120.83c0,1.5,0,3,0,4.51,0,.49,0,.93-.69.92s-.69-.4-.69-.87c0-3.09,0-6.19,0-9.28,0-.46.12-.78.67-.79s.71.31.7.82C160.51,117.7,160.52,119.26,160.52,120.83Z"/><path class="cls-1" d="M99.89,106.77q0,7.7,0,15.38c0,.7.09,1.44-1,1.44-.16,0-.45.61-.46,1,0,2.86,0,5.73,0,8.6a2.43,2.43,0,0,1,0,.94c-.11.25-.44.57-.66.56a.89.89,0,0,1-.62-.6A16,16,0,0,1,97,132q0-9,0-18c0-.82,0-1.57,1-1.77.16,0,.33-.56.33-.86,0-6.89,0-13.79,0-20.68q0-10.81,0-21.64c0-1.19.1-1.28,1.27-1.3,1.62,0,1.65.35,1.65-1.7q0-9.64,0-19.29c0-.23-.07-.51,0-.68a1.52,1.52,0,0,1,.72-.68c.14,0,.48.37.62.63a1.77,1.77,0,0,1,.05.77V66.5c0,.63-.05,1.21.87,1.26.62,0,.64.61.64,1.13q0,5,0,10.08c0,3.25,0,6.49,0,9.74,0,.75-.05,1.38-1,1.45-.18,0-.44.6-.45.93,0,2.9,0,5.8,0,8.69v11.47c0,.23.07.54-.05.68a1.32,1.32,0,0,1-.79.5c-.19,0-.43-.38-.56-.63a1.47,1.47,0,0,1,0-.6q0-10,0-20.07c0-.38.21-.91-.47-1s-1,.25-1,.93c0,2.41,0,4.81,0,7.21v8.52Z"/><path class="cls-1" d="M46.67,107.86q0,10.56,0,21.11c0,.67,0,1.31-.92,1.14a1.18,1.18,0,0,1-.65-.6,1.78,1.78,0,0,1,0-.77q0-20.78,0-41.54a2.41,2.41,0,0,0-.06-.94c-.12-.25-.44-.55-.67-.55s-.54.3-.71.54,0,.44,0,.68q0,15.33,0,30.67c0,1.64,0,1.66-1.62,1.66H38.71a.78.78,0,0,1-.87-.84c0-3.22,0-6.43,0-9.65,0-.24.3-.66.48-.67.88,0,.89-.62.89-1.27,0-3.59,0-7.19,0-10.78V86.84c0-.2-.06-.45,0-.6s.39-.51.61-.52a1,1,0,0,1,.7.43,1.44,1.44,0,0,1,.1.76v19.9c0,.54-.07,1.2.72,1.22s.74-.64.74-1.18q0-5.61,0-11.21,0-10,0-19.91c0-.68-.14-1.42.88-1.57.17,0,.34-.63.34-1,0-3.83,0-7.65,0-11.47,0-2.81,0-5.62,0-8.43a1.64,1.64,0,0,1,.43-1.13c.58-.43,1.18,0,1.21.89,0,1.44,0,2.89,0,4.34q0,12.3,0,24.59c0,.87,0,1.74,0,2.61,0,.6.11,1.1.92,1s.73.53.73,1.05l0,16.78v4.43Z"/><path class="cls-1" d="M72.45,57.65V47.91c0-1.24,0-1.28-1.22-1.29-1.55,0-1.68-.13-1.68-1.69,0-2.78,0-5.56,0-8.34,0-.65.15-1,.88-1.19,1.8-.47,1.79-.54,1.79-2.48q0-9.33,0-18.68V14c0-.68.06-1.33.93-1.36.58,0,1,.76,1,1.55,0,2.61,0,5.21,0,7.82a7.53,7.53,0,0,1,0,1c-.08.62,0,1,.78,1s.63.56.63,1c0,4.08,0,8.17-.06,12.25,0,2.78,0,5.55,0,8.33,0,.68-.14,1.12-.94,1.12s-.7.53-.7,1c0,3.76,0,7.53,0,11.29,0,2.93,0,5.86,0,8.78a1.38,1.38,0,0,1-.56,1.06c-.61.24-.85-.26-.85-.83V57.65Z"/><path class="cls-1" d="M66.72,35.82v9.91c0,.65-.07,1.32.92,1.26.15,0,.41.35.45.58a6.08,6.08,0,0,1,0,1.21V67.46c0,.71-.06,1.42,1,1.47.17,0,.42.63.43,1,0,1.56,0,3.13,0,4.69q.13,12.7.3,25.42c0,.46,0,.93,0,1.39s-.18,1-.81,1-.86-.42-.85-1.06c0-3.56,0-7.12,0-10.69,0-3,0-6.08,0-9.12,0-.66-.11-1-.88-1s-.85-.45-.85-1c0-2.6,0-5.21,0-7.81s0-5.27,0-7.9c0-1.53.07-3.06,0-4.59,0-.22-.26-.61-.44-.63-.57-.07-.7-.43-.75-.89a7.47,7.47,0,0,1,0-1q0-15.42,0-30.84a1.42,1.42,0,0,1,.36-1c.55-.38,1.12,0,1.12.72,0,2.2,0,4.4,0,6.6v3.65Z"/><path class="cls-1" d="M82.86,92.18c0,1.53.1,3.07,0,4.6-.6,7.28-.09,14.57-.26,21.85,0,1.42,0,1.42,1.44,1.44s1.4,0,1.4,1.41c0,.78,0,1.56,0,2.34,0,.51-.16,1-.74,1s-.67.47-.67,1q0,7.64,0,15.28c0,1.36,0,1.4-1.39,1.41-.72,0-1.43,0-2.15,0s-1-.29-1-1c0-1.76.08-3.53.1-5.29,0-1.33,0-2.66,0-4,0-.74.38-1,1.09-1,2,0,2,.4,2-2,0-1.13,0-2.26,0-3.38,0-.55-.1-.92-.75-1s-.75-.74-.75-1.37q0-6,0-12.07,0-11.78,0-23.54c0-.61-.25-1.45.79-1.52.65,0,.92.43.92,1.55,0,1.45,0,2.9,0,4.35Z"/><path class="cls-1" d="M20.53,48.24v9.9c0,.61,0,1.18.84,1.22.18,0,.43.35.5.58a4,4,0,0,1,.05,1V91.64c0,.57.09,1.25-.79,1.23s-.88-.59-.87-1.22L20.35,79c0-2.2,0-4.39,0-6.59,0-.74.11-1.6-1-1.83-.16,0-.3-.65-.3-1,0-2.81,0-5.62,0-8.43q0-11.23,0-22.49V38c0-.52.05-1,.76-1s.72.52.72,1V48.24Z"/><path class="cls-1" d="M75.36,80.09V59.32c0-.34,0-.69,0-1,0-.68.38-.87,1-.82a19.28,19.28,0,0,0,2.28,0c.67,0,1,.21,1,.93,0,3.21,0,6.43,0,9.64a.7.7,0,0,1-.79.8h-.17c-2,.07-1.95.07-1.95,2,0,6.29,0,12.57,0,18.85,0,1.73.2,3.46.22,5.18,0,2.23,0,4.46-.07,6.68,0,.56,0,1.14-.86,1.09s-.71-.63-.71-1.13c0-4.81,0-9.62,0-14.43v-7Z"/><path class="cls-1" d="M87.15,77.39q0,5,0,10c0,.55-.14,1-.75,1.06-.91,0-1,.57-1,1.28q0,3.42,0,6.86c0,.45.17,1-.62,1.08s-1-.35-1-1c0-1.56,0-3.12,0-4.68,0-2.26,0-4.51,0-6.76,0-2.84-.07-5.67-.11-8.51,0-.62.09-1.22.9-1.17s.82-.32.81-.9c0-2,0-3.93,0-5.9,0-.55,0-1.1,0-1.65s.1-1,.79-1,.91.4.91,1c0,1.88,0,3.76,0,5.64v4.69Z"/><path class="cls-1" d="M58.25,80.7v10c0,.62-.24,1-.88,1s-.83.36-.82,1c0,1,0,2.09,0,3.13,0,.51-.07,1-.77,1s-.82-.44-.82-1q0-9.24,0-18.48c0-.69,0-1.39.06-2.08,0-.52.19-.9.81-.86s.75-.31.76-.81l0-3c0-.55-.07-1.17.74-1.2s1,.38,1,1.25q0,4.2-.07,8.42V80.7Z"/><path class="cls-1" d="M12,92.88c0,3.31,0,6.61,0,9.91,0,.77-.13,1.32-1.06,1.29-.61,0-.62.46-.62.91,0,2.41,0,4.81,0,7.22,0,.91-.28,1.21-1,1.06s-.62-.68-.62-1.17c0-2.26,0-4.51,0-6.77,0-4.38,0-8.75,0-13.13,0-.77.24-1.23,1-1.32s.64-.64.64-1.11q0-3.52,0-7c0-.58.09-1,.82-1s.85.51.85,1.11c0,3.36,0,6.72,0,10.08Z"/><path class="cls-1" d="M97,94.05c0,5.18,0,10.36,0,15.54,0,.48.19,1.11-.55,1.27s-1.13-.14-1.13-1c0-2,0-4,0-6.08V78.56c0-.23-.06-.54.06-.68s.56-.54.84-.53A1,1,0,0,1,97,78,8.3,8.3,0,0,1,97,79.72q0,7.17,0,14.33Z"/><path class="cls-1" d="M6,85.53C6,80.26,6,75,6,69.72c0-.6.08-1.21.78-1.18s.74.65.74,1.24c0,6.63,0,13.26,0,19.89,0,3.88.13,7.75.2,11.63,0,.56,0,1.12-.8,1.17s-.89-.35-.89-1q0-3.47,0-7Z"/><path class="cls-1" d="M63.8,30.1c0,5.24,0,10.48,0,15.72,0,.52.15,1.13-.74,1.13s-1-.47-1-1.17c0-6.69,0-13.38,0-20.06,0-3.76.17-7.51.27-11.26a1.91,1.91,0,0,1,.13-.84.84.84,0,0,1,.63-.41.87.87,0,0,1,.59.48,1.94,1.94,0,0,1,0,.77V30.1Z"/><path class="cls-1" d="M63.79,119.54q0,7.81,0,15.64c0,.51.19,1.15-.72,1.14s-1-.52-1-1.14c0-2.87.07-5.73.09-8.59,0-1.19-.05-2.37-.06-3.56,0-1.5,0-3,0-4.51q.12-7.55.28-15.08c0-.54.09-1,.8-.93s.59.54.59,1v16.07Z"/><path class="cls-1" d="M37.84,68.81V84.45a1.81,1.81,0,0,1-.08.85,1.09,1.09,0,0,1-.73.49c-.21,0-.47-.31-.62-.54s0-.39,0-.6c0-6.66,0-13.32,0-20,0-1.1-.27-2.18-.28-3.28,0-2.74,0-5.49,0-8.24A1.67,1.67,0,0,1,36.56,52c.62-.47,1.26,0,1.26.81,0,3.73,0,7.47,0,11.21v4.78Z"/><path class="cls-1" d="M14.71,76.22v15c0,.29,0,.58,0,.86,0,.54-.15,1-.82,1s-.75-.53-.76-1c0-.9,0-1.79,0-2.69,0-2.26-.05-4.51,0-6.77,0-7.4.11-14.81.16-22.21,0-.55,0-1.12.78-1.08s.67.68.67,1.18q0,7.86,0,15.72Z"/><path class="cls-1" d="M89.76,94v15.28a3.8,3.8,0,0,1-.09,1.12.64.64,0,0,1-1.2,0,4,4,0,0,1-.11-1.2c0-6.6,0-13.2,0-19.8,0-3.38-.13-6.76-.19-10.14a4.62,4.62,0,0,1,.11-1.54,1.08,1.08,0,0,1,.82-.59c.21,0,.61.42.63.68.08,1,0,2,0,3V94Z"/><path class="cls-1" d="M33.29,52.33c0-3.32,0-6.65,0-10,0-.48-.1-1.1.65-1.22s1.23.21,1.23,1.13c0,4.77,0,9.54,0,14.32,0,1.88,0,3.76,0,5.64a1.69,1.69,0,0,1-.45,1.14c-.63.53-1.4.06-1.41-.86,0-2.81,0-5.62,0-8.43V52.33Z"/><path class="cls-1" d="M79.72,13.1c0,3.38,0,6.77,0,10.16a1.59,1.59,0,0,1-.35,1.07c-.55.47-1.31,0-1.32-.8,0-1.82,0-3.65,0-5.47q0-7.5,0-15c0-.59.06-1.13.82-1.18.58,0,.82.2.81.81,0,3.47,0,6.94,0,10.42Z"/><path class="cls-1" d="M79.71,102.48c0,3.3,0,6.6,0,9.9,0,.55.22,1.38-.72,1.37s-.93-.78-.94-1.46q0-7.64,0-15.28c0-1.56,0-3.13,0-4.69,0-.7.21-1.1,1-1.09s.72.58.72,1.1C79.71,95.71,79.71,99.1,79.71,102.48Z"/><path class="cls-1" d="M16.1,37.15c1.44-.22,1.49-.15,1.49,1.32q0,9.33,0,18.67c0,.4,0,.81,0,1.21s-.11.92-.75.92-.64-.51-.69-1a4.51,4.51,0,0,1,0-.52q0-10,0-20c0-.23,0-.46-.05-.69Z"/><path class="cls-1" d="M16.1,126.32c1.38-.12,1.48,0,1.47,1.37v19.56a2.38,2.38,0,0,1-.05.85c-.11.24-.38.53-.59.54a.91.91,0,0,1-.66-.47,1.82,1.82,0,0,1-.08-.85q0-10.08,0-20.16c0-.29,0-.58-.05-.86Z"/><path class="cls-1" d="M3.2,57.28q0-5,0-10.07c0-.14-.06-.33,0-.42.17-.25.44-.65.6-.62a1.22,1.22,0,0,1,.72.61,1.84,1.84,0,0,1,0,.85q0,9.9,0,19.8a1.33,1.33,0,0,1-.32,1c-.64.45-1.06.13-1.06-.78q0-5.16,0-10.33Z"/><path class="cls-1" d="M105.67,34.26v10c0,.46.09,1-.58,1a1.16,1.16,0,0,1-.77-.53c-.13-.18-.06-.5-.06-.76q0-9.63,0-19.26c0-.29,0-.58,0-.87,0-.45.15-.77.71-.76s.69.29.69.76V34.26Z"/><path class="cls-1" d="M105.67,123.68v10c0,.52,0,1-.73,1s-.67-.52-.67-1c0-6.74,0-13.49,0-20.23,0-.38.32-1.06.52-1.07.65,0,.86.49.85,1.12,0,3.39,0,6.78,0,10.16Z"/><path class="cls-1" d="M16.12,37.13c-1.38-.18-1.38-.18-1.38-1.6,0-2.89,0-5.79,0-8.68a2.06,2.06,0,0,1,.47-1c.06-.07.48,0,.67.17a.81.81,0,0,1,.27.57c0,3.53,0,7.06,0,10.59Z"/><path class="cls-1" d="M16.13,126.3c-1.4-.08-1.4-.08-1.4-1.5,0-2.66,0-5.31,0-8a2,2,0,0,1,0-.86c.14-.26.46-.61.7-.6a.94.94,0,0,1,.66.64c0,3.44,0,6.87,0,10.31Z"/><path d="M40.75-.39h1.36c0,.36,0,.69,0,1q0,8.46,0,16.92c0,.46.15,1-.61,1.1-.49,0-.78-.13-.82-.65,0-.2,0-.4,0-.6q0-8.37,0-16.75C40.69.32,40.73,0,40.75-.39Z"/><path d="M185.08-.39h1.36c0,.34.06.67.06,1,0,5.64,0,11.28,0,16.92a1.44,1.44,0,0,1-.41,1.08c-.63.35-1-.05-1-1v-18Z"/><path d="M261.63,131v4.85c0,.21,0,.41,0,.61,0,.48-.22.93-.76.78a1.12,1.12,0,0,1-.67-.79c-.05-3.64-.05-7.28,0-10.92,0-.26.37-.75.56-.75.45,0,.94.13.92.85,0,1.79,0,3.58,0,5.37Z"/><path d="M115.73,130.92c0-1.71,0-3.42,0-5.12,0-.52,0-.93.67-1s.87.25.87.88c0,3.54,0,7.07,0,10.6a1.19,1.19,0,0,1-.68.88c-.57.13-.77-.38-.77-.89,0-1.79,0-3.59,0-5.39Z"/><path d="M260.13,41.62c0-1.76,0-3.53,0-5.29,0-.34.34-.94.56-1,.51,0,.92.23.91,1,0,3.52,0,7,0,10.57,0,.51-.1,1-.72,1s-.74-.42-.74-.94V41.62Z"/><path d="M115.76,41.55c0-1.71,0-3.41,0-5.12,0-.53.08-1.1.67-1.1s.86.43.85,1.14c0,3.41,0,6.82,0,10.23,0,.61-.15,1.1-.76,1.11s-.73-.52-.73-1.06c0-1.73,0-3.47,0-5.2Z"/><path class="cls-1" d="M266.09,71.11V81.19c0,.46,0,.83.61,1,.24,0,.44.42.59.68s0,.34,0,.51q0,15.72,0,31.44a1.81,1.81,0,0,1-.28,1.12c-.36.41-1.11.06-1.19-.56a14.72,14.72,0,0,1-.08-2c0-2.64,0-5.27,0-7.9,0-3.62.11-7.23.17-10.85,0-.62.06-1.22-.88-1.25-.18,0-.5-.71-.5-1.09,0-4.84,0-9.67,0-14.51,0-5.56,0-11.11,0-16.67a1.52,1.52,0,0,1,.54-1.17c.59-.29,1,.13,1,1,0,1.56,0,3.12,0,4.69v5.55Z"/><path class="cls-1" d="M277.71,65.09c0,3.3,0,6.6,0,9.9,0,.6-.13,1.09-.89,1.1S276,75.57,276,75c0-1,0-2,0-3,0-.6-.14-1-.86-1s-.79-.49-.79-1q0-10.12,0-20.25c0-.57.19-.85.79-.87s.8.29.79.86c0,1,0,2.08,0,3.13,0,.64.16,1.14,1,1.1.51,0,.68.31.68.79l0,8.17c0,.72,0,1.44,0,2.17Z"/><path class="cls-1" d="M271.69,76.49V61c0-.18-.05-.39,0-.51.21-.33.44-.82.73-.87.51-.09.9.26.89.89,0,3.61-.1,7.23-.16,10.84,0,.35,0,.69,0,1v19.8c0,.11,0,.26,0,.34-.22.31-.48.61-.72.91a6,6,0,0,1-.69-.93c-.1-.18,0-.46,0-.69V76.49Z"/><path class="cls-1" d="M280.31,81.61V97.08c0,.23.07.5,0,.68a3.65,3.65,0,0,1-.61.7,3.82,3.82,0,0,1-.7-.69c-.11-.17,0-.46,0-.69,0-6.43,0-12.86,0-19.29,0-3.93-.1-7.87-.15-11.8a1.64,1.64,0,0,1,.18-1,1,1,0,0,1,.91-.2,1.05,1.05,0,0,1,.42.82c0,2.11,0,4.23,0,6.34Z"/><path class="cls-1" d="M270.24,15.36q0,5,0,10c0,.63,0,1.16.86,1.19.19,0,.51.46.52.71,0,3.16,0,6.31,0,9.46,0,.57-.26.75-.79.75s-.73-.3-.73-.82c0-2.25,0-4.51,0-6.76,0-.67-.07-1.34,0-2s.08-1.2-.82-1.3c-.18,0-.4-.7-.4-1.08,0-3.47,0-6.94,0-10.42,0-3.3,0-6.59,0-9.89a1.44,1.44,0,0,1,.35-1c.47-.36,1,.07,1,.81,0,1.56,0,3.13,0,4.69v5.73Z"/><path class="cls-1" d="M268.85,104.64c0-3.39,0-6.78,0-10.16,0-.35.25-.92.5-1,.77-.23.87.37.87,1v6.16q0,7,0,14c0,.67,0,1.29.92,1.31.18,0,.48.48.48.74,0,3.13,0,6.26,0,9.38,0,.55-.23.78-.78.77s-.72-.31-.72-.82c0-2.75,0-5.5,0-8.25a6,6,0,0,0,0-1.12c0-.21-.26-.55-.4-.55-.94,0-.86-.67-.86-1.27C268.85,111.41,268.85,108,268.85,104.64Z"/><path class="cls-1" d="M60.16,34.11c-.4,0-.8,0-1.2,0s-.72-.19-.7-.74c0-1.9,0-3.81.05-5.71,0-1.2,0-2.4,0-3.61,0-.68-.36-.84-.92-.84s-.82.28-.81.86c0,.8,0,1.59,0,2.38,0,1.95,0,1.93-1.89,1.9-.63,0-.9-.27-.93-.86,0-.33,0-.65,0-1q.09-13.41.19-26.83v0H52.26q0,18.87,0,37.76a5.19,5.19,0,0,1,0,1.31c-.08.28-.42.68-.64.68-.78,0-.91.49-.91,1.1,0,3.13,0,6.27,0,9.41,0,.62.2.92.84.91,1.43,0,2.86,0,4.29,0,.55,0,.8-.23.8-.77,0-.85,0-1.7,0-2.55,0-1.79,0-1.79,1.72-1.79,1.18,0,1.2,0,1.19,1.24-.07,7.41-.16,14.83-.21,22.24,0,3.23,0,6.45.06,9.68,0,.58.08,1.05.81,1.06s.76-.53.76-1.08c0-2.34,0-4.69,0-7,.22-9-.35-18.1.31-27.14.23-3.15,0-6.33,0-9.49C61.2,34.44,60.89,34.07,60.16,34.11Z"/><path class="cls-1" d="M118.66,77.2V-.35h-1.42c0,3.82,0,7.64,0,11.46,0,1.44-.09,1.55-1.5,1.52s-1.42,0-1.42,1.39V32.5c0,4.31,0,8.62,0,12.94,0,.37-.26,1.06-.44,1.08-1.06.11-.93.85-.93,1.54q0,7.78,0,15.58c0,1.52,0,3,0,4.57,0,.37.3,1,.5,1,.9.07.87.62.87,1.28q0,9.69,0,19.36a5.68,5.68,0,0,0,.06,1.31.88.88,0,0,0,.56.57c.94.16.81-.61.82-1.16,0-2.9,0-5.8,0-8.71,0-3.87,0-7.74,0-11.61,0-.81.56-1.27,1.11-.87a1.53,1.53,0,0,1,.35,1.06c0,10.24,0,20.47,0,30.71,0,2.27-.2,2-1.84,1.95-.82,0-1.12.38-1.1,1.18,0,1.29,0,2.58,0,3.87q0,13.81,0,27.63c0,.65,0,1.25-.86,1.34-.19,0-.43.35-.5.58a3.88,3.88,0,0,0,0,1q0,6.15,0,12.31h5.83c0-.38-.06-.76-.06-1.13Z"/><path class="cls-1" d="M69.82-.35H68.16c0,3.56,0,7.13,0,10.7,0,.53,0,1,.74,1s.94-.35.94-1,0-1.58,0-2.38C69.82,5.21,69.81,2.43,69.82-.35Z"/><path class="cls-1" d="M29.14,47.77c0-.34-.31-1-.48-1-1,0-1-.7-1-1.4v-29c0-.88,0-1.76,0-2.64,0-.57-.24-.81-.77-.79h-.69c-1.27,0-1.4-.13-1.39-1.46q0-5.93,0-11.85H23.38V33.57q0,10.95,0,21.91c0,2.94-.16,2.57,2.54,2.58,1.8,0,1.8,0,1.8,1.86,0,2.85,0,5.69,0,8.54,0,.61-.11,1-.84,1s-.63.52-.63,1q0,10.22,0,20.42c0,.57,0,1.07.79,1s.69-.55.69-1.06l0-19.71a4.71,4.71,0,0,1,0-1.13c.06-.22.34-.55.5-.54.91.05.92-.51.92-1.19,0-5.19,0-10.38,0-15.57C29.16,51.05,29.19,49.41,29.14,47.77Z"/><path class="cls-1" d="M39.23-.35c0,5.56,0,11.12,0,16.68a1,1,0,0,1-.62.71.78.78,0,0,0-.75.87v9.68c0,.64.29.87.9.85,1.12,0,2.23,0,3.35,0,1.46,0,1.47,0,1.47-1.46q0-13.66,0-27.32Z"/><path class="cls-1" d="M85.44,31.29c0-2,0-2-2-2.07-.64,0-.9-.25-.9-.94,0-6.63,0-13.26,0-19.89,0-2.31.14-4.62.2-6.93,0-.61,0-1.21,0-1.81H81.14l0,24.16v9.07c0,.56.07,1.12.75,1.15s.72.33.72.83c0,1.2,0,2.4,0,3.61,0,1.93,0,1.93-1.82,2.1-1.15.1-1.31.27-1.31,1.46,0,2,0,3.93,0,5.9,0,1,0,2.1.05,3.16,0,.62.26.89.9.84s1.43,0,2.14,0c1.47,0,1.48,0,1.47-1.51,0-5.16,0-10.32,0-15.48,0-.35.33-1,.56-1,.81-.11.87-.6.84-1.24C85.42,32.23,85.44,31.76,85.44,31.29Z"/><path class="cls-1" d="M102.75,6.94c0-2.35,0-4.69,0-7a1.21,1.21,0,0,1,0-.25h-1.49a4,4,0,0,1,0,.6q0,9.9,0,19.8a2.48,2.48,0,0,0,0,.95.9.9,0,0,0,.65.48.92.92,0,0,0,.66-.48,1.76,1.76,0,0,0,0-.77Z"/><path class="cls-1" d="M99.89-.26a.29.29,0,0,1,0-.09H98.43q0,9.63,0,19.26a12.54,12.54,0,0,1,0,1.84c0,.28-.38.72-.61.73C97,21.54,97,22,97,22.57q0,10.08,0,20.15c0,.24-.06.53,0,.69s.45.58.68.58.52-.33.64-.59a2.27,2.27,0,0,0,0-.87c0-2.9,0-5.81,0-8.71,0-.3.29-.84.45-.84,1,0,1-.68,1-1.39l0-26C99.87,3.61,99.86,1.67,99.89-.26Z"/><path class="cls-1" d="M21.92-.35H20.25c0,.32,0,.65,0,1,0,.61.14,1.1.91,1.09s.74-.54.74-1.08C21.91.3,21.92,0,21.92-.35Z"/><path class="cls-1" d="M97-.35H95.37c0,1.26,0,2.53,0,3.8q0,7.74,0,15.48c0,.65.15,1.05.92,1s.76-.54.76-1.08Q97,9.26,97-.35Z"/><path class="cls-1" d="M89.77-.35H88.38c0,6.28,0,12.55,0,18.83a2.26,2.26,0,0,0,0,.87c.13.24.44.55.66.54a1,1,0,0,0,.66-.56,3,3,0,0,0,0-1Z"/><path class="cls-1" d="M46.65,6.49c0-2.28,0-4.56,0-6.84H45.06V38.06a2,2,0,0,0,0,.78c.12.24.4.57.6.56a1.33,1.33,0,0,0,.85-.47,1.54,1.54,0,0,0,.12-.85Q46.65,22.29,46.65,6.49Z"/><path class="cls-1" d="M170.63.4c0,.53,0,1.14.71,1.16s.75-.57.74-1.12V-.35h-1.45Z"/><path class="cls-1" d="M201.79.47c.28,0,.56-.47.74-.82h-3.21c0,1.58,0,3.16,0,4.74,0,.71.19,1.2.89,1.21S201,5,201,4.35c0-.94,0-1.88,0-2.81C201,1,201.08.56,201.79.47Z"/><path class="cls-1" d="M115,1.27a1.08,1.08,0,0,0,.69-.64,8.07,8.07,0,0,0,.07-1h-1.43c0,.32,0,.64,0,1S114.57,1.39,115,1.27Z"/><path class="cls-1" d="M258.73-.35c0,.32,0,.64,0,1a1,1,0,0,0,.6.65c.19.06.56-.19.7-.41a2,2,0,0,0,.1-.86V-.35Z"/><path class="cls-1" d="M84.66,6.73c.79,0,.76-.54.77-1.07v-6H83.85c0,2,0,4,0,6C83.87,6.18,83.92,6.7,84.66,6.73Z"/><path class="cls-1" d="M228.2,5.64c0,.63.13,1.11.89,1.09s.7-.53.7-1.05v-6h-1.62C228.2,1.65,228.2,3.65,228.2,5.64Z"/><path class="cls-1" d="M-.68-.35V11.27C0,11.1.52,10.93.5,10,.43,6.54.43,3.09.4-.35Z"/><path class="cls-1" d="M7.63-.35H6C6,.94,6,2.23,6,3.53,6,5.78,6,8,6,10.3c0,.87.36,1.22,1.06,1.1s.64-.66.64-1.16q0-4.71,0-9.41C7.7.43,7.67,0,7.63-.35Z"/><path class="cls-1" d="M57.4.51a.8.8,0,0,0,.84-.86H55c0,1.64,0,3.28,0,4.91,0,.57.19,1.09.87,1.06s.74-.53.74-1.07v-3C56.55,1,56.69.54,57.4.51Z"/><path class="cls-1" d="M12.05-.35h-2a1.18,1.18,0,0,1-.74.22C8.71-.11,8.71.5,8.71,1l0,16.27c0,1.35,0,2.7,0,4.05a1.32,1.32,0,0,0,.58,1c.68.28,1-.12,1-1,0-2.38,0-4.75,0-7.13,0-.37.3-1.06.46-1.06,1.31,0,1.19-.88,1.19-1.75C12,7.46,12.05,3.55,12.05-.35Z"/><path class="cls-1" d="M13.08-.35c0,.56,0,1.11.06,1.67s.13.94.78.93.77-.52.79-1,0-1,0-1.57Z"/><path class="cls-1" d="M26.27.73c0,.51.22.94.74.82a1.17,1.17,0,0,0,.66-.8,6.7,6.7,0,0,0,.07-1.1H26.27Z"/><path class="cls-1" d="M76.86-.35H75.37V.38q0,5.28,0,10.56c0,.46.05.88.67.89A.81.81,0,0,0,77,11a5.36,5.36,0,0,0,.06-.7c0-3-.06-6-.12-9C76.92.8,76.89.22,76.86-.35Z"/><path class="cls-1" d="M239.82-.35q0,7.19,0,14.38c0,1.67,0,3.34,0,5,0,.78.47,1.17,1.09.83a1.45,1.45,0,0,0,.44-1.08c0-6.38,0-12.76,0-19.14Z"/><path class="cls-1" d="M244.3-.35h-1.44V18.2c0,.83,0,1.65,0,2.46,0,.31-.36.83-.54.83-.9,0-.93.52-.93,1.2q0,10,0,20.06a1.64,1.64,0,0,0,.06.78,1,1,0,0,0,.68.48c.2,0,.48-.24.61-.45a1.43,1.43,0,0,0,.05-.69c0-3,0-6,0-9,0-.32.3-.92.46-.92,1,0,1-.64,1-1.36q0-15.48,0-31A5.42,5.42,0,0,1,244.3-.35Z"/><path class="cls-1" d="M232.73-.35q0,8.39,0,16.78c0,.93,0,1.87,0,2.81,0,.51.28.71.78.7s.63-.31.63-.74c0-.65,0-1.29,0-1.94,0-5.87,0-11.74,0-17.61Z"/><path class="cls-1" d="M221.38,2.93c0-1-.13-2-.18-3.05a1.77,1.77,0,0,1,0-.23h-1.44c0,3.42,0,6.84,0,10.26a2.74,2.74,0,0,0,0,1c.15.32.48.74.76.76s.68-.34.84-.65a2.7,2.7,0,0,0,.07-1.11C221.44,7.61,221.43,5.27,221.38,2.93Z"/><path class="cls-1" d="M229.82,31.43c0-2.09,0-2.11-2-2.2-.58,0-.83-.26-.82-.85,0-.41,0-.82,0-1.23q.11-11.56.2-23.13c0-1.46,0-2.92,0-4.37h-1.62q0,9.23,0,18.44,0,7.35,0,14.69c0,.6,0,1.08.82,1.17.25,0,.61.61.63,1,.07,1.37,0,2.75,0,4.13s0,1.46-1.44,1.52-1.66.17-1.64,1.8V43c0,2.61,0,5.22,0,7.83,0,.82.26,1.19,1.1,1.13s1.43,0,2.14,0c1.22,0,1.27-.06,1.27-1.36q0-7.74,0-15.49c0-.56.12-1,.68-1.14.74-.12.84-.54.78-1.18C229.77,32.31,229.83,31.87,229.82,31.43Z"/><path class="cls-1" d="M247.17.67a8.61,8.61,0,0,1,0-1h-1.5c0,.14,0,.29,0,.43q0,10,0,20c0,.23-.09.52,0,.69a4.79,4.79,0,0,0,.72.78,5.9,5.9,0,0,0,.71-.8c.1-.15,0-.4,0-.61Z"/><path class="cls-1" d="M271.71-.35c0,.52,0,1,0,1.56a1.39,1.39,0,0,0,.32.92c.46.38,1.08,0,1.09-.69s0-1.19,0-1.79Z"/><path class="cls-1" d="M280.64-.35q0,25.92,0,51.85V142c0,3,0,6,0,9a3.69,3.69,0,0,0,.16-.79q0-75.28,0-150.57Z"/><path class="cls-1" d="M278.94-.35q0,3.35,0,6.71c0,.47-.08,1,.63,1s.72-.49.72-1q0-3.34,0-6.69Z"/><path class="cls-1" d="M214.14-.35h-1.63c0,3.48,0,7,0,10.44,0,.64-.05,1.26.88,1.23s.79-.58.79-1.21C214.14,6.62,214.14,3.13,214.14-.35Z"/><path class="cls-1" d="M263-.35h-1.39c0,3,0,6.06,0,9.09v3c0,.53-.14.89-.76.94s-1.62,0-1.94.38-.16,1.38-.21,2.1v.09q0,8.76,0,17.51c0,4.22,0,8.45,0,12.67,0,.39-.29,1.1-.5,1.12-1,.07-.89.72-.89,1.37v10.3c0,3.28,0,6.57,0,9.85,0,.42.32,1.16.55,1.18.85.09.85.58.85,1.21V89.11a15.11,15.11,0,0,0,0,2,1.09,1.09,0,0,0,.7.64c.43.12.69-.17.68-.65,0-.26,0-.53,0-.79V70.18c0-.75.51-1.15,1.1-.79a1.25,1.25,0,0,1,.38.94c0,10.33,0,20.65,0,31,0,2.17-.15,1.82-1.77,1.84-1,0-1.15.23-1.15,1.21q0,11.7,0,23.41c0,2.73,0,5.45,0,8.18,0,.67-.11,1.13-.89,1.22-.2,0-.52.48-.52.73,0,4.37,0,8.74,0,13.11H263q0-22.83,0-45.66,0-25.12,0-50.25Z"/><path class="cls-1" d="M267.32,12.54q0-6.45,0-12.89h-2.78V.92c0,.7-.08,1.4,1,1.36.14,0,.43.46.43.71,0,3.69-.1,7.38-.14,11.07,0,1.9,0,3.81,0,5.71,0,1.32,0,2.64,0,4,0,.59-.27,1.42.75,1.45s.79-.89.8-1.47C267.34,20,267.32,16.26,267.32,12.54Z"/><path class="cls-1" d="M191-.35h-1.57q0,14.67,0,29.34c0,3.17,0,6.34,0,9.5,0,.46,0,.89.6.95s1-.15,1-.86c0-3.95.08-7.9.09-11.85,0-3.31-.07-6.62-.07-9.93s.09-6.67.09-10Q191.11,3.22,191-.35Z"/><path class="cls-1" d="M140.32-.35q0,14.46,0,28.92a2.24,2.24,0,0,0,0,.78c.13.28.42.71.6.69a1.42,1.42,0,0,0,.77-.62c.12-.16.07-.45.07-.69q0-9,0-18c0-.88,0-1.76,0-2.63,0-.45.18-.78.72-.77s.69.33.69.79a17.87,17.87,0,0,0,0,2.2,1.13,1.13,0,0,0,.66.79c.52.14.86-.2.9-.78,0-.23,0-.47,0-.7,0-3.34,0-6.69,0-10Z"/><path class="cls-1" d="M204.35,34.14h-1.12c-.46,0-.65-.19-.64-.69,0-2.35,0-4.69,0-7,0-.76,0-1.52,0-2.29s-.3-.88-.89-.89-.7.35-.69.86c0,.73,0,1.46,0,2.19,0,2.18,0,2.21-2.18,2-.25,0-.54-.33-.68-.58a1.65,1.65,0,0,1-.06-.78q.09-11.07.18-22.15c0-1.72,0-3.44,0-5.15h-1.58c0,5.49,0,11,0,16.47q0,11.16,0,22.34c0,.58-.07,1-.76,1s-.84.31-.84.9c0,1.79,0,3.58,0,5.37,0,1.43,0,2.87,0,4.3,0,.62.25.82.83.81q2.1,0,4.2,0c.67,0,.93-.27.91-.94,0-1,0-2,0-3s0-1.18,1.16-1.2h.43c1.26,0,1.27,0,1.26,1.33q-.09,11.25-.18,22.51c0,3.08,0,6.16,0,9.24,0,.65.07,1.15.9,1.15s.81-.54.81-1.12c0-3.14,0-6.28,0-9.42,0-8.15.13-16.29.19-24.44q0-4.78,0-9.59C205.54,34.26,205.41,34.15,204.35,34.14Z"/><path class="cls-1" d="M154.5-.35a1,1,0,0,1-.55.18c-.69.05-1,.42-.87,1.11a8.46,8.46,0,0,1,0,.87l-.06,19.52c0,.54.15,1,.79,1.06.86.08.91-.5.91-1.13,0-2.35,0-4.69,0-7,0-.66,0-1.25.92-1.21.21,0,.54-.31.63-.55a4,4,0,0,0,.12-1.21l-.06-11.6Z"/><path class="cls-1" d="M134.57-.35V6.34c0,.5-.08,1,.69,1s.71-.51.71-1Q136,3,136-.35Z"/><path class="cls-1" d="M128.73-.35h-1.39c0,.43,0,.86,0,1.29s-.21,1.3.71,1.29.63-.81.65-1.33S128.73.07,128.73-.35Z"/><path class="cls-1" d="M150.45-.35c0,3.59,0,7.19,0,10.78,0,.61.13,1.05.85,1s.76-.48.75-1Q152,5,151.88-.35Z"/><path class="cls-1" d="M159.09-.35h-1.65c0,.54,0,1.09,0,1.64a.76.76,0,0,0,.8.83c.57,0,.74-.35.8-.82a7.85,7.85,0,0,0,0-1Z"/><path class="cls-1" d="M183.63-.35v5.2c0,3.72,0,7.45,0,11.17,0,.62-.06,1.08-.85,1.12-.21,0-.56.56-.56.86,0,3.2,0,6.39,0,9.59,0,.6.23.84.82.83,1.2,0,2.4,0,3.6,0S188,28.35,188,27q0-9,0-18c0-3.14,0-6.29,0-9.43Z"/><path class="cls-1" d="M120.11-.35c0,.53,0,1.07,0,1.61s.13,1,.85,1c.21,0,.48.37.61.63a1.84,1.84,0,0,1,0,.78c-.09,3.6-.21,7.2-.28,10.79,0,2,0,4,0,6,0,1.14,0,2.29,0,3.43a2.09,2.09,0,0,0,.44,1.16.83.83,0,0,0,.86.05,1.5,1.5,0,0,0,.33-1c0-4.25,0-8.51,0-12.76,0-3.9,0-7.8,0-11.7Z"/><path class="cls-1" d="M173.49,47.87c0-.35-.25-1-.39-1-1.12,0-1-.8-1-1.53q0-15.32,0-30.62c0-1.62.35-1.78-1.64-1.76-1,0-1.27-.23-1.27-1.29q0-6,0-12h-1.39q0,23.85,0,47.71,0,4.76,0,9.5c0,1.1.11,1.21,1.18,1.21.75,0,1.49,0,2.23,0s.9.28.9.89,0,.94,0,1.41c0,2.73,0,5.46,0,8.18,0,.69.26,1.07.9.84a1.19,1.19,0,0,0,.5-.91c0-2.35,0-4.69,0-7C173.51,56.9,173.52,52.39,173.49,47.87Z"/><path class="cls-1" d="M164.72-.35c0,.31,0,.62,0,.93,0,.6,0,1.11.83,1.11s.74-.56.75-1.09V-.35Z"/><rect x="-0.68" y="0.18" width="0.75" height="147.88"/><rect x="280.09" y="0.18" width="0.75" height="147.88"/></svg>