<svg id="Layer_1" data-name="Layer 1" xmlns="http://www.w3.org/2000/svg" viewBox="0 0 176.05 150.97"><defs><style>.cls-1{fill:#fff;}.cls-2{fill:#020202;}</style></defs><rect class="cls-1" x="30.98" y="0.5" width="1.27" height="149.97"/><path class="cls-2" d="M84.15,1V150h-.27V1h.27m1-1H82.88V151h2.27V0Z" transform="translate(-52.4)"/><rect class="cls-1" x="16.33" y="0.5" width="2.34" height="149.97"/><path class="cls-2" d="M70.57,1V150H69.23V1h1.34m1-1H68.23V151h3.34V0Z" transform="translate(-52.4)"/><rect class="cls-1" x="23.01" y="0.5" width="2.34" height="149.97"/><path class="cls-2" d="M77.25,1V150H75.91V1h1.34m1-1H74.91V151h3.34V0Z" transform="translate(-52.4)"/><rect class="cls-1" x="29.68" y="0.5" width="2.34" height="149.97"/><path class="cls-2" d="M83.91,1V150H82.57V1h1.34m1-1H81.57V151h3.34V0Z" transform="translate(-52.4)"/><rect class="cls-1" x="36.36" y="0.5" width="2.34" height="149.97"/><path class="cls-2" d="M90.6,1V150H89.26V1H90.6m1-1H88.26V151H91.6V0Z" transform="translate(-52.4)"/><rect class="cls-1" x="43.03" y="0.5" width="2.34" height="149.97"/><path class="cls-2" d="M97.26,1V150H95.93V1h1.33m1-1H94.93V151h3.33V0Z" transform="translate(-52.4)"/><rect class="cls-1" x="49.71" y="0.5" width="2.34" height="149.97"/><path class="cls-2" d="M103.94,1V150H102.6V1h1.34m1-1H101.6V151h3.34V0Z" transform="translate(-52.4)"/><rect class="cls-1" x="56.38" y="0.5" width="2.34" height="149.97"/><path class="cls-2" d="M110.61,1V150h-1.34V1h1.34m1-1h-3.34V151h3.34V0Z" transform="translate(-52.4)"/><rect class="cls-1" x="63.06" y="0.5" width="2.34" height="149.97"/><path class="cls-2" d="M117.3,1V150H116V1h1.34m1-1H115V151h3.34V0Z" transform="translate(-52.4)"/><rect class="cls-1" x="69.73" y="0.5" width="2.34" height="149.97"/><path class="cls-2" d="M124,1V150h-1.34V1H124m1-1h-3.34V151H125V0Z" transform="translate(-52.4)"/><rect class="cls-1" x="76.41" y="0.5" width="2.34" height="149.97"/><path class="cls-2" d="M130.64,1V150H129.3V1h1.34m1-1H128.3V151h3.34V0Z" transform="translate(-52.4)"/><rect class="cls-1" x="83.09" y="0.5" width="2.34" height="149.97"/><path class="cls-2" d="M137.32,1V150H136V1h1.33m1-1H135V151h3.33V0Z" transform="translate(-52.4)"/><rect class="cls-1" x="89.76" y="0.5" width="2.34" height="149.97"/><path class="cls-2" d="M144,1V150h-1.34V1H144m1-1h-3.34V151H145V0Z" transform="translate(-52.4)"/><rect class="cls-1" x="96.44" y="0.5" width="2.34" height="149.97"/><path class="cls-2" d="M150.67,1V150h-1.34V1h1.34m1-1h-3.34V151h3.34V0Z" transform="translate(-52.4)"/><rect class="cls-1" x="103.11" y="0.5" width="2.34" height="149.97"/><path class="cls-2" d="M157.35,1V150H156V1h1.34m1-1H155V151h3.34V0Z" transform="translate(-52.4)"/><rect class="cls-1" x="109.79" y="0.5" width="2.34" height="149.97"/><path class="cls-2" d="M164,1V150h-1.34V1H164m1-1h-3.34V151H165V0Z" transform="translate(-52.4)"/><rect class="cls-1" x="71.85" y="0.5" width="4.24" height="149.97"/><path class="cls-2" d="M128,1V150h-3.24V1H128m1-1h-5.24V151H129V0Z" transform="translate(-52.4)"/><rect class="cls-1" x="0.5" y="0.5" width="2.34" height="149.97"/><path class="cls-2" d="M54.73,1V150H53.4V1h1.33m1-1H52.4V151h3.33V0Z" transform="translate(-52.4)"/><rect class="cls-1" x="52.93" y="0.5" width="5.76" height="149.97"/><path class="cls-2" d="M110.58,1V150h-4.76V1h4.76m1-1h-6.76V151h6.76V0Z" transform="translate(-52.4)"/><rect class="cls-1" x="91.43" y="0.5" width="5.68" height="149.97"/><path class="cls-2" d="M149,1V150h-4.68V1H149m1-1h-6.68V151H150V0Z" transform="translate(-52.4)"/><rect class="cls-1" x="11.76" y="0.5" width="1.27" height="149.97"/><path class="cls-2" d="M64.93,1V150h-.28V1h.28m1-1H63.66V151h2.27V0Z" transform="translate(-52.4)"/><rect class="cls-1" x="153.18" y="0.5" width="2.34" height="149.97"/><path class="cls-2" d="M207.41,1V150h-1.34V1h1.34m1-1h-3.34V151h3.34V0Z" transform="translate(-52.4)"/><rect class="cls-1" x="127.46" y="0.5" width="2.34" height="149.97"/><path class="cls-2" d="M181.69,1V150h-1.34V1h1.34m1-1h-3.34V151h3.34V0Z" transform="translate(-52.4)"/><rect class="cls-1" x="119.8" y="0.5" width="2.34" height="149.97"/><path class="cls-2" d="M174,1V150h-1.34V1H174m1-1h-3.34V151H175V0Z" transform="translate(-52.4)"/><rect class="cls-1" x="131.94" y="0.5" width="1.27" height="149.97"/><path class="cls-2" d="M185.1,1V150h-.26V1h.26m1-1h-2.26V151h2.26V0Z" transform="translate(-52.4)"/><rect class="cls-1" x="147.04" y="0.5" width="1.27" height="149.97"/><path class="cls-2" d="M200.21,1V150h-.27V1h.27m1-1h-2.27V151h2.27V0Z" transform="translate(-52.4)"/><rect class="cls-1" x="6.66" y="0.5" width="1.27" height="149.97"/><path class="cls-2" d="M59.83,1V150h-.27V1h.27m1-1H58.56V151h2.27V0Z" transform="translate(-52.4)"/><rect class="cls-1" x="139.83" y="0.5" width="2.34" height="149.97"/><path class="cls-2" d="M194.06,1V150h-1.34V1h1.34m1-1h-3.34V151h3.34V0Z" transform="translate(-52.4)"/><rect class="cls-1" x="124.05" y="0.5" width="1.27" height="149.97"/><path class="cls-2" d="M177.21,1V150h-.27V1h.27m1-1h-2.27V151h2.27V0Z" transform="translate(-52.4)"/><rect class="cls-1" x="153.18" y="0.5" width="2.34" height="149.97"/><path class="cls-2" d="M207.41,1V150h-1.34V1h1.34m1-1h-3.34V151h3.34V0Z" transform="translate(-52.4)"/><rect class="cls-1" x="159.86" y="0.5" width="2.34" height="149.97"/><path class="cls-2" d="M214.09,1V150h-1.34V1h1.34m1-1h-3.34V151h3.34V0Z" transform="translate(-52.4)"/><rect class="cls-1" x="166.53" y="0.5" width="2.34" height="149.97"/><path class="cls-2" d="M220.76,1V150h-1.33V1h1.33m1-1h-3.33V151h3.33V0Z" transform="translate(-52.4)"/><rect class="cls-1" x="173.21" y="0.5" width="2.34" height="149.97"/><path class="cls-2" d="M227.44,1V150H226.1V1h1.34m1-1H225.1V151h3.34V0Z" transform="translate(-52.4)"/></svg>