<?xml version="1.0" encoding="utf-8"?>
<!-- Generator: Adobe Illustrator 25.2.1, SVG Export Plug-In . SVG Version: 6.00 Build 0)  -->
<svg version="1.1" id="Layer_1" xmlns="http://www.w3.org/2000/svg" xmlns:xlink="http://www.w3.org/1999/xlink" x="0px" y="0px"
	 viewBox="0 0 280.8 151" style="enable-background:new 0 0 280.8 151;" xml:space="preserve">
<style type="text/css">
	.st0{fill:#FFFFFF;}
</style>
<g>
	<g>
		<path d="M145.1,16.6h55.8c0.2,0.7,0.4,1.2,1.3,1.2c3.8-0.1,48.3-0.1,52.1-0.1c0.5,0,0.7,0.2,0.7,0.7c0,1.4,0,2.8,0,4.1
			c0,0.6-0.2,0.8-0.8,0.8c-1.6,0-43.9,0-45.6,0c-2.2,0-4.5,0-6.7,0c-0.9,0-1.2,0.4-1.1,1.1c0.1,0.7,0.7,0.6,1.1,0.6
			c3.1,0,6.2,0,9.3,0c0.8,0,42.3-0.1,43.1-0.2c0.2,0,0.6,0.2,0.6,0.4c0.1,0.8,0,1.6,0,2.4c-0.3,0-0.5,0.1-0.7,0.1
			c-0.8,0.1-42,0-42.1-1c0-0.6-0.6-0.6-1.1-0.6h-16.1c-1.3,0-2.7,0-4,0c-0.4,0-0.8,0.2-1,0.6c-0.3,0.7,0.1,1,1,1c2.3,0,4.7,0,7,0
			c0.4,0,1,0.3,1,0.5c0,1.3,0.9,1.2,1.7,1.2c4.2,0,49.1,0,53.3,0c0.4,0,0.8-0.1,0.8,0.5c0,0.6-0.4,0.5-0.8,0.5
			c-0.9,0-42.5,0.1-43.4,0.1c-0.5,0-0.9,0.1-0.9,0.8c0,0.6,0.5,0.8,1,0.8c0.8,0.1,42.3,0.1,43.1,0c0.9-0.1,1.1,0.3,1,1.1
			c-0.1,1.1-0.1,2.3,0,3.4c0.1,0.9-0.3,1.1-1.1,1c-0.6,0-41.8,0-42.4,0c-0.6,0-1.1,0.1-1.1,0.9s0.5,0.7,1.1,0.7c0.9,0,42.5,0,43.4,0
			c0.3,1.4,0.2,1.5-1,1.5h-74.8c-7.2,0-14.4,0-21.6,0c-2.9,0-2.5-0.2-2.6,2.5c0,1.8,0,1.8-1.8,1.8c-2.8,0-5.6,0-8.4,0
			c-0.6,0-1-0.1-1-0.8s-0.5-0.6-1-0.6c-6.7,0-13.5,0-20.2,0c-0.6,0-1.1,0-1,0.8s0.5,0.7,1,0.7h19.5c0.4,0,0.8,0,1.1,0
			c0.2,0.1,0.5,0.3,0.5,0.5c-0.1,0.9,0.5,0.9,1.2,0.9c5.1,0,10.3,0,15.4,0c1.6,0,3.2,0,4.9,0c0.3,0,0.9-0.3,0.9-0.5c0-1,0.7-1,1.4-1
			h28.8c0.9,0,1.7,0,2.6,0c0.6,0,0.8-0.2,0.8-0.8c0-0.2,0-0.5,0-0.7c0-1.3,0.1-1.4,1.4-1.4c4.2,0,49,0,53.2,0c0.3,0,0.7,0,1,0.1v1.4
			h-43.6c-0.5,0-0.9,0.2-0.8,0.7c0.1,0.3,0.4,0.6,0.8,0.7c0.7,0.1,42.1,0.1,42.8,0c0.7,0,0.9,0.2,0.9,1c-0.1,2.8,0,5.6-0.1,8.4v2.1
			c-0.1,0-0.2,0.1-0.3,0.1c-6,0-52.7,0-58.7,0c-0.3-0.1-0.6-0.3-0.7-0.6c0-0.4-0.4-0.8-0.8-0.8c0,0,0,0,0,0h-9.6
			c-0.6,0-0.9,0.3-0.8,0.9c0,1.1,0,2.2,0,3.3c0,1.5,0,1.5,1.4,1.5c9.2,0,59.1,0,68.3,0c0.4,0,0.8,0,1.2,0.1v1.4h-80.4
			c-0.3,0-0.5,0-0.8,0c-0.2,0.1-0.6,0.4-0.6,0.6c0,0.3,0.2,0.6,0.5,0.8c0.3,0.1,0.6,0.2,0.8,0.1c10.4,0,20.8,0,31.2,0
			c2.6,0,45.8,0,48.4,0c0.3,0,0.8,0.3,0.8,0.4c0.1,1.7,0,3.4,0,5.1c-0.4,0-0.8,0.1-1.1,0.1c-12.7,0-66,0-78.7,0
			c-0.4,0.1-0.9,0.1-1.3,0c-0.3-0.1-0.7-0.4-0.7-0.6c0-0.8-0.5-0.9-1.1-0.9c-3.1,0-6.2,0-9.3,0c-0.6,0-0.9,0.2-0.9,0.8
			c0,1.4,0,2.9,0,4.3c0,0.6,0.2,0.8,0.8,0.8c0.8,0,1.7,0,2.5,0c1.8,0,1.8,0,1.8,1.7c0,1.2,0,1.2-1.2,1.2c-7.3-0.1-14.6-0.2-22-0.2
			c-3.2,0-6.4,0-9.6,0.1c-0.6,0-1,0.1-1,0.8c0,0.7,0.5,0.8,1.1,0.8c2.3,0,4.6,0,7,0c8.9,0.2,17.9-0.3,26.8,0.3c3.1,0.2,6.2,0,9.4,0
			c0.7,0,1.1-0.3,1-1c0-0.4,0-0.8,0-1.2s0.2-0.7,0.7-0.7c1.9,0,3.8,0,5.6,0.1c1.2,0,2.4,0,3.6,0c0.7,0,0.8-0.4,0.8-0.9
			c0-0.6-0.3-0.8-0.9-0.8c-0.8,0-1.6,0-2.3,0c-1.9,0-1.9,0-1.9-1.9c0-0.6,0.3-0.9,0.8-0.9c0.3,0,0.6,0,1,0
			c8.8,0.1,58.3,0.1,67.2,0.2c0.6,0,1.2,0,1.8,0v1h-0.6c-2,0-44.7,0-46.7,0c-0.6,0-1.1,0.2-1,0.9c0.1,0.7,0.5,0.7,1.1,0.7h2.9
			c0.6,0,1,0.1,1,0.8s41.1,0.9,41.7,0.8c0.3,0,0.6,0,0.9,0c0.6-0.1,0.8,0.2,0.8,0.8c0,2.7,0,5.4,0,8.1c0,0.8-0.2,1-1,1
			c-3.8,0-48.3,0-52.1,0c-0.5,0-1,0-1,0.7c-0.1,0.5,0.3,0.9,0.7,0.9c0.1,0,0.2,0,0.3,0c0.8,0,1.6,0,2.4,0c3.1,0,46.8,0,49.9,0
			c0.3,0,0.8,0.3,0.8,0.4c0.1,1.7,0,3.3,0,5.1h-43.2c-3.5,0-7,0-10.4,0c-0.5,0-0.9,0.1-0.9,0.7c-0.1,0.4,0.2,0.9,0.7,0.9
			c0,0,0.1,0,0.1,0c0.2,0,0.5,0.1,0.7,0.1c2.9,0,5.9-0.1,8.8-0.1c1.2,0,43-0.1,44.2-0.2v4.4h-1.4h-64.9h-9c-0.6,0-1.1,0.1-1.1,0.8
			s-0.3,0.7-0.8,0.7c-1.2,0-2.4,0-3.6,0c-1.9,0-1.9,0-2.1-1.8c-0.1-1.2-0.3-1.3-1.4-1.3c-1.9,0-3.9,0-5.8,0c-1.1,0-2.1,0-3.1,0.1
			c-0.6,0-0.9,0.3-0.8,0.9s0,1.4,0,2.1c0,1.5,0,1.5,1.5,1.5c5.1,0,10.2,0,15.3,0c0.4,0,1,0.3,1,0.6c0.1,0.8,0.6,0.9,1.2,0.8
			c0.5,0,0.9,0,1.4,0c2,0,2,0,2-2c0-0.6,0.2-0.9,0.9-0.9c6.6,0,13.1,0,19.6,0c2.3,0,4.6,0.1,6.8,0.2c1,0,42.6,0,43.5,0
			c0.4,0,0.9,0,0.7,0.5c-0.1,0.2-0.5,0.4-0.8,0.5c-0.2,0-0.5,0-0.7,0c-2.1,0-44.8,0-46.9,0c-0.6,0-1.1,0-1.1,0.8
			c0,0.8,0.5,0.8,1.1,0.8h46.7c1.9,0,1.9,0,1.9,1.9c0,0.8-0.2,1.1-1.1,1.1c-6.5,0-53.7,0-60.1,0c-0.3-0.1-0.6-0.1-0.9,0
			c-0.2,0.1-0.5,0.4-0.5,0.7c0.1,0.3,0.3,0.5,0.6,0.7c0.3,0.1,0.7,0.1,1,0h59.9c0.3,0,0.7,0,1,0c0,1.7,0,3.2,0,4.8
			c0,0.6-0.2,0.8-0.8,0.8c-1.6,0-43.9,0-45.5,0c-5.1,0-10.2,0-15.3,0c-0.6,0-1,0.2-1,0.9s0.6,1,1.1,1c6.6,0,53.8,0,60.4,0
			c0.4,0,0.7,0,1.1,0v1.3c-0.4,0-0.7,0.1-1.1,0.1c-6.6,0-53.9,0-60.5,0c-0.6,0-1.2,0-1.8,0c-0.3,0-0.7-0.4-0.7-0.6
			c-0.1-0.8-0.5-0.8-1.1-0.8c-6.6,0-13.3,0-19.9,0c-0.2-0.1-0.5-0.1-0.7,0c-0.2,0.2-0.6,0.4-0.6,0.7s0.3,0.5,0.6,0.6
			c0.3,0.1,0.6,0.1,0.8,0c2.9,0,5.7,0,8.6,0c0.3,0,0.8,0.3,0.8,0.4c0,1,0.7,1,1.4,1h25.7c1.9,0,3.8,0,5.7,0c0.3,0,41.3,0.2,41.4,0.4
			c0.1,0.3,0.1,0.6-0.1,0.8c-0.4,0.2-41.4,0.2-41.8,0.2c-6.5,0-13,0-19.6,0c-0.3-0.1-0.6-0.1-0.9,0c-0.3,0.2-0.4,0.5-0.4,0.8
			c0.1,0.3,0.2,0.5,0.5,0.7c0.3,0.1,0.5,0.1,0.8,0h13.1c2.3,0,4.6,0,6.9,0c0.3,0,41.6,0.2,41.6,0.4c0,0.8,0.5,1.2,1.2,1.2
			c0,3.2,0,6.3,0,9.4c-0.1,0.3-0.3,0.4-0.6,0.5c-0.8,0.1-42.2,0-42.9,0c-0.5,0-0.8,0.2-0.7,0.7c0.1,0.3,0.3,0.6,0.6,0.7
			c0.7,0.1,42.1,0.1,42.8,0c0.6,0,0.8,0.2,0.8,0.8c0,0.6-0.4,0.7-0.9,0.7c-4.1,0-48.9,0-53,0c-1.4,0-1.5-0.1-1.5-1.5s0-1.4-1.4-1.4
			H180c-4.3,0-8.5,0-12.8,0c-0.4,0-1-0.3-1.1-0.4c-0.1-1.1-0.8-0.9-1.5-0.9c-5.1,0-10.3,0-15.4,0c-1.5,0-3,0-4.5,0
			c-0.4,0-1,0.3-1,0.5c-0.1,0.9-0.6,0.9-1.3,0.9c-6.4,0-12.8,0-19.1,0c-0.4,0-0.9,0-1.3,0.1c-0.3,0.1-0.5,0.3-0.6,0.6
			c-0.2,0.9,0.6,0.8,1.1,0.8c2.9,0,5.7,0,8.6,0c3.8,0,7.6,0,11.5,0c0.8,0,1.2,0.6,0.8,1.1c-0.3,0.2-0.6,0.4-1,0.3
			c-10.1,0-20.2,0-30.3,0c-2.2,0-2-0.2-1.9-1.8c0-0.8-0.4-1.1-1.2-1.1c-1.3,0-2.6,0-3.8,0c-9.1,0-18.2,0-27.3,0
			c-0.6,0-1.2,0-1.3-0.9c0-0.2-0.4-0.4-0.6-0.5c-0.3,0-0.6,0-0.9,0c-4.1,0-45.2,0-49.2,0v-9.9c0.4,0,37.8,0,38.2,0c4.7,0,9.4,0,14,0
			c0.5,0,1.1,0.1,1.1-0.7s-0.4-0.8-0.9-0.8c-5.1,0-47.3,0-52.4,0V97.1c1.1,0,39.2,0,40.3-0.1c0.9,0,1.1-0.4,0.8-1.3
			c-0.2-0.6-0.2-1.2,0-1.7c0.2-0.9,0.1-1.2-0.8-1.3c-1.1-0.1-39.2-0.1-40.3-0.1v-1.4c0.3,0,37.6,0,37.8,0h12.8c0.3,0,0.7,0,1,0.1
			c0.2,0.1,0.6,0.4,0.6,0.5c0,1,0.6,1,1.4,1c5.6,0,11.2,0,16.8,0c1.2,0,2.4,0,3.6,0c0.3,0,0.8-0.3,0.8-0.5c0-0.9,0.5-0.9,1.1-0.9
			c2.9,0,5.8,0,8.7,0c0.4,0,0.8-0.1,1.1-0.4c0.2-0.2,0.3-0.5,0.3-0.8c-0.1-0.3-0.3-0.5-0.6-0.6c-0.4-0.1-0.7-0.1-1.1-0.1
			c-3.7,0-7.3,0-10.9,0c-2.9,0-5.7,0-8.6,0c-0.4,0-0.7-0.1-1-0.3c-0.3-0.4-0.5-0.9-0.5-1.4c0-0.8-0.5-0.9-1.2-0.9c-2.7,0-5.3,0-8,0
			c-1.9,0-1.9,0-1.9,1.8c0,0.9-0.3,1.1-1.1,1.1c-2.2,0-4.4,0-6.6,0c-2.5,0-42,0-44.5,0v-4.5c1.9,0,40.8,0,42.6,0c2.7,0,5.4,0,8.1,0
			c0.3,0,1-0.3,1-0.4c-0.1-1.1,0.7-1,1.3-1c6.6,0,13.1,0,19.7,0c0.3,0.1,0.5,0.1,0.8,0c0.2-0.1,0.6-0.4,0.6-0.6
			c-0.1-0.3-0.2-0.6-0.5-0.8c-0.3-0.1-0.6-0.1-0.8-0.1H78.9c-3.8,0-7.7,0-11.6,0c-0.6,0-1.1,0-1.1,0.8c0,0.2-0.5,0.4-0.8,0.5
			c-0.8,0.1-38.7,0-39.5,0v-5.6c5.1,0.1,47.3,0.2,52.4,0.2c3.2,0,6.4,0.1,9.6,0.1c0.8,0,1.1-0.4,1.1-1.2c0-0.5-0.2-1.3,0.1-1.6
			s1-0.2,1.6-0.2c2.7,0,5.4-0.1,8.1,0c0.7,0,1.1-0.1,1.1-0.8c0-0.7-0.5-0.8-1.1-0.8c-1,0-2,0-3,0c-0.3,0-0.8-0.1-0.8-0.3
			c-0.1-0.7-0.1-1.5,0-2.2c0-0.2,0.8-0.3,1.2-0.3c3.6,0,7.2,0,10.9,0c3.2,0,6.4,0,9.6,0c3.7,0,7.4,0.1,11.1,0.2
			c0.6,0,0.9-0.3,0.9-0.9c0-0.6-0.4-0.8-0.9-0.8s-0.9,0-1.3,0c-7.5,0-15,0-22.5,0c-6.5,0-13,0-19.5,0c-0.2,0-0.7-0.3-0.7-0.5
			c0.1-1.1-0.6-1.1-1.4-1.1c-2.3,0-4.5,0-6.8,0c-0.8,0-1.6,0-2.4,0c-0.5,0-0.7,0.2-0.7,0.7c0,1.5,0,2.9,0,4.4c0,0.6,0.2,0.8,0.8,0.8
			c0.8,0,1.5,0,2.3,0c2,0,1.9,0,2,2c0,0.7-0.2,1-0.9,1c-1.9,0-3.8,0-5.6,0c-2.7,0-42.4,0-45.1,0.1V62.4c2.7,0,42.5,0,45.3,0
			c0.7,0,1.2-0.2,1.3-0.9s-0.6-0.8-1.2-0.8c-2.8,0-42.6,0-45.4,0V55c2.9,0,42.8,0.1,45.7,0.1c0.4,0,1,0.1,1-0.6s-0.3-1-1-1
			s-1.4,0-2.1,0c-2.2,0-41.5,0-43.7,0v-1c4,0,45,0,48.9,0c2.6,0,5.2-0.1,7.8-0.1c0.5,0.1,0.9-0.2,1-0.7c0-0.1,0-0.1,0-0.2
			c0-0.6-0.4-0.8-0.9-0.9c-0.3,0-0.5,0-0.8,0c-5.2,0-10.3,0-15.5,0c-1.2,0-39.4,0.1-40.6,0.2v-4.3c4.2,0,45.4,0,49.6,0
			c0.6,0,1-0.1,1-0.8c0-0.7,0.6-0.7,1.1-0.7c1.6,0,3.2,0,4.9,0c8.8,0,17.7,0,26.5,0c0.8,0,1.1-0.3,1-1c0-0.2,0-0.4,0-0.6
			c0-1.1,0.1-1.3,1.3-1.3c1.9,0,3.9,0,5.8,0h25.4c0.6,0,1-0.1,1-0.8s-0.6-0.7-1-0.7c-4.5,0-8.9,0-13.4,0c-17.3,0-34.7,0-52,0
			c-3.5,0-7.1,0-10.6,0c-1,0-1.1,0.1-1.1,1.1c0,0.8,0,1.5,0,2.3c0.1,0.4-0.2,0.8-0.6,0.9c-0.1,0-0.1,0-0.2,0C64,45,26.4,45,25.8,45
			v-5.7c0.5,0,38,0,38.5-0.1c0.3-0.1,0.7-0.4,0.8-0.6c0.1-0.8,0.6-0.8,1.2-0.8c6.6,0,13.2,0,19.8,0c0.3,0,0.7,0,1-0.1
			c0.2-0.1,0.4-0.4,0.4-0.6c0-0.3-0.2-0.5-0.5-0.6c-0.4-0.1-0.8-0.2-1.2-0.2h-60v-4.2c0.5,0,38.1,0,38.6-0.1
			c0.3-0.1,0.6-0.4,0.7-0.7c0-0.2-0.4-0.6-0.7-0.7c-0.5-0.1-38.1-0.1-38.6-0.1v-8.6c0.6,0,38.1,0,38.7,0c4.3,0,8.6,0,12.9,0
			c0.5,0,1,0,1-0.7s-0.5-0.8-1-0.8c-2.6,0-5.2,0-7.8,0c-2.3,0-41.6,0-43.8,0V19c0.6,0,38.1,0,38.7,0h13c0.5,0,1,0,1-0.7
			c0-0.7-0.4-0.8-1-0.8c-4.8,0-46.8,0.1-51.7,0.2v-1h85.9c-0.1,1,0.5,1.2,1.3,1.2c0.5,0,1-0.1,1.6-0.1c2.8,0,5.6,0,8.3,0
			c3.4,0,6.8,0,10.2,0c0.2,0,0.6,0.2,0.6,0.3c-0.1,1.1,0.8,0.9,1.4,0.9c10.5,0,21,0,31.5,0c0.6,0,1-0.1,1-0.8s-0.5-0.9-1.1-0.8
			c-3.8,0.1-7.7,0.2-11.5,0.2c-2.9,0-5.8,0-8.7,0C145.7,17.6,145.3,17.3,145.1,16.6z M87.6,33.4c3.4,0,6.9,0,10.3,0
			c0.3-0.1,0.6-0.3,0.6-0.7c0-0.2-0.3-0.6-0.6-0.7C97.6,32,97.3,32,97,32c-2.7,0-5.3,0-8,0C87.6,32,87.6,32,87.6,33.4
			c-0.3,0-0.6,0.1-0.9,0.1c-6.7,0-13.4,0-20.2,0c-0.3,0-0.6,0-0.9,0.1c-0.3,0.1-0.4,0.4-0.5,0.7c0,0.2,0.3,0.5,0.5,0.6
			c0.3,0.1,0.6,0.1,0.9,0h19.6C87.6,34.9,87.7,34.8,87.6,33.4z M176.7,33.4c3.5,0,7.1,0,10.6,0c0.2,0,0.4-0.1,0.6-0.3
			c0.1-0.2,0.2-0.6,0.2-0.7c-0.3-0.2-0.6-0.4-1-0.5c-2.9,0-5.8,0-8.7,0C177,32,177,32,176.7,33.4c-0.2,0-0.4,0-0.6,0
			c-6.7,0-13.3,0-20,0c-0.2,0-0.3,0-0.5,0c-0.4,0-1,0-1,0.7c0,0.7,0.4,0.7,0.9,0.8c0.5,0,0.8,0,1.2,0c6.2,0,12.4,0,18.7,0
			C176.9,34.9,176.9,34.8,176.7,33.4z M107.1,117.2L107.1,117.2h8.5c2.4,0,4.8,0,7.2,0c0.7,0,1.1,0.2,0.9,1s-0.6,0.5-1,0.5
			c-6.7,0-13.4,0-20.1,0c-0.2,0-0.4,0-0.6,0c-0.2,0.1-0.6,0.4-0.6,0.6c0.1,0.3,0.2,0.6,0.5,0.8c0.1,0.1,0.4,0.1,0.7,0.1h11.4
			c2.9,0,5.8,0,8.7,0c0.3,0,0.9,0.3,0.9,0.4c0.1,1,0.7,1,1.4,1c3.3,0,6.5,0,9.7,0s6.7,0,10.1,0c0.5,0,1.1,0,1.1-0.6
			c0.1-0.9,0.6-0.9,1.3-0.9h19.7c0.3,0,0.5,0,0.8-0.1c0.3-0.1,0.7-0.5,0.6-0.6c-0.1-0.3-0.4-0.6-0.7-0.7c-0.2-0.1-0.4,0-0.7,0
			c-6.4,0-12.9,0-19.3,0c-2,0-1.7,0-1.7-1.7c0-1.2-0.1-1.3-1.3-1.3c-7.2,0-14.4,0-21.6,0c-6.9,0-13.8,0-20.7,0
			c-0.3,0-0.8-0.2-0.9-0.3c-0.2-1.1-1-1-1.8-1c-6,0-12,0-18,0c-0.7,0-1.4,0-2.1,0.1c-0.3,0.1-0.5,0.3-0.6,0.6c0,0.2,0.3,0.6,0.6,0.7
			c0.3,0.1,0.6,0.1,0.9,0c2.9,0,5.7,0,8.6,0c0.3,0,1,0.3,1,0.5c0,1.1,0.7,1,1.4,1C96.9,117.2,102,117.2,107.1,117.2z M106,64L106,64
			h4.4h16.8c0.5,0,1.1,0.1,1.1-0.7c-0.1-0.8,0.4-0.9,1-0.9c0.9,0,1.7,0,2.6,0c8.2,0,16.4,0,24.6,0c1.4,0,2.9,0,4.3,0
			c0.9,0,1.3-0.6,0.9-1.2c-0.3-0.3-0.7-0.4-1.1-0.4c-2.8,0-5.6,0-8.4,0c-3.8,0-7.6,0-11.5,0c-0.3,0-0.9-0.2-1-0.3
			c-0.1-1-0.9-0.9-1.6-0.9c-6.7,0-13.3,0-19.9,0c-3.7,0-7.5,0-11.2,0c-0.5,0-1.2,0.1-1.2-0.7s0.7-0.7,1.2-0.7H127
			c0.3,0,0.5,0,0.8-0.1c0.2-0.2,0.4-0.4,0.4-0.7c0-0.2-0.3-0.5-0.5-0.6s-0.4,0-0.6,0h-9.2c-3.6,0-7.2,0-10.8,0c-0.7,0-1.2,0-1.3-0.9
			c0-0.2-0.4-0.5-0.7-0.5c-3.2,0-6.4,0-9.7,0c-0.4,0-0.8,0.3-0.8,0.7c0,0.1,0,0.1,0,0.2v3.2c0,1.6,0,1.6,1.7,1.6
			c10.2,0,20.4,0,30.7,0c0.2,0,0.5-0.1,0.7,0s0.5,0.5,0.5,0.7s-0.3,0.5-0.6,0.7c-0.3,0.1-0.6,0.1-0.9,0.1c-13.8,0-27.7,0-41.5,0
			c-0.3-0.1-0.5-0.1-0.8,0c-0.3,0.1-0.5,0.4-0.6,0.7c-0.2,0.9,0.5,0.9,1.1,0.9C91.9,64,99,64,106,64z M156.2,89.8L156.2,89.8h-10.4
			c-0.6,0-1.1,0.2-0.8,0.8c0.2,0.3,0.6,0.5,1.1,0.6c2.9,0,5.9,0,8.8,0c3.8,0,7.5,0,11.3,0c0.5,0,1.1,0,1,0.7
			c-0.1,0.7,0.4,0.9,1.1,0.9c2.8,0,5.6,0,8.3,0c4.1,0,8.2,0,12.2,0.1c0.5,0,1,0,1-0.6s0.4-0.9,1-0.8c0.3,0,0.7,0,1,0
			c2.6,0,5.2,0,7.8,0c0.8,0,1.6-0.4,1.6-1c0-0.9-0.7-0.9-1.4-0.9h-0.3c-6.2,0-12.5,0-18.7,0c-1.9,0-2,0-2.5-1.8
			c-0.2-0.7-0.5-0.9-1.2-0.9c-2.8,0-5.6,0-8.3,0c-1.6,0-1.7,0.1-1.7,1.7c0,1.2-0.1,1.2-1.3,1.2H156.2z M178.1,84L178.1,84h3.6
			c2.2,0,4.4,0,6.6,0c0.7,0,1.1-0.6,0.7-1.1c-0.3-0.2-0.6-0.4-1-0.4c-10.3,0-20.6,0-30.8,0c-0.3,0-0.7,0-1,0c-0.5,0-0.8,0.2-0.9,0.8
			c0,0.2-0.4,0.4-0.6,0.4c-1.5,0-3.1,0-4.6,0c-2.6,0-5.3,0-7.9,0c-2.6,0-5.2,0-7.8,0c-0.6,0-1.1,0.2-1,0.8s-0.3,0.9-1,0.9
			c-3,0-6.1,0-9.1,0c-3.6,0-7.1,0-10.7,0c-0.6,0-1,0.2-1.1,0.8s0.5,0.8,1,0.8s0.9,0,1.4,0c8.5-0.1,16.9-0.2,25.4-0.3
			c1.6,0,3.1,0,4.7,0c0.3,0,1-0.3,1-0.4c0.1-1,0.8-1,1.5-1h18.6c0.4,0,0.8,0,1.2,0c0.2,0,0.6-0.3,0.6-0.4c-0.1-1,0.6-0.9,1.3-0.9
			L178.1,84z M121.7,100.2L121.7,100.2c1.4,0,2.9,0,4.3,0c1.1,0,1.6-0.3,1.6-0.9c-0.1-1-0.9-0.8-1.5-0.8c-7.9,0-15.7,0-23.5,0
			c-4,0-8,0-12.1,0c-0.6,0-1.2,0.1-1.4,0.8s-0.5,0.8-1,0.8c-1.1,0-2.2,0-3.4,0c-2.4,0-2,0-2-2c0-0.7-0.2-1.1-1-1.1c-1.3,0-2.6,0-4,0
			c-1.8,0-3.5-0.1-5.3-0.1c-0.7,0-1.1,0.3-1,1s0,1.4,0,2.2c0,1.4,0.1,1.4,1.4,1.4c5.1,0,10.2,0,15.3,0c0.5,0,0.9,0,1,0.7
			s0.5,0.7,1,0.7c0.8,0,1.6,0,2.3,0c1.4,0,1.4,0,1.4-1.4s0-1.5,1.4-1.4c7.3,0.2,14.6-0.3,21.8,0.3
			C118.6,100.3,120.2,100.2,121.7,100.2z M165.6,37.8L165.6,37.8h10.2c0.5,0,1,0,1-0.7c0-0.7-0.5-0.8-1-0.8h-0.6c-7.5,0-15,0-22.5,0
			c-2.8,0-5.6,0-8.4,0c-0.3,0-1,0.1-1,0.3c-0.2,1.1-1.1,1-1.8,1c-2.2,0-4.4,0-6.6,0l-12.7-0.1c-0.6,0-1.2,0.1-1.2,0.9
			s0.7,0.8,1.2,0.8h30.7c0.3,0,0.7,0,1,0c0.2-0.1,0.6-0.3,0.6-0.5c0-0.9,0.6-0.8,1.2-0.8L165.6,37.8z M133.8,92.7L133.8,92.7h-7
			c-4.8,0-9.6,0-14.4,0c-0.5,0-1.1-0.1-1.1,0.7s0.5,0.9,1.1,0.9c2.2,0,4.4,0.1,6.7,0.1c1.7,0,3.4-0.2,5.2-0.2c6.3,0,12.6,0,18.9,0
			c1.9,0,1.9,0,2,1.9v0.2c-0.1,0.4,0.2,0.7,0.6,0.8c0.1,0,0.1,0,0.2,0c3.2,0,6.4,0,9.6,0c0.7,0,1-0.4,0.9-1c0-0.8,0-1.5,0-2.3
			c0.1-0.6-0.1-1-0.8-1c-0.4,0-0.7,0-1,0L133.8,92.7z M136.5,104.5L136.5,104.5h4.7c1.9,0,3.8,0,5.6,0c0.6,0,1-0.2,1-0.9
			s-0.5-0.8-1-0.8c-0.5,0-1.1,0-1.6,0c-2,0-3.9,0-5.9,0c-0.6,0-0.9-0.1-0.9-0.8c0-0.7-0.6-0.9-1.2-0.9c-2.8,0-5.7,0.1-8.5,0.1
			c-2.2,0-4.5,0-6.8,0c-1.6,0-3.1,0-4.7,0c-0.7,0-1.1,0.2-1,1s0.6,0.6,1.1,0.6c2.3,0,4.6,0,6.9,0c0.7,0,1.2,0.1,1.3,1
			c0,0.6,0.5,0.8,1.1,0.8C129.8,104.5,133.2,104.5,136.5,104.5z M133.2,75.6L133.2,75.6h1.7c2.8,0,5.6,0,8.4,0.1
			c0.9,0,1.3-0.3,1.2-1c0-0.7-0.6-0.7-1.2-0.7h-3c-0.5,0-0.8-0.2-0.8-0.8c0-0.6-0.3-0.8-0.9-0.8c-0.7,0-1.4-0.1-2.1-0.1
			c-6.2,0-12.3,0-18.5,0c-0.6,0-1,0.2-1,0.8c0,0.6,0.5,0.8,1,0.8c1,0,2.1,0,3.1,0c0.6,0,0.9,0.2,1,0.8s0.4,0.9,1,0.9L133.2,75.6z
			 M121,29.3L121,29.3c3.4,0,6.7,0,10.1,0c0.6,0,1.1-0.1,1.1-0.9c0-0.8-0.5-0.8-1-0.8c-2.3,0-4.7,0-7,0c-0.5,0-1,0.1-1.1-0.6
			c-0.1-0.7-0.6-1-1.3-1c-4.4,0-8.8,0-13.1,0c-2.3,0-4.5,0-6.8,0c-0.5,0-1,0-1.2,0.6c-0.2,0.6,0.2,1,1.1,1c2.4,0,4.8,0,7.2,0
			c0.4,0,0.9,0,0.9,0.6c0,0.9,0.5,1.1,1.3,1.1C114.4,29.3,117.7,29.3,121,29.3z M119.8,114.3L119.8,114.3c4.8,0,9.6,0,14.3,0
			c0.6,0.1,1.1,0.1,1.7,0c0.3-0.1,0.6-0.4,0.6-0.7c0-0.3-0.3-0.6-0.5-0.8c-0.2-0.2-0.4-0.1-0.7-0.1h-25.2c-2,0-4,0-6.1,0
			c-0.9,0-1.2,0.3-1,1.1s0.8,0.6,1.3,0.6C109.5,114.4,114.6,114.3,119.8,114.3z M128.3,23.3h-9c-2.3,0-4.7,0-7,0c-0.6,0-1,0.2-1,0.9
			c0,0.7,0.6,0.8,1.2,0.8c3.9-0.1,7.8-0.2,11.6-0.2c6.6,0,13.3,0,19.9,0c0.6,0,1.2,0,1.2-0.7c0-0.7-0.5-0.8-1.1-0.8
			C138.9,23.3,133.6,23.3,128.3,23.3z M183.8,81.1L183.8,81.1h15.6c0.3,0.1,0.5,0.1,0.8,0c0.2-0.1,0.4-0.3,0.5-0.6
			c0-0.3-0.2-0.5-0.4-0.6c-0.3-0.1-0.6-0.2-0.8-0.1c-3.8-0.1-7.5-0.2-11.3-0.3c-6.7,0-13.4,0-20.1,0c-0.7,0-1.2,0.1-1.2,1
			c0,0.9,0.6,0.7,1.1,0.7C173.3,81.1,178.5,81.1,183.8,81.1z M94.3,81.1L94.3,81.1h16.1c0.4,0,0.9,0.1,1-0.6s-0.4-0.8-0.9-0.8
			c-5-0.1-10.1-0.2-15.1-0.3c-1.5,0-3,0-4.5,0c-1.2,0-2.4,0.1-3.6,0.1c-2.9,0-5.7-0.1-8.6-0.1c-0.6,0-1.1,0.1-1.1,1
			c0,0.9,0.6,0.7,1.1,0.7C83.9,81.1,89.1,81.1,94.3,81.1L94.3,81.1z M145.1,55.1L145.1,55.1h4.8c3.7,0,7.5,0,11.2,0
			c0.9,0,1.3-0.6,0.8-1.3c-0.3-0.3-0.7-0.4-1.1-0.4c-2.8,0-5.5-0.1-8.2,0c-1.1,0-2.2,0.3-3.3,0.3c-6.7,0-13.3,0-20,0
			c-0.2,0-0.5-0.1-0.6,0s-0.6,0.4-0.5,0.6c0.1,0.3,0.2,0.6,0.5,0.7c0.3,0.1,0.6,0.1,0.8,0.1L145.1,55.1z M137.7,32L137.7,32
			c5.2,0,10.5,0,15.7,0c0.5,0,1.1,0.1,1.2-0.7c0-0.7-0.5-0.8-1.1-0.8c-7.4,0-14.8-0.1-22.2-0.2c-2.3,0-4.5,0-6.8,0
			c-0.9,0-1.8-0.1-2.7,0c-0.5,0-1,0-1,0.8s0.4,0.8,1,0.8c0.3,0,0.6,0,0.9,0L137.7,32z M119.9,107.1L119.9,107.1H133c1,0,2,0,3,0
			c0.3,0,0.7-0.4,0.7-0.6c0-0.4-0.3-0.7-0.6-0.8c-0.5-0.1-1-0.2-1.5-0.1c-3.4,0.1-6.8,0.2-10.1,0.2c-6.6,0-13.2,0-19.8,0
			c-0.4,0-0.8,0-1.2,0.1c-0.3,0.1-0.5,0.5-0.4,0.8c0.1,0.2,0.2,0.3,0.4,0.4c0.4,0.1,0.7,0.1,1.1,0.1L119.9,107.1z M161.5,50.6
			L161.5,50.6h-1.7c-2.8,0-5.6,0-8.4,0c-0.9,0-1.4,0.8-0.9,1.4c0.3,0.3,0.7,0.4,1.1,0.5c1.9,0,3.8,0,5.6,0c4.8,0,9.6,0,14.3,0
			c0.9,0,1.3-0.3,1.1-1.2s-0.7-0.7-1.2-0.7C168.2,50.6,164.9,50.6,161.5,50.6z M200.8,97L200.8,97c3.5,0,7,0,10.4,0
			c0.6,0,0.8-0.2,0.8-0.8c0-0.8-0.6-0.8-1.2-0.8c-5,0-10,0-15,0c-1.8,0-3.6,0-5.5,0c-0.8,0-1.3,0.8-0.8,1.3c0.3,0.2,0.7,0.4,1.1,0.3
			C194,97,197.4,97,200.8,97z M111.4,97c3.4,0,6.8,0,10.2,0c0.5,0,1.1,0.1,1.1-0.7s-0.4-1-1.1-1c-1.6,0-3.1,0-4.7,0
			c-5.1,0-10.2,0-15.3,0c-0.7,0-1.4,0-1.5,0.9s0.8,0.7,1.4,0.7C104.8,97,108.1,97,111.4,97L111.4,97z M156.6,20.5L156.6,20.5
			c-3.4,0-6.9,0-10.3,0c-0.9,0-1.2,0.4-0.8,1.1c0.3,0.2,0.6,0.4,1,0.3c6.6,0,13.2,0,19.8,0c0.3,0.1,0.6,0.1,0.8,0
			c0.3-0.1,0.5-0.4,0.6-0.7c0-0.2-0.4-0.4-0.6-0.6c-0.1-0.1-0.3,0-0.4,0C163.3,20.5,159.9,20.5,156.6,20.5z M179.6,123H190
			c0.5,0,0.8-0.2,0.8-0.7c0-0.5-0.3-0.7-0.8-0.7c-0.3,0-0.6,0-0.9,0c-6.4,0-12.8,0-19.3,0c-0.3,0-0.6-0.1-0.8,0.1
			c-0.3,0.2-0.5,0.5-0.5,0.8c0,0.7,0.6,0.6,1,0.6L179.6,123z M90.2,123L90.2,123c3.4,0,6.8,0,10.2,0c0.6,0,1.2-0.2,1.1-0.8
			c0-0.2-0.7-0.5-1.1-0.5c-6.7,0-13.5,0-20.2,0c-0.5,0-1,0-1,0.7s0.5,0.7,1,0.7L90.2,123z"/>
	</g>
	<g>
		<path class="st0" d="M206.5,72.9c0.1,0.7,0.5,0.7,1,0.7h47c0.2,0,0.3,0,0.4,0V72c-1.1,0-46.3,0-47.5,0
			C207,72,206.4,72.2,206.5,72.9z"/>
		<path class="st0" d="M200.7,86c-0.1,0.5,0.3,0.9,0.7,0.9c0.1,0,0.2,0,0.3,0c0.8,0,1.6,0,2.3,0c2.3,0,48.6,0,50.9,0v-1.7
			c-3.1,0-50.2,0-53.3,0C201.2,85.3,200.7,85.3,200.7,86z"/>
		<path class="st0" d="M200.3,93.2c-0.1,0.4,0.2,0.9,0.7,0.9c0,0,0.1,0,0.1,0c0.2,0,0.5,0.1,0.7,0.1c3,0,50-0.1,52.9-0.1
			c0.1,0,0.2,0,0.3,0v-1.5c-3.2,0-50.6,0-53.8,0C200.8,92.5,200.3,92.6,200.3,93.2z"/>
		<path class="st0" d="M117.1,73c0,0.6,0.5,0.8,1,0.8c1,0,2.1,0,3.1,0c0.6,0,0.9,0.2,1,0.8c0.1,0.6,0.4,0.9,1,0.9l9.9,0h1.7
			c2.8,0,5.6,0,8.4,0.1c0.9,0,1.3-0.3,1.2-1c0-0.7-0.6-0.7-1.2-0.7h-3c-0.5,0-0.8-0.2-0.8-0.8c0-0.6-0.3-0.8-0.9-0.8
			c-0.7,0-1.4-0.1-2.1-0.1c-6.2,0-12.3,0-18.5,0C117.5,72.1,117.1,72.3,117.1,73z"/>
		<path class="st0" d="M134.1,77.9c2.3,0,4.6,0,7,0c8.9,0.2,17.9-0.4,26.8,0.3c3.1,0.2,6.2,0,9.4,0c0.7,0,1.1-0.3,1-1
			c0-0.4,0-0.8,0-1.2c0-0.4,0.2-0.7,0.7-0.7c1.9,0,3.8,0,5.6,0c1.2,0,2.4,0,3.6,0c0.7,0,0.8-0.4,0.8-0.9c0-0.6-0.3-0.8-0.9-0.8
			c-0.8,0-1.6,0-2.3,0c-1.9,0-1.9,0-1.9-1.9c0-0.6,0.3-0.9,0.8-0.9c0.3,0,0.6,0,1,0c8.4,0.1,60.8,0.1,69.2,0.2v-1.8c-12,0-68,0-80,0
			c-0.4,0.1-0.9,0.1-1.3,0c-0.3-0.1-0.7-0.4-0.7-0.6c0-0.8-0.5-0.9-1.1-0.9c-3.1,0-6.2,0-9.3,0c-0.6,0-0.9,0.2-0.9,0.8
			c0,1.4,0,2.9,0,4.3c0,0.5,0.2,0.8,0.8,0.8c0.8,0,1.7,0,2.5,0c1.8,0,1.8,0,1.8,1.7c0,1.2,0,1.2-1.2,1.2c-7.3-0.1-14.7-0.2-22-0.2
			c-3.2,0-6.4,0-9.6,0.1c-0.6,0-1,0.1-1,0.8C133,77.9,133.6,77.9,134.1,77.9z"/>
		<path class="st0" d="M173.7,62.1c-0.2,0.1-0.6,0.4-0.5,0.6c0,0.3,0.2,0.6,0.5,0.8c0.3,0.1,0.6,0.2,0.8,0.1c10.4,0,20.8,0,31.2,0
			c1.8,0,47.6,0,49.4,0v-1.6h-80.6C174.2,62,173.9,62,173.7,62.1z"/>
		<path class="st0" d="M190.6,97c3.4,0,6.8,0,10.2,0c3.4,0,50.9,0,54.3,0v-1.6c0,0-0.1,0-0.1,0c-5,0-54.1,0-59.1,0
			c-1.8,0-3.7,0-5.5,0c-0.8,0-1.3,0.8-0.8,1.3C189.8,96.8,190.2,97,190.6,97z"/>
		<path class="st0" d="M178.4,87.6c-0.2-0.7-0.5-0.9-1.2-0.9c-2.8,0-5.6,0-8.3,0c-1.6,0-1.7,0.1-1.7,1.7c0,1.2,0,1.2-1.3,1.2h-9.7
			h-10.3c-0.6,0-1.1,0.2-0.8,0.9c0.2,0.3,0.6,0.5,1.1,0.6c2.9,0,5.9,0,8.8,0c3.8,0,7.5,0,11.3,0c0.5,0,1.1,0,1,0.7
			c-0.1,0.7,0.4,0.9,1.1,0.9c2.8,0,5.5,0,8.3,0c4.1,0,8.2,0,12.2,0.1c0.5,0,1,0,1-0.6c0-0.6,0.4-0.9,1-0.8c0.3,0,0.7,0,1,0
			c2.6,0,5.2,0,7.8,0c0.8,0,1.6-0.5,1.5-1c0-0.9-0.7-0.9-1.4-0.9h-0.3c-6.2,0-12.5,0-18.7,0C179,89.4,178.9,89.4,178.4,87.6z"/>
		<path class="st0" d="M195.2,55.6c0-0.4-0.4-0.8-0.8-0.8c0,0,0,0,0,0h-9.6c-0.6,0-0.9,0.3-0.8,0.9c0,1.1,0,2.2,0,3.3
			c0,1.5,0,1.5,1.4,1.5c8.5,0,61.1,0,69.6,0v-4.4c-5,0-54.1,0-59.1,0C195.6,56.1,195.3,55.9,195.2,55.6z"/>
		<path class="st0" d="M157.3,52.3c4.8,0,9.5,0,14.3,0c0.9,0,1.3-0.3,1.1-1.2s-0.7-0.7-1.2-0.7c-3.3,0-6.6,0-10,0h-1.7
			c-2.8,0-5.6,0-8.4,0c-0.9,0-1.4,0.8-0.9,1.4c0.3,0.3,0.7,0.4,1.1,0.5C153.5,52.4,155.4,52.3,157.3,52.3z"/>
		<path class="st0" d="M168,81.1c5.2-0.1,10.5-0.1,15.7-0.1h15.6c0.3,0.1,0.5,0.1,0.8,0c0.2-0.1,0.4-0.3,0.5-0.6
			c0-0.3-0.2-0.5-0.4-0.6c-0.3-0.1-0.6-0.2-0.8-0.1c-3.8-0.1-7.5-0.2-11.3-0.3c-6.7,0-13.4,0-20.1,0c-0.7,0-1.2,0.1-1.2,1
			S167.5,81.1,168,81.1z"/>
		<path class="st0" d="M80.1,121.5c-0.5,0-1,0-1,0.7s0.5,0.7,1,0.7l10,0c3.4,0,6.8,0,10.2,0c0.6,0,1.1-0.2,1.1-0.9
			c0-0.2-0.7-0.5-1.1-0.5C93.6,121.5,86.9,121.5,80.1,121.5z"/>
		<path class="st0" d="M129.2,53.6c-0.2,0-0.5-0.1-0.6,0s-0.5,0.4-0.5,0.6c0.1,0.3,0.2,0.6,0.5,0.7c0.3,0.1,0.6,0.1,0.8,0.1l15.6,0
			h4.8c3.7,0,7.5,0,11.2,0c0.9,0,1.3-0.6,0.8-1.3c-0.3-0.3-0.7-0.4-1.1-0.4c-2.8,0-5.5-0.1-8.2,0c-1.1,0-2.2,0.3-3.3,0.3
			C142.5,53.6,135.9,53.6,129.2,53.6z"/>
		<path class="st0" d="M72.8,101.2c5.1,0,10.2,0,15.3,0c0.5,0,0.9,0,1,0.7s0.5,0.7,1,0.7c0.8,0,1.6,0,2.3,0c1.4,0,1.4,0,1.4-1.4
			c0-1.4,0-1.5,1.4-1.4c7.3,0.2,14.6-0.3,21.9,0.3c1.5,0.2,3,0,4.5,0c1.5,0,2.9,0,4.3,0c1.1,0,1.6-0.3,1.5-0.9
			c-0.1-1-0.9-0.8-1.5-0.8c-7.9,0-15.7,0-23.5,0c-4,0-8,0-12.1,0c-0.6,0-1.2,0.1-1.4,0.8c-0.1,0.7-0.5,0.8-1,0.8c-1.1,0-2.2,0-3.4,0
			c-2.4,0-2,0-2-2c0-0.7-0.2-1.1-1-1.1c-1.3,0-2.6,0-4,0c-1.8,0-3.5-0.1-5.3-0.1c-0.7,0-1.1,0.3-1,1c0.1,0.7,0,1.4,0,2.2
			C71.4,101.2,71.4,101.2,72.8,101.2z"/>
		<path class="st0" d="M122.7,118.6c-6.7,0-13.4,0-20.1,0c-0.2,0-0.4,0-0.6,0c-0.2,0.1-0.6,0.4-0.6,0.6c0.1,0.3,0.2,0.6,0.5,0.8
			c0.1,0.1,0.4,0,0.7,0h11.4c2.9,0,5.8,0,8.7,0c0.3,0,0.9,0.3,0.9,0.5c0.1,1,0.7,1,1.4,1c3.3,0,6.5,0,9.7,0s6.7,0,10.1,0
			c0.5,0,1.1,0,1.1-0.6c0-0.9,0.6-0.9,1.3-0.9h19.7c0.3,0,0.5,0,0.8,0c0.3-0.1,0.7-0.5,0.6-0.6c-0.1-0.3-0.4-0.6-0.7-0.7
			c-0.2-0.1-0.5,0-0.7,0c-6.4,0-12.9,0-19.3,0c-2,0-1.7,0-1.7-1.6c0-1.2-0.1-1.3-1.3-1.3c-7.2,0-14.4,0-21.6,0c-6.9,0-13.8,0-20.7,0
			c-0.3,0-0.8-0.2-0.9-0.3c-0.2-1.1-1-1-1.8-1c-6,0-12,0-18,0c-0.7,0-1.4,0-2.1,0.1c-0.3,0.1-0.5,0.3-0.6,0.6c0,0.2,0.3,0.5,0.6,0.7
			c0.3,0.1,0.6,0.1,0.9,0c2.9,0,5.7,0,8.6,0c0.3,0,1,0.3,1,0.5c0,1.1,0.7,1,1.4,1c5.1,0,10.2,0,15.3,0h8.5c2.4,0,4.8,0,7.2,0
			c0.7,0,1,0.2,0.9,1C123.6,118.9,123.1,118.6,122.7,118.6z"/>
		<path class="st0" d="M192.9,105.4c-0.2,0.1-0.5,0.4-0.5,0.7c0.1,0.3,0.3,0.5,0.5,0.7c0.3,0.1,0.7,0.1,1,0H255v-1.3
			c-5.7,0-55.5,0-61.2,0C193.5,105.3,193.2,105.3,192.9,105.4z"/>
		<path class="st0" d="M255,117v-1.4c-5.9,0-55.8,0-61.7,0c-0.6,0-1.2,0-1.8,0c-0.3,0-0.7-0.4-0.7-0.6c-0.1-0.8-0.5-0.8-1.1-0.8
			c-6.6,0-13.3,0-19.9,0c-0.2-0.1-0.5-0.1-0.7,0c-0.2,0.2-0.6,0.4-0.6,0.7c0,0.2,0.3,0.5,0.6,0.6c0.3,0.1,0.6,0.1,0.8,0
			c2.9,0,5.7,0,8.6,0c0.3,0,0.8,0.3,0.8,0.5c0,1,0.7,1,1.4,1h25.7C208,117,253.6,117,255,117z"/>
		<path class="st0" d="M189.1,121.5c-6.4,0-12.8,0-19.3,0c-0.3,0-0.6-0.1-0.8,0.1c-0.3,0.2-0.5,0.5-0.5,0.8c0,0.7,0.6,0.6,1,0.6
			l10,0H190c0.5,0,0.8-0.2,0.8-0.7c0-0.5-0.3-0.7-0.8-0.7C189.7,121.5,189.4,121.5,189.1,121.5z"/>
		<path class="st0" d="M72.4,61.4c0-0.8-0.6-0.8-1.2-0.8c-1.7,0-43.7,0-45.3,0v1.7c1.6,0,43.6,0,45.3,0
			C71.8,62.3,72.4,62.2,72.4,61.4z"/>
		<path class="st0" d="M26.1,40.5c-0.1,0-0.2,0-0.2,0v5.8c3.1,0,46.5,0,49.6,0c0.5,0,1-0.1,1-0.8s0.5-0.7,1.1-0.7c1.6,0,3.2,0,4.9,0
			c8.8,0,17.7,0,26.5,0c0.8,0,1.1-0.3,1-1c0-0.2,0-0.4,0-0.6c0-1.1,0.1-1.3,1.3-1.3c1.9,0,3.9,0,5.8,0h25.4c0.6,0,1-0.1,1-0.8
			c0-0.7-0.6-0.7-1-0.7c-4.5,0-8.9,0-13.4,0c-17.3,0-34.7,0-52,0C73.5,40.5,29.7,40.5,26.1,40.5z"/>
		<path class="st0" d="M129.2,62.2c0.9,0,1.7,0,2.6,0c8.2,0,16.4,0,24.6,0c1.5,0,2.9,0,4.3,0c0.9,0,1.3-0.6,0.9-1.2
			c-0.3-0.3-0.7-0.4-1.1-0.4c-2.8,0-5.6,0-8.4,0c-3.8,0-7.6,0-11.5,0c-0.3,0-0.9-0.2-1-0.3c-0.1-1-0.9-0.9-1.6-0.9
			c-6.7,0-13.3,0-19.9,0c-3.7,0-7.5,0-11.2,0c-0.5,0-1.2,0.1-1.2-0.7c0-0.8,0.7-0.7,1.2-0.7h19.9c0.3,0,0.5,0,0.8-0.1
			c0.2-0.2,0.4-0.4,0.4-0.7c0-0.2-0.3-0.5-0.5-0.6c-0.2-0.2-0.4,0-0.6,0h-9.2c-3.6,0-7.2,0-10.8,0c-0.6,0-1.2,0-1.3-0.9
			c0-0.2-0.4-0.5-0.7-0.5c-3.2,0-6.4,0-9.6,0c-0.4,0-0.8,0.3-0.8,0.7c0,0.1,0,0.1,0,0.2v3.2c0,1.6,0,1.6,1.7,1.6
			c10.2,0,20.4,0,30.7,0c0.2,0,0.5-0.1,0.7,0c0.2,0.1,0.5,0.5,0.5,0.7s-0.3,0.5-0.6,0.7c-0.3,0.1-0.6,0.1-0.9,0.1
			c-13.8,0-27.7,0-41.5,0c-0.3-0.1-0.5-0.1-0.8,0c-0.3,0.1-0.5,0.4-0.6,0.7c-0.2,0.9,0.5,0.9,1.1,0.9c7,0,14.1,0,21.1,0h4.4h16.8
			c0.5,0,1.1,0.1,1.1-0.7C128.2,62.3,128.6,62.2,129.2,62.2z"/>
		<path class="st0" d="M86.2,34.8c1.4,0,1.5-0.1,1.4-1.5c3.4,0,6.9,0,10.3,0c0.3-0.1,0.6-0.3,0.6-0.7c0-0.2-0.3-0.6-0.6-0.7
			c-0.3-0.1-0.6-0.1-0.9,0c-2.7,0-5.3,0-8,0c-1.4,0-1.4,0-1.5,1.4c-0.3,0-0.6,0-0.9,0c-6.7,0-53.8,0-60.5,0c-0.1,0-0.2,0-0.3,0v1.4
			c0.1,0,0.2,0,0.3,0H86.2z"/>
		<path class="st0" d="M76.5,85.3c0.3,0,1-0.3,1-0.4c-0.1-1.1,0.7-1,1.3-1c6.6,0,13.1,0,19.7,0c0.3,0.1,0.5,0.1,0.8,0
			c0.2-0.1,0.6-0.4,0.6-0.6c-0.1-0.3-0.2-0.6-0.5-0.8c-0.3-0.1-0.6-0.1-0.9-0.1H78.8c-3.8,0-48,0-51.9,0c-0.4,0-0.9,0-1.1,0.4v2.5
			c0.7,0,1.5,0,2.2,0C30.8,85.3,73.8,85.3,76.5,85.3z"/>
		<path class="st0" d="M111.4,80.4c0.1-0.6-0.4-0.8-0.9-0.8c-5-0.1-10.1-0.2-15.1-0.3c-1.5,0-3,0-4.5,0c-1.2,0-2.4,0.1-3.6,0.1
			c-2.9,0-5.7-0.1-8.6-0.1c-0.6,0-1.1,0.1-1.1,1c0,0.9,0.6,0.7,1.1,0.7c5.2,0,10.4,0,15.6,0v0h16.1C110.8,81,111.3,81.1,111.4,80.4z
			"/>
		<path class="st0" d="M127.8,71.2c0.6,0,0.9-0.3,0.9-0.9c0-0.6-0.4-0.8-0.9-0.8c-0.5,0-0.9,0-1.3,0c-7.5,0-15,0-22.5,0
			c-6.5,0-13,0-19.5,0c-0.2,0-0.7-0.3-0.7-0.5c0.1-1.1-0.6-1.1-1.4-1.1c-2.3,0-4.5,0-6.8,0c-0.8,0-1.6,0-2.3,0
			c-0.5,0-0.7,0.2-0.7,0.7c0,1.5,0,2.9,0,4.4c0,0.6,0.2,0.8,0.8,0.8c0.8,0,1.5,0,2.3,0c2,0,2,0,2,2c0,0.7-0.2,1-1,1
			c-1.9,0-3.8,0-5.6,0c-1.6,0-43.5,0-45.1,0v1.3c4,0.1,48.4,0.1,52.4,0.2c3.2,0,6.4,0.1,9.6,0.1c0.8,0,1.1-0.4,1.1-1.2
			c0-0.5-0.2-1.3,0.1-1.6c0.3-0.3,1-0.2,1.6-0.2c2.7,0,5.4-0.1,8.1,0c0.6,0,1.1-0.1,1.1-0.8c0-0.7-0.5-0.8-1.1-0.8c-1,0-2,0-3,0
			c-0.3,0-0.8-0.1-0.8-0.3c-0.1-0.7-0.1-1.5,0-2.2c0-0.2,0.8-0.4,1.2-0.4c3.6,0,7.2,0,10.9,0c3.2,0,6.4,0,9.6,0
			C120.4,71,124.1,71.1,127.8,71.2z"/>
		<path class="st0" d="M205.3,101.7c0,0.8,0.5,0.8,1.1,0.8H255v-1.6c-1.5,0-47.1,0-48.6,0C205.8,100.9,205.3,100.9,205.3,101.7z"/>
		<path class="st0" d="M100.1,96.1c0,0.9,0.8,0.7,1.4,0.7c3.3,0.1,6.6,0,9.9,0v0c3.4,0,6.8,0,10.1,0c0.5,0,1.1,0.1,1.1-0.7
			c0-0.8-0.4-1-1.1-1c-1.6,0-3.1,0-4.7,0c-5.1,0-10.2,0-15.3,0C100.9,95.2,100.1,95.2,100.1,96.1z"/>
		<path class="st0" d="M136,105.5c-0.5-0.1-1-0.2-1.5-0.1c-3.4,0.1-6.8,0.2-10.1,0.2c-6.6,0-13.2,0-19.8,0c-0.4,0-0.8,0-1.2,0.1
			c-0.3,0.1-0.5,0.5-0.4,0.8c0.1,0.2,0.2,0.3,0.4,0.4c0.4,0.1,0.7,0.1,1.1,0.1l15.4,0H133c1,0,2,0,3,0c0.3,0,0.7-0.4,0.7-0.6
			C136.6,106,136.4,105.7,136,105.5z"/>
		<path class="st0" d="M191.3,119.9c0.3,0.1,0.5,0.1,0.8,0h13.1c1.9,0,47.9,0,49.8,0v-1.4c-6.2,0-56.6,0-62.8,0
			c-0.3-0.1-0.6-0.1-0.9,0c-0.3,0.2-0.4,0.5-0.4,0.8C190.9,119.5,191.1,119.7,191.3,119.9z"/>
		<path class="st0" d="M135.3,112.6h-25.2c-2,0-4,0-6.1,0c-0.9,0-1.2,0.4-1,1.1c0.2,0.8,0.8,0.5,1.3,0.5c5.1,0,10.3-0.1,15.5-0.1
			c4.8,0,9.6,0,14.3,0c0.6,0.1,1.1,0.1,1.7,0c0.3-0.1,0.6-0.4,0.6-0.7c0-0.3-0.3-0.6-0.5-0.8C135.7,112.4,135.5,112.6,135.3,112.6z"
			/>
		<path class="st0" d="M146.8,104.3c0.6,0,1-0.2,1-0.9s-0.5-0.8-1-0.8s-1.1,0-1.7,0c-2,0-3.9,0-5.9,0c-0.6,0-0.9-0.1-0.9-0.8
			s-0.5-0.9-1.2-0.9c-2.8,0-5.7,0.1-8.5,0.1c-2.3,0-4.5,0-6.8,0c-1.6,0-3.1,0-4.7,0c-0.7,0-1.1,0.2-1,1c0.1,0.8,0.6,0.6,1.1,0.6
			c2.3,0,4.6,0,6.9,0c0.7,0,1.2,0.1,1.3,1c0,0.6,0.5,0.8,1.1,0.8c3.3,0,6.6-0.1,10-0.1h4.7C143,104.3,144.9,104.3,146.8,104.3z"/>
		<path class="st0" d="M178.5,101.7c0.1,0.8,0.6,0.9,1.2,0.8c0.5,0,0.9,0,1.4,0c2,0,2,0,2-2c0-0.6,0.2-0.9,0.9-0.9
			c6.5,0,13.1,0,19.7,0c2.3,0,48.7,0.1,50.9,0.2c0.1,0,0.3,0,0.4,0v-1.6h-66.5h-9c-0.6,0-1.1,0.1-1.1,0.8c0,0.7-0.3,0.7-0.8,0.7
			c-1.2,0-2.4,0-3.6,0c-1.9,0-1.9,0-2.1-1.8c-0.1-1.2-0.3-1.3-1.4-1.3c-1.9,0-3.9,0-5.8,0c-1,0-2.1,0-3.1,0c-0.6,0-0.9,0.3-0.8,0.9
			c0.1,0.6,0,1.4,0,2.1c0,1.5,0,1.5,1.5,1.5c5.1,0,10.2,0,15.3,0C177.8,101.2,178.5,101.5,178.5,101.7z"/>
		<path class="st0" d="M78.1,120c0.5,0,1.1,0.1,1.1-0.7c0-0.7-0.4-0.8-0.9-0.8c-4,0-48.3,0-52.3,0v1.4C29.9,120,74.1,120,78.1,120z"
			/>
		<path class="st0" d="M76.5,91.1c0.3,0,0.7,0,1,0.1c0.2,0.1,0.6,0.4,0.6,0.5c0,1,0.6,1,1.4,1c5.6,0,11.2,0,16.8,0
			c1.2,0,2.4,0,3.6,0c0.3,0,0.8-0.3,0.8-0.5c0-0.9,0.5-0.9,1.1-0.9c2.9,0,5.8,0,8.7,0c0.4,0,0.8-0.1,1.1-0.4
			c0.2-0.2,0.3-0.5,0.3-0.8c-0.1-0.3-0.3-0.5-0.6-0.6c-0.4-0.1-0.7-0.1-1.1-0.1c-3.7,0-7.3,0-10.9,0c-2.9,0-5.7,0-8.6,0
			c-0.4,0-0.7-0.1-1-0.3c-0.3-0.4-0.5-0.9-0.5-1.4c0-0.8-0.5-0.9-1.2-0.9c-2.7,0-5.3,0-8,0c-1.9,0-1.9,0-1.9,1.8
			c0,0.9-0.3,1.1-1.1,1.1c-2.2,0-4.4,0-6.6,0c-1.4,0-43.1,0-44.4,0v1.4H76.5z"/>
		<path class="st0" d="M71.6,55c0.4,0,1,0.1,1-0.6c0-0.7-0.3-1-1-1c-0.7,0-1.4,0-2.1,0c-1.1,0-42.5,0-43.6,0V55
			C27.7,55,69.8,55,71.6,55z"/>
		<path class="st0" d="M25.9,37.7c6.6,0,53.5,0,60.1,0c0.3,0,0.7,0,1-0.1c0.2-0.1,0.4-0.4,0.4-0.6c0-0.3-0.2-0.5-0.5-0.6
			c-0.4-0.1-0.8-0.2-1.2-0.2H25.9L25.9,37.7C25.9,37.7,25.9,37.7,25.9,37.7z"/>
		<path class="st0" d="M190.9,25.9c-0.4,0-0.8,0.2-1,0.6c-0.3,0.7,0.1,1,1,1c2.3,0,4.7,0,7,0c0.4,0,1,0.3,1,0.5
			c0,1.3,0.9,1.2,1.7,1.2c3.4,0,50.9,0,54.4,0v-3.2h-60.1C193.6,25.9,192.2,25.9,190.9,25.9z"/>
		<path class="st0" d="M111.2,93.3c0,0.8,0.5,0.9,1.1,0.9c2.2,0,4.5,0.1,6.7,0.1c1.7,0,3.5-0.2,5.2-0.2c6.3,0,12.6,0,18.9,0
			c1.9,0,1.9,0,2,2v0.2c-0.1,0.4,0.2,0.7,0.6,0.8c0.1,0,0.1,0,0.2,0c3.2,0,6.4,0,9.6,0c0.7,0,1-0.4,0.9-1c0-0.8,0-1.5,0-2.3
			c0-0.6-0.1-1-0.8-1c-0.4,0-0.7,0-1,0l-20.8,0h-7c-4.8,0-9.6,0-14.4,0C111.8,92.6,111.2,92.5,111.2,93.3z"/>
		<path class="st0" d="M193.4,114.2c5.8,0,55.8,0,61.6,0v-1.9c-0.8,0-45.7,0-46.5,0c-5.1,0-10.2,0-15.3,0c-0.6,0-1,0.1-1,0.9
			C192.3,113.9,192.8,114.2,193.4,114.2z"/>
		<path class="st0" d="M187,31.9c-2.9,0-5.8,0-8.7,0c-1.4,0-1.4,0-1.6,1.4c-0.2,0-0.5,0.1-0.7,0.1c-6.7,0-13.3,0-20,0
			c-0.2,0-0.3,0-0.5,0c-0.5,0-1,0-1,0.7s0.4,0.7,0.9,0.8c0.5,0,0.8,0,1.2,0c6.2,0,12.4,0,18.7,0c1.5,0,1.6,0,1.4-1.5
			c3.5,0,7.1,0,10.6,0c0.2,0,0.4-0.1,0.6-0.3c0.1-0.2,0.2-0.6,0.2-0.7C187.7,32.1,187.4,31.9,187,31.9z"/>
		<path class="st0" d="M157.2,40.4c-2.9,0-2.5-0.2-2.6,2.5c0,1.8,0,1.8-1.8,1.8c-2.8,0-5.6,0-8.4,0c-0.6,0-1-0.1-1-0.8
			c0-0.7-0.5-0.6-1-0.6c-6.7,0-13.5,0-20.2,0c-0.6,0-1.1,0-1,0.8s0.5,0.7,1,0.7h19.5c0.4,0,0.8,0,1.1,0c0.2,0.1,0.5,0.3,0.5,0.5
			c-0.1,0.9,0.5,0.9,1.2,0.9c5.1,0,10.3,0,15.4,0c1.6,0,3.2,0,4.9,0c0.3,0,0.9-0.3,0.9-0.5c0-1,0.7-1,1.4-1h28.8c0.9,0,1.7,0,2.6,0
			c0.6,0,0.8-0.2,0.8-0.8c0-0.2,0-0.5,0-0.7c0-1.3,0.1-1.4,1.4-1.4c3.4,0,50.9,0,54.3,0v-1.4h-76.2
			C171.6,40.4,164.4,40.4,157.2,40.4z"/>
		<path class="st0" d="M201.8,23.2c-0.9,0-1.2,0.4-1.1,1.1c0.1,0.7,0.7,0.6,1.2,0.6c3,0,50.1,0,53.1,0v-1.7c-0.8,0-45.7,0-46.5,0
			C206.3,23.2,204.1,23.2,201.8,23.2z"/>
		<path class="st0" d="M82.6,52.2c0.5,0.1,0.9-0.2,1-0.7c0-0.1,0-0.1,0-0.2c0-0.6-0.4-0.8-0.9-0.9c-0.3,0-0.5,0-0.8,0
			c-5.2,0-50.6,0-55.8,0c-0.1,0-0.1,0-0.2,0v1.9c2.8,0,46,0,48.8,0C77.3,52.4,80,52.3,82.6,52.2z"/>
		<path class="st0" d="M112.5,87c0.5,0,0.9,0,1.4,0c8.5-0.1,16.9-0.2,25.4-0.3c1.6,0,3.1,0,4.7,0c0.3,0,1-0.3,1-0.4c0-1,0.8-1,1.5-1
			h18.6c0.4,0,0.8,0,1.2,0c0.2,0,0.6-0.3,0.6-0.5c-0.1-1,0.6-0.9,1.3-0.9h9.9h3.7c2.2,0,4.4,0,6.6,0c0.7,0,1.1-0.6,0.7-1.1
			c-0.3-0.2-0.6-0.4-1-0.4c-10.3,0-20.6,0-30.8,0c-0.3,0-0.7,0-1,0c-0.5,0-0.8,0.2-0.9,0.8c0,0.2-0.4,0.4-0.6,0.4
			c-1.5,0-3.1,0-4.6,0c-2.6,0-5.3,0-7.9,0s-5.2,0-7.8,0c-0.6,0-1.1,0.2-1,0.8s-0.3,0.9-1,0.9c-3,0-6.1,0-9.1,0c-3.6,0-7.1,0-10.7,0
			c-0.6,0-1,0.2-1.1,0.8C111.4,86.8,111.9,87,112.5,87z"/>
		<path class="st0" d="M101.8,25.9c-0.5,0-1,0-1.2,0.6c-0.2,0.6,0.2,1,1.1,1c2.4,0,4.8,0,7.2,0c0.4,0,0.9,0,0.9,0.6
			c0,0.9,0.5,1.1,1.3,1.1c3.2,0,6.5,0,9.8,0c3.4,0,6.7,0,10.1,0c0.6,0,1.1-0.1,1.1-0.9c0-0.8-0.5-0.8-1-0.8c-2.3,0-4.7,0-7,0
			c-0.5,0-1,0.1-1.1-0.6c-0.1-0.7-0.5-1-1.3-1c-4.4,0-8.8,0-13.1,0C106.3,25.9,104.1,25.9,101.8,25.9z"/>
		<path class="st0" d="M153.4,30.5c-7.4,0-14.8-0.1-22.2-0.2c-2.3,0-4.5,0-6.8,0c-0.9,0-1.8-0.1-2.7,0c-0.5,0-1,0-1,0.8
			s0.4,0.8,1,0.8c0.3,0,0.6,0,0.9,0l15,0c5.2,0,10.5,0,15.7,0c0.5,0,1.1,0.1,1.2-0.7S154,30.5,153.4,30.5z"/>
		<path class="st0" d="M144.1,23.2c-5.3,0-10.5,0-15.8,0h-9c-2.3,0-4.7,0-7,0c-0.6,0-1,0.2-1,0.9c0,0.7,0.6,0.8,1.2,0.8
			c3.9-0.1,7.8-0.2,11.6-0.2c6.6,0,13.3,0,19.9,0c0.6,0,1.2,0,1.2-0.7C145.3,23.2,144.7,23.2,144.1,23.2z"/>
		<path class="st0" d="M144.2,36.2c-0.3,0-1,0.1-1,0.3c-0.2,1.1-1.1,1-1.8,1c-2.2,0-4.4,0-6.6,0l-12.7-0.1c-0.6,0-1.2,0.1-1.2,0.9
			c0,0.8,0.7,0.8,1.2,0.8h30.7c0.3,0,0.7,0,1,0c0.2-0.1,0.6-0.3,0.6-0.5c0-0.9,0.6-0.8,1.2-0.8h10h10.2c0.5,0,1,0,1-0.7
			c0-0.7-0.5-0.8-1-0.8h-0.6c-7.5,0-15,0-22.5,0C149.9,36.2,147,36.2,144.2,36.2z"/>
	</g>
</g>
</svg>
