<?xml version="1.0" encoding="utf-8"?>
<!-- Generator: Adobe Illustrator 25.2.0, SVG Export Plug-In . SVG Version: 6.00 Build 0)  -->
<svg version="1.1" id="Layer_1" xmlns="http://www.w3.org/2000/svg" xmlns:xlink="http://www.w3.org/1999/xlink" x="0px" y="0px"
	 viewBox="0 0 280.8 151" style="enable-background:new 0 0 280.8 151;" xml:space="preserve">
<style type="text/css">
	.st0{fill:none;}
	.st1{fill:#FFFFFF;}
</style>
<rect x="0.1" class="st0" width="280.8" height="151"/>
<g>
	<rect x="97.3" y="0" width="7.6" height="151"/>
	<rect x="70.7" y="0" width="7.6" height="151"/>
	<rect x="109.8" y="0" width="7.6" height="151"/>
	<rect x="122.3" y="0" width="7.6" height="151"/>
	<rect x="194.2" y="0" width="7.6" height="151"/>
	<rect x="159.1" y="0" width="7.6" height="151"/>
	<rect x="173" y="0" width="7.6" height="151"/>
	<rect x="79.8" y="0" width="3.8" height="151"/>
	<rect x="92.2" y="0" width="3.8" height="151"/>
	<rect x="105.5" y="0" class="st1" width="3.8" height="151"/>
	<rect x="154.3" y="0" class="st1" width="3.8" height="151"/>
	<rect x="181.9" y="0" class="st1" width="3.8" height="151"/>
	<rect x="115.5" y="0" class="st1" width="5.7" height="151"/>
	<rect x="163.9" y="0" class="st1" width="5.7" height="151"/>
	<rect x="128.7" y="0" class="st1" width="5.7" height="151"/>
	<rect x="202.5" y="0" class="st1" width="5.7" height="151"/>
	<rect x="68.8" y="0" class="st1" width="3.8" height="151"/>
	<rect x="144.3" y="0" width="3.8" height="151"/>
	<rect x="131.5" y="0" width="3.8" height="151"/>
	<rect x="208.3" y="0" width="3.8" height="151"/>
	<rect x="139.2" y="0" width="3.8" height="151"/>
	<rect x="85.2" y="0" transform="matrix(-1 -1.224647e-16 1.224647e-16 -1 171.1418 150.97)" width="0.8" height="151"/>
	
		<rect x="86.9" y="0" transform="matrix(-1 -1.224647e-16 1.224647e-16 -1 174.6801 150.97)" class="st1" width="0.8" height="151"/>
	
		<rect x="190.6" y="0" transform="matrix(-1 -1.224647e-16 1.224647e-16 -1 381.9336 150.97)" class="st1" width="0.8" height="151"/>
	
		<rect x="96.3" y="0" transform="matrix(-1 -1.224647e-16 1.224647e-16 -1 193.3186 150.97)" class="st1" width="0.8" height="151"/>
	
		<rect x="149.8" y="0" transform="matrix(-1 -1.224647e-16 1.224647e-16 -1 300.4905 150.97)" class="st1" width="0.8" height="151"/>
	
		<rect x="78.7" y="0" transform="matrix(-1 -1.224647e-16 1.224647e-16 -1 158.1091 150.97)" class="st1" width="0.8" height="151"/>
	<rect x="88.7" y="0" transform="matrix(-1 -1.224647e-16 1.224647e-16 -1 178.2183 150.97)" width="0.8" height="151"/>
	<rect x="152.4" y="0" transform="matrix(-1 -1.224647e-16 1.224647e-16 -1 306.6276 150.97)" width="1.9" height="151"/>
	<rect x="186.9" transform="matrix(-1 -1.224647e-16 1.224647e-16 -1 375.9053 150.97)" width="2" height="151"/>
</g>
</svg>
